<svg width="40" height="34" viewBox="0 0 40 34" fill="none" xmlns="http://www.w3.org/2000/svg">
    <path d="M19.9065 33.25C19.1426 33.25 18.4933 32.9948 17.9586 32.4844C17.4239 31.974 17.1565 31.3542 17.1565 30.625V24.85C17.1565 24.6167 17.1794 24.3979 17.2252 24.1938C17.2711 23.9896 17.3246 23.7854 17.3857 23.5812L19.5857 18.025C19.8607 17.3542 20.3114 16.8073 20.9377 16.3844C21.5641 15.9615 22.2593 15.75 23.0232 15.75H24.4898V20.2125L22.6565 21.9625C22.4732 22.1375 22.3815 22.3417 22.3815 22.575C22.3815 22.8083 22.4732 23.0125 22.6565 23.1875C22.8398 23.3625 23.0461 23.45 23.2752 23.45C23.5044 23.45 23.7107 23.3625 23.894 23.1875L26.3232 20.8687V14C26.3232 13.5042 26.4989 13.0885 26.8502 12.7531C27.2016 12.4177 27.6371 12.25 28.1565 12.25C28.6759 12.25 29.1114 12.4177 29.4627 12.7531C29.8141 13.0885 29.9898 13.5042 29.9898 14V20.8687L32.3732 23.1875C32.5565 23.3625 32.7704 23.45 33.0148 23.45C33.2593 23.45 33.4732 23.3625 33.6565 23.1875C33.8398 23.0125 33.9315 22.801 33.9315 22.5531C33.9315 22.3052 33.8398 22.0938 33.6565 21.9187L31.8232 20.1687V15.75H33.2898C34.0537 15.75 34.7489 15.9615 35.3752 16.3844C36.0016 16.8073 36.4523 17.3542 36.7273 18.025L38.9273 23.5812C38.9884 23.7854 39.0419 23.9896 39.0877 24.1938C39.1336 24.3979 39.1565 24.6167 39.1565 24.85V30.625C39.1565 31.3542 38.8891 31.974 38.3544 32.4844C37.8197 32.9948 37.1704 33.25 36.4065 33.25H32.7398C31.9759 33.25 31.3266 32.9948 30.7919 32.4844C30.2572 31.974 29.9898 31.3542 29.9898 30.625V25.8125L28.1565 24.0625L26.3232 25.8125V30.625C26.3232 31.3542 26.0558 31.974 25.5211 32.4844C24.9864 32.9948 24.337 33.25 23.5732 33.25H19.9065ZM9.82316 17.1062L7.76066 13.2125C7.60788 12.9208 7.38636 12.6875 7.09608 12.5125C6.8058 12.3375 6.49261 12.25 6.15649 12.25H0.656494V3.5C0.656494 2.5375 1.01552 1.71354 1.73358 1.02812C2.45163 0.342708 3.31483 0 4.32316 0H33.6565C34.6648 0 35.528 0.342708 36.2461 1.02812C36.9641 1.71354 37.3232 2.5375 37.3232 3.5V13.125H32.7398C32.7398 11.9 32.2968 10.8646 31.4107 10.0188C30.5245 9.17292 29.4398 8.75 28.1565 8.75C26.8732 8.75 25.7884 9.17292 24.9023 10.0188C24.0162 10.8646 23.5732 11.9 23.5732 13.125L22.4273 13.1687L18.8065 6.2125C18.6537 5.92083 18.4246 5.70208 18.119 5.55625C17.8134 5.41042 17.4926 5.3375 17.1565 5.3375C16.8204 5.3375 16.4995 5.41042 16.194 5.55625C15.8884 5.70208 15.6593 5.92083 15.5065 6.2125L9.82316 17.1062ZM4.32316 28C3.31483 28 2.45163 27.6573 1.73358 26.9719C1.01552 26.2865 0.656494 25.4625 0.656494 24.5V15.75H5.01066L8.17316 21.7875C8.32594 22.1083 8.54747 22.349 8.83774 22.5094C9.12802 22.6698 9.45649 22.75 9.82316 22.75C10.1593 22.75 10.4725 22.6698 10.7627 22.5094C11.053 22.349 11.2745 22.1083 11.4273 21.7875L17.1565 10.9375L18.9898 14.4812C18.562 14.8313 18.1725 15.225 17.8211 15.6625C17.4697 16.1 17.187 16.5812 16.9732 17.1062L14.6357 23.1437C14.5745 23.3479 14.5211 23.5448 14.4752 23.7344C14.4294 23.924 14.4065 24.1208 14.4065 24.325V28H4.32316Z" fill="#5686E1"/>
</svg>
