<svg width="21" height="21" viewBox="0 0 21 21" fill="none" xmlns="http://www.w3.org/2000/svg">
    <path d="M20.1948 10.855C20.1948 10.2047 20.1367 9.58726 20.037 8.98633H10.6528V12.699H16.0259C15.7851 13.9173 15.0792 14.9463 14.0328 15.646V18.1156H17.2384C19.1152 16.3951 20.1948 13.8597 20.1948 10.855Z" fill="#4285F4"/>
    <path d="M10.653 20.5113C13.3437 20.5113 15.5942 19.6223 17.2385 18.1158L14.0329 15.6462C13.1361 16.2389 11.9983 16.6011 10.653 16.6011C8.05365 16.6011 5.85294 14.8642 5.06401 12.5181H1.75879V15.0617C3.39479 18.2887 6.75814 20.5113 10.653 20.5113Z" fill="#34A853"/>
    <path d="M5.06401 12.518C4.85639 11.9253 4.74843 11.2915 4.74843 10.6329C4.74843 9.97435 4.8647 9.34049 5.06401 8.74778V6.2041H1.75879C1.07781 7.53768 0.6875 9.0359 0.6875 10.6329C0.6875 12.2299 1.07781 13.7281 1.75879 15.0617L5.06401 12.518Z" fill="#FBBC05"/>
    <path d="M10.653 4.66459C12.1229 4.66459 13.435 5.16674 14.4731 6.14635L17.3132 3.33101C15.5942 1.734 13.3437 0.754395 10.653 0.754395C6.75814 0.754395 3.39479 2.97703 1.75879 6.20397L5.06401 8.74765C5.85294 6.40154 8.05365 4.66459 10.653 4.66459Z" fill="#EA4335"/>
</svg>
