<svg width="394" height="335" viewBox="0 0 394 335" fill="none" xmlns="http://www.w3.org/2000/svg">
    <path d="M413 294.393H-19V294.618H413V294.393Z" fill="#E0E0E0"/>
    <path d="M347.431 307.008H338.264V307.233H347.431V307.008Z" fill="#E0E0E0"/>
    <path d="M331.922 307.116H294.641V307.341H331.922V307.116Z" fill="#E0E0E0"/>
    <path d="M248.555 304.976H185.638V305.201H248.555V304.976Z" fill="#E0E0E0"/>
    <path d="M149.445 308.878H129.478V309.103H149.445V308.878Z" fill="#E0E0E0"/>
    <path d="M82.9095 305.084H55.417V305.309H82.9095V305.084Z" fill="#E0E0E0"/>
    <path d="M113.4 305.084H87.7048V305.309H113.4V305.084Z" fill="#E0E0E0"/>
    <path d="M63.6506 301.155H37.4109V301.38H63.6506V301.155Z" fill="#E0E0E0"/>
    <path d="M185.768 254.289H18.9387C17.6318 254.287 16.3792 253.745 15.4558 252.782C14.5325 251.82 14.0139 250.515 14.0139 249.155V5.08938C14.0253 3.73703 14.5489 2.44396 15.471 1.49104C16.3931 0.538124 17.6392 0.00231665 18.9387 0H185.768C187.077 0 188.332 0.540938 189.257 1.50381C190.182 2.46669 190.702 3.77263 190.702 5.13434V249.155C190.702 250.517 190.182 251.823 189.257 252.785C188.332 253.748 187.077 254.289 185.768 254.289ZM18.9387 0.179837C17.6891 0.182219 16.4914 0.700523 15.6086 1.62098C14.7257 2.54144 14.2299 3.78885 14.2299 5.08938V249.155C14.2299 250.455 14.7257 251.703 15.6086 252.623C16.4914 253.544 17.6891 254.062 18.9387 254.064H185.768C187.019 254.062 188.217 253.544 189.102 252.624C189.986 251.704 190.484 250.456 190.486 249.155V5.08938C190.484 3.78802 189.986 2.54064 189.102 1.62043C188.217 0.700231 187.019 0.182214 185.768 0.179837H18.9387Z" fill="#E0E0E0"/>
    <path d="M372.66 254.289H205.822C204.514 254.287 203.261 253.745 202.336 252.783C201.411 251.82 200.891 250.516 200.888 249.155V5.08938C200.902 3.73621 201.428 2.44315 202.351 1.49048C203.275 0.53781 204.522 0.00229138 205.822 0H372.66C373.958 0.0046798 375.202 0.541533 376.122 1.4942C377.043 2.44687 377.565 3.73858 377.576 5.08938V249.155C377.576 250.513 377.059 251.817 376.138 252.779C375.216 253.741 373.966 254.284 372.66 254.289ZM205.822 0.179837C204.571 0.182214 203.373 0.700231 202.489 1.62043C201.604 2.54064 201.107 3.78802 201.104 5.08938V249.155C201.107 250.456 201.604 251.704 202.489 252.624C203.373 253.544 204.571 254.062 205.822 254.064H372.66C373.911 254.062 375.109 253.544 375.993 252.624C376.878 251.704 377.375 250.456 377.378 249.155V5.08938C377.375 3.78802 376.878 2.54064 375.993 1.62043C375.109 0.700231 373.911 0.182214 372.66 0.179837H205.822Z" fill="#E0E0E0"/>
    <path d="M135.077 206.462C135.553 206.462 136.028 206.462 136.512 206.507C139.522 206.728 142.448 207.64 145.081 209.176C147.713 210.713 149.986 212.837 151.736 215.395C153.487 217.954 154.672 220.884 155.207 223.975C155.741 227.066 155.612 230.242 154.828 233.276C152.596 242.333 151.519 251.657 151.623 261.006V288.234C151.623 289.188 151.259 290.102 150.611 290.777C149.963 291.451 149.084 291.83 148.167 291.83H65.1453V206.462H135.077Z" fill="#E6E6E6"/>
    <path d="M44.6952 227.745C44.6978 224.716 45.3217 221.722 46.5252 218.964C47.7287 216.206 49.4842 213.747 51.6742 211.751C53.8642 209.755 56.4383 208.269 59.2244 207.392C62.0105 206.515 64.9445 206.267 67.8301 206.665C70.7157 207.062 73.4866 208.096 75.9574 209.698C78.4282 211.299 80.542 213.431 82.1576 215.951C83.7733 218.471 84.8534 221.321 85.3258 224.31C85.7982 227.299 85.6521 230.359 84.8971 233.284C82.6651 242.342 81.5874 251.665 81.6917 261.015V288.242C81.6917 289.196 81.3276 290.111 80.6794 290.786C80.0313 291.46 79.1523 291.839 78.2357 291.839H52.0392C51.1226 291.839 50.2436 291.46 49.5954 290.786C48.9473 290.111 48.5832 289.196 48.5832 288.242V259.415C48.6588 250.647 47.5951 241.908 45.4209 233.437C44.9329 231.583 44.6888 229.668 44.6952 227.745Z" fill="#F0F0F0"/>
    <path d="M93.3291 291.812H198.331V239.993H93.3291V291.812Z" fill="#E6E6E6"/>
    <path d="M259.933 251.708L129.702 251.708V194.035C129.702 189.761 131.334 185.663 134.237 182.641C137.141 179.619 141.079 177.921 145.185 177.921H244.476C248.578 177.929 252.509 179.629 255.407 182.65C258.305 185.672 259.933 189.766 259.933 194.035V251.708Z" fill="#E0E0E0"/>
    <path d="M240.442 251.708L110.22 251.708V193.262C110.22 189.195 111.772 185.296 114.535 182.421C117.298 179.546 121.045 177.93 124.951 177.93H225.711C229.618 177.93 233.365 179.546 236.128 182.421C238.89 185.296 240.442 189.195 240.442 193.262V251.708Z" fill="#F0F0F0"/>
    <path d="M193.449 256.357H94.2878C93.0963 256.357 91.9535 255.865 91.111 254.988C90.2684 254.111 89.7951 252.922 89.7951 251.682V239.929C89.7951 238.689 90.2684 237.5 91.111 236.623C91.9535 235.746 93.0963 235.254 94.2878 235.254H193.449C193.804 235.254 194.145 235.4 194.396 235.662C194.647 235.923 194.788 236.278 194.788 236.647L194.788 254.964C194.788 255.333 194.647 255.688 194.396 255.949C194.145 256.211 193.804 256.357 193.449 256.357Z" fill="#E0E0E0"/>
    <path d="M267.278 206.462C267.753 206.462 268.237 206.462 268.721 206.507C271.731 206.728 274.658 207.64 277.29 209.176C279.922 210.713 282.195 212.837 283.946 215.395C285.696 217.954 286.881 220.884 287.416 223.975C287.951 227.066 287.821 230.242 287.038 233.276C284.799 242.332 283.718 251.656 283.824 261.006V288.234C283.824 289.188 283.459 290.102 282.811 290.777C282.163 291.451 281.284 291.83 280.368 291.83H197.354V206.462H267.278Z" fill="#E6E6E6"/>
    <path d="M176.896 227.745C176.927 222.24 179.006 216.961 182.696 213.016C186.387 209.072 191.402 206.768 196.689 206.589C201.977 206.41 207.125 208.369 211.054 212.055C214.983 215.742 217.388 220.869 217.763 226.361C217.907 228.69 217.685 231.029 217.106 233.284C214.874 242.342 213.797 251.665 213.901 261.015V288.243C213.901 289.196 213.537 290.111 212.889 290.786C212.241 291.46 211.361 291.839 210.445 291.839H184.24C183.323 291.839 182.444 291.46 181.796 290.786C181.148 290.111 180.784 289.196 180.784 288.243V259.415C180.861 250.646 179.794 241.907 177.613 233.437C177.128 231.582 176.887 229.668 176.896 227.745Z" fill="#F0F0F0"/>
    <path d="M66.604 294.402H265.817C266.144 294.403 266.469 294.337 266.771 294.208C267.074 294.078 267.35 293.887 267.582 293.647C267.814 293.406 267.998 293.12 268.123 292.806C268.249 292.491 268.314 292.153 268.314 291.812H64.1157C64.1157 292.499 64.3779 293.158 64.8445 293.644C65.3112 294.129 65.9441 294.402 66.604 294.402Z" fill="#E0E0E0"/>
    <path d="M337.478 290.724H355.397V193.244H337.478V290.724Z" fill="#E6E6E6"/>
    <path d="M273.853 294.393H351.958V290.733H273.853V294.393Z" fill="#E6E6E6"/>
    <path d="M337.477 193.244H270.414V290.724H337.477V193.244Z" fill="#F0F0F0"/>
    <path d="M334.939 196.454H272.956V258.479H334.939V196.454Z" fill="#E6E6E6"/>
    <path d="M334.939 261.114H272.956V283.467H334.939V261.114Z" fill="#E6E6E6"/>
    <path d="M286.028 196.454H272.956V258.479H286.028V196.454Z" fill="#E0E0E0"/>
    <path d="M286.028 261.114H272.956V283.467H286.028V261.114Z" fill="#E0E0E0"/>
    <path d="M129.046 147.673L284.428 147.673V30.3653L129.046 30.3653V147.673Z" fill="#E0E0E0"/>
    <path d="M117.917 147.673L281.585 147.673V30.3653L117.917 30.3653V147.673Z" fill="#F0F0F0"/>
    <path d="M278.121 144.058V33.98L121.4 33.98V144.058H278.121Z" fill="#FAFAFA"/>
    <path d="M206.553 89.8522C208.992 74.0543 198.664 59.1894 183.485 56.6505C168.305 54.1116 154.022 64.8601 151.582 80.658C149.142 96.456 159.47 111.321 174.65 113.86C189.83 116.399 204.113 105.65 206.553 89.8522Z" fill="#E0E0E0"/>
    <path d="M133.245 118.692C135.777 115.365 140.857 112.803 144.615 112.964C145.17 112.944 145.723 113.038 146.242 113.242C146.761 113.445 147.236 113.755 147.639 114.151C154.499 110.015 162.396 107.479 168.92 107.758C172.237 107.893 174.812 108.747 176.592 110.141C183.962 103.901 193.353 99.4677 200.17 99.4677C204.041 99.4677 206.443 100.906 207.298 103.289C214.858 99.099 222.626 96.5273 228.898 96.5273C238.886 96.5273 242.126 103.064 238.04 112.254C239.681 113.989 247.544 116.408 247.233 119.304H132.813C132.951 119.079 133.064 118.872 133.245 118.692Z" fill="#F0F0F0"/>
    <path d="M172.635 76.4844C173.1 76.4648 173.562 76.5644 173.981 76.7745C174.4 76.9847 174.762 77.2988 175.037 77.6893C180.86 73.4901 187.427 70.9095 192.714 71.1972C194.973 71.1881 197.156 72.0497 198.84 73.616C205.165 67.3217 213.062 62.8258 218.609 62.8258C221.771 62.8258 223.654 64.2825 224.216 66.7013C230.601 62.4482 237.064 59.8315 242.178 59.8315C248.503 59.8315 251.302 63.8509 250.43 70.0193C253.48 68.2209 256.478 67.1689 258.914 67.1689C262.292 67.1689 263.882 69.1921 263.606 72.3752C263.899 72.3752 264.193 72.3752 264.47 72.4201C269.654 72.9506 271.606 77.0599 269.127 81.7626H163.442C165.758 78.6425 169.741 76.3316 172.635 76.4844Z" fill="#F0F0F0"/>
    <path d="M87.1677 77.5325C89.4933 61.7159 79.0584 46.9321 63.8608 44.5118C48.6631 42.0915 34.4578 52.9514 32.1322 68.7679C29.8066 84.5844 40.2415 99.3683 55.4392 101.789C70.6368 104.209 84.8422 93.349 87.1677 77.5325Z" fill="#E0E0E0"/>
    <path d="M85.5377 77.759C87.9772 61.961 77.6492 47.0961 62.4695 44.5572C47.2897 42.0183 33.0064 52.7669 30.5669 68.5648C28.1273 84.3627 38.4553 99.2276 53.6351 101.767C68.8148 104.305 83.0981 93.5569 85.5377 77.759Z" fill="#F0F0F0"/>
    <path d="M82.3907 73.1396C82.3994 79.1348 80.3674 84.9395 76.6553 89.5239C72.9431 94.1084 67.7907 97.1763 62.112 98.1835C56.4333 99.1907 50.5953 98.0721 45.6336 95.026C40.6719 91.98 36.9073 87.2034 35.0074 81.5437C33.1076 75.8839 33.1954 69.7067 35.2552 64.1079C37.3151 58.5091 41.2138 53.8505 46.2598 50.9585C51.3059 48.0665 57.1731 47.128 62.8207 48.3095C68.4684 49.4911 73.5314 52.7162 77.1116 57.4129L77.1807 57.4938C80.5627 61.9486 82.3987 67.4622 82.3907 73.1396Z" fill="#E0E0E0"/>
    <path d="M82.3901 73.1396C82.3831 78.2472 80.893 83.2334 78.1154 87.4443C75.3378 91.6551 71.4022 94.8941 66.8248 96.7364C62.2474 98.5787 57.2419 98.9384 52.4647 97.7683C47.6874 96.5981 43.3615 93.9528 40.0541 90.1791C36.1528 85.0285 34.3232 78.5039 34.9502 71.9779C35.5771 65.452 38.6118 59.4335 43.4158 55.1888C48.2198 50.944 54.4184 48.8039 60.7077 49.2187C66.9969 49.6335 72.8864 52.5709 77.137 57.4129L77.2061 57.4938C80.5789 61.9521 82.4056 67.4654 82.3901 73.1396Z" fill="#FAFAFA"/>
    <path d="M58.5786 75.5946C58.2535 75.5911 57.9358 75.4923 57.6623 75.3093C57.3887 75.1264 57.1702 74.8669 57.0321 74.5605L50.8285 60.785C50.7271 60.5706 50.6676 60.3373 50.6538 60.0988C50.6399 59.8602 50.6719 59.6212 50.7478 59.3956C50.8238 59.1701 50.9421 58.9625 51.096 58.7851C51.2499 58.6077 51.4362 58.464 51.6441 58.3625C51.852 58.2609 52.0772 58.2034 52.3067 58.1935C52.5361 58.1835 52.7652 58.2212 52.9804 58.3045C53.1957 58.3877 53.3929 58.5148 53.5604 58.6782C53.7279 58.8417 53.8625 59.0382 53.9562 59.2564L59.4513 71.4853L67.3914 68.1403C67.8165 67.9615 68.2924 67.9657 68.7145 68.152C69.1366 68.3384 69.4703 68.6916 69.6421 69.1339C69.814 69.5763 69.81 70.0716 69.6309 70.5109C69.4519 70.9502 69.1125 71.2975 68.6874 71.4763L59.2266 75.4597C59.021 75.5476 58.8009 75.5934 58.5786 75.5946Z" fill="#E0E0E0"/>
    <path d="M302.805 235.092C309.25 235.991 313.242 221.424 299.003 209.069C299.815 223.375 291.555 233.473 302.805 235.092Z" fill="#F0F0F0"/>
    <path d="M306.866 244.309C316.223 237.484 309.821 213.646 280.877 215.373C293.396 232.889 290.562 256.205 306.866 244.309Z" fill="#F0F0F0"/>
    <path d="M303.565 244.146C297.353 237.178 306.2 219.644 328.561 226.046C315.938 237.591 314.408 256.267 303.565 244.146Z" fill="#F0F0F0"/>
    <path d="M293.942 258.48H313.166L314.617 245.181H292.49L293.942 258.48Z" fill="#E0E0E0"/>
    <path d="M291.064 247.554H316.051V244.623H291.064V247.554Z" fill="#E0E0E0"/>
    <path d="M197 335C289.52 335 364.521 330.442 364.521 324.821C364.521 319.199 289.52 314.642 197 314.642C104.481 314.642 29.4792 319.199 29.4792 324.821C29.4792 330.442 104.481 335 197 335Z" fill="#F5F5F5"/>
    <path d="M315.903 299.299L309.732 301.785L315.048 316.076L321.219 313.59L315.903 299.299Z" fill="#E4897B"/>
    <path d="M343.491 317.907H336.985L334.592 302.234H341.098L343.491 317.907Z" fill="#E4897B"/>
    <path d="M336.561 317.125H343.879C344.005 317.123 344.128 317.168 344.224 317.252C344.321 317.336 344.386 317.454 344.406 317.583L345.357 323.608C345.377 323.758 345.365 323.911 345.323 324.057C345.28 324.202 345.208 324.336 345.111 324.45C345.015 324.564 344.895 324.654 344.762 324.715C344.628 324.776 344.483 324.806 344.337 324.804C341.788 324.759 340.553 324.606 337.339 324.606C335.36 324.606 329.39 324.822 326.66 324.822C323.929 324.822 323.731 322.007 324.863 321.755C329.934 320.613 333.805 319.058 335.49 317.538C335.791 317.278 336.169 317.132 336.561 317.125Z" fill="#263238"/>
    <path d="M314.909 314.715L321.821 312.62C321.942 312.578 322.074 312.583 322.191 312.634C322.309 312.686 322.404 312.779 322.461 312.899L325.053 318.294C325.114 318.43 325.146 318.58 325.146 318.731C325.146 318.882 325.114 319.031 325.052 319.167C324.99 319.304 324.9 319.425 324.788 319.521C324.676 319.617 324.545 319.686 324.405 319.723C321.899 320.434 320.206 320.883 317.069 321.836C314.892 322.493 312.689 323.563 310.537 324.273C309.06 324.768 305.569 324.786 303.764 324.786C301.094 324.786 300.498 321.854 301.638 321.72C304.533 321.378 304.93 321.54 306.528 320.703C309.139 319.51 311.506 317.807 313.501 315.686C313.882 315.241 314.367 314.906 314.909 314.715Z" fill="#263238"/>
    <path d="M305.258 98.7036C304.722 100.115 304.213 101.347 303.634 102.642C303.055 103.937 302.476 105.178 301.862 106.428C300.622 108.963 299.246 111.425 297.741 113.801C296.172 116.332 294.353 118.685 292.315 120.824C291.157 122.043 289.864 123.115 288.462 124.016C286.703 125.154 284.691 125.799 282.621 125.886C282.043 125.902 281.464 125.86 280.893 125.76C280.394 125.675 279.901 125.558 279.416 125.409C278.592 125.148 277.789 124.82 277.014 124.429C275.686 123.736 274.407 122.946 273.186 122.064C270.946 120.443 268.81 118.671 266.793 116.759C262.875 113.068 259.219 109.086 255.854 104.845L259.207 101.338C263.173 104.593 267.242 107.848 271.303 110.816C273.281 112.276 275.328 113.633 277.437 114.88C278.389 115.444 279.379 115.934 280.401 116.346C280.96 116.638 281.58 116.783 282.206 116.768C282.701 116.616 283.164 116.369 283.572 116.04C284.319 115.464 285.008 114.81 285.628 114.089C287.115 112.317 288.445 110.409 289.602 108.388C290.846 106.284 292.013 104.063 293.119 101.797C293.672 100.664 294.207 99.5129 294.726 98.3619C295.244 97.211 295.771 95.9971 296.212 94.936L305.258 98.7036Z" fill="#E4897B"/>
    <path d="M260.132 103.505L259.208 98.1729L252.615 102.381C252.615 102.381 254.697 105.744 256.892 105.798L260.132 103.505Z" fill="#E4897B"/>
    <path d="M256.132 94.9629L250.982 98.6046L252.607 102.381L259.199 98.173L256.132 94.9629Z" fill="#E4897B"/>
    <path d="M308.282 91.8157C309.872 97.9661 301.214 110.321 301.214 110.321L289.844 103.685C289.844 103.685 291.961 98.6045 294.562 93.4342C298.752 85.0808 306.459 84.8021 308.282 91.8157Z" fill="#FFC100"/>
    <path opacity="0.6" d="M308.282 91.8157C309.872 97.9661 301.214 110.321 301.214 110.321L289.844 103.685C289.844 103.685 291.961 98.6045 294.562 93.4342C298.752 85.0808 306.459 84.8021 308.282 91.8157Z" fill="#FAFAFA"/>
    <path d="M294.382 106.319L298.849 108.927L299.626 94.666C297.034 96.7431 295.194 103.001 294.382 106.319Z" fill="#FFC100"/>
    <path opacity="0.3" d="M294.382 106.319L298.849 108.927L299.626 94.666C297.034 96.7431 295.194 103.001 294.382 106.319Z" fill="#FAFAFA"/>
    <path d="M316.826 300.515L310.636 303.002L313.377 310.393L319.567 307.905L316.826 300.515Z" fill="#CE6F64"/>
    <path d="M341.106 302.234H334.592L335.827 310.318H342.333L341.106 302.234Z" fill="#CE6F64"/>
    <path d="M337.278 86.8343C330.651 113.028 332.483 140.147 331.93 145.704H297.136C291.952 107.632 300.817 87.185 300.817 87.185C300.817 87.185 303.582 86.4117 307.141 85.8092L308.135 85.6564C309.042 85.5215 309.975 85.3956 310.926 85.3057C315.852 85.0088 320.791 85.0088 325.717 85.3057C326.486 85.3057 327.264 85.4046 328.024 85.4676L328.932 85.5575C333.416 86.016 337.278 86.8343 337.278 86.8343Z" fill="#FFC100"/>
    <path opacity="0.6" d="M337.278 86.8343C330.651 113.028 332.483 140.147 331.93 145.704H297.136C291.952 107.632 300.817 87.185 300.817 87.185C300.817 87.185 303.582 86.4117 307.141 85.8092L308.135 85.6564C309.042 85.5215 309.975 85.3956 310.926 85.3057C315.852 85.0088 320.791 85.0088 325.717 85.3057C326.486 85.3057 327.264 85.4046 328.024 85.4676L328.932 85.5575C333.416 86.016 337.278 86.8343 337.278 86.8343Z" fill="#FAFAFA"/>
    <path d="M296.031 135.399C296.152 137.023 296.305 138.69 296.489 140.398L322.409 131.658C326.45 130.404 329.96 127.756 332.362 124.15C332.458 121.749 332.587 119.223 332.786 116.588C332.872 115.302 332.985 113.989 333.097 112.659C333.209 111.328 333.365 109.862 333.52 108.441L296.031 135.399Z" fill="#FFC100"/>
    <path opacity="0.3" d="M296.031 135.399C296.152 137.023 296.305 138.69 296.489 140.398L322.409 131.658C326.45 130.404 329.96 127.756 332.362 124.15C332.458 121.749 332.587 119.223 332.786 116.588C332.872 115.302 332.985 113.989 333.097 112.659C333.209 111.328 333.365 109.862 333.52 108.441L296.031 135.399Z" fill="#FAFAFA"/>
    <path d="M328.025 85.4678L327.68 86.2411C327.567 86.5018 324.811 92.5803 314.677 92.5803C313.329 92.5803 309.225 92.5803 307.937 89.595C307.691 88.9635 307.581 88.2834 307.616 87.6028C307.65 86.9222 307.828 86.2578 308.136 85.6566L307.143 85.8095C306.874 86.4664 306.736 87.1728 306.736 87.8866C306.736 88.6003 306.874 89.3067 307.143 89.9637C308.655 93.4795 313.191 93.4795 314.668 93.4795C325.347 93.4795 328.336 86.8885 328.492 86.6097L328.95 85.5577L328.025 85.4678Z" fill="#FAFAFA"/>
    <path d="M325.225 67.9692C324.016 72.9237 322.573 81.9965 325.718 85.3055C325.718 85.3055 323.523 90.332 314.676 90.332C306.597 90.332 310.926 85.3055 310.926 85.3055C316.309 83.9837 316.404 79.9104 315.695 76.0439L325.225 67.9692Z" fill="#E4897B"/>
    <path d="M321.337 71.2603L315.695 76.0349C315.874 76.9227 315.976 77.8256 315.998 78.7325C317.648 80.4409 320.957 76.1158 321.303 73.9039C321.466 73.0319 321.478 72.1365 321.337 71.2603Z" fill="#CE6F64"/>
    <path d="M305.526 65.5686C305.664 66.3715 305.96 67.1361 306.395 67.814C306.831 68.4919 307.397 69.0683 308.058 69.507C309.855 70.6939 311.514 69.1923 311.592 67.1062C311.695 65.2359 310.883 62.3585 308.784 62.0168C308.326 61.9457 307.859 61.9901 307.422 62.1462C306.984 62.3022 306.589 62.5655 306.27 62.9136C305.951 63.2618 305.716 63.6847 305.587 64.1467C305.458 64.6088 305.437 65.0964 305.526 65.5686Z" fill="#CE6F64"/>
    <path d="M310.304 52.4946C306.978 53.7984 304.956 67.0524 308.879 69.3093C312.801 71.5663 316.603 50.0308 310.304 52.4946Z" fill="#263238"/>
    <path d="M304.687 57.0892C307.141 59.7868 319.652 56.5497 320.127 51.9099C320.602 47.2701 300.048 52.0178 304.687 57.0892Z" fill="#263238"/>
    <path d="M325.044 59.9308C324.811 66.6837 325.001 70.6311 321.839 74.3177C320.868 75.5479 319.59 76.4752 318.145 76.9973C316.7 77.5194 315.145 77.616 313.651 77.2765C312.157 76.937 310.782 76.1746 309.677 75.0734C308.573 73.9722 307.782 72.5749 307.393 71.0357C305.872 65.1191 306.529 55.0752 312.732 51.8561C314.034 51.1123 315.503 50.7446 316.987 50.791C318.471 50.8375 319.917 51.2965 321.173 52.1204C322.429 52.9443 323.451 54.1031 324.131 55.4765C324.812 56.8499 325.127 58.3878 325.044 59.9308Z" fill="#E4897B"/>
    <path d="M321.131 45.9124C325.719 44.7345 326.721 46.0833 326.928 49.3473C327.136 52.6114 331.317 51.7032 329.909 56.6307C329.252 58.9596 327.568 58.7618 328.596 61.5043C329.771 64.6604 322.798 68.482 321.157 68.473C318.452 68.473 319.048 62.6103 321.252 57.2781C322.902 53.2858 318.789 54.3918 314.072 55.8844C303.445 59.2384 296.403 49.5901 302.995 44.9683C306.486 42.5135 316.085 47.6029 321.131 45.9124Z" fill="#263238"/>
    <path d="M328.12 67.0882C327.295 68.5873 325.96 69.7102 324.379 70.2354C322.296 70.9008 321.32 68.9945 321.951 66.9354C322.521 65.074 324.301 62.4934 326.357 62.7362C328.414 62.9789 329.122 65.2269 328.12 67.0882Z" fill="#E4897B"/>
    <path d="M297.137 145.668C297.137 145.668 291.296 200.06 290.838 220.705C290.363 242.186 310.633 309.185 310.633 309.185L321.001 304.644C321.001 304.644 308.905 243.436 310.633 222.35C312.43 199.394 320.007 145.668 320.007 145.668H297.137Z" fill="#263238"/>
    <path d="M311.643 160.639C306.995 170.692 310.131 190.564 312.654 202.343C313.613 194.035 314.745 185.007 315.825 176.654C315.721 163.804 314.762 153.895 311.643 160.639Z" fill="#182137"/>
    <path d="M320.55 301.155C320.593 301.155 321.777 304.599 321.777 304.599L309.819 309.823L307.927 306.181L320.55 301.155Z" fill="#FFC100"/>
    <path opacity="0.6" d="M320.55 301.155C320.593 301.155 321.777 304.599 321.777 304.599L309.819 309.823L307.927 306.181L320.55 301.155Z" fill="#FAFAFA"/>
    <path d="M309.476 145.668C309.476 145.668 313.942 197.398 316.906 216.784C320.146 238.014 332.881 308.717 332.881 308.717H344.805C344.805 308.717 337.659 239.723 336.311 218.709C334.851 195.896 331.931 145.668 331.931 145.668H309.476Z" fill="#263238"/>
    <path d="M344.986 305.003C345.029 305.003 345.383 308.987 345.383 308.987H332.285L331.352 304.491L344.986 305.003Z" fill="#FFC100"/>
    <path opacity="0.6" d="M344.986 305.003C345.029 305.003 345.383 308.987 345.383 308.987H332.285L331.352 304.491L344.986 305.003Z" fill="#FAFAFA"/>
    <path d="M340.424 301.425C340.396 301.425 340.37 301.413 340.35 301.393C340.331 301.373 340.32 301.345 340.32 301.317C340.251 300.696 333.814 238.374 332.605 219.491C331.291 198.999 328.647 153.572 328.621 153.113C328.62 153.098 328.622 153.082 328.627 153.068C328.631 153.053 328.638 153.04 328.648 153.028C328.658 153.016 328.67 153.007 328.683 153C328.696 152.993 328.71 152.988 328.725 152.987C328.753 152.987 328.781 152.998 328.802 153.018C328.822 153.038 328.835 153.066 328.837 153.095C328.837 153.554 331.507 198.954 332.821 219.473C334.03 238.356 340.467 300.633 340.536 301.299C340.538 301.314 340.538 301.329 340.534 301.343C340.531 301.358 340.524 301.372 340.515 301.384C340.506 301.396 340.495 301.405 340.482 301.412C340.47 301.419 340.455 301.424 340.441 301.425H340.424Z" fill="#FFC100"/>
    <path opacity="0.5" d="M340.424 301.425C340.396 301.425 340.37 301.413 340.35 301.393C340.331 301.373 340.32 301.345 340.32 301.317C340.251 300.696 333.814 238.374 332.605 219.491C331.291 198.999 328.647 153.572 328.621 153.113C328.62 153.098 328.622 153.082 328.627 153.068C328.631 153.053 328.638 153.04 328.648 153.028C328.658 153.016 328.67 153.007 328.683 153C328.696 152.993 328.71 152.988 328.725 152.987C328.753 152.987 328.781 152.998 328.802 153.018C328.822 153.038 328.835 153.066 328.837 153.095C328.837 153.554 331.507 198.954 332.821 219.473C334.03 238.356 340.467 300.633 340.536 301.299C340.538 301.314 340.538 301.329 340.534 301.343C340.531 301.358 340.524 301.372 340.515 301.384C340.506 301.396 340.495 301.405 340.482 301.412C340.47 301.419 340.455 301.424 340.441 301.425H340.424Z" fill="black"/>
    <path d="M315.367 62.6554C315.367 63.2039 315.116 63.6715 314.77 63.6985C314.425 63.7254 314.14 63.3118 314.131 62.7993C314.122 62.2868 314.382 61.7832 314.727 61.7562C315.073 61.7293 315.367 62.1069 315.367 62.6554Z" fill="#263238"/>
    <path d="M309.44 63.1676C309.44 63.7161 309.189 64.1837 308.844 64.2107C308.498 64.2377 308.213 63.824 308.204 63.3115C308.196 62.799 308.455 62.2954 308.8 62.2684C309.146 62.2415 309.423 62.6191 309.44 63.1676Z" fill="#263238"/>
    <path d="M311.324 63.2759C310.737 65.0103 309.935 66.6577 308.939 68.1764C309.881 68.9947 311.445 68.4462 311.445 68.4462L311.324 63.2759Z" fill="#DE5753"/>
    <path d="M312.067 70.6942C312.027 70.6942 311.989 70.6784 311.96 70.65C311.931 70.6216 311.913 70.5827 311.911 70.5413C311.911 70.4975 311.927 70.4554 311.956 70.4236C311.985 70.3918 312.025 70.3728 312.067 70.3705C312.73 70.3203 313.374 70.1157 313.951 69.7718C314.529 69.4278 315.024 68.9533 315.402 68.3833C315.421 68.3475 315.454 68.3213 315.492 68.3103C315.53 68.2993 315.57 68.3046 315.605 68.3248C315.639 68.3451 315.664 68.3788 315.675 68.4184C315.685 68.458 315.68 68.5004 315.661 68.5361C315.26 69.1577 314.728 69.6753 314.104 70.0494C313.481 70.4235 312.784 70.6441 312.067 70.6942Z" fill="#263238"/>
    <path d="M317.216 59.1663C317.168 59.168 317.121 59.1584 317.078 59.1381C317.034 59.1179 316.996 59.0875 316.965 59.0494C316.729 58.7333 316.424 58.4799 316.076 58.3096C315.727 58.1393 315.345 58.0569 314.961 58.0692C314.922 58.0742 314.882 58.0709 314.844 58.0595C314.806 58.048 314.77 58.0287 314.74 58.0027C314.709 57.9766 314.684 57.9444 314.665 57.908C314.647 57.8715 314.636 57.8315 314.632 57.7905C314.63 57.7042 314.659 57.6201 314.713 57.5551C314.768 57.49 314.844 57.4489 314.926 57.4398C315.412 57.4168 315.896 57.5149 316.338 57.7261C316.78 57.9373 317.167 58.2553 317.466 58.6537C317.491 58.6863 317.51 58.7239 317.52 58.7641C317.531 58.8043 317.533 58.8463 317.528 58.8876C317.522 58.9289 317.508 58.9685 317.487 59.004C317.466 59.0396 317.439 59.0703 317.406 59.0943C317.352 59.1391 317.285 59.1643 317.216 59.1663Z" fill="#263238"/>
    <path d="M306.873 60.0928C306.829 60.081 306.788 60.0596 306.752 60.0298C306.724 60.0005 306.701 59.9656 306.685 59.927C306.67 59.8884 306.662 59.8469 306.662 59.805C306.662 59.7632 306.67 59.7217 306.685 59.6831C306.701 59.6445 306.724 59.6095 306.752 59.5802C307.052 59.1594 307.443 58.8185 307.893 58.5856C308.344 58.3527 308.841 58.2344 309.344 58.2405C309.384 58.2425 309.423 58.2532 309.459 58.272C309.495 58.2907 309.526 58.317 309.551 58.3493C309.577 58.3815 309.595 58.4189 309.606 58.459C309.616 58.4991 309.618 58.5411 309.612 58.5821C309.6 58.6671 309.557 58.7442 309.494 58.7989C309.43 58.8536 309.349 58.8821 309.267 58.8789C308.872 58.8882 308.485 58.991 308.135 59.1796C307.785 59.3681 307.48 59.6374 307.245 59.9669C307.203 60.0254 307.145 60.069 307.078 60.0916C307.012 60.1142 306.94 60.1146 306.873 60.0928Z" fill="#263238"/>
    <path d="M340.622 95.6821L331.628 93.1914C331.628 93.1914 322.815 115.77 319.705 117.245C315.471 119.25 304.74 126.236 300.187 129.536C299.928 130.651 300.127 133.637 300.705 134.446C308.481 132.98 323.368 127.019 326.479 123.979C333.563 117.074 340.622 95.6821 340.622 95.6821Z" fill="#E4897B"/>
    <path d="M342.964 93.1017C345.34 101.068 336.052 111.985 336.052 111.985L323.222 106.535C324.736 101.921 326.486 97.3949 328.466 92.9758C332.415 84.1368 340.562 85.054 342.964 93.1017Z" fill="#FFC100"/>
    <path opacity="0.6" d="M342.964 93.1017C345.34 101.068 336.052 111.985 336.052 111.985L323.222 106.535C324.736 101.921 326.486 97.3949 328.466 92.9758C332.415 84.1368 340.562 85.054 342.964 93.1017Z" fill="#FAFAFA"/>
    <path d="M334.376 318.311C333.939 318.353 333.501 318.232 333.141 317.969C333.03 317.865 332.946 317.732 332.899 317.584C332.852 317.435 332.843 317.277 332.873 317.124C332.878 317.028 332.907 316.936 332.957 316.855C333.007 316.775 333.076 316.709 333.158 316.665C333.893 316.288 335.923 317.628 336.148 317.78C336.173 317.797 336.193 317.822 336.205 317.851C336.218 317.879 336.222 317.911 336.217 317.942C336.209 317.974 336.193 318.003 336.17 318.025C336.147 318.047 336.118 318.062 336.087 318.068C335.528 318.216 334.954 318.297 334.376 318.311ZM333.512 316.917C333.447 316.902 333.379 316.902 333.314 316.917C333.281 316.936 333.253 316.963 333.234 316.996C333.214 317.029 333.203 317.067 333.201 317.106C333.181 317.211 333.186 317.319 333.216 317.421C333.246 317.523 333.301 317.616 333.374 317.69C334.101 318.033 334.926 318.075 335.681 317.807C335.008 317.352 334.252 317.046 333.461 316.908L333.512 316.917Z" fill="#FFC100"/>
    <path d="M336.026 318.069H335.956C335.3 317.682 334.082 316.198 334.228 315.443C334.26 315.325 334.328 315.221 334.421 315.146C334.515 315.072 334.629 315.031 334.747 315.029C334.862 315.011 334.979 315.02 335.09 315.056C335.2 315.092 335.302 315.153 335.386 315.236C336.112 315.875 336.155 317.826 336.155 317.934C336.155 317.979 336.138 318.023 336.107 318.055C336.076 318.087 336.035 318.105 335.991 318.105L336.026 318.069ZM334.868 315.326H334.799C334.6 315.326 334.574 315.452 334.565 315.488C334.453 315.938 335.222 317.053 335.861 317.583C335.86 316.823 335.634 316.082 335.213 315.461C335.118 315.373 334.995 315.325 334.868 315.326Z" fill="#FFC100"/>
    <path d="M311.402 317.187C310.876 317.379 310.303 317.379 309.777 317.187C309.651 317.126 309.543 317.031 309.463 316.913C309.382 316.795 309.333 316.657 309.319 316.513C309.31 316.425 309.32 316.336 309.35 316.253C309.38 316.17 309.429 316.096 309.492 316.036C310.192 315.398 313.009 316.09 313.328 316.171C313.358 316.18 313.384 316.197 313.404 316.221C313.424 316.245 313.437 316.275 313.441 316.306C313.442 316.34 313.434 316.373 313.417 316.402C313.4 316.431 313.375 316.454 313.346 316.468C312.719 316.767 312.069 317.008 311.402 317.187ZM310.002 316.117C309.901 316.135 309.806 316.179 309.725 316.243C309.7 316.268 309.681 316.3 309.671 316.334C309.66 316.369 309.658 316.406 309.665 316.441C309.667 316.534 309.693 316.625 309.74 316.704C309.787 316.783 309.854 316.847 309.933 316.891C310.391 317.151 311.462 316.945 312.827 316.351C311.906 316.104 310.95 316.024 310.002 316.117Z" fill="#FFC100"/>
    <path d="M313.345 316.45H313.285C312.421 316.288 310.693 315.254 310.641 314.481C310.641 314.301 310.719 314.049 311.125 313.896C311.409 313.795 311.719 313.815 311.989 313.95C312.931 314.436 313.423 316.162 313.44 316.234C313.453 316.259 313.459 316.287 313.459 316.315C313.459 316.343 313.453 316.371 313.44 316.396C313.43 316.412 313.416 316.425 313.399 316.435C313.383 316.444 313.364 316.449 313.345 316.45ZM311.306 314.184H311.211C310.944 314.283 310.952 314.4 310.952 314.436C310.952 314.894 312.205 315.749 313.078 316.036C312.873 315.316 312.448 314.685 311.868 314.238C311.694 314.146 311.493 314.126 311.306 314.184Z" fill="#FFC100"/>
    <path d="M231.56 140.669C232.301 138.472 233.666 136.562 235.475 135.192C237.283 133.822 239.45 133.057 241.686 132.998H329.192C330.399 132.969 331.598 133.214 332.704 133.718C333.81 134.221 334.797 134.97 335.595 135.913C336.394 136.855 336.985 137.968 337.326 139.173C337.668 140.379 337.752 141.647 337.573 142.89L318.124 314.93C317.772 317.623 316.51 320.097 314.564 321.91C312.618 323.722 310.116 324.754 307.505 324.821H88.0495C86.842 324.853 85.6426 324.608 84.5357 324.105C83.4287 323.602 82.4411 322.853 81.6423 321.91C80.8434 320.968 80.2527 319.854 79.9117 318.648C79.5708 317.442 79.4878 316.173 79.6687 314.93L96.2402 168.48C96.5925 165.788 97.8545 163.313 99.8003 161.501C101.746 159.688 104.248 158.656 106.859 158.589H207.947C218.246 158.589 228.052 151.162 231.56 140.669Z" fill="#FFC100"/>
    <path opacity="0.1" d="M231.56 140.669C232.301 138.472 233.666 136.562 235.475 135.192C237.283 133.822 239.45 133.057 241.686 132.998H329.192C330.399 132.969 331.598 133.214 332.704 133.718C333.81 134.221 334.797 134.97 335.595 135.913C336.394 136.855 336.985 137.968 337.326 139.173C337.668 140.379 337.752 141.647 337.573 142.89L318.124 314.93C317.772 317.623 316.51 320.097 314.564 321.91C312.618 323.722 310.116 324.754 307.505 324.821H88.0495C86.842 324.853 85.6426 324.608 84.5357 324.105C83.4287 323.602 82.4411 322.853 81.6423 321.91C80.8434 320.968 80.2527 319.854 79.9117 318.648C79.5708 317.442 79.4878 316.173 79.6687 314.93L96.2402 168.48C96.5925 165.788 97.8545 163.313 99.8003 161.501C101.746 159.688 104.248 158.656 106.859 158.589H207.947C218.246 158.589 228.052 151.162 231.56 140.669Z" fill="#FAFAFA"/>
    <path d="M153.333 64.5009L35.1511 150.271L113.157 266.688L231.34 180.917L153.333 64.5009Z" fill="#FFC100"/>
    <path opacity="0.8" d="M153.333 64.5009L35.1511 150.271L113.157 266.688L231.34 180.917L153.333 64.5009Z" fill="#FAFAFA"/>
    <path d="M153.023 66.3109L34.8406 152.082L112.847 268.498L231.029 182.727L153.023 66.3109Z" fill="#FAFAFA"/>
    <path d="M150.615 81.6438L49.4841 155.04L103.215 235.227L204.346 161.831L150.615 81.6438Z" fill="#FFC100"/>
    <path opacity="0.8" d="M150.615 81.6438L49.4841 155.04L103.215 235.227L204.346 161.831L150.615 81.6438Z" fill="#FAFAFA"/>
    <path d="M111.894 150.667C113.85 153.587 114.929 157.044 114.996 160.603C115.062 164.161 114.113 167.659 112.267 170.656C110.422 173.652 107.764 176.011 104.63 177.434C101.495 178.858 98.0258 179.281 94.6601 178.651C91.2945 178.021 88.1841 176.366 85.7228 173.895C83.2615 171.425 81.5599 168.25 80.8334 164.772C80.1069 161.294 80.3883 157.671 81.6418 154.359C82.8953 151.048 85.0647 148.198 87.8752 146.171C91.6352 143.459 96.2752 142.409 100.778 143.252C105.28 144.095 109.278 146.761 111.894 150.667Z" fill="#FFC100"/>
    <path opacity="0.1" d="M111.894 150.667C113.85 153.587 114.929 157.044 114.996 160.603C115.062 164.161 114.113 167.659 112.267 170.656C110.422 173.652 107.764 176.011 104.63 177.434C101.495 178.858 98.0258 179.281 94.6601 178.651C91.2945 178.021 88.1841 176.366 85.7228 173.895C83.2615 171.425 81.5599 168.25 80.8334 164.772C80.1069 161.294 80.3883 157.671 81.6418 154.359C82.8953 151.048 85.0647 148.198 87.8752 146.171C91.6352 143.459 96.2752 142.409 100.778 143.252C105.28 144.095 109.278 146.761 111.894 150.667Z" fill="#FAFAFA"/>
    <path d="M176.403 142.746C173.799 140.047 170.657 137.976 167.199 136.682C163.741 135.387 160.051 134.9 156.392 135.256C156.28 135.094 156.194 134.914 156.081 134.743C152.734 129.686 147.781 126.021 142.092 124.393C136.403 122.764 130.345 123.277 124.984 125.841C119.623 128.405 115.304 132.856 112.786 138.409C110.269 143.962 109.715 150.261 111.222 156.198C110.467 156.568 109.742 157.001 109.054 157.492C106.59 159.275 104.697 161.786 103.619 164.7C102.541 167.614 102.327 170.798 103.006 173.84C99.708 175.185 96.8981 177.572 94.9706 180.664C92.99 183.739 91.9161 187.349 91.8808 191.051C91.8455 194.752 92.8504 198.383 94.7719 201.498C96.0955 203.568 97.8029 205.341 99.7938 206.714C101.785 208.087 104.019 209.032 106.366 209.495C108.713 209.957 111.125 209.927 113.46 209.406C115.795 208.885 118.007 207.884 119.966 206.462L149.04 185.358L175.677 166.026C178.639 163.92 180.684 160.686 181.372 157.022C182.059 153.358 181.332 149.561 179.349 146.45L179.271 146.325C178.421 145.044 177.461 143.846 176.403 142.746Z" fill="#FFC100"/>
    <path opacity="0.3" d="M176.403 142.746C173.799 140.047 170.657 137.976 167.199 136.682C163.741 135.387 160.051 134.9 156.392 135.256C156.28 135.094 156.194 134.914 156.081 134.743C152.734 129.686 147.781 126.021 142.092 124.393C136.403 122.764 130.345 123.277 124.984 125.841C119.623 128.405 115.304 132.856 112.786 138.409C110.269 143.962 109.715 150.261 111.222 156.198C110.467 156.568 109.742 157.001 109.054 157.492C106.59 159.275 104.697 161.786 103.619 164.7C102.541 167.614 102.327 170.798 103.006 173.84C99.708 175.185 96.8981 177.572 94.9706 180.664C92.99 183.739 91.9161 187.349 91.8808 191.051C91.8455 194.752 92.8504 198.383 94.7719 201.498C96.0955 203.568 97.8029 205.341 99.7938 206.714C101.785 208.087 104.019 209.032 106.366 209.495C108.713 209.957 111.125 209.927 113.46 209.406C115.795 208.885 118.007 207.884 119.966 206.462L149.04 185.358L175.677 166.026C178.639 163.92 180.684 160.686 181.372 157.022C182.059 153.358 181.332 149.561 179.349 146.45L179.271 146.325C178.421 145.044 177.461 143.846 176.403 142.746Z" fill="black"/>
    <g style="mix-blend-mode:multiply">
        <path d="M157.068 85.0132L35.9724 166.263L109.867 285.549L230.963 204.299L157.068 85.0132Z" fill="#FFC100"/>
    </g>
    <path opacity="0.8" d="M157.068 85.0132L35.9724 166.263L109.867 285.549L230.963 204.299L157.068 85.0132Z" fill="#FAFAFA"/>
    <path d="M156.702 86.8232L35.6062 168.073L109.501 287.359L230.597 206.109L156.702 86.8232Z" fill="#FAFAFA"/>
    <path d="M153.765 102.057L50.1411 171.584L101.04 253.748L204.664 184.221L153.765 102.057Z" fill="#FFC100"/>
    <path opacity="0.8" d="M153.765 102.057L50.1411 171.584L101.04 253.748L204.664 184.221L153.765 102.057Z" fill="#FAFAFA"/>
    <path d="M115.008 183.056C116.998 173.363 111.061 163.826 101.746 161.755C92.4323 159.684 83.2685 165.863 81.2785 175.556C79.2885 185.25 85.2259 194.787 94.5401 196.858C103.854 198.929 113.018 192.75 115.008 183.056Z" fill="#FFC100"/>
    <path opacity="0.1" d="M115.008 183.056C116.998 173.363 111.061 163.826 101.746 161.755C92.4323 159.684 83.2685 165.863 81.2785 175.556C79.2885 185.25 85.2259 194.787 94.5401 196.858C103.854 198.929 113.018 192.75 115.008 183.056Z" fill="#FAFAFA"/>
    <path d="M177.388 164.119C174.879 161.32 171.808 159.131 168.395 157.706C164.982 156.281 161.308 155.655 157.637 155.874C157.533 155.694 157.455 155.514 157.343 155.343C154.172 150.163 149.346 146.313 143.715 144.473C138.084 142.633 132.01 142.921 126.563 145.286C121.116 147.65 116.646 151.94 113.941 157.399C111.236 162.858 110.469 169.136 111.775 175.125C111.004 175.46 110.261 175.863 109.555 176.33C107.036 178.02 105.061 180.457 103.885 183.325C102.709 186.194 102.384 189.363 102.954 192.426C99.6094 193.638 96.7165 195.916 94.6855 198.936C92.5982 201.932 91.3986 205.498 91.2343 209.195C91.07 212.892 91.9483 216.559 93.761 219.743C95.0085 221.864 96.6505 223.704 98.5908 225.155C100.531 226.607 102.73 227.64 105.06 228.194C107.389 228.749 109.801 228.814 112.155 228.384C114.508 227.955 116.756 227.041 118.765 225.695L148.616 205.662L175.919 187.345C178.945 185.346 181.093 182.189 181.902 178.555C182.71 174.921 182.113 171.102 180.239 167.923L180.152 167.797C179.342 166.485 178.417 165.253 177.388 164.119Z" fill="#FFC100"/>
    <path opacity="0.3" d="M177.388 164.119C174.879 161.32 171.808 159.131 168.395 157.706C164.982 156.281 161.308 155.655 157.637 155.874C157.533 155.694 157.455 155.514 157.343 155.343C154.172 150.163 149.346 146.313 143.715 144.473C138.084 142.633 132.01 142.921 126.563 145.286C121.116 147.65 116.646 151.94 113.941 157.399C111.236 162.858 110.469 169.136 111.775 175.125C111.004 175.46 110.261 175.863 109.555 176.33C107.036 178.02 105.061 180.457 103.885 183.325C102.709 186.194 102.384 189.363 102.954 192.426C99.6094 193.638 96.7165 195.916 94.6855 198.936C92.5982 201.932 91.3986 205.498 91.2343 209.195C91.07 212.892 91.9483 216.559 93.761 219.743C95.0085 221.864 96.6505 223.704 98.5908 225.155C100.531 226.607 102.73 227.64 105.06 228.194C107.389 228.749 109.801 228.814 112.155 228.384C114.508 227.955 116.756 227.041 118.765 225.695L148.616 205.662L175.919 187.345C178.945 185.346 181.093 182.189 181.902 178.555C182.71 174.921 182.113 171.102 180.239 167.923L180.152 167.797C179.342 166.485 178.417 165.253 177.388 164.119Z" fill="black"/>
    <g style="mix-blend-mode:multiply">
        <path d="M265.344 99.8903L122.122 116.241L136.992 257.322L280.214 240.971L265.344 99.8903Z" fill="#FFC100"/>
    </g>
    <path opacity="0.8" d="M265.344 99.8903L122.122 116.241L136.992 257.322L280.214 240.971L265.344 99.8903Z" fill="#FAFAFA"/>
    <path d="M264.232 101.329L121.011 117.68L135.881 258.761L279.103 242.41L264.232 101.329Z" fill="#FAFAFA"/>
    <path d="M255.063 113.587L132.506 127.579L142.748 224.755L265.306 210.764L255.063 113.587Z" fill="#FFC100"/>
    <path opacity="0.8" d="M255.063 113.587L132.506 127.579L142.748 224.755L265.306 210.764L255.063 113.587Z" fill="#FAFAFA"/>
    <path d="M264.944 207.208L265.316 210.76L201.656 218.034L216.854 199.277L232.415 180.053L264.944 207.208Z" fill="#FFC100"/>
    <path opacity="0.3" d="M264.944 207.208L265.316 210.76L201.656 218.034L216.854 199.277L232.415 180.053L264.944 207.208Z" fill="black"/>
    <path d="M237.754 213.907L142.766 224.751L141.937 216.938L179.218 172.94L216.854 199.278L237.754 213.907Z" fill="#FFC100"/>
    <path opacity="0.3" d="M237.754 213.907L142.766 224.751L141.937 216.938L179.218 172.94L216.854 199.278L237.754 213.907Z" fill="black"/>
    <path d="M226.079 149.689C226.415 141.308 220.16 134.231 212.107 133.882C204.055 133.532 197.255 140.042 196.919 148.422C196.583 156.803 202.838 163.88 210.89 164.23C218.943 164.579 225.743 158.069 226.079 149.689Z" fill="#FFC100"/>
    <path opacity="0.1" d="M226.079 149.689C226.415 141.308 220.16 134.231 212.107 133.882C204.055 133.532 197.255 140.042 196.919 148.422C196.583 156.803 202.838 163.88 210.89 164.23C218.943 164.579 225.743 158.069 226.079 149.689Z" fill="#FAFAFA"/>
    <g style="mix-blend-mode:multiply" opacity="0.7">
        <path d="M194.277 176.582C194.865 172.715 198.416 169.964 202.848 169.964H290.38C295.625 169.964 300.273 173.785 300.748 178.497L312.481 316.288C312.974 321 309.112 324.821 303.841 324.821H84.3852C79.1321 324.821 74.4838 321 74.0172 316.288L64.591 200.572C64.0985 195.86 67.9519 192.048 73.231 192.048H174.319C184.601 192.048 192.904 185.637 194.277 176.582Z" fill="#FFC100"/>
    </g>
    <path d="M300.913 129.006L294.001 131.47L289.612 134.689L297.491 137.872C297.491 137.872 304.853 137.063 306.624 132.908L300.913 129.006Z" fill="#E4897B"/>
</svg>
