<svg width="317" height="288" viewBox="0 0 317 288" fill="none" xmlns="http://www.w3.org/2000/svg">
    <path d="M317 253.09H0V253.284H317V253.09Z" fill="#EBEBEB"/>
    <path d="M285.236 265.528H264.238V265.722H285.236V265.528Z" fill="#EBEBEB"/>
    <path d="M256.256 265.528H211.363V265.722H256.256V265.528Z" fill="#EBEBEB"/>
    <path d="M186.606 258.354H174.439V258.548H186.606V258.354Z" fill="#EBEBEB"/>
    <path d="M54.9994 259.653H33.2595V259.847H54.9994V259.653Z" fill="#EBEBEB"/>
    <path d="M100.172 259.653H60.6422V259.847H100.172V259.653Z" fill="#EBEBEB"/>
    <path d="M142.738 262.915H119.401V263.109H142.738V262.915Z" fill="#EBEBEB"/>
    <path d="M150.259 218.613H27.8395C26.8805 218.611 25.9613 218.145 25.2838 217.317C24.6062 216.49 24.2257 215.368 24.2257 214.199V4.37534C24.2341 3.21273 24.6183 2.10108 25.2949 1.28185C25.9715 0.462626 26.886 0.00199162 27.8395 0H150.259C151.219 0 152.139 0.465045 152.818 1.29283C153.497 2.12061 153.879 3.24333 153.879 4.414V214.199C153.879 215.369 153.497 216.492 152.818 217.32C152.139 218.148 151.219 218.613 150.259 218.613ZM27.8395 0.154606C26.9225 0.156654 26.0437 0.60224 25.3959 1.39356C24.748 2.18488 24.3842 3.25727 24.3842 4.37534V214.199C24.3842 215.317 24.748 216.389 25.3959 217.18C26.0437 217.972 26.9225 218.417 27.8395 218.419H150.259C151.176 218.417 152.056 217.972 152.704 217.181C153.353 216.39 153.719 215.317 153.72 214.199V4.37534C153.719 3.25656 153.353 2.18419 152.704 1.39309C152.056 0.601989 151.176 0.15665 150.259 0.154606H27.8395Z" fill="#EBEBEB"/>
    <path d="M287.398 218.613H164.973C164.013 218.611 163.094 218.145 162.415 217.318C161.736 216.49 161.354 215.369 161.353 214.199V4.37534C161.363 3.21202 161.748 2.10038 162.426 1.28137C163.104 0.462355 164.019 0.0019699 164.973 0H287.398C288.351 0.00402323 289.264 0.465556 289.939 1.28456C290.614 2.10357 290.997 3.21406 291.006 4.37534V214.199C291.006 215.367 290.626 216.487 289.95 217.314C289.274 218.142 288.356 218.609 287.398 218.613ZM164.973 0.154606C164.055 0.15665 163.176 0.601989 162.527 1.39309C161.878 2.18419 161.513 3.25656 161.511 4.37534V214.199C161.513 215.317 161.878 216.39 162.527 217.181C163.176 217.972 164.055 218.417 164.973 218.419H287.398C288.316 218.417 289.195 217.972 289.844 217.181C290.493 216.39 290.858 215.317 290.86 214.199V4.37534C290.858 3.25656 290.493 2.18419 289.844 1.39309C289.195 0.601989 288.316 0.15665 287.398 0.154606H164.973Z" fill="#EBEBEB"/>
    <path d="M48.0829 106.848L134.117 106.848V15.963L48.0829 15.963L48.0829 106.848Z" fill="#E6E6E6"/>
    <path d="M46.1615 106.848L132.195 106.848V15.963L46.1615 15.963L46.1615 106.848Z" fill="#F5F5F5"/>
    <path d="M128.766 103.601V19.2098L49.598 19.2098V103.601H128.766Z" fill="#FAFAFA"/>
    <path d="M97.0148 103.601L111.362 19.2098H81.3486L67.0076 103.601H97.0148Z" fill="#F0F0F0"/>
    <path d="M51.0437 103.609L51.0437 19.2177H49.5982L49.5982 103.609H51.0437Z" fill="#E6E6E6"/>
    <path d="M47.5815 88.4733L130.775 88.4733V84.1134L47.5815 84.1134V88.4733Z" fill="#F5F5F5"/>
    <path d="M130.122 248.49H143.861V175.849H130.122V248.49Z" fill="#F0F0F0"/>
    <path d="M40.4051 253.09L141.23 253.09V248.49L40.4051 248.49V253.09Z" fill="#F0F0F0"/>
    <path d="M130.122 175.841H37.7614V248.482H130.122V175.841Z" fill="#F5F5F5"/>
    <path d="M124.727 184.785H43.1627V208.61H124.727V184.785Z" fill="#F0F0F0"/>
    <path d="M124.727 215.722H43.1627V239.546H124.727V215.722Z" fill="#F0F0F0"/>
    <path d="M61.9603 198.328H105.928C106.282 198.326 106.622 198.154 106.872 197.848C107.123 197.543 107.264 197.129 107.266 196.697C107.264 196.265 107.123 195.85 106.873 195.543C106.622 195.237 106.283 195.063 105.928 195.059H61.9603C61.6054 195.063 61.2662 195.237 61.0158 195.543C60.7655 195.85 60.6242 196.265 60.6226 196.697C60.6242 197.129 60.7657 197.543 61.0162 197.848C61.2667 198.154 61.606 198.326 61.9603 198.328Z" fill="#F5F5F5"/>
    <path d="M61.9603 229.265H105.928C106.282 229.263 106.622 229.09 106.872 228.785C107.123 228.48 107.264 228.066 107.266 227.634C107.266 227.201 107.125 226.785 106.875 226.478C106.624 226.171 106.284 225.997 105.928 225.995H61.9603C61.6049 225.997 61.2647 226.171 61.014 226.478C60.7633 226.785 60.6226 227.201 60.6226 227.634C60.6242 228.066 60.7657 228.48 61.0162 228.785C61.2667 229.09 61.606 229.263 61.9603 229.265Z" fill="#F5F5F5"/>
    <path d="M273.647 63.4657C281.47 60.8374 284.146 43.5293 264.378 36.4638C268.74 53.8724 260.01 68.0266 273.647 63.4657Z" fill="#EBEBEB"/>
    <path d="M275.378 70.9796C281.547 62.855 275.714 44.4724 253.499 51.9862C266.065 65.3906 264.632 85.1492 275.378 70.9796Z" fill="#E0E0E0"/>
    <path d="M269.291 73.0666C264.131 66.836 271.523 45.1526 288.565 55.2019C278.909 66.4804 278.326 83.9277 269.291 73.0666Z" fill="#FAFAFA"/>
    <path d="M264.143 85.2032H279.163L280.298 72.8116H263.015L264.143 85.2032Z" fill="#E6E6E6"/>
    <path d="M262.844 75.0302H280.469C280.767 75.0302 281.052 74.886 281.263 74.6294C281.473 74.3728 281.591 74.0248 281.591 73.6619C281.591 73.299 281.473 72.951 281.263 72.6944C281.052 72.4378 280.767 72.2936 280.469 72.2936H262.844C262.546 72.2936 262.261 72.4378 262.05 72.6944C261.84 72.951 261.722 73.299 261.722 73.6619C261.722 74.0248 261.84 74.3728 262.05 74.6294C262.261 74.886 262.546 75.0302 262.844 75.0302Z" fill="#E6E6E6"/>
    <path d="M137.774 232.102V211.114H152.109V190.134H166.45V169.147H180.785V148.159H195.126V127.179H209.461V106.191H223.802V85.2033H238.143H317V253.09H137.774H123.433V232.102H137.774Z" fill="#FAFAFA"/>
    <path d="M216.632 232.102V211.114H230.973V190.134H245.307V169.147H259.649V148.159H273.983V127.179H288.324V106.191H302.659V85.2033H317V106.191V253.09H216.632H202.297V232.102H216.632Z" fill="#E0E0E0"/>
    <path d="M202.297 232.102H122.591V238.395H202.297V232.102Z" fill="#EBEBEB"/>
    <path d="M216.638 211.114H136.931V217.407H216.638V211.114Z" fill="#EBEBEB"/>
    <path d="M230.973 190.134H151.266V196.427H230.973V190.134Z" fill="#EBEBEB"/>
    <path d="M245.313 169.146H165.607V175.439H245.313V169.146Z" fill="#EBEBEB"/>
    <path d="M259.648 148.159H179.942V154.451H259.648V148.159Z" fill="#EBEBEB"/>
    <path d="M273.989 127.179H194.283V133.471H273.989V127.179Z" fill="#EBEBEB"/>
    <path d="M288.324 106.191H208.618V112.483H288.324V106.191Z" fill="#EBEBEB"/>
    <path d="M302.665 85.2033H222.959V91.4958H302.665V85.2033Z" fill="#EBEBEB"/>
    <path d="M158.499 288C226.389 288 281.425 284.082 281.425 279.249C281.425 274.416 226.389 270.499 158.499 270.499C90.6087 270.499 35.5728 274.416 35.5728 279.249C35.5728 284.082 90.6087 288 158.499 288Z" fill="#F5F5F5"/>
    <path d="M212.199 80.1089C212.085 82.428 211.863 84.5539 211.616 86.757C211.369 88.9601 211.033 91.1169 210.652 93.2814C209.911 97.6621 208.839 101.95 207.451 106.09L206.874 107.637L206.734 108.023L206.684 108.224L206.582 108.471C206.388 108.957 206.143 109.409 205.853 109.816C205.507 110.291 205.095 110.686 204.636 110.984C204.185 111.272 203.695 111.461 203.19 111.54C202.415 111.641 201.63 111.541 200.889 111.247C199.838 110.809 198.847 110.184 197.947 109.391C197.16 108.715 196.408 107.979 195.696 107.188C193.028 104.171 190.627 100.821 188.532 97.1929L190.631 95.0207C191.899 96.4508 193.167 97.8963 194.435 99.2646C195.695 100.633 197.012 101.923 198.378 103.13C199.022 103.691 199.69 104.207 200.382 104.676C200.939 105.088 201.541 105.403 202.17 105.611C202.385 105.665 202.537 105.611 202.468 105.611C202.318 105.631 202.178 105.71 202.068 105.835C202.03 105.835 202.03 105.835 202.068 105.835L202.271 105.194L202.715 103.787C203.815 99.9134 204.673 95.9442 205.283 91.9131C205.619 89.8878 205.853 87.8238 206.107 85.7752C206.36 83.7267 206.538 81.6163 206.684 79.6606L212.199 80.1089Z" fill="#FFC3BD"/>
    <path d="M208.358 71.5978C205.993 72.3322 204.338 84.1905 204.338 84.1905L210.849 89.6017C210.849 89.6017 217.094 77.6429 215.287 74.4735C213.385 71.1572 211.807 70.531 208.358 71.5978Z" fill="#407BFF"/>
    <path d="M208.358 71.5978C205.993 72.3322 204.338 84.1905 204.338 84.1905L210.849 89.6017C210.849 89.6017 217.094 77.6429 215.287 74.4735C213.385 71.1572 211.807 70.531 208.358 71.5978Z" fill="#407BFF"/>
    <path opacity="0.4" d="M208.358 71.5978C205.993 72.3322 204.338 84.1905 204.338 84.1905L210.849 89.6017C210.849 89.6017 217.094 77.6429 215.287 74.4735C213.385 71.1572 211.807 70.531 208.358 71.5978Z" fill="#F0F0F0"/>
    <path opacity="0.3" d="M208.567 74.2494L206.754 86.1927L210.412 89.223L208.567 74.2494Z" fill="#F0F0F0"/>
    <path d="M190.739 94.5338L187.664 88.566L185.907 95.3454C185.907 95.3454 188.443 98.5922 190.745 97.8191L190.739 94.5338Z" fill="#FFC3BD"/>
    <path d="M183.099 86.5947L181.882 92.3615L185.882 95.3454L187.638 88.566L183.099 86.5947Z" fill="#FFC3BD"/>
    <path d="M221.139 271.14H215.408L215.021 254.953H220.759L221.139 271.14Z" fill="#FFC3BD"/>
    <path d="M271.726 238.673L267.358 243.203L257.359 232.318L261.728 227.796L271.726 238.673Z" fill="#FFC3BD"/>
    <path d="M266.16 242.662L270.401 236.74C270.474 236.638 270.574 236.572 270.684 236.553C270.793 236.535 270.905 236.565 270.997 236.64L275.315 240.049C275.421 240.139 275.511 240.256 275.578 240.391C275.645 240.526 275.687 240.678 275.703 240.835C275.718 240.992 275.707 241.151 275.668 241.302C275.63 241.453 275.565 241.592 275.48 241.711C273.971 243.744 273.159 244.633 271.295 247.23C270.154 248.83 268.613 251.319 267.028 253.523C265.443 255.726 263.567 253.948 264.068 252.85C266.293 247.949 265.76 246.233 265.798 243.821C265.804 243.395 265.932 242.985 266.16 242.662Z" fill="#263238"/>
    <path d="M215.211 270.336H221.653C221.764 270.335 221.871 270.383 221.955 270.471C222.039 270.559 222.094 270.681 222.109 270.815L222.845 277C222.865 277.163 222.856 277.33 222.818 277.489C222.779 277.647 222.712 277.793 222.622 277.917C222.532 278.04 222.42 278.138 222.295 278.202C222.171 278.267 222.036 278.297 221.9 278.291C219.656 278.244 218.572 278.082 215.738 278.082C213.994 278.082 210.393 278.306 207.984 278.306C205.575 278.306 205.448 275.399 206.456 275.144C210.945 273.962 212.713 272.338 214.229 270.784C214.501 270.495 214.85 270.336 215.211 270.336Z" fill="#263238"/>
    <path opacity="0.2" d="M215.027 254.96L215.224 263.301H220.955L220.759 254.96H215.027Z" fill="#F0F0F0"/>
    <path opacity="0.2" d="M261.734 227.796L257.359 232.318L262.52 237.931L266.888 233.401L261.734 227.796Z" fill="#F0F0F0"/>
    <path d="M208.358 71.5979C208.358 71.5979 205.625 72.7729 211.097 113.79H234.377C233.99 102.233 233.978 95.1057 238.504 71.3969C235.245 70.5775 231.942 70.0454 228.62 69.8045C225.1 69.4986 221.566 69.4986 218.045 69.8045C213.506 70.3456 208.358 71.5979 208.358 71.5979Z" fill="#407BFF"/>
    <path opacity="0.4" d="M208.358 71.5979C208.358 71.5979 205.625 72.7729 211.097 113.79H234.377C233.99 102.233 233.978 95.1057 238.504 71.3969C235.245 70.5775 231.942 70.0454 228.62 69.8045C225.1 69.4986 221.566 69.4986 218.045 69.8045C213.506 70.3456 208.358 71.5979 208.358 71.5979Z" fill="#F0F0F0"/>
    <path d="M228.621 69.8045C225.1 69.4986 221.566 69.4986 218.046 69.8045C217.475 69.8663 216.892 69.9436 216.315 70.0286C216.076 70.468 215.924 70.9683 215.869 71.491C215.814 72.0138 215.858 72.5449 215.998 73.0435C216.74 75.293 219.415 75.5558 221.368 75.5558C228.577 75.5558 229.794 70.4229 229.845 70.2064L229.914 69.8972C229.509 69.8663 229.052 69.8276 228.621 69.8045Z" fill="#F0F0F0"/>
    <path d="M227.606 55.2948C226.934 59.4382 226.275 67.0371 228.652 69.8046C228.652 69.8046 227.72 74.0176 221.399 74.0176C214.425 74.0176 218.077 69.8123 218.077 69.8123C221.881 68.7069 221.773 65.2746 221.114 62.082L227.606 55.2948Z" fill="#FFC3BD"/>
    <path opacity="0.2" d="M224.924 58.0468L221.082 62.0433C221.248 62.8031 221.358 63.5791 221.412 64.3624C222.858 64.1073 224.848 62.167 225.007 60.3195C225.096 59.5622 225.068 58.7914 224.924 58.0468Z" fill="#F0F0F0"/>
    <path d="M223.618 32.7377C223.028 30.3027 222.534 26.4685 226.084 24.7369C224.696 22.6652 224.36 18.7691 226.084 16.4578C227.809 14.1464 230.396 14.9967 230.396 14.9967C230.396 14.9967 231.156 9.34588 236.793 10.3586C242.429 11.3712 239.918 15.8934 239.918 15.8934C239.918 15.8934 247.609 14.0382 248.122 22.8507C248.636 31.6632 244.223 30.581 244.223 30.581C244.223 30.581 247.653 34.0905 245.751 37.948C243.849 41.8054 239.455 40.4758 239.455 40.4758C239.455 40.4758 237.389 47.2939 232.519 43.4133C227.65 39.5327 223.618 32.7377 223.618 32.7377Z" fill="#263238"/>
    <path d="M212.2 37.8783C210.298 40.8777 211.135 44.2713 212.834 45.6086C216.923 48.7935 222.838 35.4356 221.298 33.8354C219.757 32.2352 214.102 34.8713 212.2 37.8783Z" fill="#263238"/>
    <path d="M229.375 30.7357C226.687 29.4138 223.96 30.7975 223.111 32.792C221.038 37.6543 230.453 46.4127 233.179 40.3367C234.796 36.7267 232.145 32.0962 229.375 30.7357Z" fill="#407BFF"/>
    <path d="M228.24 45.6085C228.437 52.5658 228.64 55.4724 226.059 59.3452C222.185 65.1661 215.154 63.9448 213.265 57.2194C211.566 51.1666 211.534 40.8466 216.853 37.4608C218.023 36.7066 219.331 36.3294 220.653 36.365C221.976 36.4006 223.269 36.8478 224.41 37.6642C225.551 38.4805 226.501 39.6389 227.172 41.0293C227.842 42.4197 228.21 43.996 228.24 45.6085Z" fill="#FFC3BD"/>
    <path d="M227.385 49.2497C224.849 48.0979 224.215 44.4878 224.62 43.0655C223.352 43.0036 220.582 42.447 219.548 40.5299C217.57 42.076 213.392 43.622 212.942 41.0478C212.492 38.4737 218.794 31.8565 223.562 31.3463C229.23 30.7434 234.821 37.5306 233.382 44.0317C231.943 50.5329 227.385 49.2497 227.385 49.2497Z" fill="#263238"/>
    <path d="M211.122 113.79C211.122 113.79 206.602 167.631 206.976 188.951C207.369 211.122 214.032 261.686 214.032 261.686H221.78C221.78 261.686 220.556 212.413 221.241 190.644C221.989 166.905 228.17 113.79 228.17 113.79H211.122Z" fill="#263238"/>
    <path d="M222.426 262.026H213.334L212.662 258.493L222.851 258.06L222.426 262.026Z" fill="#407BFF"/>
    <path opacity="0.2" d="M221.139 127.186C215.433 141.209 219.992 166.796 222.014 176.32C223.047 162.019 224.797 144.541 226.16 131.709C225.298 124.458 223.802 120.716 221.139 127.186Z" fill="#F0F0F0"/>
    <path d="M217.246 113.79C217.246 113.79 222.521 169.765 226.502 187.738C231.232 209.073 260.605 237.791 260.605 237.791L266.565 231.607C266.565 231.607 245.275 200.408 241.655 189.168C233.939 165.204 240.546 129.428 234.377 113.774L217.246 113.79Z" fill="#263238"/>
    <path d="M267.516 231.29L260.124 238.943L257.359 236.926L265.722 227.441L267.516 231.29Z" fill="#407BFF"/>
    <path d="M219.801 48.5151C219.846 49.0795 219.636 49.5587 219.338 49.5974C219.04 49.636 218.755 49.2031 218.704 48.6466C218.654 48.09 218.869 47.5952 219.173 47.5643C219.478 47.5334 219.757 47.9276 219.801 48.5151Z" fill="#263238"/>
    <path d="M214.603 49.126C214.647 49.6825 214.438 50.1695 214.134 50.2082C213.829 50.2469 213.557 49.814 213.5 49.2496C213.443 48.6853 213.664 48.2061 213.962 48.1751C214.26 48.1442 214.558 48.5617 214.603 49.126Z" fill="#263238"/>
    <path d="M214.108 48.1907L212.973 47.9279C212.973 47.9279 213.658 48.9173 214.108 48.1907Z" fill="#263238"/>
    <path d="M216.048 49.9299C215.739 51.2571 215.283 52.5264 214.691 53.7023C214.943 53.8787 215.223 53.9866 215.511 54.0186C215.8 54.0507 216.092 54.006 216.365 53.8878L216.048 49.9299Z" fill="#ED847E"/>
    <path d="M218.92 55.7354C218.669 55.8192 218.412 55.8761 218.153 55.9055C218.135 55.9076 218.118 55.9055 218.101 55.8992C218.084 55.893 218.068 55.8827 218.055 55.8691C218.041 55.8554 218.03 55.8386 218.022 55.8197C218.014 55.8007 218.009 55.7799 218.007 55.7586C218.003 55.7146 218.014 55.6707 218.036 55.6361C218.059 55.6015 218.091 55.5789 218.127 55.573C218.701 55.5216 219.257 55.3066 219.75 54.9454C220.244 54.5843 220.661 54.087 220.968 53.4936C220.975 53.4731 220.986 53.4548 220.999 53.4399C221.013 53.425 221.029 53.4139 221.047 53.4073C221.064 53.4007 221.082 53.3987 221.101 53.4016C221.119 53.4045 221.136 53.4122 221.152 53.424C221.183 53.4453 221.206 53.4805 221.217 53.5222C221.228 53.5639 221.225 53.6091 221.209 53.6482C220.697 54.6802 219.876 55.4288 218.92 55.7354Z" fill="#263238"/>
    <path d="M229.571 50.4093C229.433 51.7396 228.867 52.9486 227.999 53.772C226.839 54.8542 225.723 53.772 225.59 52.079C225.476 50.533 225.932 48.2139 227.314 47.7655C227.616 47.6906 227.928 47.7061 228.224 47.8106C228.519 47.9151 228.79 48.1056 229.012 48.3656C229.234 48.6256 229.401 48.9474 229.498 49.3033C229.596 49.6593 229.621 50.0388 229.571 50.4093Z" fill="#FFC3BD"/>
    <path d="M220.36 44.5418C220.325 44.5527 220.288 44.5549 220.252 44.5483C220.216 44.5416 220.182 44.5263 220.151 44.5032C219.863 44.2795 219.537 44.1419 219.197 44.1016C218.858 44.0613 218.515 44.1194 218.198 44.2713C218.132 44.307 218.057 44.3109 217.989 44.2822C217.921 44.2535 217.864 44.1944 217.83 44.1167C217.8 44.0376 217.796 43.9471 217.82 43.8646C217.843 43.7822 217.893 43.7144 217.957 43.676C218.356 43.475 218.789 43.3939 219.22 43.4397C219.65 43.4854 220.065 43.6566 220.43 43.9389C220.46 43.9611 220.486 43.9903 220.507 44.0249C220.528 44.0595 220.542 44.0988 220.551 44.1405C220.559 44.1822 220.56 44.2254 220.555 44.2678C220.549 44.3101 220.537 44.3507 220.518 44.3872C220.483 44.4612 220.427 44.5164 220.36 44.5418Z" fill="#263238"/>
    <path d="M212.054 46.4667C211.989 46.497 211.917 46.497 211.851 46.4667C211.79 46.4228 211.744 46.352 211.724 46.2686C211.704 46.1852 211.711 46.0957 211.744 46.0183C211.937 45.5478 212.221 45.1412 212.571 44.833C212.921 44.5248 213.326 44.3241 213.753 44.2481C213.789 44.2438 213.825 44.2483 213.859 44.2613C213.893 44.2743 213.924 44.2954 213.952 44.3235C213.979 44.3517 214.001 44.3862 214.017 44.425C214.033 44.4638 214.043 44.5062 214.045 44.5495C214.05 44.6365 214.027 44.7225 213.981 44.7891C213.935 44.8556 213.869 44.8973 213.798 44.9051C213.461 44.9741 213.143 45.1389 212.869 45.386C212.595 45.6332 212.372 45.9557 212.219 46.3275C212.201 46.3635 212.177 46.3944 212.149 46.4184C212.12 46.4423 212.088 46.4588 212.054 46.4667Z" fill="#263238"/>
    <path d="M240.882 78.9341C242.175 82.79 243.29 86.7309 244.223 90.7382C245.212 94.7805 245.916 98.9184 246.328 103.107C246.436 104.173 246.467 105.294 246.505 106.4V107.026C246.505 107.25 246.474 107.482 246.448 107.683C246.396 108.069 246.324 108.451 246.233 108.827C246.068 109.47 245.855 110.094 245.599 110.69C244.72 112.672 243.642 114.513 242.391 116.171C240.076 119.271 237.529 122.099 234.783 124.62L232.95 122.139C235.062 119.132 237.192 116.047 238.999 112.862C239.872 111.417 240.616 109.862 241.218 108.224C241.321 107.907 241.406 107.582 241.471 107.25C241.489 107.138 241.499 107.024 241.503 106.91C241.506 106.877 241.506 106.843 241.503 106.81V106.701C241.421 105.789 241.364 104.877 241.224 103.942C240.679 100.123 239.918 96.3544 238.948 92.6631C237.978 88.9216 236.894 85.126 235.778 81.5083L240.882 78.9341Z" fill="#FFC3BD"/>
    <path d="M238.505 71.3971C240.838 72.2629 243.64 82.0572 243.64 82.0572L234.58 89.9421C234.58 89.9421 231.277 81.7712 232.26 78.0916C233.312 74.2651 235.848 70.4076 238.505 71.3971Z" fill="#407BFF"/>
    <path opacity="0.4" d="M238.505 71.3971C240.838 72.2629 243.64 82.0572 243.64 82.0572L234.58 89.9421C234.58 89.9421 231.277 81.7712 232.26 78.0916C233.312 74.2651 235.848 70.4076 238.505 71.3971Z" fill="#F0F0F0"/>
    <path d="M264.593 246.032C264.476 246.028 264.361 245.992 264.257 245.927C264.153 245.861 264.062 245.768 263.991 245.653C263.934 245.581 263.893 245.492 263.873 245.394C263.853 245.296 263.854 245.194 263.877 245.097C264.093 244.247 266.083 243.551 266.312 243.473C266.337 243.463 266.364 243.462 266.389 243.472C266.414 243.482 266.436 243.501 266.451 243.528C266.465 243.554 266.473 243.585 266.473 243.616C266.473 243.648 266.465 243.679 266.451 243.705C266.096 244.533 265.392 245.924 264.67 246.024L264.593 246.032ZM266.064 243.906C265.278 244.216 264.251 244.749 264.162 245.197C264.153 245.24 264.153 245.285 264.163 245.327C264.173 245.369 264.193 245.407 264.219 245.437C264.27 245.526 264.339 245.596 264.419 245.643C264.499 245.689 264.588 245.708 264.676 245.7C265.044 245.646 265.557 244.981 266.064 243.906Z" fill="#407BFF"/>
    <path d="M265.437 243.937C264.844 244.011 264.25 243.806 263.776 243.365C263.709 243.263 263.673 243.136 263.673 243.006C263.673 242.875 263.709 242.749 263.776 242.646C263.832 242.539 263.907 242.449 263.996 242.382C264.085 242.315 264.185 242.273 264.289 242.26C265.113 242.136 266.362 243.45 266.413 243.504C266.432 243.522 266.446 243.546 266.453 243.574C266.461 243.601 266.463 243.631 266.457 243.659C266.455 243.689 266.445 243.717 266.429 243.741C266.413 243.764 266.392 243.781 266.369 243.79C266.066 243.895 265.752 243.945 265.437 243.937ZM264.429 242.584H264.34C264.275 242.593 264.212 242.619 264.157 242.661C264.101 242.702 264.053 242.758 264.017 242.824C263.921 243.002 263.953 243.095 264.017 243.156C264.264 243.551 265.392 243.697 266.077 243.543C265.608 243.048 265.039 242.717 264.429 242.584Z" fill="#407BFF"/>
    <path d="M213.056 271.558C212.566 271.612 212.076 271.459 211.667 271.125C211.58 271.028 211.512 270.907 211.469 270.773C211.427 270.639 211.41 270.495 211.42 270.352C211.425 270.26 211.449 270.171 211.49 270.094C211.531 270.017 211.588 269.954 211.655 269.911C212.358 269.439 214.641 270.862 214.901 271.032C214.925 271.049 214.944 271.074 214.957 271.104C214.969 271.134 214.974 271.168 214.97 271.202C214.967 271.236 214.954 271.268 214.935 271.293C214.916 271.318 214.89 271.335 214.863 271.341C214.267 271.48 213.662 271.553 213.056 271.558ZM212.035 270.112C211.947 270.105 211.86 270.126 211.781 270.174C211.754 270.19 211.731 270.215 211.716 270.247C211.7 270.278 211.692 270.315 211.693 270.352C211.682 270.448 211.691 270.547 211.719 270.638C211.746 270.73 211.792 270.812 211.851 270.877C212.2 271.264 213.119 271.326 214.387 271.071C213.654 270.59 212.858 270.266 212.035 270.112Z" fill="#407BFF"/>
    <path d="M214.837 271.333H214.78C214.096 270.954 212.745 269.447 212.878 268.659C212.878 268.473 213.011 268.233 213.386 268.187C213.521 268.17 213.657 268.186 213.787 268.235C213.917 268.285 214.037 268.365 214.14 268.473C214.856 269.207 214.99 271.086 214.996 271.171C214.998 271.199 214.994 271.228 214.984 271.254C214.973 271.279 214.958 271.302 214.939 271.318C214.924 271.329 214.907 271.337 214.89 271.339C214.872 271.342 214.854 271.34 214.837 271.333ZM213.468 268.496H213.392C213.138 268.496 213.126 268.651 213.119 268.689C213.056 269.161 213.975 270.352 214.673 270.862C214.616 270.068 214.359 269.314 213.937 268.705C213.809 268.561 213.642 268.479 213.468 268.473V268.496Z" fill="#407BFF"/>
    <path d="M234.726 112.089L235.322 114.632C235.404 114.826 235.214 115.027 234.941 115.027H210.982C210.773 115.027 210.596 114.903 210.583 114.741L210.374 112.205C210.374 112.027 210.539 111.88 210.773 111.88H234.352C234.423 111.873 234.496 111.888 234.561 111.925C234.627 111.961 234.683 112.018 234.726 112.089Z" fill="#407BFF"/>
    <path opacity="0.3" d="M234.726 112.089L235.322 114.632C235.404 114.826 235.214 115.027 234.941 115.027H210.982C210.773 115.027 210.596 114.903 210.583 114.741L210.374 112.205C210.374 112.027 210.539 111.88 210.773 111.88H234.352C234.423 111.873 234.496 111.888 234.561 111.925C234.627 111.961 234.683 112.018 234.726 112.089Z" fill="#F0F0F0"/>
    <path d="M231.562 115.336H232.196C232.316 115.336 232.411 115.259 232.405 115.158L232.107 111.857C232.107 111.764 231.993 111.679 231.866 111.679H231.232C231.105 111.679 231.01 111.764 231.023 111.857L231.314 115.158C231.327 115.259 231.41 115.336 231.562 115.336Z" fill="#263238"/>
    <path d="M212.758 115.336H213.392C213.519 115.336 213.614 115.259 213.607 115.158L213.309 111.857C213.309 111.764 213.189 111.679 213.068 111.679H212.434C212.308 111.679 212.213 111.764 212.219 111.857L212.517 115.158C212.523 115.259 212.631 115.336 212.758 115.336Z" fill="#263238"/>
    <path d="M222.16 115.336H222.794C222.921 115.336 223.016 115.259 223.01 115.158L222.712 111.857C222.712 111.764 222.597 111.679 222.471 111.679H221.837C221.71 111.679 221.615 111.764 221.627 111.857L221.9 115.181C221.9 115.259 222.033 115.336 222.16 115.336Z" fill="#263238"/>
    <path d="M219.313 47.5799L218.178 47.3171C218.178 47.3171 218.825 48.3066 219.313 47.5799Z" fill="#263238"/>
    <path opacity="0.2" d="M198.328 146.017C187.587 151.105 175.849 152.196 164.6 149.15C153.35 146.105 143.094 139.06 135.128 128.908C127.162 118.755 121.844 105.951 119.846 92.1131C117.849 78.2754 119.261 64.0262 123.905 51.1674C128.549 38.3085 136.216 27.4175 145.937 19.8715C155.657 12.3255 166.995 8.46345 178.515 8.77367C190.036 9.08389 201.222 13.5525 210.66 21.6143C220.098 29.6762 227.363 40.9693 231.537 54.0656C234.31 62.7618 235.65 72.0388 235.481 81.3666C235.313 90.6945 233.639 99.8905 230.555 108.429C227.471 116.968 223.038 124.683 217.508 131.132C211.979 137.582 205.461 142.64 198.328 146.017Z" fill="#407BFF"/>
    <path opacity="0.1" d="M187.784 9.93344L142.085 136.478C141.382 135.829 140.684 135.156 140 134.476C135.583 130.021 131.736 124.787 128.588 118.946L168.06 9.63969C174.6 8.35544 181.272 8.45481 187.784 9.93344Z" fill="#F0F0F0"/>
    <path opacity="0.1" d="M220.271 31.8873L177.304 150.864C168.38 150.876 159.573 148.384 151.564 143.582L198.48 13.6593C206.792 17.6227 214.246 23.8587 220.271 31.8873Z" fill="#F0F0F0"/>
    <path d="M129.26 31.9416C137.024 20.3748 147.426 11.8748 159.152 7.51654C170.878 3.15825 183.4 3.13737 195.135 7.45655C206.871 11.7757 217.292 20.241 225.082 31.7818C232.872 43.3227 237.68 57.4208 238.898 72.2933C240.116 87.1659 237.69 102.145 231.926 115.336C226.162 128.528 217.32 139.339 206.517 146.403C195.714 153.467 183.436 156.466 171.235 155.021C159.034 153.577 147.458 147.753 137.971 138.287C125.251 125.592 117.188 107.257 115.554 87.3139C113.921 67.3708 118.851 47.4531 129.26 31.9416ZM221.266 123.747C228.393 113.125 232.776 100.165 233.862 86.5063C234.948 72.8474 232.688 59.1025 227.367 47.0097C222.047 34.9169 213.905 25.0193 203.971 18.5685C194.037 12.1177 182.757 9.40326 171.558 10.7685C160.359 12.1338 149.743 17.5174 141.054 26.2387C132.364 34.9599 125.99 46.6271 122.739 59.7649C119.487 72.9027 119.503 86.9212 122.786 100.048C126.068 113.174 132.469 124.819 141.179 133.51C146.963 139.281 153.623 143.607 160.779 146.24C167.934 148.872 175.444 149.761 182.881 148.854C190.318 147.948 197.536 145.264 204.122 140.956C210.708 136.648 216.534 130.8 221.266 123.747Z" fill="#407BFF"/>
    <path d="M226.737 123.484C232.843 127.929 238.65 132.814 244.356 137.854C250.062 142.894 255.622 148.143 261.094 153.531C266.565 158.919 271.935 164.462 277.115 170.283C279.71 173.19 282.246 176.173 284.723 179.235C287.208 182.327 289.649 185.419 291.95 188.774C292.482 189.551 292.775 190.529 292.779 191.541C292.784 192.552 292.499 193.534 291.973 194.318C291.448 195.101 290.715 195.636 289.901 195.832C289.087 196.028 288.242 195.872 287.512 195.391C284.342 193.304 281.375 191 278.415 188.642C275.454 186.285 272.563 183.826 269.71 181.299C264.004 176.258 258.482 170.948 253.074 165.467C247.666 159.986 242.34 154.382 237.16 148.553C231.98 142.724 226.902 136.757 222.122 130.341C221.525 129.547 221.183 128.518 221.158 127.441C221.133 126.365 221.427 125.314 221.986 124.48C222.546 123.647 223.333 123.088 224.203 122.905C225.073 122.722 225.969 122.927 226.725 123.484H226.737Z" fill="#407BFF"/>
    <path d="M233.559 121.365L227.435 122.502L231.816 127.186C231.816 127.186 235.277 125.64 235.62 122.78L233.559 121.365Z" fill="#FFC3BD"/>
    <path d="M224.126 126.792L227.974 130.472L232.672 126.73L227.435 122.517L224.126 126.792Z" fill="#FFC3BD"/>
    <path d="M195.17 134.932C195.73 133.07 196.739 131.458 198.064 130.309C199.389 129.16 200.969 128.526 202.595 128.493H253.346C254.223 128.453 255.097 128.648 255.905 129.065C256.714 129.481 257.437 130.109 258.025 130.904C258.612 131.698 259.05 132.64 259.306 133.664C259.563 134.687 259.632 135.767 259.509 136.826L246.398 270.954C246.119 273.238 245.184 275.326 243.759 276.846C242.334 278.365 240.512 279.217 238.619 279.249H77.5825C76.7085 279.29 75.8378 279.096 75.0317 278.682C74.2257 278.268 73.5038 277.644 72.9169 276.853C72.33 276.063 71.8925 275.125 71.6349 274.105C71.3774 273.086 71.3062 272.011 71.4264 270.954L82.4199 158.262C82.6982 155.979 83.6335 153.891 85.0587 152.371C86.4839 150.851 88.306 149.999 90.1991 149.968H177.831C181.628 149.889 185.317 148.41 188.412 145.726C191.507 143.043 193.863 139.28 195.17 134.932Z" fill="#407BFF"/>
    <path d="M74.3243 273.073H242.594L252.18 135.025H83.9168L74.3243 273.073Z" fill="#F0F0F0"/>
    <path d="M74.3243 273.073H242.594L249.53 135.025H83.9168L74.3243 273.073Z" fill="#E0E0E0"/>
    <path d="M74.3243 273.073H242.594L248.376 130.642H80.1128L74.3243 273.073Z" fill="#F0F0F0"/>
    <path d="M74.3243 273.073H242.594L244.883 130.642H80.1128L74.3243 273.073Z" fill="#E0E0E0"/>
    <path d="M74.3243 273.073H242.594L243.596 126.777H75.3324L74.3243 273.073Z" fill="#F0F0F0"/>
    <path d="M74.3238 273.072H242.594L239.138 129.544H71.959L74.3238 273.072Z" fill="#E0E0E0"/>
    <path d="M74.3239 273.073H242.594L237.598 130.642H69.3344L74.3239 273.073Z" fill="#F0F0F0"/>
    <path d="M74.3239 273.073H242.594L234.637 132.791H66.3735L74.3239 273.073Z" fill="#E0E0E0"/>
    <path d="M74.3237 273.073H242.594L233.369 133.989H65.1053L74.3237 273.073Z" fill="#F0F0F0"/>
    <path d="M158.589 143.644C158.598 142.747 158.756 141.862 159.051 141.041C159.347 140.219 159.776 139.479 160.311 138.864C160.846 138.249 161.478 137.771 162.168 137.459C162.858 137.148 163.592 137.009 164.327 137.05H215.078C217.043 137.142 218.928 138.027 220.435 139.566C221.943 141.105 222.989 143.211 223.409 145.554L243.462 270.784C244.211 275.477 241.7 279.288 237.852 279.288H76.8156C72.9609 279.288 69.2076 275.477 68.4785 270.784L51.9374 167.546C51.1893 162.854 53.6999 159.043 57.5483 159.043H145.186C152.794 159.043 158.329 152.658 158.589 143.644Z" fill="#407BFF"/>
    <path opacity="0.2" d="M158.589 143.644C158.598 142.747 158.756 141.862 159.051 141.041C159.347 140.219 159.776 139.479 160.311 138.864C160.846 138.249 161.478 137.771 162.168 137.459C162.858 137.148 163.592 137.009 164.327 137.05H215.078C217.043 137.142 218.928 138.027 220.435 139.566C221.943 141.105 222.989 143.211 223.409 145.554L243.462 270.784C244.211 275.477 241.7 279.288 237.852 279.288H76.8156C72.9609 279.288 69.2076 275.477 68.4785 270.784L51.9374 167.546C51.1893 162.854 53.6999 159.043 57.5483 159.043H145.186C152.794 159.043 158.329 152.658 158.589 143.644Z" fill="#F0F0F0"/>
</svg>
