<svg width="366" height="285" viewBox="0 0 366 285" fill="none" xmlns="http://www.w3.org/2000/svg">
    <path d="M366 250.242H0V250.433H366V250.242Z" fill="#EBEBEB"/>
    <path d="M329.326 262.54H305.083V262.731H329.326V262.54Z" fill="#EBEBEB"/>
    <path d="M295.867 262.54H244.034V262.731H295.867V262.54Z" fill="#EBEBEB"/>
    <path d="M215.45 255.447H201.403V255.638H215.45V255.447Z" fill="#EBEBEB"/>
    <path d="M63.5012 256.731H38.4009V256.922H63.5012V256.731Z" fill="#EBEBEB"/>
    <path d="M115.656 256.731H70.0156V256.922H115.656V256.731Z" fill="#EBEBEB"/>
    <path d="M164.802 259.957H137.857V260.148H164.802V259.957Z" fill="#EBEBEB"/>
    <path d="M173.484 216.153H32.1426C31.0354 216.15 29.9741 215.69 29.1918 214.872C28.4096 214.053 27.9702 212.944 27.9702 211.788V4.32611C27.9799 3.17657 28.4235 2.07743 29.2047 1.26743C29.9859 0.45742 31.0417 0.00196921 32.1426 0H173.484C174.593 0 175.656 0.459812 176.44 1.27828C177.224 2.09675 177.664 3.20683 177.664 4.36432V211.788C177.664 212.946 177.224 214.056 176.44 214.874C175.656 215.693 174.593 216.153 173.484 216.153ZM32.1426 0.152867C31.0839 0.154891 30.0692 0.595463 29.3212 1.37788C28.5733 2.16029 28.1532 3.22062 28.1532 4.32611V211.788C28.1532 212.894 28.5733 213.954 29.3212 214.736C30.0692 215.519 31.0839 215.959 32.1426 215.961H173.484C174.544 215.959 175.559 215.519 176.308 214.737C177.058 213.955 177.479 212.894 177.481 211.788V4.32611C177.479 3.21992 177.058 2.15961 176.308 1.37741C175.559 0.595215 174.544 0.154887 173.484 0.152867H32.1426Z" fill="#EBEBEB"/>
    <path d="M331.823 216.153H190.474C189.366 216.15 188.304 215.69 187.52 214.872C186.737 214.054 186.296 212.945 186.294 211.788V4.32611C186.305 3.17588 186.751 2.07674 187.533 1.26695C188.316 0.457152 189.372 0.00194773 190.474 0H331.823C332.923 0.00397795 333.976 0.460317 334.756 1.27011C335.536 2.0799 335.978 3.17789 335.988 4.32611V211.788C335.988 212.943 335.55 214.051 334.769 214.869C333.988 215.687 332.929 216.148 331.823 216.153ZM190.474 0.152867C189.414 0.154887 188.399 0.595215 187.65 1.37741C186.901 2.15961 186.479 3.21992 186.477 4.32611V211.788C186.479 212.894 186.901 213.955 187.65 214.737C188.399 215.519 189.414 215.959 190.474 215.961H331.823C332.882 215.959 333.898 215.519 334.647 214.737C335.396 213.955 335.818 212.894 335.82 211.788V4.32611C335.818 3.21992 335.396 2.15961 334.647 1.37741C333.898 0.595215 332.882 0.154887 331.823 0.152867H190.474Z" fill="#EBEBEB"/>
    <path d="M55.5153 105.646L154.848 105.646V15.7832L55.5153 15.7832L55.5153 105.646Z" fill="#E6E6E6"/>
    <path d="M53.2965 105.646L152.629 105.646V15.7832L53.2965 15.7832L53.2965 105.646Z" fill="#F5F5F5"/>
    <path d="M148.669 102.436V18.9937L57.2646 18.9937V102.436H148.669Z" fill="#FAFAFA"/>
    <path d="M112.011 102.436L128.576 18.9937H93.9231L77.3652 102.436H112.011Z" fill="white"/>
    <path d="M58.9341 102.443L58.9341 19.0015H57.2651L57.2651 102.443H58.9341Z" fill="#E6E6E6"/>
    <path d="M54.9362 87.4775L150.989 87.4775V83.1667L54.9362 83.1667V87.4775Z" fill="#F5F5F5"/>
    <path d="M150.236 245.694H166.098V173.87H150.236V245.694Z" fill="#F0F0F0"/>
    <path d="M46.6506 250.242L163.061 250.242V245.694L46.6506 245.694V250.242Z" fill="#F0F0F0"/>
    <path d="M150.236 173.862H43.5981V245.686H150.236V173.862Z" fill="#F5F5F5"/>
    <path d="M144.006 182.706H49.8345V206.262H144.006V182.706Z" fill="#F0F0F0"/>
    <path d="M144.006 213.294H49.8345V236.851H144.006V213.294Z" fill="#F0F0F0"/>
    <path d="M71.5377 196.096H122.302C122.711 196.094 123.103 195.924 123.392 195.622C123.681 195.32 123.844 194.911 123.846 194.484C123.844 194.056 123.681 193.646 123.392 193.343C123.103 193.04 122.712 192.867 122.302 192.863H71.5377C71.128 192.867 70.7362 193.04 70.4472 193.343C70.1582 193.646 69.9951 194.056 69.9932 194.484C69.9951 194.911 70.1584 195.32 70.4477 195.622C70.7369 195.924 71.1286 196.094 71.5377 196.096Z" fill="#F5F5F5"/>
    <path d="M71.5377 226.685H122.302C122.711 226.683 123.103 226.512 123.392 226.21C123.681 225.908 123.844 225.499 123.846 225.072C123.846 224.644 123.684 224.233 123.394 223.929C123.105 223.625 122.712 223.454 122.302 223.452H71.5377C71.1274 223.454 70.7345 223.625 70.4451 223.929C70.1557 224.233 69.9932 224.644 69.9932 225.072C69.9951 225.499 70.1584 225.908 70.4477 226.21C70.7369 226.512 71.1286 226.683 71.5377 226.685Z" fill="#F5F5F5"/>
    <path d="M315.945 62.7518C324.978 60.153 328.067 43.0397 305.244 36.0537C310.28 53.2664 300.2 67.2613 315.945 62.7518Z" fill="#EBEBEB"/>
    <path d="M317.944 70.1808C325.067 62.1477 318.332 43.9719 292.683 51.4012C307.191 64.6547 305.537 84.1909 317.944 70.1808Z" fill="#E0E0E0"/>
    <path d="M310.917 72.2441C304.959 66.0836 313.494 44.6441 333.17 54.5804C322.022 65.732 321.348 82.9829 310.917 72.2441Z" fill="#FAFAFA"/>
    <path d="M304.973 84.2444H322.314L323.624 71.9922H303.67L304.973 84.2444Z" fill="#E6E6E6"/>
    <path d="M303.473 74.1857H323.822C324.166 74.1857 324.496 74.0432 324.739 73.7895C324.982 73.5358 325.118 73.1916 325.118 72.8328C325.118 72.474 324.982 72.1299 324.739 71.8762C324.496 71.6225 324.166 71.48 323.822 71.48H303.473C303.129 71.48 302.8 71.6225 302.557 71.8762C302.314 72.1299 302.177 72.474 302.177 72.8328C302.177 73.1916 302.314 73.5358 302.557 73.7895C302.8 74.0432 303.129 74.1857 303.473 74.1857Z" fill="#E6E6E6"/>
    <path d="M159.071 229.49V208.739H175.621V187.995H192.179V167.243H208.729V146.492H225.287V125.748H241.838V104.996H258.396V84.2446H274.953H366V250.242H159.071H142.513V229.49H159.071Z" fill="#FAFAFA"/>
    <path d="M250.117 229.49V208.739H266.675V187.995H283.225V167.243H299.783V146.492H316.334V125.748H332.891V104.996H349.442V84.2446H366V104.996V250.242H250.117H233.566V229.49H250.117Z" fill="#E0E0E0"/>
    <path d="M233.567 229.49H141.54V235.712H233.567V229.49Z" fill="#EBEBEB"/>
    <path d="M250.124 208.738H158.097V214.96H250.124V208.738Z" fill="#EBEBEB"/>
    <path d="M266.675 187.995H174.648V194.216H266.675V187.995Z" fill="#EBEBEB"/>
    <path d="M283.232 167.243H191.205V173.465H283.232V167.243Z" fill="#EBEBEB"/>
    <path d="M299.783 146.492H207.756V152.713H299.783V146.492Z" fill="#EBEBEB"/>
    <path d="M316.341 125.748H224.313V131.969H316.341V125.748Z" fill="#EBEBEB"/>
    <path d="M332.891 104.996H240.864V111.218H332.891V104.996Z" fill="#EBEBEB"/>
    <path d="M349.449 84.2446H257.422V90.4663H349.449V84.2446Z" fill="#EBEBEB"/>
    <path d="M182.999 284.759C261.383 284.759 324.926 280.885 324.926 276.107C324.926 271.328 261.383 267.455 182.999 267.455C104.614 267.455 41.0713 271.328 41.0713 276.107C41.0713 280.885 104.614 284.759 182.999 284.759Z" fill="#F5F5F5"/>
    <path d="M245 79.2075C244.868 81.5005 244.612 83.6024 244.326 85.7807C244.041 87.959 243.653 90.0915 243.214 92.2317C242.358 96.5631 241.12 100.803 239.517 104.897L238.851 106.425L238.69 106.807L238.631 107.006L238.514 107.251C238.291 107.731 238.008 108.178 237.673 108.581C237.273 109.049 236.798 109.44 236.267 109.735C235.746 110.02 235.181 110.206 234.598 110.285C233.703 110.385 232.797 110.286 231.941 109.995C230.728 109.562 229.583 108.944 228.545 108.16C227.636 107.491 226.768 106.764 225.946 105.982C222.865 102.999 220.093 99.6866 217.674 96.0992L220.097 93.9514C221.561 95.3654 223.025 96.7947 224.489 98.1476C225.945 99.5001 227.464 100.776 229.042 101.969C229.785 102.524 230.557 103.034 231.355 103.498C231.999 103.905 232.694 104.217 233.42 104.423C233.669 104.476 233.844 104.423 233.764 104.423C233.591 104.443 233.429 104.521 233.303 104.644C233.259 104.644 233.259 104.644 233.303 104.644L233.537 104.01L234.049 102.619C235.319 98.789 236.31 94.8645 237.014 90.8788C237.402 88.8762 237.673 86.8355 237.965 84.81C238.258 82.7845 238.463 80.6979 238.631 78.7642L245 79.2075Z" fill="#FFC3BD"/>
    <path d="M240.565 70.7921C237.834 71.5182 235.924 83.243 235.924 83.243L243.441 88.5933C243.441 88.5933 250.652 76.7691 248.565 73.6354C246.369 70.3564 244.547 69.7373 240.565 70.7921Z" fill="#6192FF"/>
    <path d="M240.565 70.7921C237.834 71.5182 235.924 83.243 235.924 83.243L243.441 88.5933C243.441 88.5933 250.652 76.7691 248.565 73.6354C246.369 70.3564 244.547 69.7373 240.565 70.7921Z" fill="#6192FF"/>
    <path opacity="0.4" d="M240.565 70.7921C237.834 71.5182 235.924 83.243 235.924 83.243L243.441 88.5933C243.441 88.5933 250.652 76.7691 248.565 73.6354C246.369 70.3564 244.547 69.7373 240.565 70.7921Z" fill="black"/>
    <path opacity="0.3" d="M240.806 73.4141L238.712 85.223L242.936 88.2191L240.806 73.4141Z" fill="black"/>
    <path d="M220.222 93.47L216.672 87.5693L214.644 94.2725C214.644 94.2725 217.572 97.4827 220.229 96.7184L220.222 93.47Z" fill="#FFC3BD"/>
    <path d="M211.401 85.6206L209.996 91.3225L214.615 94.2728L216.642 87.5696L211.401 85.6206Z" fill="#FFC3BD"/>
    <path d="M255.322 268.089H248.704L248.258 252.084H254.882L255.322 268.089Z" fill="#FFC3BD"/>
    <path d="M313.728 235.987L308.684 240.466L297.141 229.704L302.184 225.233L313.728 235.987Z" fill="#FFC3BD"/>
    <path d="M307.301 239.931L312.199 234.076C312.282 233.975 312.398 233.91 312.525 233.891C312.651 233.873 312.78 233.903 312.887 233.977L317.872 237.348C317.994 237.437 318.098 237.552 318.175 237.686C318.252 237.82 318.302 237.969 318.32 238.125C318.338 238.28 318.324 238.437 318.279 238.587C318.235 238.736 318.161 238.874 318.062 238.991C316.32 241.001 315.383 241.88 313.231 244.448C311.913 246.03 310.134 248.491 308.304 250.67C306.474 252.848 304.308 251.09 304.886 250.005C307.455 245.159 306.84 243.462 306.884 241.077C306.891 240.656 307.038 240.251 307.301 239.931Z" fill="#263238"/>
    <path d="M248.478 267.294H255.915C256.043 267.293 256.167 267.34 256.264 267.427C256.361 267.514 256.424 267.636 256.442 267.768L257.291 273.882C257.315 274.044 257.304 274.209 257.26 274.366C257.215 274.523 257.138 274.667 257.034 274.789C256.93 274.911 256.801 275.008 256.657 275.072C256.513 275.136 256.357 275.165 256.2 275.159C253.609 275.113 252.357 274.953 249.085 274.953C247.072 274.953 242.915 275.174 240.133 275.174C237.351 275.174 237.205 272.3 238.369 272.048C243.551 270.879 245.594 269.274 247.343 267.737C247.658 267.451 248.061 267.294 248.478 267.294Z" fill="#263238"/>
    <path opacity="0.2" d="M248.265 252.091L248.492 260.338H255.109L254.882 252.091H248.265Z" fill="black"/>
    <path opacity="0.2" d="M302.191 225.233L297.141 229.704L303.099 235.253L308.143 230.774L302.191 225.233Z" fill="black"/>
    <path d="M240.565 70.7925C240.565 70.7925 237.41 71.9543 243.727 112.51H270.606C270.159 101.083 270.145 94.0358 275.371 70.5938C271.608 69.7837 267.795 69.2575 263.959 69.0193C259.895 68.7169 255.814 68.7169 251.75 69.0193C246.509 69.5543 240.565 70.7925 240.565 70.7925Z" fill="#6192FF"/>
    <path opacity="0.4" d="M240.565 70.7925C240.565 70.7925 237.41 71.9543 243.727 112.51H270.606C270.159 101.083 270.145 94.0358 275.371 70.5938C271.608 69.7837 267.795 69.2575 263.959 69.0193C259.895 68.7169 255.814 68.7169 251.75 69.0193C246.509 69.5543 240.565 70.7925 240.565 70.7925Z" fill="black"/>
    <path d="M263.96 69.0193C259.895 68.7169 255.815 68.7169 251.75 69.0193C251.091 69.0804 250.418 69.1569 249.752 69.2409C249.476 69.6753 249.3 70.17 249.236 70.6869C249.173 71.2037 249.224 71.7289 249.386 72.2218C250.242 74.446 253.331 74.7059 255.586 74.7059C263.909 74.7059 265.314 69.6308 265.373 69.4167L265.453 69.111C264.985 69.0804 264.458 69.0422 263.96 69.0193Z" fill="white"/>
    <path d="M262.788 54.6729C262.012 58.7697 261.251 66.283 263.996 69.0193C263.996 69.0193 262.92 73.1849 255.622 73.1849C247.57 73.1849 251.786 69.027 251.786 69.027C256.178 67.934 256.054 64.5404 255.293 61.3837L262.788 54.6729Z" fill="#FFC3BD"/>
    <path opacity="0.2" d="M259.692 57.3936L255.256 61.3451C255.447 62.0963 255.575 62.8636 255.637 63.6381C257.306 63.3859 259.604 61.4674 259.787 59.6407C259.89 58.892 259.858 58.1299 259.692 57.3936Z" fill="black"/>
    <path d="M258.184 32.3695C257.503 29.9619 256.932 26.1708 261.031 24.4587C259.428 22.4103 259.04 18.5581 261.031 16.2728C263.022 13.9874 266.009 14.8282 266.009 14.8282C266.009 14.8282 266.887 9.24092 273.395 10.2422C279.902 11.2435 277.004 15.7148 277.004 15.7148C277.004 15.7148 285.883 13.8804 286.476 22.5938C287.069 31.3071 281.974 30.2371 281.974 30.2371C281.974 30.2371 285.934 33.7071 283.738 37.5211C281.542 41.3351 276.469 40.0205 276.469 40.0205C276.469 40.0205 274.083 46.7619 268.461 42.9249C262.839 39.088 258.184 32.3695 258.184 32.3695Z" fill="#263238"/>
    <path d="M245.001 37.4525C242.805 40.4181 243.771 43.7735 245.733 45.0958C250.454 48.2449 257.284 35.0372 255.505 33.4551C253.726 31.8729 247.197 34.4793 245.001 37.4525Z" fill="#263238"/>
    <path d="M264.83 30.3899C261.727 29.0829 258.579 30.4511 257.598 32.4231C255.205 37.2307 266.075 45.8906 269.222 39.8829C271.089 36.3135 268.029 31.7352 264.83 30.3899Z" fill="#6192FF"/>
    <path d="M263.52 45.0953C263.747 51.9743 263.981 54.8482 261.002 58.6775C256.53 64.4329 248.412 63.2253 246.23 56.5756C244.269 50.5909 244.232 40.3871 250.374 37.0393C251.724 36.2936 253.234 35.9207 254.761 35.9559C256.288 35.9911 257.781 36.4333 259.098 37.2404C260.415 38.0476 261.513 39.1929 262.287 40.5677C263.061 41.9425 263.485 43.501 263.52 45.0953Z" fill="#FFC3BD"/>
    <path d="M262.532 48.6959C259.604 47.5571 258.872 43.9877 259.341 42.5813C257.877 42.5201 254.678 41.9698 253.485 40.0743C251.201 41.6029 246.377 43.1316 245.857 40.5864C245.338 38.0412 252.614 31.4985 258.118 30.994C264.662 30.3979 271.119 37.1087 269.457 43.5367C267.795 49.9647 262.532 48.6959 262.532 48.6959Z" fill="#263238"/>
    <path d="M243.756 112.51C243.756 112.51 238.537 165.745 238.969 186.826C239.423 208.747 247.116 258.741 247.116 258.741H256.061C256.061 258.741 254.648 210.023 255.439 188.499C256.303 165.027 263.44 112.51 263.44 112.51H243.756Z" fill="#263238"/>
    <path d="M256.807 259.078H246.31L245.534 255.585L257.297 255.157L256.807 259.078Z" fill="#6192FF"/>
    <path opacity="0.2" d="M255.321 125.755C248.733 139.62 253.997 164.919 256.332 174.336C257.525 160.196 259.545 142.914 261.119 130.227C260.123 123.057 258.396 119.358 255.321 125.755Z" fill="black"/>
    <path d="M250.827 112.509C250.827 112.509 256.917 167.855 261.514 185.625C266.975 206.721 300.889 235.116 300.889 235.116L307.769 229.001C307.769 229.001 283.189 198.153 279.009 187.039C270.101 163.345 277.728 127.972 270.606 112.494L250.827 112.509Z" fill="#263238"/>
    <path d="M308.867 228.688L300.332 236.255L297.141 234.26L306.796 224.881L308.867 228.688Z" fill="#6192FF"/>
    <path d="M253.777 47.9696C253.828 48.5276 253.587 49.0015 253.243 49.0397C252.898 49.0779 252.569 48.6499 252.511 48.0996C252.452 47.5493 252.701 47.0601 253.052 47.0295C253.404 46.9989 253.726 47.3887 253.777 47.9696Z" fill="#263238"/>
    <path d="M247.775 48.5736C247.826 49.1239 247.584 49.6054 247.233 49.6436C246.882 49.6818 246.567 49.2538 246.501 48.6958C246.435 48.1379 246.691 47.664 247.035 47.6334C247.38 47.6029 247.724 48.0156 247.775 48.5736Z" fill="#263238"/>
    <path d="M247.204 47.6485L245.894 47.3887C245.894 47.3887 246.684 48.367 247.204 47.6485Z" fill="#263238"/>
    <path d="M249.443 49.3682C249.087 50.6804 248.56 51.9354 247.877 53.0981C248.167 53.2725 248.49 53.3792 248.824 53.4109C249.158 53.4425 249.494 53.3984 249.809 53.2815L249.443 49.3682Z" fill="#ED847E"/>
    <path d="M252.759 55.1086C252.469 55.1915 252.173 55.2477 251.874 55.2767C251.854 55.2788 251.833 55.2767 251.814 55.2706C251.794 55.2644 251.776 55.2543 251.761 55.2408C251.745 55.2273 251.732 55.2107 251.723 55.1919C251.713 55.1732 251.707 55.1526 251.705 55.1315C251.701 55.0881 251.713 55.0446 251.739 55.0104C251.765 54.9762 251.803 54.9538 251.844 54.9481C252.507 54.8972 253.149 54.6846 253.718 54.3275C254.288 53.9704 254.769 53.4787 255.124 52.892C255.132 52.8718 255.145 52.8537 255.16 52.839C255.176 52.8242 255.195 52.8132 255.215 52.8067C255.235 52.8001 255.256 52.7982 255.277 52.8011C255.298 52.804 255.318 52.8115 255.336 52.8232C255.372 52.8443 255.399 52.879 255.412 52.9203C255.424 52.9616 255.42 53.0062 255.402 53.0449C254.812 54.0653 253.864 54.8055 252.759 55.1086Z" fill="#263238"/>
    <path d="M265.057 49.8423C264.897 51.1576 264.244 52.353 263.242 53.1671C261.902 54.2372 260.614 53.1671 260.46 51.4932C260.329 49.9646 260.856 47.6716 262.451 47.2283C262.8 47.1542 263.16 47.1695 263.501 47.2728C263.842 47.3762 264.155 47.5645 264.411 47.8215C264.667 48.0786 264.86 48.3968 264.972 48.7488C265.085 49.1007 265.114 49.476 265.057 49.8423Z" fill="#FFC3BD"/>
    <path d="M254.422 44.041C254.381 44.0518 254.339 44.0539 254.298 44.0474C254.256 44.0408 254.216 44.0257 254.18 44.0028C253.849 43.7816 253.471 43.6456 253.08 43.6057C252.688 43.5659 252.292 43.6234 251.926 43.7735C251.85 43.8088 251.764 43.8127 251.685 43.7843C251.606 43.756 251.54 43.6975 251.501 43.6206C251.466 43.5425 251.462 43.453 251.489 43.3714C251.516 43.2899 251.573 43.2229 251.648 43.185C252.109 42.9862 252.609 42.906 253.106 42.9512C253.602 42.9965 254.081 43.1658 254.503 43.4448C254.537 43.4668 254.568 43.4957 254.592 43.5299C254.616 43.5641 254.633 43.603 254.642 43.6442C254.652 43.6854 254.653 43.7282 254.647 43.7701C254.641 43.8119 254.626 43.8521 254.605 43.8881C254.565 43.9613 254.499 44.0159 254.422 44.041Z" fill="#263238"/>
    <path d="M244.832 45.9442C244.757 45.9741 244.674 45.9741 244.598 45.9442C244.527 45.9009 244.475 45.8308 244.451 45.7484C244.428 45.6659 244.436 45.5774 244.474 45.5009C244.697 45.0357 245.025 44.6336 245.429 44.3289C245.833 44.0242 246.301 43.8258 246.794 43.7506C246.835 43.7464 246.876 43.7508 246.916 43.7636C246.955 43.7765 246.992 43.7974 247.023 43.8252C247.054 43.853 247.08 43.8871 247.099 43.9255C247.117 43.9639 247.128 44.0057 247.131 44.0486C247.137 44.1346 247.11 44.2197 247.057 44.2855C247.004 44.3512 246.928 44.3924 246.845 44.4002C246.457 44.4684 246.09 44.6314 245.773 44.8757C245.456 45.1201 245.199 45.439 245.023 45.8066C245.002 45.8421 244.974 45.8727 244.941 45.8964C244.909 45.9201 244.872 45.9364 244.832 45.9442Z" fill="#263238"/>
    <path d="M278.116 78.0459C279.608 81.8585 280.896 85.755 281.973 89.7172C283.115 93.714 283.928 97.8053 284.404 101.947C284.528 103.001 284.565 104.11 284.609 105.203V105.822C284.609 106.043 284.572 106.273 284.543 106.471C284.482 106.853 284.399 107.231 284.294 107.603C284.103 108.238 283.858 108.855 283.562 109.445C282.547 111.404 281.303 113.224 279.858 114.864C277.186 117.928 274.245 120.725 271.074 123.218L268.958 120.764C271.396 117.791 273.856 114.741 275.942 111.592C276.95 110.163 277.809 108.626 278.504 107.006C278.623 106.693 278.721 106.371 278.797 106.043C278.816 105.932 278.829 105.82 278.833 105.707C278.837 105.674 278.837 105.641 278.833 105.608V105.501C278.738 104.599 278.672 103.697 278.511 102.772C277.881 98.9962 277.003 95.2702 275.883 91.6204C274.763 87.921 273.512 84.1682 272.223 80.5911L278.116 78.0459Z" fill="#FFC3BD"/>
    <path d="M275.372 70.5938C278.066 71.4499 281.301 81.1339 281.301 81.1339L270.841 88.9301C270.841 88.9301 267.027 80.8512 268.162 77.2129C269.377 73.4295 272.305 69.6155 275.372 70.5938Z" fill="#6192FF"/>
    <path opacity="0.4" d="M275.372 70.5938C278.066 71.4499 281.301 81.1339 281.301 81.1339L270.841 88.9301C270.841 88.9301 267.027 80.8512 268.162 77.2129C269.377 73.4295 272.305 69.6155 275.372 70.5938Z" fill="black"/>
    <path d="M305.493 243.264C305.357 243.26 305.225 243.224 305.104 243.159C304.984 243.094 304.879 243.002 304.797 242.889C304.731 242.818 304.684 242.729 304.661 242.632C304.638 242.536 304.639 242.434 304.666 242.339C304.915 241.498 307.213 240.81 307.477 240.734C307.505 240.723 307.537 240.722 307.566 240.732C307.595 240.742 307.62 240.761 307.638 240.787C307.654 240.813 307.663 240.844 307.663 240.875C307.663 240.906 307.654 240.937 307.638 240.963C307.228 241.781 306.415 243.157 305.581 243.256L305.493 243.264ZM307.191 241.162C306.283 241.467 305.098 241.995 304.995 242.438C304.984 242.48 304.985 242.524 304.996 242.566C305.008 242.608 305.03 242.646 305.061 242.675C305.119 242.763 305.199 242.833 305.291 242.878C305.384 242.924 305.486 242.943 305.588 242.935C306.013 242.881 306.605 242.224 307.191 241.162Z" fill="#6192FF"/>
    <path d="M306.466 241.192C305.781 241.265 305.096 241.063 304.548 240.626C304.472 240.525 304.43 240.4 304.43 240.271C304.43 240.142 304.472 240.017 304.548 239.916C304.614 239.81 304.701 239.72 304.803 239.654C304.906 239.588 305.021 239.547 305.141 239.534C306.093 239.411 307.535 240.711 307.594 240.764C307.615 240.782 307.631 240.806 307.64 240.833C307.649 240.86 307.651 240.889 307.645 240.917C307.642 240.947 307.63 240.975 307.612 240.998C307.594 241.021 307.57 241.038 307.542 241.047C307.193 241.151 306.83 241.2 306.466 241.192ZM305.302 239.855H305.2C305.125 239.863 305.053 239.889 304.988 239.93C304.924 239.971 304.869 240.026 304.827 240.091C304.717 240.267 304.753 240.359 304.827 240.42C305.112 240.81 306.415 240.955 307.206 240.802C306.664 240.313 306.007 239.986 305.302 239.855Z" fill="#6192FF"/>
    <path d="M245.989 268.502C245.423 268.556 244.857 268.405 244.386 268.074C244.285 267.978 244.207 267.859 244.157 267.727C244.108 267.594 244.088 267.451 244.1 267.31C244.106 267.219 244.134 267.131 244.181 267.055C244.229 266.979 244.294 266.917 244.371 266.874C245.183 266.408 247.819 267.814 248.119 267.982C248.147 267.999 248.169 268.024 248.184 268.054C248.198 268.083 248.203 268.117 248.199 268.15C248.195 268.184 248.181 268.216 248.159 268.24C248.136 268.265 248.107 268.282 248.075 268.288C247.387 268.426 246.689 268.497 245.989 268.502ZM244.81 267.073C244.709 267.066 244.608 267.087 244.517 267.134C244.486 267.15 244.46 267.175 244.441 267.206C244.423 267.237 244.414 267.273 244.415 267.31C244.403 267.405 244.413 267.503 244.445 267.593C244.477 267.684 244.529 267.765 244.598 267.829C245 268.212 246.062 268.273 247.526 268.021C246.679 267.545 245.761 267.225 244.81 267.073Z" fill="#6192FF"/>
    <path d="M248.046 268.28H247.98C247.189 267.905 245.63 266.415 245.784 265.635C245.784 265.452 245.938 265.215 246.37 265.169C246.526 265.152 246.683 265.168 246.833 265.217C246.983 265.266 247.121 265.346 247.241 265.452C248.068 266.178 248.222 268.035 248.229 268.119C248.231 268.148 248.226 268.176 248.215 268.201C248.203 268.227 248.185 268.249 248.163 268.265C248.146 268.276 248.126 268.283 248.106 268.286C248.086 268.289 248.065 268.287 248.046 268.28ZM246.465 265.475H246.377C246.084 265.475 246.07 265.628 246.062 265.666C245.989 266.132 247.05 267.309 247.856 267.814C247.79 267.028 247.493 266.284 247.006 265.681C246.858 265.539 246.666 265.458 246.465 265.452V265.475Z" fill="#6192FF"/>
    <path d="M271.008 110.828L271.696 113.342C271.791 113.534 271.572 113.732 271.257 113.732H243.595C243.353 113.732 243.148 113.61 243.134 113.449L242.892 110.942C242.892 110.767 243.082 110.621 243.353 110.621H270.576C270.659 110.614 270.743 110.629 270.818 110.665C270.894 110.702 270.959 110.757 271.008 110.828Z" fill="#6192FF"/>
    <path opacity="0.3" d="M271.008 110.828L271.696 113.342C271.791 113.534 271.572 113.732 271.257 113.732H243.595C243.353 113.732 243.148 113.61 243.134 113.449L242.892 110.942C242.892 110.767 243.082 110.621 243.353 110.621H270.576C270.659 110.614 270.743 110.629 270.818 110.665C270.894 110.702 270.959 110.757 271.008 110.828Z" fill="white"/>
    <path d="M267.355 114.038H268.087C268.227 114.038 268.336 113.962 268.329 113.862L267.985 110.599C267.985 110.507 267.853 110.423 267.707 110.423H266.975C266.828 110.423 266.719 110.507 266.733 110.599L267.07 113.862C267.085 113.962 267.18 114.038 267.355 114.038Z" fill="#263238"/>
    <path d="M245.645 114.038H246.377C246.523 114.038 246.633 113.962 246.625 113.862L246.281 110.599C246.281 110.507 246.142 110.423 246.003 110.423H245.271C245.125 110.423 245.015 110.507 245.022 110.599L245.366 113.862C245.374 113.962 245.498 114.038 245.645 114.038Z" fill="#263238"/>
    <path d="M256.5 114.038H257.232C257.379 114.038 257.489 113.962 257.481 113.862L257.137 110.599C257.137 110.507 257.006 110.423 256.859 110.423H256.127C255.981 110.423 255.871 110.507 255.886 110.599L256.2 113.885C256.2 113.962 256.354 114.038 256.5 114.038Z" fill="#263238"/>
    <path d="M253.213 47.0445L251.903 46.7847C251.903 46.7847 252.649 47.763 253.213 47.0445Z" fill="#263238"/>
    <path opacity="0.2" d="M228.985 144.375C216.583 149.405 203.031 150.483 190.043 147.472C177.054 144.461 165.213 137.496 156.015 127.458C146.818 117.419 140.678 104.759 138.372 91.0769C136.065 77.395 137.696 63.3061 143.058 50.592C148.42 37.8778 157.272 27.1094 168.495 19.6483C179.718 12.1872 192.808 8.36861 206.109 8.67533C219.411 8.98206 232.326 13.4003 243.223 21.3715C254.119 29.3426 262.508 40.5087 267.327 53.4576C270.528 62.0559 272.075 71.2285 271.881 80.4514C271.686 89.6743 269.753 98.7668 266.193 107.21C262.632 115.652 257.513 123.28 251.129 129.657C244.745 136.034 237.22 141.035 228.985 144.375Z" fill="#6192FF"/>
    <path opacity="0.1" d="M216.811 9.82181L164.048 134.943C163.236 134.301 162.43 133.636 161.64 132.963C156.54 128.558 152.099 123.382 148.464 117.608L194.038 9.53136C201.589 8.26156 209.292 8.35981 216.811 9.82181Z" fill="white"/>
    <path opacity="0.1" d="M254.319 31.5288L204.711 149.167C194.407 149.178 184.238 146.715 174.992 141.967L229.16 13.5059C238.756 17.4246 247.363 23.5905 254.319 31.5288Z" fill="white"/>
    <path d="M149.24 31.5824C158.204 20.1458 170.214 11.7415 183.753 7.43222C197.291 3.12297 211.749 3.10233 225.298 7.37291C238.848 11.6435 250.88 20.0135 259.874 31.4244C268.867 42.8354 274.419 56.7749 275.825 71.4801C277.232 86.1853 274.431 100.996 267.776 114.039C261.121 127.082 250.912 137.771 238.439 144.755C225.966 151.74 211.79 154.705 197.703 153.277C183.616 151.849 170.251 146.091 159.298 136.731C144.612 124.179 135.302 106.05 133.416 86.3316C131.53 66.6129 137.222 46.9194 149.24 31.5824ZM255.468 122.354C263.696 111.852 268.757 99.0384 270.011 85.5331C271.265 72.0279 268.655 58.4377 262.512 46.481C256.369 34.5243 246.969 24.7381 235.499 18.3598C224.03 11.9816 211.007 9.29771 198.076 10.6476C185.146 11.9975 172.89 17.3206 162.857 25.9437C152.824 34.5668 145.465 46.1027 141.711 59.0926C137.956 72.0826 137.975 85.9433 141.765 98.922C145.555 111.901 152.945 123.415 163.002 132.008C169.68 137.714 177.369 141.991 185.631 144.594C193.892 147.197 202.563 148.076 211.15 147.179C219.736 146.283 228.07 143.629 235.674 139.37C243.278 135.11 250.004 129.328 255.468 122.354Z" fill="#6192FF"/>
    <path d="M261.785 122.094C268.834 126.489 275.539 131.32 282.127 136.303C288.715 141.286 295.135 146.476 301.452 151.804C307.769 157.131 313.969 162.611 319.95 168.367C322.946 171.241 325.874 174.191 328.734 177.218C331.603 180.275 334.421 183.332 337.078 186.649C337.692 187.417 338.031 188.385 338.036 189.385C338.04 190.386 337.711 191.356 337.105 192.131C336.498 192.905 335.652 193.435 334.712 193.629C333.772 193.822 332.797 193.668 331.954 193.192C328.294 191.128 324.869 188.851 321.45 186.519C318.032 184.188 314.694 181.758 311.4 179.258C304.812 174.275 298.436 169.024 292.192 163.605C285.948 158.186 279.8 152.644 273.819 146.881C267.839 141.118 261.975 135.218 256.456 128.874C255.767 128.089 255.372 127.071 255.343 126.007C255.314 124.943 255.654 123.903 256.3 123.08C256.946 122.256 257.854 121.702 258.859 121.521C259.864 121.34 260.897 121.544 261.77 122.094H261.785Z" fill="#6192FF"/>
    <path d="M269.661 120L262.59 121.124L267.648 125.755C267.648 125.755 271.645 124.227 272.04 121.399L269.661 120Z" fill="#FFC3BD"/>
    <path d="M258.77 125.365L263.213 129.004L268.637 125.304L262.591 121.139L258.77 125.365Z" fill="#FFC3BD"/>
    <path d="M225.339 133.414C225.984 131.573 227.149 129.979 228.679 128.843C230.209 127.706 232.033 127.08 233.91 127.047H292.507C293.52 127.008 294.528 127.2 295.461 127.612C296.395 128.024 297.23 128.645 297.909 129.431C298.587 130.216 299.092 131.148 299.388 132.16C299.684 133.172 299.764 134.239 299.622 135.287L284.484 267.905C284.163 270.163 283.083 272.228 281.438 273.73C279.792 275.233 277.688 276.075 275.503 276.107H89.5746C88.5655 276.147 87.5602 275.956 86.6296 275.546C85.6989 275.137 84.8654 274.52 84.1878 273.738C83.5102 272.956 83.005 272.029 82.7077 271.021C82.4103 270.013 82.3282 268.95 82.4669 267.905L95.1598 156.481C95.481 154.224 96.561 152.159 98.2065 150.656C99.852 149.154 101.956 148.312 104.141 148.28H205.318C209.703 148.202 213.962 146.74 217.535 144.087C221.108 141.433 223.829 137.712 225.339 133.414Z" fill="#6192FF"/>
    <path d="M85.813 269.999H280.093L291.161 133.505H96.8881L85.813 269.999Z" fill="#F0F0F0"/>
    <path d="M85.813 269.999H280.093L288.101 133.505H96.8881L85.813 269.999Z" fill="#E0E0E0"/>
    <path d="M85.813 270H280.093L286.769 129.172H92.4961L85.813 270Z" fill="#F0F0F0"/>
    <path d="M85.813 270H280.093L282.736 129.172H92.4961L85.813 270Z" fill="#E0E0E0"/>
    <path d="M85.813 270H280.093L281.25 125.35H86.9769L85.813 270Z" fill="#F0F0F0"/>
    <path d="M85.8124 270H280.093L276.103 128.086H83.082L85.8124 270Z" fill="#E0E0E0"/>
    <path d="M85.8126 270H280.093L274.325 129.172H80.0518L85.8126 270Z" fill="#F0F0F0"/>
    <path d="M85.8126 270H280.093L270.906 131.297H76.6333L85.8126 270Z" fill="#E0E0E0"/>
    <path d="M85.8122 270H280.092L269.442 132.481H75.1689L85.8122 270Z" fill="#F0F0F0"/>
    <path d="M183.103 142.028C183.114 141.141 183.295 140.266 183.637 139.454C183.978 138.642 184.473 137.91 185.091 137.301C185.709 136.693 186.438 136.221 187.235 135.913C188.031 135.605 188.879 135.467 189.727 135.508H248.324C250.593 135.599 252.768 136.474 254.509 137.996C256.25 139.517 257.458 141.6 257.942 143.916L281.096 267.737C281.959 272.377 279.061 276.145 274.617 276.145H88.6894C84.2389 276.145 79.9054 272.377 79.0636 267.737L59.9657 165.661C59.102 161.021 62.0007 157.253 66.4439 157.253H167.628C176.412 157.253 182.803 150.94 183.103 142.028Z" fill="#6192FF"/>
    <path opacity="0.2" d="M183.103 142.028C183.114 141.141 183.295 140.266 183.637 139.454C183.978 138.642 184.473 137.91 185.091 137.301C185.709 136.693 186.438 136.221 187.235 135.913C188.031 135.605 188.879 135.467 189.727 135.508H248.324C250.593 135.599 252.768 136.474 254.509 137.996C256.25 139.517 257.458 141.6 257.942 143.916L281.096 267.737C281.959 272.377 279.061 276.145 274.617 276.145H88.6894C84.2389 276.145 79.9054 272.377 79.0636 267.737L59.9657 165.661C59.102 161.021 62.0007 157.253 66.4439 157.253H167.628C176.412 157.253 182.803 150.94 183.103 142.028Z" fill="black"/>
</svg>
