<svg width="290" height="236" viewBox="0 0 290 236" fill="none" xmlns="http://www.w3.org/2000/svg">
    <path d="M145 235.155C225.081 235.155 290 200.474 290 157.693C290 114.911 225.081 80.2299 145 80.2299C64.9187 80.2299 0 114.911 0 157.693C0 200.474 64.9187 235.155 145 235.155Z" fill="#F5F5F5"/>
    <path d="M86.6478 200.812L40.417 173.932L118.614 128.741L86.6478 200.812Z" fill="#E0E0E0"/>
    <path d="M19.916 172.282L38.754 183.143C39.1455 183.342 39.5784 183.445 40.0174 183.445C40.4564 183.445 40.8893 183.342 41.2808 183.143L67.2642 167.982C67.4171 167.931 67.5501 167.834 67.6444 167.703C67.7386 167.572 67.7894 167.416 67.7894 167.254C67.7894 167.093 67.7386 166.936 67.6444 166.806C67.5501 166.675 67.4171 166.578 67.2642 166.527L48.4263 155.659C48.0347 155.461 47.6019 155.357 47.1628 155.357C46.7238 155.357 46.2909 155.461 45.8994 155.659L19.916 170.821C19.7639 170.873 19.632 170.972 19.5386 171.103C19.4452 171.234 19.395 171.391 19.395 171.551C19.395 171.712 19.4452 171.869 19.5386 172C19.632 172.131 19.7639 172.23 19.916 172.282Z" fill="#E0E0E0"/>
    <path d="M21.956 170.593C20.6568 168.502 16.6489 166.202 11.3873 165.065C6.12565 163.929 0.838044 162.539 2.04627 159.466C3.34544 156.173 8.2433 156.01 13.0307 157.972C18.2599 160.116 22.1249 165.416 22.1963 168.755L21.956 170.593Z" fill="#2720FF"/>
    <g opacity="0.1">
        <path d="M21.956 170.593C20.6568 168.502 16.6489 166.202 11.3873 165.065C6.12565 163.929 0.838044 162.539 2.04627 159.466C3.34544 156.173 8.2433 156.01 13.0307 157.972C18.2599 160.116 22.1249 165.416 22.1963 168.755L21.956 170.593Z" fill="black"/>
    </g>
    <path d="M22.3652 169.645C22.2911 169.644 22.2188 169.623 22.1567 169.582C22.0946 169.542 22.0452 169.485 22.0144 169.418C17.8376 160.778 8.15228 159.382 5.12523 159.856C5.02195 159.871 4.91695 159.844 4.83303 159.782C4.74911 159.72 4.69305 159.628 4.67701 159.525C4.66869 159.474 4.67049 159.422 4.68234 159.372C4.69418 159.322 4.71583 159.274 4.74603 159.233C4.77622 159.191 4.81437 159.156 4.85827 159.129C4.90217 159.102 4.95095 159.084 5.00181 159.076C8.21075 158.583 18.3767 160.031 22.7484 169.08C22.7934 169.174 22.7995 169.282 22.7655 169.38C22.7314 169.479 22.6599 169.56 22.5665 169.606C22.5036 169.635 22.4345 169.649 22.3652 169.645Z" fill="white"/>
    <path d="M21.9562 170.593C21.9562 170.593 19.4423 160.635 13.0699 155.283C11.1796 153.691 9.17238 151.697 7.74979 150.326C4.72273 147.377 5.98942 144.162 10.1792 144.227C16.4152 144.311 20.9753 149.56 22.95 156.426C24.9248 163.292 21.9562 170.593 21.9562 170.593Z" fill="#2720FF"/>
    <path d="M22.9499 166.728C22.8513 166.729 22.756 166.692 22.6827 166.626C22.6094 166.56 22.5634 166.469 22.5537 166.371C21.3844 153.704 11.7186 147.338 9.08783 146.663C8.98705 146.637 8.90066 146.572 8.84767 146.482C8.79467 146.393 8.77942 146.286 8.80526 146.185C8.8311 146.084 8.89592 145.998 8.98546 145.945C9.075 145.892 9.18192 145.877 9.28271 145.903C12.4787 146.721 22.138 153.327 23.3397 166.3C23.3487 166.404 23.3162 166.507 23.2493 166.588C23.1824 166.668 23.0865 166.718 22.9824 166.728H22.9499Z" fill="white"/>
    <path d="M39.3908 181.545L21.6442 171.295L21.6377 133.229L39.3908 143.48V181.545Z" fill="#263238"/>
    <path d="M39.3906 143.48L64.7504 128.838V166.904L39.3906 181.545V143.48Z" fill="#37474F"/>
    <path d="M64.7505 128.838L39.3908 143.48L21.6377 133.229L47.0039 118.588L64.7505 128.838Z" fill="#455A64"/>
    <path d="M50.3491 143.012L53.7984 141.018C54.2466 140.758 54.6104 140.875 54.6104 141.284C54.5774 141.533 54.4869 141.77 54.3459 141.978C54.2049 142.185 54.0174 142.357 53.7984 142.479L50.3491 144.474C49.9009 144.733 49.5371 144.617 49.5371 144.207C49.57 143.959 49.6606 143.721 49.8016 143.514C49.9425 143.306 50.13 143.134 50.3491 143.012Z" fill="#263238"/>
    <path d="M41.4629 162.785L61.7494 151.073L62.2171 151.34L61.7494 165.169L62.2171 165.442L41.9306 177.154L41.4629 176.881V162.785Z" fill="#263238"/>
    <path d="M41.9307 163.052L62.2171 151.34V165.442L41.9307 177.154V163.052Z" fill="#455A64"/>
    <path d="M49.8818 160.85L53.3311 158.862C53.7793 158.602 54.1431 158.719 54.1431 159.122C54.1106 159.371 54.0203 159.61 53.8793 159.819C53.7384 160.027 53.5506 160.2 53.3311 160.323L49.8818 162.318C49.4336 162.578 49.0698 162.454 49.0698 162.051C49.1033 161.802 49.194 161.564 49.3348 161.355C49.4757 161.147 49.6629 160.974 49.8818 160.85Z" fill="#263238"/>
    <path d="M41.4629 145.247L61.7494 133.535L62.2171 133.801L61.7494 147.631L62.2171 147.903L41.9306 159.615L41.4629 159.343V145.247Z" fill="#263238"/>
    <path d="M41.9307 145.513L62.2171 133.801V147.903L41.9307 159.615V145.513Z" fill="#455A64"/>
    <path d="M49.8818 143.311L53.3311 141.323C53.7793 141.063 54.1431 141.18 54.1431 141.583C54.1106 141.833 54.0203 142.071 53.8793 142.28C53.7384 142.489 53.5506 142.661 53.3311 142.785L49.8818 144.779C49.4336 145.039 49.0698 144.915 49.0698 144.513C49.1033 144.263 49.194 144.025 49.3348 143.817C49.4757 143.608 49.6629 143.435 49.8818 143.311Z" fill="#263238"/>
    <path d="M39.3908 141.862L21.6442 131.612L21.6377 93.5398L39.3908 103.79V141.862Z" fill="#263238"/>
    <path d="M39.3906 103.79L64.7504 89.1487V127.221L39.3906 141.862V103.79Z" fill="#37474F"/>
    <path d="M64.7505 89.1486L39.3908 103.79L21.6377 93.5398L47.0039 78.8982L64.7505 89.1486Z" fill="#455A64"/>
    <path d="M41.9307 105.252L62.2171 93.5398L62.6849 93.8126V107.909L42.3984 119.627L41.9307 119.354V105.252Z" fill="#263238"/>
    <path d="M50.3491 103.323L53.7984 101.328C54.2466 101.069 54.6104 101.192 54.6104 101.595C54.5769 101.844 54.4862 102.082 54.3453 102.291C54.2045 102.499 54.0173 102.672 53.7984 102.796L50.3491 104.784C49.9009 105.044 49.5371 104.927 49.5371 104.524C49.5696 104.275 49.6599 104.036 49.8009 103.827C49.9418 103.619 50.1295 103.446 50.3491 103.323Z" fill="#263238"/>
    <path d="M41.4629 123.096L61.7494 111.384V125.486L62.2171 125.753L41.9306 137.465L41.4629 137.198V123.096Z" fill="#263238"/>
    <path d="M41.9307 123.369L62.2171 111.65V125.753L41.9307 137.465V123.369Z" fill="#455A64"/>
    <path d="M49.8818 121.167L53.3311 119.172C53.7793 118.913 54.1431 119.029 54.1431 119.439C54.1101 119.687 54.0196 119.925 53.8786 120.132C53.7376 120.34 53.5502 120.512 53.3311 120.634L49.8818 122.628C49.4336 122.888 49.0698 122.771 49.0698 122.362C49.1028 122.113 49.1933 121.876 49.3343 121.668C49.4753 121.461 49.6627 121.289 49.8818 121.167Z" fill="#263238"/>
    <path d="M41.9307 105.252L62.2171 93.5398V107.642L41.9307 119.354V105.252Z" fill="#263238"/>
    <path d="M72.3637 100.503L61.2559 94.0984V106.518L72.3637 112.93V100.503Z" fill="#263238"/>
    <path d="M49.5371 121.361V103.79L53.8893 101.27L54.6104 102.329L67.2902 95.0013V111.111L49.5371 121.361Z" fill="#2720FF"/>
    <g opacity="0.2">
        <path d="M49.5371 121.361V103.79L53.8893 101.27L54.6104 102.329L67.2902 95.0013V111.111L49.5371 121.361Z" fill="black"/>
    </g>
    <path d="M49.5371 121.361L50.8038 105.986L68.5569 95.7354L67.2902 111.111L49.5371 121.361Z" fill="#2720FF"/>
    <path d="M52.0709 112.222L42.3921 106.635V119.055L52.0709 124.642V112.222Z" fill="#37474F"/>
    <path d="M52.0708 111.111L72.3638 99.399V113.495L52.0708 125.213V111.111Z" fill="#455A64"/>
    <path d="M60.0283 108.909L63.4776 106.915C63.9258 106.655 64.2896 106.778 64.2896 107.181C64.2561 107.43 64.1654 107.669 64.0245 107.877C63.8837 108.086 63.6965 108.259 63.4776 108.383L60.0283 110.37C59.5801 110.63 59.2163 110.513 59.2163 110.111C59.2498 109.861 59.3405 109.623 59.4813 109.415C59.6222 109.206 59.8094 109.033 60.0283 108.909Z" fill="#263238"/>
    <path d="M52.0706 111.111L51.395 110.721V124.824L52.0706 125.214V111.111Z" fill="#263238"/>
    <path d="M51.395 110.721L71.688 99.0093L72.3636 99.399L52.0706 111.111L51.395 110.721Z" fill="#37474F"/>
    <path d="M221.541 9.4317L218.903 7.89868L84.3161 85.5888V198.116C84.2802 198.465 84.337 198.816 84.4807 199.136C84.6245 199.455 84.85 199.731 85.1346 199.935L87.7719 201.468C88.0918 201.615 88.445 201.674 88.7954 201.64C89.1458 201.606 89.4808 201.479 89.7661 201.273L218.708 126.811C219.527 126.277 220.208 125.558 220.697 124.711C221.185 123.865 221.468 122.915 221.521 121.94L221.541 9.4317Z" fill="#E6E6E6"/>
    <path d="M86.9536 199.649C86.9536 201.442 88.2073 202.17 89.7663 201.273L218.709 126.811C219.527 126.277 220.208 125.558 220.697 124.711C221.186 123.865 221.468 122.915 221.521 121.94V9.43176L86.9536 87.1284V199.649Z" fill="#FAFAFA"/>
    <path d="M220.891 10.536V121.953C220.838 122.815 220.585 123.653 220.154 124.401C219.722 125.15 219.123 125.788 218.403 126.266L89.461 200.708C89.1798 200.886 88.8578 200.989 88.5256 201.007C87.7071 201.007 87.6227 200.058 87.6227 199.649V87.4986L220.891 10.536ZM221.541 9.41223L86.9536 87.1284V199.649C86.9536 200.948 87.6032 201.656 88.5061 201.656C88.9521 201.639 89.3861 201.507 89.7663 201.273L218.709 126.811C219.527 126.277 220.208 125.558 220.697 124.711C221.186 123.865 221.468 122.915 221.521 121.94V9.43172L221.541 9.41223Z" fill="#E0E0E0"/>
    <path d="M86.9536 87.1284V99.3081L221.521 21.6114V9.43176L86.9536 87.1284Z" fill="#2720FF"/>
    <path d="M171.386 43.1516V45.7499C171.386 46.2826 171.769 46.5034 172.231 46.2371L213.603 22.3454V17.7983L172.231 41.716C171.989 41.8745 171.788 42.0865 171.641 42.3354C171.495 42.5843 171.408 42.8636 171.386 43.1516Z" fill="#FAFAFA"/>
    <path d="M218.039 15.2455C218.507 14.9727 218.884 15.1935 218.884 15.7327V18.331C218.868 18.624 218.784 18.9092 218.637 19.1632C218.49 19.4173 218.285 19.633 218.039 19.7926L213.603 22.3519V17.8049L218.039 15.2455Z" fill="#455A64"/>
    <path d="M217.715 18.8377L217.214 18.6818C217.269 18.4696 217.298 18.2514 217.299 18.0322C217.321 17.8324 217.291 17.6303 217.211 17.4457C217.131 17.2612 217.005 17.1006 216.844 16.9799C216.735 16.9153 216.611 16.8812 216.484 16.8812C216.357 16.8812 216.232 16.9153 216.123 16.9799C215.808 17.2215 215.555 17.5338 215.384 17.8916C215.212 18.2493 215.127 18.6424 215.136 19.0391C215.112 19.239 215.142 19.4416 215.222 19.6263C215.302 19.8111 215.429 19.9715 215.59 20.0914C215.684 20.1486 215.792 20.1779 215.902 20.1758C216.044 20.1728 216.183 20.1325 216.305 20.0589C216.683 19.8008 216.965 19.4235 217.104 18.9871L217.604 19.143H217.643C217.682 19.1437 217.719 19.1321 217.751 19.1099C217.783 19.0877 217.806 19.0561 217.819 19.0196C217.821 18.9824 217.813 18.9452 217.794 18.9129C217.776 18.8805 217.748 18.8543 217.715 18.8377ZM216.123 19.7861C216.074 19.8239 216.014 19.8471 215.952 19.8528C215.89 19.8586 215.828 19.8467 215.772 19.8186C215.672 19.727 215.595 19.6124 215.548 19.4845C215.502 19.3566 215.488 19.2193 215.506 19.0845C215.5 18.7529 215.568 18.4241 215.706 18.1227C215.845 17.8212 216.049 17.5549 216.305 17.3437C216.374 17.3011 216.452 17.2766 216.532 17.2722C216.579 17.2721 216.624 17.2856 216.662 17.3112C216.762 17.4037 216.838 17.5185 216.884 17.6461C216.93 17.7737 216.946 17.9105 216.929 18.0452C216.934 18.3773 216.864 18.7062 216.725 19.0077C216.585 19.3091 216.38 19.5751 216.123 19.7861Z" fill="#FAFAFA"/>
    <path d="M218.085 0.20111C217.764 0.044334 217.407 -0.0216042 217.052 0.0104654C216.697 0.0425351 216.358 0.171388 216.071 0.382998L87.1286 74.8447C86.3091 75.3777 85.6271 76.0969 85.1383 76.9435C84.6495 77.7902 84.3677 78.7404 84.3159 79.7166V85.6083L86.9532 87.1478L221.54 9.43169V3.53997C221.58 3.19284 221.525 2.84145 221.383 2.52261C221.24 2.20377 221.014 1.92919 220.728 1.72763C220.241 1.44182 218.546 0.480431 218.085 0.20111Z" fill="#263238"/>
    <path d="M86.9536 81.2366C87.0044 80.2601 87.2857 79.3096 87.7746 78.4627C88.2635 77.6159 88.946 76.897 89.7663 76.3648L218.709 1.91602C220.261 1.01959 221.521 1.74713 221.521 3.53998V9.4317L86.9536 87.1284V81.2366Z" fill="#37474F"/>
    <path d="M220.735 1.74067C220.414 1.5804 220.055 1.51198 219.697 1.54292C219.339 1.57387 218.997 1.703 218.708 1.91606L89.766 76.3583C88.9351 76.8766 88.2508 77.5989 87.7782 78.4565L85.1279 76.9299C85.6029 76.0702 86.2892 75.3458 87.1222 74.8253L216.071 0.376542C216.358 0.165969 216.698 0.0382738 217.053 0.0073506C217.408 -0.0235726 217.765 0.0434576 218.085 0.201152C218.546 0.480473 220.235 1.44835 220.683 1.72118L220.735 1.74067Z" fill="#455A64"/>
    <path d="M205.691 12.4848C205.31 12.7376 204.995 13.0762 204.769 13.4733C204.543 13.8705 204.414 14.3151 204.392 14.7713C204.392 15.6093 204.983 15.9536 205.691 15.5314C206.071 15.2786 206.387 14.94 206.613 14.5428C206.838 14.1457 206.968 13.7011 206.99 13.2448C207.009 12.3939 206.418 12.0496 205.691 12.4848Z" fill="#2720FF"/>
    <path d="M210.309 9.81495C209.929 10.0663 209.613 10.4037 209.388 10.7998C209.162 11.1959 209.033 11.6396 209.01 12.095C209.01 12.9395 209.601 13.2772 210.309 12.8615C210.689 12.608 211.004 12.2692 211.23 11.8722C211.456 11.4752 211.585 11.031 211.609 10.575C211.628 9.73051 211.037 9.39272 210.309 9.81495Z" fill="#2720FF"/>
    <path d="M214.921 7.15167C214.541 7.40444 214.225 7.74305 213.999 8.1402C213.774 8.53736 213.644 8.98196 213.622 9.4382C213.622 10.2827 214.213 10.6204 214.921 10.1982C215.303 9.94659 215.619 9.60825 215.845 9.21086C216.071 8.81346 216.2 8.36827 216.22 7.91168C216.246 7.07372 215.655 6.72944 214.921 7.15167Z" fill="#2720FF"/>
    <path d="M89.7663 201.273L113.34 187.664V84.0688L86.9536 99.3081V199.649C86.9536 201.442 88.2073 202.163 89.7663 201.273Z" fill="#F5F5F5"/>
    <path d="M112.69 85.1926V187.288L89.4415 200.708C89.1603 200.886 88.8383 200.989 88.5061 201.007C87.6876 201.007 87.6032 200.058 87.6032 199.649V99.6783L112.69 85.1926ZM113.34 84.0688L86.9536 99.3081V199.649C86.9536 200.948 87.6032 201.656 88.5061 201.656C88.9521 201.639 89.3861 201.507 89.7663 201.273L113.34 187.664V84.0688Z" fill="#E0E0E0"/>
    <path d="M95.7097 100.341L108.338 93.0331C108.799 92.7603 109.176 92.9811 109.176 93.5203V94.6181C109.159 94.9101 109.075 95.1944 108.93 95.4481C108.784 95.7019 108.581 95.9182 108.338 96.0796L95.7097 103.374C95.242 103.647 94.8652 103.426 94.8652 102.887V101.802C94.8826 101.51 94.968 101.226 95.1146 100.972C95.2612 100.718 95.465 100.502 95.7097 100.341Z" fill="#E0E0E0"/>
    <path d="M92.2281 103.329V104.427C92.2123 104.72 92.1275 105.005 91.9808 105.259C91.8341 105.513 91.6295 105.728 91.3837 105.888L90.4353 106.434C89.9676 106.707 89.5908 106.486 89.5908 105.947V104.849C89.6067 104.556 89.6914 104.271 89.8382 104.017C89.9849 103.763 90.1895 103.548 90.4353 103.388L91.3837 102.842C91.8514 102.569 92.2281 102.777 92.2281 103.329Z" fill="#2720FF"/>
    <path d="M95.7097 106.415L108.338 99.1197C108.799 98.8469 109.176 99.0677 109.176 99.6004V100.698C109.159 100.991 109.075 101.276 108.93 101.531C108.784 101.786 108.582 102.003 108.338 102.166L95.7097 109.461C95.242 109.727 94.8652 109.513 94.8652 108.974V107.876C94.8816 107.583 94.9666 107.299 95.1132 107.045C95.2599 106.791 95.4642 106.575 95.7097 106.415Z" fill="#E0E0E0"/>
    <path d="M92.2281 109.396V110.494C92.2128 110.787 92.1283 111.072 91.9815 111.326C91.8347 111.58 91.6298 111.796 91.3837 111.955L90.4353 112.508C89.9676 112.774 89.5908 112.56 89.5908 112.02V110.923C89.6062 110.63 89.6907 110.344 89.8375 110.09C89.9843 109.836 90.1891 109.621 90.4353 109.461L91.3837 108.909C91.8514 108.623 92.2281 108.857 92.2281 109.396Z" fill="#2720FF"/>
    <path d="M95.7097 112.482L108.338 105.187C108.799 104.921 109.176 105.135 109.176 105.674V106.772C109.16 107.064 109.077 107.349 108.931 107.603C108.786 107.857 108.582 108.073 108.338 108.233L95.7097 115.528C95.242 115.801 94.8652 115.58 94.8652 115.048V113.943C94.8831 113.651 94.9687 113.367 95.1153 113.113C95.2618 112.859 95.4653 112.643 95.7097 112.482Z" fill="#E0E0E0"/>
    <path d="M92.2281 115.47V116.568C92.2128 116.86 92.1283 117.146 91.9815 117.4C91.8347 117.654 91.6298 117.869 91.3837 118.029L90.4353 118.581C89.9676 118.848 89.5908 118.627 89.5908 118.094V116.99C89.6077 116.697 89.6929 116.412 89.8395 116.159C89.9862 115.905 90.1902 115.689 90.4353 115.528L91.3837 114.983C91.8514 114.716 92.2281 114.931 92.2281 115.47Z" fill="#2720FF"/>
    <path d="M95.7097 132.619L108.338 125.317C108.799 125.051 109.176 125.265 109.176 125.805V126.902C109.16 127.195 109.077 127.479 108.931 127.733C108.786 127.987 108.582 128.203 108.338 128.364L95.7097 135.665C95.242 135.932 94.8652 135.717 94.8652 135.178V134.08C94.8816 133.787 94.9666 133.503 95.1132 133.249C95.2599 132.995 95.4642 132.779 95.7097 132.619Z" fill="#E0E0E0"/>
    <path d="M92.2281 135.6V136.698C92.2128 136.991 92.1283 137.276 91.9815 137.53C91.8347 137.784 91.6298 138 91.3837 138.16L90.4353 138.712C89.9676 138.978 89.5908 138.764 89.5908 138.225V137.127C89.6062 136.834 89.6907 136.549 89.8375 136.295C89.9843 136.041 90.1891 135.825 90.4353 135.665L91.3837 135.113C91.8514 134.847 92.2281 135.061 92.2281 135.6Z" fill="#2720FF"/>
    <path d="M95.7097 137.991L108.338 130.709C108.799 130.443 109.176 130.657 109.176 131.196V132.294C109.16 132.586 109.077 132.871 108.931 133.125C108.786 133.379 108.582 133.595 108.338 133.756L95.7097 141.037C95.242 141.31 94.8652 141.089 94.8652 140.55V139.452C94.8831 139.16 94.9687 138.876 95.1153 138.622C95.2618 138.368 95.4653 138.152 95.7097 137.991Z" fill="#E0E0E0"/>
    <path d="M92.2281 140.979V142.077C92.2128 142.37 92.1283 142.655 91.9815 142.909C91.8347 143.163 91.6298 143.379 91.3837 143.538L90.4353 144.084C89.9676 144.357 89.5908 144.136 89.5908 143.597V142.499C89.6077 142.206 89.6929 141.922 89.8395 141.668C89.9862 141.414 90.1902 141.198 90.4353 141.037L91.3837 140.492C91.8514 140.225 92.2281 140.453 92.2281 140.979Z" fill="#2720FF"/>
    <path d="M95.7097 143.369L108.338 136.074C108.799 135.802 109.176 136.023 109.176 136.562V137.659C109.159 137.952 109.075 138.236 108.93 138.49C108.784 138.743 108.581 138.96 108.338 139.121L95.7097 146.416C95.242 146.689 94.8652 146.468 94.8652 145.929V144.831C94.8826 144.538 94.968 144.254 95.1146 144C95.2612 143.746 95.465 143.53 95.7097 143.369Z" fill="#E0E0E0"/>
    <path d="M92.2281 146.357V147.455C92.2123 147.748 92.1275 148.033 91.9808 148.287C91.8341 148.541 91.6295 148.757 91.3837 148.917L90.4353 149.462C89.9676 149.735 89.5908 149.514 89.5908 148.975V147.877C89.6067 147.585 89.6914 147.3 89.8382 147.046C89.9849 146.792 90.1895 146.576 90.4353 146.416L91.3837 145.87C91.8514 145.597 92.2281 145.818 92.2281 146.357Z" fill="#2720FF"/>
    <path d="M94.8652 119.114V121.004L96.5087 119.114H94.8652Z" fill="#2720FF"/>
    <path d="M97.5093 118.718C97.5093 119.075 97.7561 119.211 98.0679 119.029L108.617 112.962C108.78 112.855 108.916 112.711 109.013 112.542C109.11 112.373 109.166 112.183 109.176 111.988C109.176 111.631 108.929 111.488 108.617 111.67L98.0679 117.756C97.9057 117.861 97.7706 118.003 97.6735 118.17C97.5765 118.337 97.5202 118.525 97.5093 118.718Z" fill="#E0E0E0"/>
    <path d="M94.8652 122.154V124.051L96.5087 122.154H94.8652Z" fill="#2720FF"/>
    <path d="M97.5093 121.764C97.5093 122.115 97.7561 122.258 98.0679 122.076L108.617 116.002C108.781 115.897 108.917 115.754 109.014 115.586C109.111 115.418 109.166 115.229 109.176 115.035C109.176 114.677 108.929 114.534 108.617 114.716L98.0679 120.803C97.9057 120.908 97.7706 121.05 97.6735 121.217C97.5765 121.384 97.5202 121.571 97.5093 121.764Z" fill="#E0E0E0"/>
    <path d="M94.8652 125.2V127.097L96.5087 125.2H94.8652Z" fill="#2720FF"/>
    <path d="M97.5093 124.811C97.5093 125.161 97.7561 125.304 98.0679 125.122L108.617 119.049C108.781 118.944 108.917 118.801 109.014 118.633C109.111 118.464 109.166 118.275 109.176 118.081C109.176 117.724 108.929 117.581 108.617 117.763L98.0679 123.849C97.9057 123.954 97.7706 124.096 97.6735 124.263C97.5765 124.43 97.5202 124.618 97.5093 124.811Z" fill="#E0E0E0"/>
    <path d="M94.8652 128.247V130.144L96.5087 128.247H94.8652Z" fill="#2720FF"/>
    <path d="M97.5093 127.857C97.5093 128.208 97.7561 128.351 98.0679 128.169L108.617 122.095C108.781 121.99 108.917 121.847 109.014 121.679C109.111 121.511 109.166 121.322 109.176 121.128C109.176 120.77 108.929 120.627 108.617 120.809L98.0679 126.896C97.9057 127.001 97.7706 127.143 97.6735 127.31C97.5765 127.477 97.5202 127.664 97.5093 127.857Z" fill="#E0E0E0"/>
    <path d="M121.251 87.7001V103.576C121.251 104.225 121.719 104.511 122.297 104.18L139.752 94.0985C140.056 93.9016 140.31 93.6353 140.492 93.3214C140.674 93.0075 140.778 92.6549 140.797 92.2926V79.2425C140.797 78.5929 140.33 78.3071 139.752 78.6384L129.625 84.4846C129.046 84.8159 128.579 84.5496 128.579 83.887V83.4713C128.579 82.8217 128.118 82.5359 127.539 82.8672L122.297 85.8877C121.993 86.0863 121.739 86.3539 121.558 86.6688C121.376 86.9837 121.271 87.337 121.251 87.7001Z" fill="#2720FF"/>
    <path d="M124.688 106.57V107.59C124.688 108.084 125.038 108.285 125.467 108.038L138.563 100.477C138.79 100.329 138.979 100.13 139.114 99.8951C139.25 99.6603 139.328 99.3968 139.342 99.1261V98.1063C139.342 97.6126 138.991 97.4112 138.563 97.6581L125.467 105.219C125.24 105.367 125.051 105.567 124.915 105.801C124.78 106.036 124.702 106.3 124.688 106.57Z" fill="#E0E0E0"/>
    <path d="M145.54 73.7665V89.6423C145.54 90.2919 146.007 90.5712 146.579 90.2399L164.033 80.1649C164.337 79.9669 164.59 79.7003 164.771 79.3866C164.953 79.073 165.058 78.721 165.079 78.359V65.3024C165.079 64.6528 164.611 64.367 164.033 64.6983L153.906 70.5446C153.328 70.8759 152.867 70.603 152.867 69.9404V69.5247C152.867 68.8751 152.399 68.5958 151.821 68.9271L146.579 71.9542C146.275 72.1531 146.023 72.4209 145.842 72.7359C145.662 73.0508 145.558 73.4039 145.54 73.7665Z" fill="#2720FF"/>
    <path d="M148.956 92.6369V93.6827C148.956 94.1829 149.307 94.3843 149.736 94.1375L162.831 86.5373C163.058 86.3876 163.247 86.1868 163.382 85.9511C163.517 85.7153 163.596 85.4511 163.611 85.1797V84.1664C163.611 83.6662 163.26 83.4648 162.831 83.7181L149.736 91.2793C149.509 91.429 149.32 91.6298 149.185 91.8655C149.049 92.1013 148.971 92.3655 148.956 92.6369Z" fill="#E0E0E0"/>
    <path d="M121.251 119.595V135.47C121.251 136.12 121.719 136.406 122.297 136.075L139.752 125.993C140.052 125.798 140.303 125.536 140.485 125.227C140.666 124.918 140.773 124.571 140.797 124.213V111.156C140.797 110.507 140.33 110.228 139.752 110.559L129.625 116.405C129.046 116.736 128.579 116.47 128.579 115.807V115.392C128.579 114.742 128.118 114.456 127.539 114.788L122.297 117.815C121.997 118.01 121.746 118.272 121.564 118.581C121.383 118.89 121.276 119.237 121.251 119.595Z" fill="#2720FF"/>
    <path d="M124.688 138.465V139.485C124.688 139.979 125.038 140.18 125.467 139.933L138.563 132.372C138.789 132.223 138.977 132.024 139.113 131.789C139.248 131.554 139.327 131.291 139.342 131.021V130.001C139.342 129.507 138.991 129.306 138.563 129.553L125.467 137.114C125.24 137.262 125.051 137.461 124.915 137.696C124.78 137.931 124.702 138.194 124.688 138.465Z" fill="#E0E0E0"/>
    <path d="M145.54 105.655V121.53C145.54 122.18 146.007 122.466 146.579 122.134L164.033 112.053C164.337 111.857 164.59 111.591 164.772 111.279C164.954 110.966 165.059 110.615 165.079 110.254V97.197C165.079 96.5474 164.611 96.2616 164.033 96.5928L153.906 102.439C153.328 102.77 152.867 102.498 152.867 101.835V101.419C152.867 100.77 152.399 100.484 151.821 100.822L146.579 103.849C146.276 104.047 146.024 104.313 145.843 104.627C145.662 104.941 145.558 105.293 145.54 105.655Z" fill="#2720FF"/>
    <path d="M148.956 124.531V125.545C148.956 126.045 149.307 126.246 149.736 125.993L162.831 118.438C163.058 118.289 163.247 118.088 163.382 117.852C163.517 117.616 163.596 117.352 163.611 117.081V116.067C163.611 115.567 163.26 115.366 162.831 115.613L149.736 123.174C149.509 123.324 149.32 123.524 149.185 123.76C149.049 123.996 148.971 124.26 148.956 124.531Z" fill="#E0E0E0"/>
    <path d="M170.081 59.0599V74.9357C170.081 75.5853 170.548 75.8711 171.12 75.5399L188.581 65.4583C188.884 65.26 189.135 64.9932 189.316 64.6795C189.497 64.3658 189.601 64.0139 189.62 63.6525V50.6023C189.62 49.9528 189.152 49.667 188.581 49.9982L178.447 55.8445C177.876 56.1823 177.408 55.9094 177.408 55.2469V54.8311C177.408 54.1816 176.94 53.8957 176.362 54.227L171.12 57.2606C170.818 57.4579 170.566 57.7236 170.385 58.0362C170.205 58.3488 170.1 58.6995 170.081 59.0599Z" fill="#2720FF"/>
    <path d="M173.225 78.6968V79.7166C173.225 80.2103 173.575 80.4117 174.011 80.1649L187.113 72.6037C187.341 72.4569 187.532 72.2578 187.669 72.0229C187.805 71.788 187.884 71.5239 187.899 71.2526V70.2392C187.899 69.739 187.548 69.5377 187.113 69.7845L174.024 77.3457C173.792 77.491 173.599 77.6894 173.46 77.9244C173.321 78.1595 173.241 78.4242 173.225 78.6968Z" fill="#E0E0E0"/>
    <path d="M194.063 45.8928V61.7687C194.063 62.4182 194.531 62.6976 195.109 62.3663L212.564 52.2912C212.866 52.0929 213.118 51.8261 213.299 51.5124C213.479 51.1987 213.584 50.8468 213.603 50.4854V37.4288C213.603 36.7792 213.142 36.4934 212.564 36.8247L202.437 42.6709C201.858 43.0022 201.391 42.7294 201.391 42.0668V41.6511C201.391 41.0015 200.93 40.7222 200.351 41.0534L195.109 44.0805C194.804 44.2779 194.549 44.5453 194.368 44.8604C194.186 45.1756 194.082 45.5294 194.063 45.8928Z" fill="#2720FF"/>
    <path d="M197.506 64.7632V65.7506C197.506 66.2508 197.85 66.4521 198.285 66.2053L211.381 58.6441C211.607 58.4951 211.795 58.2953 211.931 58.0608C212.066 57.8262 212.145 57.5633 212.16 57.293V56.2732C212.16 55.773 211.81 55.5716 211.381 55.825L198.285 63.3796C198.054 63.5311 197.863 63.7358 197.727 63.9765C197.592 64.2173 197.516 64.4871 197.506 64.7632Z" fill="#E0E0E0"/>
    <path d="M173.225 110.572V111.592C173.225 112.085 173.575 112.287 174.011 112.04L187.113 104.485C187.341 104.338 187.532 104.139 187.669 103.904C187.805 103.67 187.884 103.406 187.899 103.134V102.127C187.899 101.634 187.548 101.432 187.113 101.679L174.024 109.24C173.795 109.384 173.604 109.579 173.465 109.81C173.326 110.042 173.244 110.303 173.225 110.572Z" fill="#E0E0E0"/>
    <path d="M173.556 88.2652L187.113 80.4247C187.73 80.0674 188.237 80.3597 188.237 81.0743V96.7552C188.215 97.1455 188.103 97.5253 187.907 97.8639C187.712 98.2024 187.44 98.4902 187.113 98.704L173.556 106.544C172.906 106.902 172.432 106.616 172.432 105.895V90.2139C172.454 89.8238 172.567 89.4442 172.762 89.1057C172.957 88.7672 173.229 88.4793 173.556 88.2652Z" fill="#FAFAFA"/>
    <path d="M173.049 107.025C172.89 107.027 172.733 106.986 172.594 106.908C172.43 106.798 172.298 106.646 172.212 106.468C172.126 106.29 172.09 106.092 172.107 105.895V90.2139C172.13 89.7657 172.26 89.3294 172.486 88.9418C172.712 88.5541 173.027 88.2263 173.406 87.9858L186.989 80.1454C187.151 80.0326 187.34 79.9658 187.537 79.9521C187.734 79.9384 187.93 79.9782 188.106 80.0674C188.271 80.1763 188.403 80.327 188.49 80.504C188.576 80.6809 188.614 80.8777 188.6 81.0743V96.7552C188.577 97.2034 188.448 97.6396 188.222 98.0273C187.996 98.415 187.68 98.7428 187.301 98.9833L173.718 106.83C173.516 106.952 173.285 107.019 173.049 107.025ZM187.639 80.6001C187.518 80.6048 187.401 80.643 187.301 80.7105L173.718 88.551C173.44 88.7343 173.208 88.98 173.041 89.2687C172.874 89.5574 172.777 89.881 172.757 90.2139V105.895C172.757 106.122 172.815 106.285 172.919 106.343C172.999 106.369 173.083 106.376 173.166 106.362C173.248 106.349 173.326 106.315 173.393 106.265L186.976 98.4246C187.254 98.2388 187.485 97.9916 187.652 97.7021C187.818 97.4126 187.916 97.0886 187.937 96.7552V81.0743C187.947 80.9915 187.937 80.9075 187.908 80.8295C187.878 80.7515 187.831 80.6817 187.769 80.626C187.728 80.6068 187.683 80.5979 187.639 80.6001Z" fill="#EBEBEB"/>
    <path d="M188.736 82.5424L185.709 84.2897C185.381 84.5027 185.107 84.7902 184.911 85.1289C184.715 85.4675 184.601 85.8477 184.579 86.2385V89.7333C184.579 90.4543 185.086 90.7466 185.709 90.3828L188.736 88.6355C189.064 88.4217 189.336 88.1339 189.531 87.7953C189.726 87.4568 189.839 87.077 189.86 86.6867V83.192C189.86 82.4774 189.354 82.1851 188.736 82.5424Z" fill="#2720FF"/>
    <path d="M174.589 89.9606L181.396 86.0631C181.702 85.8877 181.955 86.0306 181.955 86.3943V86.6087C181.943 86.8033 181.887 86.9925 181.79 87.1616C181.693 87.3306 181.558 87.4749 181.396 87.5831L174.589 91.4806C174.277 91.6625 174.023 91.5196 174.03 91.1558V90.9349C174.04 90.74 174.096 90.5502 174.193 90.3809C174.29 90.2116 174.425 90.0676 174.589 89.9606Z" fill="#EBEBEB"/>
    <path d="M174.589 93.0331L181.396 89.1356C181.702 88.9538 181.955 89.1032 181.955 89.4604V89.6748C181.945 89.8697 181.889 90.0595 181.792 90.2288C181.695 90.3981 181.559 90.5421 181.396 90.6492L174.589 94.5467C174.277 94.7286 174.023 94.5467 174.03 94.2219V93.9945C174.042 93.8019 174.099 93.6146 174.196 93.4478C174.292 93.2809 174.427 93.1389 174.589 93.0331Z" fill="#EBEBEB"/>
    <path d="M174.589 96.0471L181.396 92.1496C181.702 91.9743 181.955 92.1172 181.955 92.4744V92.6953C181.943 92.8898 181.887 93.0791 181.79 93.2482C181.693 93.4172 181.558 93.5615 181.396 93.6697L174.589 97.5672C174.277 97.7491 174.023 97.6061 174.03 97.2424V97.0215C174.039 96.8265 174.095 96.6365 174.192 96.4671C174.289 96.2977 174.425 96.1538 174.589 96.0471Z" fill="#EBEBEB"/>
    <path d="M174.589 99.0872L185.891 92.5914C186.203 92.416 186.456 92.5914 186.456 92.9162V93.1371C186.445 93.3324 186.388 93.5224 186.29 93.6917C186.192 93.8609 186.055 94.0047 185.891 94.1114L174.589 100.607C174.277 100.783 174.023 100.64 174.03 100.282V100.055C174.041 99.8613 174.097 99.6728 174.194 99.5047C174.291 99.3366 174.426 99.1936 174.589 99.0872Z" fill="#EBEBEB"/>
    <path d="M174.589 102.127L185.891 95.6314C186.203 95.4496 186.456 95.6314 186.456 95.9562V96.1706C186.446 96.3661 186.389 96.5563 186.291 96.7256C186.193 96.895 186.056 97.0387 185.891 97.145L174.589 103.641C174.277 103.823 174.023 103.673 174.03 103.316V103.095C174.039 102.901 174.095 102.712 174.192 102.544C174.289 102.375 174.425 102.233 174.589 102.127Z" fill="#EBEBEB"/>
    <path d="M196.973 96.8721V97.8855C196.973 98.3856 197.324 98.587 197.753 98.3402L210.848 90.779C211.076 90.6301 211.265 90.4295 211.401 90.1936C211.536 89.9576 211.614 89.6931 211.628 89.4214V88.408C211.628 87.9079 211.283 87.7065 210.848 87.9533L197.753 95.5145C197.526 95.6642 197.337 95.865 197.202 96.1007C197.066 96.3365 196.988 96.6007 196.973 96.8721Z" fill="#E0E0E0"/>
    <path d="M197.305 74.559L210.881 66.7185C211.53 66.3547 212.011 66.6471 212.011 67.3681V83.049C211.988 83.4396 211.874 83.8194 211.678 84.1579C211.482 84.4963 211.209 84.784 210.881 84.9978L197.305 92.8383C196.655 93.1955 196.174 92.9032 196.174 92.1887V76.5077C196.196 76.1168 196.309 75.7364 196.506 75.3977C196.702 75.059 196.976 74.7716 197.305 74.559Z" fill="#FAFAFA"/>
    <path d="M196.798 93.3124C196.639 93.3139 196.482 93.2736 196.343 93.1955C196.179 93.0865 196.047 92.9358 195.96 92.7589C195.873 92.582 195.835 92.3851 195.85 92.1886V76.5077C195.871 76.0583 196.001 75.6208 196.227 75.2319C196.453 74.843 196.769 74.5142 197.149 74.2731L210.725 66.4326C210.883 66.3087 211.075 66.235 211.275 66.221C211.476 66.2069 211.676 66.2532 211.85 66.3538C212.024 66.4544 212.164 66.6047 212.252 66.7855C212.339 66.9662 212.371 67.1691 212.343 67.368V83.049C212.32 83.4973 212.191 83.9338 211.965 84.3215C211.739 84.7093 211.423 85.037 211.043 85.277L197.467 93.1175C197.265 93.2396 197.034 93.3068 196.798 93.3124ZM197.448 74.8383C197.168 75.0222 196.935 75.2689 196.767 75.5587C196.599 75.8484 196.5 76.1734 196.48 76.5077V92.1886C196.47 92.2714 196.48 92.3553 196.509 92.4333C196.539 92.5113 196.587 92.5811 196.649 92.6368C196.728 92.6632 196.814 92.6693 196.896 92.6546C196.979 92.6398 197.057 92.6047 197.123 92.5524L210.699 84.7119C210.979 84.5289 211.211 84.2834 211.379 83.9948C211.547 83.7061 211.646 83.3823 211.667 83.049V67.368C211.702 67.2832 211.705 67.1885 211.676 67.1016C211.646 67.0147 211.585 66.9417 211.506 66.8962C211.426 66.8507 211.332 66.8359 211.242 66.8546C211.152 66.8734 211.072 66.9243 211.017 66.9978L197.448 74.8383Z" fill="#EBEBEB"/>
    <path d="M212.479 68.8361L209.452 70.5834C209.125 70.7972 208.852 71.085 208.657 71.4236C208.462 71.7621 208.349 72.1419 208.328 72.5322V76.027C208.328 76.7415 208.835 77.0338 209.452 76.6765L212.479 74.9292C212.807 74.7154 213.08 74.4277 213.276 74.0893C213.472 73.7508 213.586 73.371 213.609 72.9804V69.4856C213.609 68.7646 213.096 68.4723 212.479 68.8361Z" fill="#2720FF"/>
    <path d="M198.338 76.2478L205.139 72.3503C205.451 72.1684 205.704 72.3503 205.704 72.6751V72.896C205.694 73.0917 205.638 73.2823 205.54 73.4518C205.441 73.6213 205.304 73.7648 205.139 73.8703L198.338 77.7678C198.026 77.9497 197.772 77.8003 197.772 77.4431V77.2157C197.785 77.0215 197.842 76.8328 197.94 76.6647C198.038 76.4966 198.174 76.3539 198.338 76.2478Z" fill="#EBEBEB"/>
    <path d="M198.338 79.2945L205.139 75.397C205.451 75.2216 205.704 75.397 205.704 75.7217V75.9426C205.693 76.138 205.636 76.3279 205.538 76.4972C205.439 76.6665 205.303 76.8103 205.139 76.917L198.338 80.8145C198.026 80.9964 197.772 80.8534 197.772 80.4897V80.2688C197.783 80.0733 197.84 79.8831 197.938 79.7138C198.036 79.5445 198.173 79.4008 198.338 79.2945Z" fill="#EBEBEB"/>
    <path d="M198.338 82.3345L205.139 78.437C205.451 78.2551 205.704 78.437 205.704 78.7618V78.9761C205.693 79.1716 205.636 79.3618 205.538 79.5312C205.44 79.7005 205.303 79.8442 205.139 79.9505L198.338 83.848C198.026 84.0234 197.772 83.8805 197.772 83.5232V83.2894C197.787 83.0974 197.845 82.9113 197.943 82.7456C198.041 82.58 198.176 82.4392 198.338 82.3345Z" fill="#EBEBEB"/>
    <path d="M198.338 85.381L209.64 78.8852C209.952 78.7033 210.205 78.8527 210.205 79.21V79.3918C210.194 79.5872 210.137 79.7772 210.039 79.9465C209.941 80.1157 209.804 80.2595 209.64 80.3662L198.338 86.862C198.026 87.0439 197.772 86.8945 197.772 86.5373V86.3164C197.788 86.1274 197.847 85.9446 197.945 85.7823C198.043 85.6201 198.178 85.4827 198.338 85.381Z" fill="#EBEBEB"/>
    <path d="M198.338 88.4211L209.64 81.9253C209.952 81.7499 210.205 81.8928 210.205 82.2501V82.4709C210.194 82.6663 210.137 82.8563 210.039 83.0256C209.941 83.1948 209.804 83.3386 209.64 83.4453L198.338 89.9411C198.026 90.1165 197.772 89.9736 197.772 89.6164V89.389C197.785 89.1948 197.842 89.0061 197.94 88.838C198.038 88.6699 198.174 88.5272 198.338 88.4211Z" fill="#EBEBEB"/>
    <path d="M173.225 142.941V143.96C173.225 144.454 173.575 144.656 174.011 144.409L187.113 136.848C187.341 136.701 187.532 136.502 187.669 136.267C187.805 136.032 187.884 135.768 187.899 135.496V134.477C187.899 133.983 187.548 133.781 187.113 134.028L174.024 141.589C173.792 141.735 173.599 141.933 173.46 142.168C173.321 142.403 173.241 142.668 173.225 142.941Z" fill="#E0E0E0"/>
    <path d="M173.556 120.627L187.113 112.787C187.73 112.43 188.237 112.722 188.237 113.436V129.117C188.215 129.507 188.101 129.887 187.906 130.225C187.711 130.564 187.439 130.852 187.113 131.066L173.53 138.907C172.88 139.264 172.406 138.978 172.406 138.257V122.576C172.43 122.183 172.546 121.802 172.746 121.463C172.946 121.124 173.224 120.838 173.556 120.627Z" fill="#FAFAFA"/>
    <path d="M173.049 139.387C172.89 139.389 172.733 139.349 172.595 139.27C172.431 139.16 172.3 139.008 172.214 138.83C172.129 138.652 172.092 138.454 172.108 138.257V122.576C172.13 122.128 172.26 121.692 172.486 121.304C172.712 120.916 173.028 120.589 173.407 120.348L186.976 112.521C187.134 112.4 187.325 112.328 187.523 112.315C187.722 112.302 187.92 112.348 188.092 112.447C188.264 112.547 188.403 112.695 188.492 112.873C188.58 113.052 188.613 113.252 188.587 113.45V129.13C188.565 129.579 188.435 130.015 188.209 130.403C187.983 130.79 187.667 131.118 187.288 131.359L173.705 139.199C173.506 139.316 173.28 139.381 173.049 139.387ZM187.639 112.956C187.519 112.963 187.403 113.001 187.301 113.066L173.718 120.913C173.44 121.096 173.207 121.342 173.04 121.631C172.873 121.919 172.776 122.243 172.757 122.576V138.257C172.722 138.342 172.719 138.437 172.749 138.524C172.778 138.61 172.839 138.683 172.918 138.729C172.998 138.774 173.092 138.789 173.182 138.77C173.272 138.752 173.352 138.701 173.407 138.627L186.989 130.787C187.267 130.601 187.498 130.354 187.665 130.064C187.832 129.775 187.929 129.451 187.951 129.117V113.437C187.961 113.354 187.951 113.27 187.921 113.192C187.892 113.114 187.844 113.044 187.782 112.988C187.738 112.965 187.689 112.953 187.639 112.956Z" fill="#EBEBEB"/>
    <path d="M188.736 114.905L185.709 116.652C185.381 116.865 185.107 117.152 184.911 117.491C184.715 117.83 184.601 118.21 184.579 118.601V122.095C184.579 122.816 185.086 123.102 185.709 122.745L188.736 120.998C189.064 120.784 189.336 120.496 189.531 120.158C189.726 119.819 189.839 119.439 189.86 119.049V115.554C189.86 114.84 189.354 114.547 188.736 114.905Z" fill="#2720FF"/>
    <path d="M174.589 122.323L181.396 118.425C181.702 118.25 181.955 118.393 181.955 118.75V118.971C181.943 119.165 181.887 119.355 181.79 119.524C181.693 119.693 181.558 119.837 181.396 119.945L174.589 123.843C174.277 124.025 174.023 123.882 174.03 123.518V123.297C174.039 123.102 174.095 122.912 174.192 122.743C174.289 122.573 174.425 122.429 174.589 122.323Z" fill="#EBEBEB"/>
    <path d="M174.589 125.363L181.396 121.465C181.702 121.283 181.955 121.433 181.955 121.79V122.005C181.944 122.199 181.888 122.389 181.791 122.558C181.694 122.727 181.559 122.871 181.396 122.979L174.589 126.876C174.277 127.052 174.023 126.909 174.03 126.552V126.324C174.042 126.132 174.099 125.944 174.196 125.777C174.292 125.611 174.427 125.469 174.589 125.363Z" fill="#EBEBEB"/>
    <path d="M174.589 128.409L181.396 124.512C181.702 124.337 181.955 124.479 181.955 124.837V125.058C181.943 125.252 181.887 125.441 181.79 125.61C181.693 125.78 181.558 125.924 181.396 126.032L174.589 129.929C174.277 130.111 174.023 129.962 174.03 129.605V129.41C174.034 129.21 174.087 129.014 174.185 128.84C174.282 128.666 174.421 128.518 174.589 128.409Z" fill="#EBEBEB"/>
    <path d="M174.589 131.449L185.891 124.954C186.203 124.778 186.456 124.921 186.456 125.278V125.512C186.445 125.708 186.388 125.898 186.29 126.067C186.192 126.236 186.055 126.38 185.891 126.487L174.589 132.982C174.277 133.158 174.023 133.015 174.03 132.658V132.43C174.039 132.234 174.094 132.043 174.191 131.873C174.288 131.702 174.425 131.557 174.589 131.449Z" fill="#EBEBEB"/>
    <path d="M174.589 134.496L185.891 128C186.203 127.818 186.456 127.961 186.456 128.325V128.539C186.445 128.735 186.388 128.925 186.29 129.094C186.192 129.263 186.055 129.407 185.891 129.514L174.589 136.01C174.277 136.191 174.023 136.042 174.03 135.685V135.464C174.039 135.27 174.095 135.081 174.192 134.912C174.289 134.744 174.425 134.601 174.589 134.496Z" fill="#EBEBEB"/>
    <path d="M196.973 129.228V130.248C196.973 130.748 197.324 130.949 197.753 130.696L210.848 123.141C211.076 122.992 211.265 122.792 211.401 122.556C211.536 122.32 211.614 122.055 211.628 121.784V120.77C211.628 120.27 211.283 120.069 210.848 120.316L197.753 127.877C197.527 128.026 197.338 128.226 197.203 128.46C197.068 128.695 196.989 128.958 196.973 129.228Z" fill="#E0E0E0"/>
    <path d="M197.305 106.921L210.881 99.0807C211.53 98.7169 212.011 99.0092 212.011 99.7303V115.405C211.99 115.796 211.876 116.176 211.68 116.515C211.483 116.853 211.21 117.141 210.881 117.353L197.305 125.2C196.655 125.558 196.174 125.265 196.174 124.551V108.87C196.196 108.479 196.309 108.099 196.506 107.76C196.702 107.421 196.976 107.134 197.305 106.921Z" fill="#FAFAFA"/>
    <path d="M196.798 125.675C196.639 125.676 196.482 125.636 196.343 125.558C196.179 125.449 196.047 125.298 195.96 125.121C195.873 124.944 195.835 124.747 195.85 124.551V108.87C195.871 108.421 196 107.983 196.226 107.594C196.452 107.205 196.769 106.876 197.149 106.635L210.725 98.7949C210.883 98.6711 211.075 98.5973 211.275 98.5833C211.476 98.5692 211.676 98.6155 211.85 98.7161C212.024 98.8167 212.164 98.967 212.252 99.1478C212.339 99.3285 212.371 99.5314 212.343 99.7303V115.405C212.322 115.854 212.192 116.292 211.966 116.681C211.74 117.07 211.424 117.399 211.043 117.639L197.467 125.512C197.262 125.623 197.031 125.679 196.798 125.675ZM197.448 107.201C197.168 107.385 196.935 107.631 196.767 107.921C196.599 108.211 196.5 108.536 196.48 108.87V124.551C196.469 124.633 196.478 124.716 196.508 124.793C196.537 124.87 196.586 124.939 196.649 124.993C196.728 125.021 196.813 125.028 196.896 125.014C196.979 125.001 197.057 124.966 197.123 124.915L210.719 117.068C210.998 116.884 211.232 116.637 211.4 116.347C211.568 116.058 211.666 115.733 211.686 115.398V99.7303C211.722 99.6455 211.725 99.5508 211.695 99.4639C211.665 99.377 211.605 99.304 211.525 99.2585C211.445 99.213 211.352 99.1982 211.262 99.217C211.172 99.2357 211.092 99.2866 211.037 99.3601L197.448 107.201Z" fill="#EBEBEB"/>
    <path d="M212.479 101.198L209.452 102.946C209.125 103.16 208.852 103.447 208.657 103.786C208.462 104.124 208.349 104.504 208.328 104.895V108.389C208.328 109.104 208.835 109.396 209.452 109.039L212.479 107.291C212.807 107.078 213.08 106.79 213.276 106.452C213.472 106.113 213.586 105.733 213.609 105.343V101.848C213.609 101.127 213.096 100.828 212.479 101.198Z" fill="#2720FF"/>
    <path d="M198.338 108.623L205.139 104.726C205.451 104.544 205.704 104.693 205.704 105.05V105.265C205.693 105.46 205.636 105.65 205.538 105.82C205.44 105.989 205.303 106.133 205.139 106.239L198.338 110.137C198.026 110.312 197.772 110.137 197.772 109.812V109.584C197.786 109.391 197.844 109.204 197.942 109.037C198.04 108.87 198.175 108.729 198.338 108.623Z" fill="#EBEBEB"/>
    <path d="M198.338 111.657L205.139 107.759C205.451 107.584 205.704 107.759 205.704 108.084V108.305C205.693 108.5 205.636 108.69 205.538 108.859C205.439 109.029 205.303 109.172 205.139 109.279L198.338 113.177C198.026 113.359 197.772 113.209 197.772 112.852V112.631C197.782 112.435 197.838 112.245 197.937 112.075C198.035 111.906 198.172 111.762 198.338 111.657Z" fill="#EBEBEB"/>
    <path d="M198.338 114.697L205.139 110.799C205.451 110.617 205.704 110.76 205.704 111.124V111.338C205.693 111.534 205.636 111.724 205.538 111.893C205.439 112.062 205.303 112.206 205.139 112.313L198.338 116.21C198.026 116.386 197.772 116.243 197.772 115.885V115.658C197.786 115.465 197.844 115.278 197.942 115.111C198.04 114.944 198.175 114.802 198.338 114.697Z" fill="#EBEBEB"/>
    <path d="M198.338 117.717L209.64 111.221C209.952 111.04 210.205 111.182 210.205 111.546V111.761C210.194 111.956 210.137 112.146 210.039 112.315C209.941 112.484 209.804 112.628 209.64 112.735L198.338 119.231C198.026 119.413 197.772 119.263 197.772 118.906V118.685C197.783 118.491 197.84 118.301 197.938 118.133C198.036 117.965 198.173 117.822 198.338 117.717Z" fill="#EBEBEB"/>
    <path d="M198.338 120.783L209.64 114.288C209.952 114.106 210.205 114.255 210.205 114.612V114.827C210.196 115.022 210.14 115.213 210.041 115.382C209.943 115.552 209.805 115.696 209.64 115.801L198.338 122.297C198.026 122.472 197.772 122.329 197.772 121.972V121.745C197.786 121.552 197.844 121.364 197.942 121.197C198.04 121.03 198.175 120.889 198.338 120.783Z" fill="#EBEBEB"/>
    <path d="M124.688 170.983V171.996C124.688 172.497 125.038 172.698 125.474 172.451L138.563 164.89C138.791 164.743 138.981 164.544 139.118 164.309C139.254 164.074 139.334 163.81 139.349 163.539V162.539C139.349 162.038 138.998 161.837 138.563 162.09L125.474 169.645C125.248 169.792 125.059 169.989 124.922 170.221C124.786 170.454 124.706 170.714 124.688 170.983Z" fill="#E0E0E0"/>
    <path d="M125.019 148.67L138.602 140.829C139.251 140.472 139.725 140.758 139.725 141.479V157.16C139.703 157.55 139.589 157.929 139.394 158.267C139.199 158.606 138.928 158.894 138.602 159.109L125.019 166.949C124.369 167.306 123.895 167.014 123.895 166.3V150.619C123.915 150.228 124.027 149.848 124.223 149.509C124.418 149.17 124.691 148.883 125.019 148.67Z" fill="#FAFAFA"/>
    <path d="M124.512 167.423C124.353 167.425 124.196 167.385 124.058 167.307C123.894 167.197 123.763 167.046 123.677 166.869C123.592 166.692 123.555 166.496 123.57 166.3V150.619C123.593 150.171 123.723 149.734 123.949 149.347C124.175 148.959 124.491 148.631 124.87 148.391L138.452 140.55C138.609 140.426 138.8 140.351 139 140.337C139.2 140.322 139.4 140.368 139.573 140.468C139.747 140.568 139.886 140.718 139.974 140.898C140.061 141.078 140.092 141.281 140.063 141.479V157.16C140.041 157.608 139.911 158.044 139.685 158.432C139.459 158.82 139.143 159.148 138.764 159.388L125.181 167.229C124.979 167.351 124.749 167.418 124.512 167.423ZM125.181 148.949C124.903 149.134 124.671 149.381 124.504 149.671C124.337 149.96 124.24 150.285 124.22 150.619V166.3C124.185 166.384 124.182 166.479 124.211 166.566C124.241 166.653 124.302 166.726 124.381 166.772C124.461 166.817 124.555 166.832 124.645 166.813C124.735 166.794 124.815 166.743 124.87 166.67L138.452 158.823C138.73 158.639 138.961 158.393 139.128 158.104C139.295 157.816 139.392 157.493 139.414 157.16V141.479C139.449 141.394 139.452 141.3 139.422 141.213C139.393 141.126 139.332 141.053 139.252 141.007C139.173 140.962 139.079 140.947 138.989 140.966C138.899 140.984 138.819 141.035 138.764 141.109L125.181 148.949Z" fill="#EBEBEB"/>
    <path d="M140.2 142.947L137.173 144.694C136.844 144.907 136.57 145.195 136.374 145.533C136.177 145.872 136.064 146.252 136.042 146.643V150.138C136.042 150.853 136.549 151.145 137.173 150.788L140.2 149.04C140.526 148.826 140.798 148.538 140.993 148.199C141.188 147.861 141.301 147.481 141.324 147.091V143.597C141.324 142.876 140.817 142.59 140.2 142.947Z" fill="#2720FF"/>
    <path d="M126.052 150.365L132.859 146.468C133.165 146.286 133.418 146.435 133.418 146.793V147.007C133.408 147.202 133.352 147.392 133.255 147.561C133.158 147.73 133.023 147.874 132.859 147.981L126.052 151.879C125.74 152.061 125.493 151.879 125.493 151.554V151.333C125.503 151.139 125.558 150.95 125.655 150.782C125.752 150.613 125.888 150.471 126.052 150.365Z" fill="#EBEBEB"/>
    <path d="M126.052 153.405L132.859 149.508C133.165 149.332 133.418 149.475 133.418 149.839V150.054C133.407 150.248 133.35 150.437 133.253 150.606C133.156 150.775 133.022 150.92 132.859 151.028L126.052 154.925C125.74 155.101 125.493 154.925 125.493 154.601V154.373C125.504 154.179 125.56 153.991 125.657 153.823C125.754 153.655 125.889 153.512 126.052 153.405Z" fill="#EBEBEB"/>
    <path d="M126.052 156.452L132.859 152.554C133.165 152.373 133.418 152.522 133.418 152.879V153.094C133.408 153.289 133.352 153.478 133.255 153.648C133.158 153.817 133.023 153.961 132.859 154.068L126.052 157.991C125.74 158.173 125.493 157.991 125.493 157.667V157.439C125.499 157.242 125.554 157.049 125.651 156.877C125.748 156.705 125.886 156.559 126.052 156.452Z" fill="#EBEBEB"/>
    <path d="M126.052 159.492L137.355 152.996C137.666 152.814 137.92 152.996 137.92 153.321V153.535C137.91 153.731 137.854 153.922 137.755 154.091C137.657 154.261 137.52 154.404 137.355 154.51L126.052 161.006C125.74 161.187 125.493 161.045 125.493 160.681V160.46C125.504 160.266 125.56 160.078 125.657 159.91C125.754 159.741 125.889 159.598 126.052 159.492Z" fill="#EBEBEB"/>
    <path d="M126.052 162.539L137.355 156.043C137.666 155.867 137.92 156.043 137.92 156.367V156.588C137.909 156.784 137.852 156.974 137.753 157.143C137.655 157.312 137.519 157.456 137.355 157.563L126.052 164.059C125.74 164.234 125.493 164.091 125.493 163.734V163.506C125.504 163.313 125.56 163.124 125.657 162.956C125.754 162.788 125.889 162.645 126.052 162.539Z" fill="#EBEBEB"/>
    <path d="M148.437 157.27V158.29C148.437 158.784 148.787 158.992 149.216 158.738L162.312 151.177C162.54 151.031 162.73 150.831 162.865 150.596C163.001 150.361 163.078 150.097 163.091 149.826V148.813C163.091 148.313 162.747 148.111 162.312 148.358L149.216 155.919C148.99 156.068 148.801 156.268 148.666 156.502C148.53 156.737 148.452 157 148.437 157.27Z" fill="#E0E0E0"/>
    <path d="M148.787 134.957L162.364 127.117C163.013 126.759 163.494 127.052 163.494 127.766V143.447C163.473 143.838 163.359 144.219 163.163 144.557C162.966 144.896 162.693 145.183 162.364 145.396L148.787 153.236C148.138 153.6 147.657 153.308 147.657 152.587V136.906C147.68 136.515 147.794 136.136 147.991 135.797C148.187 135.459 148.46 135.171 148.787 134.957Z" fill="#FAFAFA"/>
    <path d="M148.261 153.717C148.102 153.719 147.945 153.678 147.807 153.6C147.642 153.49 147.51 153.338 147.424 153.16C147.337 152.982 147.299 152.784 147.313 152.587V136.906C147.336 136.458 147.466 136.022 147.692 135.634C147.918 135.247 148.234 134.919 148.612 134.678L162.182 126.811C162.34 126.688 162.531 126.615 162.73 126.601C162.93 126.586 163.129 126.632 163.303 126.732C163.477 126.832 163.617 126.981 163.705 127.16C163.793 127.34 163.826 127.542 163.799 127.74V143.421C163.778 143.87 163.649 144.307 163.423 144.695C163.197 145.083 162.88 145.41 162.5 145.649L148.924 153.496C148.726 153.626 148.498 153.703 148.261 153.717ZM162.851 127.292C162.728 127.296 162.609 127.334 162.507 127.403L148.93 135.256C148.651 135.439 148.418 135.685 148.25 135.973C148.082 136.262 147.984 136.586 147.963 136.919V152.6C147.951 152.683 147.96 152.767 147.99 152.846C148.019 152.924 148.068 152.994 148.131 153.048C148.211 153.074 148.296 153.081 148.378 153.067C148.461 153.054 148.539 153.02 148.606 152.97L162.182 145.13C162.461 144.945 162.694 144.699 162.862 144.409C163.03 144.119 163.129 143.794 163.15 143.46V127.766C163.16 127.684 163.149 127.6 163.12 127.522C163.091 127.444 163.043 127.374 162.981 127.318C162.94 127.3 162.896 127.291 162.851 127.292Z" fill="#EBEBEB"/>
    <path d="M163.942 129.234L160.915 130.982C160.589 131.197 160.317 131.485 160.122 131.823C159.927 132.161 159.814 132.541 159.791 132.931V136.425C159.791 137.146 160.298 137.439 160.915 137.075L163.942 135.327C164.271 135.115 164.544 134.827 164.741 134.489C164.937 134.15 165.051 133.77 165.072 133.379V129.884C165.072 129.169 164.565 128.877 163.942 129.234Z" fill="#2720FF"/>
    <path d="M149.8 136.653L156.602 132.755C156.913 132.58 157.167 132.723 157.167 133.086V133.307C157.156 133.503 157.099 133.693 157 133.862C156.902 134.031 156.766 134.175 156.602 134.282L149.8 138.179C149.489 138.354 149.235 138.212 149.235 137.848V137.627C149.247 137.432 149.303 137.242 149.402 137.072C149.5 136.903 149.636 136.759 149.8 136.653Z" fill="#EBEBEB"/>
    <path d="M149.8 139.699L156.602 135.802C156.913 135.62 157.167 135.769 157.167 136.126V136.341C157.157 136.537 157.101 136.727 157.003 136.897C156.904 137.066 156.767 137.21 156.602 137.315L149.8 141.213C149.489 141.395 149.235 141.245 149.235 140.888V140.661C149.247 140.467 149.304 140.279 149.402 140.112C149.501 139.945 149.637 139.803 149.8 139.699Z" fill="#EBEBEB"/>
    <path d="M149.8 142.739L156.602 138.842C156.913 138.666 157.167 138.809 157.167 139.166V139.387C157.156 139.583 157.099 139.773 157 139.942C156.902 140.111 156.766 140.255 156.602 140.362L149.8 144.259C149.489 144.441 149.235 144.298 149.235 143.934V143.701C149.248 143.507 149.306 143.32 149.404 143.153C149.503 142.986 149.638 142.845 149.8 142.739Z" fill="#EBEBEB"/>
    <path d="M149.8 145.779L161.103 139.283C161.415 139.108 161.668 139.251 161.668 139.608V139.803C161.657 139.998 161.6 140.188 161.502 140.358C161.404 140.527 161.267 140.671 161.103 140.777L149.8 147.273C149.489 147.449 149.235 147.306 149.235 146.949V146.721C149.251 146.531 149.311 146.348 149.409 146.185C149.507 146.021 149.641 145.883 149.8 145.779Z" fill="#EBEBEB"/>
    <path d="M149.8 148.826L161.103 142.33C161.415 142.148 161.668 142.298 161.668 142.655V142.869C161.658 143.065 161.601 143.255 161.503 143.424C161.405 143.594 161.268 143.737 161.103 143.844L149.8 150.339C149.489 150.521 149.235 150.339 149.235 150.015V149.794C149.246 149.599 149.303 149.41 149.401 149.242C149.499 149.073 149.636 148.931 149.8 148.826Z" fill="#EBEBEB"/>
    <path d="M86.9532 87.1284L84.3159 85.5889V97.7815L86.9532 99.3081V87.1284Z" fill="#2720FF"/>
    <path opacity="0.1" d="M86.9532 87.1284L84.3159 85.5889V97.7815L86.9532 99.3081V87.1284Z" fill="black"/>
    <path d="M242.801 137.51C242.501 137.374 242.17 137.319 241.841 137.351C241.513 137.383 241.199 137.5 240.93 137.692C240.164 138.19 239.525 138.861 239.064 139.65C238.604 140.44 238.336 141.327 238.28 142.239C238.245 142.567 238.298 142.898 238.432 143.2C238.567 143.501 238.779 143.761 239.046 143.954L271.928 164.741C272.578 165.195 273.559 165.169 274.631 164.552C275.708 163.855 276.605 162.913 277.25 161.804C277.894 160.694 278.268 159.448 278.34 158.167C278.34 156.933 277.885 156.082 277.158 155.724L242.801 137.51Z" fill="#2720FF"/>
    <path opacity="0.15" d="M238.28 142.265C238.28 143.947 239.456 144.636 240.917 143.798C241.684 143.3 242.323 142.629 242.783 141.84C243.243 141.05 243.512 140.163 243.567 139.251C243.567 137.568 242.392 136.88 240.93 137.718C240.164 138.216 239.525 138.887 239.064 139.676C238.604 140.466 238.335 141.353 238.28 142.265Z" fill="black"/>
    <path d="M231.005 133.138C230.538 133.441 230.15 133.849 229.871 134.33C229.592 134.811 229.431 135.351 229.4 135.906C229.38 136.103 229.411 136.303 229.492 136.484C229.573 136.665 229.701 136.822 229.861 136.938L239.787 142.7C239.967 142.784 240.166 142.818 240.364 142.798C240.562 142.779 240.75 142.707 240.911 142.59C241.382 142.288 241.774 141.877 242.055 141.392C242.335 140.907 242.495 140.362 242.522 139.803C242.545 139.604 242.514 139.403 242.433 139.22C242.352 139.038 242.223 138.88 242.061 138.764L232.135 133.002C231.951 132.922 231.75 132.892 231.551 132.916C231.353 132.94 231.164 133.017 231.005 133.138Z" fill="#263238"/>
    <path opacity="0.1" d="M242.158 142.72L275.989 163.506C275.588 163.922 275.133 164.282 274.637 164.578C273.566 165.195 272.604 165.228 271.929 164.766L239.053 143.98C239.352 144.118 239.682 144.174 240.01 144.142C240.338 144.11 240.651 143.991 240.918 143.798C241.39 143.512 241.81 143.148 242.158 142.72Z" fill="black"/>
    <path d="M247.835 113.125C247.835 112.845 247.835 112.579 247.797 112.306C247.758 112.033 247.764 111.767 247.732 111.501C247.699 111.234 247.699 111.15 247.68 110.975C247.634 110.507 247.563 110.052 247.491 109.617C247.452 109.422 247.42 109.214 247.381 109.019C247.342 108.824 247.303 108.649 247.264 108.461C247.147 107.96 247.03 107.467 246.887 106.999C246.809 106.778 246.744 106.551 246.666 106.35C246.653 106.316 246.643 106.281 246.634 106.246C246.549 106.025 246.478 105.817 246.393 105.596C246.306 105.357 246.206 105.123 246.095 104.894C246.024 104.723 245.943 104.556 245.854 104.394C245.808 104.272 245.749 104.154 245.679 104.043C245.614 103.901 245.536 103.758 245.458 103.621L245.4 103.524C245.335 103.4 245.257 103.283 245.185 103.16C245.114 103.037 245.081 103.004 245.036 102.926C244.686 102.378 244.295 101.857 243.867 101.367C243.789 101.289 243.717 101.205 243.646 101.127C243.574 101.049 243.522 100.997 243.464 100.932L243.223 100.698C243.002 100.466 242.766 100.249 242.515 100.049C242.402 99.9484 242.283 99.8551 242.158 99.7692C242.035 99.6718 241.911 99.5809 241.781 99.4964C241.588 99.3524 241.386 99.2201 241.177 99.1002L241.015 98.9962H240.982L233.837 94.8454L233.785 94.8129C231.936 93.7816 229.848 93.253 227.731 93.2799C224.574 93.2799 221.014 94.3192 217.24 96.4953C204.248 103.979 193.764 122.18 193.764 137.159C193.764 144.623 196.363 149.872 200.598 152.334H200.637L207.782 156.478H207.821L207.938 156.543C208.126 156.647 208.308 156.744 208.497 156.835C208.685 156.926 208.964 157.05 209.205 157.147C209.445 157.244 209.633 157.316 209.854 157.381C209.968 157.424 210.086 157.459 210.205 157.485C210.325 157.533 210.449 157.57 210.575 157.595L210.959 157.693C211.05 157.718 211.144 157.738 211.238 157.751L211.745 157.842H211.862L212.472 157.92C215.973 158.29 220.04 157.303 224.392 154.795C237.384 147.306 247.868 129.098 247.868 114.132C247.855 113.82 247.848 113.482 247.835 113.125ZM232.109 102.536C232.617 104.399 232.866 106.322 232.85 108.253C232.85 121.459 223.184 138.192 211.751 144.792C210.082 145.786 208.28 146.536 206.399 147.02C205.89 145.155 205.641 143.23 205.658 141.297C205.658 128.091 215.317 111.358 226.757 104.758C228.425 103.765 230.228 103.017 232.109 102.536Z" fill="#2720FF"/>
    <path opacity="0.1" d="M207.444 156.315L200.559 152.327C196.336 149.859 193.725 144.603 193.725 137.153C193.725 130.475 195.817 123.161 199.279 116.438L206.424 120.588C202.956 127.305 200.864 134.626 200.864 141.304C200.89 148.605 203.352 153.782 207.444 156.315Z" fill="black"/>
    <path opacity="0.4" d="M247.835 113.125C247.835 112.845 247.835 112.579 247.796 112.306C247.757 112.033 247.764 111.767 247.731 111.501C247.699 111.234 247.699 111.15 247.679 110.974C247.634 110.507 247.562 110.052 247.491 109.617C247.452 109.422 247.419 109.214 247.38 109.019C247.341 108.824 247.303 108.649 247.264 108.461C247.147 107.96 247.03 107.467 246.887 106.999C246.809 106.778 246.744 106.551 246.666 106.349C246.653 106.315 246.642 106.281 246.633 106.246C246.549 106.025 246.478 105.817 246.393 105.596C246.305 105.357 246.206 105.123 246.094 104.894C246.023 104.723 245.943 104.556 245.854 104.394C245.807 104.272 245.749 104.154 245.679 104.043C245.614 103.901 245.536 103.758 245.458 103.621L245.399 103.524C245.334 103.4 245.256 103.283 245.185 103.16C245.113 103.037 245.081 103.004 245.035 102.926C244.685 102.378 244.294 101.857 243.866 101.367C243.788 101.289 243.717 101.205 243.645 101.127C243.574 101.049 243.522 100.997 243.463 100.932L243.223 100.698C243.002 100.466 242.765 100.249 242.515 100.048C242.402 99.9483 242.282 99.855 242.158 99.7692C242.034 99.6717 241.911 99.5808 241.781 99.4963C241.588 99.3523 241.386 99.22 241.177 99.1001C236.916 96.5018 230.784 96.5667 224.379 100.614C211.51 108.72 200.961 126.694 200.896 141.278C200.864 148.865 203.586 154.159 207.931 156.569C208.12 156.673 208.302 156.77 208.49 156.861C208.678 156.952 208.958 157.075 209.198 157.173C209.438 157.27 209.627 157.342 209.848 157.407C209.962 157.45 210.079 157.485 210.198 157.511C210.318 157.559 210.442 157.596 210.569 157.621L210.952 157.718C211.044 157.744 211.137 157.764 211.231 157.777L211.738 157.868H211.855L212.465 157.946C215.967 158.316 220.033 157.329 224.385 154.821C237.377 147.332 247.861 129.124 247.861 114.157C247.855 113.82 247.848 113.482 247.835 113.125ZM221.995 150.735C219.085 152.418 216.285 153.301 213.888 153.301C209.393 153.301 207.327 150.235 206.398 147.02C205.89 145.155 205.64 143.23 205.658 141.297C205.658 128.091 215.317 111.358 226.756 104.758C228.425 103.765 230.227 103.017 232.109 102.536C233.01 102.316 233.935 102.2 234.863 102.192C242.294 102.192 243.087 110.585 243.087 114.196C243.087 127.402 233.434 144.136 221.995 150.735Z" fill="white"/>
    <path opacity="0.1" d="M243.087 114.196C243.087 127.396 233.434 144.136 221.995 150.735C219.085 152.418 216.285 153.301 213.894 153.301C212.85 153.343 211.809 153.147 210.851 152.727C209.893 152.307 209.044 151.675 208.367 150.878C208.25 150.742 208.139 150.599 208.029 150.456C207.918 150.313 207.814 150.164 207.723 150.008C207.65 149.901 207.583 149.791 207.522 149.677C207.477 149.605 207.431 149.534 207.392 149.462C207.353 149.391 207.301 149.28 207.249 149.189C207.197 149.099 207.165 149.021 207.126 148.936C207.087 148.852 207.041 148.767 207.002 148.676L206.808 148.209C206.73 148.014 206.658 147.819 206.593 147.617C206.528 147.416 206.457 147.221 206.405 147.02C208.286 146.536 210.088 145.785 211.757 144.792C223.19 138.192 232.856 121.459 232.856 108.253C232.873 106.322 232.624 104.399 232.115 102.536C233.017 102.316 233.941 102.2 234.87 102.192C235.232 102.193 235.594 102.215 235.954 102.257L236.292 102.309C242.392 103.322 243.087 110.832 243.087 114.196Z" fill="black"/>
    <path opacity="0.7" d="M238.982 111.871C238.982 125.077 229.329 141.81 217.89 148.41C214.979 150.092 212.18 151.008 209.783 151.008C209.306 151.01 208.83 150.971 208.36 150.891C208.243 150.755 208.133 150.612 208.022 150.469C207.912 150.326 207.808 150.177 207.717 150.021C207.644 149.914 207.577 149.804 207.516 149.69C207.47 149.618 207.425 149.547 207.386 149.475C207.347 149.404 207.295 149.293 207.243 149.203C207.191 149.112 207.158 149.034 207.119 148.949C207.08 148.865 207.035 148.78 206.996 148.689L206.801 148.222C206.723 148.027 206.652 147.832 206.587 147.631C206.522 147.429 206.45 147.234 206.398 147.033C208.28 146.549 210.082 145.799 211.751 144.805C223.184 138.205 232.849 121.472 232.849 108.266C232.866 106.335 232.617 104.412 232.109 102.549C233.011 102.329 233.935 102.213 234.863 102.205C235.226 102.206 235.588 102.228 235.948 102.27L236.286 102.322C238.637 105.076 238.982 109.513 238.982 111.871Z" fill="white"/>
</svg>
