<svg width="361" height="305" viewBox="0 0 361 305" fill="none" xmlns="http://www.w3.org/2000/svg">
    <path d="M361 268.03H0V268.235H361V268.03Z" fill="#E0E0E0"/>
    <path d="M306.207 279.515H298.547V279.72H306.207V279.515Z" fill="#E0E0E0"/>
    <path d="M293.248 279.614H262.093V279.819H293.248V279.614Z" fill="#E0E0E0"/>
    <path d="M223.582 277.665H171.005V277.87H223.582V277.665Z" fill="#E0E0E0"/>
    <path d="M140.76 281.218H124.075V281.423H140.76V281.218Z" fill="#E0E0E0"/>
    <path d="M85.1601 277.764H62.186V277.969H85.1601V277.764Z" fill="#E0E0E0"/>
    <path d="M110.64 277.764H89.1677V277.969H110.64V277.764Z" fill="#E0E0E0"/>
    <path d="M69.0665 274.186H47.1394V274.391H69.0665V274.186Z" fill="#E0E0E0"/>
    <path d="M171.115 231.517H31.7038C30.6116 231.515 29.5649 231.022 28.7933 230.145C28.0217 229.269 27.5884 228.081 27.5884 226.843V4.63362C27.5979 3.40237 28.0354 2.2251 28.806 1.35752C29.5765 0.489934 30.6179 0.00210919 31.7038 0H171.115C172.208 0 173.257 0.492496 174.03 1.36915C174.803 2.24579 175.237 3.43478 175.237 4.67455V226.843C175.237 228.082 174.803 229.271 174.03 230.148C173.257 231.025 172.208 231.517 171.115 231.517ZM31.7038 0.163733C30.6595 0.165901 29.6587 0.63779 28.9209 1.47582C28.1832 2.31385 27.7689 3.44955 27.7689 4.63362V226.843C27.7689 228.027 28.1832 229.162 28.9209 230C29.6587 230.839 30.6595 231.31 31.7038 231.313H171.115C172.16 231.31 173.161 230.839 173.9 230.001C174.639 229.163 175.055 228.028 175.057 226.843V4.63362C175.055 3.4488 174.639 2.31312 173.9 1.47532C173.161 0.637524 172.16 0.165897 171.115 0.163733H31.7038Z" fill="#E0E0E0"/>
    <path d="M327.29 231.517H187.872C186.779 231.515 185.732 231.022 184.959 230.146C184.186 229.27 183.751 228.082 183.749 226.843V4.63362C183.761 3.40163 184.2 2.22436 184.972 1.35701C185.743 0.489648 186.785 0.00208618 187.872 0H327.29C328.375 0.00426072 329.414 0.493038 330.183 1.36039C330.952 2.22775 331.389 3.40379 331.398 4.63362V226.843C331.398 228.08 330.966 229.266 330.196 230.142C329.426 231.019 328.381 231.513 327.29 231.517ZM187.872 0.163733C186.827 0.165897 185.825 0.637524 185.087 1.47532C184.348 2.31312 183.932 3.4488 183.93 4.63362V226.843C183.932 228.028 184.348 229.163 185.087 230.001C185.825 230.839 186.827 231.31 187.872 231.313H327.29C328.335 231.31 329.337 230.839 330.076 230.001C330.814 229.163 331.23 228.028 331.232 226.843V4.63362C331.23 3.4488 330.814 2.31312 330.076 1.47532C329.337 0.637524 328.335 0.165897 327.29 0.163733H187.872Z" fill="#E0E0E0"/>
    <path d="M128.755 187.973C129.152 187.973 129.549 187.973 129.953 188.014C132.469 188.215 134.914 189.045 137.114 190.444C139.313 191.844 141.213 193.777 142.676 196.106C144.139 198.436 145.129 201.103 145.576 203.918C146.022 206.732 145.914 209.624 145.26 212.385C143.394 220.632 142.494 229.12 142.581 237.633V262.422C142.581 263.29 142.277 264.123 141.735 264.737C141.193 265.352 140.459 265.697 139.693 265.697H70.3159V187.973H128.755Z" fill="#E6E6E6"/>
    <path d="M53.2267 207.35C53.2288 204.592 53.7502 201.867 54.7559 199.355C55.7617 196.844 57.2286 194.605 59.0587 192.788C60.8887 190.971 63.0398 189.618 65.368 188.82C67.6962 188.021 70.1479 187.795 72.5593 188.157C74.9707 188.519 77.2861 189.461 79.3508 190.919C81.4156 192.377 83.182 194.318 84.5321 196.612C85.8822 198.906 86.7848 201.501 87.1796 204.222C87.5743 206.944 87.4522 209.73 86.8213 212.393C84.9561 220.64 84.0555 229.128 84.1427 237.641V262.43C84.1427 263.298 83.8384 264.131 83.2968 264.745C82.7552 265.359 82.0207 265.704 81.2547 265.704H59.3637C58.5977 265.704 57.8631 265.359 57.3215 264.745C56.7799 264.131 56.4757 263.298 56.4757 262.43V236.184C56.5389 228.201 55.65 220.245 53.8331 212.532C53.4253 210.844 53.2213 209.101 53.2267 207.35Z" fill="#F0F0F0"/>
    <path d="M93.8678 265.68H181.612V218.501H93.8678V265.68Z" fill="#E6E6E6"/>
    <path d="M233.09 229.167L124.263 229.167V176.659C124.263 172.768 125.626 169.036 128.052 166.285C130.479 163.534 133.77 161.988 137.201 161.988H220.173C223.601 161.995 226.886 163.543 229.308 166.294C231.73 169.044 233.09 172.772 233.09 176.659V229.167Z" fill="#E0E0E0"/>
    <path d="M216.803 229.167L107.983 229.167V175.954C107.983 172.253 109.28 168.702 111.588 166.085C113.897 163.467 117.028 161.996 120.293 161.996H204.493C207.757 161.996 210.888 163.467 213.197 166.085C215.506 168.702 216.803 172.253 216.803 175.954V229.167Z" fill="#F0F0F0"/>
    <path d="M177.533 233.4H94.6689C93.6732 233.4 92.7183 232.951 92.0142 232.153C91.3101 231.355 90.9145 230.272 90.9145 229.143V218.443C90.9145 217.314 91.3101 216.231 92.0142 215.433C92.7183 214.635 93.6732 214.186 94.6689 214.186H177.533C177.83 214.186 178.114 214.32 178.324 214.558C178.534 214.796 178.652 215.118 178.652 215.455V232.131C178.652 232.468 178.534 232.79 178.324 233.028C178.114 233.266 177.83 233.4 177.533 233.4Z" fill="#E0E0E0"/>
    <path d="M239.228 187.973C239.625 187.973 240.029 187.973 240.433 188.014C242.949 188.215 245.394 189.045 247.594 190.444C249.794 191.844 251.693 193.777 253.156 196.106C254.619 198.436 255.609 201.103 256.056 203.918C256.503 206.732 256.395 209.624 255.74 212.385C253.869 220.631 252.966 229.12 253.054 237.633V262.422C253.054 263.29 252.75 264.123 252.208 264.737C251.666 265.352 250.932 265.697 250.166 265.697H180.796V187.973H239.228Z" fill="#E6E6E6"/>
    <path d="M163.7 207.351C163.726 202.338 165.463 197.532 168.547 193.94C171.631 190.349 175.822 188.252 180.24 188.089C184.658 187.926 188.961 189.709 192.244 193.066C195.528 196.422 197.537 201.09 197.85 206.09C197.97 208.211 197.785 210.34 197.302 212.393C195.436 220.64 194.536 229.128 194.623 237.641V262.43C194.623 263.299 194.319 264.131 193.777 264.746C193.236 265.36 192.501 265.705 191.735 265.705H169.837C169.071 265.705 168.336 265.36 167.795 264.746C167.253 264.131 166.949 263.299 166.949 262.43V236.184C167.013 228.2 166.122 220.244 164.299 212.533C163.894 210.844 163.692 209.101 163.7 207.351Z" fill="#F0F0F0"/>
    <path d="M71.5352 268.038H238.007C238.28 268.039 238.552 267.979 238.805 267.861C239.058 267.743 239.288 267.569 239.482 267.35C239.676 267.131 239.829 266.871 239.934 266.584C240.039 266.298 240.093 265.99 240.093 265.68H69.4558C69.4558 266.305 69.6749 266.905 70.0648 267.347C70.4548 267.789 70.9837 268.038 71.5352 268.038Z" fill="#E0E0E0"/>
    <path d="M297.89 264.69H312.864V175.939H297.89V264.69Z" fill="#E6E6E6"/>
    <path d="M244.722 268.03H309.991V264.698H244.722V268.03Z" fill="#E6E6E6"/>
    <path d="M297.889 175.938H241.848V264.689H297.889V175.938Z" fill="#F0F0F0"/>
    <path d="M295.768 178.861H243.972V235.332H295.768V178.861Z" fill="#E6E6E6"/>
    <path d="M295.768 237.731H243.972V258.083H295.768V237.731Z" fill="#E6E6E6"/>
    <path d="M254.896 178.861H243.972V235.332H254.896V178.861Z" fill="#E0E0E0"/>
    <path d="M254.896 237.731H243.972V258.083H254.896V237.731Z" fill="#E0E0E0"/>
    <path d="M123.714 134.449L253.559 134.449V27.6461L123.714 27.6461V134.449Z" fill="#E0E0E0"/>
    <path d="M114.415 134.449L251.183 134.449V27.6461L114.415 27.6461V134.449Z" fill="#F0F0F0"/>
    <path d="M248.289 131.157V30.937L117.325 30.937V131.157H248.289Z" fill="#FAFAFA"/>
    <path d="M188.483 81.8058C190.522 67.4226 181.891 53.8888 169.206 51.5773C156.521 49.2657 144.585 59.0518 142.547 73.435C140.508 87.8181 149.139 101.352 161.824 103.663C174.509 105.975 186.444 96.189 188.483 81.8058Z" fill="#E0E0E0"/>
    <path d="M127.223 108.063C129.339 105.034 133.584 102.701 136.725 102.849C137.188 102.83 137.65 102.915 138.084 103.101C138.518 103.286 138.915 103.568 139.252 103.929C144.984 100.163 151.583 97.8547 157.035 98.1085C159.807 98.2313 161.959 99.009 163.446 100.278C169.605 94.5964 177.453 90.5604 183.149 90.5604C186.384 90.5604 188.391 91.8703 189.106 94.0397C195.423 90.2248 201.914 87.8834 207.156 87.8834C215.502 87.8834 218.21 93.8351 214.795 102.202C216.166 103.782 222.737 105.984 222.477 108.62H126.862C126.978 108.415 127.072 108.227 127.223 108.063Z" fill="#F0F0F0"/>
    <path d="M160.14 69.6353C160.528 69.6174 160.914 69.7081 161.264 69.8994C161.614 70.0907 161.917 70.3768 162.147 70.7323C167.013 66.9091 172.5 64.5596 176.919 64.8216C178.807 64.8132 180.63 65.5977 182.038 67.0238C187.323 61.2931 193.922 57.1998 198.557 57.1998C201.2 57.1998 202.774 58.5261 203.243 60.7283C208.579 56.856 213.979 54.4737 218.253 54.4737C223.538 54.4737 225.878 58.1331 225.148 63.7491C227.697 62.1118 230.202 61.154 232.239 61.154C235.062 61.154 236.39 62.996 236.159 65.894C236.404 65.894 236.65 65.894 236.881 65.9349C241.213 66.4179 242.845 70.1592 240.773 74.4408H152.458C154.392 71.6001 157.721 69.4961 160.14 69.6353Z" fill="#F0F0F0"/>
    <path d="M88.7191 70.5894C90.6624 56.1893 81.9425 42.7293 69.2427 40.5258C56.5428 38.3223 44.6721 48.2096 42.7287 62.6097C40.7854 77.0099 49.5053 90.4698 62.2051 92.6733C74.905 94.8768 86.7757 84.9895 88.7191 70.5894Z" fill="#E0E0E0"/>
    <path d="M87.3567 70.7958C89.3953 56.4126 80.7648 42.8789 68.0798 40.5673C55.3949 38.2558 43.4591 48.0418 41.4205 62.425C39.3819 76.8082 48.0124 90.342 60.6974 92.6535C73.3823 94.965 85.3181 85.179 87.3567 70.7958Z" fill="#F0F0F0"/>
    <path d="M84.7272 66.5897C84.7345 72.048 83.0365 77.3329 79.9344 81.5068C76.8324 85.6807 72.5268 88.4739 67.7813 89.3909C63.0359 90.3079 58.1574 89.2894 54.0112 86.5161C49.865 83.7429 46.7191 79.3941 45.1315 74.2412C43.5439 69.0882 43.6172 63.4642 45.3385 58.3668C47.0598 53.2693 50.3178 49.0279 54.5345 46.3949C58.7512 43.7619 63.6542 42.9075 68.3736 43.9832C73.093 45.0589 77.3239 47.9952 80.3157 52.2713L80.3735 52.345C83.1997 56.4008 84.7339 61.4207 84.7272 66.5897Z" fill="#E0E0E0"/>
    <path d="M84.7263 66.5901C84.7204 71.2403 83.4752 75.78 81.1541 79.6137C78.833 83.4475 75.5442 86.3964 71.7191 88.0738C67.894 89.7511 63.7112 90.0786 59.7191 89.0132C55.727 87.9478 52.112 85.5394 49.3483 82.1037C46.0882 77.4143 44.5592 71.474 45.0831 65.5324C45.6071 59.5909 48.143 54.1114 52.1574 50.2468C56.1718 46.3821 61.3518 44.4337 66.6074 44.8113C71.8629 45.189 76.7845 47.8634 80.3365 52.2717L80.3943 52.3454C83.2127 56.4044 84.7392 61.424 84.7263 66.5901Z" fill="#FAFAFA"/>
    <path d="M64.8284 68.825C64.5567 68.8218 64.2912 68.7318 64.0626 68.5653C63.834 68.3987 63.6515 68.1624 63.536 67.8835L58.352 55.3416C58.2672 55.1464 58.2176 54.934 58.206 54.7168C58.1944 54.4996 58.2211 54.282 58.2846 54.0766C58.348 53.8713 58.447 53.6823 58.5756 53.5208C58.7042 53.3593 58.8599 53.2285 59.0336 53.136C59.2073 53.0435 59.3955 52.9912 59.5872 52.9821C59.779 52.9731 59.9704 53.0074 60.1503 53.0832C60.3301 53.159 60.4949 53.2747 60.6349 53.4235C60.7749 53.5723 60.8874 53.7512 60.9657 53.9499L65.5576 65.0837L72.1928 62.0383C72.548 61.8754 72.9457 61.8792 73.2984 62.0489C73.6511 62.2185 73.93 62.5401 74.0736 62.9429C74.2172 63.3456 74.2138 63.7966 74.0642 64.1965C73.9146 64.5965 73.631 64.9127 73.2758 65.0755L65.3699 68.7022C65.198 68.7822 65.0142 68.8239 64.8284 68.825Z" fill="#E0E0E0"/>
    <path d="M268.915 214.039C274.302 214.858 277.637 201.595 265.739 190.347C266.417 203.372 259.515 212.565 268.915 214.039Z" fill="#F0F0F0"/>
    <path d="M272.309 222.43C280.129 216.217 274.779 194.514 250.592 196.086C261.053 212.033 258.685 233.261 272.309 222.43Z" fill="#F0F0F0"/>
    <path d="M269.551 222.283C264.36 215.938 271.753 199.974 290.438 205.803C279.89 216.315 278.612 233.318 269.551 222.283Z" fill="#F0F0F0"/>
    <path d="M261.509 235.332H277.574L278.787 223.224H260.296L261.509 235.332Z" fill="#E0E0E0"/>
    <path d="M259.105 225.385H279.985V222.717H259.105V225.385Z" fill="#E0E0E0"/>
    <path d="M180.5 305C257.814 305 320.489 300.851 320.489 295.733C320.489 290.615 257.814 286.465 180.5 286.465C103.187 286.465 40.5115 290.615 40.5115 295.733C40.5115 300.851 103.187 305 180.5 305Z" fill="#F5F5F5"/>
    <path d="M269.314 272.496L264.389 274.76L268.631 287.771L273.557 285.508L269.314 272.496Z" fill="#E4897B"/>
    <path d="M291.332 289.438H286.14L284.23 275.169H289.422L291.332 289.438Z" fill="#E4897B"/>
    <path d="M285.801 288.726H291.642C291.743 288.724 291.84 288.765 291.918 288.842C291.995 288.918 292.046 289.025 292.063 289.143L292.821 294.628C292.837 294.765 292.828 294.905 292.794 295.037C292.76 295.169 292.703 295.292 292.626 295.395C292.548 295.498 292.453 295.581 292.346 295.636C292.24 295.692 292.124 295.719 292.008 295.717C289.973 295.676 288.987 295.537 286.422 295.537C284.843 295.537 280.078 295.733 277.899 295.733C275.72 295.733 275.561 293.171 276.465 292.942C280.512 291.902 283.602 290.486 284.946 289.102C285.187 288.865 285.489 288.732 285.801 288.726Z" fill="#263238"/>
    <path d="M268.52 286.532L274.037 284.624C274.134 284.586 274.238 284.591 274.332 284.637C274.426 284.684 274.502 284.77 274.547 284.878L276.616 289.79C276.665 289.914 276.691 290.05 276.691 290.188C276.691 290.325 276.665 290.461 276.616 290.585C276.566 290.71 276.494 290.82 276.405 290.907C276.316 290.995 276.211 291.058 276.099 291.092C274.099 291.738 272.747 292.148 270.244 293.015C268.507 293.613 266.748 294.587 265.031 295.234C263.852 295.684 261.066 295.701 259.625 295.701C257.494 295.701 257.018 293.032 257.928 292.909C260.239 292.598 260.556 292.745 261.831 291.984C263.915 290.897 265.804 289.347 267.396 287.416C267.7 287.011 268.088 286.706 268.52 286.532Z" fill="#263238"/>
    <path d="M260.818 89.8645C260.39 91.1498 259.983 92.2713 259.521 93.4502C259.059 94.6291 258.597 95.7588 258.108 96.8967C257.117 99.2053 256.019 101.446 254.818 103.61C253.566 105.914 252.115 108.057 250.488 110.004C249.564 111.114 248.531 112.089 247.412 112.91C246.009 113.946 244.403 114.533 242.751 114.613C242.289 114.627 241.827 114.589 241.372 114.498C240.973 114.421 240.58 114.314 240.193 114.179C239.535 113.941 238.894 113.642 238.276 113.286C237.216 112.655 236.195 111.936 235.221 111.133C233.433 109.657 231.728 108.044 230.118 106.303C226.991 102.943 224.073 99.3173 221.388 95.4559L224.063 92.2631C227.229 95.2267 230.476 98.1902 233.717 100.892C235.296 102.222 236.93 103.457 238.613 104.592C239.373 105.106 240.164 105.552 240.979 105.927C241.425 106.193 241.92 106.325 242.42 106.311C242.815 106.172 243.184 105.948 243.509 105.648C244.106 105.124 244.656 104.529 245.151 103.872C246.337 102.258 247.399 100.521 248.323 98.6814C249.316 96.7658 250.247 94.7437 251.129 92.6807C251.571 91.6491 251.998 90.6012 252.412 89.5534C252.826 88.5055 253.246 87.4003 253.598 86.4343L260.818 89.8645Z" fill="#E4897B"/>
    <path d="M224.802 94.236L224.064 89.3813L218.802 93.2127C218.802 93.2127 220.464 96.2745 222.216 96.3236L224.802 94.236Z" fill="#E4897B"/>
    <path d="M221.609 86.4592L217.499 89.7747L218.796 93.2131L224.057 89.3818L221.609 86.4592Z" fill="#E4897B"/>
    <path d="M263.231 83.5936C264.5 89.1932 257.59 100.442 257.59 100.442L248.516 94.3999C248.516 94.3999 250.205 89.7745 252.281 85.0672C255.625 77.4618 261.776 77.208 263.231 83.5936Z" fill="#407BFF"/>
    <path opacity="0.6" d="M263.231 83.5936C264.5 89.1932 257.59 100.442 257.59 100.442L248.516 94.3999C248.516 94.3999 250.205 89.7745 252.281 85.0672C255.625 77.4618 261.776 77.208 263.231 83.5936Z" fill="#FAFAFA"/>
    <path d="M252.137 96.7985L255.702 99.1726L256.323 86.1887C254.254 88.0798 252.785 93.7777 252.137 96.7985Z" fill="#407BFF"/>
    <path opacity="0.3" d="M252.137 96.7985L255.702 99.1726L256.323 86.1887C254.254 88.0798 252.785 93.7777 252.137 96.7985Z" fill="#FAFAFA"/>
    <path d="M270.05 273.604L265.109 275.868L267.298 282.596L272.238 280.332L270.05 273.604Z" fill="#CE6F64"/>
    <path d="M289.429 275.169H284.23L285.216 282.529H290.408L289.429 275.169Z" fill="#CE6F64"/>
    <path d="M286.373 79.0584C281.084 102.906 282.546 127.597 282.105 132.656H254.336C250.198 97.994 257.273 79.3777 257.273 79.3777C257.273 79.3777 259.48 78.6736 262.321 78.1251L263.114 77.9859C263.838 77.8631 264.583 77.7485 265.341 77.6667C269.273 77.3963 273.215 77.3963 277.147 77.6667C277.761 77.6667 278.381 77.7567 278.988 77.814L279.712 77.8959C283.291 78.3134 286.373 79.0584 286.373 79.0584Z" fill="#407BFF"/>
    <path opacity="0.6" d="M286.373 79.0584C281.084 102.906 282.546 127.597 282.105 132.656H254.336C250.198 97.994 257.273 79.3777 257.273 79.3777C257.273 79.3777 259.48 78.6736 262.321 78.1251L263.114 77.9859C263.838 77.8631 264.583 77.7485 265.341 77.6667C269.273 77.3963 273.215 77.3963 277.147 77.6667C277.761 77.6667 278.381 77.7567 278.988 77.814L279.712 77.8959C283.291 78.3134 286.373 79.0584 286.373 79.0584Z" fill="#FAFAFA"/>
    <path d="M253.454 123.274C253.55 124.753 253.672 126.27 253.819 127.826L274.507 119.868C277.731 118.727 280.533 116.316 282.45 113.033C282.526 110.847 282.63 108.546 282.788 106.148C282.857 104.977 282.947 103.782 283.037 102.57C283.126 101.358 283.25 100.024 283.374 98.7305L253.454 123.274Z" fill="#407BFF"/>
    <path opacity="0.3" d="M253.454 123.274C253.55 124.753 253.672 126.27 253.819 127.826L274.507 119.868C277.731 118.727 280.533 116.316 282.45 113.033C282.526 110.847 282.63 108.546 282.788 106.148C282.857 104.977 282.947 103.782 283.037 102.57C283.126 101.358 283.25 100.024 283.374 98.7305L253.454 123.274Z" fill="#FAFAFA"/>
    <path d="M278.989 77.8142L278.713 78.5183C278.623 78.7557 276.423 84.2898 268.335 84.2898C267.259 84.2898 263.983 84.2898 262.956 81.5719C262.759 80.9969 262.672 80.3777 262.699 79.758C262.726 79.1384 262.868 78.5335 263.115 77.9861L262.322 78.1253C262.108 78.7234 261.997 79.3666 261.997 80.0164C261.997 80.6662 262.108 81.3094 262.322 81.9075C263.528 85.1085 267.149 85.1085 268.328 85.1085C276.851 85.1085 279.237 79.1077 279.361 78.8539L279.726 77.8961L278.989 77.8142Z" fill="#FAFAFA"/>
    <path d="M276.754 61.8827C275.789 66.3935 274.637 74.6538 277.147 77.6665C277.147 77.6665 275.396 82.2428 268.334 82.2428C261.887 82.2428 265.341 77.6665 265.341 77.6665C269.638 76.463 269.713 72.7545 269.148 69.2343L276.754 61.8827Z" fill="#E4897B"/>
    <path d="M273.651 64.8791L269.148 69.2262C269.291 70.0345 269.372 70.8565 269.389 71.6822C270.706 73.2376 273.347 69.2999 273.623 67.286C273.754 66.4921 273.763 65.6769 273.651 64.8791Z" fill="#CE6F64"/>
    <path d="M261.032 59.6971C261.141 60.4281 261.377 61.1242 261.725 61.7414C262.073 62.3586 262.525 62.8834 263.052 63.2828C264.486 64.3635 265.81 62.9963 265.872 61.097C265.955 59.3942 265.307 56.7745 263.631 56.4634C263.266 56.3987 262.893 56.4391 262.544 56.5812C262.195 56.7233 261.88 56.9629 261.625 57.2799C261.37 57.5968 261.183 57.9819 261.08 58.4026C260.977 58.8232 260.96 59.2672 261.032 59.6971Z" fill="#CE6F64"/>
    <path d="M264.845 47.7938C262.19 48.9809 260.577 61.048 263.707 63.1028C266.838 65.1576 269.872 45.5507 264.845 47.7938Z" fill="#263238"/>
    <path d="M260.362 51.9769C262.32 54.4329 272.306 51.4857 272.685 47.2614C273.064 43.0371 256.659 47.3596 260.362 51.9769Z" fill="#263238"/>
    <path d="M276.61 54.5642C276.424 60.7123 276.575 64.3062 274.051 67.6627C273.277 68.7827 272.257 69.627 271.104 70.1023C269.95 70.5777 268.709 70.6656 267.517 70.3566C266.324 70.0475 265.226 69.3534 264.345 68.3507C263.464 67.3481 262.833 66.076 262.522 64.6746C261.308 59.2878 261.832 50.1434 266.783 47.2126C267.822 46.5354 268.995 46.2006 270.179 46.2429C271.364 46.2852 272.517 46.7031 273.52 47.4532C274.523 48.2033 275.338 49.2583 275.881 50.5087C276.425 51.7592 276.676 53.1594 276.61 54.5642Z" fill="#E4897B"/>
    <path d="M273.486 41.8012C277.148 40.7287 277.948 41.9567 278.113 44.9285C278.279 47.9002 281.616 47.0733 280.492 51.5596C279.968 53.6799 278.624 53.4998 279.444 55.9967C280.382 58.8702 274.817 62.3496 273.507 62.3414C271.349 62.3414 271.824 57.0037 273.583 52.149C274.9 48.5142 271.617 49.5211 267.852 50.8801C259.371 53.9337 253.751 45.1495 259.012 40.9416C261.798 38.7066 269.459 43.3403 273.486 41.8012Z" fill="#263238"/>
    <path d="M279.064 61.0807C278.406 62.4456 277.341 63.4679 276.078 63.946C274.417 64.5518 273.637 62.8163 274.141 60.9416C274.596 59.2469 276.016 56.8974 277.658 57.1184C279.299 57.3394 279.864 59.3861 279.064 61.0807Z" fill="#E4897B"/>
    <path d="M254.336 132.623C254.336 132.623 249.674 182.144 249.309 200.94C248.93 220.498 265.107 281.497 265.107 281.497L273.382 277.362C273.382 277.362 263.728 221.636 265.107 202.439C266.541 181.538 272.589 132.623 272.589 132.623H254.336Z" fill="#263238"/>
    <path d="M265.914 146.254C262.204 155.406 264.707 173.499 266.72 184.223C267.486 176.659 268.389 168.439 269.251 160.834C269.168 149.135 268.403 140.114 265.914 146.254Z" fill="#182137"/>
    <path d="M273.023 274.186C273.057 274.186 274.002 277.321 274.002 277.321L264.458 282.078L262.948 278.762L273.023 274.186Z" fill="#407BFF"/>
    <path opacity="0.6" d="M273.023 274.186C273.057 274.186 274.002 277.321 274.002 277.321L264.458 282.078L262.948 278.762L273.023 274.186Z" fill="#FAFAFA"/>
    <path d="M264.184 132.623C264.184 132.623 267.749 179.721 270.114 197.371C272.7 216.7 282.865 281.071 282.865 281.071H292.381C292.381 281.071 286.678 218.255 285.602 199.123C284.437 178.354 282.106 132.623 282.106 132.623H264.184Z" fill="#263238"/>
    <path d="M292.526 277.69C292.56 277.69 292.843 281.317 292.843 281.317H282.389L281.644 277.223L292.526 277.69Z" fill="#407BFF"/>
    <path opacity="0.6" d="M292.526 277.69C292.56 277.69 292.843 281.317 292.843 281.317H282.389L281.644 277.223L292.526 277.69Z" fill="#FAFAFA"/>
    <path d="M288.884 274.432C288.862 274.432 288.841 274.421 288.826 274.403C288.81 274.385 288.801 274.36 288.801 274.333C288.746 273.769 283.609 217.027 282.643 199.835C281.595 181.178 279.485 139.819 279.464 139.402C279.463 139.388 279.465 139.374 279.469 139.36C279.472 139.347 279.478 139.335 279.486 139.324C279.493 139.313 279.503 139.305 279.513 139.298C279.524 139.292 279.535 139.288 279.547 139.287C279.57 139.287 279.592 139.297 279.608 139.315C279.625 139.334 279.635 139.359 279.637 139.385C279.637 139.803 281.768 181.137 282.816 199.819C283.781 217.011 288.918 273.711 288.974 274.317C288.976 274.331 288.975 274.345 288.972 274.358C288.969 274.371 288.964 274.384 288.957 274.394C288.95 274.405 288.941 274.414 288.931 274.421C288.921 274.427 288.909 274.431 288.898 274.432H288.884Z" fill="#407BFF"/>
    <path opacity="0.5" d="M288.884 274.432C288.862 274.432 288.841 274.421 288.826 274.403C288.81 274.385 288.801 274.36 288.801 274.333C288.746 273.769 283.609 217.027 282.643 199.835C281.595 181.178 279.485 139.819 279.464 139.402C279.463 139.388 279.465 139.374 279.469 139.36C279.472 139.347 279.478 139.335 279.486 139.324C279.493 139.313 279.503 139.305 279.513 139.298C279.524 139.292 279.535 139.288 279.547 139.287C279.57 139.287 279.592 139.297 279.608 139.315C279.625 139.334 279.635 139.359 279.637 139.385C279.637 139.803 281.768 181.137 282.816 199.819C283.781 217.011 288.918 273.711 288.974 274.317C288.976 274.331 288.975 274.345 288.972 274.358C288.969 274.371 288.964 274.384 288.957 274.394C288.95 274.405 288.941 274.414 288.931 274.421C288.921 274.427 288.909 274.431 288.898 274.432H288.884Z" fill="black"/>
    <path d="M268.886 57.0445C268.886 57.5439 268.686 57.9696 268.41 57.9941C268.134 58.0187 267.906 57.6421 267.899 57.1755C267.893 56.7089 268.099 56.2504 268.375 56.2258C268.651 56.2013 268.886 56.5451 268.886 57.0445Z" fill="#263238"/>
    <path d="M264.155 57.511C264.155 58.0104 263.955 58.4361 263.679 58.4606C263.403 58.4852 263.176 58.1086 263.169 57.642C263.162 57.1753 263.369 56.7169 263.645 56.6923C263.921 56.6678 264.141 57.0116 264.155 57.511Z" fill="#263238"/>
    <path d="M265.659 57.6094C265.19 59.1885 264.551 60.6884 263.756 62.0711C264.507 62.8161 265.755 62.3167 265.755 62.3167L265.659 57.6094Z" fill="#DE5753"/>
    <path d="M266.252 64.3636C266.22 64.3637 266.189 64.3493 266.166 64.3234C266.143 64.2975 266.129 64.2621 266.127 64.2245C266.127 64.1846 266.14 64.1462 266.163 64.1173C266.186 64.0883 266.218 64.071 266.252 64.0689C266.781 64.0232 267.295 63.837 267.756 63.5238C268.217 63.2107 268.612 62.7786 268.913 62.2597C268.929 62.2271 268.955 62.2032 268.985 62.1932C269.015 62.1832 269.048 62.188 269.075 62.2065C269.103 62.2249 269.123 62.2555 269.131 62.2916C269.14 62.3277 269.136 62.3663 269.12 62.3988C268.8 62.9647 268.375 63.436 267.878 63.7766C267.381 64.1172 266.824 64.318 266.252 64.3636Z" fill="#263238"/>
    <path d="M270.362 53.8681C270.324 53.8697 270.286 53.861 270.251 53.8425C270.217 53.8241 270.186 53.7964 270.162 53.7617C269.973 53.474 269.73 53.2432 269.452 53.0881C269.174 52.9331 268.869 52.8581 268.562 52.8693C268.531 52.8739 268.499 52.8708 268.468 52.8604C268.438 52.85 268.41 52.8324 268.385 52.8087C268.361 52.785 268.341 52.7557 268.326 52.7225C268.311 52.6893 268.302 52.6529 268.3 52.6155C268.298 52.537 268.321 52.4605 268.364 52.4012C268.408 52.342 268.468 52.3045 268.534 52.2963C268.922 52.2753 269.308 52.3647 269.661 52.5569C270.014 52.7492 270.322 53.0387 270.562 53.4015C270.582 53.4311 270.596 53.4653 270.605 53.5019C270.613 53.5386 270.615 53.5768 270.61 53.6144C270.606 53.652 270.595 53.6881 270.578 53.7204C270.562 53.7528 270.539 53.7808 270.513 53.8026C270.47 53.8434 270.417 53.8663 270.362 53.8681Z" fill="#263238"/>
    <path d="M262.107 54.7113C262.072 54.7006 262.039 54.6811 262.01 54.654C261.987 54.6273 261.969 54.5955 261.957 54.5603C261.944 54.5252 261.938 54.4875 261.938 54.4493C261.938 54.4112 261.944 54.3735 261.957 54.3383C261.969 54.3032 261.987 54.2713 262.01 54.2447C262.249 53.8615 262.561 53.5512 262.921 53.3391C263.281 53.1271 263.678 53.0194 264.079 53.0249C264.111 53.0267 264.142 53.0365 264.171 53.0536C264.199 53.0706 264.224 53.0946 264.244 53.1239C264.265 53.1533 264.279 53.1873 264.288 53.2238C264.296 53.2603 264.298 53.2985 264.293 53.336C264.283 53.4133 264.249 53.4835 264.198 53.5333C264.147 53.5831 264.083 53.609 264.017 53.6061C263.702 53.6146 263.393 53.7082 263.114 53.8799C262.834 54.0515 262.591 54.2967 262.403 54.5967C262.37 54.65 262.324 54.6897 262.271 54.7102C262.217 54.7308 262.16 54.7311 262.107 54.7113Z" fill="#263238"/>
    <path d="M289.043 87.1139L281.864 84.8462C281.864 84.8462 274.83 105.403 272.348 106.745C268.969 108.571 260.405 114.932 256.77 117.936C256.564 118.952 256.722 121.67 257.184 122.406C263.39 121.072 275.272 115.644 277.754 112.877C283.409 106.59 289.043 87.1139 289.043 87.1139Z" fill="#E4897B"/>
    <path d="M290.911 84.7644C292.808 92.0178 285.395 101.956 285.395 101.956L275.155 96.9952C276.363 92.7942 277.76 88.6732 279.34 84.6498C282.492 76.6024 288.994 77.4374 290.911 84.7644Z" fill="#407BFF"/>
    <path opacity="0.6" d="M290.911 84.7644C292.808 92.0178 285.395 101.956 285.395 101.956L275.155 96.9952C276.363 92.7942 277.76 88.6732 279.34 84.6498C282.492 76.6024 288.994 77.4374 290.911 84.7644Z" fill="#FAFAFA"/>
    <path d="M284.057 289.806C283.708 289.844 283.359 289.734 283.071 289.495C282.983 289.4 282.916 289.279 282.879 289.144C282.841 289.009 282.834 288.865 282.858 288.725C282.862 288.638 282.885 288.554 282.925 288.481C282.964 288.407 283.02 288.348 283.085 288.308C283.671 287.964 285.292 289.184 285.471 289.323C285.491 289.339 285.507 289.361 285.517 289.387C285.527 289.413 285.53 289.442 285.526 289.47C285.52 289.499 285.507 289.525 285.489 289.546C285.47 289.566 285.448 289.58 285.423 289.585C284.976 289.72 284.518 289.794 284.057 289.806ZM283.368 288.537C283.316 288.523 283.262 288.523 283.209 288.537C283.183 288.554 283.161 288.579 283.145 288.609C283.13 288.639 283.121 288.674 283.12 288.709C283.103 288.804 283.107 288.903 283.131 288.996C283.156 289.089 283.199 289.173 283.258 289.241C283.838 289.553 284.496 289.591 285.099 289.348C284.562 288.933 283.958 288.654 283.327 288.529L283.368 288.537Z" fill="#407BFF"/>
    <path d="M285.374 289.585H285.319C284.795 289.233 283.823 287.882 283.94 287.195C283.965 287.087 284.019 286.992 284.094 286.925C284.168 286.857 284.26 286.819 284.354 286.818C284.445 286.801 284.539 286.809 284.627 286.842C284.716 286.875 284.797 286.931 284.864 287.006C285.443 287.588 285.478 289.364 285.478 289.462C285.478 289.504 285.464 289.543 285.439 289.572C285.415 289.602 285.381 289.618 285.347 289.618L285.374 289.585ZM284.45 287.088H284.395C284.236 287.088 284.216 287.203 284.209 287.236C284.119 287.645 284.733 288.66 285.243 289.143C285.242 288.451 285.061 287.777 284.726 287.211C284.65 287.131 284.552 287.088 284.45 287.088Z" fill="#407BFF"/>
    <path d="M265.721 288.783C265.301 288.958 264.844 288.958 264.425 288.783C264.324 288.727 264.238 288.641 264.174 288.533C264.11 288.426 264.07 288.3 264.059 288.169C264.051 288.089 264.06 288.008 264.084 287.932C264.108 287.857 264.147 287.789 264.197 287.735C264.756 287.154 267.004 287.784 267.259 287.858C267.282 287.866 267.303 287.882 267.319 287.903C267.335 287.925 267.345 287.952 267.348 287.981C267.349 288.011 267.343 288.042 267.329 288.068C267.316 288.094 267.296 288.115 267.273 288.128C266.773 288.401 266.254 288.62 265.721 288.783ZM264.604 287.809C264.524 287.825 264.448 287.865 264.383 287.923C264.363 287.946 264.348 287.975 264.34 288.006C264.331 288.038 264.33 288.071 264.335 288.104C264.337 288.188 264.357 288.271 264.395 288.343C264.433 288.415 264.486 288.473 264.549 288.513C264.914 288.75 265.769 288.562 266.859 288.022C266.123 287.796 265.36 287.724 264.604 287.809Z" fill="#407BFF"/>
    <path d="M267.272 288.111H267.224C266.534 287.964 265.155 287.023 265.114 286.319C265.114 286.155 265.176 285.926 265.5 285.786C265.726 285.695 265.974 285.712 266.19 285.836C266.941 286.278 267.334 287.849 267.348 287.915C267.358 287.938 267.363 287.963 267.363 287.989C267.363 288.014 267.358 288.039 267.348 288.062C267.339 288.077 267.328 288.089 267.315 288.098C267.302 288.106 267.287 288.111 267.272 288.111ZM265.645 286.048H265.569C265.355 286.138 265.362 286.245 265.362 286.278C265.362 286.695 266.362 287.473 267.058 287.735C266.895 287.079 266.556 286.505 266.093 286.098C265.954 286.014 265.794 285.996 265.645 286.048Z" fill="#407BFF"/>
    <path d="M201.998 128.072C202.589 126.072 203.679 124.333 205.122 123.085C206.566 121.838 208.295 121.142 210.08 121.089H279.92C280.883 121.062 281.84 121.285 282.723 121.743C283.606 122.202 284.393 122.884 285.031 123.742C285.668 124.6 286.14 125.613 286.412 126.71C286.685 127.808 286.752 128.963 286.609 130.094L271.086 286.728C270.805 289.18 269.798 291.432 268.245 293.083C266.692 294.733 264.695 295.672 262.612 295.733H87.4591C86.4954 295.762 85.5381 295.539 84.6547 295.081C83.7712 294.624 82.983 293.941 82.3454 293.083C81.7078 292.225 81.2364 291.211 80.9642 290.113C80.6921 289.015 80.6259 287.86 80.7702 286.728L93.9963 153.393C94.2775 150.941 95.2847 148.689 96.8377 147.039C98.3906 145.388 100.388 144.449 102.471 144.388H183.152C191.371 144.388 199.198 137.625 201.998 128.072Z" fill="#407BFF"/>
    <path opacity="0.1" d="M201.998 128.072C202.589 126.072 203.679 124.333 205.122 123.085C206.566 121.838 208.295 121.142 210.08 121.089H279.92C280.883 121.062 281.84 121.285 282.723 121.743C283.606 122.202 284.393 122.884 285.031 123.742C285.668 124.6 286.14 125.613 286.412 126.71C286.685 127.808 286.752 128.963 286.609 130.094L271.086 286.728C270.805 289.18 269.798 291.432 268.245 293.083C266.692 294.733 264.695 295.672 262.612 295.733H87.4591C86.4954 295.762 85.5381 295.539 84.6547 295.081C83.7712 294.624 82.983 293.941 82.3454 293.083C81.7078 292.225 81.2364 291.211 80.9642 290.113C80.6921 289.015 80.6259 287.86 80.7702 286.728L93.9963 153.393C94.2775 150.941 95.2847 148.689 96.8377 147.039C98.3906 145.388 100.388 144.449 102.471 144.388H183.152C191.371 144.388 199.198 137.625 201.998 128.072Z" fill="#FAFAFA"/>
    <path d="M139.563 58.725L45.2395 136.815L107.498 242.806L201.822 164.716L139.563 58.725Z" fill="#407BFF"/>
    <path opacity="0.8" d="M139.563 58.725L45.2395 136.815L107.498 242.806L201.822 164.716L139.563 58.725Z" fill="#FAFAFA"/>
    <path d="M139.316 60.3728L44.9917 138.463L107.25 244.453L201.574 166.364L139.316 60.3728Z" fill="#FAFAFA"/>
    <path d="M137.394 74.3326L56.6787 141.156L99.5622 214.162L180.277 147.339L137.394 74.3326Z" fill="#407BFF"/>
    <path opacity="0.8" d="M137.394 74.3326L56.6787 141.156L99.5622 214.162L180.277 147.339L137.394 74.3326Z" fill="#FAFAFA"/>
    <path d="M106.491 137.175C108.052 139.833 108.913 142.981 108.966 146.221C109.019 149.46 108.261 152.646 106.788 155.374C105.316 158.101 103.194 160.249 100.693 161.545C98.191 162.841 95.4219 163.227 92.7357 162.653C90.0495 162.079 87.5671 160.573 85.6026 158.323C83.6382 156.074 82.2801 153.183 81.7003 150.017C81.1205 146.85 81.345 143.551 82.3455 140.536C83.346 137.522 85.0774 134.927 87.3205 133.082C90.3214 130.612 94.0247 129.656 97.6183 130.424C101.212 131.191 104.403 133.619 106.491 137.175Z" fill="#407BFF"/>
    <path opacity="0.1" d="M106.491 137.175C108.052 139.833 108.913 142.981 108.966 146.221C109.019 149.46 108.261 152.646 106.788 155.374C105.316 158.101 103.194 160.249 100.693 161.545C98.191 162.841 95.4219 163.227 92.7357 162.653C90.0495 162.079 87.5671 160.573 85.6026 158.323C83.6382 156.074 82.2801 153.183 81.7003 150.017C81.1205 146.85 81.345 143.551 82.3455 140.536C83.346 137.522 85.0774 134.927 87.3205 133.082C90.3214 130.612 94.0247 129.656 97.6183 130.424C101.212 131.191 104.403 133.619 106.491 137.175Z" fill="#FAFAFA"/>
    <path d="M157.975 129.963C155.898 127.505 153.39 125.62 150.63 124.442C147.87 123.263 144.925 122.82 142.005 123.143C141.915 122.996 141.846 122.832 141.757 122.677C139.085 118.073 135.132 114.736 130.591 113.253C126.051 111.771 121.216 112.238 116.937 114.572C112.659 116.906 109.211 120.958 107.202 126.014C105.193 131.07 104.751 136.805 105.954 142.21C105.351 142.547 104.772 142.941 104.223 143.389C102.257 145.012 100.746 147.298 99.8852 149.951C99.0247 152.604 98.8543 155.503 99.3959 158.272C96.7639 159.497 94.5212 161.67 92.9829 164.486C91.4022 167.285 90.545 170.572 90.5168 173.942C90.4887 177.312 91.2907 180.618 92.8243 183.454C93.8807 185.338 95.2434 186.952 96.8324 188.202C98.4214 189.452 100.205 190.313 102.078 190.734C103.951 191.155 105.876 191.128 107.74 190.654C109.604 190.179 111.369 189.268 112.932 187.973L136.137 168.759L157.396 151.158C159.76 149.241 161.393 146.296 161.941 142.961C162.49 139.625 161.91 136.167 160.327 133.336L160.265 133.221C159.586 132.055 158.82 130.964 157.975 129.963Z" fill="#407BFF"/>
    <path opacity="0.3" d="M157.975 129.963C155.898 127.505 153.39 125.62 150.63 124.442C147.87 123.263 144.925 122.82 142.005 123.143C141.915 122.996 141.846 122.832 141.757 122.677C139.085 118.073 135.132 114.736 130.591 113.253C126.051 111.771 121.216 112.238 116.937 114.572C112.659 116.906 109.211 120.958 107.202 126.014C105.193 131.07 104.751 136.805 105.954 142.21C105.351 142.547 104.772 142.941 104.223 143.389C102.257 145.012 100.746 147.298 99.8852 149.951C99.0247 152.604 98.8543 155.503 99.3959 158.272C96.7639 159.497 94.5212 161.67 92.9829 164.486C91.4022 167.285 90.545 170.572 90.5168 173.942C90.4887 177.312 91.2907 180.618 92.8243 183.454C93.8807 185.338 95.2434 186.952 96.8324 188.202C98.4214 189.452 100.205 190.313 102.078 190.734C103.951 191.155 105.876 191.128 107.74 190.654C109.604 190.179 111.369 189.268 112.932 187.973L136.137 168.759L157.396 151.158C159.76 149.241 161.393 146.296 161.941 142.961C162.49 139.625 161.91 136.167 160.327 133.336L160.265 133.221C159.586 132.055 158.82 130.964 157.975 129.963Z" fill="black"/>
    <g style="mix-blend-mode:multiply">
        <path d="M142.545 77.4003L45.8955 151.374L104.872 259.978L201.522 186.004L142.545 77.4003Z" fill="#407BFF"/>
    </g>
    <path opacity="0.8" d="M142.545 77.4003L45.8955 151.374L104.872 259.978L201.522 186.004L142.545 77.4003Z" fill="#FAFAFA"/>
    <path d="M142.252 79.048L45.6028 153.022L104.58 261.626L201.229 187.652L142.252 79.048Z" fill="#FAFAFA"/>
    <path d="M139.908 92.9175L57.2036 156.219L97.8269 231.025L180.532 167.724L139.908 92.9175Z" fill="#407BFF"/>
    <path opacity="0.8" d="M139.908 92.9175L57.2036 156.219L97.8269 231.025L180.532 167.724L139.908 92.9175Z" fill="#FAFAFA"/>
    <path d="M108.975 166.663C110.564 157.838 105.825 149.155 98.3909 147.27C90.9571 145.384 83.6432 151.01 82.055 159.835C80.4667 168.661 85.2055 177.344 92.6394 179.229C100.073 181.115 107.387 175.489 108.975 166.663Z" fill="#407BFF"/>
    <path opacity="0.1" d="M108.975 166.663C110.564 157.838 105.825 149.155 98.3909 147.27C90.9571 145.384 83.6432 151.01 82.055 159.835C80.4667 168.661 85.2055 177.344 92.6394 179.229C100.073 181.115 107.387 175.489 108.975 166.663Z" fill="#FAFAFA"/>
    <path d="M158.762 149.422C156.759 146.874 154.309 144.88 151.584 143.583C148.86 142.286 145.929 141.716 142.998 141.915C142.915 141.751 142.853 141.588 142.763 141.432C140.233 136.715 136.381 133.211 131.887 131.536C127.393 129.86 122.545 130.122 118.198 132.275C113.85 134.428 110.283 138.334 108.124 143.304C105.964 148.274 105.352 153.989 106.395 159.443C105.779 159.748 105.186 160.115 104.623 160.54C102.613 162.078 101.037 164.297 100.098 166.908C99.1587 169.52 98.8999 172.406 99.3546 175.194C96.6852 176.298 94.3763 178.371 92.7554 181.121C91.0895 183.849 90.132 187.096 90.0009 190.462C89.8698 193.828 90.5708 197.166 92.0175 200.065C93.0131 201.996 94.3237 203.671 95.8722 204.992C97.4208 206.314 99.1761 207.254 101.035 207.759C102.894 208.264 104.819 208.323 106.698 207.932C108.576 207.542 110.37 206.709 111.974 205.484L135.799 187.244L157.589 170.568C160.004 168.748 161.719 165.874 162.364 162.565C163.01 159.257 162.533 155.78 161.037 152.885L160.968 152.771C160.322 151.576 159.583 150.455 158.762 149.422Z" fill="#407BFF"/>
    <path opacity="0.3" d="M158.762 149.422C156.759 146.874 154.309 144.88 151.584 143.583C148.86 142.286 145.929 141.716 142.998 141.915C142.915 141.751 142.853 141.588 142.763 141.432C140.233 136.715 136.381 133.211 131.887 131.536C127.393 129.86 122.545 130.122 118.198 132.275C113.85 134.428 110.283 138.334 108.124 143.304C105.964 148.274 105.352 153.989 106.395 159.443C105.779 159.748 105.186 160.115 104.623 160.54C102.613 162.078 101.037 164.297 100.098 166.908C99.1587 169.52 98.8999 172.406 99.3546 175.194C96.6852 176.298 94.3763 178.371 92.7554 181.121C91.0895 183.849 90.132 187.096 90.0009 190.462C89.8698 193.828 90.5708 197.166 92.0175 200.065C93.0131 201.996 94.3237 203.671 95.8722 204.992C97.4208 206.314 99.1761 207.254 101.035 207.759C102.894 208.264 104.819 208.323 106.698 207.932C108.576 207.542 110.37 206.709 111.974 205.484L135.799 187.244L157.589 170.568C160.004 168.748 161.719 165.874 162.364 162.565C163.01 159.257 162.533 155.78 161.037 152.885L160.968 152.771C160.322 151.576 159.583 150.455 158.762 149.422Z" fill="black"/>
    <g style="mix-blend-mode:multiply">
        <path d="M228.961 90.9452L114.653 105.831L126.521 234.278L240.829 219.392L228.961 90.9452Z" fill="#407BFF"/>
    </g>
    <path opacity="0.8" d="M228.961 90.9452L114.653 105.831L126.521 234.278L240.829 219.392L228.961 90.9452Z" fill="#FAFAFA"/>
    <path d="M228.074 92.2551L113.766 107.141L125.634 235.588L239.942 220.702L228.074 92.2551Z" fill="#FAFAFA"/>
    <path d="M220.756 103.415L122.94 116.154L131.115 204.628L228.931 191.889L220.756 103.415Z" fill="#407BFF"/>
    <path opacity="0.8" d="M220.756 103.415L122.94 116.154L131.115 204.628L228.931 191.889L220.756 103.415Z" fill="#FAFAFA"/>
    <path d="M228.642 188.652L228.939 191.886L178.131 198.509L190.261 181.432L202.68 163.929L228.642 188.652Z" fill="#407BFF"/>
    <path opacity="0.3" d="M228.642 188.652L228.939 191.886L178.131 198.509L190.261 181.432L202.68 163.929L228.642 188.652Z" fill="black"/>
    <path d="M206.941 194.752L131.129 204.625L130.467 197.511L160.223 157.454L190.261 181.432L206.941 194.752Z" fill="#407BFF"/>
    <path opacity="0.3" d="M206.941 194.752L131.129 204.625L130.467 197.511L160.223 157.454L190.261 181.432L206.941 194.752Z" fill="black"/>
    <path d="M197.624 136.284C197.892 128.654 192.899 122.211 186.473 121.892C180.046 121.574 174.618 127.501 174.35 135.131C174.082 142.761 179.074 149.204 185.501 149.523C191.928 149.841 197.355 143.914 197.624 136.284Z" fill="#407BFF"/>
    <path opacity="0.1" d="M197.624 136.284C197.892 128.654 192.899 122.211 186.473 121.892C180.046 121.574 174.618 127.501 174.35 135.131C174.082 142.761 179.074 149.204 185.501 149.523C191.928 149.841 197.355 143.914 197.624 136.284Z" fill="#FAFAFA"/>
    <g style="mix-blend-mode:multiply" opacity="0.7">
        <path d="M172.241 160.769C172.71 157.249 175.544 154.744 179.082 154.744H248.943C253.129 154.744 256.839 158.223 257.218 162.513L266.582 287.964C266.975 292.254 263.893 295.733 259.687 295.733H84.5342C80.3416 295.733 76.6316 292.254 76.2593 287.964L68.736 182.611C68.3429 178.321 71.4184 174.85 75.6318 174.85H156.312C164.518 174.85 171.145 169.013 172.241 160.769Z" fill="#407BFF"/>
    </g>
    <path d="M257.35 117.453L251.833 119.697L248.33 122.627L254.619 125.525C254.619 125.525 260.494 124.789 261.908 121.006L257.35 117.453Z" fill="#E4897B"/>
</svg>
