<svg width="320" height="239" viewBox="0 0 320 239" fill="none" xmlns="http://www.w3.org/2000/svg">
    <path d="M299.99 150.084L293.597 150.25L290.361 150.315C289.283 150.344 288.195 150.315 287.111 150.35H286.897V150.084L286.883 143.442V143.146H287.126L293.558 143.181C295.7 143.181 297.847 143.247 299.99 143.276H300.121V143.442C300.121 144.567 300.082 145.685 300.058 146.792L299.99 150.084ZM299.99 150.084L299.922 146.739C299.922 145.638 299.868 144.549 299.859 143.46L299.99 143.625C297.847 143.655 295.7 143.72 293.558 143.72L287.126 143.756L287.369 143.46L287.339 150.084L287.126 149.823C288.185 149.823 289.244 149.823 290.303 149.853L293.499 149.924L299.99 150.084Z" fill="#EBEBEB"/>
    <path d="M292.814 158.437L286.435 158.603L283.2 158.668C282.121 158.668 281.033 158.668 279.95 158.703H279.731V158.437L279.707 151.813V151.517H279.95L286.382 151.558C288.524 151.558 290.667 151.623 292.814 151.653H292.945V151.813C292.945 152.937 292.902 154.056 292.882 155.163L292.814 158.437ZM292.814 158.437L292.746 155.092C292.746 153.991 292.688 152.902 292.678 151.813L292.814 151.978C290.667 152.008 288.524 152.073 286.382 152.073L279.95 152.109L280.193 151.813L280.164 158.437L279.95 158.176C281.009 158.176 282.063 158.176 283.127 158.206L286.324 158.277L292.814 158.437Z" fill="#EBEBEB"/>
    <path d="M32.8744 150.084L26.5006 150.25L23.2651 150.315C22.1818 150.344 21.0936 150.315 20.0102 150.35H19.7965V150.084L19.7673 143.442V143.146H20.0102L26.4423 143.181C28.5847 143.181 30.732 143.247 32.8744 143.276H33.0104V143.442C33.0104 144.567 32.9715 145.685 32.9472 146.792L32.8744 150.084ZM32.8744 150.084L32.8064 146.739C32.7821 145.638 32.7529 144.549 32.7432 143.46L32.8744 143.625C30.732 143.655 28.5847 143.72 26.4423 143.72L20.0102 143.756L20.2531 143.46V150.084L20.0345 149.823C21.0936 149.823 22.1526 149.823 23.2166 149.853L26.4034 149.954L32.8744 150.084Z" fill="#EBEBEB"/>
    <path d="M25.6989 158.437L19.3202 158.603L16.0848 158.668C15.0063 158.668 13.9181 158.668 12.8347 158.703H12.621V158.437L12.5967 151.813V151.517H12.8396L19.2716 151.558C21.414 151.558 23.5613 151.623 25.7037 151.653H25.8397V151.813C25.8397 152.937 25.8009 154.056 25.7766 155.163L25.6989 158.437ZM25.6989 158.437L25.6308 155.092C25.6308 153.991 25.5774 152.902 25.5677 151.813L25.6989 151.978C23.5564 152.008 21.4092 152.073 19.2668 152.073L12.8347 152.109L13.0776 151.813L13.0485 158.437L12.8347 158.176C13.8938 158.176 14.9528 158.176 16.0119 158.206L19.2085 158.277L25.6989 158.437Z" fill="#EBEBEB"/>
    <path d="M307.165 158.437L300.791 158.603L297.556 158.668C296.472 158.668 295.384 158.668 294.301 158.703H294.082V158.437V151.813V151.517H294.325L300.757 151.558C302.899 151.558 305.047 151.623 307.189 151.653H307.325V151.813C307.325 152.937 307.286 154.056 307.262 155.163L307.165 158.437ZM307.165 158.437L307.097 155.092C307.097 153.991 307.043 152.902 307.034 151.813L307.165 151.978C305.022 152.008 302.875 152.073 300.733 152.073L294.301 152.109L294.544 151.813L294.519 158.437L294.301 158.176C295.36 158.176 296.419 158.176 297.483 158.206L300.679 158.277L307.165 158.437Z" fill="#EBEBEB"/>
    <path d="M207.944 51.3124L201.565 51.4782L198.33 51.5433C197.251 51.5729 196.163 51.5433 195.08 51.5788H194.861V51.3124L194.837 44.6882V44.3922H195.08L201.512 44.4277C203.654 44.4277 205.802 44.4988 207.944 44.5284H208.095V44.6882C208.095 45.813 208.056 46.9318 208.031 48.0329L207.944 51.3124ZM207.944 51.3124L207.876 47.9678C207.852 46.8608 207.818 45.7715 207.813 44.6882L207.944 44.848C205.802 44.848 203.654 44.9428 201.512 44.9487L195.08 44.9842L195.323 44.6882L195.294 51.3124L195.08 51.046C196.139 51.046 197.198 51.046 198.257 51.0816L201.454 51.1467L207.944 51.3124Z" fill="#EBEBEB"/>
    <path d="M200.769 59.6656L194.39 59.8313L191.155 59.8964C190.076 59.8964 188.988 59.8964 187.905 59.932H187.691V59.6656L187.667 53.0413V52.7454H187.914L194.346 52.7809C196.489 52.7809 198.631 52.8519 200.778 52.8815H200.91V53.0413C200.91 54.1661 200.866 55.2849 200.846 56.386L200.769 59.6656ZM200.769 59.6656L200.701 56.3209C200.701 55.2139 200.642 54.1247 200.633 53.0413L200.769 53.2012C198.621 53.2308 196.479 53.2959 194.337 53.3018L187.905 53.3373L188.147 53.0413L188.118 59.6656L187.905 59.3992C188.964 59.3992 190.018 59.3992 191.082 59.4347L194.278 59.4998L200.769 59.6656Z" fill="#EBEBEB"/>
    <path d="M215.119 59.6656L208.746 59.8313L205.505 59.8964C204.427 59.8964 203.339 59.8964 202.255 59.932H202.042V59.6656V53.0413V52.7454H202.284L208.716 52.7809C210.859 52.7809 213.006 52.8519 215.149 52.8815H215.285V53.0413C215.285 54.1661 215.246 55.2849 215.221 56.386L215.119 59.6656ZM215.119 59.6656L215.051 56.3209C215.027 55.2139 214.998 54.1247 214.988 53.0413L215.119 53.2012C212.977 53.2308 210.83 53.2959 208.687 53.3018L202.255 53.3373L202.498 53.0413L202.474 59.6656L202.265 59.3814C203.324 59.3814 204.383 59.3814 205.447 59.4169L208.639 59.4821L215.119 59.6656Z" fill="#EBEBEB"/>
    <path d="M50.5334 115.092L44.1548 115.258L40.9193 115.323C39.8408 115.323 38.7526 115.323 37.6693 115.352H37.4507V115.086V108.462V108.166H37.6936L44.1256 108.201C46.2681 108.201 48.4105 108.267 50.5577 108.296H50.6889V108.456C50.6889 109.581 50.6452 110.694 50.6257 111.801L50.5334 115.092ZM50.5334 115.092L50.4654 111.741C50.4411 110.64 50.4071 109.551 50.3974 108.468L50.5334 108.628C48.3862 108.657 46.2438 108.722 44.1014 108.722L37.6693 108.764L37.9122 108.468L37.8831 115.092L37.6693 114.826C38.7284 114.826 39.7874 114.826 40.8465 114.861L44.0431 114.926L50.5334 115.092Z" fill="#EBEBEB"/>
    <path d="M109.641 175.563L103.262 175.729L100.027 175.794C98.9485 175.823 97.8603 175.794 96.777 175.829H96.5632V175.563V168.939V168.643H96.8061L103.238 168.684C105.381 168.684 107.528 168.749 109.67 168.779H109.801V168.939C109.801 170.063 109.763 171.182 109.738 172.289L109.641 175.563ZM109.641 175.563L109.573 172.218C109.549 171.117 109.515 170.022 109.51 168.939L109.641 169.104C107.499 169.104 105.351 169.193 103.209 169.199L96.777 169.235L97.0199 168.939L96.9907 175.563L96.777 175.302C97.836 175.302 98.8951 175.302 99.9542 175.332L103.16 175.409L109.641 175.563Z" fill="#EBEBEB"/>
    <path d="M299.246 6.92022L292.868 7.08597L289.632 7.15109C288.554 7.15109 287.465 7.15109 286.382 7.18661H286.163V6.92022L286.139 0.295989V0H286.382L292.814 0.0355194C294.957 0.0355194 297.099 0.106556 299.246 0.136154H299.377V0.295989C299.377 1.42075 299.334 2.53958 299.314 3.64066L299.246 6.92022ZM299.246 6.92022L299.178 3.57554C299.178 2.46855 299.12 1.37931 299.11 0.295989L299.246 0.455823C297.099 0.455823 294.957 0.55054 292.814 0.55646L286.382 0.591977L286.625 0.295989L286.596 6.92022L286.382 6.65383C287.441 6.65383 288.5 6.65383 289.559 6.68934L292.756 6.75446L299.246 6.92022Z" fill="#EBEBEB"/>
    <path d="M306.422 15.2729L300.043 15.4387L296.807 15.5038C295.729 15.5334 294.641 15.5038 293.557 15.5334H293.344V15.267L293.319 8.64279V8.3468H293.562L299.994 8.38232C302.137 8.38232 304.284 8.45336 306.426 8.48295H306.562V8.64279C306.562 9.76755 306.524 10.8864 306.499 11.9875L306.422 15.2729ZM306.422 15.2729L306.354 11.9283C306.354 10.8213 306.3 9.73203 306.29 8.64871L306.422 8.80854C304.279 8.83814 302.132 8.90326 299.989 8.90918L293.557 8.9447L293.8 8.64871L293.771 15.2729L293.557 15.0065C294.616 15.0065 295.676 15.0065 296.735 15.0421L299.931 15.1072L306.422 15.2729Z" fill="#EBEBEB"/>
    <path d="M25.6988 6.92632L19.3202 7.09207L16.0847 7.15719C15.0063 7.15719 13.918 7.15719 12.8347 7.19271H12.6209V6.92632L12.5918 0.302092V0.00610352H12.8347L19.2668 0.0475417C21.4092 0.0475417 23.5564 0.112659 25.6988 0.142258H25.8349V0.302092C25.8349 1.42685 25.796 2.54569 25.7717 3.65268L25.6988 6.92632ZM25.6988 6.92632L25.6308 3.58165C25.6308 2.47465 25.5774 1.38541 25.5677 0.302092L25.6988 0.461926C23.5564 0.497445 21.4092 0.556641 19.2668 0.562561L12.8347 0.598081L13.0776 0.302092L13.0485 6.92632L12.8347 6.69545C13.8938 6.69545 14.9528 6.69545 16.0119 6.69545L19.2085 6.76056L25.6988 6.92632Z" fill="#EBEBEB"/>
    <path d="M21.3412 196.235H68.8481L68.8481 88.5717H21.3412L21.3412 196.235Z" fill="#EBEBEB"/>
    <path d="M19.0434 88.5717L71.1509 88.5717V85.5999L19.0434 85.5999V88.5717Z" fill="#DBDBDB"/>
    <path d="M2.65236 88.5717H19.0386V85.5999H2.65236V88.5717Z" fill="#EBEBEB"/>
    <path d="M5.24657 196.235H21.3413L21.3413 88.5717H5.24657L5.24657 196.235Z" fill="#DBDBDB"/>
    <path d="M63.7329 157.904H26.4521V132.224H63.7329V157.904ZM26.5736 157.756H63.6114V132.372H26.5736V157.756Z" fill="#C7C7C7"/>
    <path d="M43.0421 144.815H50.3V139.73H43.0421V144.815Z" fill="#C7C7C7"/>
    <path d="M48.2109 144.508H40.8315V140.038H48.2109V144.508ZM40.9773 144.36H48.1138V140.186H40.9773V144.36Z" fill="#C7C7C7"/>
    <path d="M63.7329 190.155H26.4521V164.475H63.7329V190.155ZM26.5736 190.007H63.6114V164.623H26.5736V190.007Z" fill="#C7C7C7"/>
    <path d="M43.0421 177.066H50.3V171.981H43.0421V177.066Z" fill="#C7C7C7"/>
    <path d="M48.2109 176.758H40.8315V172.295H48.2109V176.758ZM40.9773 176.593H48.1138V172.449H40.9773V176.593Z" fill="#C7C7C7"/>
    <path d="M26.5151 125.576H63.6743V100.05H26.5151V125.576Z" fill="#A6A6A6"/>
    <path d="M58.4227 93.5148H30.1343V118.502H58.4227V93.5148Z" fill="#C7C7C7"/>
    <path d="M48.4248 90.9218H58.4227V93.5146H47.8516L48.4248 90.9218Z" fill="#C7C7C7"/>
    <path d="M30.207 118.496H58.4955L60.6767 95.5865H32.3883L30.207 118.496Z" fill="#A6A6A6"/>
    <path d="M50.9075 93.2128H60.9006L60.6771 95.5866H50.106L50.9075 93.2128Z" fill="#A6A6A6"/>
    <path d="M44.4123 125.576H81.5715V100.05H44.4123V125.576Z" fill="#EBEBEB"/>
    <path d="M81.6348 125.683H44.3784V99.9731H81.6591L81.6348 125.683ZM44.4756 125.535H81.5134V100.121H44.4756V125.535Z" fill="#C7C7C7"/>
    <path d="M60.9393 112.565H68.1973V107.479H60.9393V112.565Z" fill="#C7C7C7"/>
    <path d="M66.113 112.251H58.7336V107.787H66.113V112.251ZM58.8551 112.103H65.9916V107.959H58.8551V112.103Z" fill="#C7C7C7"/>
    <path d="M26.5153 125.576H44.325V103.874H26.5153L26.5153 125.576Z" fill="#DBDBDB"/>
    <path d="M294.635 166.405H262.174V196.235H294.635V166.405Z" fill="#EBEBEB"/>
    <path d="M311.401 166.405H294.641V196.235H311.401V166.405Z" fill="#DBDBDB"/>
    <path d="M310.245 194.352C309.008 192.225 307.779 190.096 306.558 187.965L302.919 181.548L299.329 175.107C298.141 172.952 296.962 170.793 295.792 168.631C297.036 170.75 298.267 172.877 299.485 175.012L303.118 181.429L306.713 187.84C307.905 190.003 309.082 192.174 310.245 194.352Z" fill="#EBEBEB"/>
    <path d="M310.245 168.613C309.079 170.779 307.9 172.938 306.709 175.089L303.118 181.53L299.485 187.947C298.267 190.086 297.036 192.215 295.792 194.334C296.965 192.168 298.144 189.997 299.329 187.822L302.919 181.382L306.558 174.965C307.772 172.849 309.002 170.732 310.245 168.613Z" fill="#EBEBEB"/>
    <path d="M285.353 171.123H271.463V175.012H285.353V171.123Z" fill="#C7C7C7"/>
    <path d="M286.785 180.997H270.025V187.189H286.785V180.997Z" fill="white"/>
    <path d="M312.961 162.06H260.601V166.363H312.961V162.06Z" fill="#C7C7C7"/>
    <path d="M301.68 132.23H269.219V162.06H301.68V132.23Z" fill="#EBEBEB"/>
    <path d="M318.44 132.23H301.68V162.06H318.44V132.23Z" fill="#DBDBDB"/>
    <path d="M317.289 160.159C316.045 158.032 314.814 155.903 313.597 153.772L309.958 147.361L306.368 140.914C305.179 138.767 304.002 136.609 302.836 134.438C304.076 136.557 305.305 138.684 306.523 140.82L310.162 147.237L313.752 153.683C314.944 155.834 316.123 157.993 317.289 160.159Z" fill="#EBEBEB"/>
    <path d="M317.289 134.438C316.116 136.605 314.937 138.763 313.752 140.914L310.162 147.361L306.523 153.772C305.309 155.911 304.08 158.04 302.836 160.159C304.002 157.993 305.179 155.834 306.368 153.683L309.958 147.237L313.597 140.82C314.818 138.688 316.048 136.561 317.289 134.438Z" fill="#EBEBEB"/>
    <path d="M292.391 136.948H278.502V140.837H292.391V136.948Z" fill="#C7C7C7"/>
    <path d="M293.83 146.822H277.069V153.014H293.83V146.822Z" fill="white"/>
    <path d="M320 127.891H267.64V132.194H320V127.891Z" fill="#C7C7C7"/>
    <path opacity="0.19" d="M185.592 29.6995C191.506 29.6995 196.299 23.858 196.299 16.6523C196.299 9.44652 191.506 3.6051 185.592 3.6051C179.679 3.6051 174.885 9.44652 174.885 16.6523C174.885 23.858 179.679 29.6995 185.592 29.6995Z" fill="#EBEBEB"/>
    <path opacity="0.19" d="M193.291 21.1913C194.373 16.0144 191.806 10.7487 187.558 9.43013C183.31 8.11151 178.988 11.2393 177.906 16.4162C176.824 21.5931 179.391 26.8587 183.639 28.1774C187.888 29.496 192.209 26.3682 193.291 21.1913Z" fill="#EBEBEB"/>
    <path d="M197.28 18.8011L189.886 34.157H181.302L173.903 18.8011H197.28Z" fill="#EBEBEB"/>
    <path d="M191.893 39.331H179.296L181.303 34.1571H189.887L191.893 39.331Z" fill="#EBEBEB"/>
    <path d="M191.222 31.3866L189.886 34.1571H181.297L180.287 32.0615L191.222 31.3866Z" fill="#C7C7C7"/>
    <path opacity="0.19" d="M231.413 29.6995C237.327 29.6995 242.12 23.858 242.12 16.6523C242.12 9.44652 237.327 3.6051 231.413 3.6051C225.5 3.6051 220.706 9.44652 220.706 16.6523C220.706 23.858 225.5 29.6995 231.413 29.6995Z" fill="#EBEBEB"/>
    <path opacity="0.19" d="M235.925 26.7398C239.529 23.6993 240.429 17.6737 237.934 13.2811C235.439 8.8885 230.494 7.79238 226.889 10.8328C223.284 13.8733 222.385 19.8989 224.88 24.2915C227.375 28.6841 232.32 29.7802 235.925 26.7398Z" fill="#EBEBEB"/>
    <path d="M243.102 18.8011L235.703 34.157H227.119L219.725 18.8011H243.102Z" fill="#EBEBEB"/>
    <path d="M237.714 39.331H225.112L227.119 34.1571H235.703L237.714 39.331Z" fill="#EBEBEB"/>
    <path d="M237.044 31.3866L235.708 34.1571H227.119L226.108 32.0615L237.044 31.3866Z" fill="#C7C7C7"/>
    <path opacity="0.19" d="M277.234 29.6995C283.147 29.6995 287.941 23.858 287.941 16.6523C287.941 9.44652 283.147 3.6051 277.234 3.6051C271.321 3.6051 266.527 9.44652 266.527 16.6523C266.527 23.858 271.321 29.6995 277.234 29.6995Z" fill="#EBEBEB"/>
    <path opacity="0.19" d="M281.598 26.8539C285.257 23.9124 286.267 17.9127 283.853 13.4533C281.439 8.99388 276.515 7.7634 272.856 10.705C269.196 13.6465 268.186 19.6462 270.6 24.1056C273.014 28.565 277.938 29.7955 281.598 26.8539Z" fill="#EBEBEB"/>
    <path d="M288.923 18.8011L281.524 34.157H272.94L265.541 18.8011H288.923Z" fill="#EBEBEB"/>
    <path d="M283.535 39.331H270.934L272.94 34.1571H281.524L283.535 39.331Z" fill="#EBEBEB"/>
    <path d="M282.865 31.3866L281.529 34.1571H272.94L271.924 32.0615L282.865 31.3866Z" fill="#C7C7C7"/>
    <path d="M0 196.235L39.9964 196.093L79.9976 196.039L160 195.939L240.002 196.039L279.999 196.093L320 196.235L279.999 196.383L240.002 196.43L160 196.531L79.9976 196.43L39.9964 196.377L0 196.235Z" fill="#263238"/>
    <path d="M160 238.437C242.924 238.437 310.148 232.534 310.148 225.253C310.148 217.972 242.924 212.07 160 212.07C77.0756 212.07 9.85205 217.972 9.85205 225.253C9.85205 232.534 77.0756 238.437 160 238.437Z" fill="#EBEBEB"/>
    <path d="M112.954 129.14C113.1 126.15 113.446 123.18 113.989 120.26C114.504 117.632 115.233 114.932 116.593 112.771C117.837 110.782 119.625 109.22 121.699 108.894C123.701 108.598 125.585 109.681 127.072 111.214C128.923 113.121 130.341 115.637 131.677 118.076C133.135 120.807 134.462 123.64 135.651 126.559C135.69 126.653 135.574 126.736 135.535 126.641C134.503 124.163 133.313 121.787 131.974 119.538C130.759 117.379 129.388 115.356 127.878 113.494C126.508 111.86 124.764 110.332 122.777 110.255C120.791 110.179 118.974 111.534 117.779 113.393C116.447 115.471 115.772 118.064 115.262 120.591C114.738 123.374 114.396 126.203 114.237 129.051C113.848 134.9 113.751 140.784 113.635 146.65C113.573 149.969 113.531 153.29 113.508 156.613C113.508 158.294 113.508 159.982 113.474 161.663C113.527 163.287 113.475 164.914 113.319 166.529C113.27 166.854 112.833 166.825 112.789 166.529C112.628 165 112.566 163.458 112.605 161.917C112.585 160.339 112.569 158.744 112.556 157.134C112.556 154.032 112.522 150.936 112.556 147.834C112.546 141.595 112.605 135.349 112.954 129.14Z" fill="#263238"/>
    <path d="M119.814 124.73C120.072 123.072 120.528 120.917 121.301 119.633C122.695 117.33 124.215 118.33 122.807 120.882C121.783 122.777 121.119 124.927 120.863 127.174C120.863 127.174 123.2 131.241 126.023 133.242C125.901 131.679 125.537 129.276 125.789 126.955C126.329 121.93 128.826 122.22 128.218 126.204C127.733 129.406 127.519 132.804 127.655 134.278C128.597 135.016 129.608 135.612 130.667 136.054C130.507 135.462 130.332 134.775 130.142 133.929C129.142 129.424 131.6 128.009 131.687 130.555C131.851 132.715 132.176 134.853 132.659 136.942C134.014 137.499 135.136 137.877 135.821 138.168C137.599 138.97 139.187 140.294 140.446 142.021C141.73 140.605 142.796 138.921 143.594 137.049C142.734 136.149 141.369 134.805 139.479 133.177C135.938 130.128 137.167 126.281 139.965 128.672C141.996 130.401 143.565 133.603 144.279 135.243C145.228 132.387 145.765 129.353 145.868 126.275C143.084 123.09 136.2 118.65 138.275 118.65C140.14 118.65 144.318 121.989 145.853 123.273C145.814 122.399 145.736 121.527 145.62 120.663C142.997 118.567 134.476 115.335 135.831 114.376C137.322 113.346 143.269 116.696 145.061 117.762C144.722 116.338 144.19 114.994 143.487 113.784C139.863 107.864 133.329 105.84 130.478 106.964C128.461 107.764 129.049 113.997 128.617 113.784C120.518 109.806 116.836 112.612 119.814 124.73ZM139.679 124.043C140.252 123.196 142.914 125.689 142.142 127.05C141.369 128.412 138.935 125.126 139.679 124.043ZM125.785 118.715C126.484 119.254 125.449 122.403 124.371 121.45C123.453 120.651 125.08 118.176 125.785 118.727V118.715Z" fill="#3656D7"/>
    <path d="M126.844 119.692C127.208 118.81 127.592 117.916 128.01 117.087C128.395 116.25 128.842 115.458 129.346 114.719C129.234 114.548 129.122 114.37 129.001 114.204C128.952 114.133 129.035 114.033 129.083 114.104C129.219 114.293 129.351 114.482 129.482 114.696C129.495 114.704 129.508 114.716 129.518 114.73C129.528 114.744 129.535 114.761 129.54 114.778C130.026 115.507 130.512 116.258 130.963 117.028C131.759 117.251 132.544 117.528 133.315 117.857C134.111 118.182 134.898 118.52 135.671 118.916C135.749 118.958 135.71 119.124 135.632 119.076C134.864 118.668 134.087 118.265 133.295 117.94C132.503 117.614 131.78 117.395 131.022 117.129C131.27 117.555 131.508 117.987 131.746 118.419C133.175 118.972 134.566 119.665 135.904 120.491C137.313 121.302 138.663 122.267 140.014 123.196C140.087 123.25 140.014 123.398 139.941 123.338C138.62 122.379 137.245 121.563 135.856 120.763C134.554 120.023 133.203 119.408 131.891 118.703C135.2 124.996 137.182 132.254 139.834 138.978C139.873 139.073 139.747 139.156 139.718 139.055C138.906 136.688 137.974 134.403 137.089 132.082C136.298 130.004 135.525 127.938 134.733 125.825C134.5 125.233 134.247 124.641 134.019 124.001C134.165 127.364 134.107 130.786 134.558 134.107C134.558 134.129 134.551 134.15 134.538 134.165C134.526 134.181 134.508 134.189 134.49 134.189C134.472 134.189 134.455 134.181 134.442 134.165C134.43 134.15 134.422 134.129 134.422 134.107C134.233 130.513 133.713 127.003 133.733 123.368C133.733 123.368 133.733 123.368 133.733 123.321C133.174 121.947 132.576 120.592 131.93 119.272C130.832 122.421 129.681 125.612 129.171 128.992C129.171 129.092 129.015 129.045 129.035 128.939C129.783 125.558 130.492 122.166 131.814 119.035C131.109 117.612 130.33 116.246 129.482 114.944C129.113 115.779 128.641 116.572 128.224 117.371C127.806 118.17 127.417 118.934 127.038 119.739C126.224 121.439 125.531 123.222 124.969 125.067C124.939 125.174 124.803 125.12 124.837 125.02C125.508 123.232 126.12 121.432 126.844 119.692Z" fill="#263238"/>
    <path d="M100.761 127.34C102.884 124.747 105.352 121.343 108.636 121.349C111.803 121.349 114.13 124.463 115.471 127.666C116.87 131.022 117.376 134.817 117.769 138.511C118.236 142.932 118.517 147.38 118.609 151.836C118.668 154.311 118.658 156.791 118.609 159.266C118.606 161.775 118.443 164.281 118.124 166.76C118.065 167.157 117.541 167.174 117.521 166.76C117.424 164.676 117.492 162.581 117.521 160.497C117.55 158.413 117.521 156.389 117.444 154.334C117.317 150.19 117.069 146.047 116.671 141.903C116.321 138.298 116.044 134.592 115.155 131.111C114.359 127.968 112.862 124.38 110.249 123.001C106.683 121.119 103.2 124.552 100.868 127.459C100.805 127.524 100.698 127.417 100.761 127.34Z" fill="#263238"/>
    <path d="M89.9274 133.142C89.9274 133.668 89.9711 134.195 90.0003 134.704C91.021 133.77 92.2163 133.16 93.4786 132.928C96.4906 132.538 96.3012 135.296 94.2851 135.444C92.8674 135.466 91.4655 135.81 90.1509 136.457C90.6367 141.305 91.7394 145.2 91.9046 145.253C94.5787 145.072 97.2392 144.665 99.867 144.034C99.114 142.086 97.4088 139.505 98.2784 139.298C99.148 139.091 100.1 141.394 100.581 143.862C102.551 143.405 104.487 142.756 106.372 141.921C105.046 140.524 103 138.783 103.783 138.043C104.565 137.303 106.212 139.748 107.183 141.53C108.073 141.091 108.915 140.521 109.69 139.831C107.902 136.634 103.549 135.983 104.118 133.668C104.686 131.354 108.757 134.562 110.584 138.842C112.736 136.131 113.363 132.289 113.134 129.01C111.264 128.743 107.669 129.223 107.926 127.589C108.184 125.955 110.788 126.263 112.916 127.216C112.719 125.918 112.293 124.688 111.667 123.611C109.675 120.544 103.647 124.499 103.647 124.499C103.647 124.499 104.293 117.129 101.995 115.856C100.673 115.122 98.3415 115.128 96 116.809C97.3116 116.939 98.9148 117.448 99.5366 118.555C100.353 119.976 99.0508 120.746 98.2492 120.094C97.6711 119.627 96.5926 118.171 94.6543 117.975C93.8239 118.826 93.0933 119.812 92.4827 120.905C92.2593 121.29 92.0504 121.693 91.8463 122.125C92.9571 121.516 94.1647 121.214 95.3826 121.241C96.6004 121.267 97.7983 121.622 98.8905 122.279C101.499 123.859 100.042 127.163 97.7974 125.878C95.553 124.593 93.4252 123.333 91.035 124.061C90.1985 126.676 89.81 129.472 89.8934 132.277C91.057 131.243 92.3658 130.477 93.7555 130.016C96.3497 129.187 97.1562 131.076 94.2851 131.431C92.7521 131.634 91.2692 132.216 89.9274 133.142ZM93.0851 128.068C92.9054 127.044 94.7417 126.748 95.0283 127.577C95.3052 128.287 93.26 129.092 93.0851 128.051V128.068ZM108.816 133.734C108.99 133.177 110.219 133.811 110.108 134.509C109.962 135.438 108.65 134.296 108.816 133.734ZM100.129 137.327C101.028 136.889 102.427 139.606 101.451 140.228C100.474 140.849 99.3957 137.688 100.129 137.327Z" fill="#3656D7"/>
    <path d="M92.2543 144.727C93.6048 141.974 94.9408 139.203 96.3593 136.498C97.02 135.243 97.7147 134.006 98.4337 132.798L98.1082 132.703C97.9334 132.656 97.7536 132.615 97.5739 132.579C97.1561 132.492 96.7383 132.421 96.3205 132.366C95.927 132.319 95.5286 132.289 95.1303 132.283C94.7064 132.254 94.2812 132.282 93.8623 132.366C93.8137 132.366 93.804 132.283 93.8623 132.283C94.2849 132.283 94.7173 132.236 95.14 132.23C95.5626 132.224 95.961 132.23 96.3739 132.265C96.7868 132.301 97.1415 132.342 97.5204 132.413C97.7342 132.449 97.9431 132.496 98.152 132.55C98.2797 132.572 98.4062 132.604 98.5309 132.644C99.2661 131.417 100.026 130.215 100.809 129.039C98.4694 127.652 95.9774 126.683 93.4105 126.162C93.3668 126.162 93.4105 126.073 93.4105 126.079C96.0151 126.518 98.5465 127.455 100.911 128.856C101.344 128.21 101.781 127.565 102.218 126.926C102.655 126.286 103.229 125.511 103.676 124.747C103.705 124.7 103.763 124.747 103.729 124.795C103.122 125.613 102.55 126.469 102.014 127.358C102.98 128.179 103.898 129.079 104.764 130.051C105.663 131.022 106.542 132.023 107.392 133.059C107.426 133.094 107.392 133.153 107.343 133.118C106.503 132.094 105.629 131.123 104.715 130.193C103.802 129.264 102.84 128.418 101.922 127.506C101.713 127.849 101.504 128.187 101.29 128.518L100.974 129.021C100.974 129.021 100.974 129.021 100.95 129.057L99.9009 130.738C100.31 131.46 100.66 132.229 100.945 133.035C101.247 133.81 101.514 134.616 101.757 135.403C102.239 137.084 102.616 138.808 102.884 140.559C102.884 140.612 102.825 140.636 102.816 140.559C102.525 138.834 102.114 137.143 101.587 135.503C101.324 134.663 101.023 133.84 100.717 133.023C100.411 132.206 100.095 131.561 99.8328 130.809C99.5268 131.3 99.2256 131.792 98.9292 132.289C98.8467 132.437 98.7641 132.585 98.6766 132.727C98.6811 132.734 98.684 132.742 98.6849 132.751C98.6858 132.76 98.6846 132.769 98.6816 132.777C98.6786 132.785 98.6738 132.791 98.6677 132.796C98.6617 132.801 98.6547 132.804 98.6475 132.804C97.7196 134.379 96.8354 136.001 95.9756 137.635C96.0264 137.747 96.0656 137.866 96.0921 137.99C96.1504 138.191 96.199 138.392 96.2476 138.582C96.3441 138.985 96.4235 139.394 96.4856 139.807C96.5439 140.192 96.5877 140.589 96.6217 140.991C96.6255 141.437 96.6514 141.881 96.6994 142.323C96.6994 142.388 96.6265 142.394 96.6363 142.323C96.6588 141.906 96.6326 141.488 96.5585 141.08C96.5099 140.654 96.4468 140.233 96.3642 139.813C96.2816 139.393 96.2087 139.061 96.1164 138.688C96.0679 138.499 96.0193 138.315 95.9658 138.132C95.9415 138.037 95.9027 137.931 95.8735 137.83C95.4687 138.6 95.072 139.371 94.6833 140.145C93.9012 141.684 93.1336 143.229 92.3563 144.768C92.3174 144.869 92.2154 144.803 92.2543 144.727Z" fill="#263238"/>
    <path d="M113.095 165.866C113.129 164.309 113.333 162.734 113.47 161.183C113.606 159.632 113.756 158.07 113.892 156.507C114.155 153.505 114.3 150.433 114.864 147.485C115.291 144.919 116.34 142.568 117.876 140.736C118.672 139.772 119.713 139.166 120.829 139.02C121.954 138.983 123.057 139.399 123.968 140.204C125.001 141.138 125.894 142.284 126.606 143.59C127.37 144.886 128.056 146.247 128.661 147.663C128.685 147.716 128.612 147.751 128.588 147.698C127.449 145.335 125.936 143.27 124.138 141.624C123.339 140.822 122.364 140.326 121.335 140.198C120.832 140.188 120.333 140.299 119.866 140.526C119.399 140.752 118.973 141.089 118.614 141.518C117.123 143.098 116.258 145.431 115.743 147.716C115.131 150.421 114.937 153.269 114.631 156.045C114.451 157.697 114.276 159.348 114.096 161C113.916 162.651 113.81 164.327 113.523 165.949C113.503 166.004 113.469 166.05 113.425 166.079C113.382 166.108 113.332 166.119 113.283 166.109C113.234 166.1 113.189 166.071 113.155 166.027C113.121 165.983 113.1 165.926 113.095 165.866Z" fill="#263238"/>
    <path d="M119.396 153.748C119.79 154.403 120.258 154.987 120.786 155.483C120.577 153.961 120.3 151.256 120.951 149.817C121.922 147.58 123.093 148.693 122.51 150.64C121.926 152.394 121.606 154.26 121.563 156.152C122.896 157.171 124.325 157.991 125.819 158.596C125.658 157.721 125.611 156.82 125.678 155.927C125.872 153.559 127.378 153.559 126.984 156.069C126.841 157.033 126.773 158.013 126.78 158.993C128.948 159.805 131.163 160.415 133.407 160.816C134.554 159.004 135.479 156.998 136.152 154.861C134.553 154.376 131.323 154.269 131.391 152.872C131.483 151.001 134.616 152.44 136.448 153.801C136.867 152.173 137.054 150.469 137.002 148.764C135.564 148.275 134.086 147.977 132.595 147.876C129.307 147.526 129.467 145.253 131.852 145.307C133.611 145.348 135.836 146.656 136.89 147.343C136.205 141.891 132.79 138.398 130.055 138.262C125.454 138.037 127.111 145.011 127.111 145.011C127.111 145.011 123.992 142.341 121.053 142.412C118.114 142.483 116.248 148.42 119.396 153.748ZM131.682 143.685C131.58 142.897 133.625 142.708 133.737 143.72C133.863 144.827 131.784 144.466 131.682 143.667V143.685ZM134.986 151.866C134.942 151.357 135.826 151.274 136.03 151.913C136.161 152.321 135.02 152.357 134.986 151.848V151.866ZM123.938 152.345C124.633 152.464 125.027 155.483 123.832 155.423C122.923 155.358 123.351 152.227 123.938 152.322V152.345Z" fill="#3656D7"/>
    <path d="M124.896 155.684C125.012 155.305 125.114 154.926 125.211 154.542C125.123 154.926 125.041 155.317 124.983 155.725C124.978 155.74 124.97 155.751 124.958 155.757C124.947 155.763 124.934 155.764 124.922 155.758C124.911 155.753 124.902 155.742 124.897 155.728C124.892 155.714 124.891 155.698 124.896 155.684Z" fill="#263238"/>
    <path d="M126.11 150.824C126.329 150.054 126.572 149.285 126.815 148.527C126.951 148.119 127.087 147.716 127.233 147.343C127.336 146.988 127.473 146.648 127.641 146.331C127.498 146.016 127.373 145.689 127.267 145.354C127.265 145.351 127.264 145.347 127.264 145.343C127.263 145.339 127.263 145.335 127.264 145.331C127.265 145.327 127.267 145.323 127.269 145.32C127.271 145.317 127.273 145.315 127.276 145.313C127.279 145.311 127.282 145.309 127.286 145.309C127.289 145.309 127.292 145.309 127.295 145.31C127.298 145.311 127.301 145.313 127.304 145.315C127.307 145.318 127.309 145.321 127.31 145.325C127.648 145.857 127.949 146.423 128.209 147.018L128.583 147.817C128.843 147.845 129.101 147.895 129.356 147.965C129.632 148.024 129.905 148.095 130.181 148.166L130.998 148.403C131.27 148.48 131.542 148.586 131.814 148.64C131.882 148.64 131.853 148.776 131.814 148.746C131.533 148.623 131.244 148.532 130.949 148.474C130.687 148.403 130.424 148.344 130.157 148.296C129.89 148.249 129.618 148.213 129.351 148.178L128.743 148.119C128.85 148.355 128.967 148.586 129.074 148.823C129.088 148.862 129.104 148.899 129.122 148.936C129.345 148.932 129.567 148.964 129.783 149.03C130.021 149.084 130.269 149.137 130.492 149.202C130.978 149.332 131.464 149.468 131.925 149.628C132.921 149.972 133.903 150.356 134.884 150.747C134.937 150.747 134.884 150.871 134.85 150.848C133.875 150.447 132.882 150.111 131.877 149.841C131.391 149.711 130.934 149.581 130.463 149.462L129.754 149.279C129.569 149.242 129.386 149.192 129.205 149.131C129.71 150.268 130.185 151.426 130.628 152.606C131.6 155.181 132.382 157.833 133.203 160.467C133.203 160.538 133.14 160.58 133.121 160.515C132.33 157.887 131.415 155.318 130.381 152.819L129.822 151.457C129.822 151.552 129.788 151.641 129.773 151.736C129.725 152.049 129.681 152.328 129.637 152.671C129.55 153.298 129.462 153.92 129.385 154.548C129.165 155.83 129.042 157.133 129.015 158.443C129.015 158.526 128.913 158.52 128.928 158.443C128.992 157.814 129.029 157.182 129.04 156.548C129.074 155.891 129.113 155.234 129.176 154.583C129.239 153.932 129.302 153.322 129.39 152.701C129.428 152.387 129.477 152.073 129.521 151.759C129.534 151.525 129.583 151.296 129.666 151.084C129.399 150.427 129.132 149.764 128.86 149.107C128.588 148.45 128.345 147.876 128.083 147.266C127.971 147.006 127.85 146.745 127.733 146.485C127.647 146.806 127.545 147.12 127.427 147.426C127.31 147.781 127.189 148.136 127.072 148.486C126.805 149.267 126.562 150.06 126.314 150.854C125.969 151.978 125.586 153.127 125.299 154.293C125.561 153.121 125.799 151.955 126.11 150.824Z" fill="#263238"/>
    <path d="M125.211 154.541C125.211 154.447 125.255 154.358 125.279 154.269C125.255 154.358 125.236 154.453 125.211 154.541Z" fill="#263238"/>
    <path d="M105.405 162.835L105.726 171.176L106.561 192.683H124.769L125.6 171.176L125.925 162.835H105.405Z" fill="#37474F"/>
    <path d="M105.405 162.835L105.726 171.176H125.6L125.925 162.835H105.405Z" fill="#263238"/>
    <path d="M104.113 166.204H127.223V159.455H104.113V166.204Z" fill="#37474F"/>
    <path d="M123.297 192.682H120.101V196.217H123.297V192.682Z" fill="#37474F"/>
    <path d="M123.297 192.682H120.101V194.447H123.297V192.682Z" fill="#263238"/>
    <path d="M111.225 192.682H108.033V196.217H111.225V192.682Z" fill="#37474F"/>
    <path d="M111.225 192.682H108.033V194.447H111.225V192.682Z" fill="#263238"/>
    <path d="M288.719 97.9426H158.921V203.741H288.719V97.9426Z" fill="#DBDBDB"/>
    <path d="M287.777 99.233H159.864V202.45H287.777V99.233Z" fill="#263238"/>
    <path d="M305.625 211.673H142.015V218.937H305.625V211.673Z" fill="#C7C7C7"/>
    <path d="M142.015 211.673L158.921 203.741H288.719L305.625 211.673H142.015Z" fill="#DBDBDB"/>
    <path d="M160.432 208.861L171.344 203.741H276.302L287.213 208.861H160.432Z" fill="#263238"/>
    <path d="M280.548 107.077H167.093V194.613H280.548V107.077Z" fill="white"/>
    <path d="M280.548 107.077H167.093V110.445H280.548V107.077Z" fill="#455A64"/>
    <path d="M169.716 108.758C169.716 108.884 169.685 109.008 169.627 109.113C169.57 109.218 169.488 109.3 169.392 109.349C169.296 109.397 169.191 109.41 169.089 109.385C168.987 109.36 168.894 109.299 168.82 109.21C168.747 109.121 168.697 109.007 168.677 108.883C168.656 108.759 168.667 108.63 168.706 108.513C168.746 108.397 168.813 108.297 168.9 108.226C168.986 108.156 169.087 108.119 169.191 108.119C169.26 108.119 169.328 108.135 169.392 108.167C169.456 108.199 169.513 108.247 169.562 108.306C169.611 108.365 169.65 108.436 169.676 108.513C169.702 108.591 169.716 108.674 169.716 108.758Z" fill="#C7C7C7"/>
    <path d="M171.834 108.758C171.834 108.884 171.803 109.008 171.746 109.113C171.688 109.218 171.606 109.3 171.51 109.349C171.414 109.397 171.309 109.41 171.207 109.385C171.105 109.36 171.012 109.299 170.939 109.21C170.865 109.121 170.815 109.007 170.795 108.883C170.775 108.759 170.785 108.63 170.825 108.513C170.865 108.397 170.932 108.297 171.018 108.226C171.104 108.156 171.206 108.119 171.31 108.119C171.448 108.12 171.581 108.188 171.679 108.308C171.777 108.427 171.833 108.589 171.834 108.758Z" fill="white"/>
    <path d="M173.967 108.758C173.967 108.885 173.936 109.009 173.878 109.114C173.82 109.219 173.738 109.301 173.642 109.349C173.546 109.397 173.44 109.41 173.338 109.385C173.236 109.359 173.143 109.298 173.069 109.208C172.996 109.118 172.947 109.003 172.927 108.879C172.907 108.755 172.918 108.626 172.959 108.509C172.999 108.393 173.067 108.293 173.154 108.224C173.241 108.154 173.343 108.118 173.447 108.119C173.585 108.12 173.718 108.188 173.815 108.308C173.912 108.428 173.967 108.589 173.967 108.758Z" fill="#3656D7"/>
    <path d="M280.553 110.445H278.537V194.613H280.553V110.445Z" fill="#DBDBDB"/>
    <path d="M279.542 139.624C279.473 139.624 279.405 139.609 279.342 139.577C279.279 139.545 279.221 139.499 279.173 139.44C279.124 139.381 279.086 139.311 279.06 139.234C279.034 139.156 279.021 139.074 279.022 138.99V111.57C279.021 111.486 279.034 111.404 279.06 111.327C279.086 111.249 279.124 111.179 279.173 111.12C279.221 111.061 279.279 111.015 279.342 110.983C279.405 110.951 279.473 110.936 279.542 110.936C279.68 110.936 279.812 111.003 279.909 111.122C280.007 111.241 280.062 111.402 280.062 111.57V138.99C280.062 139.158 280.007 139.319 279.909 139.438C279.812 139.557 279.68 139.624 279.542 139.624Z" fill="#A6A6A6"/>
    <path d="M255.942 188.26H191.704V183.199H255.942V188.26ZM191.947 187.964H255.704V183.495H191.947V187.964Z" fill="#3656D7"/>
    <path d="M194.016 184.253H192.563V187.207H194.016V184.253Z" fill="#3656D7"/>
    <path d="M196.022 184.253H194.57V187.207H196.022V184.253Z" fill="#3656D7"/>
    <path d="M198.024 184.253H196.572V187.207H198.024V184.253Z" fill="#3656D7"/>
    <path d="M200.026 184.253H198.573V187.207H200.026V184.253Z" fill="#3656D7"/>
    <path d="M202.027 184.253H200.574V187.207H202.027V184.253Z" fill="#3656D7"/>
    <path d="M204.029 184.253H202.576V187.207H204.029V184.253Z" fill="#3656D7"/>
    <path d="M206.03 184.253H204.578V187.207H206.03V184.253Z" fill="#3656D7"/>
    <path d="M208.036 184.253H206.584V187.207H208.036V184.253Z" fill="#3656D7"/>
    <path d="M210.038 184.253H208.585V187.207H210.038V184.253Z" fill="#3656D7"/>
    <path d="M212.039 184.253H210.587V187.207H212.039V184.253Z" fill="#3656D7"/>
    <path d="M214.041 184.253H212.588V187.207H214.041V184.253Z" fill="#3656D7"/>
    <path d="M216.043 184.253H214.59V187.207H216.043V184.253Z" fill="#3656D7"/>
    <path d="M245.191 144.259H205.457V175.563H245.191V144.259Z" fill="#3656D7"/>
    <path d="M217.981 141.015H205.457V144.259H218.7L217.981 141.015Z" fill="#3656D7"/>
    <g opacity="0.1">
        <path d="M245.191 144.259H205.457V175.563H245.191V144.259Z" fill="black"/>
        <path d="M217.981 141.015H205.457V144.259H218.7L217.981 141.015Z" fill="black"/>
    </g>
    <path d="M205.593 153.269L230.248 162.711L240.197 124.149L221.892 117.135L213.648 122.054L205.593 153.269Z" fill="#EBEBEB"/>
    <path d="M221.892 117.135L213.647 122.054L219.997 124.487L221.892 117.135Z" fill="#DBDBDB"/>
    <path d="M236.127 129.694L222.418 124.443L222.163 125.431L235.872 130.682L236.127 129.694Z" fill="#DBDBDB"/>
    <path d="M235.483 132.192L221.774 126.941L221.519 127.929L235.228 133.18L235.483 132.192Z" fill="#DBDBDB"/>
    <path d="M234.84 134.688L221.131 129.437L220.876 130.426L234.585 135.677L234.84 134.688Z" fill="#DBDBDB"/>
    <path d="M234.193 137.191L214.107 129.497L213.852 130.486L233.938 138.179L234.193 137.191Z" fill="#DBDBDB"/>
    <path d="M233.55 139.687L213.464 131.994L213.209 132.982L233.295 140.676L233.55 139.687Z" fill="#DBDBDB"/>
    <path d="M232.902 142.184L212.816 134.49L212.561 135.478L232.647 143.172L232.902 142.184Z" fill="#DBDBDB"/>
    <path d="M232.262 144.693L212.176 137L211.921 137.988L232.007 145.682L232.262 144.693Z" fill="#DBDBDB"/>
    <path d="M231.613 147.19L211.528 139.496L211.273 140.484L231.359 148.178L231.613 147.19Z" fill="#DBDBDB"/>
    <path d="M229.943 149.026L209.941 141.329L209.686 142.313L229.688 150.01L229.943 149.026Z" fill="#DBDBDB"/>
    <path d="M230.327 152.184L210.241 144.491L209.986 145.479L230.072 153.173L230.327 152.184Z" fill="#DBDBDB"/>
    <path d="M229.682 154.692L209.596 146.998L209.341 147.987L229.427 155.68L229.682 154.692Z" fill="#DBDBDB"/>
    <path d="M229.033 157.188L208.948 149.495L208.693 150.483L228.778 158.177L229.033 157.188Z" fill="#DBDBDB"/>
    <path d="M245.098 175.563H205.364L202.629 146.852H242.368L245.098 175.563Z" fill="#3656D7"/>
    <path d="M214.872 143.88H202.348L202.629 146.852H215.872L214.872 143.88Z" fill="#3656D7"/>
    <path d="M150.425 67.4912C148.63 55.7898 146.841 44.2166 145.056 32.7717C133.135 34.4944 121.286 42.0954 109.34 41.9533C111.128 53.6626 112.909 65.2358 114.684 76.6728C126.63 74.9501 138.474 67.355 150.425 67.4912Z" fill="#DBDBDB"/>
    <path d="M115.136 44.7298C116.133 51.0758 117.126 57.3902 118.114 63.6731L119.032 63.4481C118.041 57.185 117.048 50.8962 116.054 44.5818L115.136 44.7298Z" fill="#C7C7C7"/>
    <path d="M117.453 44.2741C118.444 50.5886 119.437 56.8596 120.431 63.0872L121.349 62.8267C120.355 56.5912 119.362 50.336 118.371 44.061C118.065 44.1321 117.759 44.209 117.453 44.2741Z" fill="#C7C7C7"/>
    <path d="M119.771 43.7C120.762 49.9592 121.753 56.1946 122.744 62.4065L123.662 62.1164L120.684 43.4454C120.378 43.5342 120.077 43.623 119.771 43.7Z" fill="#C7C7C7"/>
    <path d="M122.107 43.037C123.562 52.1455 125.019 61.2225 126.48 70.2679L127.398 69.9482C125.944 60.891 124.486 51.814 123.026 42.7173L122.107 43.037Z" fill="#C7C7C7"/>
    <path d="M124.395 42.2969C125.849 51.3739 127.307 60.4331 128.768 69.4746L129.681 69.149C128.233 60.1036 126.776 51.0483 125.309 41.9832L124.395 42.2969Z" fill="#C7C7C7"/>
    <path d="M126.708 41.5037C128.159 50.5807 129.616 59.63 131.08 68.6518L131.993 68.3262C130.539 59.2729 129.082 50.2235 127.621 41.1781L126.708 41.5037Z" fill="#C7C7C7"/>
    <path d="M129.02 40.6807C130.474 49.7301 131.932 58.7814 133.392 67.8347L134.306 67.515C132.851 58.438 131.394 49.3847 129.933 40.3551L129.02 40.6807Z" fill="#C7C7C7"/>
    <path d="M131.337 39.8461C132.792 48.8915 134.249 57.9547 135.71 67.0356L136.623 66.7396C135.172 57.6429 133.715 48.5659 132.251 39.5087L131.337 39.8461Z" fill="#C7C7C7"/>
    <path d="M133.645 39.047C135.099 48.124 136.557 57.2128 138.017 66.3135L138.935 66.0471C137.478 56.907 136.021 47.8024 134.563 38.7333L133.645 39.047Z" fill="#C7C7C7"/>
    <path d="M135.958 38.2715C137.412 47.3485 138.869 56.4768 140.33 65.6564L141.248 65.4255C139.794 56.2341 138.336 47.0861 136.876 37.9814L135.958 38.2715Z" fill="#C7C7C7"/>
    <path d="M138.27 37.5611C139.724 46.6934 141.182 55.873 142.642 65.0999L143.56 64.9164C142.103 55.6539 140.646 46.4487 139.188 37.3007L138.27 37.5611Z" fill="#C7C7C7"/>
    <path d="M140.568 36.9275C142.019 46.115 143.476 55.3617 144.94 64.6676L145.858 64.5314C144.401 55.19 142.943 45.9157 141.486 36.7085L140.568 36.9275Z" fill="#C7C7C7"/>
    <path d="M145.94 54.1364C145.827 64.3658 145.715 74.5951 145.605 84.8245C159.038 100.755 172.47 74.0683 185.927 89.4715L186.175 66.6863C184.133 61.9508 181.579 57.5706 178.582 53.6628C167.69 51.3245 156.813 66.4851 145.94 54.1364Z" fill="#EBEBEB"/>
    <path d="M186.156 66.6862C184.114 61.9507 181.56 57.5704 178.562 53.6627L178.46 61.6367C181.035 62.1635 183.595 63.6553 186.156 66.6862Z" fill="#DBDBDB"/>
    <path d="M179.175 81.8765L179.364 64.6499C179.019 64.5493 178.674 64.4664 178.329 64.3954L178.14 81.6456C178.486 81.689 178.831 81.766 179.175 81.8765Z" fill="#DBDBDB"/>
    <path d="M176.566 81.462C176.624 75.7001 176.686 69.9421 176.75 64.1881C176.405 64.1881 176.061 64.1881 175.716 64.1881C175.654 69.9461 175.593 75.708 175.531 81.4739C175.876 81.4502 176.221 81.4502 176.566 81.462Z" fill="#DBDBDB"/>
    <path d="M173.952 81.6337C174.014 75.8639 174.075 70.0941 174.137 64.3243C173.792 64.3776 173.447 64.4368 173.102 64.5079C173.044 70.2816 172.982 76.0554 172.917 81.8291C173.264 81.7541 173.609 81.689 173.952 81.6337Z" fill="#DBDBDB"/>
    <path d="M171.338 82.2316L171.615 56.8358L170.581 57.1496L170.304 82.5631C170.649 82.4684 170.994 82.3382 171.338 82.2316Z" fill="#DBDBDB"/>
    <path d="M168.744 83.1253C168.832 74.6482 168.923 66.175 169.017 57.7058C168.672 57.8301 168.327 57.9663 167.982 58.1024C167.891 66.5756 167.8 75.0507 167.71 83.5279L168.744 83.1253Z" fill="#DBDBDB"/>
    <path d="M166.116 84.1674C166.21 75.6903 166.301 67.2053 166.388 58.7124L165.354 59.1386C165.263 67.6157 165.172 76.1007 165.082 84.5936L166.116 84.1674Z" fill="#DBDBDB"/>
    <path d="M163.503 85.2213L163.78 59.7662L162.74 60.1629C162.653 68.636 162.562 77.1092 162.468 85.5824L163.503 85.2213Z" fill="#DBDBDB"/>
    <path d="M160.894 86.1506C160.981 77.6774 161.072 69.2082 161.166 60.7429C160.821 60.8554 160.476 60.962 160.131 61.0567C160.04 69.5219 159.95 77.9872 159.859 86.4525C160.205 86.3578 160.55 86.2571 160.894 86.1506Z" fill="#DBDBDB"/>
    <path d="M158.28 86.8133C158.374 78.3559 158.465 69.8985 158.552 61.4412C158.209 61.5122 157.864 61.5714 157.517 61.6188C157.427 70.0722 157.336 78.5237 157.245 86.9731C157.592 86.9337 157.937 86.8804 158.28 86.8133Z" fill="#DBDBDB"/>
    <path d="M155.667 87.0741C155.761 78.6325 155.851 70.1909 155.939 61.7493C155.594 61.7493 155.249 61.7493 154.904 61.7493C154.817 70.179 154.726 78.6107 154.632 87.0445C154.977 87.0622 155.322 87.0741 155.667 87.0741Z" fill="#DBDBDB"/>
    <path d="M153.058 86.7958C153.145 78.3779 153.236 69.958 153.33 61.5362C152.986 61.4651 152.642 61.3763 152.295 61.2698C152.204 69.6837 152.114 78.0957 152.023 86.5058C152.368 86.6123 152.713 86.713 153.058 86.7958Z" fill="#DBDBDB"/>
    <path d="M150.444 85.8368C150.538 77.4426 150.629 69.0483 150.716 60.6541C150.371 60.4884 150.026 60.2989 149.681 60.0621C149.591 68.4445 149.5 76.8269 149.409 85.2093C149.754 85.458 150.099 85.6592 150.444 85.8368Z" fill="#DBDBDB"/>
    <path d="M189.28 77.7326C184.276 87.4371 179.212 97.2718 174.088 107.237C189.848 99.5411 187.113 131.922 201.255 127.743L210.971 109.244C212.166 107.085 213.361 104.914 214.556 102.732C199.311 109.184 202.838 74.9504 189.28 77.7326Z" fill="#DBDBDB"/>
    <path d="M196.62 124.747L207.04 105.017C206.789 104.886 206.545 104.734 206.312 104.561C202.85 111.108 199.383 117.671 195.911 124.25C196.14 124.431 196.377 124.597 196.62 124.747Z" fill="#C7C7C7"/>
    <path d="M194.905 123.315L205.286 103.673C205.073 103.454 204.864 103.223 204.665 102.98C201.215 109.504 197.756 116.049 194.288 122.616C194.492 122.865 194.696 123.102 194.905 123.315Z" fill="#C7C7C7"/>
    <path d="M193.409 121.42C196.877 114.85 200.336 108.304 203.785 101.785C203.601 101.5 203.421 101.193 203.246 100.908L192.865 120.556C193.035 120.852 193.224 121.142 193.409 121.42Z" fill="#C7C7C7"/>
    <path d="M192.063 119.171L202.483 99.4406C202.323 99.115 202.163 98.7776 201.998 98.4342C198.535 104.989 195.055 111.58 191.558 118.206L192.063 119.171Z" fill="#C7C7C7"/>
    <path d="M190.853 116.667L201.332 96.8121L200.895 95.7169L190.387 115.619L190.853 116.667Z" fill="#C7C7C7"/>
    <path d="M189.678 114.074C193.221 107.345 196.744 100.66 200.249 94.0179L199.826 92.8932C196.309 99.5628 192.771 106.272 189.211 113.02L189.678 114.074Z" fill="#C7C7C7"/>
    <path d="M188.492 111.475C192.078 104.652 195.64 97.8776 199.18 91.1527C199.039 90.7798 198.898 90.4068 198.753 90.0398C195.19 96.8002 191.606 103.616 188.002 110.487C188.177 110.836 188.332 111.162 188.492 111.475Z" fill="#C7C7C7"/>
    <path d="M187.239 109.066C190.883 102.12 194.499 95.2353 198.087 88.4118C197.936 88.0566 197.786 87.7074 197.63 87.364C194.016 94.2428 190.379 101.179 186.719 108.172C186.889 108.462 187.064 108.764 187.239 109.066Z" fill="#C7C7C7"/>
    <path d="M185.86 106.905L196.921 85.8426C196.756 85.5229 196.586 85.2151 196.411 84.9132C192.716 91.9262 188.999 99.0042 185.262 106.147C185.471 106.396 185.67 106.645 185.86 106.905Z" fill="#C7C7C7"/>
    <path d="M184.29 105.147C188.076 97.8973 191.828 90.7166 195.546 83.605C195.357 83.3386 195.163 83.0782 194.959 82.8354C191.208 90.0142 187.425 97.2639 183.61 104.585C183.845 104.758 184.072 104.945 184.29 105.147Z" fill="#C7C7C7"/>
    <path d="M182.498 103.904C186.384 96.461 190.22 89.0988 194.006 81.8174C193.786 81.6177 193.557 81.432 193.321 81.261C189.484 88.6252 185.612 96.0663 181.706 103.584C181.975 103.671 182.239 103.778 182.498 103.904Z" fill="#C7C7C7"/>
    <path d="M180.404 103.306C184.371 95.6578 188.301 88.0923 192.194 80.6097C191.93 80.4916 191.661 80.3927 191.388 80.3137L179.476 103.277C179.785 103.265 180.095 103.275 180.404 103.306Z" fill="#C7C7C7"/>
    <path d="M55.3284 28.3378C51.85 31.1201 50.0574 36.6788 50.0574 36.6788C50.0574 36.6788 46.3119 41.7935 46.5596 45.1322C46.6146 46.0782 46.8573 46.9937 47.2668 47.8001C47.6764 48.6065 48.2406 49.2796 48.9109 49.7615V47.95C48.9109 47.95 49.4647 50.4245 52.4184 52.0939C55.3721 53.7632 59.6667 53.6212 62.0228 52.8398C63.4177 52.3807 64.6913 51.4895 65.7198 50.2528L64.4956 52.5911C65.5295 52.7022 66.57 52.501 67.5249 52.0054C68.4799 51.5098 69.3199 50.735 69.9706 49.7496C72.3996 46.2925 68.2168 39.4019 67.9836 38.0877C67.7505 36.7735 68.6686 27.8287 60.8132 27.4321C60.8277 27.4617 57.7186 26.4198 55.3284 28.3378Z" fill="#C7C7C7"/>
    <path d="M47.847 49.2642C47.0758 48.4629 46.5247 47.3926 46.2682 46.1978C45.9731 45.0216 46.009 43.7589 46.3702 42.6104C46.8849 41.284 47.5908 40.081 48.4543 39.0585C49.285 37.9456 50.1886 36.9037 50.9999 35.7731C51.0436 35.7139 50.9659 35.631 50.9173 35.6783C50.0787 36.4751 49.2789 37.331 48.5223 38.2416C47.767 39.0571 47.092 39.9769 46.5111 40.9825C45.9709 41.9079 45.6606 43.0032 45.6172 44.1377C45.6169 45.0677 45.8019 45.9839 46.1564 46.8075C46.6068 47.7255 47.1521 48.5691 47.779 49.3175C47.8325 49.3826 47.8908 49.3175 47.847 49.2642Z" fill="#C7C7C7"/>
    <path d="M71.3018 45.9019C70.9326 42.4329 68.8728 39.7809 67.9012 36.5901C67.3716 34.8616 67.0413 33.0383 66.2397 31.434C66.2397 31.3926 66.1571 31.434 66.1765 31.4814C66.8178 32.8844 67.0656 34.4413 67.4445 35.9686C67.8631 37.4916 68.4067 38.9592 69.0671 40.3492C70.2039 42.9302 71.5738 45.9789 70.7091 48.9743C70.3107 50.3595 69.3586 51.7625 68.0906 51.9342C68.0847 51.9315 68.0784 51.9306 68.0722 51.9316C68.066 51.9326 68.0601 51.9353 68.0549 51.9397C68.0498 51.9441 68.0456 51.9499 68.0427 51.9566C68.0397 51.9634 68.0382 51.9709 68.0382 51.9786C68.0382 51.9862 68.0397 51.9937 68.0427 52.0005C68.0456 52.0073 68.0498 52.0131 68.0549 52.0175C68.0601 52.0218 68.066 52.0246 68.0722 52.0256C68.0784 52.0265 68.0847 52.0256 68.0906 52.023C68.6039 51.9093 69.0926 51.6683 69.5263 51.3149C69.96 50.9615 70.3296 50.5034 70.612 49.9688C71.2337 48.7574 71.4784 47.3145 71.3018 45.9019Z" fill="#C7C7C7"/>
    <path d="M71.2627 46.8018C71.5498 45.5945 71.5244 44.3087 71.1898 43.1197C70.7865 41.9726 70.185 40.9448 69.4263 40.1065C68.6053 39.1002 67.726 38.1175 67.3276 36.75C67.3276 36.6908 67.2402 36.75 67.2548 36.7855C67.8766 39.041 69.5429 40.4321 70.4902 42.433C71.5736 44.7239 71.1023 47.5477 69.7615 49.5367C68.917 50.7322 67.8536 51.6691 66.6572 52.2717C66.6572 52.2717 66.6572 52.319 66.6572 52.3072C68.7122 51.3008 70.6651 49.4894 71.2627 46.8018Z" fill="#C7C7C7"/>
    <path d="M89.9663 230.806C88.8878 231.232 58.1023 230.747 56.9315 229.817C56.4894 229.474 56.2854 224.004 56.1931 217.386V217.179C56.1931 215.817 56.1591 214.414 56.1542 212.987C56.1542 212.792 56.1542 212.597 56.1542 212.395C56.1105 202.847 56.2368 192.937 56.2368 192.937L76.8301 193.186L76.2083 212.466L76.184 213.23L76.0625 217.22V217.629C76.0625 217.629 87.7801 224.235 88.9704 225.419C90.1606 226.603 91.0496 230.386 89.9663 230.806Z" fill="#D3766A"/>
    <path d="M80.7163 220.199C80.6388 220.199 80.5952 220.145 80.5903 220.115L80.7163 220.199Z" fill="#3656D7"/>
    <path d="M89.9665 230.806C88.888 231.232 58.1074 230.747 56.9317 229.817C56.5382 229.516 56.3293 225.159 56.2273 219.547C61.8675 220.991 83.7287 226.366 84.336 224.093C84.5692 223.193 82.6988 221.648 81.5183 220.772C84.7489 222.649 88.3196 224.797 88.9609 225.425C90.1365 226.603 91.0498 230.386 89.9665 230.806Z" fill="#263238"/>
    <path d="M49.9214 84.8834C49.9214 84.8834 54.5463 148.272 55.2992 153.109C55.4741 154.21 55.581 160.213 55.649 167.908C55.8093 184.709 55.717 215.018 55.717 215.018H77.4131C77.4131 215.018 76.7718 162.509 75.81 152.86C74.8481 143.211 68.7075 84.9071 68.7075 84.9071L49.9214 84.8834Z" fill="#263238"/>
    <path d="M76.4416 210.4C73.0409 210.318 74.0125 210.282 70.641 210.241C68.9844 210.241 58.0927 210.11 56.5527 210.418C56.5452 210.422 56.5388 210.428 56.5343 210.436C56.5298 210.443 56.5273 210.453 56.5273 210.463C56.5273 210.472 56.5298 210.482 56.5343 210.49C56.5388 210.498 56.5452 210.504 56.5527 210.507C58.1024 210.815 68.9942 210.702 70.641 210.685C74.0417 210.643 73.0701 210.608 76.4416 210.525C76.4524 210.521 76.4619 210.512 76.4687 210.501C76.4754 210.49 76.4791 210.476 76.4791 210.463C76.4791 210.449 76.4754 210.435 76.4687 210.424C76.4619 210.413 76.4524 210.405 76.4416 210.4Z" fill="#37474F"/>
    <path d="M59.8367 180.387C59.8141 176.551 59.7914 172.715 59.7687 168.879C59.7444 165.167 59.7687 161.45 59.6036 157.738C59.3121 150.22 58.0587 142.832 57.1745 135.403C56.2904 127.974 55.5422 120.515 54.8718 113.044C54.1188 104.667 53.4533 96.2791 52.744 87.8967C52.744 87.8375 52.6663 87.8375 52.6711 87.8967C53.6913 102.868 54.8329 117.833 56.5333 132.709C56.9575 136.411 57.4207 140.105 57.9227 143.791C58.4085 147.521 58.9331 151.256 59.1712 155.039C59.4092 158.821 59.4481 162.438 59.4772 166.138C59.5096 169.974 59.542 173.808 59.5744 177.64C59.6424 186.153 59.7104 199.254 59.7736 207.772C59.7736 207.807 59.7849 207.84 59.8049 207.864C59.8249 207.889 59.8521 207.902 59.8805 207.902C59.9088 207.902 59.936 207.889 59.956 207.864C59.9761 207.84 59.9873 207.807 59.9873 207.772C59.9242 200.165 59.8853 187.982 59.8367 180.387Z" fill="#37474F"/>
    <path d="M45.3499 84.8834C45.3499 84.8834 54.551 148.272 55.304 153.109C55.4789 154.21 55.5858 160.213 55.6538 167.908L65.9966 84.8834H45.3499Z" fill="#37474F"/>
    <path d="M38.6506 232.937C37.5284 232.724 10.2456 215.349 9.5509 213.881C9.28371 213.331 11.1298 208.34 13.5005 202.385L13.5782 202.196C14.064 200.97 23.8044 180.95 23.8044 180.95L40.589 192.955L31.2615 213.171L31.1012 213.526C31.1012 213.526 39.1024 225.875 39.7243 227.58C40.3461 229.285 39.7729 233.162 38.6506 232.937Z" fill="#D3766A"/>
    <path d="M38.6507 232.937C37.5285 232.724 10.2457 215.349 9.55095 213.881C9.32262 213.414 10.6343 209.696 12.4998 204.919C16.4105 208.524 35.2938 225.804 36.6735 224.01C36.9601 223.625 36.7463 222.731 36.3626 221.772C38.0143 224.436 39.4911 226.881 39.7632 227.58C40.3607 229.279 39.7681 233.156 38.6507 232.937Z" fill="#263238"/>
    <path d="M33.6907 212.431L13.8115 197.46C13.8115 197.46 36.8144 157.347 36.9213 153.784C37.0865 148.456 39.1706 126.624 40.9195 108.924C40.9195 108.924 37.6014 99.3396 43.8343 84.8657H68.7464C68.7464 84.8657 67.0801 98.641 64.2187 107.361C62.2989 108.18 60.4451 109.212 58.6805 110.445C58.6805 110.445 56.198 149.912 56.1057 154.843C55.9066 164.575 33.6907 212.431 33.6907 212.431Z" fill="#263238"/>
    <path d="M34.91 206.837C32.0438 204.646 32.8939 205.227 30.0034 203.072C28.5897 202.018 19.3157 195.104 17.8583 194.405C17.851 194.404 17.8436 194.405 17.8369 194.409C17.8303 194.413 17.8246 194.418 17.8205 194.426C17.8164 194.433 17.8142 194.442 17.814 194.451C17.8138 194.46 17.8157 194.469 17.8194 194.476C19.0193 195.714 28.41 202.427 29.8431 203.445C32.7579 205.534 31.9418 204.895 34.8857 206.937C34.8918 206.944 34.8992 206.95 34.9072 206.952C34.9153 206.955 34.9238 206.955 34.9319 206.952C34.94 206.949 34.9474 206.944 34.9534 206.937C34.9594 206.93 34.9637 206.921 34.9661 206.912C34.9685 206.902 34.9687 206.891 34.9668 206.882C34.9649 206.872 34.961 206.862 34.9554 206.855C34.9497 206.847 34.9426 206.842 34.9346 206.839C34.9267 206.835 34.9182 206.835 34.91 206.837Z" fill="#37474F"/>
    <path d="M65.1466 106.775C62.9008 107.77 60.7307 109.002 58.6611 110.457C58.6469 110.469 58.6365 110.486 58.6317 110.506C58.627 110.526 58.6282 110.548 58.6352 110.567C58.6421 110.586 58.6544 110.601 58.6698 110.611C58.6852 110.62 58.7028 110.622 58.7194 110.617C60.9055 109.474 63.1354 108.379 65.2632 107.065C65.2809 107.039 65.292 107.007 65.2952 106.973C65.2984 106.939 65.2936 106.905 65.2813 106.874C65.2691 106.844 65.2498 106.818 65.2259 106.801C65.2021 106.783 65.1745 106.774 65.1466 106.775Z" fill="#37474F"/>
    <path d="M62.0907 102.376C62.3093 100.79 62.4842 99.2033 62.5765 97.5991C62.804 94.6162 62.7763 91.6125 62.4939 88.6365C62.4939 88.6161 62.4873 88.5966 62.4754 88.5821C62.4636 88.5677 62.4475 88.5596 62.4308 88.5596C62.414 88.5596 62.3979 88.5677 62.3861 88.5821C62.3743 88.5966 62.3676 88.6161 62.3676 88.6365C62.4279 92.775 62.2298 96.913 61.7749 101.015C61.532 102.98 60.7159 105.952 62.4065 106.254C64.0971 106.556 65.2436 101.595 65.4573 100.233C65.9937 96.3599 66.1161 92.4181 65.8217 88.5063C65.8217 88.4116 65.6808 88.3938 65.6808 88.5063C65.6819 91.4718 65.5603 94.4354 65.3164 97.386C65.2144 98.7534 64.3108 106.337 62.3579 105.78C62.0324 105.691 61.8721 105.295 61.8138 104.697C61.8206 103.911 61.907 103.13 62.0713 102.37" fill="#37474F"/>
    <path d="M62.4308 105.994C62.2545 106.504 62.1068 107.028 61.9887 107.562C61.8643 107.975 61.8034 108.413 61.8089 108.853C61.8089 108.936 61.9061 108.947 61.945 108.888C62.1473 108.501 62.2996 108.077 62.3968 107.633C62.5474 107.148 62.7028 106.662 62.8388 106.171C62.8498 106.108 62.8417 106.042 62.8159 105.986C62.7901 105.93 62.7484 105.887 62.6985 105.865C62.6487 105.843 62.5941 105.844 62.5448 105.868C62.4956 105.892 62.4551 105.936 62.4308 105.994Z" fill="#37474F"/>
    <path d="M46.7392 86.7778C45.9853 88.3652 45.3605 90.0386 44.8737 91.7741C44.3742 93.506 44.0035 95.2891 43.7661 97.1019C43.6204 98.0017 43.5718 98.9134 43.4941 99.8191C43.4163 100.725 43.4018 101.648 43.4455 102.56C43.4774 104.385 43.6515 106.203 43.9653 107.988V108.048C43.3888 115.704 42.7913 123.356 42.1727 131.004C41.5541 138.653 40.9355 146.305 40.3169 153.961L40.2586 154.678L40.2295 155.039C40.2261 155.17 40.2048 155.3 40.1663 155.424C39.9991 155.882 39.8076 156.327 39.593 156.755C39.1995 157.59 38.7866 158.413 38.3737 159.23C37.5478 160.87 36.7025 162.498 35.8621 164.12C34.1715 167.364 32.4614 170.584 30.7271 173.804C27.2924 180.251 23.7946 186.65 20.292 193.044L30.455 173.591L35.5074 163.847C36.3462 162.221 37.1786 160.591 38.0045 158.958C38.4125 158.135 38.8206 157.312 39.2093 156.483C39.4025 156.1 39.5792 155.705 39.7388 155.299C39.7707 155.199 39.7872 155.093 39.7874 154.985L39.8165 154.624L39.87 153.908C40.4691 146.26 41.0893 138.613 41.7306 130.969C42.3719 123.325 43.0196 115.682 43.6738 108.042V108.095C43.3668 106.285 43.2041 104.443 43.188 102.595C43.175 101.673 43.2009 100.75 43.2657 99.8309C43.3629 98.9134 43.426 97.9958 43.5864 97.0901C43.856 95.2743 44.2576 93.4914 44.7863 91.7623C45.3024 90.0272 45.9565 88.3578 46.7392 86.7778Z" fill="#37474F"/>
    <path d="M68.2606 79.3191L69.0136 86.4761L43.5525 85.4993C43.5525 85.4993 44.835 62.6313 52.1755 54.0062C55.8434 49.6966 59.8755 50.33 62.2997 53.7042C62.9167 54.5626 70.1309 66.0529 70.7187 70.9071C71.2288 75.1871 68.2606 79.3191 68.2606 79.3191Z" fill="#455A64"/>
    <path d="M64.3789 76.9039C63.1519 77.0237 61.935 77.2652 60.7402 77.6261C60.1475 77.8155 59.5597 78.0405 58.9767 78.2891C58.6852 78.4075 58.3938 78.52 58.1023 78.6265C57.7987 78.747 57.4835 78.8186 57.1647 78.8396C57.1582 78.8396 57.152 78.8428 57.1475 78.8483C57.1429 78.8539 57.1404 78.8614 57.1404 78.8692C57.1404 78.8771 57.1429 78.8846 57.1475 78.8902C57.152 78.8957 57.1582 78.8988 57.1647 78.8988C57.4639 78.9255 57.7642 78.9255 58.0634 78.8988C58.3538 78.8581 58.6412 78.7908 58.9233 78.6976C59.5305 78.5141 60.1281 78.2891 60.7305 78.1056C61.945 77.7149 63.1595 77.3242 64.3935 77.0519C64.4517 77.0282 64.4372 76.898 64.3789 76.9039Z" fill="#263238"/>
    <path d="M67.3716 78.4428C66.3682 78.2779 65.3575 78.187 64.345 78.1705C63.8592 78.1705 63.3394 78.206 62.8342 78.2593C62.5913 78.2593 62.3484 78.3185 62.1103 78.354C61.8723 78.3896 61.5857 78.4784 61.3185 78.5139C61.312 78.5139 61.3059 78.517 61.3013 78.5225C61.2967 78.5281 61.2942 78.5356 61.2942 78.5435C61.2942 78.5513 61.2967 78.5589 61.3013 78.5644C61.3059 78.57 61.312 78.5731 61.3185 78.5731C61.5711 78.5731 61.8043 78.5731 62.0763 78.5731H62.839C63.3249 78.5731 63.8495 78.5731 64.3548 78.5731C65.3652 78.5731 66.3709 78.5435 67.3813 78.5731C67.4251 78.5553 67.4251 78.4488 67.3716 78.4428Z" fill="#263238"/>
    <path d="M54.7308 85.5939C54.7824 85.7119 54.8392 85.8265 54.9008 85.9372H55.3234C55.1395 85.7906 54.9402 85.6751 54.7308 85.5939ZM61.9498 53.9408C61.6649 53.6356 61.3353 53.3986 60.9782 53.2423C61.3505 54.0582 61.9476 54.6873 62.664 55.0182C62.4862 54.6055 62.2436 54.2394 61.9498 53.9408ZM46.4041 71.7534C46.1553 72.1022 45.961 72.5034 45.8308 72.9374C46.163 72.719 46.4581 72.4257 46.7004 72.0731C46.9492 71.7244 47.1435 71.3232 47.2737 70.8891C46.9336 71.1033 46.6315 71.397 46.3846 71.7534H46.4041ZM51.952 55.4326C51.7035 55.7806 51.5107 56.1821 51.3836 56.6166C51.7135 56.3941 52.0067 56.0991 52.2483 55.7464C52.4991 55.3984 52.6951 54.997 52.8264 54.5624C52.4875 54.7839 52.1846 55.0787 51.9325 55.4326H51.952ZM60.1475 69.9183C59.8983 70.2677 59.7025 70.6687 59.5694 71.1023C59.9022 70.88 60.1986 70.585 60.4438 70.2321C60.6933 69.885 60.8863 69.4832 61.0122 69.0481C60.6763 69.2697 60.3766 69.5647 60.1281 69.9183H60.1475ZM53.7494 75.0507C53.3723 75.0815 53.0032 75.198 52.6612 75.3941C53.0238 75.5216 53.4027 75.5658 53.7786 75.5243C54.1565 75.4999 54.5266 75.3832 54.8668 75.181C54.498 75.0502 54.1123 75.006 53.73 75.0507H53.7494ZM68.8094 71.4278C68.4324 71.4594 68.0634 71.5759 67.7212 71.7712C68.4538 72.016 69.2336 71.9428 69.9268 71.564C69.5557 71.4271 69.166 71.3808 68.7803 71.4278H68.8094ZM59.3459 60.1803C58.9677 60.2075 58.5978 60.3262 58.2577 60.5295C58.62 60.6588 58.9995 60.701 59.3751 60.6539C59.7518 60.6244 60.1208 60.51 60.4633 60.3164C60.0907 60.1889 59.7016 60.1487 59.3168 60.198L59.3459 60.1803ZM63.7473 80.6213C63.7264 80.1616 63.6324 79.7112 63.4704 79.2952C63.2613 80.1875 63.3234 81.1418 63.6453 81.9828C63.7397 81.5446 63.7644 81.0885 63.7182 80.639L63.7473 80.6213ZM47.5117 81.6513C47.4818 81.192 47.3847 80.7429 47.2251 80.3253C47.0289 81.2191 47.0907 82.1679 47.4 83.0128C47.4922 82.5743 47.5202 82.1194 47.4825 81.669L47.5117 81.6513ZM67.2111 62.9862C67.2111 62.8738 67.2111 62.7613 67.1771 62.6488C67.0848 62.3588 66.9925 62.0569 66.905 61.7905C66.8226 62.1967 66.7947 62.6165 66.8225 63.0336C66.8489 63.4929 66.9445 63.9424 67.1042 64.3596C67.2096 63.9139 67.2459 63.4482 67.2111 62.9862ZM52.909 65.7093C52.8883 65.247 52.7926 64.7943 52.6272 64.3774C52.4246 65.2725 52.4865 66.2258 52.8021 67.0709C52.9129 66.6304 52.9557 66.1688 52.9284 65.7093H52.909Z" fill="white"/>
    <path d="M56.4554 53.5323C56.5866 54.1243 59.0788 58.0136 61.3718 57.8005C62.1151 57.7235 61.9742 52.7509 61.9742 52.7509L62.0325 52.3839L62.8486 47.1982L57.7914 43.5042L57.0578 43.0188C57.0578 43.0188 56.9121 44.4514 56.7469 46.2451C56.7469 46.3279 56.7469 46.4108 56.7226 46.4996C56.6983 46.5884 56.7226 46.695 56.6886 46.7897C56.6643 47.0561 56.6352 47.3284 56.6109 47.6007C56.5866 47.873 56.5769 48.0092 56.5623 48.2282L56.5186 48.8794C56.4099 50.4267 56.3888 51.9814 56.4554 53.5323Z" fill="#D3766A"/>
    <path d="M62.839 47.1982L62.0568 52.1767C59.7546 51.2877 57.8272 49.3405 56.6838 46.7483L56.7373 46.2451C56.9073 44.4691 57.053 43.0188 57.053 43.0188L57.7818 43.5042L62.839 47.1982Z" fill="#263238"/>
    <path d="M68.6394 39.9227C68.79 49.1812 64.2671 50.3355 62.6202 50.371C61.1337 50.4066 56.0667 50.2941 55.1291 41.1066C54.1915 31.9191 57.6747 28.9 61.0754 28.5981C64.476 28.2962 68.4888 30.6641 68.6394 39.9227Z" fill="#D3766A"/>
    <path d="M67.4879 38.5081C67.3131 38.4725 67.1527 38.4074 67.0021 38.3542C66.8193 38.3299 66.6483 38.232 66.5163 38.0759C66.4801 38.0181 66.4604 37.9474 66.4604 37.8746C66.4604 37.8019 66.4801 37.7312 66.5163 37.6734C66.6056 37.577 66.7143 37.5114 66.8313 37.4833C66.9483 37.4552 67.0693 37.4657 67.1819 37.5135C67.4237 37.5647 67.6406 37.7254 67.7891 37.9634C67.8238 38.0214 67.8431 38.091 67.8441 38.1628C67.8452 38.2345 67.8282 38.3049 67.7953 38.3644C67.7623 38.424 67.7152 38.4697 67.6602 38.4954C67.6052 38.5211 67.5451 38.5255 67.4879 38.5081Z" fill="#C7C7C7"/>
    <path d="M62.3532 38.289C62.533 38.289 62.6981 38.2179 62.873 38.1824C63.0593 38.171 63.2378 38.0881 63.3831 37.9456C63.4186 37.8874 63.4378 37.8168 63.4378 37.7443C63.4378 37.6718 63.4186 37.6013 63.3831 37.5431C63.2998 37.4386 63.195 37.3632 63.0797 37.3247C62.9644 37.2862 62.8427 37.286 62.7273 37.324C62.4843 37.3587 62.2599 37.4997 62.0957 37.7207C62.0617 37.7754 62.0414 37.8411 62.0374 37.9096C62.0333 37.9781 62.0457 38.0466 62.0729 38.1068C62.1002 38.1669 62.1412 38.2161 62.1909 38.2485C62.2407 38.2808 62.297 38.2949 62.3532 38.289Z" fill="#C7C7C7"/>
    <path d="M63.388 39.9999C63.388 39.9999 63.3491 39.9999 63.3491 40.0532C63.3491 40.6866 63.2859 41.4088 62.8147 41.6101C62.8147 41.6101 62.8147 41.6515 62.8147 41.6456C63.3879 41.5568 63.4803 40.5919 63.388 39.9999Z" fill="#263238"/>
    <path d="M62.9311 39.3308C62.1004 39.242 62.0178 41.2784 62.7854 41.3613C63.553 41.4442 63.6307 39.4078 62.9311 39.3308Z" fill="#263238"/>
    <path d="M62.6009 39.4197C62.4503 39.5263 62.2997 39.7216 62.1151 39.7335C61.9304 39.7453 61.7653 39.5204 61.6292 39.3073C61.6292 39.3073 61.605 39.3073 61.6001 39.3073C61.6001 39.692 61.6875 40.1005 62.0276 40.1834C62.3677 40.2663 62.5766 39.9229 62.6737 39.5381C62.7077 39.4908 62.664 39.3783 62.6009 39.4197Z" fill="#263238"/>
    <path d="M66.2881 40.0946C66.2881 40.0946 66.327 40.1301 66.327 40.1538C66.2881 40.7813 66.327 41.5094 66.8128 41.7462V41.7758C66.2395 41.6515 66.1715 40.6866 66.2881 40.0946Z" fill="#263238"/>
    <path d="M66.7691 39.4613C67.6047 39.4258 67.6047 41.4562 66.8323 41.4918C66.0599 41.5273 66.0696 39.4909 66.7691 39.4613Z" fill="#263238"/>
    <path d="M67.1189 39.5972C67.25 39.7038 67.3812 39.8991 67.5415 39.911C67.7018 39.9228 67.8573 39.7038 67.9739 39.4966H67.9982C67.9982 39.8873 67.9059 40.2898 67.595 40.3668C67.284 40.4437 67.1092 40.1004 67.0363 39.7156C67.0217 39.6623 67.0654 39.5499 67.1189 39.5972Z" fill="#263238"/>
    <path d="M63.3637 43.5042C63.4991 43.7422 63.6734 43.9435 63.8757 44.0953C64.0781 44.2471 64.304 44.3462 64.5394 44.3863C64.7456 44.4217 64.955 44.4217 65.1612 44.3863H65.2778H65.3895C65.4166 44.3775 65.4406 44.3583 65.4581 44.3317C65.4755 44.3051 65.4856 44.2723 65.4867 44.2383C65.4891 44.2167 65.4891 44.1948 65.4867 44.1732V44.1199C65.4867 43.6463 65.4236 42.9359 65.4236 42.9359C65.5693 43.0188 66.3077 43.3858 66.2883 43.1372C66.1801 40.9999 65.8937 38.8815 65.4333 36.8149C65.4301 36.803 65.4239 36.7927 65.4156 36.7854C65.4073 36.7781 65.3973 36.7742 65.3871 36.7742C65.3769 36.7742 65.3669 36.7781 65.3586 36.7854C65.3503 36.7927 65.3442 36.803 65.341 36.8149C65.4333 38.7921 65.8268 40.7338 65.9239 42.7347C65.6615 42.6008 65.3852 42.5112 65.1029 42.4683C65.0495 42.4683 65.2389 43.8594 65.2244 44.0725C64.9067 44.1266 64.5834 44.102 64.2737 44.0003C63.964 43.8986 63.6744 43.7218 63.422 43.4805C63.3734 43.3977 63.3249 43.4569 63.3637 43.5042Z" fill="#263238"/>
    <g opacity="0.2">
        <path d="M63.9758 36.1102C64.3012 36.1084 64.626 36.0767 64.9475 36.0155C65.2729 35.9445 65.579 35.7906 65.9191 35.7255C66.5391 35.6334 67.1676 35.6775 67.7748 35.8557C67.8283 35.8557 67.8234 35.9149 67.7748 35.903C67.132 35.7488 66.4696 35.7629 65.8316 35.9445C65.3188 36.1435 64.7858 36.2551 64.2479 36.276C63.0214 36.186 61.8032 36.5737 60.7695 37.383C61.7132 36.586 62.828 36.1435 63.9758 36.1102Z" fill="black"/>
        <path d="M63.8108 35.0687C64.1181 35.0629 64.4248 35.0333 64.729 34.9799C65.0399 34.903 65.3314 34.7609 65.6374 34.6958C66.2253 34.6124 66.8207 34.6565 67.396 34.826C67.4495 34.826 67.4446 34.8793 67.396 34.8675C66.7853 34.721 66.1559 34.7351 65.55 34.9089C65.0619 35.096 64.5553 35.2015 64.044 35.2227C62.8804 35.137 61.7248 35.5062 60.7454 36.2764C61.6461 35.5119 62.7133 35.0915 63.8108 35.0687Z" fill="black"/>
    </g>
    <path d="M55.4498 42.2731C56.7275 42.3264 56.9073 39.0587 56.9073 39.0587C56.9073 39.0587 59.4917 38.9344 60.1816 34.3643C60.1564 35.7241 59.8051 37.0453 59.1711 38.1648C59.1711 38.1648 63.7085 37.336 65.4866 32.5943C65.4866 32.5943 64.8016 34.9977 64.1166 35.8798C65.258 35.3898 66.2292 34.4422 66.8711 33.1922C66.8711 33.1922 67.7601 35.8265 68.4014 36.5368C68.4014 36.5368 69.373 23.8271 59.3363 28.4564C59.3363 28.4564 55.1486 28.6458 53.6475 33.1922C52.1464 37.7386 55.4498 42.2731 55.4498 42.2731Z" fill="#C7C7C7"/>
    <path d="M56.3487 41.7877C56.3487 41.7877 54.8475 38.7686 53.735 39.4198C52.6225 40.0709 53.6379 44.3332 54.867 45.008C55.0202 45.108 55.1885 45.1691 55.3617 45.1877C55.5349 45.2063 55.7094 45.1819 55.8746 45.1161C56.0399 45.0503 56.1925 44.9443 56.3232 44.8047C56.4539 44.665 56.5601 44.4946 56.6353 44.3036L56.3487 41.7877Z" fill="#D3766A"/>
    <path d="M54.051 40.6216C54.051 40.6216 54.051 40.6216 54.051 40.6571C54.9109 41.1662 55.319 42.2022 55.591 43.2677C55.5453 43.1555 55.4802 43.0567 55.4002 42.9779C55.3203 42.8992 55.2273 42.8425 55.1277 42.8115C55.028 42.7806 54.9241 42.7763 54.823 42.7988C54.7218 42.8214 54.6259 42.8703 54.5417 42.9421C54.5417 42.9421 54.5417 43.0072 54.566 43.0072C54.7237 42.9589 54.8899 42.9717 55.0414 43.0439C55.193 43.116 55.3222 43.2439 55.4113 43.4098C55.5602 43.6888 55.6839 43.9865 55.7805 44.2978C55.8194 44.3984 55.9651 44.357 55.9408 44.2445C56.038 42.8474 55.2558 40.8584 54.051 40.6216Z" fill="#263238"/>
    <path d="M55.7609 44.6349C55.7584 44.6948 55.7462 44.7535 55.7251 44.8077C55.704 44.8618 55.6743 44.9104 55.6377 44.9505C55.6012 44.9907 55.5585 45.0216 55.5121 45.0416C55.4657 45.0616 55.4165 45.0703 55.3674 45.0671C55.2677 45.0595 55.1745 45.0042 55.1081 44.9133C55.0417 44.8224 55.0074 44.7032 55.0127 44.5817C55.0158 44.5218 55.0286 44.4632 55.0503 44.4093C55.072 44.3554 55.1023 44.3073 55.1393 44.2677C55.1763 44.2281 55.2193 44.1978 55.266 44.1785C55.3126 44.1593 55.362 44.1514 55.4111 44.1554C55.4601 44.1584 55.508 44.1733 55.5522 44.1991C55.5964 44.225 55.6359 44.2612 55.6685 44.3059C55.701 44.3505 55.726 44.4026 55.7418 44.4591C55.7577 44.5156 55.7642 44.5754 55.7609 44.6349Z" fill="white"/>
    <path d="M72.1666 93.0825H106.557L97.3216 62.1636H62.9314L72.1666 93.0825Z" fill="#3656D7"/>
    <path d="M83.9956 58.9609H96.3642L97.3212 62.1635H84.2434L83.9956 58.9609Z" fill="#3656D7"/>
    <g opacity="0.2">
        <path d="M72.1666 93.0825H106.557L97.3216 62.1636H62.9314L72.1666 93.0825Z" fill="black"/>
        <path d="M83.9958 58.9609H96.3645L97.3215 62.1635H84.2436L83.9958 58.9609Z" fill="black"/>
    </g>
    <path d="M69.6743 73.1089L94.1103 89.85L111.74 51.626L93.6002 39.2004L83.9473 42.1722L69.6743 73.1089Z" fill="#EBEBEB"/>
    <path d="M93.6002 39.2004L83.9473 42.1722L90.2384 46.4818L93.6002 39.2004Z" fill="#DBDBDB"/>
    <path d="M106.405 56.4055L92.8193 47.1002L92.3671 48.0807L105.953 57.3859L106.405 56.4055Z" fill="#DBDBDB"/>
    <path d="M105.26 58.8784L91.6748 49.5731L91.2225 50.5536L104.808 59.8588L105.26 58.8784Z" fill="#DBDBDB"/>
    <path d="M104.118 61.3596L90.5325 52.0543L90.0802 53.0348L103.666 62.34L104.118 61.3596Z" fill="#DBDBDB"/>
    <path d="M102.971 63.8375L83.0674 50.2045L82.6151 51.185L102.519 64.8179L102.971 63.8375Z" fill="#DBDBDB"/>
    <path d="M101.831 66.3132L81.9272 52.6802L81.475 53.6607L101.379 67.2936L101.831 66.3132Z" fill="#DBDBDB"/>
    <path d="M100.476 68.6318L80.6118 54.9985L80.1595 55.9771L100.024 69.6103L100.476 68.6318Z" fill="#DBDBDB"/>
    <path d="M99.5488 71.2703L79.6448 57.6373L79.1925 58.6178L99.0965 72.2508L99.5488 71.2703Z" fill="#DBDBDB"/>
    <path d="M98.4038 73.746L78.4998 60.113L78.0475 61.0935L97.9515 74.7265L98.4038 73.746Z" fill="#DBDBDB"/>
    <path d="M97.2573 76.2242L77.3533 62.5912L76.901 63.5717L96.805 77.2047L97.2573 76.2242Z" fill="#DBDBDB"/>
    <path d="M96.1172 78.7L76.2131 65.067L75.7609 66.0475L95.6649 79.6805L96.1172 78.7Z" fill="#DBDBDB"/>
    <path d="M94.9748 81.1812L75.0708 67.5482L74.6185 68.5287L94.5226 82.1617L94.9748 81.1812Z" fill="#DBDBDB"/>
    <path d="M93.8347 83.6568L73.9307 70.0238L73.4784 71.0043L93.3824 84.6373L93.8347 83.6568Z" fill="#DBDBDB"/>
    <path d="M72.0305 93.0823H106.421L109.122 64.7266H74.7316L72.0305 93.0823Z" fill="#3656D7"/>
    <path opacity="0.1" d="M72.0305 93.0823H106.421L109.122 64.7266H74.7316L72.0305 93.0823Z" fill="black"/>
    <path d="M97.0299 61.7903H109.398L109.122 64.7265H96.0388L97.0299 61.7903Z" fill="#3656D7"/>
    <path opacity="0.1" d="M97.0299 61.7903H109.398L109.122 64.7265H96.0388L97.0299 61.7903Z" fill="black"/>
    <path d="M50.2711 62.6488C50.7958 67.5385 54.6434 86.2569 58.044 90.9216C60.2593 93.9585 74.678 98.1911 78.5547 99.6237C80.2259 100.216 84.2969 84.9131 82.4412 84.8835C81.0712 84.8835 66.1084 79.8517 64.8113 79.2242C64.8113 79.2242 59.346 68.4561 55.853 61.4056C52.5593 54.74 49.2947 53.5205 50.2711 62.6488Z" fill="#D3766A"/>
    <path d="M87.7998 88.5952C87.1342 88.0032 87.3917 87.5651 88.8588 87.5178C90.326 87.4704 96.1848 88.7905 96.3888 86.2628C96.5929 83.7351 88.3147 82.0124 85.8711 82.3261C83.4275 82.6399 79.5557 84.185 79.5557 84.185C81.1248 84.9131 84.7635 87.1212 87.7998 88.5952Z" fill="#D3766A"/>
    <path d="M76.4414 98.6528C80.8865 100.506 86.3275 103.152 91.5014 101.855C92.0819 101.733 92.6111 101.374 93.0025 100.837C95.3392 100.304 95.8348 98.8008 95.8348 98.8008C97.8897 97.4984 98.2249 95.8764 98.2249 95.8764C98.2249 95.8764 100.96 95.2193 100.911 93.1356C100.858 90.7677 97.025 92.1825 94.5328 91.3596C88.8294 89.5008 81.144 84.913 79.5457 84.179L76.4414 98.6528Z" fill="#D3766A"/>
    <path d="M87.4546 94.5386C89.1188 95.109 90.8134 95.5382 92.5264 95.8232C94.4135 95.9949 96.3085 95.9949 98.1957 95.8232C98.2054 95.8271 98.2139 95.8346 98.2199 95.8447C98.2259 95.8548 98.2291 95.867 98.2291 95.8794C98.2291 95.8919 98.2259 95.9041 98.2199 95.9142C98.2139 95.9243 98.2054 95.9318 98.1957 95.9357C94.5738 96.7082 90.8474 96.2578 87.4205 94.6333C87.3574 94.5919 87.3671 94.5149 87.4546 94.5386Z" fill="#263238"/>
    <path d="M86.0314 98.57C87.6977 98.9548 90.6272 99.6 95.8544 98.7358C95.8544 98.7358 95.8544 98.7654 95.8544 98.7713C92.6279 99.8535 89.2174 99.8166 86.0071 98.6647C85.9148 98.6351 85.9197 98.5463 86.0314 98.57Z" fill="#263238"/>
    <path d="M85.3024 100.754C88.1541 101.275 90.005 101.163 93.017 100.819C93.017 100.819 93.017 100.855 93.017 100.861C89.6164 101.684 88.3193 101.512 85.2684 100.861C85.1859 100.849 85.1859 100.737 85.3024 100.754Z" fill="#263238"/>
    <path d="M61.2748 70.2025L52.336 79.2242C52.336 79.2242 49.6835 64.0104 49.9409 59.2687C50.2276 53.9409 52.404 55.2787 55.1828 59.0733C57.9616 62.8679 61.2748 70.2025 61.2748 70.2025Z" fill="#455A64"/>
    <path d="M52.9283 65.7093C52.9076 65.247 52.8119 64.7943 52.6465 64.3774C52.4439 65.2724 52.5058 66.2258 52.8214 67.0709C52.9256 66.6289 52.9619 66.1673 52.9283 65.7093ZM53.7299 75.0507C53.3528 75.0815 52.9837 75.198 52.6417 75.3941C53.0043 75.5216 53.3832 75.5658 53.759 75.5243C54.137 75.4999 54.5071 75.3832 54.8472 75.181C54.4847 75.0532 54.1057 75.009 53.7299 75.0507ZM60.8032 69.1902C60.552 69.3943 60.3248 69.6393 60.1279 69.9183C59.8788 70.2677 59.683 70.6687 59.5498 71.1022C59.8826 70.88 60.1791 70.585 60.4243 70.232C60.6146 69.9714 60.7778 69.6831 60.9101 69.3737L60.8032 69.1902ZM51.7235 55.77C51.5685 56.0279 51.4473 56.3135 51.364 56.6166C51.6417 56.4329 51.8914 56.1926 52.1024 55.9062C51.9808 55.8435 51.8536 55.7978 51.7235 55.77Z" fill="white"/>
    <path d="M52.2777 76.0215C52.5498 75.6485 55.2946 72.7834 55.9067 72.1795C56.5188 71.5757 58.9819 69.0598 59.6523 68.4974C59.6814 68.4974 59.7203 68.4974 59.6911 68.5507C59.1227 69.2552 56.6403 71.7947 56.0282 72.4282C55.416 73.0616 52.6275 75.8261 52.3117 76.0747C52.2826 76.0984 52.2583 76.0452 52.2777 76.0215Z" fill="#263238"/>
    <path d="M60.5606 70.9129C60.8132 70.6169 61.2213 70.1729 61.2213 70.1729C60.5849 68.7285 56.8102 61.7787 55.926 60.1093C55.926 60.0797 55.926 60.0561 55.96 60.0797C56.509 61.0032 57.058 61.9267 57.5972 62.8502C57.5438 62.72 57.4952 62.5897 57.4466 62.4595C57.262 61.9977 57.092 61.5301 56.8976 61.0743C56.8976 61.0387 56.9268 61.0032 56.9462 61.0387C57.1767 61.4732 57.386 61.9239 57.5729 62.3884C57.6992 62.72 57.8012 63.0574 57.9081 63.3948C58.2142 63.9335 58.5251 64.4604 58.8214 65.005C59.7299 66.6803 60.7258 68.3733 61.5274 70.1256C61.2435 70.4565 60.9344 70.7538 60.6043 71.0136C60.5934 71.0206 60.5806 71.0221 60.5687 71.0177C60.5569 71.0132 60.547 71.0032 60.5412 70.9899C60.5354 70.9765 60.5342 70.9609 60.5378 70.9465C60.5415 70.9321 60.5497 70.92 60.5606 70.9129Z" fill="#263238"/>
    <path d="M53.2004 78.3539C52.9332 78.6736 52.6563 78.9814 52.3843 79.3011L52.2968 79.4017L52.2579 79.2478C51.812 77.4562 51.4551 75.6336 51.1892 73.7897C51.058 72.8663 50.9366 71.9428 50.854 71.0134C50.7714 70.084 50.6888 69.1546 50.6548 68.2192C50.82 69.1309 50.9608 70.0485 51.1066 70.966L51.5438 73.7128L52.4134 79.2004L52.2871 79.1531C52.5883 78.9163 52.8895 78.6084 53.2004 78.3539Z" fill="#263238"/>
    <path d="M51.0727 71.718C50.8398 71.4504 50.6618 71.1199 50.5528 70.7531C50.4946 70.5752 50.4507 70.3908 50.4217 70.2026C50.3875 70.0082 50.3761 69.8089 50.3877 69.6106C50.5399 69.9385 50.6699 70.281 50.7763 70.6347C50.8921 70.9886 50.9911 71.3503 51.0727 71.718Z" fill="#263238"/>
    <path d="M62.0132 52.621L60.8959 56.9188L56.3293 52.0054L55.2217 53.7813C55.2217 53.7813 59.8757 61.8085 59.8806 61.4297L61.0805 57.7061L63.2666 60.0326L62.7371 53.7635L62.0132 52.621Z" fill="#455A64"/>
    <path d="M63.1353 56.9424C63.0187 55.9124 62.9215 54.8646 62.7661 53.8404C62.7661 53.8049 62.7126 53.7931 62.7078 53.8404C62.596 54.8527 63.0575 58.7953 63.111 59.7602C63.0187 59.6596 61.0949 57.7179 61.0755 57.7534C60.8034 58.3454 59.9192 61.0626 59.8658 61.3053C59.1274 60.0325 56.0279 55.0185 55.1729 53.8227C55.1729 53.8227 55.1049 53.8227 55.1243 53.8641C55.7899 55.2257 59.8026 61.844 59.8561 61.8203C60.3287 60.537 60.747 59.225 61.1095 57.8896C61.4398 58.3217 63.3976 60.5239 63.3976 60.3699C63.3685 59.3044 63.247 57.9724 63.1353 56.9424Z" fill="#263238"/>
</svg>
