<svg width="388" height="288" viewBox="0 0 388 288" fill="none" xmlns="http://www.w3.org/2000/svg">
    <path d="M350.698 267.751H324.881V267.946H350.698V267.751Z" fill="#EBEBEB"/>
    <path d="M258.187 269.871H251.413V270.066H258.187V269.871Z" fill="#EBEBEB"/>
    <path d="M324.101 260.517H309.143V260.712H324.101V260.517Z" fill="#EBEBEB"/>
    <path d="M74.5594 261.827H40.8927V262.022H74.5594V261.827Z" fill="#EBEBEB"/>
    <path d="M86.4389 261.827H81.5046V262.022H86.4389V261.827Z" fill="#EBEBEB"/>
    <path d="M175.505 265.116H102.481V265.311H175.505V265.116Z" fill="#EBEBEB"/>
    <path d="M184.742 220.443H34.2357C33.0553 220.443 31.9232 219.974 31.0884 219.139C30.2537 218.305 29.7848 217.173 29.7848 215.992V4.41198C29.7951 3.23828 30.2685 2.11615 31.1021 1.28985C31.9357 0.46354 33.062 -4.49975e-05 34.2357 3.27589e-09H184.742C185.922 3.2759e-09 187.055 0.468939 187.889 1.30365C188.724 2.13837 189.193 3.27049 189.193 4.45095V215.992C189.193 217.173 188.724 218.305 187.889 219.139C187.055 219.974 185.922 220.443 184.742 220.443ZM34.2357 0.155901C33.1076 0.157961 32.0262 0.607029 31.2285 1.40475C30.4308 2.20248 29.9817 3.28383 29.9797 4.41198V215.992C29.9817 217.12 30.4308 218.202 31.2285 218.999C32.0262 219.797 33.1076 220.246 34.2357 220.248H184.742C185.87 220.246 186.951 219.797 187.749 218.999C188.547 218.202 188.996 217.12 188.998 215.992V4.41198C188.996 3.28383 188.547 2.20248 187.749 1.40475C186.951 0.607029 185.87 0.157961 184.742 0.155901H34.2357Z" fill="#EBEBEB"/>
    <path d="M353.356 220.443H202.834C201.654 220.441 200.523 219.971 199.689 219.137C198.855 218.303 198.385 217.172 198.383 215.992V4.41198C198.395 3.23892 198.87 2.11797 199.703 1.2921C200.536 0.466227 201.661 0.0019864 202.834 0H353.356C354.527 0.00405691 355.649 0.469454 356.479 1.29532C357.31 2.12119 357.781 3.24097 357.791 4.41198V215.992C357.791 217.17 357.324 218.3 356.493 219.134C355.662 219.968 354.534 220.439 353.356 220.443ZM202.834 0.155901C201.706 0.157961 200.625 0.607029 199.827 1.40475C199.029 2.20248 198.58 3.28383 198.578 4.41198V215.992C198.58 217.12 199.029 218.202 199.827 218.999C200.625 219.797 201.706 220.246 202.834 220.248H353.356C354.484 220.246 355.565 219.797 356.363 218.999C357.161 218.202 357.61 217.12 357.612 215.992V4.41198C357.61 3.28383 357.161 2.20248 356.363 1.40475C355.565 0.607029 354.484 0.157961 353.356 0.155901H202.834Z" fill="#EBEBEB"/>
    <path d="M389.751 255.209H0V255.404H389.751V255.209Z" fill="#EBEBEB"/>
    <path d="M117.549 124.658L71.3244 135.633C71.1345 135.678 70.9375 135.686 70.7449 135.654C70.5522 135.623 70.3676 135.554 70.2017 135.451C70.0358 135.348 69.8919 135.214 69.7782 135.055C69.6646 134.896 69.5834 134.717 69.5393 134.526L54.8613 72.7275C54.7698 72.3441 54.8342 71.94 55.0402 71.6039C55.2463 71.2678 55.5772 71.0271 55.9604 70.9347L84.4356 64.1764L108.226 78.9869L118.656 122.888C118.742 123.27 118.674 123.67 118.467 124.001C118.26 124.333 117.93 124.569 117.549 124.658Z" fill="#F0F0F0"/>
    <path d="M108.226 78.9713L84.4356 64.1764L82.9233 64.535L88.528 88.1305L109.232 83.2118L108.226 78.9713Z" fill="#E6E6E6"/>
    <path d="M108.187 78.8076L88.9958 83.3677L84.4357 64.1764L108.187 78.8076Z" fill="#FAFAFA"/>
    <path d="M101.975 86.1719L67.7863 94.2917L72.9322 115.959L107.121 107.84L101.975 86.1719Z" fill="#E6E6E6"/>
    <path d="M80.7486 106.238L75.0739 115.452L89.9623 111.913L80.7486 106.238Z" fill="#FAFAFA"/>
    <path d="M86.6105 112.708L107.119 107.836L106.651 105.864L95.185 98.8018L86.6105 112.708Z" fill="#FAFAFA"/>
    <path d="M86.9456 97.8742C87.1187 98.5976 87.0733 99.356 86.8151 100.054C86.5568 100.751 86.0974 101.356 85.4949 101.792C84.8924 102.229 84.1741 102.476 83.4308 102.504C82.6875 102.531 81.9528 102.338 81.3197 101.947C80.6866 101.557 80.1836 100.987 79.8744 100.311C79.5652 99.6344 79.4638 98.8814 79.5829 98.1472C79.7021 97.413 80.0364 96.7307 80.5437 96.1867C81.0509 95.6427 81.7082 95.2615 82.4323 95.0914C83.3998 94.862 84.4188 95.0263 85.2652 95.5481C86.1116 96.07 86.7161 96.9067 86.9456 97.8742Z" fill="#FAFAFA"/>
    <path d="M316.563 73.0082L282.842 57.3012C282.702 57.2368 282.576 57.1451 282.472 57.0314C282.368 56.9178 282.287 56.7845 282.235 56.6394C282.182 56.4943 282.16 56.3402 282.168 56.1861C282.176 56.0321 282.214 55.8812 282.281 55.7422L303.281 10.648C303.346 10.5086 303.438 10.3834 303.552 10.2797C303.666 10.176 303.799 10.0958 303.944 10.0436C304.089 9.99146 304.242 9.96843 304.396 9.97584C304.55 9.98326 304.701 10.021 304.84 10.0868L325.598 19.776L333.027 40.4172L318.107 72.4469C317.977 72.726 317.741 72.9419 317.451 73.0471C317.162 73.1524 316.843 73.1384 316.563 73.0082Z" fill="#EBEBEB"/>
    <path d="M333.026 40.4172L325.598 19.776L324.499 19.2693L316.478 36.4807L331.584 43.5118L333.026 40.4172Z" fill="#E0E0E0"/>
    <path d="M333.081 40.3003L319.073 33.7836L325.598 19.776L333.081 40.3003Z" fill="#F5F5F5"/>
    <path d="M318.091 60.2243L293.147 48.6019C291.464 47.8224 289.99 50.3169 291.682 51.1041L316.626 62.7187C318.31 63.4982 319.783 61.0116 318.091 60.2243Z" fill="#FAFAFA"/>
    <path d="M299.056 35.2958L324 46.9182C325.676 47.6977 327.118 45.2033 325.457 44.416L300.513 32.8014C298.837 32.0219 297.395 34.5085 299.056 35.2958Z" fill="#FAFAFA"/>
    <path d="M295.197 43.4105L320.141 55.0328C321.817 55.8123 323.259 53.3179 321.599 52.5306L296.655 40.916C294.979 40.1365 293.537 42.6232 295.197 43.4105Z" fill="#FAFAFA"/>
    <path d="M236.189 213.864L235.409 211.315C235.282 210.899 235.046 210.525 234.725 210.232C234.404 209.939 234.011 209.737 233.585 209.647L214.784 205.633C214.472 205.566 214.15 205.562 213.837 205.62C213.524 205.678 213.225 205.798 212.958 205.972C212.691 206.145 212.46 206.37 212.28 206.633C212.1 206.896 211.973 207.192 211.908 207.503L204.229 243.446C204.093 244.1 204.22 244.782 204.584 245.342C204.947 245.903 205.517 246.297 206.17 246.439L248.903 255.552C249.557 255.691 250.239 255.564 250.801 255.2C251.362 254.836 251.756 254.265 251.896 253.611L258.584 222.244C258.652 221.931 258.657 221.609 258.599 221.295C258.541 220.98 258.422 220.681 258.248 220.413C258.074 220.145 257.849 219.914 257.586 219.733C257.322 219.552 257.026 219.425 256.713 219.36L237.748 215.314C237.383 215.231 237.047 215.054 236.773 214.799C236.5 214.544 236.298 214.222 236.189 213.864Z" fill="#E0E0E0"/>
    <path d="M256.729 219.36L237.927 215.353C237.503 215.262 237.063 215.286 236.652 215.423C236.24 215.56 235.873 215.805 235.589 216.132L233.85 218.151C233.603 218.434 233.285 218.646 232.929 218.766C232.573 218.885 232.191 218.907 231.824 218.829L212.851 214.784C212.221 214.65 211.564 214.77 211.024 215.119C210.483 215.469 210.103 216.018 209.967 216.647L204.229 243.446C204.093 244.1 204.22 244.782 204.584 245.342C204.947 245.903 205.517 246.297 206.17 246.439L248.903 255.552C249.557 255.691 250.239 255.564 250.801 255.2C251.362 254.836 251.756 254.265 251.896 253.611L258.584 222.244C258.652 221.932 258.657 221.611 258.601 221.298C258.544 220.984 258.426 220.685 258.254 220.417C258.082 220.149 257.858 219.918 257.597 219.737C257.335 219.555 257.04 219.427 256.729 219.36Z" fill="#F0F0F0"/>
    <path d="M191.118 287.41C274.589 287.41 342.256 283.459 342.256 278.586C342.256 273.713 274.589 269.762 191.118 269.762C107.647 269.762 39.9806 273.713 39.9806 278.586C39.9806 283.459 107.647 287.41 191.118 287.41Z" fill="#F5F5F5"/>
    <path d="M284.136 45.5696H101.858C96.7388 45.5696 92.5892 49.7192 92.5892 54.8379V193.426C92.5892 198.544 96.7388 202.694 101.858 202.694H284.136C289.255 202.694 293.404 198.544 293.404 193.426V54.8379C293.404 49.7192 289.255 45.5696 284.136 45.5696Z" fill="#407BFF"/>
    <path opacity="0.4" d="M284.136 45.5696H101.858C96.7388 45.5696 92.5892 49.7192 92.5892 54.8379V193.426C92.5892 198.544 96.7388 202.694 101.858 202.694H284.136C289.255 202.694 293.404 198.544 293.404 193.426V54.8379C293.404 49.7192 289.255 45.5696 284.136 45.5696Z" fill="white"/>
    <path opacity="0.8" d="M284.136 56.2098H101.858C98.4608 56.2098 95.7073 58.9634 95.7073 62.3601V193.426C95.7073 196.822 98.4608 199.576 101.858 199.576H284.136C287.533 199.576 290.286 196.822 290.286 193.426V62.3601C290.286 58.9634 287.533 56.2098 284.136 56.2098Z" fill="white"/>
    <path opacity="0.3" d="M106.909 48.0718H104.726C103.912 48.0718 103.253 48.7314 103.253 49.5451V51.7277C103.253 52.5414 103.912 53.201 104.726 53.201H106.909C107.722 53.201 108.382 52.5414 108.382 51.7277V49.5451C108.382 48.7314 107.722 48.0718 106.909 48.0718Z" fill="white"/>
    <path opacity="0.5" d="M115.226 48.0718H113.043C112.23 48.0718 111.57 48.7314 111.57 49.5451V51.7277C111.57 52.5414 112.23 53.201 113.043 53.201H115.226C116.04 53.201 116.699 52.5414 116.699 51.7277V49.5451C116.699 48.7314 116.04 48.0718 115.226 48.0718Z" fill="white"/>
    <path opacity="0.7" d="M123.551 48.0718H121.368C120.555 48.0718 119.895 48.7314 119.895 49.5451V51.7277C119.895 52.5414 120.555 53.201 121.368 53.201H123.551C124.365 53.201 125.024 52.5414 125.024 51.7277V49.5451C125.024 48.7314 124.365 48.0718 123.551 48.0718Z" fill="white"/>
    <path d="M183.604 53.1152V49.8881L181.99 52.5852H181.585L179.971 49.9348V53.1464H179.098V48.2355H179.878L181.827 51.4861L183.744 48.2355H184.524V53.1464L183.604 53.1152Z" fill="white"/>
    <path d="M189.216 49.3658L187.462 53.4114C187.35 53.7496 187.145 54.0494 186.87 54.2766C186.619 54.4459 186.323 54.5331 186.02 54.5261C185.832 54.5261 185.645 54.4945 185.467 54.4325C185.301 54.38 185.148 54.2953 185.015 54.1831L185.366 53.5361C185.452 53.6161 185.552 53.6796 185.662 53.7232C185.773 53.7689 185.892 53.7928 186.013 53.7934C186.149 53.7991 186.284 53.7579 186.394 53.6764C186.514 53.5625 186.607 53.4242 186.667 53.2711L186.73 53.1308L185.101 49.3658H186.013L187.19 52.1408L188.374 49.3658H189.216Z" fill="white"/>
    <path d="M192.693 48.9683V50.4649H195.07V51.2444H192.693V53.123H191.757V48.2122H195.343V48.9917L192.693 48.9683Z" fill="white"/>
    <path d="M196.138 48.6019C196.086 48.5534 196.045 48.4941 196.018 48.4281C195.991 48.3621 195.979 48.2911 195.982 48.22C195.98 48.15 195.992 48.0803 196.019 48.0157C196.046 47.9511 196.087 47.8932 196.138 47.8458C196.249 47.7451 196.394 47.6919 196.544 47.6977C196.689 47.6941 196.83 47.7441 196.941 47.838C196.993 47.8834 197.035 47.9398 197.064 48.0031C197.092 48.0664 197.106 48.1351 197.105 48.2044C197.106 48.2771 197.092 48.3494 197.064 48.4165C197.036 48.4837 196.994 48.5441 196.941 48.5941C196.889 48.6459 196.827 48.6864 196.758 48.7132C196.69 48.74 196.617 48.7525 196.544 48.75C196.395 48.7526 196.25 48.6998 196.138 48.6019ZM196.099 49.3814H196.972V53.1308H196.099V49.3814Z" fill="white"/>
    <path d="M198.126 47.9081H198.999V53.1152H198.126V47.9081Z" fill="white"/>
    <path d="M203.66 51.5172H200.722C200.766 51.7823 200.911 52.0198 201.127 52.1798C201.405 52.3627 201.738 52.4454 202.069 52.4142C202.401 52.3831 202.712 52.2399 202.951 52.0083L203.427 52.554C203.255 52.7566 203.035 52.9122 202.787 53.0061C202.509 53.1122 202.213 53.1651 201.914 53.162C201.536 53.1708 201.162 53.0879 200.823 52.9203C200.522 52.7642 200.271 52.5265 200.098 52.2344C199.924 51.931 199.835 51.5863 199.841 51.2366C199.837 50.8931 199.923 50.5547 200.09 50.2544C200.253 49.9656 200.493 49.7279 200.784 49.5685C201.09 49.403 201.434 49.3197 201.782 49.3268C202.122 49.3187 202.459 49.4021 202.756 49.5685C203.042 49.7258 203.277 49.961 203.434 50.2467C203.601 50.558 203.684 50.9071 203.676 51.26C203.676 51.3224 203.668 51.4471 203.66 51.5172ZM201.111 50.2778C200.914 50.4469 200.787 50.6829 200.753 50.9404H202.881C202.855 50.6813 202.731 50.442 202.533 50.2722C202.336 50.1024 202.081 50.0151 201.821 50.0284C201.561 50.0175 201.307 50.1068 201.111 50.2778Z" fill="white"/>
    <path d="M204.783 53.045C204.535 52.986 204.3 52.883 204.089 52.741L204.424 52.0785C204.82 52.3158 205.272 52.4424 205.734 52.4448C206.256 52.4448 206.513 52.3123 206.513 52.0317C206.516 51.971 206.498 51.9112 206.463 51.8618C206.427 51.8124 206.377 51.7762 206.318 51.7589C206.108 51.6874 205.892 51.6378 205.671 51.6108C205.408 51.5769 205.147 51.5222 204.892 51.4471C204.696 51.3915 204.52 51.2805 204.385 51.1275C204.233 50.9534 204.155 50.7269 204.167 50.4961C204.162 50.3274 204.202 50.1605 204.281 50.0115C204.36 49.8626 204.477 49.7368 204.619 49.6464C204.974 49.4133 205.395 49.3013 205.82 49.3268C206.082 49.3238 206.344 49.3526 206.599 49.4126C206.82 49.4575 207.033 49.5364 207.231 49.6464L206.895 50.3168C206.569 50.1278 206.197 50.0308 205.82 50.0362C205.619 50.0261 205.419 50.0635 205.235 50.1453C205.175 50.173 205.125 50.217 205.089 50.2721C205.053 50.3273 205.033 50.3914 205.032 50.4571C205.031 50.5235 205.052 50.5885 205.092 50.642C205.131 50.6955 205.187 50.7346 205.251 50.7533C205.466 50.8274 205.688 50.8822 205.913 50.917C206.161 50.9522 206.406 51.007 206.646 51.0807C206.834 51.14 207.006 51.2443 207.145 51.3847C207.289 51.5595 207.361 51.7823 207.347 52.0083C207.35 52.1755 207.31 52.3406 207.231 52.4879C207.152 52.6352 207.036 52.7599 206.895 52.8502C206.521 53.0783 206.086 53.1871 205.648 53.162C205.356 53.1604 205.065 53.1211 204.783 53.045Z" fill="white"/>
    <path d="M132.375 88.2863L131.51 86.7273C131.369 86.4702 131.161 86.2557 130.909 86.1063C130.656 85.9568 130.369 85.8778 130.075 85.8777H117.104C116.67 85.8777 116.254 86.0502 115.947 86.3571C115.64 86.6641 115.468 87.0805 115.468 87.5146V112.303C115.468 112.756 115.647 113.19 115.968 113.51C116.288 113.83 116.722 114.01 117.175 114.01H146.64C147.093 114.01 147.527 113.83 147.847 113.51C148.167 113.19 148.347 112.756 148.347 112.303V90.656C148.347 90.2219 148.174 89.8055 147.867 89.4985C147.56 89.1915 147.144 89.0191 146.71 89.0191H133.622C133.368 89.02 133.118 88.9525 132.898 88.8236C132.679 88.6947 132.498 88.5091 132.375 88.2863Z" fill="#407BFF"/>
    <path opacity="0.3" d="M132.375 88.2863L131.51 86.7273C131.369 86.4702 131.161 86.2557 130.909 86.1063C130.656 85.9568 130.369 85.8778 130.075 85.8777H117.104C116.67 85.8777 116.254 86.0502 115.947 86.3571C115.64 86.6641 115.468 87.0805 115.468 87.5146V112.303C115.468 112.756 115.647 113.19 115.968 113.51C116.288 113.83 116.722 114.01 117.175 114.01H146.64C147.093 114.01 147.527 113.83 147.847 113.51C148.167 113.19 148.347 112.756 148.347 112.303V90.656C148.347 90.2219 148.174 89.8055 147.867 89.4985C147.56 89.1915 147.144 89.0191 146.71 89.0191H133.622C133.368 89.02 133.118 88.9525 132.898 88.8236C132.679 88.6947 132.498 88.5091 132.375 88.2863Z" fill="white"/>
    <path d="M144.247 90.0091H119.108V108.803H144.247V90.0091Z" fill="#263238"/>
    <path opacity="0.8" d="M144.247 90.0091H119.108V108.803H144.247V90.0091Z" fill="white"/>
    <path d="M146.063 91.8954H117.292V113.41H146.063V91.8954Z" fill="#263238"/>
    <path opacity="0.9" d="M146.063 91.8954H117.292V113.41H146.063V91.8954Z" fill="white"/>
    <path d="M151.223 92.4333H133.989C133.637 92.4165 133.285 92.4729 132.957 92.5991C132.628 92.7252 132.329 92.9183 132.079 93.1661L130.956 94.5224C130.752 94.738 130.503 94.9067 130.227 95.0171C129.951 95.1274 129.655 95.1767 129.358 95.1616H112.521C111.352 95.1616 110.572 95.793 110.775 96.5725C112.42 102.957 113.246 106.145 114.891 112.521C115.039 112.951 115.317 113.325 115.688 113.589C116.058 113.853 116.502 113.995 116.956 113.994H146.172C146.627 113.995 147.071 113.853 147.441 113.589C147.811 113.325 148.09 112.951 148.238 112.521L153.055 93.852C153.25 93.0725 152.439 92.4333 151.223 92.4333Z" fill="#407BFF"/>
    <g opacity="0.6">
        <path d="M151.223 92.4333H133.989C133.637 92.4165 133.285 92.4729 132.957 92.5991C132.628 92.7252 132.329 92.9183 132.079 93.1661L130.956 94.5224C130.752 94.738 130.503 94.9067 130.227 95.0171C129.951 95.1274 129.655 95.1767 129.358 95.1616H112.521C111.352 95.1616 110.572 95.793 110.775 96.5725C112.42 102.957 113.246 106.145 114.891 112.521C115.039 112.951 115.317 113.325 115.688 113.589C116.058 113.853 116.502 113.995 116.956 113.994H146.172C146.627 113.995 147.071 113.853 147.441 113.589C147.811 113.325 148.09 112.951 148.238 112.521L153.055 93.852C153.25 93.0725 152.439 92.4333 151.223 92.4333Z" fill="white"/>
    </g>
    <path d="M116.146 123.333C115.869 123.368 115.588 123.344 115.322 123.262C115.055 123.18 114.809 123.042 114.6 122.858C114.391 122.673 114.223 122.447 114.108 122.193C113.994 121.938 113.934 121.663 113.934 121.384C113.934 121.105 113.994 120.83 114.108 120.575C114.223 120.321 114.391 120.095 114.6 119.91C114.809 119.726 115.055 119.588 115.322 119.506C115.588 119.424 115.869 119.4 116.146 119.435H147.583C147.86 119.4 148.14 119.424 148.407 119.506C148.673 119.588 148.92 119.726 149.129 119.91C149.338 120.095 149.505 120.321 149.62 120.575C149.735 120.83 149.794 121.105 149.794 121.384C149.794 121.663 149.735 121.938 149.62 122.193C149.505 122.447 149.338 122.673 149.129 122.858C148.92 123.042 148.673 123.18 148.407 123.262C148.14 123.344 147.86 123.368 147.583 123.333H116.146Z" fill="#263238"/>
    <path opacity="0.6" d="M116.146 123.333C115.869 123.368 115.588 123.344 115.322 123.262C115.055 123.18 114.809 123.042 114.6 122.858C114.391 122.673 114.223 122.447 114.108 122.193C113.994 121.938 113.934 121.663 113.934 121.384C113.934 121.105 113.994 120.83 114.108 120.575C114.223 120.321 114.391 120.095 114.6 119.91C114.809 119.726 115.055 119.588 115.322 119.506C115.588 119.424 115.869 119.4 116.146 119.435H147.583C147.86 119.4 148.14 119.424 148.407 119.506C148.673 119.588 148.92 119.726 149.129 119.91C149.338 120.095 149.505 120.321 149.62 120.575C149.735 120.83 149.794 121.105 149.794 121.384C149.794 121.663 149.735 121.938 149.62 122.193C149.505 122.447 149.338 122.673 149.129 122.858C148.92 123.042 148.673 123.18 148.407 123.262C148.14 123.344 147.86 123.368 147.583 123.333H116.146Z" fill="white"/>
    <path d="M190.978 88.2863L190.113 86.7273C189.971 86.4708 189.763 86.2567 189.511 86.1073C189.259 85.958 188.971 85.8787 188.678 85.8777H175.739C175.305 85.8777 174.888 86.0502 174.581 86.3571C174.274 86.6641 174.102 87.0805 174.102 87.5146V112.303C174.101 112.527 174.144 112.748 174.229 112.955C174.314 113.163 174.439 113.351 174.597 113.509C174.755 113.668 174.942 113.794 175.149 113.88C175.356 113.966 175.577 114.01 175.801 114.01H205.274C205.498 114.01 205.719 113.966 205.926 113.88C206.133 113.794 206.32 113.668 206.478 113.509C206.636 113.351 206.761 113.163 206.846 112.955C206.931 112.748 206.974 112.527 206.973 112.303V90.656C206.973 90.2219 206.801 89.8055 206.494 89.4985C206.187 89.1915 205.77 89.0191 205.336 89.0191H192.249C191.99 89.0243 191.735 88.9588 191.511 88.8296C191.287 88.7005 191.103 88.5126 190.978 88.2863Z" fill="#407BFF"/>
    <path opacity="0.3" d="M190.978 88.2863L190.113 86.7273C189.971 86.4708 189.763 86.2567 189.511 86.1073C189.259 85.958 188.971 85.8787 188.678 85.8777H175.739C175.305 85.8777 174.888 86.0502 174.581 86.3571C174.274 86.6641 174.102 87.0805 174.102 87.5146V112.303C174.101 112.527 174.144 112.748 174.229 112.955C174.314 113.163 174.439 113.351 174.597 113.509C174.755 113.668 174.942 113.794 175.149 113.88C175.356 113.966 175.577 114.01 175.801 114.01H205.274C205.498 114.01 205.719 113.966 205.926 113.88C206.133 113.794 206.32 113.668 206.478 113.509C206.636 113.351 206.761 113.163 206.846 112.955C206.931 112.748 206.974 112.527 206.973 112.303V90.656C206.973 90.2219 206.801 89.8055 206.494 89.4985C206.187 89.1915 205.77 89.0191 205.336 89.0191H192.249C191.99 89.0243 191.735 88.9588 191.511 88.8296C191.287 88.7005 191.103 88.5126 190.978 88.2863Z" fill="white"/>
    <path d="M202.881 90.0091H177.742V108.803H202.881V90.0091Z" fill="#263238"/>
    <path opacity="0.8" d="M202.881 90.0091H177.742V108.803H202.881V90.0091Z" fill="white"/>
    <path d="M204.697 91.8954H175.926V113.41H204.697V91.8954Z" fill="#263238"/>
    <path opacity="0.9" d="M204.697 91.8954H175.926V113.41H204.697V91.8954Z" fill="white"/>
    <path d="M209.865 92.4333H192.623C192.27 92.4163 191.917 92.4727 191.587 92.5988C191.257 92.7249 190.957 92.918 190.705 93.166L189.575 94.5224C189.375 94.7329 189.132 94.8987 188.864 95.0089C188.595 95.119 188.306 95.1711 188.016 95.1616H171.14C169.978 95.1616 169.199 95.793 169.393 96.5725C171.046 102.957 171.865 106.145 173.509 112.521C173.658 112.951 173.937 113.323 174.307 113.587C174.677 113.851 175.12 113.994 175.575 113.994H204.798C205.253 113.994 205.696 113.851 206.066 113.587C206.436 113.323 206.715 112.951 206.864 112.521L211.681 93.852C211.876 93.0725 211.066 92.4333 209.865 92.4333Z" fill="#407BFF"/>
    <g opacity="0.6">
        <path d="M209.865 92.4333H192.623C192.27 92.4163 191.917 92.4727 191.587 92.5988C191.257 92.7249 190.957 92.918 190.705 93.166L189.575 94.5224C189.375 94.7329 189.132 94.8987 188.864 95.0089C188.595 95.119 188.306 95.1711 188.016 95.1616H171.14C169.978 95.1616 169.199 95.793 169.393 96.5725C171.046 102.957 171.865 106.145 173.509 112.521C173.658 112.951 173.937 113.323 174.307 113.587C174.677 113.851 175.12 113.994 175.575 113.994H204.798C205.253 113.994 205.696 113.851 206.066 113.587C206.436 113.323 206.715 112.951 206.864 112.521L211.681 93.852C211.876 93.0725 211.066 92.4333 209.865 92.4333Z" fill="white"/>
    </g>
    <path d="M174.819 123.333C174.344 123.273 173.908 123.042 173.592 122.683C173.276 122.324 173.101 121.862 173.101 121.384C173.101 120.906 173.276 120.444 173.592 120.085C173.908 119.727 174.344 119.495 174.819 119.435H206.256C206.533 119.4 206.814 119.424 207.08 119.506C207.347 119.588 207.593 119.726 207.802 119.91C208.011 120.095 208.179 120.321 208.293 120.575C208.408 120.83 208.467 121.105 208.467 121.384C208.467 121.663 208.408 121.938 208.293 122.193C208.179 122.447 208.011 122.673 207.802 122.858C207.593 123.042 207.347 123.18 207.08 123.262C206.814 123.344 206.533 123.368 206.256 123.333H174.819Z" fill="#263238"/>
    <path opacity="0.6" d="M174.819 123.333C174.344 123.273 173.908 123.042 173.592 122.683C173.276 122.324 173.101 121.862 173.101 121.384C173.101 120.906 173.276 120.444 173.592 120.085C173.908 119.727 174.344 119.495 174.819 119.435H206.256C206.533 119.4 206.814 119.424 207.08 119.506C207.347 119.588 207.593 119.726 207.802 119.91C208.011 120.095 208.179 120.321 208.293 120.575C208.408 120.83 208.467 121.105 208.467 121.384C208.467 121.663 208.408 121.938 208.293 122.193C208.179 122.447 208.011 122.673 207.802 122.858C207.593 123.042 207.347 123.18 207.08 123.262C206.814 123.344 206.533 123.368 206.256 123.333H174.819Z" fill="white"/>
    <path d="M132.375 150.865L131.51 149.306C131.37 149.048 131.163 148.832 130.91 148.682C130.657 148.533 130.369 148.455 130.075 148.456H117.104C116.67 148.456 116.254 148.629 115.947 148.936C115.64 149.243 115.468 149.659 115.468 150.093V174.881C115.468 175.105 115.512 175.327 115.598 175.533C115.684 175.74 115.809 175.928 115.968 176.086C116.127 176.243 116.315 176.368 116.522 176.453C116.729 176.538 116.951 176.582 117.175 176.58H146.64C146.864 176.582 147.085 176.538 147.292 176.453C147.5 176.368 147.688 176.243 147.846 176.086C148.005 175.928 148.131 175.74 148.217 175.533C148.303 175.327 148.347 175.105 148.347 174.881V153.242C148.347 152.807 148.175 152.39 147.868 152.082C147.561 151.774 147.145 151.6 146.71 151.597H133.622C133.368 151.598 133.118 151.531 132.898 151.402C132.679 151.273 132.498 151.088 132.375 150.865Z" fill="#407BFF"/>
    <path opacity="0.3" d="M132.375 150.865L131.51 149.306C131.37 149.048 131.163 148.832 130.91 148.682C130.657 148.533 130.369 148.455 130.075 148.456H117.104C116.67 148.456 116.254 148.629 115.947 148.936C115.64 149.243 115.468 149.659 115.468 150.093V174.881C115.468 175.105 115.512 175.327 115.598 175.533C115.684 175.74 115.809 175.928 115.968 176.086C116.127 176.243 116.315 176.368 116.522 176.453C116.729 176.538 116.951 176.582 117.175 176.58H146.64C146.864 176.582 147.085 176.538 147.292 176.453C147.5 176.368 147.688 176.243 147.846 176.086C148.005 175.928 148.131 175.74 148.217 175.533C148.303 175.327 148.347 175.105 148.347 174.881V153.242C148.347 152.807 148.175 152.39 147.868 152.082C147.561 151.774 147.145 151.6 146.71 151.597H133.622C133.368 151.598 133.118 151.531 132.898 151.402C132.679 151.273 132.498 151.088 132.375 150.865Z" fill="white"/>
    <path d="M144.247 152.595H119.108V171.389H144.247V152.595Z" fill="#263238"/>
    <path opacity="0.8" d="M144.247 152.595H119.108V171.389H144.247V152.595Z" fill="white"/>
    <path d="M146.063 154.482H117.292V175.996H146.063V154.482Z" fill="#263238"/>
    <path opacity="0.9" d="M146.063 154.482H117.292V175.996H146.063V154.482Z" fill="white"/>
    <path d="M151.223 155.02H133.989C133.637 155.003 133.285 155.059 132.957 155.185C132.628 155.311 132.329 155.504 132.079 155.752C131.619 156.298 131.393 156.532 130.948 157.109C130.742 157.322 130.493 157.488 130.218 157.597C129.942 157.706 129.646 157.755 129.35 157.74H112.513C111.344 157.74 110.564 158.379 110.767 159.159C112.412 165.535 113.238 168.723 114.883 175.107C115.032 175.536 115.311 175.908 115.681 176.17C116.052 176.433 116.495 176.574 116.949 176.573H146.164C146.618 176.574 147.061 176.433 147.431 176.17C147.802 175.908 148.081 175.536 148.23 175.107L153.047 156.399C153.25 155.651 152.439 155.02 151.223 155.02Z" fill="#407BFF"/>
    <g opacity="0.6">
        <path d="M151.223 155.02H133.989C133.637 155.003 133.285 155.059 132.957 155.185C132.628 155.311 132.329 155.504 132.079 155.752C131.619 156.298 131.393 156.532 130.948 157.109C130.742 157.322 130.493 157.488 130.218 157.597C129.942 157.706 129.646 157.755 129.35 157.74H112.513C111.344 157.74 110.564 158.379 110.767 159.159C112.412 165.535 113.238 168.723 114.883 175.107C115.032 175.536 115.311 175.908 115.681 176.17C116.052 176.433 116.495 176.574 116.949 176.573H146.164C146.618 176.574 147.061 176.433 147.431 176.17C147.802 175.908 148.081 175.536 148.23 175.107L153.047 156.399C153.25 155.651 152.439 155.02 151.223 155.02Z" fill="white"/>
    </g>
    <path d="M116.146 186.698C115.671 186.638 115.235 186.407 114.919 186.048C114.603 185.69 114.428 185.228 114.428 184.75C114.428 184.271 114.603 183.81 114.919 183.451C115.235 183.092 115.671 182.861 116.146 182.801H147.583C147.86 182.766 148.14 182.79 148.407 182.872C148.674 182.954 148.92 183.092 149.129 183.276C149.338 183.46 149.505 183.687 149.62 183.941C149.735 184.195 149.794 184.471 149.794 184.75C149.794 185.029 149.735 185.304 149.62 185.558C149.505 185.812 149.338 186.039 149.129 186.223C148.92 186.408 148.674 186.545 148.407 186.627C148.14 186.709 147.86 186.733 147.583 186.698H116.146Z" fill="#263238"/>
    <path opacity="0.6" d="M116.146 186.698C115.671 186.638 115.235 186.407 114.919 186.048C114.603 185.69 114.428 185.228 114.428 184.75C114.428 184.271 114.603 183.81 114.919 183.451C115.235 183.092 115.671 182.861 116.146 182.801H147.583C147.86 182.766 148.14 182.79 148.407 182.872C148.674 182.954 148.92 183.092 149.129 183.276C149.338 183.46 149.505 183.687 149.62 183.941C149.735 184.195 149.794 184.471 149.794 184.75C149.794 185.029 149.735 185.304 149.62 185.558C149.505 185.812 149.338 186.039 149.129 186.223C148.92 186.408 148.674 186.545 148.407 186.627C148.14 186.709 147.86 186.733 147.583 186.698H116.146Z" fill="white"/>
    <path d="M190.978 150.865L190.113 149.306C189.972 149.048 189.765 148.833 189.512 148.684C189.26 148.534 188.972 148.455 188.678 148.456H175.739C175.305 148.456 174.888 148.629 174.581 148.936C174.274 149.243 174.102 149.659 174.102 150.093V174.881C174.101 175.105 174.144 175.326 174.229 175.533C174.314 175.739 174.439 175.927 174.597 176.085C174.755 176.243 174.943 176.368 175.149 176.453C175.356 176.538 175.578 176.582 175.801 176.581H205.274C205.497 176.582 205.719 176.538 205.925 176.453C206.132 176.368 206.32 176.243 206.478 176.085C206.636 175.927 206.761 175.739 206.846 175.533C206.931 175.326 206.974 175.105 206.973 174.881V153.242C206.973 152.807 206.801 152.39 206.494 152.082C206.188 151.774 205.771 151.6 205.336 151.598H192.249C191.99 151.603 191.735 151.537 191.511 151.408C191.287 151.279 191.103 151.091 190.978 150.865Z" fill="#407BFF"/>
    <path opacity="0.3" d="M190.978 150.865L190.113 149.306C189.972 149.048 189.765 148.833 189.512 148.684C189.26 148.534 188.972 148.455 188.678 148.456H175.739C175.305 148.456 174.888 148.629 174.581 148.936C174.274 149.243 174.102 149.659 174.102 150.093V174.881C174.101 175.105 174.144 175.326 174.229 175.533C174.314 175.739 174.439 175.927 174.597 176.085C174.755 176.243 174.943 176.368 175.149 176.453C175.356 176.538 175.578 176.582 175.801 176.581H205.274C205.497 176.582 205.719 176.538 205.925 176.453C206.132 176.368 206.32 176.243 206.478 176.085C206.636 175.927 206.761 175.739 206.846 175.533C206.931 175.326 206.974 175.105 206.973 174.881V153.242C206.973 152.807 206.801 152.39 206.494 152.082C206.188 151.774 205.771 151.6 205.336 151.598H192.249C191.99 151.603 191.735 151.537 191.511 151.408C191.287 151.279 191.103 151.091 190.978 150.865Z" fill="white"/>
    <path d="M202.881 152.595H177.742V171.389H202.881V152.595Z" fill="#263238"/>
    <path opacity="0.8" d="M202.881 152.595H177.742V171.389H202.881V152.595Z" fill="white"/>
    <path d="M204.697 154.482H175.926V175.996H204.697V154.482Z" fill="#263238"/>
    <path opacity="0.9" d="M204.697 154.482H175.926V175.996H204.697V154.482Z" fill="white"/>
    <path d="M209.865 155.019H192.623C192.27 155.003 191.917 155.059 191.587 155.185C191.257 155.311 190.957 155.504 190.705 155.752C190.245 156.298 190.019 156.532 189.575 157.109C189.373 157.317 189.131 157.481 188.862 157.589C188.594 157.698 188.305 157.749 188.016 157.74H171.14C169.978 157.74 169.199 158.379 169.393 159.159C171.046 165.535 171.865 168.723 173.509 175.107C173.659 175.535 173.939 175.906 174.309 176.169C174.679 176.431 175.121 176.572 175.575 176.573H204.798C205.252 176.572 205.695 176.431 206.065 176.169C206.435 175.906 206.714 175.535 206.864 175.107L211.681 156.399C211.876 155.651 211.066 155.019 209.865 155.019Z" fill="#407BFF"/>
    <g opacity="0.6">
        <path d="M209.865 155.019H192.623C192.27 155.003 191.917 155.059 191.587 155.185C191.257 155.311 190.957 155.504 190.705 155.752C190.245 156.298 190.019 156.532 189.575 157.109C189.373 157.317 189.131 157.481 188.862 157.589C188.594 157.698 188.305 157.749 188.016 157.74H171.14C169.978 157.74 169.199 158.379 169.393 159.159C171.046 165.535 171.865 168.723 173.509 175.107C173.659 175.535 173.939 175.906 174.309 176.169C174.679 176.431 175.121 176.572 175.575 176.573H204.798C205.252 176.572 205.695 176.431 206.065 176.169C206.435 175.906 206.714 175.535 206.864 175.107L211.681 156.399C211.876 155.651 211.066 155.019 209.865 155.019Z" fill="white"/>
    </g>
    <path d="M174.819 186.698C174.344 186.638 173.908 186.407 173.592 186.048C173.276 185.69 173.101 185.228 173.101 184.75C173.101 184.271 173.276 183.81 173.592 183.451C173.908 183.092 174.344 182.861 174.819 182.801H206.256C206.731 182.861 207.167 183.092 207.483 183.451C207.799 183.81 207.973 184.271 207.973 184.75C207.973 185.228 207.799 185.69 207.483 186.048C207.167 186.407 206.731 186.638 206.256 186.698H174.819Z" fill="#263238"/>
    <path opacity="0.6" d="M174.819 186.698C174.344 186.638 173.908 186.407 173.592 186.048C173.276 185.69 173.101 185.228 173.101 184.75C173.101 184.271 173.276 183.81 173.592 183.451C173.908 183.092 174.344 182.861 174.819 182.801H206.256C206.731 182.861 207.167 183.092 207.483 183.451C207.799 183.81 207.973 184.271 207.973 184.75C207.973 185.228 207.799 185.69 207.483 186.048C207.167 186.407 206.731 186.638 206.256 186.698H174.819Z" fill="white"/>
    <path d="M248.318 150.865L247.453 149.306C247.311 149.047 247.102 148.832 246.849 148.683C246.595 148.533 246.305 148.455 246.011 148.456H233.071C232.856 148.456 232.643 148.498 232.444 148.581C232.246 148.663 232.065 148.784 231.913 148.936C231.761 149.088 231.641 149.268 231.559 149.467C231.476 149.665 231.434 149.878 231.434 150.093V174.881C231.433 175.105 231.476 175.326 231.561 175.533C231.646 175.739 231.771 175.927 231.929 176.085C232.087 176.243 232.275 176.368 232.482 176.453C232.688 176.538 232.91 176.582 233.133 176.58H262.606C263.057 176.58 263.489 176.401 263.808 176.083C264.127 175.764 264.306 175.332 264.306 174.881V153.242C264.306 152.807 264.133 152.39 263.827 152.082C263.52 151.774 263.103 151.6 262.669 151.597H249.557C249.304 151.597 249.056 151.529 248.838 151.4C248.62 151.271 248.44 151.086 248.318 150.865Z" fill="#407BFF"/>
    <path opacity="0.3" d="M248.318 150.865L247.453 149.306C247.311 149.047 247.102 148.832 246.849 148.683C246.595 148.533 246.305 148.455 246.011 148.456H233.071C232.856 148.456 232.643 148.498 232.444 148.581C232.246 148.663 232.065 148.784 231.913 148.936C231.761 149.088 231.641 149.268 231.559 149.467C231.476 149.665 231.434 149.878 231.434 150.093V174.881C231.433 175.105 231.476 175.326 231.561 175.533C231.646 175.739 231.771 175.927 231.929 176.085C232.087 176.243 232.275 176.368 232.482 176.453C232.688 176.538 232.91 176.582 233.133 176.58H262.606C263.057 176.58 263.489 176.401 263.808 176.083C264.127 175.764 264.306 175.332 264.306 174.881V153.242C264.306 152.807 264.133 152.39 263.827 152.082C263.52 151.774 263.103 151.6 262.669 151.597H249.557C249.304 151.597 249.056 151.529 248.838 151.4C248.62 151.271 248.44 151.086 248.318 150.865Z" fill="white"/>
    <path d="M260.19 152.595H235.051V171.389H260.19V152.595Z" fill="#263238"/>
    <path opacity="0.8" d="M260.19 152.595H235.051V171.389H260.19V152.595Z" fill="white"/>
    <path d="M262.006 154.482H233.235V175.996H262.006V154.482Z" fill="#263238"/>
    <path opacity="0.9" d="M262.006 154.482H233.235V175.996H262.006V154.482Z" fill="white"/>
    <path d="M267.174 155.019H249.932C249.579 155.003 249.226 155.059 248.896 155.185C248.566 155.311 248.266 155.504 248.014 155.752C247.554 156.298 247.328 156.532 246.884 157.109C246.682 157.317 246.44 157.481 246.171 157.589C245.903 157.698 245.614 157.749 245.325 157.74H228.449C227.287 157.74 226.508 158.379 226.702 159.159C228.355 165.535 229.173 168.723 230.818 175.107C230.968 175.535 231.248 175.906 231.618 176.169C231.988 176.431 232.43 176.572 232.884 176.573H262.1C262.555 176.574 262.999 176.434 263.37 176.171C263.742 175.908 264.023 175.537 264.173 175.107C265.774 168.871 267.377 162.635 268.983 156.399C269.185 155.651 268.375 155.019 267.174 155.019Z" fill="#407BFF"/>
    <g opacity="0.6">
        <path d="M267.174 155.019H249.932C249.579 155.003 249.226 155.059 248.896 155.185C248.566 155.311 248.266 155.504 248.014 155.752C247.554 156.298 247.328 156.532 246.884 157.109C246.682 157.317 246.44 157.481 246.171 157.589C245.903 157.698 245.614 157.749 245.325 157.74H228.449C227.287 157.74 226.508 158.379 226.702 159.159C228.355 165.535 229.173 168.723 230.818 175.107C230.968 175.535 231.248 175.906 231.618 176.169C231.988 176.431 232.43 176.572 232.884 176.573H262.1C262.555 176.574 262.999 176.434 263.37 176.171C263.742 175.908 264.023 175.537 264.173 175.107C265.774 168.871 267.377 162.635 268.983 156.399C269.185 155.651 268.375 155.019 267.174 155.019Z" fill="white"/>
    </g>
    <path d="M232.128 186.698C231.653 186.638 231.217 186.407 230.901 186.048C230.585 185.69 230.41 185.228 230.41 184.75C230.41 184.271 230.585 183.81 230.901 183.451C231.217 183.092 231.653 182.861 232.128 182.801H263.565C264.039 182.861 264.476 183.092 264.792 183.451C265.108 183.81 265.282 184.271 265.282 184.75C265.282 185.228 265.108 185.69 264.792 186.048C264.476 186.407 264.039 186.638 263.565 186.698H232.128Z" fill="#263238"/>
    <path opacity="0.6" d="M232.128 186.698C231.653 186.638 231.217 186.407 230.901 186.048C230.585 185.69 230.41 185.228 230.41 184.75C230.41 184.271 230.585 183.81 230.901 183.451C231.217 183.092 231.653 182.861 232.128 182.801H263.565C264.039 182.861 264.476 183.092 264.792 183.451C265.108 183.81 265.282 184.271 265.282 184.75C265.282 185.228 265.108 185.69 264.792 186.048C264.476 186.407 264.039 186.638 263.565 186.698H232.128Z" fill="white"/>
    <path d="M231.722 123.333C231.446 123.368 231.165 123.344 230.898 123.262C230.632 123.18 230.386 123.042 230.177 122.858C229.968 122.673 229.8 122.447 229.685 122.193C229.57 121.938 229.511 121.663 229.511 121.384C229.511 121.105 229.57 120.83 229.685 120.575C229.8 120.321 229.968 120.095 230.177 119.91C230.386 119.726 230.632 119.588 230.898 119.506C231.165 119.424 231.446 119.4 231.722 119.435H263.16C263.436 119.4 263.717 119.424 263.984 119.506C264.25 119.588 264.496 119.726 264.705 119.91C264.915 120.095 265.082 120.321 265.197 120.575C265.312 120.83 265.371 121.105 265.371 121.384C265.371 121.663 265.312 121.938 265.197 122.193C265.082 122.447 264.915 122.673 264.705 122.858C264.496 123.042 264.25 123.18 263.984 123.262C263.717 123.344 263.436 123.368 263.16 123.333H231.722Z" fill="#263238"/>
    <path opacity="0.6" d="M231.722 123.333C231.446 123.368 231.165 123.344 230.898 123.262C230.632 123.18 230.386 123.042 230.177 122.858C229.968 122.673 229.8 122.447 229.685 122.193C229.57 121.938 229.511 121.663 229.511 121.384C229.511 121.105 229.57 120.83 229.685 120.575C229.8 120.321 229.968 120.095 230.177 119.91C230.386 119.726 230.632 119.588 230.898 119.506C231.165 119.424 231.446 119.4 231.722 119.435H263.16C263.436 119.4 263.717 119.424 263.984 119.506C264.25 119.588 264.496 119.726 264.705 119.91C264.915 120.095 265.082 120.321 265.197 120.575C265.312 120.83 265.371 121.105 265.371 121.384C265.371 121.663 265.312 121.938 265.197 122.193C265.082 122.447 264.915 122.673 264.705 122.858C264.496 123.042 264.25 123.18 263.984 123.262C263.717 123.344 263.436 123.368 263.16 123.333H231.722Z" fill="white"/>
    <path d="M230.647 114.688L237.35 134.3C237.532 134.73 237.834 135.099 238.219 135.362C238.605 135.624 239.059 135.77 239.525 135.781H252.714C252.973 135.807 253.233 135.744 253.451 135.602C253.669 135.46 253.833 135.249 253.915 135.002L254.305 133.575C254.376 133.363 254.517 133.181 254.706 133.059C254.894 132.937 255.118 132.883 255.341 132.905H268.647C268.836 132.933 269.03 132.91 269.207 132.839C269.385 132.769 269.54 132.652 269.658 132.502C269.776 132.351 269.852 132.172 269.879 131.983C269.905 131.794 269.881 131.601 269.809 131.424L264.087 114.672L264.002 111.399V86.1973C264.002 85.7569 263.827 85.3346 263.515 85.0233C263.204 84.7119 262.782 84.537 262.341 84.537H249.152C248.854 84.5353 248.562 84.6142 248.305 84.7651C248.049 84.916 247.838 85.1334 247.694 85.3944L246.814 87.0002C246.688 87.2251 246.505 87.4124 246.283 87.5426C246.061 87.6728 245.808 87.7412 245.551 87.7407H232.237C231.794 87.7407 231.37 87.9165 231.057 88.2293C230.744 88.5421 230.569 88.9664 230.569 89.4088V111.414L230.647 114.688Z" fill="#407BFF"/>
    <path opacity="0.6" d="M230.647 114.688L237.35 134.3C237.532 134.73 237.834 135.099 238.219 135.362C238.605 135.624 239.059 135.77 239.525 135.781H252.714C252.973 135.807 253.233 135.744 253.451 135.602C253.669 135.46 253.833 135.249 253.915 135.002L254.305 133.575C254.376 133.363 254.517 133.181 254.706 133.059C254.894 132.937 255.118 132.883 255.341 132.905H268.647C268.836 132.933 269.03 132.91 269.207 132.839C269.385 132.769 269.54 132.652 269.658 132.502C269.776 132.351 269.852 132.172 269.879 131.983C269.905 131.794 269.881 131.601 269.809 131.424L264.087 114.672L264.002 111.399V86.1973C264.002 85.7569 263.827 85.3346 263.515 85.0233C263.204 84.7119 262.782 84.537 262.341 84.537H249.152C248.854 84.5353 248.562 84.6142 248.305 84.7651C248.049 84.916 247.838 85.1334 247.694 85.3944L246.814 87.0002C246.688 87.2251 246.505 87.4124 246.283 87.5426C246.061 87.6728 245.808 87.7412 245.551 87.7407H232.237C231.794 87.7407 231.37 87.9165 231.057 88.2293C230.744 88.5421 230.569 88.9664 230.569 89.4088V111.414L230.647 114.688Z" fill="white"/>
    <path d="M230.647 114.688L237.35 134.3C237.532 134.73 237.834 135.099 238.219 135.362C238.605 135.624 239.059 135.77 239.525 135.781H252.714C252.973 135.807 253.233 135.744 253.451 135.602C253.669 135.46 253.833 135.249 253.915 135.002L254.305 133.575C254.376 133.363 254.517 133.181 254.706 133.059C254.894 132.937 255.118 132.883 255.341 132.905H268.647C268.837 132.933 269.03 132.91 269.207 132.839C269.385 132.769 269.54 132.652 269.658 132.502C269.776 132.351 269.852 132.172 269.879 131.983C269.905 131.794 269.881 131.601 269.809 131.424L264.087 114.672L230.647 114.688Z" fill="#407BFF"/>
    <path opacity="0.3" d="M230.647 114.688L237.35 134.3C237.532 134.73 237.834 135.099 238.219 135.362C238.605 135.624 239.059 135.77 239.525 135.781H252.714C252.973 135.807 253.233 135.744 253.451 135.602C253.669 135.46 253.833 135.249 253.915 135.002L254.305 133.575C254.376 133.363 254.517 133.181 254.706 133.059C254.894 132.937 255.118 132.883 255.341 132.905H268.647C268.837 132.933 269.03 132.91 269.207 132.839C269.385 132.769 269.54 132.652 269.658 132.502C269.776 132.351 269.852 132.172 269.879 131.983C269.905 131.794 269.881 131.601 269.809 131.424L264.087 114.672L230.647 114.688Z" fill="white"/>
    <path opacity="0.1" d="M233.874 114.688H261.008L265.958 128.633H238.824L233.874 114.688Z" fill="black"/>
    <path d="M233.874 114.688H261.008V92.6983H233.874V114.688Z" fill="#263238"/>
    <path opacity="0.8" d="M233.874 114.688H261.008V92.6983H233.874V114.688Z" fill="white"/>
    <path d="M233.874 114.688H261.008L266.512 98.8408H239.369L233.874 114.688Z" fill="#263238"/>
    <path opacity="0.9" d="M233.874 114.688H261.008L266.512 98.8408H239.369L233.874 114.688Z" fill="white"/>
    <path d="M233.874 114.688H261.008L266.512 126.435H239.369L233.874 114.688Z" fill="#263238"/>
    <path opacity="0.9" d="M233.874 114.688H261.008L266.512 126.435H239.369L233.874 114.688Z" fill="white"/>
    <path d="M233.874 114.688H261.008L269.887 108.647H242.745L233.874 114.688Z" fill="#263238"/>
    <path opacity="0.8" d="M233.874 114.688H261.008L269.887 108.647H242.745L233.874 114.688Z" fill="white"/>
    <path d="M84.42 251.974C85.0904 241.396 89.7284 230.694 97.1883 223.429C99.0513 221.62 102.964 218.034 99.7918 216.14C96.1671 213.973 89.214 224.091 88.2396 225.962C90.2975 217.902 96.5335 212.063 103.3 208.719C106.644 207.067 109.832 205.5 106.269 203.045C102.707 200.589 94.9979 206.545 93.2128 209.101C97.4377 203.201 102.777 197.292 108.249 193.761C114.291 189.863 111.562 183.362 105.334 188.39C101.476 191.508 95.1304 199.303 95.1304 199.303C95.1304 199.303 105.1 179.278 102.091 177.477C98.1938 175.138 91.3654 202.421 89.479 207.8C89.9857 203.341 90.4612 192.553 87.1405 192.085C84.1082 191.664 84.8487 218.526 84.1472 223.265C83.7029 225.331 83.5002 226.383 83.1494 228.464C82.822 224.886 80.8109 215.454 77.802 216.546C75.2453 217.465 76.8277 224.528 77.4903 227.88C79.096 235.994 80.7174 243.844 80.733 252.169L84.42 251.974Z" fill="#407BFF"/>
    <path opacity="0.4" d="M87.6549 197.284C88.107 203.115 88.5124 209.039 87.9511 214.901C89.1503 211.498 90.5374 208.165 92.1059 204.915C92.1239 204.86 92.1502 204.807 92.1838 204.76C92.6515 203.785 93.1348 202.819 93.6415 201.86C93.8441 201.478 94.343 201.649 94.2729 202.008C97.9677 197.331 102.434 193.044 107.75 190.315C108.14 190.113 108.405 190.705 108.031 190.916C101.857 194.408 97.2662 199.326 92.7217 205.149C90.8039 209.038 89.1781 213.063 87.8576 217.193C91.2119 211.908 96.3778 208.028 102.387 206.28C102.793 206.155 103.019 206.778 102.614 206.911C94.3898 209.507 88.5825 215.259 86.244 222.797C86.2291 222.856 86.2026 222.912 86.1661 222.961C85.0202 227.778 84.1471 232.455 83.4768 237.366C85.8153 230.452 90.7963 224.348 96.5334 220.061C96.8764 219.804 97.1882 220.396 96.8452 220.654C90.2404 225.616 85.4435 232.606 83.1884 240.554C83.1884 240.554 83.1884 240.554 83.1884 240.593C82.9389 243.711 82.8298 246.829 82.861 249.947C82.8682 249.994 82.8653 250.042 82.8524 250.087C82.8395 250.133 82.8169 250.175 82.7861 250.211C82.7554 250.246 82.7173 250.275 82.6743 250.295C82.6314 250.315 82.5847 250.325 82.5375 250.325C82.4902 250.325 82.4435 250.315 82.4006 250.295C82.3577 250.275 82.3195 250.246 82.2888 250.211C82.2581 250.175 82.2355 250.133 82.2226 250.087C82.2096 250.042 82.2067 249.994 82.214 249.947C82.2637 239.495 83.7322 229.097 86.5792 219.04C88.0914 211.954 87.5458 204.557 86.9767 197.424C86.9378 196.933 87.6159 196.801 87.6549 197.284Z" fill="white"/>
    <path d="M83.6405 251.966C82.861 239.416 77.3499 226.718 68.4948 218.105C66.2888 215.961 61.6507 211.705 65.3768 209.46C69.6718 206.895 77.9267 218.892 79.0726 221.106C76.6406 211.549 69.2353 204.627 61.2142 200.659C57.2465 198.695 53.466 196.848 57.6909 193.932C61.9158 191.017 71.0671 198.087 73.1718 201.111C68.1596 194.096 61.83 187.08 55.3446 182.918C48.1809 178.303 51.4471 170.586 58.7978 176.549C63.4202 180.244 70.9346 189.466 70.9346 189.466C70.9346 189.466 59.1174 165.722 62.6875 163.539C67.2709 160.733 75.4011 193.161 77.6383 199.498C77.0459 194.213 76.4847 181.413 80.4601 180.86C84.0536 180.361 83.1728 212.212 84.0068 217.84C84.5369 220.295 84.7863 221.527 85.1839 224.005C85.5814 219.765 87.9433 208.579 91.5368 209.873C94.5613 210.964 92.6905 219.336 91.9032 223.312C89.9934 232.931 88.0681 242.246 88.0603 252.114L83.6405 251.966Z" fill="#407BFF"/>
    <path opacity="0.2" d="M79.8054 187.08C79.2753 194.002 78.792 201.018 79.4546 207.971C78.0337 203.938 76.389 199.988 74.5281 196.138C74.5093 196.072 74.4804 196.009 74.4424 195.951C73.8811 194.797 73.3121 193.652 72.7197 192.521C72.478 192.061 71.8778 192.272 71.9402 192.693C67.5594 187.119 62.2666 182.06 55.9604 178.802C55.4927 178.56 55.1809 179.27 55.6252 179.519C62.9447 183.658 68.3857 189.497 73.7876 196.403C76.0561 201.016 77.984 205.789 79.5559 210.684C75.594 204.409 69.4803 199.795 62.3601 197.705C61.8768 197.557 61.5806 198.297 62.0873 198.446C71.8466 201.525 78.6907 208.353 81.5047 217.294C81.5291 217.363 81.5632 217.429 81.606 217.489C82.9623 223.202 83.9913 228.753 84.7942 234.568C82.0347 226.375 76.1105 219.126 69.3133 214.051C68.9001 213.739 68.5338 214.449 68.9391 214.753C76.7713 220.64 82.4604 228.93 85.1372 238.356C85.1372 238.356 85.1372 238.356 85.1372 238.395C85.4334 242.074 85.5633 245.769 85.5269 249.479C85.5269 249.583 85.568 249.682 85.6411 249.755C85.7141 249.828 85.8133 249.869 85.9167 249.869C86.02 249.869 86.1192 249.828 86.1922 249.755C86.2653 249.682 86.3064 249.583 86.3064 249.479C86.2235 237.105 84.4614 224.798 81.0682 212.897C79.2753 204.502 79.9223 195.748 80.6005 187.26C80.655 186.683 79.8521 186.519 79.8054 187.08Z" fill="white"/>
    <path d="M83.6405 251.966C82.861 239.416 77.3499 226.718 68.4948 218.105C66.2888 215.961 61.6507 211.705 65.3768 209.46C69.6718 206.895 77.9267 218.892 79.0726 221.106C76.6406 211.549 69.2353 204.627 61.2142 200.659C57.2465 198.695 53.466 196.848 57.6909 193.932C61.9158 191.017 71.0671 198.087 73.1718 201.111C68.1596 194.096 61.83 187.08 55.3446 182.918C48.1809 178.303 51.4471 170.586 58.7978 176.549C63.4202 180.244 70.9346 189.466 70.9346 189.466C70.9346 189.466 59.1174 165.722 62.6875 163.539C67.2709 160.733 75.4011 193.161 77.6383 199.498C77.0459 194.213 76.4847 181.413 80.4601 180.86C84.0536 180.361 83.1728 212.212 84.0068 217.84C84.5369 220.295 84.7863 221.527 85.1839 224.005C85.5814 219.765 87.9433 208.579 91.5368 209.873C94.5613 210.964 92.6905 219.336 91.9032 223.312C89.9934 232.931 88.0681 242.246 88.0603 252.114L83.6405 251.966Z" fill="#407BFF"/>
    <path opacity="0.2" d="M83.6405 251.966C82.861 239.416 77.3499 226.718 68.4948 218.105C66.2888 215.961 61.6507 211.705 65.3768 209.46C69.6718 206.895 77.9267 218.892 79.0726 221.106C76.6406 211.549 69.2353 204.627 61.2142 200.659C57.2465 198.695 53.466 196.848 57.6909 193.932C61.9158 191.017 71.0671 198.087 73.1718 201.111C68.1596 194.096 61.83 187.08 55.3446 182.918C48.1809 178.303 51.4471 170.586 58.7978 176.549C63.4202 180.244 70.9346 189.466 70.9346 189.466C70.9346 189.466 59.1174 165.722 62.6875 163.539C67.2709 160.733 75.4011 193.161 77.6383 199.498C77.0459 194.213 76.4847 181.413 80.4601 180.86C84.0536 180.361 83.1728 212.212 84.0068 217.84C84.5369 220.295 84.7863 221.527 85.1839 224.005C85.5814 219.765 87.9433 208.579 91.5368 209.873C94.5613 210.964 92.6905 219.336 91.9032 223.312C89.9934 232.931 88.0681 242.246 88.0603 252.114L83.6405 251.966Z" fill="white"/>
    <path opacity="0.5" d="M79.8054 187.08C79.2753 194.002 78.792 201.018 79.4546 207.971C78.0337 203.938 76.389 199.988 74.5281 196.138C74.5093 196.072 74.4804 196.009 74.4424 195.951C73.8811 194.797 73.3121 193.652 72.7197 192.521C72.478 192.061 71.8778 192.272 71.9402 192.693C67.5594 187.119 62.2666 182.06 55.9604 178.802C55.4927 178.56 55.1809 179.27 55.6252 179.519C62.9447 183.658 68.3857 189.497 73.7876 196.403C76.0561 201.016 77.984 205.789 79.5559 210.684C75.594 204.409 69.4803 199.795 62.3601 197.705C61.8768 197.557 61.5806 198.297 62.0873 198.446C71.8466 201.525 78.6907 208.353 81.5047 217.294C81.5291 217.363 81.5632 217.429 81.606 217.489C82.9623 223.202 83.9913 228.753 84.7942 234.568C82.0347 226.375 76.1105 219.126 69.3133 214.051C68.9001 213.739 68.5338 214.449 68.9391 214.753C76.7713 220.64 82.4604 228.93 85.1372 238.356C85.1372 238.356 85.1372 238.356 85.1372 238.395C85.4334 242.074 85.5633 245.769 85.5269 249.479C85.5269 249.583 85.568 249.682 85.6411 249.755C85.7141 249.828 85.8133 249.869 85.9167 249.869C86.02 249.869 86.1192 249.828 86.1922 249.755C86.2653 249.682 86.3064 249.583 86.3064 249.479C86.2235 237.105 84.4614 224.798 81.0682 212.897C79.2753 204.502 79.9223 195.748 80.6005 187.26C80.655 186.683 79.8521 186.519 79.8054 187.08Z" fill="white"/>
    <path d="M96.5257 250.259H72.1429C71.3842 250.259 70.6565 250.56 70.12 251.097C69.5835 251.633 69.2821 252.361 69.2821 253.12V254.383C69.2842 255.14 69.5865 255.866 70.1228 256.4C70.659 256.935 71.3855 257.236 72.1429 257.236L74.9491 277.503H93.7195L96.5257 257.236C96.902 257.237 97.2749 257.163 97.6229 257.02C97.9708 256.877 98.2871 256.666 98.5536 256.4C98.8201 256.135 99.0315 255.819 99.1758 255.471C99.32 255.124 99.3943 254.751 99.3943 254.375V253.112C99.3932 252.736 99.3182 252.365 99.1735 252.018C99.0288 251.671 98.8172 251.356 98.5508 251.091C98.2845 250.827 97.9685 250.617 97.6211 250.474C97.2736 250.331 96.9014 250.258 96.5257 250.259Z" fill="#407BFF"/>
    <path opacity="0.2" d="M96.5257 250.259H72.1429C71.3842 250.259 70.6565 250.56 70.12 251.097C69.5835 251.633 69.2821 252.361 69.2821 253.12V254.383C69.2842 255.14 69.5865 255.866 70.1228 256.4C70.659 256.935 71.3855 257.236 72.1429 257.236L74.9491 277.503H93.7195L96.5257 257.236C96.902 257.237 97.2749 257.163 97.6229 257.02C97.9708 256.877 98.2871 256.666 98.5536 256.4C98.8201 256.135 99.0315 255.819 99.1758 255.471C99.32 255.124 99.3943 254.751 99.3943 254.375V253.112C99.3932 252.736 99.3182 252.365 99.1735 252.018C99.0288 251.671 98.8172 251.356 98.5508 251.091C98.2845 250.827 97.9685 250.617 97.6211 250.474C97.2736 250.331 96.9014 250.258 96.5257 250.259Z" fill="black"/>
    <path opacity="0.2" d="M95.9488 261.421L96.5179 257.306H72.1506L72.7197 261.421H95.9488Z" fill="black"/>
    <path d="M303.07 109.988C303.07 109.988 317.031 121.992 317.031 129.109C317.031 135.649 303.164 142.657 297.068 143.561C295.165 143.67 293.257 143.67 291.354 143.561C290.71 143.561 290.082 143.362 289.556 142.99C289.03 142.619 288.631 142.094 288.416 141.487L288.346 141.285C288.145 140.734 288.107 140.137 288.235 139.565C288.364 138.993 288.653 138.47 289.07 138.058C289.737 137.36 290.598 136.879 291.541 136.678C293.74 136.335 296.834 139.429 296.834 139.429C296.834 139.429 310.374 131.284 310.374 129.795C310.374 128.306 304.185 123.426 302.345 120.729C300.794 118.484 299.204 115.187 303.07 109.988Z" fill="#B97964"/>
    <path d="M303.421 109.317C304.777 110.097 307.825 112.435 312.775 118.983C312.775 118.983 312.596 122.538 306.266 125.851C306.266 125.851 299.524 120.667 299.586 115.67C299.543 114.536 299.728 113.404 300.13 112.343C300.531 111.281 301.141 110.311 301.924 109.489C302.123 109.304 302.375 109.188 302.645 109.157C302.914 109.126 303.186 109.183 303.421 109.317Z" fill="#407BFF"/>
    <path opacity="0.2" d="M301.995 121.556C303.243 123.144 304.668 124.585 306.243 125.851L306.742 125.578C307.389 117.939 304.98 113.106 304.98 113.106L302.595 116.364L301.995 121.556Z" fill="black"/>
    <path opacity="0.2" d="M297.325 143.514C300.64 142.795 303.83 141.587 306.789 139.928C305.51 138.993 305.128 135.742 305.027 134.23C301.55 136.569 297.575 138.985 296.936 139.375L297.325 143.514Z" fill="#606060"/>
    <path d="M305.346 125.64C305.346 125.64 310.974 122.592 312.752 118.017L313.804 119.794C312.256 122.917 309.644 125.386 306.438 126.755L305.346 125.64Z" fill="#407BFF"/>
    <path opacity="0.5" d="M305.346 125.64C305.346 125.64 310.974 122.592 312.752 118.017L313.804 119.794C312.256 122.917 309.644 125.386 306.438 126.755L305.346 125.64Z" fill="white"/>
    <path d="M298.651 120.425L297.871 119.42C297.742 119.255 297.572 119.127 297.377 119.05C297.183 118.973 296.971 118.95 296.764 118.983L287.636 120.425C287.484 120.449 287.338 120.503 287.207 120.583C287.075 120.663 286.961 120.769 286.87 120.893C286.78 121.018 286.715 121.159 286.679 121.309C286.643 121.459 286.637 121.614 286.662 121.766L289.429 139.211C289.479 139.529 289.653 139.815 289.913 140.005C290.173 140.195 290.498 140.274 290.817 140.225L311.559 136.935C311.877 136.885 312.163 136.711 312.353 136.451C312.543 136.191 312.622 135.866 312.572 135.548L310.156 120.316C310.106 120.012 309.938 119.739 309.688 119.558C309.439 119.377 309.128 119.302 308.823 119.35L299.609 120.823C299.428 120.849 299.244 120.826 299.075 120.756C298.906 120.686 298.76 120.572 298.651 120.425Z" fill="#407BFF"/>
    <path opacity="0.4" d="M298.651 120.425L297.871 119.42C297.742 119.255 297.572 119.127 297.377 119.05C297.183 118.973 296.971 118.95 296.764 118.983L287.636 120.425C287.484 120.449 287.338 120.503 287.207 120.583C287.075 120.663 286.961 120.769 286.87 120.893C286.78 121.018 286.715 121.159 286.679 121.309C286.643 121.459 286.637 121.614 286.662 121.766L289.429 139.211C289.479 139.529 289.653 139.815 289.913 140.005C290.173 140.195 290.498 140.274 290.817 140.225L311.559 136.935C311.877 136.885 312.163 136.711 312.353 136.451C312.543 136.191 312.622 135.866 312.572 135.548L310.156 120.316C310.106 120.012 309.938 119.739 309.688 119.558C309.439 119.377 309.128 119.302 308.823 119.35L299.609 120.823C299.428 120.849 299.244 120.826 299.075 120.756C298.906 120.686 298.76 120.572 298.651 120.425Z" fill="white"/>
    <path d="M308.823 119.35L299.695 120.823C299.486 120.859 299.291 120.951 299.129 121.088C298.968 121.225 298.846 121.402 298.775 121.602L298.347 122.81C298.284 122.977 298.179 123.125 298.043 123.24C297.906 123.355 297.742 123.432 297.567 123.465L288.353 124.923C288.048 124.971 287.773 125.138 287.591 125.388C287.408 125.638 287.332 125.95 287.379 126.256L289.445 139.266C289.495 139.584 289.669 139.869 289.929 140.059C290.189 140.249 290.514 140.328 290.832 140.279L311.575 136.99C311.893 136.94 312.178 136.766 312.368 136.505C312.558 136.245 312.637 135.92 312.588 135.602L310.172 120.371C310.154 120.214 310.104 120.062 310.026 119.924C309.947 119.787 309.842 119.667 309.716 119.572C309.59 119.476 309.446 119.407 309.292 119.369C309.139 119.331 308.979 119.324 308.823 119.35Z" fill="#407BFF"/>
    <path opacity="0.7" d="M308.823 119.35L299.695 120.823C299.486 120.859 299.291 120.951 299.129 121.088C298.968 121.225 298.846 121.402 298.775 121.602L298.347 122.81C298.284 122.977 298.179 123.125 298.043 123.24C297.906 123.355 297.742 123.432 297.567 123.465L288.353 124.923C288.048 124.971 287.773 125.138 287.591 125.388C287.408 125.638 287.332 125.95 287.379 126.256L289.445 139.266C289.495 139.584 289.669 139.869 289.929 140.059C290.189 140.249 290.514 140.328 290.832 140.279L311.575 136.99C311.893 136.94 312.178 136.766 312.368 136.505C312.558 136.245 312.637 135.92 312.588 135.602L310.172 120.371C310.154 120.214 310.104 120.062 310.026 119.924C309.947 119.787 309.842 119.667 309.716 119.572C309.59 119.476 309.446 119.407 309.292 119.369C309.139 119.331 308.979 119.324 308.823 119.35Z" fill="white"/>
    <path d="M320.063 262.201L322.877 272.023L327.469 271.118L326.268 260.634L320.063 262.201Z" fill="#B97964"/>
    <path d="M322.48 270.487L327.897 269.505C327.997 269.49 328.098 269.508 328.187 269.556C328.275 269.604 328.346 269.679 328.389 269.77L330.166 274.003C330.204 274.092 330.225 274.187 330.226 274.284C330.227 274.381 330.209 274.477 330.173 274.567C330.137 274.657 330.083 274.739 330.015 274.808C329.947 274.877 329.865 274.932 329.776 274.969C329.73 274.993 329.68 275.009 329.628 275.016C327.671 275.336 325.91 275.546 323.478 275.99C320.609 276.513 321.404 276.723 318.021 277.386C315.994 277.783 315.199 275.538 316.041 275.265C319.939 274.049 320.087 272.787 321.357 271.095C321.645 270.763 322.044 270.547 322.48 270.487Z" fill="#263238"/>
    <path d="M280.044 260.291V273.309H284.923L287.441 260.595L280.044 260.291Z" fill="#B97964"/>
    <path d="M279.958 272.475L285.454 272.67C285.555 272.675 285.651 272.714 285.727 272.78C285.804 272.847 285.855 272.937 285.874 273.036L286.709 277.542C286.735 277.733 286.691 277.927 286.583 278.087C286.475 278.246 286.311 278.36 286.124 278.407C286.072 278.415 286.02 278.415 285.968 278.407C283.988 278.305 282.226 278.134 279.732 278.048C276.817 277.947 277.542 278.321 274.12 278.243C272.054 278.196 271.781 275.842 272.639 275.757C276.661 275.398 277.121 274.197 278.719 272.826C279.073 272.556 279.515 272.431 279.958 272.475Z" fill="#263238"/>
    <path d="M294.862 151.59L303.975 149.017C303.975 149.017 310.437 153.157 311.388 171.989C311.777 179.558 313.937 185.404 313.633 199.747C313.539 203.936 314.465 208.085 316.33 211.837C318.577 216.377 320.268 221.172 321.365 226.118C324.093 238.325 327.469 266.278 327.469 266.278L320.882 267.369C320.882 267.369 314.778 246.65 306.75 225.931C298.721 205.212 293.093 173.595 293.093 173.595L290.98 151.59H294.862Z" fill="#263238"/>
    <path opacity="0.6" d="M298.635 174.562L296.788 174.959L294.699 177.048L294.161 179.184C294.995 183.378 296.296 189.559 297.957 196.466C301.137 178.888 298.635 174.562 298.635 174.562Z" fill="black"/>
    <path d="M277.994 150.787L279.685 269.092H286.186C286.186 269.092 292.937 239.938 292.937 228.371C292.937 221.527 292.485 214.285 292.118 209.514C291.847 205.975 292.29 202.418 293.42 199.054C295.564 192.685 298.923 181.717 299.36 174.562C299.36 174.562 307.872 174.234 301.769 150.787H277.994Z" fill="#263238"/>
    <path d="M283.029 90.9288L280.028 93.8364C280.369 94.1884 280.788 94.4551 281.251 94.6149C281.714 94.7747 282.209 94.8231 282.694 94.7562L283.029 90.9288Z" fill="#A24E3F"/>
    <path d="M299.43 91.5213C298.222 97.4533 297.871 99.9945 294.387 102.645C289.328 105.124 282.156 103.845 281.572 97.6716C281.042 92.1137 283.131 83.3677 289.304 81.7775C290.669 81.4247 292.101 81.4271 293.464 81.7845C294.827 82.1418 296.077 82.8423 297.092 83.8191C298.108 84.796 298.857 86.0167 299.268 87.3649C299.678 88.7131 299.737 90.144 299.438 91.5213H299.43Z" fill="#B97964"/>
    <path d="M284.238 87.1483C284.199 87.1411 284.162 87.1255 284.129 87.1027C284.097 87.0798 284.07 87.0501 284.051 87.0158C283.926 86.7461 283.739 86.5104 283.504 86.3286C283.269 86.1467 282.994 86.0242 282.702 85.9713C282.671 85.9683 282.641 85.9593 282.614 85.9448C282.587 85.9303 282.563 85.9105 282.543 85.8865C282.524 85.8626 282.509 85.8351 282.5 85.8055C282.491 85.7758 282.488 85.7448 282.492 85.714C282.494 85.6825 282.504 85.6519 282.519 85.6241C282.534 85.5962 282.554 85.5717 282.579 85.5521C282.604 85.5324 282.632 85.5179 282.663 85.5096C282.693 85.5013 282.725 85.4992 282.757 85.5036C283.126 85.5653 283.476 85.7151 283.776 85.9403C284.076 86.1655 284.317 86.4595 284.479 86.7975C284.494 86.8257 284.503 86.8565 284.506 86.8882C284.509 86.9199 284.506 86.9519 284.497 86.9823C284.487 87.0127 284.472 87.041 284.452 87.0655C284.431 87.0899 284.406 87.1102 284.378 87.1249L284.238 87.1483Z" fill="#263238"/>
    <path opacity="0.2" d="M285.454 100.907C284.305 100.896 283.18 100.578 282.195 99.9867C283.271 102.271 285.547 103.494 288.104 103.767L288.018 102.512C288.018 102.512 288.244 100.992 285.454 100.907Z" fill="#606060"/>
    <path d="M287.636 108.047L288.166 100.431C288.166 100.431 291.245 99.3007 293.093 100.431C293.093 100.431 293.981 106.129 295.665 107.493L287.636 108.047Z" fill="#B97964"/>
    <path d="M281.689 89.5881C281.579 90.0246 281.689 90.4456 282.008 90.5157C282.328 90.5859 282.64 90.2741 282.741 89.8453C282.842 89.4166 282.741 88.9879 282.421 88.9177C282.102 88.8476 281.806 89.1438 281.689 89.5881Z" fill="#263238"/>
    <path d="M282.663 88.91C282.38 88.8496 282.114 88.7256 281.886 88.5473C281.658 88.369 281.473 88.1412 281.346 87.881C281.333 88.232 281.439 88.5769 281.647 88.8598C281.855 89.1428 282.153 89.3472 282.491 89.44L282.663 88.91Z" fill="#263238"/>
    <path d="M283.622 90.9445C283.13 92.0795 283.107 93.3632 283.559 94.5146C284.175 96.0346 285.789 95.8086 286.677 94.5614C287.511 93.4311 288.182 91.2797 287.036 90.1494C286.783 89.9115 286.476 89.7398 286.141 89.6495C285.806 89.5592 285.454 89.5531 285.116 89.6318C284.778 89.7105 284.465 89.8715 284.204 90.1006C283.943 90.3296 283.743 90.6195 283.622 90.9445Z" fill="#B97964"/>
    <path d="M301.885 87.1483C301.885 87.1483 305.105 84.0849 302.532 81.8321C299.96 79.5793 302.891 84.2641 301.885 87.1483Z" fill="#263238"/>
    <path d="M288.595 83.0092C288.595 83.0092 285.181 80.1562 284.019 82.331C282.858 84.5058 285.984 82.0426 288.595 83.0092Z" fill="#263238"/>
    <path d="M288.236 89.5959L283.193 87.9746L283.232 87.8654C283.293 87.6546 283.268 87.4284 283.163 87.2358C283.057 87.0432 282.881 86.8997 282.671 86.8365L281.751 86.5715C281.648 86.5345 281.538 86.5197 281.429 86.5281C281.319 86.5365 281.213 86.5678 281.117 86.62C281.02 86.6722 280.936 86.7442 280.869 86.8312C280.803 86.9182 280.755 87.0183 280.73 87.1249L279.763 90.4222C279.692 90.6827 279.72 90.9605 279.841 91.2017C279.908 91.3259 279.999 91.4354 280.108 91.5238C280.218 91.6122 280.345 91.6776 280.48 91.7162L280.909 91.8487C281.01 91.8601 281.112 91.8601 281.213 91.8487C281.447 91.848 281.674 91.7717 281.861 91.6312C282.048 91.4907 282.184 91.2936 282.25 91.0692L283.029 88.3643L288.057 89.9779L288.236 89.5959ZM281.353 87.0547C281.439 87.0238 281.533 87.0238 281.618 87.0547L282.538 87.3276C282.581 87.3401 282.621 87.3609 282.655 87.3889C282.69 87.4169 282.718 87.4515 282.739 87.4907C282.76 87.5299 282.773 87.5728 282.778 87.6171C282.782 87.6614 282.777 87.706 282.764 87.7485V87.8498L281.205 87.351V87.2886C281.223 87.1946 281.276 87.1109 281.353 87.0547ZM281.805 90.999C281.783 91.0785 281.745 91.1525 281.693 91.2166C281.642 91.2806 281.577 91.3333 281.504 91.3713C281.431 91.4094 281.351 91.4319 281.268 91.4376C281.186 91.4433 281.104 91.432 281.026 91.4044L280.605 91.2797C280.529 91.2575 280.459 91.2207 280.397 91.1712C280.335 91.1217 280.284 91.0605 280.246 90.9912C280.208 90.923 280.185 90.8477 280.177 90.77C280.169 90.6923 280.176 90.6137 280.2 90.5391L280.979 87.7875L282.538 88.2942L281.805 90.999Z" fill="#263238"/>
    <path d="M284.986 110.183C284.986 110.183 285.765 107.174 290.98 106.09C292.356 105.722 293.815 105.821 295.128 106.371C296.441 106.921 297.535 107.892 298.237 109.13L284.986 110.183Z" fill="#407BFF"/>
    <path opacity="0.5" d="M284.986 110.183C284.986 110.183 285.765 107.174 290.98 106.09C292.356 105.722 293.815 105.821 295.128 106.371C296.441 106.921 297.535 107.892 298.237 109.13L284.986 110.183Z" fill="white"/>
    <path d="M277.393 151.566C277.393 151.566 298.534 154.178 305.284 149.017C304.067 143.607 303.636 138.049 304.006 132.515C304.653 123.723 307.365 115.047 304.473 110.292C301.581 105.537 280.192 109.083 275.975 113.41C271.758 117.736 277.393 134.643 277.393 151.566Z" fill="#407BFF"/>
    <path opacity="0.2" d="M280.706 117.175L278.96 122.382L275.063 127.285C275.515 130.894 276.131 134.955 276.622 139.242C278.68 136.992 280.282 134.363 281.338 131.502C285.157 121.096 282.117 115.296 282.117 115.296L280.706 117.175Z" fill="black"/>
    <path d="M284.986 93.7585C284.986 93.7585 278.75 109.255 289.32 109.138C299.89 109.021 302.447 106.449 299.617 104.36C296.788 102.271 306.079 95.3643 302.595 86.6962C302.595 86.6962 301.363 79.7898 294.301 79.8678C293.224 78.4431 291.637 77.4906 289.873 77.2097C289.264 77.1353 288.646 77.2347 288.09 77.4964C287.535 77.7581 287.064 78.1714 286.734 78.6888C286.403 79.2062 286.225 79.8065 286.221 80.4205C286.216 81.0346 286.385 81.6374 286.709 82.1595L288.166 84.498C288.166 84.498 282.655 86.2908 284.986 93.7585Z" fill="#263238"/>
    <path d="M279.716 112.599C279.716 112.599 274.525 113.745 273.48 120.269C272.436 126.794 271.812 131.736 269.91 132.398C268.008 133.061 258.997 125.578 258.997 125.578L259.294 121.197C259.325 120.716 259.211 120.236 258.968 119.819C258.725 119.403 258.364 119.068 257.929 118.858L257.251 118.523C256.83 118.32 256.36 118.241 255.896 118.296C255.432 118.351 254.993 118.538 254.632 118.835L254.118 119.264C253.781 119.543 253.524 119.906 253.375 120.317C253.225 120.729 253.188 121.172 253.268 121.602C253.619 123.356 254.344 126.178 255.606 127.059C255.606 127.059 268.25 141.596 272.015 140.084C275.78 138.572 278.633 129.428 280.176 125.632C281.4 122.639 282.959 119.303 279.716 112.599Z" fill="#B97964"/>
    <path d="M280.044 111.749C278.633 110.845 272.756 111.936 271.368 125.422C271.368 125.422 276.006 129.319 280.402 128.797C280.402 128.797 286.124 115.67 280.044 111.749Z" fill="#407BFF"/>
    <path d="M271.072 124.128C271.072 124.128 275.616 128.025 281.307 127.815L280.652 129.335C280.652 129.335 275.827 130.395 270.861 125.64L271.072 124.128Z" fill="#407BFF"/>
    <path opacity="0.5" d="M271.072 124.128C271.072 124.128 275.616 128.025 281.307 127.815L280.652 129.335C280.652 129.335 275.827 130.395 270.861 125.64L271.072 124.128Z" fill="white"/>
    <path d="M319.752 265.841L320.367 268.265L328.085 266.792L327.82 264.391L319.752 265.841Z" fill="#407BFF"/>
    <path d="M278.882 267.541L278.976 269.949H286.958L287.441 267.541H278.882Z" fill="#407BFF"/>
</svg>
