<svg width="273" height="247" viewBox="0 0 273 247" fill="none" xmlns="http://www.w3.org/2000/svg">
    <path d="M64.3978 16.5473L42.8302 1.72285C41.4459 0.771345 39.4451 0.985149 38.3612 2.20039L2.56848 42.3312C1.4846 43.5464 1.72815 45.3029 3.11246 46.2544L24.68 61.0788C26.0644 62.0303 28.0652 61.8165 29.1491 60.6013L64.9418 20.4705C66.0257 19.2553 65.7821 17.4988 64.3978 16.5473Z" fill="#F5F5F5"/>
    <path d="M25.4142 55.7003C25.3775 55.7324 21.8764 53.3777 17.5931 50.4328C13.3099 47.488 9.86369 45.0689 9.89424 45.0313C9.9248 44.9938 13.4259 47.3539 17.7153 50.2987C22.0047 53.2436 25.4447 55.6627 25.4142 55.7003Z" fill="#E0E0E0"/>
    <path d="M57.8532 17.7554C57.8166 17.793 54.3154 15.4328 50.0322 12.488C45.7489 9.5432 42.2966 7.12405 42.3333 7.0865C42.37 7.04895 45.865 9.4091 50.1544 12.3539C54.4437 15.2987 57.8838 17.7179 57.8532 17.7554Z" fill="#E0E0E0"/>
    <path d="M17.2136 49.9499C17.1708 49.9177 24.5825 41.5499 33.76 31.2619C42.9376 20.9738 50.4165 12.6489 50.4592 12.6757C50.502 12.7025 43.0964 21.0703 33.9128 31.3638C24.7291 41.6572 17.2563 49.9767 17.2136 49.9499Z" fill="#E0E0E0"/>
    <path d="M37.6904 15.2396L39.6396 12.9438L42.0837 14.553C42.2553 14.6652 42.4001 14.8059 42.5096 14.9673C42.6191 15.1286 42.6913 15.3074 42.7219 15.4933C42.7526 15.6792 42.7411 15.8685 42.6882 16.0505C42.6353 16.2325 42.542 16.4035 42.4136 16.5538C42.1556 16.8578 41.7707 17.0595 41.3435 17.1148C40.9163 17.1701 40.4815 17.0745 40.1345 16.8488L37.6904 15.2396Z" fill="#EBEBEB"/>
    <path d="M40.0789 13.2335L38.1297 15.524L35.6857 13.9148C35.3342 13.6913 35.0982 13.3545 35.0295 12.9783C34.9607 12.6021 35.0649 12.2174 35.319 11.9086C35.4468 11.758 35.6071 11.6309 35.7909 11.5347C35.9747 11.4386 36.1783 11.3753 36.3901 11.3483C36.6018 11.3214 36.8175 11.3315 37.0249 11.3779C37.2322 11.4244 37.427 11.5063 37.5982 11.619L40.0789 13.2335Z" fill="#E0E0E0"/>
    <path d="M50.3135 23.7042L52.2626 21.4084L54.7067 23.0176C55.0534 23.2452 55.2833 23.5839 55.3463 23.9598C55.4093 24.3357 55.3001 24.7183 55.0428 25.0238C54.7827 25.3272 54.3964 25.528 53.9682 25.5823C53.54 25.6366 53.1048 25.5399 52.7576 25.3134L50.3135 23.7042Z" fill="#EBEBEB"/>
    <path d="M52.7021 21.6925L50.7529 23.9883L48.3088 22.3791C48.1372 22.267 47.9925 22.1262 47.8829 21.9649C47.7734 21.8035 47.7012 21.6248 47.6706 21.4389C47.6399 21.253 47.6514 21.0636 47.7043 20.8816C47.7572 20.6997 47.8505 20.5286 47.9789 20.3784C48.1066 20.2277 48.267 20.1006 48.4508 20.0045C48.6346 19.9083 48.8382 19.845 49.0499 19.8181C49.2617 19.7912 49.4774 19.8012 49.6847 19.8477C49.892 19.8941 50.0868 19.976 50.258 20.0887L52.7021 21.6925Z" fill="#E0E0E0"/>
    <path d="M32.2207 21.5693L34.1699 19.2736L36.6139 20.8827C36.9606 21.1103 37.1905 21.449 37.2535 21.8249C37.3165 22.2009 37.2074 22.5834 36.95 22.8889C36.6899 23.1924 36.3036 23.3932 35.8754 23.4474C35.4473 23.5017 35.012 23.405 34.6648 23.1785L32.2207 21.5693Z" fill="#EBEBEB"/>
    <path d="M34.6037 19.5577L32.6606 21.8534L30.2165 20.2442C30.0449 20.1321 29.9002 19.9913 29.7906 19.83C29.6811 19.6686 29.6089 19.4899 29.5783 19.304C29.5476 19.1181 29.5591 18.9288 29.612 18.7468C29.6649 18.5648 29.7582 18.3937 29.8866 18.2435C30.0143 18.0928 30.1747 17.9657 30.3585 17.8696C30.5423 17.7734 30.7459 17.7101 30.9576 17.6832C31.1694 17.6563 31.3851 17.6663 31.5924 17.7128C31.7997 17.7592 31.9945 17.8411 32.1657 17.9538L34.6037 19.5577Z" fill="#E0E0E0"/>
    <path d="M45.1323 30.2158L47.0815 27.9254L49.5256 29.5346C49.8718 29.7611 50.1016 30.099 50.1646 30.474C50.2276 30.8491 50.1187 31.2307 49.8616 31.5354C49.7338 31.6866 49.5732 31.8143 49.3891 31.911C49.205 32.0077 49.001 32.0716 48.7887 32.099C48.5765 32.1264 48.3601 32.1168 48.1521 32.0707C47.9441 32.0246 47.7484 31.9429 47.5764 31.8304L45.1323 30.2158Z" fill="#EBEBEB"/>
    <path d="M47.5392 28.2098L45.5962 30.5056L43.1521 28.8964C42.9804 28.7843 42.8357 28.6435 42.7262 28.4822C42.6167 28.3208 42.5445 28.1421 42.5138 27.9562C42.4832 27.7703 42.4946 27.5809 42.5475 27.399C42.6004 27.217 42.6938 27.0459 42.8221 26.8957C43.0802 26.5917 43.465 26.39 43.8922 26.3347C44.3195 26.2794 44.7542 26.375 45.1012 26.6007L47.5392 28.2098Z" fill="#E0E0E0"/>
    <path d="M26.7646 27.8933L28.7138 25.5975L31.1579 27.2067C31.3295 27.3189 31.4743 27.4596 31.5838 27.621C31.6933 27.7823 31.7655 27.9611 31.7961 28.147C31.8268 28.3328 31.8153 28.5222 31.7624 28.7042C31.7095 28.8862 31.6162 29.0572 31.4878 29.2075C31.2298 29.5114 30.845 29.7132 30.4177 29.7685C29.9905 29.8238 29.5558 29.7281 29.2087 29.5025L26.7646 27.8933Z" fill="#EBEBEB"/>
    <path d="M29.1352 25.8979L27.186 28.1937L24.742 26.5845C24.5698 26.4728 24.4246 26.3323 24.3145 26.1711C24.2044 26.01 24.1316 25.8313 24.1004 25.6454C24.0692 25.4595 24.0801 25.27 24.1325 25.0878C24.1849 24.9056 24.2778 24.7343 24.4059 24.5837C24.6636 24.2844 25.0448 24.0858 25.4676 24.0306C25.8904 23.9754 26.3209 24.0681 26.6667 24.2887L29.1352 25.8979Z" fill="#E0E0E0"/>
    <path d="M39.9507 36.7333L41.8937 34.4375L44.3378 36.0467C44.5095 36.1588 44.6542 36.2996 44.7637 36.4609C44.8733 36.6223 44.9454 36.801 44.9761 36.9869C45.0067 37.1728 44.9953 37.3622 44.9424 37.5442C44.8895 37.7262 44.7961 37.8972 44.6678 38.0475C44.4097 38.3514 44.0249 38.5532 43.5977 38.6085C43.1704 38.6638 42.7357 38.5681 42.3887 38.3425L39.9507 36.7333Z" fill="#EBEBEB"/>
    <path d="M42.3336 34.7271L40.3844 37.0229L37.9403 35.4137C37.7666 35.3027 37.6196 35.1626 37.5077 35.0016C37.3958 34.8405 37.3212 34.6617 37.2883 34.4753C37.2554 34.2889 37.2647 34.0986 37.3158 33.9154C37.3669 33.7321 37.4587 33.5596 37.586 33.4076C37.8451 33.1033 38.231 32.9014 38.6592 32.8461C39.0874 32.7908 39.5232 32.8866 39.8712 33.1126L42.3336 34.7271Z" fill="#E0E0E0"/>
    <path d="M20.5444 34.3945L22.4875 32.0988L24.9316 33.7079C25.1032 33.8201 25.2479 33.9609 25.3575 34.1222C25.467 34.2835 25.5392 34.4623 25.5698 34.6482C25.6005 34.8341 25.589 35.0234 25.5361 35.2054C25.4832 35.3874 25.3899 35.5584 25.2615 35.7087C25.1338 35.8594 24.9734 35.9864 24.7896 36.0826C24.6058 36.1787 24.4022 36.2421 24.1905 36.269C23.9787 36.2959 23.763 36.2859 23.5557 36.2394C23.3484 36.193 23.1536 36.1111 22.9824 35.9984L20.5444 34.3945Z" fill="#EBEBEB"/>
    <path d="M22.9277 32.383L20.9785 34.6787L18.5344 33.0696C18.1897 32.8404 17.9621 32.5009 17.9015 32.1251C17.8408 31.7493 17.9519 31.3676 18.2106 31.0634C18.4707 30.7599 18.857 30.5591 19.2851 30.5049C19.7133 30.4506 20.1486 30.5473 20.4958 30.7738L22.9277 32.383Z" fill="#E0E0E0"/>
    <path d="M33.8521 43.1002L35.8012 40.8044L38.2453 42.4136C38.4174 42.5254 38.5627 42.6658 38.6728 42.827C38.7829 42.9881 38.8556 43.1668 38.8869 43.3527C38.9181 43.5386 38.9072 43.7281 38.8547 43.9103C38.8023 44.0925 38.7094 44.2638 38.5814 44.4144C38.4536 44.5651 38.2933 44.6921 38.1095 44.7883C37.9257 44.8844 37.7221 44.9478 37.5103 44.9747C37.2986 45.0016 37.0829 44.9915 36.8755 44.9451C36.6682 44.8987 36.4734 44.8167 36.3022 44.704L33.8521 43.1002Z" fill="#EBEBEB"/>
    <path d="M36.2412 41.0941L34.292 43.3845L31.8479 41.7754C31.5022 41.547 31.2735 41.2079 31.2116 40.832C31.1498 40.4562 31.2599 40.0741 31.518 39.7692C31.6457 39.6186 31.806 39.4915 31.9898 39.3953C32.1736 39.2992 32.3772 39.2358 32.589 39.2089C32.8007 39.182 33.0165 39.1921 33.2238 39.2385C33.4311 39.285 33.6259 39.3669 33.7971 39.4796L36.2412 41.0941Z" fill="#E0E0E0"/>
    <path d="M15.0566 41.7164L16.9875 39.4207L19.4316 41.0298C19.7773 41.2582 20.006 41.5973 20.0678 41.9732C20.1296 42.349 20.0195 42.7311 19.7615 43.036C19.6338 43.1866 19.4734 43.3137 19.2896 43.4099C19.1058 43.506 18.9022 43.5694 18.6905 43.5963C18.4787 43.6232 18.263 43.6131 18.0557 43.5667C17.8484 43.5202 17.6536 43.4383 17.4824 43.3256L15.0566 41.7164Z" fill="#EBEBEB"/>
    <path d="M17.4463 39.7049L15.4971 41.9899L13.0531 40.3807C12.7076 40.1551 12.4778 39.8187 12.4137 39.4449C12.3496 39.0711 12.4564 38.6902 12.7109 38.3853C12.8386 38.2346 12.999 38.1076 13.1828 38.0114C13.3666 37.9153 13.5702 37.8519 13.7819 37.825C13.9937 37.7981 14.2094 37.8082 14.4167 37.8546C14.624 37.9011 14.8188 37.983 14.99 38.0957L17.4463 39.7049Z" fill="#E0E0E0"/>
    <path d="M27.7241 49.9982L29.6733 47.7024L32.1174 49.3116C32.2895 49.4233 32.4348 49.5638 32.5449 49.7249C32.655 49.8861 32.7277 50.0648 32.7589 50.2507C32.7902 50.4366 32.7792 50.6261 32.7268 50.8083C32.6744 50.9904 32.5815 51.1618 32.4534 51.3123C32.3257 51.463 32.1653 51.5901 31.9815 51.6862C31.7977 51.7824 31.5941 51.8457 31.3824 51.8726C31.1706 51.8996 30.9549 51.8895 30.7476 51.8431C30.5403 51.7966 30.3455 51.7147 30.1743 51.602L27.7241 49.9982Z" fill="#EBEBEB"/>
    <path d="M30.1132 47.9867L28.1641 50.2825L25.72 48.6733C25.3743 48.445 25.1455 48.1059 25.0837 47.73C25.0219 47.3541 25.132 46.972 25.39 46.6672C25.5178 46.5165 25.6781 46.3894 25.8619 46.2933C26.0457 46.1971 26.2493 46.1338 26.4611 46.1069C26.6728 46.08 26.8885 46.09 27.0958 46.1365C27.3031 46.1829 27.498 46.2648 27.6691 46.3775L30.1132 47.9867Z" fill="#E0E0E0"/>
    <path d="M270.843 151.125L231.591 162.867C231.195 162.985 230.776 163.033 230.359 163.009C229.942 162.985 229.534 162.889 229.159 162.727C228.784 162.565 228.449 162.339 228.173 162.063C227.897 161.787 227.686 161.466 227.552 161.118L200.172 90.5605C200.037 90.2129 199.98 89.8453 200.007 89.4786C200.033 89.1119 200.142 88.7534 200.326 88.4236C200.511 88.0937 200.767 87.7991 201.082 87.5565C201.396 87.3138 201.762 87.128 202.158 87.0096L241.41 75.2732C242.209 75.0345 243.083 75.084 243.841 75.4109C244.598 75.7378 245.176 76.3153 245.449 77.0165L272.829 147.579C272.964 147.927 273.02 148.294 272.994 148.66C272.967 149.027 272.859 149.385 272.674 149.714C272.49 150.044 272.233 150.338 271.919 150.58C271.604 150.822 271.239 151.007 270.843 151.125Z" fill="#EBEBEB"/>
    <path d="M220.104 96.7773C220.328 97.3526 220.353 97.9734 220.175 98.561C219.997 99.1487 219.625 99.6768 219.105 100.079C218.585 100.48 217.941 100.738 217.254 100.818C216.568 100.899 215.87 100.799 215.248 100.531C214.626 100.263 214.109 99.8387 213.762 99.3126C213.415 98.7865 213.253 98.1818 213.297 97.575C213.342 96.9682 213.59 96.3866 214.011 95.9038C214.432 95.4209 215.006 95.0585 215.662 94.8624C216.54 94.5996 217.502 94.6537 218.334 95.0128C219.167 95.3719 219.804 96.0065 220.104 96.7773Z" fill="#FAFAFA"/>
    <path d="M239.351 91.0219C239.574 91.5963 239.598 92.2158 239.42 92.8021C239.242 93.3884 238.869 93.9151 238.35 94.3157C237.831 94.7163 237.188 94.9727 236.503 95.0526C235.818 95.1324 235.121 95.0321 234.501 94.7644C233.88 94.4966 233.364 94.0734 233.018 93.5483C232.672 93.0231 232.511 92.4196 232.555 91.814C232.599 91.2085 232.847 90.6281 233.267 90.1462C233.688 89.6644 234.261 89.3027 234.915 89.1069C235.35 88.9769 235.809 88.9233 236.267 88.9492C236.725 88.9751 237.173 89.0799 237.585 89.2578C237.997 89.4356 238.365 89.6829 238.668 89.9856C238.971 90.2883 239.203 90.6404 239.351 91.0219Z" fill="#FAFAFA"/>
    <path d="M226.196 112.489C226.418 113.063 226.442 113.682 226.264 114.269C226.086 114.855 225.714 115.382 225.194 115.782C224.675 116.183 224.032 116.439 223.347 116.519C222.662 116.599 221.965 116.499 221.345 116.231C220.725 115.963 220.209 115.54 219.862 115.015C219.516 114.49 219.355 113.886 219.399 113.281C219.444 112.675 219.692 112.095 220.112 111.613C220.532 111.131 221.105 110.769 221.76 110.574C222.194 110.443 222.654 110.389 223.112 110.414C223.57 110.44 224.018 110.544 224.431 110.722C224.843 110.9 225.211 111.148 225.514 111.451C225.816 111.754 226.048 112.107 226.196 112.489Z" fill="#FAFAFA"/>
    <path d="M245.448 106.733C245.671 107.307 245.695 107.927 245.517 108.513C245.339 109.099 244.967 109.626 244.447 110.027C243.928 110.427 243.285 110.684 242.6 110.764C241.915 110.843 241.218 110.743 240.598 110.475C239.978 110.208 239.462 109.784 239.115 109.259C238.769 108.734 238.608 108.131 238.652 107.525C238.697 106.92 238.945 106.339 239.365 105.857C239.785 105.375 240.358 105.014 241.012 104.818C241.447 104.688 241.906 104.634 242.364 104.66C242.823 104.686 243.27 104.791 243.682 104.969C244.094 105.147 244.462 105.394 244.765 105.697C245.068 105.999 245.3 106.351 245.448 106.733Z" fill="#FAFAFA"/>
    <path d="M232.294 128.205C232.517 128.779 232.541 129.399 232.363 129.985C232.184 130.571 231.812 131.098 231.293 131.499C230.774 131.899 230.131 132.156 229.446 132.235C228.761 132.315 228.064 132.215 227.444 131.947C226.823 131.679 226.307 131.256 225.961 130.731C225.615 130.206 225.454 129.602 225.498 128.997C225.542 128.391 225.79 127.811 226.21 127.329C226.63 126.847 227.204 126.486 227.858 126.29C228.293 126.16 228.752 126.106 229.21 126.132C229.668 126.158 230.116 126.263 230.528 126.441C230.94 126.618 231.308 126.866 231.611 127.168C231.914 127.471 232.146 127.823 232.294 128.205Z" fill="#FAFAFA"/>
    <path d="M251.547 122.449C251.77 123.024 251.794 123.643 251.616 124.23C251.437 124.816 251.065 125.343 250.546 125.743C250.027 126.144 249.384 126.4 248.699 126.48C248.014 126.56 247.317 126.46 246.696 126.192C246.076 125.924 245.56 125.501 245.214 124.976C244.868 124.451 244.706 123.847 244.751 123.242C244.795 122.636 245.043 122.056 245.463 121.574C245.883 121.092 246.457 120.73 247.111 120.534C247.546 120.404 248.005 120.351 248.463 120.377C248.921 120.403 249.369 120.507 249.781 120.685C250.193 120.863 250.561 121.11 250.864 121.413C251.167 121.716 251.399 122.068 251.547 122.449Z" fill="#FAFAFA"/>
    <path d="M238.391 143.905C238.614 144.48 238.638 145.099 238.46 145.685C238.282 146.272 237.909 146.799 237.39 147.199C236.871 147.6 236.228 147.856 235.543 147.936C234.858 148.016 234.161 147.916 233.541 147.648C232.92 147.38 232.404 146.957 232.058 146.432C231.712 145.907 231.551 145.303 231.595 144.697C231.639 144.092 231.887 143.512 232.308 143.03C232.728 142.548 233.301 142.186 233.955 141.99C234.39 141.86 234.849 141.807 235.307 141.833C235.765 141.859 236.213 141.963 236.625 142.141C237.037 142.319 237.405 142.566 237.708 142.869C238.011 143.172 238.243 143.524 238.391 143.905Z" fill="#FAFAFA"/>
    <path d="M257.645 138.16C257.868 138.735 257.891 139.354 257.713 139.941C257.535 140.527 257.163 141.054 256.644 141.454C256.124 141.855 255.482 142.111 254.796 142.191C254.111 142.271 253.414 142.171 252.794 141.903C252.174 141.635 251.658 141.212 251.312 140.687C250.965 140.162 250.804 139.558 250.849 138.953C250.893 138.347 251.141 137.767 251.561 137.285C251.981 136.803 252.554 136.441 253.209 136.245C253.643 136.115 254.103 136.062 254.561 136.088C255.019 136.114 255.467 136.218 255.879 136.396C256.291 136.574 256.659 136.821 256.962 137.124C257.265 137.427 257.497 137.779 257.645 138.16Z" fill="#FAFAFA"/>
    <path d="M218.228 95.1307C217.856 96.0385 217.398 96.9177 216.86 97.7591C216.406 98.639 215.867 99.4825 215.247 100.28C215.619 99.3723 216.077 98.4932 216.615 97.6518C217.067 96.7714 217.607 95.9278 218.228 95.1307Z" fill="#E0E0E0"/>
    <path d="M237.078 89.3538C236.708 90.2634 236.252 91.1444 235.716 91.9875C235.258 92.8654 234.718 93.7086 234.103 94.5085C234.474 93.5994 234.93 92.7185 235.465 91.8748C235.925 90.9977 236.464 90.1546 237.078 89.3538Z" fill="#E0E0E0"/>
    <path d="M224.503 110.842C224.182 111.79 223.774 112.714 223.281 113.604C222.88 114.533 222.389 115.43 221.815 116.286C222.138 115.338 222.547 114.415 223.037 113.524C223.44 112.595 223.931 111.698 224.503 110.842Z" fill="#E0E0E0"/>
    <path d="M243.518 105.049C243.262 105.968 242.914 106.865 242.479 107.731C242.13 108.629 241.695 109.499 241.178 110.332C241.435 109.414 241.783 108.516 242.216 107.65C242.569 106.753 243.004 105.883 243.518 105.049Z" fill="#E0E0E0"/>
    <path d="M230.027 126.489C229.384 128.205 228.566 129.868 227.583 131.456C228.225 129.739 229.043 128.076 230.027 126.489Z" fill="#E0E0E0"/>
    <path d="M249.744 120.996C248.937 122.689 247.96 124.315 246.824 125.856C247.183 124.994 247.631 124.162 248.162 123.372C248.612 122.542 249.141 121.747 249.744 120.996Z" fill="#E0E0E0"/>
    <path d="M236.645 142.425C236.245 143.319 235.761 144.182 235.196 145.005C234.713 145.866 234.147 146.69 233.504 147.467C234.386 145.711 235.436 144.024 236.645 142.425Z" fill="#E0E0E0"/>
    <path d="M255.855 136.16C255.535 137.168 255.127 138.152 254.633 139.104C254.226 140.087 253.732 141.039 253.154 141.953C253.474 140.945 253.882 139.96 254.376 139.008C254.781 138.025 255.276 137.073 255.855 136.16Z" fill="#E0E0E0"/>
    <path d="M262.875 146.587C262.875 146.652 257.003 148.47 249.708 150.653C242.412 152.836 236.467 154.553 236.442 154.488C236.418 154.424 242.314 152.606 249.616 150.422C256.918 148.239 262.851 146.512 262.875 146.587Z" fill="#E0E0E0"/>
    <path d="M236.712 83.4051C236.712 83.4641 230.84 85.2878 223.538 87.471C216.236 89.6541 210.303 91.3706 210.279 91.3062C210.254 91.2418 216.151 89.4234 223.452 87.2403C230.754 85.0572 236.687 83.3407 236.712 83.4051Z" fill="#E0E0E0"/>
    <path d="M223.873 90.5076C223.839 90.5156 223.804 90.5156 223.77 90.5076H223.733L224.002 90.4319C224.002 90.4697 224.002 90.5238 223.904 90.5454C223.806 90.5671 223.757 90.5454 223.739 90.5076L224.008 90.4319C224.008 90.4319 224.008 90.4589 224.008 90.4643C223.991 90.48 223.97 90.492 223.946 90.4995C223.923 90.507 223.898 90.5098 223.873 90.5076Z" fill="#E0E0E0"/>
    <path d="M248.76 150.659C248.687 150.659 243.114 136.487 236.308 118.958C229.501 101.428 224.05 87.1921 224.124 87.1707C224.197 87.1492 229.77 101.342 236.57 118.877C243.371 136.412 248.833 150.637 248.76 150.659Z" fill="#E0E0E0"/>
    <path d="M103.307 243.18L105.402 215.553L166.912 219.149C167.928 219.208 168.875 219.619 169.545 220.291C170.215 220.964 170.554 221.842 170.486 222.734L168.9 243.639C168.832 244.53 168.364 245.362 167.598 245.95C166.832 246.538 165.832 246.836 164.816 246.776L103.307 243.18Z" fill="#F5F5F5"/>
    <path d="M122.551 226.863L121.234 244.226L149.511 245.879L150.828 228.516L122.551 226.863Z" fill="#E0E0E0"/>
    <path d="M99.6768 213.95L97.3284 244.907C97.2813 245.528 97.8164 246.065 98.5235 246.106L106.888 246.595C107.595 246.636 108.207 246.167 108.254 245.546L110.602 214.589C110.649 213.968 110.114 213.432 109.407 213.39L101.042 212.901C100.335 212.86 99.7239 213.33 99.6768 213.95Z" fill="#EBEBEB"/>
    <path d="M108.373 244.029C106.537 244.071 104.701 244.013 102.874 243.857C101.048 243.798 99.2277 243.643 97.4233 243.39C99.2587 243.349 101.095 243.406 102.923 243.562C104.748 243.62 106.569 243.776 108.373 244.029Z" fill="#E0E0E0"/>
    <path d="M108.574 241.347C106.749 241.391 104.922 241.334 103.105 241.175C101.279 241.117 99.4591 240.961 97.6548 240.709C99.4799 240.671 101.306 240.728 103.123 240.88C104.949 240.939 106.769 241.095 108.574 241.347Z" fill="#E0E0E0"/>
    <path d="M108.782 238.67C106.946 238.712 105.11 238.655 103.282 238.499C101.456 238.44 99.6363 238.284 97.832 238.032C99.6674 237.99 101.504 238.047 103.331 238.204C105.157 238.262 106.977 238.418 108.782 238.67Z" fill="#E0E0E0"/>
    <path d="M108.984 235.988C107.148 236.03 105.312 235.973 103.484 235.817C101.659 235.758 99.8385 235.602 98.0342 235.35C99.8695 235.311 101.706 235.369 103.533 235.522C105.359 235.58 107.179 235.736 108.984 235.988Z" fill="#E0E0E0"/>
    <path d="M109.185 233.312C107.36 233.353 105.533 233.296 103.716 233.14C101.888 233.082 100.066 232.926 98.2598 232.673C100.095 232.632 101.932 232.689 103.759 232.845C105.577 232.904 107.389 233.06 109.185 233.312Z" fill="#E0E0E0"/>
    <path d="M109.393 230.63C107.558 230.672 105.721 230.614 103.894 230.458C102.068 230.4 100.248 230.244 98.4438 229.992C100.279 229.953 102.115 230.01 103.943 230.163C105.769 230.222 107.589 230.378 109.393 230.63Z" fill="#E0E0E0"/>
    <path d="M109.595 227.953C107.76 227.995 105.923 227.938 104.096 227.781C102.27 227.723 100.45 227.567 98.6455 227.315C100.481 227.273 102.317 227.33 104.145 227.486C105.971 227.545 107.791 227.701 109.595 227.953Z" fill="#E0E0E0"/>
    <path d="M109.796 225.271C107.961 225.313 106.124 225.256 104.297 225.1C102.471 225.041 100.651 224.885 98.8467 224.633C100.682 224.594 102.518 224.652 104.346 224.805C106.172 224.863 107.992 225.019 109.796 225.271Z" fill="#E0E0E0"/>
    <path d="M109.998 222.595C108.172 222.636 106.346 222.578 104.529 222.423C102.703 222.365 100.883 222.209 99.0786 221.956C100.914 221.914 102.751 221.971 104.578 222.128C106.393 222.187 108.203 222.343 109.998 222.595Z" fill="#E0E0E0"/>
    <path d="M110.205 219.913C108.37 219.955 106.533 219.897 104.706 219.741C102.88 219.683 101.06 219.527 99.2554 219.274C101.091 219.236 102.927 219.293 104.755 219.446C106.58 219.505 108.401 219.661 110.205 219.913Z" fill="#E0E0E0"/>
    <path d="M110.407 217.236C108.572 217.278 106.735 217.221 104.908 217.064C103.082 217.006 101.262 216.85 99.4575 216.598C101.293 216.556 103.129 216.613 104.957 216.769C106.783 216.828 108.603 216.983 110.407 217.236Z" fill="#E0E0E0"/>
    <path d="M110.609 214.554C108.783 214.595 106.957 214.538 105.14 214.382C103.312 214.324 101.49 214.168 99.6836 213.916C101.519 213.874 103.355 213.931 105.183 214.087C107 214.147 108.812 214.302 110.609 214.554Z" fill="#E0E0E0"/>
    <path d="M162.866 241.358L161.092 241.254C160.607 241.226 160.155 241.029 159.834 240.708C159.514 240.387 159.353 239.967 159.385 239.541L159.787 234.243L165.274 234.564L164.872 239.862C164.856 240.077 164.79 240.287 164.68 240.48C164.57 240.672 164.417 240.843 164.229 240.983C164.042 241.122 163.825 241.227 163.591 241.292C163.357 241.356 163.11 241.379 162.866 241.358Z" fill="#EBEBEB"/>
    <path d="M161.502 229.289L163.335 229.401C163.821 229.431 164.273 229.629 164.593 229.952C164.913 230.275 165.073 230.696 165.039 231.123L164.616 236.433L159.117 236.096L159.54 230.785C159.574 230.358 159.8 229.961 160.168 229.68C160.536 229.4 161.015 229.259 161.502 229.289Z" fill="#E0E0E0"/>
    <path d="M150 224.367L149.537 225.882C149.411 226.296 149.102 226.648 148.679 226.863C148.257 227.077 147.754 227.135 147.283 227.024L141.415 225.643L142.845 220.961L148.712 222.341C148.95 222.397 149.173 222.495 149.368 222.628C149.562 222.76 149.724 222.926 149.844 223.115C149.964 223.304 150.04 223.512 150.067 223.728C150.093 223.943 150.07 224.16 150 224.367Z" fill="#EBEBEB"/>
    <path d="M136.463 222.276L136.923 220.768C137.049 220.356 137.356 220.004 137.777 219.791C138.198 219.577 138.698 219.519 139.168 219.63L145.011 221.003L143.589 225.666L137.746 224.293C137.509 224.237 137.287 224.14 137.093 224.008C136.899 223.876 136.738 223.711 136.618 223.522C136.499 223.334 136.423 223.127 136.397 222.913C136.37 222.699 136.393 222.482 136.463 222.276Z" fill="#E0E0E0"/>
    <path d="M167.169 221.898L167.649 223.397C167.78 223.806 167.72 224.245 167.483 224.616C167.246 224.987 166.851 225.261 166.384 225.376L160.577 226.81L159.092 222.175L164.899 220.741C165.135 220.683 165.381 220.667 165.624 220.694C165.867 220.721 166.101 220.79 166.313 220.898C166.524 221.006 166.709 221.15 166.856 221.322C167.003 221.494 167.109 221.69 167.169 221.898Z" fill="#EBEBEB"/>
    <path d="M150.529 226.806L150.048 225.308C149.917 224.898 149.977 224.459 150.214 224.088C150.451 223.717 150.847 223.444 151.313 223.328L157.144 221.889L158.629 226.523L152.822 227.957C152.585 228.019 152.337 228.037 152.091 228.012C151.846 227.987 151.609 227.919 151.395 227.812C151.181 227.704 150.994 227.559 150.845 227.387C150.696 227.214 150.588 227.016 150.529 226.806Z" fill="#E0E0E0"/>
    <path d="M153.069 241.089L151.422 240.499C150.972 240.338 150.613 240.027 150.425 239.633C150.236 239.24 150.234 238.797 150.417 238.402L152.702 233.485L157.794 235.308L155.509 240.225C155.326 240.62 154.971 240.935 154.523 241.101C154.074 241.266 153.57 241.268 153.12 241.107L153.069 241.089Z" fill="#EBEBEB"/>
    <path d="M157.037 228.407L158.684 228.997C159.134 229.158 159.493 229.469 159.681 229.863C159.87 230.256 159.872 230.699 159.689 231.094L157.404 236.011L152.312 234.188L154.597 229.271C154.69 229.072 154.827 228.89 155.001 228.738C155.174 228.586 155.381 228.466 155.609 228.386C155.837 228.305 156.08 228.266 156.326 228.269C156.571 228.273 156.813 228.32 157.037 228.407Z" fill="#E0E0E0"/>
    <path d="M238.324 30.1891L242.455 34.8021C242.53 34.8887 242.564 34.9977 242.549 35.1059C242.534 35.2141 242.472 35.3129 242.375 35.3814L237.066 39.0021C236.671 39.2722 236.22 39.4714 235.737 39.5882C235.255 39.705 234.751 39.7372 234.254 39.6829C233.758 39.6286 233.278 39.4889 232.843 39.2717C232.408 39.0546 232.026 38.7643 231.719 38.4174C231.411 38.0705 231.184 37.6738 231.051 37.2499C230.918 36.826 230.881 36.3832 230.943 35.9469C231.005 35.5105 231.164 35.0891 231.412 34.7068C231.659 34.3244 231.99 33.9886 232.385 33.7186L237.695 30.0979C237.794 30.0421 237.913 30.0206 238.03 30.0374C238.146 30.0543 238.251 30.1083 238.324 30.1891Z" fill="#EBEBEB"/>
    <path d="M241.416 35.4888L237.31 30.8597C237.272 30.8167 237.244 30.7676 237.228 30.7153C237.212 30.6629 237.208 30.6083 237.216 30.5545C237.224 30.5007 237.244 30.4488 237.274 30.4018C237.305 30.3547 237.346 30.3135 237.395 30.2804L242.699 26.6597C243.094 26.3896 243.545 26.1904 244.027 26.0736C244.51 25.9568 245.014 25.9246 245.51 25.9789C246.007 26.0332 246.486 26.1729 246.921 26.39C247.356 26.6072 247.738 26.8975 248.045 27.2444C248.353 27.5912 248.58 27.988 248.713 28.4119C248.847 28.8358 248.883 29.2786 248.821 29.7149C248.76 30.1513 248.6 30.5727 248.353 30.955C248.106 31.3374 247.775 31.6731 247.379 31.9432L242.076 35.5531C241.978 35.6212 241.854 35.6527 241.731 35.6406C241.607 35.6285 241.494 35.5739 241.416 35.4888Z" fill="#E0E0E0"/>
    <path d="M3.13024 140.022L9.41765 142.028C9.53577 142.066 9.63167 142.145 9.68435 142.245C9.73702 142.346 9.74219 142.46 9.69872 142.564L7.40128 148.105C7.23067 148.519 6.96883 148.899 6.63075 149.224C6.29266 149.548 5.88496 149.812 5.43096 149.998C4.97696 150.184 4.48557 150.29 3.98489 150.31C3.48422 150.329 2.98409 150.262 2.51311 150.111C1.56242 149.808 0.787829 149.185 0.359383 148.381C-0.0690636 147.576 -0.116356 146.655 0.227887 145.82L2.52533 140.279C2.54523 140.227 2.57678 140.179 2.61814 140.138C2.65949 140.096 2.70981 140.063 2.76614 140.039C2.82248 140.015 2.8837 140.001 2.94622 139.998C3.00874 139.995 3.0713 140.003 3.13024 140.022Z" fill="#EBEBEB"/>
    <path d="M8.97759 143.085L2.69629 141.078C2.63679 141.061 2.58205 141.032 2.53538 140.995C2.48872 140.958 2.4511 140.913 2.42482 140.863C2.39854 140.813 2.38413 140.759 2.38248 140.703C2.38083 140.648 2.39197 140.593 2.41522 140.542L4.71266 134.996C4.88319 134.582 5.14507 134.202 5.48328 133.878C5.82148 133.553 6.22935 133.29 6.68349 133.104C7.13764 132.918 7.62912 132.813 8.12975 132.794C8.63037 132.776 9.13029 132.844 9.60083 132.995C10.072 133.145 10.5049 133.375 10.8746 133.671C11.2443 133.968 11.5437 134.326 11.7554 134.725C11.9672 135.124 12.0872 135.555 12.1085 135.995C12.1299 136.434 12.0522 136.873 11.8799 137.286L9.5825 142.832C9.53969 142.936 9.4522 143.02 9.33898 143.068C9.22576 143.115 9.09592 143.121 8.97759 143.085Z" fill="#E0E0E0"/>
    <path d="M266.896 246.325C266.896 246.405 208.336 246.464 136.137 246.464C63.9392 246.464 5.37891 246.405 5.37891 246.325C5.37891 246.244 63.927 246.185 136.168 246.185C208.409 246.185 266.896 246.25 266.896 246.325Z" fill="#263238"/>
    <path d="M216.97 9.36096H69.7319C66.3235 9.36096 63.5605 11.7865 63.5605 14.7786V188.973C63.5605 191.965 66.3235 194.391 69.7319 194.391H216.97C220.378 194.391 223.141 191.965 223.141 188.973V14.7786C223.141 11.7865 220.378 9.36096 216.97 9.36096Z" fill="#455A64"/>
    <path d="M212.448 18.1041H74.2407V181.678H212.448V18.1041Z" fill="white"/>
    <path d="M212.454 181.678C212.454 180.563 212.393 114.956 212.307 18.0773L212.454 18.2007H74.2594L74.4183 18.0612C74.4183 79.0656 74.4183 135.591 74.4183 181.662L74.2839 181.544L212.497 181.662L74.2839 181.775H74.1556V181.662C74.1556 135.618 74.1556 79.0924 74.125 18.0612V17.9218H74.3022H212.497H212.637V18.0505C212.515 114.94 212.454 180.563 212.454 181.678Z" fill="#263238"/>
    <path d="M103.338 45.5569L100.118 41.3033H96.5558V45.5569H92.688V30.291H99.9225C101.251 30.2634 102.57 30.4942 103.784 30.9669C104.818 31.3714 105.693 32.0335 106.302 32.8711C106.912 33.7579 107.22 34.7801 107.188 35.8159C107.225 36.8571 106.912 37.885 106.289 38.7715C105.675 39.6045 104.793 40.2581 103.754 40.6489L107.505 45.5569H103.338ZM102.36 33.8581C101.6 33.3552 100.658 33.1112 99.7086 33.1715H96.5558V38.4925H99.7086C100.661 38.5502 101.604 38.3003 102.36 37.7899C102.945 37.2639 103.271 36.5585 103.271 35.824C103.271 35.0895 102.945 34.384 102.36 33.8581Z" fill="#2720FF"/>
    <path d="M111.801 56.1079L107.976 51.1086L104.218 56.1293H100.008L105.874 48.7753L100.301 41.6681H104.468L108.134 46.3562L111.697 41.6466H115.656L110.157 48.6198L116.065 56.0971L111.801 56.1079Z" fill="#2720FF"/>
    <path d="M164.458 33.9386H140.738V39.0934H164.458V33.9386Z" fill="#E0E0E0"/>
    <path d="M199.244 37.1944C199.244 37.2749 192.755 37.3339 184.75 37.3339C176.746 37.3339 170.263 37.2749 170.263 37.1944C170.263 37.1139 176.746 37.0549 184.75 37.0549C192.755 37.0549 199.244 37.1193 199.244 37.1944Z" fill="#263238"/>
    <path d="M198.7 43.3792C198.7 43.4543 185.722 43.5187 169.719 43.5187C153.716 43.5187 140.738 43.4543 140.738 43.3792C140.738 43.3041 153.71 43.2344 169.719 43.2344C185.728 43.2344 198.7 43.2987 198.7 43.3792Z" fill="#263238"/>
    <path d="M198.7 49.435C198.7 49.5101 185.722 49.5745 169.719 49.5745C153.716 49.5745 140.738 49.5101 140.738 49.435C140.738 49.3599 153.71 49.2955 169.719 49.2955C185.728 49.2955 198.7 49.3545 198.7 49.435Z" fill="#263238"/>
    <path d="M207.743 65.5914C207.743 65.6665 178.909 65.7308 143.354 65.7308C107.798 65.7308 78.958 65.6665 78.958 65.5914C78.958 65.5163 107.78 65.4465 143.354 65.4465C178.927 65.4465 207.743 65.5002 207.743 65.5914Z" fill="#263238"/>
    <path d="M207.743 157.026C207.743 157.101 178.909 157.165 143.354 157.165C107.798 157.165 78.958 157.101 78.958 157.026C78.958 156.95 107.78 156.886 143.354 156.886C178.927 156.886 207.743 156.945 207.743 157.026Z" fill="#263238"/>
    <path d="M129.301 74.8335H89.5659V81.3775H129.301V74.8335Z" fill="#E0E0E0"/>
    <path d="M106.766 166.359H89.5659V172.903H106.766V166.359Z" fill="#E0E0E0"/>
    <path d="M164.52 166.359H147.319V172.903H164.52V166.359Z" fill="#E0E0E0"/>
    <path d="M135.594 170.891C135.594 170.972 130.223 171.031 123.6 171.031C116.976 171.031 111.599 170.972 111.599 170.891C111.599 170.811 116.97 170.752 123.6 170.752C130.229 170.752 135.594 170.816 135.594 170.891Z" fill="#263238"/>
    <path d="M197.356 170.891C197.356 170.972 191.985 171.031 185.361 171.031C178.738 171.031 173.361 170.972 173.361 170.891C173.361 170.811 178.732 170.752 185.361 170.752C191.991 170.752 197.356 170.816 197.356 170.891Z" fill="#263238"/>
    <path d="M195.933 91.2313C195.933 91.3064 172.39 91.3707 143.385 91.3707C114.38 91.3707 90.8369 91.3064 90.8369 91.2313C90.8369 91.1562 114.367 91.0918 143.385 91.0918C172.402 91.0918 195.933 91.1508 195.933 91.2313Z" fill="#263238"/>
    <path d="M197.973 98.6976C197.973 98.778 173.978 98.837 144.386 98.837C114.794 98.837 90.7935 98.778 90.7935 98.6976C90.7935 98.6171 114.782 98.5581 144.386 98.5581C173.99 98.5581 197.973 98.6225 197.973 98.6976Z" fill="#263238"/>
    <path d="M142.749 106.17C142.749 106.245 130.84 106.309 116.158 106.309C101.475 106.309 89.5659 106.245 89.5659 106.17C89.5659 106.095 101.469 106.03 116.158 106.03C130.847 106.03 142.749 106.089 142.749 106.17Z" fill="#263238"/>
    <path d="M197.185 133.258C197.185 133.258 197.069 133.301 196.831 133.365L195.792 133.644C194.45 133.994 193.085 134.274 191.704 134.481C190.707 134.635 189.698 134.719 188.686 134.733C187.475 134.754 186.267 134.622 185.099 134.341C183.754 134.004 182.514 133.4 181.476 132.576C180.305 131.637 179.535 130.375 179.294 128.999C179.169 128.255 179.272 127.496 179.594 126.799C179.954 126.075 180.543 125.457 181.292 125.019C181.679 124.783 182.116 124.618 182.576 124.532C183.037 124.447 183.512 124.442 183.975 124.52C184.443 124.621 184.883 124.803 185.27 125.056C185.647 125.333 185.962 125.67 186.199 126.049C186.648 126.833 186.873 127.702 186.853 128.58C186.857 129.479 186.67 130.37 186.303 131.209C185.505 132.945 184.19 134.46 182.496 135.596C180.721 136.807 178.613 137.585 176.386 137.849C175.244 137.992 174.083 137.98 172.946 137.812C172.368 137.73 171.798 137.61 171.241 137.452C170.684 137.272 170.141 137.061 169.616 136.819C168.567 136.306 167.634 135.63 166.86 134.824C166.06 134.001 165.5 133.02 165.229 131.965C164.93 130.881 165.084 129.739 165.662 128.747C166.237 127.742 167.188 126.942 168.357 126.483C168.948 126.248 169.598 126.148 170.245 126.193C170.887 126.249 171.5 126.453 172.023 126.783C173.017 127.475 173.702 128.451 173.96 129.54C174.241 130.584 174.307 131.663 174.156 132.727C174.036 133.769 173.771 134.794 173.367 135.779C172.618 137.723 171.294 139.457 169.53 140.805C167.816 142.096 165.673 142.865 163.42 142.999C161.339 143.185 159.25 142.714 157.528 141.671C155.806 140.629 154.563 139.082 154.022 137.308C153.469 135.724 153.543 134.022 154.23 132.48C154.554 131.744 155.109 131.104 155.831 130.635C156.192 130.403 156.611 130.25 157.053 130.19C157.488 130.133 157.931 130.207 158.312 130.399C158.661 130.598 158.952 130.865 159.164 131.18C159.376 131.494 159.503 131.847 159.534 132.212C159.636 132.878 159.605 133.555 159.442 134.212C159.201 135.411 158.79 136.579 158.22 137.688C157.726 138.652 157.111 139.564 156.387 140.408C155.782 141.123 155.098 141.784 154.346 142.382C153.321 143.222 152.165 143.93 150.912 144.484C150.591 144.635 150.261 144.769 149.923 144.887L149.574 145.005L149.91 144.86C150.13 144.763 150.472 144.645 150.888 144.436C152.119 143.857 153.255 143.136 154.267 142.291C155.871 140.963 157.166 139.375 158.08 137.613C158.65 136.517 159.061 135.362 159.302 134.175C159.451 133.534 159.478 132.876 159.381 132.228C159.351 131.894 159.236 131.571 159.043 131.282C158.851 130.993 158.586 130.746 158.269 130.56C157.93 130.39 157.536 130.326 157.151 130.377C156.754 130.44 156.379 130.583 156.057 130.796C155.372 131.242 154.846 131.85 154.542 132.55C153.88 134.05 153.818 135.702 154.365 137.238C154.896 138.954 156.103 140.45 157.773 141.457C159.442 142.465 161.465 142.92 163.481 142.741C165.666 142.603 167.742 141.85 169.402 140.596C171.123 139.278 172.414 137.582 173.141 135.682C173.534 134.715 173.793 133.71 173.911 132.689C174.057 131.657 173.991 130.611 173.716 129.599C173.474 128.572 172.824 127.654 171.883 127.009C171.402 126.705 170.838 126.519 170.248 126.471C169.658 126.423 169.064 126.514 168.528 126.735C167.425 127.172 166.527 127.93 165.986 128.881C165.444 129.812 165.301 130.884 165.583 131.901C165.878 132.896 166.407 133.826 167.135 134.631C167.863 135.437 168.774 136.1 169.811 136.578C170.32 136.81 170.844 137.014 171.382 137.189C172.994 137.651 174.705 137.785 176.386 137.581C177.476 137.448 178.543 137.19 179.557 136.814C180.548 136.443 181.482 135.963 182.337 135.387C183.994 134.276 185.279 132.794 186.058 131.096C186.416 130.287 186.6 129.427 186.602 128.559C186.624 127.721 186.414 126.891 185.991 126.14C185.77 125.789 185.481 125.475 185.136 125.212C184.784 124.964 184.378 124.782 183.944 124.675C183.515 124.603 183.073 124.607 182.645 124.686C182.217 124.765 181.811 124.918 181.451 125.137C180.74 125.547 180.179 126.131 179.838 126.816C179.528 127.479 179.424 128.203 179.539 128.913C179.771 130.246 180.512 131.469 181.641 132.383C182.654 133.193 183.864 133.789 185.178 134.127C186.327 134.41 187.517 134.548 188.71 134.534C189.715 134.528 190.719 134.453 191.71 134.309C193.088 134.111 194.452 133.85 195.798 133.526L196.849 133.274L197.185 133.258Z" fill="#263238"/>
    <path d="M166.408 7.78918H120.288V23.2696H166.408V7.78918Z" fill="#E0E0E0"/>
    <path d="M166.407 23.2643C166.407 23.2643 166.407 23.1678 166.407 22.9854C166.407 22.803 166.407 22.5294 166.407 22.1808C166.407 21.4674 166.407 20.4375 166.407 19.1072C166.407 16.4253 166.371 12.5793 166.346 7.78927L166.456 7.88582L120.342 7.92874L120.501 7.78927C120.501 13.1962 120.501 18.426 120.501 23.2643L120.349 23.1302L153.344 23.1946L162.955 23.2321H165.54H166.212H166.444C166.373 23.2375 166.301 23.2375 166.23 23.2321H165.576H163.028L153.448 23.2697L120.324 23.3287H120.171V23.1946C120.171 18.367 120.171 13.1264 120.171 7.71954L120.33 7.58008L166.444 7.62299H166.554V7.71954C166.554 12.5471 166.511 16.4092 166.493 19.0965C166.493 20.416 166.493 21.4406 166.493 22.1486C166.493 22.4865 166.493 22.7494 166.493 22.9371C166.493 23.1248 166.407 23.2643 166.407 23.2643Z" fill="#263238"/>
    <path d="M221.643 246.089H191.776C191.136 246.089 190.52 245.868 190.063 245.474C189.606 245.079 189.344 244.543 189.332 243.981L188.611 173.268H223.33L224.051 243.938C224.052 244.502 223.8 245.045 223.35 245.447C222.899 245.85 222.286 246.08 221.643 246.089Z" fill="#2720FF"/>
    <g opacity="0.3">
        <path d="M217.25 188.963V243.401C217.25 243.401 222.139 244.828 222.377 241.073C222.615 237.319 222.487 188.952 222.487 188.952L217.25 188.963Z" fill="white"/>
    </g>
    <path d="M220.055 169.679H191.948C191.462 169.679 190.996 169.849 190.652 170.15C190.308 170.452 190.115 170.861 190.115 171.288V172.871H221.888V171.261C221.88 170.839 221.684 170.437 221.341 170.141C220.998 169.845 220.536 169.679 220.055 169.679Z" fill="#FAFAFA"/>
    <path d="M220.055 169.679C220.157 169.666 220.259 169.666 220.361 169.679C220.662 169.712 220.949 169.814 221.192 169.974C221.393 170.105 221.563 170.271 221.69 170.46C221.817 170.65 221.899 170.861 221.931 171.079C221.931 171.615 221.931 172.152 221.931 172.838V172.903H221.852C216.029 172.94 204.78 172.973 191.912 172.973H189.926V171.337C189.916 171.07 189.976 170.805 190.1 170.562C190.223 170.318 190.408 170.103 190.641 169.931C190.873 169.761 191.147 169.64 191.441 169.577C191.723 169.533 192.01 169.517 192.297 169.529H193.922H200.099L210.487 169.561L217.471 169.604L210.487 169.647L200.099 169.679H193.922H192.297C192.035 169.665 191.772 169.68 191.514 169.722C191.269 169.776 191.039 169.877 190.842 170.017C189.962 170.602 190.317 171.728 190.231 172.699L190.072 172.56H191.905C204.792 172.56 216.041 172.586 221.846 172.629L221.766 172.699C221.766 172.039 221.766 171.444 221.766 170.956C221.743 170.747 221.672 170.544 221.557 170.36C221.443 170.176 221.287 170.013 221.1 169.883C220.778 169.736 220.418 169.666 220.055 169.679Z" fill="#263238"/>
    <path d="M225.389 172.104H186.583C185.692 172.104 184.97 172.738 184.97 173.52V187.536C184.97 188.318 185.692 188.952 186.583 188.952H225.389C226.28 188.952 227.002 188.318 227.002 187.536V173.52C227.002 172.738 226.28 172.104 225.389 172.104Z" fill="#FAFAFA"/>
    <path d="M225.39 188.962C225.39 188.962 225.5 188.962 225.695 188.92C225.988 188.866 226.258 188.739 226.471 188.555C227.186 188.083 226.899 186.946 226.942 185.642C226.942 182.96 226.911 179.125 226.893 174.378C226.893 174.083 226.893 173.782 226.893 173.477C226.882 173.19 226.764 172.915 226.557 172.694C226.34 172.468 226.047 172.31 225.72 172.243C225.367 172.209 225.011 172.2 224.656 172.216H220.049H209.882H186.596C186.363 172.215 186.133 172.263 185.925 172.356C185.718 172.45 185.539 172.586 185.404 172.753C185.274 172.911 185.188 173.095 185.154 173.289C185.141 173.507 185.141 173.725 185.154 173.943V181.828C185.154 183.534 185.154 185.213 185.154 186.86V187.477C185.155 187.662 185.201 187.845 185.288 188.013C185.375 188.18 185.502 188.329 185.66 188.449C185.818 188.569 186.004 188.659 186.205 188.71C186.413 188.761 186.631 188.779 186.846 188.764H188.875L207.896 188.791L220.728 188.839H224.21L220.728 188.866L207.896 188.909L188.875 188.941H186.846C186.604 188.956 186.36 188.934 186.125 188.877C185.883 188.815 185.658 188.709 185.466 188.564C185.274 188.42 185.12 188.241 185.013 188.04C184.91 187.836 184.855 187.614 184.854 187.391V186.774C184.854 185.129 184.854 183.452 184.854 181.743C184.854 180.031 184.854 178.288 184.854 176.523V173.841C184.854 173.611 184.854 173.402 184.854 173.149C184.896 172.902 185.003 172.667 185.166 172.463C185.33 172.26 185.547 172.094 185.799 171.98C186.051 171.866 186.331 171.807 186.614 171.808H209.9H220.068H224.675C225.048 171.792 225.422 171.804 225.793 171.846C226.172 171.93 226.51 172.118 226.758 172.382C226.995 172.642 227.13 172.962 227.143 173.294V174.201C227.143 178.943 227.1 182.783 227.088 185.465C227.088 186.125 227.088 186.715 227.088 187.23C227.107 187.451 227.068 187.673 226.975 187.879C226.882 188.086 226.737 188.271 226.551 188.421C226.326 188.606 226.042 188.727 225.738 188.769C225.638 188.854 225.52 188.92 225.39 188.962Z" fill="#263238"/>
    <path d="M187.414 188.673C187.322 188.673 187.255 185.084 187.255 180.664C187.255 176.244 187.322 172.651 187.414 172.651C187.505 172.651 187.573 176.239 187.573 180.664C187.573 185.09 187.499 188.673 187.414 188.673Z" fill="#263238"/>
    <path d="M190.592 188.673C190.5 188.673 190.433 185.084 190.433 180.664C190.433 176.244 190.5 172.651 190.592 172.651C190.684 172.651 190.751 176.239 190.751 180.664C190.751 185.09 190.678 188.673 190.592 188.673Z" fill="#263238"/>
    <path d="M193.769 188.673C193.683 188.673 193.61 185.084 193.61 180.664C193.61 176.244 193.683 172.651 193.769 172.651C193.854 172.651 193.928 176.239 193.928 180.664C193.928 185.09 193.854 188.673 193.769 188.673Z" fill="#263238"/>
    <path d="M196.946 188.673C196.86 188.673 196.787 185.084 196.787 180.664C196.787 176.244 196.86 172.651 196.946 172.651C197.032 172.651 197.105 176.239 197.105 180.664C197.105 185.09 197.038 188.673 196.946 188.673Z" fill="#263238"/>
    <path d="M200.13 188.673C200.038 188.673 199.971 185.084 199.971 180.664C199.971 176.244 200.038 172.651 200.13 172.651C200.221 172.651 200.288 176.239 200.288 180.664C200.288 185.09 200.215 188.673 200.13 188.673Z" fill="#263238"/>
    <path d="M203.307 188.673C203.215 188.673 203.148 185.084 203.148 180.664C203.148 176.244 203.215 172.651 203.307 172.651C203.398 172.651 203.466 176.239 203.466 180.664C203.466 185.09 203.392 188.673 203.307 188.673Z" fill="#263238"/>
    <path d="M206.484 188.673C206.399 188.673 206.325 185.084 206.325 180.664C206.325 176.244 206.399 172.651 206.484 172.651C206.57 172.651 206.643 176.239 206.643 180.664C206.643 185.09 206.57 188.673 206.484 188.673Z" fill="#263238"/>
    <path d="M209.662 188.673C209.576 188.673 209.503 185.084 209.503 180.664C209.503 176.244 209.576 172.651 209.662 172.651C209.747 172.651 209.821 176.239 209.821 180.664C209.821 185.09 209.753 188.673 209.662 188.673Z" fill="#263238"/>
    <path d="M212.839 188.673C212.753 188.673 212.68 185.084 212.68 180.664C212.68 176.244 212.753 172.651 212.839 172.651C212.924 172.651 213.004 176.239 213.004 180.664C213.004 185.09 212.93 188.673 212.839 188.673Z" fill="#263238"/>
    <path d="M216.023 188.673C215.931 188.673 215.864 185.084 215.864 180.664C215.864 176.244 215.931 172.651 216.023 172.651C216.114 172.651 216.181 176.239 216.181 180.664C216.181 185.09 216.108 188.673 216.023 188.673Z" fill="#263238"/>
    <path d="M219.2 188.673C219.114 188.673 219.041 185.084 219.041 180.664C219.041 176.244 219.114 172.651 219.2 172.651C219.285 172.651 219.359 176.239 219.359 180.664C219.359 185.09 219.285 188.673 219.2 188.673Z" fill="#263238"/>
    <path d="M222.377 188.673C222.291 188.673 222.218 185.084 222.218 180.664C222.218 176.244 222.291 172.651 222.377 172.651C222.462 172.651 222.535 176.239 222.535 180.664C222.535 185.09 222.468 188.673 222.377 188.673Z" fill="#263238"/>
    <path d="M225.554 188.673C225.468 188.673 225.395 185.084 225.395 180.664C225.395 176.244 225.468 172.651 225.554 172.651C225.639 172.651 225.713 176.239 225.713 180.664C225.713 185.09 225.646 188.673 225.554 188.673Z" fill="#263238"/>
    <path d="M221.405 201.643H191.349V222.772H221.405V201.643Z" fill="white"/>
    <path d="M196.513 208.369L195.81 207.479H195.04V208.369H194.185V205.183H195.755C196.041 205.177 196.324 205.226 196.586 205.328C196.81 205.409 197.001 205.548 197.136 205.725C197.267 205.91 197.333 206.124 197.325 206.342C197.332 206.558 197.264 206.771 197.13 206.953C196.994 207.129 196.803 207.265 196.58 207.345L197.392 208.369H196.513ZM196.299 205.929C196.132 205.823 195.929 205.772 195.724 205.784H195.04V206.894H195.724C195.929 206.906 196.132 206.855 196.299 206.749C196.361 206.696 196.41 206.632 196.444 206.562C196.478 206.491 196.495 206.416 196.495 206.339C196.495 206.263 196.478 206.187 196.444 206.116C196.41 206.046 196.361 205.982 196.299 205.929Z" fill="#263238"/>
    <path d="M198.345 210.569L197.514 209.523L196.701 210.569H195.791L197.062 209.034L195.84 207.554H196.744L197.532 208.53L198.308 207.554H199.17L197.948 209.008L199.225 210.569H198.345Z" fill="#263238"/>
    <path d="M219.199 205.178H202.036V207.468H219.199V205.178Z" fill="#E0E0E0"/>
    <path d="M217.251 213.154C217.251 213.229 212.24 213.293 206.057 213.293C199.873 213.293 194.863 213.229 194.863 213.154C194.863 213.079 199.873 213.015 206.057 213.015C212.24 213.015 217.251 213.1 217.251 213.154Z" fill="#263238"/>
    <path d="M217.251 215.536C217.251 215.616 212.24 215.675 206.057 215.675C199.873 215.675 194.863 215.616 194.863 215.536C194.863 215.455 199.873 215.396 206.057 215.396C212.24 215.396 217.251 215.461 217.251 215.536Z" fill="#263238"/>
    <path d="M204.84 218.523H193.243V220.486H204.84V218.523Z" fill="#E0E0E0"/>
    <path d="M220.721 222.117C220.721 222.117 220.721 221.988 220.721 221.742C220.721 221.495 220.721 221.13 220.721 220.669C220.721 219.72 220.721 218.352 220.69 216.608C220.69 213.111 220.647 208.133 220.623 202.126L220.751 202.244H191.942C191.905 202.271 192.241 201.981 192.101 202.11V207.431C192.101 209.179 192.101 210.896 192.101 212.569C192.101 215.922 192.101 219.119 192.101 222.096L191.96 221.972L212.735 222.037L218.637 222.069H220.214H220.764C220.764 222.069 220.727 222.069 220.635 222.069H220.244H218.698L212.826 222.101L191.954 222.165H191.813V222.037C191.813 219.06 191.813 215.863 191.813 212.51C191.813 210.837 191.813 209.12 191.813 207.372V202.051C191.673 202.169 192.009 201.874 191.972 201.906H220.782H220.916V202.024C220.916 208.058 220.861 213.068 220.849 216.582C220.849 218.309 220.819 219.671 220.812 220.615C220.812 221.066 220.812 221.415 220.812 221.688C220.812 221.962 220.721 222.117 220.721 222.117Z" fill="#263238"/>
    <path d="M190.592 240.322C190.5 240.322 190.433 229.294 190.433 215.691C190.433 202.088 190.5 191.06 190.592 191.06C190.684 191.06 190.751 202.088 190.751 215.691C190.751 229.294 190.678 240.322 190.592 240.322Z" fill="white"/>
    <path d="M221.436 244.941C221.436 245.016 214.88 245.08 206.771 245.08C198.663 245.08 192.107 245.016 192.107 244.941C192.107 244.866 198.663 244.801 206.771 244.801C214.88 244.801 221.436 244.866 221.436 244.941Z" fill="#263238"/>
    <path d="M251.223 246.057H227.027C226.508 246.057 226.01 245.877 225.642 245.556C225.274 245.236 225.064 244.801 225.059 244.346L224.448 187.064H252.555L253.136 244.313C253.142 244.766 252.945 245.203 252.587 245.53C252.229 245.856 251.739 246.045 251.223 246.057Z" fill="#455A64"/>
    <g opacity="0.3">
        <path d="M247.661 199.766V243.879C247.661 243.879 251.621 245.032 251.816 241.991C252.012 238.949 251.902 199.766 251.902 199.766H247.661Z" fill="white"/>
    </g>
    <path d="M249.586 184.135H227.485C226.999 184.135 226.533 184.304 226.189 184.606C225.845 184.908 225.652 185.317 225.652 185.744V186.704H251.4V185.744C251.4 185.32 251.21 184.913 250.87 184.612C250.53 184.311 250.069 184.139 249.586 184.135Z" fill="#FAFAFA"/>
    <path d="M249.585 184.135C249.672 184.124 249.761 184.124 249.848 184.135C250.108 184.154 250.36 184.228 250.581 184.349C250.949 184.546 251.229 184.847 251.376 185.202C251.459 185.429 251.497 185.667 251.486 185.905C251.486 186.157 251.486 186.441 251.486 186.699V186.817H251.406C246.646 186.86 237.707 186.887 227.485 186.887H225.493V186.747C225.493 186.339 225.493 185.969 225.493 185.54C225.563 185.119 225.806 184.735 226.176 184.46C226.546 184.186 227.018 184.039 227.503 184.049H228.798H233.717L241.99 184.076L247.532 184.119L249.035 184.146C249.209 184.143 249.383 184.152 249.555 184.172C249.382 184.184 249.208 184.184 249.035 184.172L247.532 184.199L241.99 184.242L233.717 184.274H227.533C227.129 184.266 226.734 184.386 226.421 184.612C226.102 184.842 225.895 185.17 225.841 185.529C225.804 185.884 225.841 186.307 225.841 186.699L225.682 186.559H227.515C237.738 186.559 246.677 186.586 251.437 186.629L251.357 186.699C251.357 186.42 251.357 186.162 251.357 185.905C251.377 185.68 251.348 185.455 251.272 185.24C251.148 184.901 250.895 184.61 250.557 184.414C250.262 184.255 249.93 184.159 249.585 184.135Z" fill="#263238"/>
    <path d="M253.954 186.12H223.128C222.237 186.12 221.515 186.754 221.515 187.536V198.355C221.515 199.137 222.237 199.771 223.128 199.771H253.954C254.845 199.771 255.567 199.137 255.567 198.355V187.536C255.567 186.754 254.845 186.12 253.954 186.12Z" fill="#FAFAFA"/>
    <path d="M253.948 199.766C254.272 199.745 254.584 199.648 254.852 199.487C255.162 199.285 255.379 198.991 255.463 198.661C255.502 198.444 255.512 198.225 255.494 198.006C255.494 197.77 255.494 197.513 255.494 197.25C255.494 195.104 255.463 191.999 255.445 188.179C255.445 187.943 255.445 187.691 255.445 187.455C255.429 187.225 255.342 187.003 255.194 186.812C255.043 186.613 254.832 186.453 254.586 186.35C254.34 186.248 254.067 186.205 253.795 186.227H250.08H241.892H223.128C222.751 186.228 222.389 186.357 222.118 186.587C221.847 186.817 221.688 187.13 221.674 187.461C221.674 188.179 221.674 188.893 221.674 189.606V193.812C221.674 195.192 221.674 196.544 221.674 197.867C221.64 198.179 221.676 198.494 221.778 198.795C221.907 199.071 222.137 199.301 222.431 199.449C222.74 199.584 223.085 199.64 223.427 199.61H224.515L239.839 199.642L250.172 199.685H252.982L250.172 199.712L239.839 199.755L224.515 199.787H223.427C223.046 199.847 222.652 199.813 222.291 199.691C221.935 199.512 221.658 199.235 221.503 198.902C221.427 198.731 221.386 198.549 221.38 198.366V197.867C221.38 196.544 221.38 195.192 221.38 193.812V187.482C221.398 187.079 221.592 186.698 221.922 186.418C222.252 186.138 222.693 185.981 223.152 185.98H241.917H250.104H253.819C254.131 185.966 254.442 186.023 254.722 186.144C255.002 186.265 255.243 186.447 255.42 186.672C255.586 186.895 255.681 187.152 255.695 187.418C255.695 187.675 255.695 187.911 255.695 188.153C255.695 191.972 255.653 195.067 255.64 197.223C255.64 197.486 255.64 197.759 255.64 197.979C255.652 198.204 255.636 198.429 255.591 198.65C255.496 199.001 255.254 199.307 254.913 199.508C254.707 199.631 254.47 199.709 254.223 199.733C254.134 199.758 254.041 199.769 253.948 199.766Z" fill="#263238"/>
    <path d="M223.513 199.54C223.428 199.54 223.354 196.638 223.354 193.055C223.354 189.472 223.428 186.565 223.513 186.565C223.599 186.565 223.672 189.467 223.672 193.055C223.672 196.644 223.574 199.54 223.513 199.54Z" fill="#263238"/>
    <path d="M226.061 199.54C225.976 199.54 225.902 196.638 225.902 193.055C225.902 189.472 225.976 186.565 226.061 186.565C226.147 186.565 226.22 189.467 226.22 193.055C226.22 196.644 226.153 199.54 226.061 199.54Z" fill="#263238"/>
    <path d="M228.64 199.54C228.548 199.54 228.481 196.638 228.481 193.055C228.481 189.472 228.548 186.565 228.64 186.565C228.731 186.565 228.799 189.467 228.799 193.055C228.799 196.644 228.725 199.54 228.64 199.54Z" fill="#263238"/>
    <path d="M231.213 199.54C231.127 199.54 231.054 196.638 231.054 193.055C231.054 189.472 231.127 186.565 231.213 186.565C231.298 186.565 231.371 189.467 231.371 193.055C231.371 196.644 231.304 199.54 231.213 199.54Z" fill="#263238"/>
    <path d="M233.791 199.54C233.699 199.54 233.632 196.638 233.632 193.055C233.632 189.472 233.699 186.565 233.791 186.565C233.882 186.565 233.95 189.467 233.95 193.055C233.95 196.644 233.901 199.54 233.791 199.54Z" fill="#263238"/>
    <path d="M236.345 199.54C236.26 199.54 236.187 196.638 236.187 193.055C236.187 189.472 236.26 186.565 236.345 186.565C236.431 186.565 236.504 189.467 236.504 193.055C236.504 196.644 236.455 199.54 236.345 199.54Z" fill="#263238"/>
    <path d="M238.942 199.54C238.85 199.54 238.783 196.638 238.783 193.055C238.783 189.472 238.85 186.565 238.942 186.565C239.033 186.565 239.1 189.467 239.1 193.055C239.1 196.644 239.027 199.54 238.942 199.54Z" fill="#263238"/>
    <path d="M241.514 199.54C241.428 199.54 241.355 196.638 241.355 193.055C241.355 189.472 241.428 186.565 241.514 186.565C241.599 186.565 241.673 189.467 241.673 193.055C241.673 196.644 241.599 199.54 241.514 199.54Z" fill="#263238"/>
    <path d="M244.093 199.54C244.002 199.54 243.928 196.638 243.928 193.055C243.928 189.472 244.002 186.565 244.093 186.565C244.185 186.565 244.252 189.467 244.252 193.055C244.252 196.644 244.179 199.54 244.093 199.54Z" fill="#263238"/>
    <path d="M246.666 199.54C246.58 199.54 246.507 196.638 246.507 193.055C246.507 189.472 246.58 186.565 246.666 186.565C246.751 186.565 246.825 189.467 246.825 193.055C246.825 196.644 246.733 199.54 246.666 199.54Z" fill="#263238"/>
    <path d="M249.237 199.54C249.152 199.54 249.079 196.638 249.079 193.055C249.079 189.472 249.152 186.565 249.237 186.565C249.323 186.565 249.396 189.467 249.396 193.055C249.396 196.644 249.329 199.54 249.237 199.54Z" fill="#263238"/>
    <path d="M251.816 199.54C251.724 199.54 251.657 196.638 251.657 193.055C251.657 189.472 251.724 186.565 251.816 186.565C251.908 186.565 251.975 189.467 251.975 193.055C251.975 196.644 251.902 199.54 251.816 199.54Z" fill="#263238"/>
    <path d="M254.388 199.54C254.303 199.54 254.229 196.638 254.229 193.055C254.229 189.472 254.303 186.565 254.388 186.565C254.474 186.565 254.547 189.467 254.547 193.055C254.547 196.644 254.48 199.54 254.388 199.54Z" fill="#263238"/>
    <path d="M251.028 210.048H226.679V227.165H251.028V210.048Z" fill="white"/>
    <path d="M230.846 215.498L230.284 214.779H229.673V215.498H229.013V212.918H230.235C230.467 212.913 230.699 212.951 230.913 213.03C231.094 213.099 231.247 213.212 231.353 213.358C231.456 213.507 231.511 213.679 231.511 213.854C231.511 214.029 231.456 214.2 231.353 214.35C231.244 214.492 231.088 214.603 230.907 214.666L231.567 215.498H230.846ZM230.675 213.519C230.539 213.436 230.375 213.396 230.21 213.406H229.654V214.302H230.235C230.401 214.313 230.566 214.271 230.699 214.184C230.754 214.143 230.796 214.092 230.824 214.034C230.852 213.976 230.863 213.914 230.858 213.851C230.861 213.788 230.848 213.725 230.818 213.667C230.788 213.609 230.743 213.558 230.687 213.519H230.675Z" fill="#263238"/>
    <path d="M232.349 217.279L231.677 216.431L231.017 217.279H230.277L231.304 216.034L230.326 214.838H231.059L231.67 215.627L232.281 214.838H232.978L232.068 216.013L233.1 217.279H232.349Z" fill="#263238"/>
    <path d="M249.237 212.913H235.336V214.769H249.237V212.913Z" fill="#E0E0E0"/>
    <path d="M247.661 219.371C247.661 219.451 243.604 219.51 238.594 219.51C233.584 219.51 229.526 219.451 229.526 219.371C229.526 219.29 233.584 219.231 238.594 219.231C243.604 219.231 247.661 219.296 247.661 219.371Z" fill="#263238"/>
    <path d="M247.661 221.307C247.661 221.382 243.604 221.447 238.594 221.447C233.584 221.447 229.526 221.382 229.526 221.307C229.526 221.232 233.584 221.168 238.594 221.168C243.604 221.168 247.661 221.227 247.661 221.307Z" fill="#263238"/>
    <path d="M237.61 223.721H228.212V225.309H237.61V223.721Z" fill="#E0E0E0"/>
    <path d="M250.472 226.639C250.472 226.639 250.472 226.526 250.472 226.328C250.472 226.129 250.472 225.824 250.472 225.459C250.472 224.681 250.472 223.571 250.441 222.165C250.441 219.328 250.398 215.3 250.374 210.44L250.502 210.558H227.167L227.326 210.418V212.564C227.326 213.288 227.326 214.001 227.326 214.709V218.872C227.326 221.586 227.326 224.172 227.326 226.591L227.186 226.462L244.007 226.526L248.797 226.558H250.074H250.404H250.52H250.105H248.883L244.123 226.591L227.21 226.655H227.063V226.532C227.063 224.113 227.063 221.527 227.063 218.813V210.338C226.923 210.461 227.259 210.166 227.228 210.198H250.563H250.698V210.418C250.698 215.305 250.643 219.365 250.63 222.219C250.63 223.614 250.6 224.713 250.594 225.48C250.594 225.84 250.594 226.124 250.594 226.333C250.563 226.438 250.522 226.54 250.472 226.639Z" fill="#263238"/>
    <path d="M226.061 241.384C225.976 241.384 225.902 232.448 225.902 221.431C225.902 210.413 225.976 201.477 226.061 201.477C226.147 201.477 226.22 210.408 226.22 221.431C226.22 232.453 226.153 241.384 226.061 241.384Z" fill="white"/>
    <path d="M251.053 245.123C251.053 245.204 245.737 245.263 239.187 245.263C232.636 245.263 227.327 245.204 227.327 245.123C227.327 245.043 232.636 244.984 239.187 244.984C245.737 244.984 251.053 245.048 251.053 245.123Z" fill="#263238"/>
    <path d="M55.6716 223.147L51.6205 235.779C51.6205 235.779 64.5314 243.728 64.0365 246.126L36.5405 239.92L41.9603 220.009L55.6716 223.147Z" fill="#455A64"/>
    <path d="M43.4092 232.791C43.1212 232.808 42.8505 232.918 42.6488 233.099C42.447 233.28 42.3283 233.52 42.3154 233.773C42.3166 234.026 42.4279 234.27 42.6267 234.453C42.8255 234.637 43.0967 234.746 43.3847 234.76C43.6908 234.745 43.9794 234.63 44.1933 234.438C44.4072 234.245 44.5308 233.988 44.5395 233.719C44.4846 233.21 43.8552 232.679 43.3175 232.802" fill="#E0E0E0"/>
    <g opacity="0.6">
        <path d="M36.5405 239.92L37.1515 237.935L63.291 244.614C63.291 244.614 64.3848 245.365 64.0304 246.11L36.5405 239.92Z" fill="white"/>
    </g>
    <path d="M52.1035 235.753C52.0607 235.876 51.3764 235.753 50.6065 236.015C49.8366 236.278 49.3417 236.686 49.2317 236.611C49.1217 236.536 49.5189 235.881 50.4538 235.608C51.3886 235.334 52.1585 235.629 52.1035 235.753Z" fill="#263238"/>
    <path d="M54.6874 237.474C54.6874 237.603 54.0763 237.673 53.4653 238.086C52.8543 238.499 52.5854 239.003 52.451 238.965C52.3166 238.928 52.451 238.23 53.1781 237.737C53.9053 237.243 54.7179 237.362 54.6874 237.474Z" fill="#263238"/>
    <path d="M55.482 240.95C55.3537 240.95 55.3353 240.306 55.8608 239.722C56.3863 239.137 57.0828 239.014 57.1195 239.126C57.1562 239.239 56.6612 239.507 56.2335 239.995C55.8058 240.483 55.5981 240.993 55.482 240.95Z" fill="#263238"/>
    <path d="M52.672 232.786C52.5804 232.882 52.0121 232.577 51.2423 232.453C50.4724 232.33 49.8186 232.41 49.7758 232.287C49.733 232.164 50.4235 231.869 51.3278 232.024C52.2321 232.18 52.7637 232.705 52.672 232.786Z" fill="#263238"/>
    <path d="M46.03 226.124L45.4189 239.255C45.4189 239.255 60.0834 244.249 60.1934 246.69L31.8359 246.491L31.897 225.99L46.03 226.124Z" fill="#455A64"/>
    <path d="M36.6327 238.091C36.3565 238.167 36.1214 238.329 35.9718 238.546C35.8221 238.763 35.7681 239.021 35.82 239.271C35.8844 239.518 36.0558 239.732 36.2977 239.869C36.5396 240.007 36.833 240.056 37.1154 240.006C37.4085 239.925 37.6576 239.753 37.8153 239.521C37.973 239.29 38.0284 239.016 37.9708 238.751C37.8733 238.503 37.669 238.298 37.4018 238.181C37.1345 238.064 36.8255 238.043 36.541 238.123" fill="#E0E0E0"/>
    <g opacity="0.6">
        <path d="M31.8047 246.491L31.9025 244.426L59.0562 245.386C59.0562 245.386 60.3149 245.89 60.1622 246.689L31.8047 246.491Z" fill="white"/>
    </g>
    <path d="M45.8526 239.132C45.8526 239.255 45.1561 239.309 44.4656 239.7C43.7752 240.092 43.4147 240.617 43.2863 240.569C43.158 240.521 43.3719 239.802 44.2151 239.335C45.0583 238.869 45.8832 239.014 45.8526 239.132Z" fill="#263238"/>
    <path d="M48.8159 240.258C48.8159 240.376 48.2477 240.585 47.7711 241.111C47.2945 241.637 47.16 242.184 47.0195 242.184C46.879 242.184 46.7995 241.47 47.4044 240.832C48.0094 240.194 48.8159 240.14 48.8159 240.258Z" fill="#263238"/>
    <path d="M50.4781 243.471C50.3498 243.498 50.1665 242.876 50.527 242.194C50.8875 241.513 51.5351 241.245 51.5962 241.352C51.6573 241.46 51.248 241.819 50.9852 242.377C50.7225 242.935 50.5942 243.46 50.4781 243.471Z" fill="#263238"/>
    <path d="M45.6269 236.123C45.5719 236.235 44.9364 236.058 44.1543 236.123C43.3722 236.187 42.7551 236.385 42.6878 236.278C42.6206 236.171 43.2072 235.742 44.1299 235.688C45.0525 235.634 45.7063 236.026 45.6269 236.123Z" fill="#263238"/>
    <path d="M28.4872 130.018V140.402L31.5851 180.857C31.5851 180.857 29.6543 200.484 28.4689 211.566C27.4424 221.184 29.1227 237.941 29.1227 237.941H47.1723L53.6491 182.064L57.6574 147.199L64.6475 131.353L28.4872 130.018Z" fill="#263238"/>
    <path d="M76.0185 131.825L72.5601 188.27L54.3028 230.533L53.4596 233.076L42.6812 230.732L50.6977 130.726L76.0185 131.825Z" fill="#263238"/>
    <path d="M57.5969 147.628C57.6034 147.706 57.6034 147.785 57.5969 147.864C57.5969 148.035 57.5969 148.261 57.5969 148.55C57.5969 149.173 57.548 150.063 57.5052 151.2C57.4319 153.496 57.2486 156.816 56.9919 160.92C56.4481 169.126 55.4338 180.45 53.8452 192.916C52.2565 205.381 50.564 216.635 49.3053 224.778C48.6943 228.833 48.1505 232.121 47.79 234.433C47.6067 235.559 47.46 236.439 47.3623 237.05C47.3073 237.34 47.2706 237.587 47.2401 237.732C47.2298 237.81 47.2114 237.887 47.1851 237.962V237.726C47.1851 237.56 47.2401 237.335 47.2767 237.045C47.3623 236.428 47.4845 235.548 47.6433 234.417C47.9733 232.126 48.456 228.833 49.0548 224.761C50.2768 216.614 51.9327 205.36 53.4969 192.894C55.0611 180.428 56.1304 169.126 56.7353 160.925C57.0225 156.827 57.2425 153.507 57.3463 151.211C57.4136 150.074 57.4624 149.189 57.4991 148.566C57.4991 148.277 57.5358 148.03 57.548 147.88C57.5538 147.794 57.5702 147.71 57.5969 147.628Z" fill="#455A64"/>
    <path d="M58.739 133.51C58.7342 133.67 58.6757 133.825 58.5708 133.957C58.4658 134.088 58.3191 134.189 58.1491 134.248C57.979 134.306 57.7931 134.319 57.6146 134.285C57.436 134.251 57.2728 134.172 57.1454 134.057C57.0179 133.942 56.9319 133.797 56.898 133.64C56.8641 133.482 56.8838 133.319 56.9548 133.172C57.0258 133.024 57.1448 132.898 57.2969 132.809C57.4491 132.72 57.6276 132.673 57.8103 132.673C57.9341 132.674 58.0565 132.696 58.1704 132.739C58.2844 132.781 58.3875 132.843 58.4739 132.921C58.5603 132.999 58.6282 133.091 58.6738 133.192C58.7193 133.293 58.7414 133.401 58.739 133.51Z" fill="#455A64"/>
    <path d="M74.6075 141.395C74.127 141.093 73.6989 140.732 73.3366 140.322C72.4032 139.353 71.6373 138.269 71.0636 137.104C70.4863 135.941 70.1035 134.71 69.9271 133.451C69.8248 132.934 69.8104 132.406 69.8843 131.885C69.9393 131.885 69.976 132.48 70.1593 133.424C70.4059 134.648 70.816 135.841 71.3813 136.98C71.9497 138.112 72.6697 139.18 73.526 140.161C74.1737 140.934 74.6442 141.357 74.6075 141.395Z" fill="#455A64"/>
    <path d="M72.4507 79.0978C72.4507 79.0978 75.9029 80.2886 77.5038 84.7299C78.6159 87.8196 83.8218 110.82 83.8218 110.82L76.5629 115.02L73.6116 93.4839L72.4507 79.0978Z" fill="#E0E0E0"/>
    <path d="M44.8444 68.1123L42.5714 71.6525C42.5714 71.6525 27.3753 78.4326 27.4303 79.0977C27.4303 79.0977 28.2796 104.405 28.4385 122.97C28.4996 129.98 28.2063 136.422 28.0475 139.517C27.6258 147.644 27.2959 179.211 27.2959 179.211L82.2878 178.068L72.4504 79.0977L64.6904 76.1207L63.7005 74.3452L60.1383 71.8027L44.8444 68.1123Z" fill="#E0E0E0"/>
    <path d="M68.9248 178.331C68.9329 178.26 68.9329 178.188 68.9248 178.117C68.9248 177.961 68.9248 177.752 68.8942 177.489C68.8576 176.915 68.8087 176.1 68.7415 175.059C68.6009 172.94 68.3932 169.894 68.1304 166.144C67.6111 158.603 66.9084 148.207 66.108 136.723C65.3075 125.239 64.6721 114.843 64.1771 107.296C63.9511 103.541 63.7616 100.5 63.6333 98.3759C63.5661 97.3353 63.5172 96.5253 63.4806 95.9514C63.4806 95.6886 63.4439 95.4794 63.4317 95.3238C63.427 95.2518 63.4168 95.1801 63.4011 95.1093C63.3943 95.1806 63.3943 95.2524 63.4011 95.3238C63.4011 95.4794 63.4011 95.6886 63.4011 95.9568C63.4011 96.5253 63.45 97.3407 63.4928 98.3813C63.5783 100.489 63.7311 103.541 63.9327 107.307C64.336 114.816 64.9837 125.249 65.7658 136.744C66.5479 148.239 67.3056 158.629 67.886 166.155C68.1793 169.91 68.4237 172.946 68.5887 175.07C68.6804 176.105 68.7537 176.92 68.8026 177.489L68.8637 178.122C68.8751 178.193 68.8956 178.264 68.9248 178.331Z" fill="#263238"/>
    <path d="M60.1381 71.8027L61.4151 79.5537L63.7003 95.1092L53.7407 80.1008L45.0947 70.156L59.3437 78.9207L59.5209 71.6579" fill="#2720FF"/>
    <path d="M42.5044 72.1246C42.5738 72.3339 42.6659 72.5369 42.7794 72.7308C42.9932 73.1545 43.2743 73.7177 43.6287 74.4097L46.7204 80.3101L46.7571 80.3851H46.8549H48.9323L48.8346 80.1384L47.307 81.238L47.1665 81.3399L47.2948 81.4526L50.191 83.9415L59.5091 91.8748L62.3565 94.251L63.1447 94.8893C63.2308 94.9687 63.3271 95.0389 63.4319 95.0985C63.3646 95.0046 63.2823 94.9197 63.1875 94.8464L62.4481 94.1705L59.668 91.7246L50.4232 83.7323C49.4273 82.874 48.4496 82.0426 47.5209 81.2487V81.4579L49.0423 80.353L49.3784 80.1062H48.9384H46.861L46.9954 80.1813C45.6939 77.7997 44.5941 75.7829 43.7936 74.3239C43.4087 73.6426 43.1032 73.0902 42.871 72.6771C42.7654 72.4848 42.6429 72.3001 42.5044 72.1246Z" fill="#263238"/>
    <path d="M63.7009 95.0932C63.7958 94.7763 63.8632 94.4536 63.9025 94.1277C64.0125 93.4572 64.153 92.5668 64.3241 91.4887C64.6663 89.2572 65.1185 86.173 65.5951 82.7668L66.035 79.5914V79.468L65.8944 79.4358L63.3954 78.8994V79.1569L65.9006 78.7653L66.0716 78.7385L65.9983 78.6044L64.3486 75.4558C64.1591 75.1178 64.0064 74.8335 63.8781 74.6029C63.8326 74.4983 63.7686 74.4005 63.6887 74.3132C63.7142 74.4228 63.7553 74.5291 63.8109 74.6297C63.9209 74.8657 64.0553 75.1661 64.2141 75.5094C64.6052 76.314 65.1307 77.3921 65.76 78.6956L65.8578 78.54L63.3465 78.8994L62.6255 79.0013L63.3343 79.1569L65.8272 79.6933L65.705 79.5431C65.5584 80.5515 65.4117 81.619 65.2529 82.7132C64.7763 86.1247 64.3608 89.209 64.0797 91.4457C63.9514 92.5185 63.8414 93.425 63.762 94.1277C63.7131 94.4477 63.6927 94.7705 63.7009 95.0932Z" fill="#263238"/>
    <path d="M55.201 136.508H54.8466L53.7896 136.567L49.7324 136.825L35.2023 137.806H35.0557V137.935C35.2879 140.333 35.5445 142.94 35.8133 145.686C35.9478 147.066 36.0863 148.477 36.2288 149.918C36.3021 150.642 36.3694 151.366 36.4427 152.101C36.4683 152.482 36.5358 152.859 36.6443 153.228C36.7733 153.609 36.9669 153.97 37.2187 154.301C38.041 155.275 39.2687 155.925 40.6343 156.108C41.9192 156.248 43.2136 156.309 44.5082 156.291C46.9519 156.296 49.3887 156.063 51.7732 155.593C52.3387 155.473 52.8925 155.313 53.4291 155.116C53.6964 155.021 53.9539 154.906 54.199 154.773C54.3232 154.7 54.4398 154.617 54.5472 154.526C54.6459 154.431 54.7377 154.33 54.8222 154.225C55.3431 153.384 55.6652 152.459 55.7693 151.506C56.0099 149.832 56.1059 148.145 56.0565 146.458C56.0015 143.369 55.7509 140.88 55.5615 139.163C55.4699 138.305 55.3782 137.645 55.311 137.195C55.311 136.98 55.2499 136.814 55.2316 136.658C55.2282 136.6 55.2137 136.542 55.1888 136.487C55.1888 136.487 55.1888 136.546 55.1888 136.664C55.1888 136.782 55.1888 136.964 55.2377 137.2C55.2866 137.672 55.3477 138.332 55.4271 139.174C55.5799 140.891 55.7937 143.38 55.8182 146.458C55.8459 148.133 55.7377 149.807 55.4943 151.468C55.3862 152.384 55.0726 153.272 54.5717 154.081C54.256 154.458 53.8104 154.736 53.3008 154.874C52.7799 155.064 52.2425 155.217 51.6938 155.33C49.3322 155.788 46.9203 156.014 44.5021 156.006C43.2279 156.023 41.9539 155.962 40.6893 155.824C39.4085 155.653 38.2559 155.046 37.4814 154.134C37.2565 153.835 37.0797 153.51 36.9559 153.169C36.8549 152.817 36.7915 152.458 36.7665 152.096C36.6932 151.361 36.6199 150.632 36.5527 149.907C36.406 148.47 36.2655 147.054 36.125 145.681C35.8439 142.929 35.5811 140.317 35.3367 137.93L35.2084 138.069L49.6346 136.964L53.7163 136.637L54.8039 136.546C54.9371 136.541 55.0698 136.529 55.201 136.508Z" fill="#263238"/>
    <g opacity="0.3">
        <path d="M36.6749 152.884C38.2269 156.435 42.2779 156.639 46.6406 156.103C50.7406 155.566 54.6878 154.821 54.9933 153.791C54.8833 155.674 53.3069 157.117 51.3271 157.873C49.3171 158.547 47.1592 158.813 45.0153 158.651C42.7729 158.559 40.8359 158.651 38.9845 157.53C37.1331 156.409 36.6688 154.504 36.6749 152.884Z" fill="black"/>
    </g>
    <path d="M78.2675 137.608C78.2621 137.563 78.2621 137.518 78.2675 137.474L78.2125 137.088C78.1718 136.73 78.1107 136.231 78.0292 135.591C77.8826 134.261 77.6748 132.373 77.4182 130.077C76.9171 125.421 76.245 118.984 75.5362 111.877C74.8275 104.77 74.2164 98.3276 73.8071 93.6395C73.6054 91.3062 73.4588 89.4181 73.3732 88.1146C73.3243 87.4602 73.306 86.956 73.2938 86.6073C73.2938 86.4518 73.2938 86.323 73.2938 86.2158C73.2849 86.1714 73.2849 86.126 73.2938 86.0817C73.4404 87.5943 74.4608 97.8448 75.854 111.829C76.5505 118.931 77.186 125.357 77.6443 130.039C77.8581 132.351 78.0353 134.229 78.1575 135.559C78.2125 136.192 78.2553 136.696 78.2858 137.061C78.2858 137.216 78.2858 137.345 78.2858 137.452C78.2884 137.505 78.2822 137.557 78.2675 137.608Z" fill="#263238"/>
    <path d="M86.2346 111.33C86.4691 112.073 86.556 112.846 86.4912 113.615C86.3629 114.79 86.3018 117.675 82.7395 118.662C79.1773 119.649 77.4481 118.705 76.3544 117.38L75.8105 111.641L79.6233 109.431L86.2346 111.33Z" fill="#E0E0E0"/>
    <g opacity="0.3">
        <path d="M56.4725 115.02C56.4725 115.02 47.3621 122.921 40.2865 124.059C33.2109 125.196 30.6813 122.986 28.7993 117.423L56.4725 115.02Z" fill="black"/>
    </g>
    <path d="M27.5951 78.9047C27.5951 78.9047 21.8088 83.6142 23.4585 94.7659C24.9861 105.129 27.7357 119.558 31.3285 121.237C34.9213 122.916 42.7729 122.074 48.4982 119.226C54.2234 116.377 70.8127 108.675 70.8127 108.675L63.9448 97.9467L41.8197 105.456C41.8197 105.456 38.9601 88.2916 37.2432 85.3092" fill="#E0E0E0"/>
    <path d="M37.1513 85.1108C37.1513 85.1108 37.2124 85.2234 37.3224 85.4433C37.3713 85.5506 37.4446 85.6847 37.5179 85.851C37.5912 86.0173 37.6523 86.2211 37.7379 86.441C38.0617 87.3315 38.4467 88.6671 38.8683 90.405C39.7237 93.8755 40.7563 98.9391 41.8439 105.247L41.6851 105.161L63.7979 97.5981L63.9201 97.5552L63.9874 97.6571C66.1565 101.047 68.4661 104.63 70.8613 108.385L70.9408 108.514L70.7941 108.583L56.6062 115.294L49.6467 118.582C48.5041 119.118 47.3676 119.682 46.1883 120.127C45.0117 120.563 43.8032 120.931 42.5711 121.226C40.1711 121.817 37.68 122.07 35.1899 121.977C33.9761 121.93 32.7801 121.703 31.6521 121.307L31.2366 121.146C31.1022 121.087 30.9739 121.001 30.8395 120.926C30.6124 120.757 30.4075 120.566 30.2284 120.357C29.8648 119.946 29.5514 119.502 29.2936 119.033C28.3403 117.229 27.5952 115.345 27.0695 113.411C26.5134 111.55 26.0735 109.721 25.6763 107.945C24.8942 104.4 24.3138 101.074 23.8433 98.0326C23.3728 94.9912 22.9267 92.2234 23.055 89.7721C23.1153 87.677 23.5398 85.6022 24.3138 83.6196C24.8154 82.3707 25.5214 81.1926 26.4096 80.1223C26.6429 79.8457 26.8959 79.5823 27.1672 79.3338C27.2599 79.2504 27.3578 79.1716 27.4605 79.0978L27.1917 79.3553C26.9327 79.6097 26.69 79.8765 26.4645 80.1545C25.6044 81.2326 24.9214 82.4118 24.436 83.6571C23.6779 85.6311 23.2658 87.6948 23.2139 89.7774C23.1039 92.2127 23.5439 94.9644 24.0449 98.0004C24.5459 101.036 25.1386 104.362 25.933 107.902C26.3301 109.667 26.7762 111.491 27.3383 113.347C27.8615 115.262 28.6004 117.127 29.5441 118.914C29.7909 119.363 30.0877 119.789 30.4301 120.186C30.6106 120.384 30.8155 120.564 31.0411 120.722C31.1539 120.792 31.2724 120.855 31.3955 120.91L31.7865 121.065C32.8869 121.443 34.052 121.655 35.2327 121.693C37.688 121.781 40.1438 121.53 42.51 120.947C43.7244 120.657 44.9163 120.299 46.0783 119.875C47.2515 119.429 48.3635 118.877 49.5123 118.341L56.4718 115.047L70.6658 108.342L70.5986 108.535L63.7429 97.8073L63.9324 97.8663L41.7951 105.376L41.6545 105.424V105.295C40.5975 98.9927 39.6015 93.9238 38.7888 90.4479C38.3917 88.71 38.0251 87.369 37.7196 86.4786C37.6462 86.2587 37.579 86.0602 37.5179 85.8886L37.3407 85.4755C37.2185 85.2288 37.1513 85.1108 37.1513 85.1108Z" fill="#263238"/>
    <path d="M45.0951 97.9628H56.0752V94.7551H45.0951V97.9628Z" fill="white"/>
    <path d="M47.3682 96.1658C48.5008 96.0213 49.6467 95.9728 50.7899 96.021C51.9351 95.9727 53.083 96.0212 54.2177 96.1658C53.0823 96.3037 51.9349 96.3504 50.7899 96.3053C49.6469 96.3502 48.5015 96.3036 47.3682 96.1658Z" fill="#263238"/>
    <g opacity="0.3">
        <path d="M63.1444 94.9L46.9829 83.3889L47.3679 82.3859H45.9625L43.6284 74.4097L46.989 80.2028L48.9321 80.1223L47.5206 81.2595L63.1444 94.9Z" fill="black"/>
    </g>
    <path d="M43.1826 81.7796L43.7937 81.5651C43.7937 81.5383 42.4678 78.7651 41.1663 75.8256C40.6988 74.9224 40.5092 73.9274 40.6164 72.9398C40.6896 72.6291 40.8855 72.3511 41.1694 72.1549C41.4534 71.9586 41.8071 71.8566 42.1683 71.867L42.5961 71.6686L42.816 71.3253C41.6856 71.1107 40.1703 71.9421 39.987 72.8594C39.8678 73.9501 40.0786 75.0492 40.598 76.0456C41.8506 79.0011 43.1643 81.7528 43.1826 81.7796Z" fill="#455A64"/>
    <path d="M42.2295 88.2593L43.0421 87.9804C42.3761 86.4731 41.4657 83.8072 41.8567 83.0563C42.0496 82.7882 42.3051 82.5592 42.6063 82.3845C42.9076 82.2097 43.2478 82.0931 43.6043 82.0425C44.0407 81.9413 44.4979 81.9303 44.94 82.0103C45.3821 82.0904 45.797 82.2593 46.1522 82.5038C47.081 83.1957 48.4863 85.631 48.9507 86.516L49.7389 86.1942C49.6717 86.0601 47.9853 82.8578 46.7144 81.903C46.257 81.5818 45.7208 81.3583 45.1482 81.2503C44.5755 81.1423 43.9821 81.1528 43.4149 81.2808C42.9225 81.3557 42.4557 81.5272 42.0494 81.7827C41.6431 82.0381 41.3078 82.3708 41.0685 82.7559C40.4086 84.0003 41.9178 87.5835 42.2295 88.2593Z" fill="#455A64"/>
    <path d="M51.0036 99.8884C52.0057 99.8884 52.9956 99.4164 53.9427 98.4831L53.6127 98.2256C52.574 99.2608 51.4986 99.6685 50.4354 99.4486C46.091 98.5528 42.7793 87.959 42.7488 87.8517L42.3271 87.9482C42.4677 88.3934 45.7366 98.8746 50.3315 99.8187C50.5515 99.8657 50.7772 99.8891 51.0036 99.8884Z" fill="#263238"/>
    <path d="M53.1059 98.9175C53.1942 98.9951 53.3114 99.0421 53.4359 99.05C53.5605 99.0578 53.6841 99.0261 53.7842 98.9604L54.7251 98.3436C54.7954 98.305 54.8559 98.2543 54.9032 98.1946C54.9504 98.1349 54.9833 98.0673 54.9999 97.9961C55.0164 97.9249 55.0163 97.8514 54.9996 97.7802C54.9828 97.709 54.9497 97.6415 54.9023 97.5819C54.8524 97.5131 54.7853 97.4552 54.7061 97.4126C54.6268 97.37 54.5376 97.3438 54.4451 97.336C54.3526 97.3283 54.2593 97.3392 54.1723 97.3678C54.0853 97.3965 54.0069 97.4422 53.943 97.5014L53.0937 98.2738C52.9983 98.3607 52.946 98.4772 52.9483 98.5979C52.9506 98.7185 53.0073 98.8335 53.1059 98.9175Z" fill="#263238"/>
    <path d="M49.1577 100.237C49.723 100.275 50.2902 100.189 50.8077 99.9854C51.3252 99.7821 51.7767 99.4685 52.1212 99.0732C54.7913 95.7851 49.7565 86.6556 49.5426 86.2694L49.1516 86.4357C49.2005 86.5322 54.2903 95.7475 51.7668 98.8533C51.1069 99.6632 49.9337 99.9851 48.3328 99.8081L48.2778 100.184C48.5694 100.219 48.8634 100.237 49.1577 100.237Z" fill="#263238"/>
    <path d="M49.2376 100.028C49.2292 100.137 49.1765 100.24 49.089 100.318C49.0015 100.395 48.8851 100.443 48.761 100.452L47.5878 100.538C47.5066 100.549 47.4236 100.546 47.3437 100.528C47.2639 100.511 47.1889 100.479 47.1233 100.436C47.0577 100.392 47.0028 100.337 46.9619 100.275C46.9209 100.212 46.8949 100.143 46.8852 100.071C46.87 99.9903 46.8759 99.9078 46.9025 99.8296C46.9292 99.7514 46.9758 99.6795 47.0388 99.6195C47.1019 99.5595 47.1797 99.5129 47.2664 99.4833C47.3531 99.4537 47.4463 99.4418 47.539 99.4486L48.761 99.5398C48.8972 99.5508 49.0231 99.6079 49.1121 99.699C49.2011 99.7902 49.2461 99.9082 49.2376 100.028Z" fill="#263238"/>
    <path d="M70.1465 88.8281C71.8608 88.8281 73.2505 87.6081 73.2505 86.1032C73.2505 84.5983 71.8608 83.3783 70.1465 83.3783C68.4322 83.3783 67.0425 84.5983 67.0425 86.1032C67.0425 87.6081 68.4322 88.8281 70.1465 88.8281Z" fill="#263238"/>
    <path d="M70.1465 88.8281C71.8608 88.8281 73.2505 87.6081 73.2505 86.1032C73.2505 84.5983 71.8608 83.3783 70.1465 83.3783C68.4322 83.3783 67.0425 84.5983 67.0425 86.1032C67.0425 87.6081 68.4322 88.8281 70.1465 88.8281Z" fill="#263238"/>
    <path d="M67.856 86.1032C67.8548 86.5025 67.9886 86.8932 68.2406 87.2257C68.4926 87.5582 68.8513 87.8175 69.2714 87.9708C69.6914 88.1241 70.1539 88.1645 70.6001 88.0869C71.0463 88.0092 71.4563 87.817 71.7779 87.5347C72.0996 87.2523 72.3185 86.8924 72.407 86.5007C72.4954 86.1089 72.4494 85.703 72.2748 85.3342C72.1001 84.9655 71.8047 84.6506 71.426 84.4293C71.0472 84.2081 70.6022 84.0906 70.1473 84.0917C69.5396 84.0917 68.9568 84.3036 68.5271 84.6808C68.0974 85.0581 67.856 85.5697 67.856 86.1032Z" fill="#E0E0E0"/>
    <path d="M63.5598 74.2326C63.8531 74.6027 67.0976 80.6157 68.8695 83.6463L69.3889 83.4103C69.1262 82.9651 64.4091 74.4203 64.0425 73.9429L60.6085 71.4916L60.4863 72.0655L63.5598 74.2326Z" fill="#455A64"/>
    <path d="M62.2588 86.0386C64.5073 88.0072 70.202 93.1298 70.202 93.1298L71.7235 92.3252L63.7069 84.8156C63.5443 84.6634 63.3254 84.5669 63.0892 84.5434C62.853 84.5198 62.615 84.5707 62.4176 84.6869C62.2943 84.7587 62.1906 84.8536 62.1139 84.9647C62.0373 85.0759 61.9897 85.2006 61.9745 85.3298C61.9593 85.4591 61.977 85.5897 62.0261 85.7122C62.0752 85.8348 62.1547 85.9462 62.2588 86.0386Z" fill="#263238"/>
    <path d="M63.8784 97.7268L65.7909 92.9958C65.9893 92.4854 66.3585 92.0393 66.8501 91.7159C67.3416 91.3925 67.9329 91.2067 68.5466 91.1827H68.8338C69.9825 91.2954 75.83 91.6333 75.83 91.6333L78.0908 93.8594C78.2768 94.0445 78.3794 94.283 78.3794 94.5298C78.3794 94.7767 78.2768 95.0152 78.0908 95.2003L78.7446 99.2233L77.4797 99.9957L77.6081 102.806C77.6081 102.806 76.4654 103.472 75.9583 103.252L75.445 103.026L74.6874 102.356L72.5244 105.038L69.5365 106.556L63.8784 97.7268Z" fill="#FFBF9D"/>
    <path d="M78.1268 95.4257C77.8713 95.1527 77.5979 94.893 77.308 94.6479C76.9827 94.4027 76.613 94.2069 76.2143 94.0686C75.695 93.9609 75.165 93.898 74.6318 93.8808C73.2281 93.813 71.8326 93.6479 70.4585 93.3874C71.8637 93.358 73.2693 93.4262 74.6623 93.5912C75.2226 93.6074 75.7786 93.683 76.3182 93.8165C76.7465 93.9757 77.1363 94.2051 77.4669 94.4923C77.7981 94.731 78.0301 95.0592 78.1268 95.4257Z" fill="#FF9A6C"/>
    <path d="M77.9991 99.1214C77.8684 98.7711 77.7112 98.4289 77.5286 98.0969C77.0069 97.3372 76.2113 96.752 75.2679 96.4341C74.3079 96.1308 73.2941 95.98 72.2739 95.9889C71.846 96.0145 71.4163 96.0037 70.9907 95.9567C71.4041 95.8356 71.8381 95.7776 72.2739 95.785C73.3312 95.7132 74.3939 95.8412 75.3901 96.1605C76.4038 96.499 77.2393 97.1542 77.7364 98.0004C77.9656 98.3373 78.0583 98.7324 77.9991 99.1214Z" fill="#FF9A6C"/>
    <path d="M77.4237 102.57C77.2122 102.232 77.1068 101.851 77.1182 101.465C77.0934 101.07 76.9964 100.681 76.831 100.312C76.7181 100.101 76.5475 99.9174 76.3343 99.7779C76.1211 99.6385 75.8719 99.5475 75.609 99.513C74.6018 99.3236 73.581 99.1946 72.5539 99.1268C72.1176 99.1114 71.6885 99.0241 71.2891 98.8693C71.7197 98.8603 72.1506 98.8783 72.5783 98.9229C73.6243 98.9304 74.6665 99.0328 75.6884 99.2287C75.9963 99.296 76.2866 99.4143 76.5438 99.5774C76.7829 99.7413 76.9684 99.9578 77.0815 100.205C77.2484 100.603 77.3293 101.025 77.3198 101.449C77.3504 102.147 77.4787 102.554 77.4237 102.57Z" fill="#FF9A6C"/>
    <path d="M80.6136 93.6985L55.3906 116.565L56.3622 117.429L74.43 115.642L98.7426 95.3077L98.7181 94.3314L80.6136 93.6985Z" fill="#455A64"/>
    <g opacity="0.3">
        <path d="M85.3371 104.362C84.7428 103.886 84.0416 103.525 83.2786 103.301C82.5157 103.078 81.7079 102.997 80.9072 103.064C79.3032 103.208 77.7845 103.769 76.5445 104.673C75.4943 105.349 74.7293 106.311 74.3692 107.409C73.856 109.329 75.6585 112.017 77.6443 112.95C80.1617 111.174 82.6119 108.45 85.1293 106.679C85.5377 106.447 85.8454 106.102 86.0031 105.698C86.0243 105.444 85.9747 105.19 85.8586 104.958C85.7426 104.725 85.5635 104.52 85.3371 104.362Z" fill="black"/>
    </g>
    <path d="M98.6447 95.2646C98.5349 95.2714 98.4246 95.2714 98.3148 95.2646H97.3494L93.7321 95.2271L81.1451 95.034L81.2612 94.9911L74.9432 100.747L61.8368 112.585L57.8408 116.147L56.7409 117.107C56.6168 117.222 56.4841 117.329 56.3438 117.429C56.4515 117.305 56.5722 117.19 56.7043 117.085L57.7613 116.088L61.6841 112.461C65.0386 109.399 69.6273 105.199 74.7172 100.564C76.9474 98.5366 79.0921 96.5949 81.0473 94.8248L81.0962 94.7819H81.1451L93.7138 95.0983L97.3249 95.211L98.2904 95.2539C98.4086 95.246 98.5274 95.2496 98.6447 95.2646Z" fill="#263238"/>
    <path d="M82.8558 101.97C82.8558 101.97 85.2999 102.013 86.1004 102.361C86.9008 102.71 89.0883 104.748 89.0883 104.748C89.0883 104.748 89.0883 106.143 88.4772 106.197C88.5553 106.509 88.5983 106.827 88.6055 107.146C88.6666 107.929 88.795 108.374 87.5851 109.045C87.5851 109.045 87.7135 110.327 87.2674 110.654C86.9658 110.877 86.6474 111.081 86.3142 111.265C86.3142 111.265 86.247 112.676 84.0901 112.66L82.0676 113.443C82.0676 113.443 77.5705 113.073 78.0471 112.606C78.5237 112.14 79.6052 109.828 79.6052 109.828C79.6052 109.828 76.5501 107.859 76.5868 107.248C76.6234 106.636 76.9045 106.577 76.9045 106.577C76.9045 106.577 76.7823 105.408 77.8577 105.295C77.8577 105.295 78.6887 103.842 79.5135 103.788C80.3384 103.734 85.9354 105.515 85.9354 105.515L83.8396 103.954C83.8396 103.954 81.7377 103.675 81.8049 103.059C81.8721 102.442 82.8558 101.97 82.8558 101.97Z" fill="#FFBF9D"/>
    <path d="M82.4891 109.324C81.519 108.965 80.5707 108.562 79.6479 108.117C78.6776 107.752 77.7293 107.344 76.8066 106.894C77.8532 107.065 78.8619 107.382 79.7945 107.832C80.7761 108.203 81.6854 108.706 82.4891 109.324Z" fill="#FF9A6C"/>
    <path d="M85.4224 107.618C84.1689 107.363 82.9424 107.015 81.7563 106.577C80.5378 106.23 79.3561 105.79 78.2246 105.263C79.4782 105.518 80.7047 105.866 81.8907 106.304C83.1092 106.651 84.2909 107.091 85.4224 107.618Z" fill="#FF9A6C"/>
    <path d="M45.5951 58.189C44.7819 55.7564 44.2055 53.2675 43.872 50.7492C43.5388 48.2188 43.9251 45.6553 44.9963 43.2879C45.1735 42.9339 46.6155 40.606 47.0432 40.6381C47.3548 40.6757 46.4322 42.891 46.5666 43.1378C47.9353 45.4657 48.1797 48.2067 47.7887 50.8082C47.3807 53.3317 46.6531 55.8073 45.6195 58.189" fill="#263238"/>
    <path d="M45.8835 48.5178C46.0179 42.1562 50.35 36.9317 57.5845 37.2535L58.2505 37.3179C61.4907 37.6113 64.4856 38.9666 66.6376 41.1133C68.7895 43.2599 69.9402 46.04 69.8599 48.8987C69.7072 54.4075 69.4567 60.4902 69.0656 63.4189C68.2529 69.4748 61.2262 69.7806 61.2262 69.7806L59.6253 79.1246L44.8447 70.1024L45.8835 48.5178Z" fill="#FFBF9D"/>
    <path d="M61.2017 69.8021C58.0101 69.4977 54.9845 68.3977 52.4824 66.632C52.4824 66.632 53.8633 71.8189 60.8229 71.9101L61.2017 69.8021Z" fill="#FF9A6C"/>
    <path d="M67.2017 53.9463C67.1768 54.1721 67.0523 54.3805 66.8548 54.5268C66.6573 54.6732 66.4024 54.7459 66.1446 54.7294C66.0181 54.7267 65.8935 54.7018 65.7781 54.6561C65.6628 54.6103 65.559 54.5448 65.473 54.4633C65.387 54.3818 65.3205 54.286 65.2774 54.1815C65.2342 54.077 65.2154 53.9661 65.222 53.8551C65.2468 53.6288 65.3711 53.4199 65.5684 53.2727C65.7658 53.1255 66.0207 53.0516 66.279 53.0666C66.4058 53.07 66.5306 53.0956 66.646 53.1419C66.7614 53.1882 66.8651 53.2543 66.951 53.3362C67.0369 53.4181 67.1034 53.5143 67.1464 53.6191C67.1895 53.7238 67.2082 53.8351 67.2017 53.9463Z" fill="#263238"/>
    <path d="M68.0578 51.2534C67.9234 51.3499 67.233 50.7975 66.1698 50.717C65.1066 50.6365 64.2756 51.0174 64.1718 50.894C64.0679 50.7706 64.2695 50.6419 64.6361 50.4595C65.1294 50.2202 65.6957 50.1226 66.2553 50.1806C66.8068 50.2296 67.3265 50.4305 67.7401 50.7545C68.0395 50.9906 68.1251 51.2051 68.0578 51.2534Z" fill="#263238"/>
    <path d="M58.1157 53.5706C58.0909 53.7968 57.9666 54.0057 57.7693 54.1529C57.572 54.3001 57.3171 54.3741 57.0587 54.3591C56.9319 54.3556 56.8071 54.33 56.6917 54.2837C56.5764 54.2374 56.4727 54.1714 56.3867 54.0895C56.3008 54.0075 56.2344 53.9114 56.1913 53.8066C56.1483 53.7018 56.1295 53.5906 56.136 53.4794C56.1682 53.2579 56.2956 53.0557 56.4921 52.9141C56.6887 52.7725 56.9395 52.7022 57.1931 52.7177C57.3175 52.7205 57.44 52.7447 57.5537 52.7891C57.6674 52.8335 57.77 52.8971 57.8557 52.9763C57.9414 53.0555 58.0085 53.1487 58.0531 53.2507C58.0977 53.3527 58.119 53.4614 58.1157 53.5706Z" fill="#263238"/>
    <path d="M57.6086 50.6634C57.4742 50.7653 56.7837 50.2129 55.7206 50.127C54.6574 50.0412 53.8264 50.4274 53.7225 50.2987C53.6187 50.1699 53.8203 50.0519 54.1869 49.8696C54.6801 49.6302 55.2464 49.5327 55.8061 49.5906C56.3576 49.6397 56.8773 49.8406 57.2909 50.1646C57.5903 50.406 57.6758 50.6205 57.6086 50.6634Z" fill="#263238"/>
    <path d="M60.5601 58.1836C61.1385 58.0787 61.7301 58.0408 62.3198 58.0709C62.5887 58.0709 62.8514 58.0709 62.9308 57.8886C62.9829 57.6441 62.9488 57.3915 62.8331 57.1644L62.2526 55.2763C61.446 52.5943 60.8961 50.3951 61.0305 50.3683C61.165 50.3415 61.9043 52.5139 62.7109 55.1959C62.9003 55.8556 63.0836 56.4886 63.2608 57.0893C63.3873 57.3961 63.3873 57.732 63.2608 58.0388C63.2121 58.1186 63.1433 58.1876 63.0597 58.2406C62.976 58.2936 62.8797 58.3291 62.7781 58.3445C62.6219 58.3622 62.4638 58.3622 62.3076 58.3445C61.7198 58.354 61.1328 58.2999 60.5601 58.1836Z" fill="#263238"/>
    <path d="M57.3582 58.5377C57.5293 58.5377 57.4132 59.5569 58.3114 60.3668C59.2096 61.1768 60.4499 61.1768 60.4438 61.3216C60.4377 61.4664 60.1444 61.4932 59.6251 61.4557C58.9493 61.4022 58.317 61.1399 57.8409 60.7155C57.3812 60.3105 57.1202 59.7638 57.1138 59.1921C57.1199 58.763 57.2787 58.527 57.3582 58.5377Z" fill="#263238"/>
    <path d="M58.006 46.8763C57.8716 47.1177 56.8268 46.8763 55.5619 46.9192C54.2971 46.9621 53.2584 47.1392 53.1179 46.9192C53.0568 46.8012 53.2645 46.5813 53.7289 46.3828C54.2969 46.1295 54.9249 45.9972 55.5619 45.9966C56.1974 45.9936 56.8249 46.1203 57.395 46.3667C57.8594 46.5384 58.0671 46.7583 58.006 46.8763Z" fill="#263238"/>
    <path d="M67.9904 48.1102C67.7766 48.3033 67.0739 48.019 66.194 47.9278C65.3142 47.8366 64.5565 47.9278 64.4099 47.6811C64.3488 47.5684 64.4893 47.3646 64.8376 47.1929C65.302 46.9887 65.8271 46.9157 66.3407 46.9838C66.8561 47.029 67.3418 47.2168 67.7277 47.5201C68.0088 47.7883 68.0882 48.0136 67.9904 48.1102Z" fill="#263238"/>
    <path d="M45.9077 53.0611C45.7916 53.0021 41.3067 51.3876 40.9584 55.55C40.6101 59.7124 45.4433 59.1599 45.4616 59.0419C45.4799 58.9239 45.9077 53.0611 45.9077 53.0611Z" fill="#FFBF9D"/>
    <path d="M44.1418 57.3683C44.1418 57.3683 44.0563 57.4166 43.9096 57.4648C43.7085 57.5211 43.4907 57.5097 43.2986 57.4326C42.8159 57.2395 42.4493 56.5154 42.486 55.7645C42.5063 55.4068 42.6147 55.0573 42.8037 54.7399C42.8561 54.6085 42.9449 54.4906 43.0623 54.3969C43.1797 54.3033 43.3218 54.2368 43.4758 54.2035C43.5727 54.1866 43.6732 54.2006 43.7594 54.2428C43.8457 54.2851 43.9119 54.3529 43.9463 54.4342C44.0013 54.5522 43.9463 54.6327 43.9891 54.6434C44.0319 54.6541 44.093 54.579 44.0685 54.4074C44.0511 54.3022 43.9928 54.2056 43.9035 54.1338C43.843 54.0866 43.7724 54.0505 43.6958 54.0275C43.6193 54.0045 43.5383 53.995 43.4575 53.9997C43.2594 54.0193 43.0705 54.0841 42.9097 54.1876C42.7489 54.2911 42.6218 54.4297 42.541 54.5897C42.3106 54.9362 42.1785 55.3262 42.156 55.7269C42.1194 56.569 42.541 57.3844 43.2131 57.6043C43.3377 57.6449 43.4711 57.6602 43.6034 57.649C43.7357 57.6379 43.8634 57.6006 43.9769 57.5399C44.1296 57.4702 44.1602 57.379 44.1418 57.3683Z" fill="#FF9A6C"/>
    <path d="M67.2746 41.7967C68.0689 41.4695 65.9242 39.1576 64.0911 38.2994C61.3232 37.0013 57.0216 36.0572 54.3148 36.5614C51.0886 37.1729 48.3573 38.4066 46.5854 40.8526C44.8664 43.3414 43.9322 46.1868 43.8786 49.097C43.7739 49.9812 43.9405 50.8739 44.3613 51.6824C44.9723 52.6372 46.1943 53.2916 46.0355 54.5575C46.0009 54.7862 46.0181 55.0186 46.0863 55.2414C46.1545 55.4642 46.2722 55.6729 46.4326 55.8556C47.2453 56.7192 48.3573 56.0165 48.9073 55.2817C50.0682 53.7047 50.3248 51.7683 50.557 49.9177C50.8046 48.6017 50.8046 47.259 50.557 45.943C50.3737 45.235 50.0499 44.5591 49.946 43.8403C49.8524 43.4864 49.8477 43.1189 49.9321 42.7632C50.0165 42.4075 50.1881 42.0722 50.4348 41.7806C50.5599 41.6642 50.6969 41.5583 50.8442 41.4641C51.5435 40.9957 52.3722 40.6991 53.2452 40.6049C54.1182 40.5106 55.0041 40.622 55.8118 40.9277C58.4209 41.9093 62.8935 43.4058 64.1461 42.6763C65.9425 41.6304 66.4069 40.9062 66.4069 40.9062L67.2746 41.7967Z" fill="#263238"/>
</svg>
