<svg width="383" height="296" viewBox="0 0 383 296" fill="none" xmlns="http://www.w3.org/2000/svg">
    <path d="M383 259.943H0V260.142H383V259.943Z" fill="#EBEBEB"/>
    <path d="M344.624 272.718H319.254V272.917H344.624V272.718Z" fill="#EBEBEB"/>
    <path d="M206.713 270.297H183.564V270.495H206.713V270.297Z" fill="#EBEBEB"/>
    <path d="M318.487 265.35H264.952V265.549H318.487V265.35Z" fill="#EBEBEB"/>
    <path d="M168.214 266.684H40.1846V266.883H168.214V266.684Z" fill="#EBEBEB"/>
    <path d="M179.88 266.684H175.031V266.883H179.88V266.684Z" fill="#EBEBEB"/>
    <path d="M181.542 224.533H33.6348C32.4761 224.531 31.3655 224.052 30.5469 223.202C29.7283 222.352 29.2686 221.2 29.2686 219.999V4.49383C29.2786 3.29973 29.7429 2.15797 30.5604 1.31656C31.3779 0.475154 32.4827 0.00204556 33.6348 0H181.542C182.702 0 183.814 0.477638 184.634 1.32784C185.455 2.17804 185.916 3.33116 185.916 4.53353V219.999C185.916 221.202 185.455 222.355 184.634 223.205C183.814 224.055 182.702 224.533 181.542 224.533ZM33.6348 0.158793C32.5269 0.160896 31.465 0.618549 30.6823 1.4313C29.8996 2.24405 29.4601 3.34548 29.4601 4.49383V219.999C29.4601 221.148 29.8996 222.249 30.6823 223.062C31.465 223.874 32.5269 224.332 33.6348 224.334H181.542C182.65 224.332 183.713 223.875 184.497 223.062C185.281 222.25 185.722 221.148 185.724 219.999V4.49383C185.722 3.34475 185.281 2.24334 184.497 1.43081C183.713 0.618291 182.65 0.160892 181.542 0.158793H33.6348Z" fill="#EBEBEB"/>
    <path d="M347.235 224.533H199.32C198.161 224.531 197.049 224.052 196.23 223.203C195.41 222.353 194.948 221.201 194.946 219.999V4.49383C194.958 3.29901 195.424 2.15726 196.243 1.31607C197.062 0.474876 198.167 0.00202325 199.32 0H347.235C348.385 0.00413218 349.488 0.478164 350.304 1.31935C351.12 2.16054 351.583 3.3011 351.593 4.49383V219.999C351.593 221.199 351.135 222.35 350.318 223.199C349.501 224.049 348.392 224.529 347.235 224.533ZM199.32 0.158793C198.212 0.160892 197.149 0.618291 196.365 1.43081C195.581 2.24334 195.14 3.34475 195.138 4.49383V219.999C195.14 221.148 195.581 222.25 196.365 223.062C197.149 223.875 198.212 224.332 199.32 224.334H347.235C348.343 224.332 349.406 223.875 350.19 223.062C350.974 222.25 351.415 221.148 351.417 219.999V4.49383C351.415 3.34475 350.974 2.24334 350.19 1.43081C349.406 0.618291 348.343 0.160892 347.235 0.158793H199.32Z" fill="#EBEBEB"/>
    <path d="M321.935 256.299H339.997V179.182H321.935V256.299Z" fill="#F0F0F0"/>
    <path d="M209.915 259.943H336.527V256.307H209.915V259.943Z" fill="#F0F0F0"/>
    <path d="M321.935 179.189H206.445V256.307H321.935V179.189Z" fill="#F5F5F5"/>
    <path d="M314.826 208.328H213.546V227.161H314.826V208.328Z" fill="#F0F0F0"/>
    <path d="M314.826 230.599H213.546V249.431H314.826V230.599Z" fill="#F0F0F0"/>
    <path d="M237.752 210.4H290.606C290.936 210.398 291.252 210.261 291.486 210.019C291.72 209.777 291.852 209.449 291.854 209.106C291.852 208.764 291.72 208.437 291.486 208.196C291.252 207.955 290.935 207.82 290.606 207.82H237.752C237.422 207.82 237.105 207.955 236.871 208.196C236.637 208.437 236.505 208.764 236.503 209.106C236.503 209.449 236.634 209.778 236.869 210.021C237.103 210.264 237.42 210.4 237.752 210.4Z" fill="#F5F5F5"/>
    <path d="M314.826 186.057H213.546V204.89H314.826V186.057Z" fill="#F0F0F0"/>
    <path d="M237.752 188.122H290.606C290.936 188.12 291.252 187.983 291.486 187.741C291.72 187.498 291.852 187.17 291.854 186.828C291.852 186.486 291.72 186.159 291.486 185.918C291.252 185.677 290.935 185.541 290.606 185.542H237.752C237.422 185.541 237.105 185.677 236.871 185.918C236.637 186.159 236.505 186.486 236.503 186.828C236.503 187.171 236.634 187.5 236.869 187.743C237.103 187.986 237.42 188.122 237.752 188.122Z" fill="#F5F5F5"/>
    <path d="M237.752 232.631H290.606C290.936 232.629 291.252 232.492 291.486 232.25C291.72 232.008 291.852 231.68 291.854 231.337C291.852 230.995 291.72 230.668 291.486 230.427C291.252 230.186 290.935 230.051 290.606 230.051H237.752C237.422 230.051 237.105 230.186 236.871 230.427C236.637 230.668 236.505 230.995 236.503 231.337C236.503 231.68 236.634 232.009 236.869 232.252C237.103 232.495 237.42 232.631 237.752 232.631Z" fill="#F5F5F5"/>
    <path d="M204.04 179.189L321.935 179.189V172.854L204.04 172.854V179.189Z" fill="#F0F0F0"/>
    <path d="M342.525 172.854H321.935V179.19H342.525V172.854Z" fill="#E6E6E6"/>
    <path d="M303.819 156.903C303.819 165.716 296.343 172.854 287.151 172.854C277.959 172.854 270.482 165.708 270.482 156.903C270.482 151.703 273.072 145.43 277.124 141.151H297.208C301.222 145.43 303.819 151.703 303.819 156.903Z" fill="#E6E6E6"/>
    <path d="M326.898 159.587C326.898 166.915 320.685 172.846 313.041 172.846C305.396 172.846 299.191 166.915 299.191 159.587C299.191 155.267 301.344 150.059 304.707 146.494H321.375C324.737 150.059 326.898 155.275 326.898 159.587Z" fill="#F0F0F0"/>
    <path d="M249.241 172.751H262.355L260.731 120.103H249.241V172.751Z" fill="#F0F0F0"/>
    <path d="M226.491 172.75H258.41L262.355 112.25H230.436L226.491 172.75Z" fill="#E6E6E6"/>
    <path d="M225.748 172.75H257.667L261.612 112.25H229.693L225.748 172.75Z" fill="#F0F0F0"/>
    <path d="M253.447 165.454L256.212 119.888C256.233 119.55 256.187 119.211 256.076 118.892C255.965 118.572 255.792 118.28 255.568 118.033C255.344 117.786 255.074 117.589 254.773 117.455C254.473 117.321 254.149 117.252 253.822 117.252H236.303C235.695 117.253 235.109 117.494 234.665 117.926C234.221 118.358 233.952 118.949 233.914 119.579L231.141 165.144C231.121 165.482 231.168 165.821 231.279 166.14C231.39 166.458 231.563 166.75 231.787 166.997C232.01 167.244 232.281 167.441 232.581 167.575C232.88 167.71 233.204 167.78 233.531 167.78H251.057C251.665 167.778 252.25 167.536 252.693 167.105C253.137 166.673 253.406 166.083 253.447 165.454Z" fill="white"/>
    <path d="M168.206 42.0405H54.2173V192.401H168.206V42.0405Z" fill="#E6E6E6"/>
    <path d="M166.797 42.0405H52.8086V192.401H166.797V42.0405Z" fill="#FAFAFA"/>
    <path d="M163.61 189.098V45.3511L56.0027 45.3511L56.0027 189.098H163.61Z" fill="white"/>
    <path d="M124.165 163.163C125.452 154.944 120.067 147.199 112.137 145.865C104.207 144.531 96.7351 150.112 95.4479 158.332C94.1607 166.551 99.5457 174.296 107.476 175.63C115.406 176.964 122.877 171.383 124.165 163.163Z" fill="#FAFAFA"/>
    <path d="M115.362 131.151C122.785 127.964 126.309 119.145 123.235 111.451C120.16 103.758 111.651 100.105 104.229 103.292C96.8069 106.478 93.2823 115.298 96.3567 122.991C99.4311 130.684 107.94 134.338 115.362 131.151Z" fill="#EBEBEB"/>
    <path d="M124.163 76.1336C125.45 67.9142 120.065 60.1694 112.135 58.8352C104.205 57.501 96.7331 63.0826 95.4459 71.302C94.1587 79.5214 99.5437 87.2662 107.474 88.6004C115.404 89.9346 122.876 84.353 124.163 76.1336Z" fill="#E0E0E0"/>
    <path d="M278.656 87.7251C297.651 87.7251 313.049 71.7645 313.049 52.0762C313.049 32.3878 297.651 16.4272 278.656 16.4272C259.661 16.4272 244.262 32.3878 244.262 52.0762C244.262 71.7645 259.661 87.7251 278.656 87.7251Z" fill="#E0E0E0"/>
    <path d="M277.553 87.7251C296.548 87.7251 311.946 71.7645 311.946 52.0762C311.946 32.3878 296.548 16.4272 277.553 16.4272C258.558 16.4272 243.159 32.3878 243.159 52.0762C243.159 71.7645 258.558 87.7251 277.553 87.7251Z" fill="#F0F0F0"/>
    <path d="M307.633 52.0761C307.641 59.4504 305.129 66.5891 300.542 72.2263C295.955 77.8635 289.591 81.6347 282.577 82.8711C275.563 84.1075 268.353 82.7291 262.227 78.9805C256.1 75.232 251.452 69.3554 249.108 62.3931C246.763 55.4308 246.873 47.8328 249.418 40.9467C251.964 34.0605 256.78 28.3313 263.012 24.7752C269.245 21.219 276.491 20.0658 283.466 21.52C290.441 22.9742 296.693 26.9419 301.115 32.7193L301.199 32.8225C305.378 38.3042 307.646 45.0897 307.633 52.0761Z" fill="#FAFAFA"/>
    <path d="M280.356 50.9245C280.542 51.3031 280.619 51.7292 280.576 52.1517C280.534 52.5742 280.375 52.9751 280.119 53.3064L268.866 67.9471C268.698 68.1904 268.483 68.3957 268.236 68.5506C267.988 68.7056 267.713 68.8069 267.427 68.8484C267.141 68.8899 266.849 68.8708 266.57 68.7923C266.291 68.7137 266.031 68.5773 265.804 68.3913C265.578 68.2053 265.39 67.9736 265.252 67.7102C265.114 67.4468 265.029 67.1572 265.003 66.8589C264.976 66.5605 265.008 66.2597 265.097 65.9746C265.186 65.6894 265.329 65.4259 265.519 65.2L275.477 52.179L267.541 44.9301C267.318 44.7416 267.134 44.5085 267 44.2446C266.866 43.9806 266.785 43.6914 266.762 43.3942C266.738 43.097 266.773 42.7979 266.864 42.5149C266.954 42.2319 267.099 41.9708 267.29 41.7472C267.48 41.5237 267.712 41.3422 267.972 41.2139C268.231 41.0855 268.513 41.0127 268.801 41.0001C269.088 40.9874 269.375 41.035 269.644 41.14C269.914 41.245 270.16 41.4053 270.368 41.6113L279.82 50.2496C280.04 50.4354 280.223 50.6649 280.356 50.9245Z" fill="#E0E0E0"/>
    <path d="M191.5 295.799C273.525 295.799 340.02 291.775 340.02 286.811C340.02 281.848 273.525 277.824 191.5 277.824C109.475 277.824 42.9805 281.848 42.9805 286.811C42.9805 291.775 109.475 295.799 191.5 295.799Z" fill="#F5F5F5"/>
    <path d="M271.946 289.757H111.055L116.486 282.913H266.515L271.946 289.757Z" fill="#FEAD1D"/>
    <path opacity="0.6" d="M271.946 289.757H111.055L116.486 282.913H266.515L271.946 289.757Z" fill="white"/>
    <path d="M145.096 223.771C165.096 223.247 178.072 239.038 178.072 239.038C176.111 245.509 174.855 250.352 174.855 250.352C163.916 248.209 151.477 247.343 141.235 244.58C131.99 242.087 131.024 229.138 132.043 223.699C133.062 218.26 138.309 216.99 143.472 215.22C149.362 213.195 160.592 213.036 168.643 213.004C177.13 213.004 188.283 213.798 194.059 215.148C194.059 215.148 206.315 214.584 215.422 214.743C220.738 213.814 217.536 222.794 209.095 230.448C204.926 234.275 199.991 237.096 194.644 238.709C189.296 240.323 183.671 240.687 178.172 239.777H178.103" fill="#263238"/>
    <path d="M241.29 223.771C221.29 223.247 203.542 239.038 203.542 239.038C205.503 245.509 206.759 250.352 206.759 250.352C217.697 248.209 234.909 247.343 245.151 244.58C254.404 242.087 255.361 229.138 254.343 223.699C253.324 218.26 248.077 216.99 242.914 215.22C237.023 213.195 225.794 213.036 217.743 213.004C209.256 213.004 198.103 213.798 192.327 215.148C192.327 215.148 180.071 214.584 170.971 214.743C165.648 213.814 168.849 222.794 177.291 230.448C181.455 234.269 186.385 237.087 191.724 238.7C197.064 240.313 202.683 240.681 208.176 239.777H208.245" fill="#263238"/>
    <path d="M178.163 167.526C176.432 173.645 174.607 179.732 172.687 185.787C171.729 188.82 170.756 191.845 169.745 194.862C168.734 197.879 167.753 200.872 166.635 203.921L166.497 204.302L166.313 204.763C166.191 205.065 166.053 205.35 165.915 205.636C165.637 206.167 165.33 206.682 164.996 207.176C164.384 208.064 163.689 208.885 162.92 209.63C161.571 210.926 160.095 212.073 158.516 213.052C155.654 214.804 152.638 216.269 149.507 217.427C143.534 219.659 137.364 221.278 131.085 222.262L129.913 217.117C132.701 216.085 135.574 214.989 138.339 213.798C141.104 212.607 143.847 211.416 146.459 210.035C149.008 208.764 151.45 207.274 153.759 205.581C155.919 203.993 157.642 202 157.818 200.817L162.935 182.611C164.667 176.522 166.444 170.432 168.297 164.35L178.163 167.526Z" fill="#CE7A63"/>
    <path d="M131.913 217.371L122.561 214.91L127.019 224.231C127.019 224.231 133.361 224.517 135.445 220.856L131.913 217.371Z" fill="#CE7A63"/>
    <path d="M198.126 101.334C194.771 98.8169 189.255 96.705 187.034 100.54C184.813 104.375 182.898 112.449 179.198 114.402C175.498 116.356 171.094 124.192 173.514 131.076C175.935 137.959 166.367 136.101 165.854 146.558C165.341 157.014 179.703 162.302 188.773 157.141C197.842 151.981 204.223 125.049 203.649 114.402C203.074 103.755 198.126 101.334 198.126 101.334Z" fill="#263238"/>
    <path d="M193.913 100.873C193.913 100.873 198.831 93.1317 207.885 97.1254C218.456 101.786 215.139 106.812 217.077 117.435C219.015 128.058 230.827 129.956 230.29 144.739C229.379 169.916 207.885 165.247 201.948 158.562C196.012 151.877 202.584 127.336 202.584 127.336L193.913 100.873Z" fill="#263238"/>
    <path d="M114.977 218.57L119.121 226.168L127.01 224.35L122.545 215.029L114.977 218.57Z" fill="#CE7A63"/>
    <path d="M171.661 153.124C167.594 154.204 164.767 171.56 164.767 171.56L175.981 179.499C175.981 179.499 186.705 161.985 183.641 157.348C180.325 152.481 177.605 151.56 171.661 153.124Z" fill="#FEAD1D"/>
    <path opacity="0.2" d="M171.293 159.436L180.01 161.532L180.845 170.36C179.365 173.469 177.733 176.498 175.958 179.435L169.156 174.672C169.447 170.615 170.19 162.183 171.293 159.436Z" fill="black"/>
    <path d="M171.66 153.124C171.66 153.124 166.988 154.823 176.379 214.91H216.494C215.82 197.99 215.797 187.558 223.603 152.83C217.986 151.626 212.293 150.849 206.567 150.504C199.819 150.162 194.311 149.94 188.359 150.504C180.531 151.242 171.66 153.124 171.66 153.124Z" fill="#FEAD1D"/>
    <path opacity="0.2" d="M214.166 168.956L219.344 173.521C218.233 179.595 217.498 184.636 217.046 189.154C216.05 184.644 213.591 172.401 214.166 168.956Z" fill="black"/>
    <path d="M204.767 129.249C203.618 135.323 202.469 146.446 206.567 150.503C206.567 150.503 202.737 159.602 192.588 159.602C182.438 159.602 188.36 150.503 188.36 150.503C194.894 148.915 194.725 143.858 193.584 139.142L204.767 129.249Z" fill="#CE7A63"/>
    <path d="M206.567 150.504C199.819 150.162 194.311 149.94 188.352 150.504C185.533 150.766 182.584 151.178 179.964 151.599C178.233 154.847 171.362 169.448 188.222 169.448C205.901 169.448 213.27 153.394 214.189 151.186C211.822 150.901 209.202 150.639 206.567 150.504Z" fill="#CE7A63"/>
    <path opacity="0.2" d="M200.21 133.283L193.591 139.134C193.868 140.233 194.055 141.354 194.15 142.485C196.648 142.112 200.079 139.269 200.34 136.562C200.488 135.47 200.444 134.359 200.21 133.283Z" fill="black"/>
    <path d="M212.488 117.768C210.65 127.748 210.06 132.012 204.522 136.514C196.188 143.294 184.767 138.761 183.702 128.407C182.745 119.094 185.931 104.342 195.958 101.611C198.157 101.006 200.469 100.992 202.674 101.571C204.88 102.15 206.906 103.303 208.561 104.921C210.217 106.539 211.446 108.568 212.133 110.817C212.821 113.065 212.943 115.458 212.488 117.768Z" fill="#CE7A63"/>
    <path d="M195.33 100.54C191.875 102.548 194.166 106.097 200.401 108.614C206.636 111.131 207.012 111.592 205.993 116.816C204.974 122.04 214.059 126.875 214.174 121.476C214.289 116.078 216.142 105.835 211.293 102.985C206.445 100.135 198.984 98.4516 195.33 100.54Z" fill="#263238"/>
    <path d="M194.809 103.056C191.745 104.081 184.782 111.917 185.295 109.337C185.808 106.756 187.11 103.183 190.787 101.865C192.525 101.151 194.35 100.694 196.21 100.508L194.809 103.056Z" fill="#263238"/>
    <path d="M214.312 126.153C213.41 127.874 211.909 129.174 210.114 129.789C207.732 130.583 206.53 128.447 207.181 126.113C207.771 124.009 209.709 121.063 212.106 121.286C214.504 121.508 215.392 124.041 214.312 126.153Z" fill="#CE7A63"/>
    <path d="M175.943 249.17L179.612 238.316C179.75 237.919 181.335 238.959 181.726 239.039C181.726 239.039 187.479 238.245 189.769 238.912C192.059 239.578 191.96 241.103 191.538 242.723C190.566 246.486 188.995 247.201 187.984 252.187C187.364 255.227 186.858 258.03 183.649 260.92C180.585 263.675 177.643 263.509 178.853 260.126C181.764 252.06 180.385 253.258 178.547 250.257C178.21 249.749 175.743 249.741 175.943 249.17Z" fill="#CE7A63"/>
    <path d="M204.775 249.17L201.098 238.316C200.96 237.919 199.375 238.959 198.984 239.039C198.984 239.039 193.231 238.245 190.941 238.912C188.651 239.578 188.75 241.103 189.171 242.723C190.144 246.486 191.715 247.201 192.726 252.187C193.346 255.227 193.852 258.03 197.061 260.92C200.125 263.675 203.067 263.509 201.856 260.126C198.946 252.06 200.324 253.258 202.163 250.257C202.5 249.749 204.966 249.741 204.775 249.17Z" fill="#CE7A63"/>
    <path d="M177.199 251.758L180.899 237.363L176.027 235.275L169.156 250.733L177.199 251.758Z" fill="#FEAD1D"/>
    <path d="M203.794 252.06L197.98 237.506L202.477 235.593L211.585 249.749L203.794 252.06Z" fill="#FEAD1D"/>
    <path d="M190.504 118.586C190.504 118.586 188.727 121.929 187.034 123.43C187.953 124.581 189.784 124.359 189.784 124.359L190.504 118.586Z" fill="#BA4D3C"/>
    <path d="M192.197 128.622H192.259C193.996 128.772 195.723 128.226 197.084 127.097C197.112 127.068 197.128 127.028 197.128 126.986C197.128 126.945 197.112 126.905 197.084 126.875C197.056 126.846 197.017 126.83 196.977 126.83C196.937 126.83 196.899 126.846 196.87 126.875C195.567 127.937 193.927 128.455 192.274 128.328C192.241 128.326 192.209 128.335 192.181 128.354C192.154 128.373 192.133 128.401 192.122 128.433C192.111 128.465 192.11 128.5 192.119 128.532C192.129 128.565 192.148 128.593 192.174 128.614L192.197 128.622Z" fill="#263238"/>
    <path d="M200.952 114.656C200.996 114.681 201.045 114.694 201.094 114.694C201.144 114.694 201.193 114.681 201.236 114.656C201.269 114.634 201.298 114.606 201.321 114.573C201.343 114.539 201.359 114.501 201.368 114.462C201.376 114.422 201.377 114.381 201.37 114.34C201.364 114.3 201.349 114.262 201.328 114.227C200.965 113.589 200.458 113.051 199.852 112.66C199.245 112.269 198.555 112.036 197.843 111.981C197.8 111.973 197.756 111.976 197.714 111.988C197.673 112 197.634 112.021 197.601 112.05C197.568 112.08 197.542 112.116 197.524 112.156C197.505 112.197 197.496 112.241 197.496 112.286C197.496 112.331 197.505 112.375 197.524 112.416C197.542 112.457 197.568 112.493 197.601 112.522C197.634 112.551 197.673 112.572 197.714 112.584C197.756 112.597 197.8 112.599 197.843 112.592C198.455 112.652 199.045 112.862 199.565 113.204C200.084 113.546 200.518 114.011 200.83 114.561C200.863 114.602 200.905 114.635 200.952 114.656Z" fill="#263238"/>
    <path d="M194.266 117.443C194.203 117.43 194.137 117.438 194.079 117.467C194.021 117.496 193.974 117.543 193.944 117.602C193.913 117.66 193.902 117.728 193.912 117.794C193.922 117.859 193.952 117.92 193.997 117.967C194.494 118.501 195.106 118.904 195.783 119.143C196.459 119.381 197.182 119.449 197.889 119.341C197.966 119.322 198.034 119.272 198.077 119.202C198.12 119.133 198.135 119.048 198.119 118.967C198.102 118.888 198.056 118.818 197.99 118.773C197.924 118.728 197.843 118.713 197.766 118.729C197.156 118.82 196.535 118.759 195.952 118.55C195.37 118.342 194.844 117.992 194.419 117.53C194.377 117.486 194.324 117.456 194.266 117.443Z" fill="#263238"/>
    <path d="M183.733 116.315C183.686 116.303 183.636 116.305 183.589 116.318C183.542 116.332 183.499 116.359 183.465 116.395C183.409 116.454 183.377 116.534 183.377 116.617C183.377 116.7 183.409 116.78 183.465 116.839C183.961 117.373 184.573 117.775 185.25 118.012C185.928 118.25 186.65 118.316 187.356 118.205C187.433 118.188 187.501 118.14 187.544 118.071C187.587 118.003 187.602 117.92 187.586 117.84C187.568 117.759 187.52 117.689 187.453 117.645C187.386 117.6 187.304 117.585 187.226 117.601C186.617 117.693 185.995 117.632 185.414 117.422C184.832 117.212 184.308 116.859 183.886 116.395C183.843 116.354 183.79 116.327 183.733 116.315Z" fill="#263238"/>
    <path d="M184.606 111.615C184.652 111.644 184.705 111.659 184.759 111.659C184.813 111.659 184.866 111.644 184.913 111.615C185.385 111.203 185.947 110.916 186.55 110.778C187.153 110.64 187.779 110.655 188.375 110.821C188.45 110.847 188.532 110.841 188.603 110.806C188.675 110.77 188.73 110.708 188.758 110.631C188.771 110.592 188.777 110.551 188.775 110.51C188.773 110.469 188.763 110.429 188.746 110.392C188.729 110.356 188.705 110.322 188.675 110.295C188.646 110.268 188.611 110.247 188.574 110.234C187.885 110.033 187.16 110.006 186.459 110.155C185.758 110.304 185.102 110.625 184.545 111.091C184.513 111.116 184.487 111.147 184.468 111.183C184.448 111.218 184.435 111.257 184.43 111.298C184.425 111.339 184.428 111.38 184.438 111.419C184.449 111.459 184.467 111.496 184.491 111.528C184.521 111.568 184.561 111.598 184.606 111.615Z" fill="#263238"/>
    <path d="M217.092 212.472L217.413 216.188C217.551 216.482 217.222 216.776 216.762 216.776H176.179C175.819 216.776 175.521 216.593 175.498 216.355L175.138 212.631C175.138 212.377 175.429 212.155 175.819 212.155H216.417C216.547 212.139 216.678 212.161 216.797 212.217C216.916 212.273 217.017 212.361 217.092 212.472Z" fill="#FEAD1D"/>
    <path opacity="0.3" d="M217.092 212.472L217.413 216.188C217.551 216.482 217.222 216.776 216.762 216.776H176.179C175.819 216.776 175.521 216.593 175.498 216.355L175.138 212.631C175.138 212.377 175.429 212.155 175.819 212.155H216.417C216.547 212.139 216.678 212.161 216.797 212.217C216.916 212.273 217.017 212.361 217.092 212.472Z" fill="black"/>
    <path d="M211.639 217.18H212.726C212.941 217.18 213.109 217.061 213.094 216.918L212.581 212.083C212.581 211.94 212.382 211.829 212.159 211.829H211.072C210.857 211.829 210.689 211.94 210.704 212.083L211.217 216.918C211.233 217.061 211.416 217.18 211.639 217.18Z" fill="#263238"/>
    <path d="M179.244 217.18H180.331C180.546 217.18 180.707 217.061 180.691 216.918L180.186 212.083C180.186 211.94 179.979 211.829 179.764 211.829H178.677C178.462 211.829 178.294 211.94 178.309 212.083L178.822 216.918C178.838 217.061 179.021 217.18 179.244 217.18Z" fill="#263238"/>
    <path d="M195.438 217.18H196.525C196.747 217.18 196.908 217.061 196.893 216.918L196.387 212.083C196.387 211.94 196.181 211.829 195.966 211.829H194.878C194.656 211.829 194.495 211.94 194.511 212.083L195.016 216.918C195.032 217.061 195.223 217.18 195.438 217.18Z" fill="#263238"/>
    <path d="M227.165 165.144L230.452 183.5C231.011 186.549 231.578 189.59 232.175 192.599C232.466 194.1 232.803 195.585 233.117 197.053L233.623 199.221L234.113 201.079C234.425 201.91 234.908 202.661 235.53 203.278C236.397 204.195 237.343 205.027 238.357 205.763C240.658 207.411 243.081 208.868 245.603 210.122C248.192 211.456 250.896 212.671 253.631 213.83C256.365 214.989 259.192 216.077 261.934 217.101L260.762 222.246C254.566 221.27 248.476 219.675 242.577 217.482C239.495 216.351 236.518 214.932 233.684 213.242C232.136 212.302 230.679 211.209 229.333 209.979C227.681 208.504 226.372 206.661 225.503 204.588L225.327 204.136L225.212 203.794L225.005 203.191L224.599 201.968L223.887 199.586C223.438 197.998 223.021 196.437 222.638 194.902C221.847 191.8 221.129 188.698 220.486 185.597C219.153 179.388 218.012 173.203 217.031 166.923L227.165 165.144Z" fill="#CE7A63"/>
    <path d="M223.603 152.83C227.624 154.093 232.603 167.495 232.603 167.495L217.008 179.055C217.008 179.055 211.171 168.019 212.864 162.636C214.618 157.03 219.015 151.385 223.603 152.83Z" fill="#FEAD1D"/>
    <path d="M259.942 217.371L269.31 214.91L264.844 224.231C264.844 224.231 258.509 224.517 256.418 220.856L259.942 217.371Z" fill="#CE7A63"/>
    <path d="M276.879 218.57L272.735 226.168L264.845 224.35L269.31 215.029L276.879 218.57Z" fill="#CE7A63"/>
</svg>
