<svg width="268" height="225" viewBox="0 0 268 225" fill="none" xmlns="http://www.w3.org/2000/svg">
    <path d="M268 197.727H0V197.878H268V197.727Z" fill="#E6E6E6"/>
    <path d="M66.9037 206.864H49.1514V207.015H66.9037V206.864Z" fill="#E6E6E6"/>
    <path d="M43.5329 206.864H33.2471V207.015H43.5329V206.864Z" fill="#E6E6E6"/>
    <path d="M112.855 209.087H102.569V209.238H112.855V209.087Z" fill="#E6E6E6"/>
    <path d="M166.487 212.457H143.337V212.608H166.487V212.457Z" fill="#E6E6E6"/>
    <path d="M138.566 212.457H135.173V212.608H138.566V212.457Z" fill="#E6E6E6"/>
    <path d="M242.997 209.087H192.784V209.238H242.997V209.087Z" fill="#E6E6E6"/>
    <path d="M127.032 170.791H23.5357C22.7249 170.79 21.9478 170.426 21.375 169.779C20.8022 169.133 20.4805 168.256 20.4805 167.343V3.41824C20.4875 2.50995 20.8124 1.64147 21.3844 1.00145C21.9564 0.361427 22.7295 0.00155596 23.5357 0H127.032C127.844 0 128.622 0.363317 129.196 1.01002C129.77 1.65673 130.092 2.53386 130.092 3.44844V167.343C130.092 168.257 129.77 169.135 129.196 169.781C128.622 170.428 127.844 170.791 127.032 170.791ZM23.5357 0.120786C22.7604 0.122386 22.0174 0.470501 21.4697 1.08872C20.9221 1.70694 20.6145 2.54475 20.6145 3.41824V167.343C20.6145 168.216 20.9221 169.054 21.4697 169.672C22.0174 170.291 22.7604 170.639 23.5357 170.64H127.032C127.808 170.639 128.551 170.291 129.1 169.673C129.648 169.055 129.957 168.217 129.958 167.343V3.41824C129.957 2.54419 129.648 1.7064 129.1 1.08835C128.551 0.470304 127.808 0.122383 127.032 0.120786H23.5357Z" fill="#E6E6E6"/>
    <path d="M242.973 170.791H139.472C138.66 170.79 137.883 170.426 137.309 169.78C136.735 169.133 136.413 168.257 136.411 167.343V3.41824C136.42 2.5094 136.746 1.64092 137.319 1.00107C137.891 0.361216 138.665 0.00153899 139.472 0H242.973C243.779 0.00314315 244.55 0.363716 245.121 1.00357C245.692 1.64342 246.016 2.51099 246.023 3.41824V167.343C246.023 168.255 245.702 169.131 245.131 169.777C244.559 170.423 243.783 170.788 242.973 170.791ZM139.472 0.120786C138.696 0.122383 137.952 0.470304 137.404 1.08835C136.855 1.7064 136.547 2.54419 136.545 3.41824V167.343C136.547 168.217 136.855 169.055 137.404 169.673C137.952 170.291 138.696 170.639 139.472 170.64H242.973C243.749 170.639 244.493 170.291 245.041 169.673C245.59 169.055 245.898 168.217 245.9 167.343V3.41824C245.898 2.54419 245.59 1.7064 245.041 1.08835C244.493 0.470304 243.749 0.122383 242.973 0.120786H139.472Z" fill="#E6E6E6"/>
    <path d="M143.326 146.139H131.539V198.82H143.326V146.139Z" fill="#E0E0E0"/>
    <path d="M141.086 198.82H143.326V191.645H138.738L141.086 198.82Z" fill="#FAFAFA"/>
    <path d="M91.6773 146.139H79.8906V198.82H91.6773V146.139Z" fill="#E0E0E0"/>
    <path d="M143.327 146.139H89.7266V194.417H143.327V146.139Z" fill="#FAFAFA"/>
    <path d="M141.38 148.512V161.285H91.6549V148.512H141.364M141.573 148.277H91.4619V161.515H141.589V148.277H141.573Z" fill="#E0E0E0"/>
    <path d="M91.9617 198.82H89.7266V191.645H94.3094L91.9617 198.82Z" fill="#FAFAFA"/>
    <path d="M115.343 154.896C115.343 155.16 115.412 155.418 115.542 155.637C115.673 155.857 115.858 156.028 116.074 156.129C116.29 156.23 116.529 156.256 116.758 156.205C116.988 156.153 117.199 156.026 117.365 155.84C117.531 155.653 117.643 155.415 117.689 155.156C117.735 154.897 117.711 154.629 117.622 154.385C117.532 154.141 117.38 153.933 117.185 153.786C116.991 153.639 116.762 153.561 116.527 153.561C116.213 153.561 115.912 153.702 115.69 153.952C115.468 154.202 115.343 154.542 115.343 154.896Z" fill="#E6E6E6"/>
    <path d="M141.38 163.888V176.662H91.6549V163.888H141.364M141.573 163.659H91.4619V176.897H141.589V163.665L141.573 163.659Z" fill="#E0E0E0"/>
    <path d="M115.343 170.308C115.343 170.572 115.412 170.83 115.542 171.05C115.673 171.269 115.858 171.44 116.074 171.541C116.29 171.642 116.529 171.669 116.758 171.617C116.988 171.566 117.199 171.439 117.365 171.252C117.531 171.065 117.643 170.827 117.689 170.569C117.735 170.31 117.711 170.041 117.622 169.797C117.532 169.554 117.38 169.345 117.185 169.198C116.991 169.052 116.762 168.974 116.527 168.974C116.213 168.974 115.912 169.114 115.69 169.364C115.468 169.615 115.343 169.954 115.343 170.308Z" fill="#E6E6E6"/>
    <path d="M141.38 179.27V192.05H91.6549V179.27H141.364M141.573 179.035H91.4619V192.279H141.589V179.035H141.573Z" fill="#E0E0E0"/>
    <path d="M115.343 185.66C115.344 185.924 115.414 186.181 115.545 186.4C115.676 186.619 115.861 186.789 116.078 186.889C116.294 186.989 116.532 187.014 116.762 186.962C116.991 186.91 117.202 186.783 117.367 186.596C117.532 186.409 117.644 186.171 117.69 185.912C117.735 185.653 117.711 185.385 117.621 185.142C117.531 184.898 117.38 184.69 117.185 184.544C116.99 184.397 116.761 184.319 116.527 184.319C116.371 184.319 116.217 184.354 116.073 184.421C115.929 184.489 115.798 184.588 115.688 184.712C115.578 184.837 115.491 184.985 115.431 185.147C115.372 185.31 115.342 185.484 115.343 185.66Z" fill="#E6E6E6"/>
    <path d="M84.479 115.544H72.6924V198.826H84.479V115.544Z" fill="#E0E0E0"/>
    <path d="M82.2378 198.82H84.4783V191.645H79.8955L82.2378 198.82Z" fill="#FAFAFA"/>
    <path d="M40.4312 115.544H28.6445V198.826H40.4312V115.544Z" fill="#E0E0E0"/>
    <path d="M84.4785 115.544H38.4736V194.423H84.4785V115.544Z" fill="#FAFAFA"/>
    <path d="M82.496 117.766V135.624H40.4575V117.766H82.496ZM82.7425 117.495H40.2002V135.884H82.7318V117.501L82.7425 117.495Z" fill="#E0E0E0"/>
    <path d="M82.4966 137.805V185.171H62.4717V137.805H82.4966ZM82.7432 137.527H62.2305V185.449H82.7432V137.527Z" fill="#E0E0E0"/>
    <path d="M60.4824 137.805V185.171H40.4575V137.805H60.4824ZM60.7236 137.527H40.2002V185.449H60.7129V137.527H60.7236Z" fill="#E0E0E0"/>
    <path d="M40.7141 198.82H38.4736V191.645H43.0618L40.7141 198.82Z" fill="#FAFAFA"/>
    <path d="M60.2891 126.704C60.288 126.97 60.3569 127.23 60.487 127.451C60.6171 127.672 60.8026 127.845 61.0199 127.947C61.2372 128.05 61.4767 128.077 61.7078 128.026C61.939 127.975 62.1515 127.848 62.3185 127.661C62.4854 127.473 62.5993 127.235 62.6456 126.974C62.692 126.714 62.6687 126.444 62.5788 126.199C62.4889 125.953 62.3364 125.744 62.1406 125.596C61.9448 125.449 61.7146 125.37 61.479 125.37C61.1643 125.37 60.8625 125.51 60.6395 125.76C60.4165 126.01 60.2905 126.35 60.2891 126.704Z" fill="#E6E6E6"/>
    <path d="M64.5342 160.361C64.5342 160.627 64.6041 160.886 64.7351 161.107C64.8661 161.327 65.0523 161.499 65.27 161.601C65.4877 161.702 65.7273 161.728 65.9582 161.676C66.1892 161.624 66.4012 161.495 66.5674 161.307C66.7336 161.119 66.8465 160.88 66.8918 160.619C66.9371 160.359 66.9128 160.089 66.8219 159.844C66.731 159.599 66.5777 159.39 66.3813 159.244C66.1849 159.097 65.9543 159.019 65.7188 159.021C65.5627 159.021 65.4083 159.055 65.2642 159.123C65.1201 159.19 64.9893 159.289 64.8792 159.414C64.7692 159.538 64.682 159.686 64.6228 159.849C64.5636 160.011 64.5335 160.186 64.5342 160.361Z" fill="#E6E6E6"/>
    <path d="M56.0498 160.361C56.0509 160.625 56.1212 160.883 56.2521 161.101C56.3829 161.32 56.5682 161.49 56.7848 161.59C57.0013 161.69 57.2393 161.716 57.4687 161.664C57.6982 161.611 57.9087 161.484 58.0739 161.297C58.239 161.11 58.3513 160.872 58.3966 160.613C58.4418 160.355 58.4181 160.087 58.3282 159.843C58.2384 159.6 58.0866 159.392 57.8919 159.245C57.6972 159.099 57.4684 159.021 57.2344 159.021C57.0784 159.021 56.9239 159.055 56.7798 159.123C56.6358 159.19 56.5049 159.289 56.3949 159.414C56.2848 159.538 56.1977 159.686 56.1384 159.849C56.0792 160.011 56.0491 160.186 56.0498 160.361Z" fill="#E6E6E6"/>
    <path d="M54.7096 92.3228H49.7409C50.1988 95.0385 50.4872 97.7871 50.6039 100.548C50.6039 103.568 46.8197 115.544 52.2119 115.544C57.604 115.544 53.8199 103.598 53.8199 100.548C53.9454 97.7864 54.2428 95.0378 54.7096 92.3228Z" fill="#E0E0E0"/>
    <path d="M35.8047 104.57V108.194C35.8103 110.137 36.4977 111.998 37.7168 113.371C38.9359 114.745 40.5877 115.519 42.3117 115.526H45.5277C47.2518 115.519 48.9036 114.745 50.1227 113.371C51.3417 111.998 52.0291 110.137 52.0348 108.194V104.57H35.8047Z" fill="#F5F5F5"/>
    <path d="M104.879 138.457C104.879 142.685 109.076 146.139 114.205 146.139H118.836C123.966 146.139 128.163 142.685 128.163 138.457H104.879Z" fill="#E0E0E0"/>
    <path d="M227.591 132.261C224.782 134.845 220.901 139.574 217.353 146.23C214.984 150.662 213.558 155.288 212.931 161.436C212.931 154.491 212.969 147.033 212.99 139.991C213.703 138.179 215.332 134 216.501 130.702C220.398 119.693 221.861 116.981 225.361 107.487C230.04 94.8049 234.832 79.7912 233.46 80.993C230.662 83.4389 219.942 106.056 218.784 109.293C215.628 117.932 213.677 127.069 213.001 136.379C213.001 129.736 213.044 123.697 213.065 119.01C213.14 103.725 213.371 98.7908 213.483 97.2689C213.917 96.4959 214.426 95.596 214.727 95.1129C217.246 91.0062 218.216 87.5155 220.585 81.3916C223.951 72.7252 226.846 57.3311 225.999 58.1041C222.472 61.3412 219.695 68.2863 216.04 77.146C212.384 86.0056 213.43 91.0968 212.706 98.658C212.556 100.144 212.438 105.748 212.352 113.509C211.409 105.235 209.629 99.7873 206.386 94.8351C202.399 88.7414 198.539 84.6287 195.709 82.4787C192.879 80.3287 200.598 95.2941 204.285 101.804C207.571 107.626 210.599 112.754 212.325 117.809C212.234 128.335 212.191 141.658 212.191 154.044C211.344 148.404 209.962 142.322 208.118 137.617C205.899 131.965 202.49 123.292 199.772 120.351C199.124 119.645 202.613 136.512 204.854 140.993C207.094 145.475 208.74 149.708 210.149 152.251C210.476 152.855 211.57 155.131 212.191 156.448C212.191 171.589 212.266 184.947 212.384 189.495H212.963C212.926 188.323 212.915 180.617 212.931 170.423C214.33 164.891 217.525 158.574 220.162 152.812C223.035 146.574 230.399 129.694 227.591 132.261Z" fill="#E0E0E0"/>
    <path d="M221.068 198.82H204.269L202.999 180.267H222.338L221.068 198.82Z" fill="#F0F0F0"/>
    <path d="M223.588 182.429H201.746L201.124 176.166H224.215L223.588 182.429Z" fill="#F5F5F5"/>
    <path d="M66.6024 12.3805H36.5596V49.5524H66.6024V12.3805Z" fill="#E0E0E0"/>
    <path d="M69.8576 12.3805H38.8232V49.5524H69.8576V12.3805Z" fill="#F5F5F5"/>
    <path d="M67.2578 46.6234V15.3097L41.4226 15.3097V46.6234H67.2578Z" fill="white"/>
    <path d="M60.9912 39.026V22.895H47.6823V39.026H60.9912Z" fill="#F5F5F5"/>
    <path d="M219.787 16.7107H191.878V51.2434H219.787V16.7107Z" fill="#E0E0E0"/>
    <path d="M222.81 16.7107H193.984V51.2434H222.81V16.7107Z" fill="#F5F5F5"/>
    <path d="M220.398 48.5197V19.4344H196.402V48.5197H220.398Z" fill="white"/>
    <path d="M208.397 42.414C212.533 42.414 215.885 38.6366 215.885 33.9771C215.885 29.3175 212.533 25.5402 208.397 25.5402C204.262 25.5402 200.909 29.3175 200.909 33.9771C200.909 38.6366 204.262 42.414 208.397 42.414Z" fill="#F5F5F5"/>
    <path d="M97.8142 34.5448H75.5273V62.1202H97.8142V34.5448Z" fill="#E0E0E0"/>
    <path d="M100.227 34.5448H77.2061V62.1202H100.227V34.5448Z" fill="#F5F5F5"/>
    <path d="M98.2969 59.9461V36.719H79.1349V59.9461H98.2969Z" fill="white"/>
    <path d="M88.7186 42.4562L83.4766 52.6867H93.9607L88.7186 42.4562Z" fill="#F5F5F5"/>
    <path d="M134.001 225C191.397 225 237.926 221.939 237.926 218.163C237.926 214.388 191.397 211.327 134.001 211.327C76.605 211.327 30.0762 214.388 30.0762 218.163C30.0762 221.939 76.605 225 134.001 225Z" fill="#F5F5F5"/>
    <path d="M187.2 65.4842L181.883 63.0685C181.883 63.0685 174.866 77.4843 172.856 78.215C170.123 79.2055 164.463 81.9594 161.107 82.4425C160.652 83.0465 159.907 84.9247 159.976 85.6071C164.484 87.3042 174.389 85.0515 176.512 83.276C181.341 79.2478 187.2 65.4842 187.2 65.4842Z" fill="#E58A7B"/>
    <path d="M188.834 62.2048C189.825 66.3297 184.455 74.6277 184.455 74.6277L177.417 70.1827C177.417 70.1827 178.736 66.7705 180.344 63.2979C182.922 57.6874 187.703 57.5002 188.834 62.2048Z" fill="#465B9B"/>
    <path opacity="0.2" d="M188.834 62.2048C189.825 66.3297 184.455 74.6277 184.455 74.6277L177.417 70.1827C177.417 70.1827 178.736 66.7705 180.344 63.2979C182.922 57.6874 187.703 57.5002 188.834 62.2048Z" fill="black"/>
    <path opacity="0.2" d="M180.21 71.9582L182.981 73.7096L183.469 64.1252C181.855 65.5203 180.719 69.7237 180.21 71.9582Z" fill="black"/>
    <path d="M184.203 59.1006C184.203 59.1006 178.725 72.834 181.919 98.4044H203.504C203.847 94.6721 202.711 76.4576 206.822 58.8711C204.454 58.3497 202.058 58.0048 199.65 57.8384C196.596 57.639 193.534 57.639 190.479 57.8384C188.362 58.0807 186.264 58.5026 184.203 59.1006Z" fill="#465B9B"/>
    <path opacity="0.2" d="M184.203 59.1006C184.203 59.1006 178.725 72.834 181.919 98.4044H203.504C203.847 94.6721 202.711 76.4576 206.822 58.8711C204.454 58.3497 202.058 58.0048 199.65 57.8384C196.596 57.639 193.534 57.639 190.479 57.8384C188.362 58.0807 186.264 58.5026 184.203 59.1006Z" fill="black"/>
    <g style="mix-blend-mode:multiply">
        <path d="M179.196 218.707C179.164 219.359 187.349 219.885 197.474 219.885C207.599 219.885 215.843 219.359 215.875 218.707C215.907 218.055 207.728 217.536 197.597 217.536C187.467 217.536 179.234 218.061 179.196 218.707Z" fill="#E8ECF1"/>
    </g>
    <path d="M193.605 201.569L189.776 203.239L193.074 212.838L196.902 211.168L193.605 201.569Z" fill="#E58A7B"/>
    <path d="M210.676 214.063H206.64L205.16 203.536H209.196L210.676 214.063Z" fill="#E58A7B"/>
    <path d="M206.36 213.538H210.895C210.973 213.538 211.049 213.57 211.109 213.627C211.169 213.685 211.209 213.764 211.222 213.852L211.806 217.892C211.818 217.993 211.811 218.096 211.785 218.194C211.759 218.292 211.714 218.383 211.654 218.46C211.594 218.536 211.52 218.598 211.437 218.639C211.354 218.681 211.264 218.702 211.173 218.701C209.592 218.671 208.831 218.562 206.837 218.562C205.61 218.562 203.085 218.707 201.381 218.707C199.676 218.707 199.564 216.823 200.266 216.648C203.417 215.881 204.64 214.836 205.69 213.821C205.875 213.638 206.114 213.537 206.36 213.538Z" fill="#263238"/>
    <path d="M192.96 211.979L197.248 210.566C197.325 210.542 197.406 210.548 197.48 210.583C197.553 210.618 197.613 210.68 197.65 210.759L199.258 214.383C199.296 214.475 199.315 214.575 199.314 214.676C199.314 214.777 199.294 214.877 199.255 214.968C199.217 215.06 199.162 215.141 199.093 215.206C199.024 215.27 198.943 215.317 198.856 215.343C197.297 215.826 196.251 216.122 194.3 216.763C192.955 217.203 191.583 217.922 190.254 218.399C189.332 218.731 187.166 218.743 186.046 218.743C184.39 218.743 184.02 216.775 184.733 216.684C186.528 216.461 186.77 216.563 187.761 216.002C189.384 215.202 190.854 214.058 192.092 212.632C192.325 212.332 192.625 212.107 192.96 211.979Z" fill="#263238"/>
    <path d="M161.782 82.4183L157.344 80.3226L155.517 85.8667C157.336 86.1789 159.186 86.1789 161.005 85.8667L161.782 82.4183Z" fill="#E58A7B"/>
    <path d="M154.043 80.1777L153.925 83.8617L155.517 85.8547L157.344 80.3106L154.043 80.1777Z" fill="#E58A7B"/>
    <path d="M194.13 202.384L190.29 204.055L191.991 209.018L195.831 207.348L194.13 202.384Z" fill="#CF6F64"/>
    <path d="M209.196 203.536H205.16L205.927 208.966H209.963L209.196 203.536Z" fill="#CF6F64"/>
    <path opacity="0.2" d="M181.233 91.4894C181.314 92.5825 181.405 93.6997 181.523 94.8472L197.571 88.977C200.077 88.1401 202.255 86.3656 203.745 83.9463C203.81 82.3338 203.89 80.6367 204.013 78.8672C204.067 78.0097 204.131 77.1279 204.201 76.2341C204.271 75.3403 204.367 74.3498 204.469 73.3956L181.233 91.4894Z" fill="black"/>
    <path d="M186.474 71.6805L185.938 71.6081C186.255 68.5884 188.254 66.2089 190.36 66.2693V66.8732C188.517 66.831 186.759 68.9749 186.474 71.6805Z" fill="white"/>
    <path d="M189.332 77.2548H189.241V76.6509C191.085 76.7294 192.816 74.5613 193.1 71.8617L193.636 71.9342C193.352 74.8874 191.417 77.2548 189.332 77.2548Z" fill="white"/>
    <path d="M199.351 46.2007C198.595 49.5283 197.706 55.622 199.651 57.8384C199.651 57.8384 198.29 61.2144 192.807 61.2144C187.795 61.2144 190.48 57.8384 190.48 57.8384C193.814 56.9567 193.873 54.2148 193.434 51.6179L199.351 46.2007Z" fill="#E58A7B"/>
    <path d="M196.938 48.411L193.438 51.6179C193.546 52.2146 193.609 52.8208 193.625 53.4297C194.649 54.5771 196.702 51.6722 196.911 50.1866C197.017 49.6017 197.026 48.9996 196.938 48.411Z" fill="#CF6F64"/>
    <path d="M187.418 46.1584C187.662 46.634 187.99 47.0479 188.382 47.3742C188.774 47.7005 189.221 47.9322 189.696 48.0548C190.983 48.3748 191.626 47.0401 191.272 45.6994C190.956 44.4916 189.9 42.867 188.592 43.1448C188.312 43.2098 188.05 43.3495 187.827 43.5522C187.605 43.7549 187.429 44.0147 187.314 44.3098C187.199 44.6049 187.149 44.9268 187.167 45.2484C187.185 45.57 187.271 45.8821 187.418 46.1584Z" fill="#CF6F64"/>
    <path d="M189.547 35.5112C187.542 36.5439 186.835 45.5183 189.354 46.8469C191.873 48.1756 193.342 33.5484 189.547 35.5112Z" fill="#263238"/>
    <path d="M199.961 41.1941C199.479 45.6994 199.425 48.3507 197.281 50.6577C196.617 51.4233 195.777 51.9671 194.856 52.2291C193.935 52.4911 192.967 52.4611 192.06 52.1425C191.152 51.8238 190.341 51.2289 189.715 50.4233C189.089 49.6178 188.673 48.633 188.512 47.5776C187.863 43.5313 188.759 36.8458 192.768 35.0521C193.61 34.6335 194.537 34.4763 195.451 34.5969C196.366 34.7176 197.235 35.1116 197.969 35.7381C198.702 36.3647 199.274 37.201 199.624 38.1603C199.975 39.1197 200.091 40.1671 199.961 41.1941Z" fill="#E58A7B"/>
    <path d="M193.373 37.8424C196.343 36.9908 198.524 36.4111 197.742 39.1952C196.707 42.9154 195.464 46.5148 197.131 46.6779C198.149 46.7805 202.652 44.6305 202.078 42.4504C201.58 40.554 203.686 40.0346 204.061 39.0744C205.45 35.5957 201.478 36.0547 202.185 33.941C202.893 31.8272 198.969 28.4211 196.825 30.1181C193.336 32.8599 187.349 32.8177 190.495 28.3063C192.752 25.0874 188.726 25.7457 188.726 25.7457C188.726 25.7457 191.16 27.3702 187.065 29.8826C182.734 32.564 186.706 39.7689 193.373 37.8424Z" fill="#263238"/>
    <path d="M201.538 46.1584C200.951 47.1141 200.071 47.7901 199.067 48.0548C197.743 48.3748 197.233 47.0401 197.732 45.6994C198.177 44.4916 199.399 42.867 200.664 43.1448C201.929 43.4226 202.218 44.9747 201.538 46.1584Z" fill="#E58A7B"/>
    <path d="M181.919 98.4044C181.919 98.4044 178.296 134.942 178.012 148.808C177.722 163.23 190.292 208.229 190.292 208.229L196.724 205.209C196.724 205.209 189.22 164.094 190.292 149.932C191.428 134.489 196.123 98.4286 196.123 98.4286L181.919 98.4044Z" fill="#465B9B"/>
    <path opacity="0.2" d="M190.924 108.436C188.035 115.188 189.981 128.541 191.546 136.452C192.141 130.866 192.848 124.802 193.518 119.192C193.454 110.568 192.859 103.906 190.924 108.436Z" fill="black"/>
    <path d="M196.44 202.818C196.472 202.818 197.201 205.125 197.201 205.125L189.783 208.64L188.614 206.188L196.44 202.818Z" fill="#465B9B"/>
    <path d="M189.579 98.4044C189.579 98.4044 192.35 133.155 194.183 146.169C196.199 160.428 204.099 207.915 204.099 207.915H211.491C211.491 207.915 207.063 161.582 206.227 147.462C205.316 132.146 203.504 98.4044 203.504 98.4044H189.579Z" fill="#465B9B"/>
    <path d="M211.603 205.747C211.635 205.747 211.849 208.072 211.849 208.072H203.723L203.145 205.403L211.603 205.747Z" fill="#465B9B"/>
    <path opacity="0.2" d="M208.773 202.993C208.756 202.993 208.74 202.987 208.727 202.974C208.714 202.962 208.706 202.945 208.703 202.926C208.66 202.504 204.667 160.651 203.917 147.969C203.102 134.211 201.462 103.695 201.446 103.387C201.445 103.377 201.446 103.367 201.449 103.357C201.452 103.348 201.456 103.339 201.462 103.332C201.468 103.324 201.476 103.318 201.484 103.314C201.492 103.31 201.501 103.308 201.51 103.308C201.527 103.308 201.544 103.316 201.557 103.329C201.57 103.342 201.578 103.361 201.58 103.381C201.58 103.689 203.236 134.181 204.051 147.963C204.801 160.645 208.794 202.467 208.832 202.92C208.833 202.93 208.833 202.941 208.831 202.95C208.828 202.96 208.824 202.969 208.819 202.977C208.813 202.985 208.806 202.992 208.798 202.997C208.79 203.001 208.782 203.004 208.773 203.005V202.993Z" fill="black"/>
    <path d="M193.83 42.4502C193.83 42.8186 193.626 43.1145 193.412 43.1145C193.197 43.1145 193.042 42.8186 193.063 42.4502C193.085 42.0818 193.267 41.7859 193.482 41.7859C193.696 41.7859 193.851 42.0879 193.83 42.4502Z" fill="#263238"/>
    <path d="M190.152 42.4502C190.152 42.8186 189.943 43.1145 189.734 43.1145C189.525 43.1145 189.364 42.8186 189.38 42.4502C189.396 42.0818 189.589 41.7859 189.803 41.7859C190.018 41.7859 190.173 42.0879 190.152 42.4502Z" fill="#263238"/>
    <path d="M191.31 42.6376C190.863 43.7625 190.286 44.8163 189.595 45.772C190.131 46.3759 191.133 46.0981 191.133 46.0981L191.31 42.6376Z" fill="#DF5753"/>
    <path d="M191.407 47.6381C191.394 47.6381 191.382 47.6353 191.371 47.6297C191.359 47.6242 191.349 47.6161 191.34 47.6059C191.332 47.5957 191.325 47.5837 191.321 47.5705C191.317 47.5574 191.315 47.5434 191.316 47.5294C191.317 47.5 191.328 47.4723 191.347 47.4521C191.366 47.4319 191.391 47.4206 191.417 47.4207C191.827 47.4239 192.233 47.3235 192.604 47.1271C192.975 46.9306 193.302 46.643 193.561 46.2853C193.58 46.267 193.604 46.257 193.628 46.257C193.653 46.257 193.677 46.267 193.695 46.2853C193.713 46.3056 193.722 46.3326 193.722 46.3608C193.722 46.3889 193.713 46.416 193.695 46.4363C193.418 46.8164 193.068 47.1216 192.672 47.3296C192.276 47.5376 191.844 47.643 191.407 47.6381Z" fill="#263238"/>
    <path d="M194.483 41.339C194.458 41.3539 194.429 41.3616 194.4 41.3616C194.371 41.3616 194.343 41.3539 194.317 41.339C194.117 41.193 193.888 41.1021 193.651 41.0738C193.414 41.0455 193.174 41.0805 192.95 41.176C192.929 41.1882 192.905 41.1954 192.881 41.1972C192.856 41.199 192.832 41.1952 192.809 41.1862C192.786 41.1772 192.765 41.1631 192.747 41.1448C192.729 41.1264 192.714 41.1042 192.704 41.0793C192.684 41.0256 192.683 40.9652 192.702 40.9111C192.721 40.8569 192.758 40.8133 192.806 40.7894C193.086 40.6605 193.39 40.6096 193.691 40.6412C193.992 40.6727 194.283 40.7857 194.537 40.9706C194.557 40.9864 194.575 41.0065 194.589 41.03C194.602 41.0534 194.611 41.0797 194.616 41.1072C194.62 41.1348 194.62 41.163 194.615 41.1904C194.609 41.2177 194.599 41.2436 194.585 41.2665C194.558 41.3012 194.523 41.3263 194.483 41.339Z" fill="#263238"/>
    <path d="M188.732 40.1313C188.703 40.1235 188.677 40.1067 188.657 40.083C188.639 40.0633 188.625 40.0398 188.615 40.0139C188.606 39.9879 188.601 39.9601 188.601 39.932C188.601 39.9039 188.606 39.876 188.615 39.8501C188.625 39.8242 188.639 39.8007 188.657 39.781C188.862 39.5214 189.118 39.3187 189.405 39.1888C189.691 39.0589 190 39.0053 190.308 39.0321C190.332 39.0364 190.356 39.0463 190.377 39.0613C190.398 39.0763 190.416 39.096 190.43 39.1192C190.445 39.1425 190.454 39.1687 190.459 39.1963C190.464 39.2239 190.463 39.2523 190.458 39.2797C190.446 39.3356 190.417 39.3849 190.376 39.4183C190.334 39.4516 190.283 39.4668 190.233 39.4609C189.989 39.4436 189.745 39.489 189.52 39.5936C189.294 39.6983 189.092 39.8594 188.93 40.0648C188.906 40.0954 188.874 40.1178 188.839 40.1295C188.804 40.1412 188.767 40.1418 188.732 40.1313Z" fill="#263238"/>
    <path d="M208.896 64.8139L203.322 63.141C203.322 63.141 197.854 78.3057 195.919 79.2901C193.293 80.6429 186.641 85.3294 183.811 87.5458C183.656 88.3007 183.779 90.2997 184.133 90.8493C188.957 89.8588 198.192 85.8548 200.122 83.8195C204.522 79.1753 208.896 64.8139 208.896 64.8139Z" fill="#E58A7B"/>
    <path d="M205.006 214.335C204.734 214.359 204.463 214.276 204.239 214.099C204.17 214.029 204.119 213.94 204.089 213.84C204.06 213.741 204.055 213.634 204.073 213.532C204.076 213.467 204.095 213.405 204.127 213.352C204.159 213.299 204.204 213.257 204.255 213.23C204.706 212.97 205.965 213.87 206.11 213.972C206.126 213.983 206.138 214 206.145 214.02C206.152 214.039 206.153 214.061 206.147 214.081C206.143 214.102 206.134 214.122 206.12 214.137C206.107 214.153 206.091 214.165 206.072 214.172C205.723 214.268 205.365 214.323 205.006 214.335ZM204.47 213.393C204.429 213.382 204.387 213.382 204.346 213.393C204.326 213.404 204.309 213.423 204.297 213.445C204.286 213.468 204.281 213.494 204.282 213.519C204.268 213.59 204.27 213.663 204.289 213.732C204.308 213.801 204.342 213.863 204.389 213.912C204.598 214.123 205.124 214.148 205.815 213.997C205.403 213.691 204.94 213.485 204.454 213.393H204.47Z" fill="#465B9B"/>
    <path d="M206.046 214.172C206.032 214.177 206.017 214.177 206.003 214.172C205.601 213.918 204.845 212.922 204.958 212.414C204.974 212.334 205.015 212.262 205.072 212.211C205.129 212.159 205.201 212.131 205.274 212.13C205.346 212.12 205.419 212.126 205.488 212.15C205.558 212.174 205.622 212.215 205.676 212.269C206.121 212.698 206.148 214.015 206.148 214.081C206.15 214.101 206.147 214.121 206.138 214.139C206.129 214.156 206.116 214.17 206.099 214.178C206.081 214.182 206.063 214.18 206.046 214.172ZM205.327 212.33H205.29C205.167 212.33 205.151 212.408 205.145 212.438C205.081 212.734 205.558 213.489 205.955 213.846C205.953 213.335 205.812 212.838 205.553 212.42C205.49 212.359 205.41 212.327 205.327 212.33Z" fill="#465B9B"/>
    <path d="M190.774 213.58C190.446 213.709 190.089 213.709 189.761 213.58C189.687 213.534 189.624 213.468 189.578 213.388C189.532 213.308 189.505 213.216 189.499 213.121C189.492 213.061 189.499 213 189.518 212.944C189.538 212.888 189.57 212.839 189.611 212.801C190.04 212.366 191.793 212.801 191.991 212.885C192.01 212.891 192.027 212.903 192.038 212.921C192.05 212.938 192.056 212.96 192.055 212.982C192.056 213.005 192.051 213.027 192.041 213.046C192.03 213.066 192.015 213.081 191.996 213.091C191.602 213.291 191.193 213.455 190.774 213.58ZM189.901 212.861C189.839 212.875 189.782 212.906 189.734 212.952C189.717 212.966 189.704 212.986 189.697 213.008C189.689 213.031 189.687 213.055 189.692 213.079C189.695 213.142 189.713 213.203 189.743 213.257C189.773 213.311 189.814 213.355 189.863 213.387C190.147 213.556 190.806 213.423 191.659 213.018C191.085 212.855 190.49 212.802 189.901 212.861Z" fill="#465B9B"/>
    <path d="M191.981 213.091H191.938C191.402 212.982 190.33 212.287 190.298 211.768C190.298 211.647 190.346 211.478 190.603 211.381C190.69 211.347 190.783 211.332 190.875 211.338C190.967 211.344 191.057 211.371 191.139 211.418C191.718 211.738 192.024 212.897 192.04 212.952C192.044 212.97 192.043 212.989 192.038 213.007C192.034 213.025 192.025 213.041 192.013 213.054C192.005 213.069 191.994 213.082 191.981 213.091ZM190.711 211.563H190.657C190.491 211.629 190.491 211.708 190.491 211.732C190.491 212.046 191.268 212.62 191.809 212.813C191.685 212.328 191.421 211.903 191.059 211.605C190.951 211.543 190.827 211.528 190.711 211.563Z" fill="#465B9B"/>
    <path d="M184.266 87.1895L178.676 90.0883L178.027 91.9001L180.091 93.4643C180.091 93.4643 183.95 92.9932 185.049 90.197L184.266 87.1895Z" fill="#E58A7B"/>
    <path d="M184.504 90.9519C184.379 89.7416 184.024 88.5758 183.464 87.5337L184.348 86.7848C185.014 87.9856 185.438 89.3356 185.592 90.7405L184.504 90.9519Z" fill="#263238"/>
    <path d="M185.457 88.047C185.575 88.2565 185.633 88.5019 185.623 88.7498C185.613 88.9978 185.536 89.2362 185.401 89.4328C185.267 89.6293 185.082 89.7744 184.872 89.8483C184.661 89.9221 184.436 89.9212 184.226 89.8457C184.016 89.7701 183.832 89.6235 183.699 89.4259C183.566 89.2283 183.49 88.9892 183.481 88.7412C183.473 88.4932 183.532 88.2482 183.652 88.0398C183.772 87.8313 183.945 87.6693 184.149 87.576C184.378 87.4445 184.644 87.4202 184.889 87.5084C185.134 87.5966 185.338 87.7902 185.457 88.047Z" fill="#263238"/>
    <path d="M174.898 92.4314L175.643 93.2769L180.66 90.8612L178.677 90.0881L174.898 92.4314Z" fill="#E58A7B"/>
    <path opacity="0.2" d="M196.44 202.818C196.472 202.818 197.201 205.125 197.201 205.125L189.783 208.64L188.614 206.188L196.44 202.818Z" fill="black"/>
    <path opacity="0.2" d="M211.603 205.747C211.635 205.747 211.849 208.072 211.849 208.072H203.723L203.145 205.403L211.603 205.747Z" fill="black"/>
    <path d="M210.349 63.0745C211.823 68.4314 206.061 75.7571 206.061 75.7571L198.102 72.0973C199.045 69.001 200.133 65.9631 201.36 62.996C203.805 57.0594 208.859 57.6694 210.349 63.0745Z" fill="#465B9B"/>
    <path opacity="0.2" d="M210.349 63.0745C211.823 68.4314 206.061 75.7571 206.061 75.7571L198.102 72.0973C199.045 69.001 200.133 65.9631 201.36 62.996C203.805 57.0594 208.859 57.6694 210.349 63.0745Z" fill="black"/>
    <path d="M131.256 9.4032H127.831V10.0252H131.256V9.4032Z" fill="#465B9B"/>
    <path d="M175.594 34.0233L175.18 44.3883L175.731 44.4163L176.146 34.0513L175.594 34.0233Z" fill="#465B9B"/>
    <path d="M174.528 12.1934H111.28L105.395 160.591H168.643L174.528 12.1934Z" fill="#465B9B"/>
    <path opacity="0.56" d="M172.641 14.2347H109.393L103.508 162.632H166.756L172.641 14.2347Z" fill="#FAFAFA"/>
    <path opacity="0.07" d="M170.755 16.2699H107.507L101.616 164.668H164.864L170.755 16.2699Z" fill="#465B9B"/>
    <path d="M163.556 80.993H109.57L109.12 92.3469H163.106L163.556 80.993Z" fill="white"/>
    <path d="M139.259 72.7072H109.897L109.698 77.7862H139.06L139.259 72.7072Z" fill="#465B9B"/>
    <path d="M162.339 111.636H108.353L107.902 122.99H161.888L162.339 111.636Z" fill="white"/>
    <path opacity="0.47" d="M152.439 138.324H116.136L115.595 151.931H151.898L152.439 138.324Z" fill="#465B9B"/>
    <path d="M150.012 154.044H113.708C113.693 154.049 113.676 154.049 113.66 154.044C113.655 154.027 113.655 154.008 113.66 153.99L114.196 140.378C114.196 140.368 114.198 140.359 114.201 140.351C114.204 140.342 114.209 140.335 114.215 140.328C114.221 140.322 114.229 140.317 114.236 140.314C114.244 140.311 114.252 140.31 114.261 140.311H150.564C150.57 140.307 150.578 140.305 150.585 140.305C150.593 140.305 150.6 140.307 150.607 140.311C150.61 140.318 150.612 140.327 150.612 140.335C150.612 140.344 150.61 140.352 150.607 140.359L150.081 154.002C150.075 154.016 150.065 154.028 150.052 154.036C150.04 154.043 150.026 154.046 150.012 154.044ZM113.773 153.899H149.947L150.483 140.432H114.309L113.773 153.899Z" fill="white"/>
    <path d="M132.918 103.351H108.68L108.481 108.436H132.714L132.918 103.351Z" fill="#465B9B"/>
    <path d="M151.748 44.3165C151.609 47.6208 150.566 50.7958 148.762 53.4056C147.427 55.3769 145.708 56.9773 143.738 58.0838C141.769 59.1904 139.6 59.7738 137.399 59.7891C135.62 59.8044 133.858 59.4092 132.22 58.628C130.582 57.8467 129.103 56.6958 127.875 55.2463C126.647 53.7967 125.695 52.0792 125.078 50.1995C124.461 48.3197 124.193 46.3176 124.288 44.3165C124.477 40.1638 126.066 36.2492 128.731 33.3732C131.397 30.4971 134.936 28.8768 138.626 28.8438C140.406 28.8251 142.171 29.2178 143.811 29.9978C145.451 30.7777 146.931 31.9283 148.161 33.3784C149.391 34.8285 150.344 36.5473 150.96 38.4286C151.577 40.3099 151.845 42.3138 151.748 44.3165Z" fill="white"/>
    <path d="M153.039 32.0808C153.004 32.9594 152.726 33.8038 152.245 34.4965C151.889 35.0201 151.432 35.4451 150.908 35.7392C150.384 36.0333 149.808 36.1887 149.222 36.1935C148.655 36.1974 148.096 36.0448 147.593 35.7489C147.09 35.4531 146.66 35.0231 146.339 34.4965C145.913 33.7848 145.703 32.9378 145.738 32.0808C145.79 30.9782 146.213 29.9395 146.921 29.1764C147.629 28.4133 148.569 27.9833 149.549 27.974C150.022 27.9692 150.49 28.0734 150.926 28.2804C151.362 28.4873 151.755 28.7926 152.082 29.1773C152.409 29.5621 152.662 30.0182 152.827 30.5175C152.991 31.0168 153.063 31.5489 153.039 32.0808Z" fill="#465B9B"/>
    <path d="M115.386 86.67C115.36 87.1567 115.171 87.6142 114.858 87.9504C114.545 88.2867 114.13 88.4765 113.697 88.4818C113.488 88.4846 113.281 88.4391 113.088 88.3481C112.896 88.2571 112.722 88.1225 112.577 87.9527C112.432 87.7829 112.32 87.5814 112.247 87.3608C112.174 87.1402 112.142 86.9051 112.153 86.67C112.177 86.1823 112.364 85.7231 112.678 85.3863C112.992 85.0495 113.408 84.8606 113.842 84.8582C114.051 84.8563 114.257 84.9024 114.45 84.9937C114.642 85.085 114.816 85.2196 114.96 85.3892C115.105 85.5589 115.217 85.7599 115.29 85.9802C115.363 86.2004 115.396 86.4351 115.386 86.67Z" fill="#263238"/>
    <path d="M122.612 86.6701C122.587 87.1572 122.399 87.6156 122.085 87.9521C121.772 88.2886 121.356 88.478 120.923 88.4819C120.715 88.4838 120.508 88.4377 120.316 88.3463C120.124 88.255 119.951 88.1203 119.807 87.9505C119.662 87.7808 119.551 87.5797 119.478 87.3594C119.406 87.1392 119.374 86.9046 119.385 86.6701C119.408 86.1834 119.595 85.7251 119.908 85.3884C120.221 85.0518 120.635 84.8622 121.068 84.8583C121.277 84.8555 121.484 84.901 121.677 84.992C121.869 85.083 122.043 85.2176 122.188 85.3874C122.333 85.5572 122.445 85.7586 122.518 85.9793C122.591 86.1999 122.623 86.435 122.612 86.6701Z" fill="#263238"/>
    <path d="M129.84 86.6701C129.816 87.1572 129.628 87.6156 129.314 87.9521C129.001 88.2886 128.585 88.478 128.152 88.4819C127.943 88.4838 127.736 88.4377 127.544 88.3464C127.352 88.2551 127.178 88.1205 127.034 87.9508C126.889 87.7812 126.777 87.5801 126.704 87.3599C126.631 87.1397 126.598 86.9049 126.608 86.6701C126.633 86.1829 126.821 85.7245 127.135 85.388C127.448 85.0515 127.864 84.8621 128.297 84.8583C128.506 84.8555 128.713 84.901 128.905 84.992C129.098 85.083 129.272 85.2176 129.417 85.3874C129.562 85.5572 129.674 85.7586 129.747 85.9793C129.819 86.1999 129.851 86.435 129.84 86.6701Z" fill="#263238"/>
    <path d="M114.168 117.313C114.143 117.8 113.954 118.258 113.641 118.594C113.328 118.93 112.913 119.12 112.48 119.125C112.271 119.127 112.065 119.081 111.872 118.99C111.68 118.898 111.506 118.764 111.362 118.594C111.217 118.425 111.105 118.223 111.032 118.003C110.959 117.783 110.926 117.548 110.936 117.313C110.961 116.826 111.149 116.368 111.463 116.031C111.776 115.695 112.192 115.505 112.625 115.502C112.833 115.5 113.04 115.546 113.233 115.637C113.425 115.728 113.599 115.863 113.743 116.033C113.888 116.202 114 116.403 114.073 116.624C114.146 116.844 114.179 117.079 114.168 117.313Z" fill="#263238"/>
    <path d="M121.394 117.313C121.369 117.8 121.182 118.257 120.87 118.593C120.557 118.93 120.143 119.12 119.711 119.125C119.502 119.128 119.295 119.083 119.102 118.992C118.909 118.901 118.735 118.766 118.591 118.596C118.446 118.426 118.334 118.225 118.261 118.004C118.188 117.784 118.156 117.549 118.167 117.313C118.192 116.826 118.38 116.368 118.693 116.031C119.007 115.695 119.423 115.505 119.856 115.502C120.064 115.5 120.271 115.546 120.463 115.637C120.655 115.729 120.828 115.863 120.972 116.033C121.116 116.203 121.228 116.404 121.301 116.624C121.373 116.844 121.405 117.079 121.394 117.313Z" fill="#263238"/>
    <path d="M128.641 117.313C128.616 117.801 128.428 118.259 128.115 118.596C127.801 118.932 127.386 119.121 126.952 119.125C126.744 119.126 126.538 119.08 126.346 118.988C126.154 118.896 125.98 118.762 125.836 118.592C125.691 118.423 125.579 118.222 125.506 118.002C125.432 117.783 125.399 117.548 125.409 117.313C125.435 116.827 125.623 116.369 125.936 116.033C126.25 115.697 126.665 115.507 127.097 115.502C127.306 115.499 127.513 115.544 127.706 115.635C127.899 115.726 128.073 115.861 128.217 116.031C128.362 116.201 128.474 116.402 128.547 116.623C128.62 116.843 128.652 117.078 128.641 117.313Z" fill="#263238"/>
    <path d="M135.855 117.313C135.829 117.8 135.64 118.258 135.327 118.594C135.014 118.93 134.599 119.12 134.166 119.125C133.958 119.126 133.751 119.08 133.559 118.988C133.367 118.896 133.194 118.762 133.05 118.592C132.905 118.423 132.793 118.222 132.72 118.002C132.646 117.782 132.613 117.548 132.623 117.313C132.648 116.827 132.837 116.369 133.15 116.033C133.464 115.697 133.878 115.507 134.311 115.502C134.52 115.5 134.727 115.546 134.919 115.637C135.111 115.728 135.285 115.863 135.429 116.033C135.574 116.202 135.686 116.403 135.759 116.624C135.833 116.844 135.865 117.079 135.855 117.313Z" fill="#263238"/>
    <path d="M143.113 117.313C143.087 117.8 142.899 118.258 142.586 118.594C142.272 118.93 141.857 119.12 141.425 119.125C141.216 119.128 141.009 119.083 140.816 118.992C140.623 118.901 140.449 118.766 140.305 118.596C140.16 118.426 140.048 118.225 139.975 118.004C139.902 117.784 139.87 117.549 139.881 117.313C139.906 116.826 140.094 116.368 140.407 116.031C140.721 115.695 141.136 115.505 141.569 115.502C141.778 115.5 141.985 115.546 142.177 115.637C142.37 115.728 142.543 115.863 142.688 116.033C142.832 116.202 142.945 116.403 143.018 116.624C143.091 116.844 143.123 117.079 143.113 117.313Z" fill="#263238"/>
    <path d="M142.017 43.5106C144.26 41.0387 144.379 37.0765 142.283 34.6608C140.186 32.2451 136.668 32.2907 134.424 34.7626C132.181 37.2345 132.062 41.1967 134.159 43.6124C136.255 46.0281 139.773 45.9825 142.017 43.5106Z" fill="#465B9B"/>
    <path d="M148.763 53.4055C147.427 55.3768 145.709 56.9772 143.739 58.0838C141.769 59.1903 139.6 59.7737 137.399 59.7891C135.265 59.8095 133.159 59.2378 131.267 58.1246C129.375 57.0114 127.756 55.3907 126.551 53.4055C129.156 50.4825 133.278 48.5741 137.844 48.5741C142.411 48.5741 146.388 50.4825 148.763 53.4055Z" fill="#465B9B"/>
    <path opacity="0.1" d="M142.017 43.5106C144.26 41.0387 144.379 37.0765 142.283 34.6608C140.186 32.2451 136.668 32.2907 134.424 34.7626C132.181 37.2345 132.062 41.1967 134.159 43.6124C136.255 46.0281 139.773 45.9825 142.017 43.5106Z" fill="white"/>
    <path opacity="0.1" d="M148.763 53.4055C147.427 55.3768 145.709 56.9772 143.739 58.0838C141.769 59.1903 139.6 59.7737 137.399 59.7891C135.265 59.8095 133.159 59.2378 131.267 58.1246C129.375 57.0114 127.756 55.3907 126.551 53.4055C129.156 50.4825 133.278 48.5741 137.844 48.5741C142.411 48.5741 146.388 50.4825 148.763 53.4055Z" fill="white"/>
    <path d="M69.9009 95.0827C69.3917 96.3388 68.8557 97.7218 68.3894 99.0626C67.923 100.403 67.446 101.786 67.0333 103.163C66.1906 105.877 65.5488 108.664 65.1144 111.497L64.9965 112.385C64.9852 112.538 64.9979 112.691 65.034 112.838C65.1605 113.339 65.3597 113.812 65.6236 114.239C66.3119 115.345 67.1104 116.358 68.0034 117.259C68.945 118.246 69.9326 119.175 70.9622 120.043C71.9913 120.937 73.074 121.807 74.1407 122.628L73.1383 124.748C70.5914 123.497 68.1738 121.936 65.9291 120.091C64.7316 119.107 63.6508 117.955 62.7131 116.661C62.1573 115.891 61.7239 115.019 61.4321 114.082C61.2624 113.497 61.1756 112.886 61.1748 112.27C61.1748 112.126 61.1748 111.914 61.1748 111.812V111.516L61.2284 110.912C61.5357 107.765 62.1229 104.661 62.9811 101.647C63.3992 100.162 63.8441 98.6821 64.3533 97.2387C64.8625 95.7953 65.3878 94.3821 66.0363 92.9146L69.9009 95.0827Z" fill="#E58A7B"/>
    <path d="M73.3847 122.254L77.1742 120.092L76.1933 124.778C76.1933 124.778 73.5937 125.599 72.3877 124.174L73.3847 122.254Z" fill="#E58A7B"/>
    <path d="M80.6431 120.859L79.6355 124.736L76.1943 124.778L77.1752 120.092L80.6431 120.859Z" fill="#E58A7B"/>
    <path d="M85.9912 72.4716C86.1939 73.3085 86.476 74.1184 86.8327 74.8873C86.7285 75.0204 86.5943 75.1194 86.4443 75.1736C86.2942 75.2278 86.134 75.2353 85.9805 75.1953L85.9912 72.4716Z" fill="#DF5753"/>
    <path d="M85.8795 72.5079C86.1016 72.5079 86.2815 72.197 86.2815 71.8134C86.2815 71.4298 86.1016 71.1189 85.8795 71.1189C85.6575 71.1189 85.4775 71.4298 85.4775 71.8134C85.4775 72.197 85.6575 72.5079 85.8795 72.5079Z" fill="#263238"/>
    <path d="M85.7617 71.143L86.5764 70.8833C86.5764 70.8833 86.1798 71.5959 85.7617 71.143Z" fill="#263238"/>
    <path d="M75.5228 76.9044C76.0106 79.7127 76.4983 84.8642 74.751 86.7424C74.751 86.7424 75.4371 89.593 80.0735 89.593C85.1708 89.593 82.5069 86.7424 82.5069 86.7424C79.725 85.9936 79.7947 83.6684 80.2825 81.4822L75.5228 76.9044Z" fill="#E58A7B"/>
    <path d="M74.1668 70.5028C74.4241 75.1953 74.4455 77.1883 76.5466 79.598C79.7144 83.2215 84.7742 81.8446 85.7658 77.1822C86.661 72.9547 86.0928 65.9975 82.0138 64.1313C81.1185 63.7157 80.1438 63.5644 79.1821 63.6916C78.2203 63.8187 77.3033 64.2203 76.5177 64.8581C75.7321 65.496 75.1039 66.3492 74.6925 67.3369C74.2811 68.3246 74.1002 69.4143 74.1668 70.5028Z" fill="#E58A7B"/>
    <path d="M74.5807 65.2244C72.4903 66.082 69.7031 65.4418 70.7966 72.7071C71.9543 80.4011 70.1748 82.9316 70.1748 82.9316C70.1748 82.9316 78.1022 84.834 86.1958 82.8169C86.1958 82.8169 83.7249 77.9492 84.4163 74.3619C85.3007 69.8324 84.6039 68.1595 84.6039 68.1595C84.6039 68.1595 77.518 64.0165 74.5807 65.2244Z" fill="#263238"/>
    <path d="M83.4248 72.9488C83.427 73.841 83.6537 74.7143 84.0787 75.4672C84.6469 76.4455 85.3169 76.0711 85.483 75.0323C85.6331 74.1204 85.5206 72.5079 84.797 71.8798C84.0734 71.2517 83.4355 71.8677 83.4248 72.9488Z" fill="#E58A7B"/>
    <path d="M72.7628 66.0156C72.1625 64.1132 75.0247 61.1842 81.0815 62.392C87.1383 63.5999 87.401 69.2829 87.401 69.2829L86.1789 67.6402L86.2325 69.3674L80.0095 70.7142L72.7628 66.0156Z" fill="#263238"/>
    <path d="M73.2785 87.0627C73.2428 86.787 73.304 86.5064 73.4492 86.2808C73.5944 86.0551 73.812 85.9023 74.0557 85.8549C75.9424 85.5046 80.2304 84.7919 82.3852 85.1301C83.9932 85.3838 84.4112 86.4346 84.4809 87.2982C84.4918 87.4495 84.4739 87.6016 84.4283 87.7443C84.3827 87.8871 84.3105 88.0172 84.2165 88.1259C84.1226 88.2346 84.0091 88.3194 83.8837 88.3745C83.7582 88.4297 83.6238 88.454 83.4893 88.4457L74.1736 87.9746C73.954 87.9622 73.745 87.8646 73.5819 87.6984C73.4188 87.5322 73.3116 87.3077 73.2785 87.0627Z" fill="#465B9B"/>
    <path opacity="0.6" d="M73.2785 87.0627C73.2428 86.787 73.304 86.5064 73.4492 86.2808C73.5944 86.0551 73.812 85.9023 74.0557 85.8549C75.9424 85.5046 80.2304 84.7919 82.3852 85.1301C83.9932 85.3838 84.4112 86.4346 84.4809 87.2982C84.4918 87.4495 84.4739 87.6016 84.4283 87.7443C84.3827 87.8871 84.3105 88.0172 84.2165 88.1259C84.1226 88.2346 84.0091 88.3194 83.8837 88.3745C83.7582 88.4297 83.6238 88.454 83.4893 88.4457L74.1736 87.9746C73.954 87.9622 73.745 87.8646 73.5819 87.6984C73.4188 87.5322 73.3116 87.3077 73.2785 87.0627Z" fill="black"/>
    <path d="M78.6641 192.569L82.1213 195.275L87.9047 186.439L84.4475 183.74L78.6641 192.569Z" fill="#E58A7B"/>
    <path d="M70.6045 192.394L74.2547 194.737L79.3735 185.394L75.7233 183.051L70.6045 192.394Z" fill="#E58A7B"/>
    <path d="M87.8993 186.439L84.9191 190.993L81.4619 188.293L84.4421 183.74L87.8993 186.439Z" fill="#CF6F64"/>
    <path d="M75.7162 183.051L79.3717 185.4L76.7346 190.214L73.0791 187.864L75.7162 183.051Z" fill="#CF6F64"/>
    <path d="M81.5814 116.559C81.5814 116.559 95.0779 135.721 92.5426 154.051C90.5005 168.853 78.6549 188.897 78.6549 188.897L73.0858 185.781C77.0112 176.918 80.3611 167.747 83.109 158.338C83.9564 155.417 84.2038 152.318 83.8324 149.273C83.4609 146.229 82.4805 143.319 80.965 140.764C74.1257 129.513 63.1698 136.21 70.5398 116.559H81.5814Z" fill="#465B9B"/>
    <path opacity="0.6" d="M81.5814 116.559C81.5814 116.559 95.0779 135.721 92.5426 154.051C90.5005 168.853 78.6549 188.897 78.6549 188.897L73.0858 185.781C77.0112 176.918 80.3611 167.747 83.109 158.338C83.9564 155.417 84.2038 152.318 83.8324 149.273C83.4609 146.229 82.4805 143.319 80.965 140.764C74.1257 129.513 63.1698 136.21 70.5398 116.559H81.5814Z" fill="black"/>
    <path opacity="0.4" d="M88.2 128.867L86.2383 126.668C86.2383 126.843 90.0385 153.277 91.1052 160.706C91.7346 158.536 92.2166 156.315 92.547 154.062C93.8012 145.07 91.1802 135.884 88.2 128.867Z" fill="black"/>
    <path d="M87.605 116.559C87.605 116.559 103.857 140.643 104.318 155.083C104.698 167.162 86.6295 190.564 86.6295 190.564L81.3767 186.735C81.3767 186.735 91.952 170.115 94.6159 156.539C93.5868 143.083 71.8252 116.559 71.8252 116.559H87.605Z" fill="#465B9B"/>
    <path opacity="0.6" d="M87.605 116.559C87.605 116.559 103.857 140.643 104.318 155.083C104.698 167.162 86.6295 190.564 86.6295 190.564L81.3767 186.735C81.3767 186.735 91.952 170.115 94.6159 156.539C93.5868 143.083 71.8252 116.559 71.8252 116.559H87.605Z" fill="black"/>
    <path d="M67.5003 87.8176C65.7636 88.2826 64.0967 95.3969 64.0967 95.3969L70.8878 100.506C70.8878 100.506 73.1497 94.8775 72.3564 92.4135C71.5364 89.8468 69.6818 87.2318 67.5003 87.8176Z" fill="#465B9B"/>
    <path opacity="0.2" d="M68.8281 92.4012L68.3564 98.6036L70.881 100.512C71.5781 98.7438 72.0942 96.8919 72.4193 94.9921L68.8281 92.4012Z" fill="black"/>
    <path d="M89.6154 87.9563C89.6154 87.9563 91.62 88.7474 87.6054 116.552H70.5284C70.8178 108.701 70.8232 103.87 67.5 87.8174C69.8911 87.2622 72.3149 86.9029 74.7521 86.7424C77.3341 86.5338 79.926 86.5338 82.508 86.7424C85.8419 87.0866 89.6154 87.9563 89.6154 87.9563Z" fill="#465B9B"/>
    <path d="M91.3519 92.4013C91.7379 93.6091 92.1452 94.9076 92.574 96.1577C93.0028 97.4078 93.4102 98.6942 93.8443 99.9625L95.1575 103.755L95.4899 104.703L95.6614 105.174L95.7418 105.41C95.7418 105.452 95.7418 105.452 95.7418 105.446C95.6438 105.291 95.5155 105.162 95.3666 105.072C95.1545 104.931 94.9155 104.85 94.6698 104.836C94.4656 104.829 94.2625 104.872 94.0748 104.963C93.8283 105.09 93.8283 105.144 93.8336 105.138C93.8782 105.098 93.9178 105.051 93.9515 104.999C94.2482 104.56 94.505 104.089 94.718 103.592C94.9699 103.036 95.2111 102.445 95.4523 101.847C95.924 100.639 96.3582 99.3887 96.7923 98.1265C97.2265 96.8643 97.6392 95.59 98.0412 94.3036L99.2633 90.4506L101.327 91.0545C100.92 93.8084 100.394 96.4899 99.7618 99.2196C99.4563 100.578 99.0971 101.925 98.6898 103.284C98.4861 103.967 98.261 104.643 98.0037 105.337C97.7355 106.091 97.4054 106.815 97.0175 107.499C96.8749 107.73 96.7172 107.948 96.5458 108.152C96.2721 108.485 95.9399 108.75 95.5703 108.931C95.2423 109.089 94.8871 109.164 94.5304 109.148C94.1309 109.131 93.7417 109.001 93.3995 108.768C92.9957 108.484 92.6605 108.092 92.4239 107.626C92.3435 107.469 92.2739 107.312 92.2256 107.198L92.1238 106.968L91.9201 106.497L91.5127 105.561C90.9767 104.305 90.4407 103.036 89.9744 101.762C89.5081 100.488 89.015 99.1955 88.554 97.897C88.0931 96.5986 87.6803 95.3001 87.2891 93.899L91.3519 92.4013Z" fill="#E58A7B"/>
    <path d="M89.6146 87.9563C91.6674 88.5059 93.9776 95.3424 93.9776 95.3424L87.8726 101.194C87.8726 101.194 83.9222 93.742 84.7209 91.284C85.5517 88.7233 86.9346 87.2377 89.6146 87.9563Z" fill="#465B9B"/>
    <path d="M100.233 88.2886L102.377 86.2715L103.867 88.8865L102.769 91.0667C102.769 91.0667 101.021 92.8785 99.4775 91.9545C99.2325 91.3339 99.1738 90.6404 99.3102 89.9788C99.4465 89.3173 99.7706 88.7239 100.233 88.2886Z" fill="#E58A7B"/>
    <path d="M106.246 86.2775L106.086 86.9358L102.693 87.576L102.36 86.2715L106.246 86.2775Z" fill="#E58A7B"/>
    <path d="M87.0479 190.872L80.9268 186.415L82.0256 184.265L88.9024 189.03L87.0479 190.872Z" fill="#465B9B"/>
    <path d="M76.6495 194.423C76.1125 194.349 75.5964 194.143 75.138 193.819C75.1191 193.812 75.1027 193.798 75.0911 193.78C75.0795 193.761 75.0732 193.739 75.0732 193.717C75.0732 193.694 75.0795 193.672 75.0911 193.654C75.1027 193.635 75.1191 193.621 75.138 193.614C75.3042 193.554 76.746 193.052 77.1641 193.439C77.2111 193.483 77.2468 193.54 77.2675 193.605C77.2883 193.67 77.2933 193.74 77.282 193.807C77.2746 193.916 77.2426 194.021 77.1891 194.112C77.1357 194.202 77.0625 194.276 76.9765 194.327C76.8761 194.388 76.7639 194.421 76.6495 194.423ZM75.4435 193.759C76.1135 194.145 76.6495 194.284 76.9068 194.139C76.9628 194.104 77.01 194.054 77.0438 193.993C77.0775 193.931 77.0968 193.861 77.0998 193.789C77.0998 193.692 77.0998 193.65 77.0515 193.626C76.8264 193.421 76.0224 193.578 75.4328 193.759H75.4435Z" fill="#263238"/>
    <path d="M75.1761 193.862C75.1478 193.861 75.1208 193.848 75.101 193.825C75.093 193.809 75.0889 193.79 75.0889 193.771C75.0889 193.752 75.093 193.733 75.101 193.717C75.101 193.662 75.4494 192.352 75.9961 192.056C76.066 192.02 76.1418 192.001 76.2186 192.001C76.2953 192.001 76.3712 192.02 76.441 192.056C76.5163 192.083 76.5815 192.137 76.6261 192.21C76.6708 192.284 76.6924 192.372 76.6876 192.46C76.6501 193.004 75.6692 193.753 75.2189 193.88L75.1761 193.862ZM76.2159 192.213C76.1638 192.215 76.1126 192.229 76.0658 192.255C75.7335 192.436 75.4601 193.143 75.3261 193.572C75.7978 193.348 76.4464 192.756 76.4678 192.424C76.4678 192.37 76.4678 192.303 76.3445 192.243C76.3044 192.219 76.2609 192.202 76.2159 192.195V192.213Z" fill="#263238"/>
    <path d="M84.2974 197.032C83.6917 197.032 82.8502 196.157 82.3892 195.619C82.3774 195.601 82.3711 195.578 82.3711 195.556C82.3711 195.533 82.3774 195.511 82.3892 195.492C82.3998 195.473 82.4148 195.457 82.4328 195.446C82.4507 195.436 82.4708 195.431 82.491 195.432C82.7054 195.432 84.5654 195.746 84.828 196.338C84.8558 196.391 84.8705 196.451 84.8705 196.513C84.8705 196.574 84.8558 196.635 84.828 196.688C84.7886 196.78 84.7291 196.86 84.655 196.919C84.581 196.978 84.4948 197.015 84.4046 197.026L84.2974 197.032ZM82.743 195.704C83.4183 196.44 84.0133 196.851 84.351 196.803C84.4101 196.794 84.4664 196.769 84.515 196.73C84.5636 196.691 84.603 196.639 84.6297 196.579C84.6417 196.559 84.6481 196.535 84.6481 196.51C84.6481 196.485 84.6417 196.461 84.6297 196.44C84.4903 196.114 83.4987 195.836 82.743 195.704Z" fill="#263238"/>
    <path d="M82.8028 195.673C82.6825 195.677 82.5621 195.667 82.4437 195.643C82.4271 195.64 82.4115 195.633 82.3983 195.621C82.3852 195.609 82.3749 195.594 82.3686 195.577C82.3606 195.559 82.3564 195.539 82.3564 195.519C82.3564 195.499 82.3606 195.48 82.3686 195.462C82.4008 195.42 83.1244 194.435 83.8105 194.369C84.0047 194.352 84.1971 194.421 84.3465 194.562C84.5555 194.767 84.5448 194.949 84.4912 195.063C84.3572 195.474 83.4299 195.673 82.8028 195.673ZM82.6634 195.45C83.2637 195.486 84.2232 195.263 84.3465 194.967C84.3465 194.967 84.3893 194.87 84.25 194.737C84.1945 194.683 84.1297 194.642 84.0597 194.617C83.9896 194.592 83.9157 194.584 83.8426 194.592C83.3805 194.738 82.9689 195.039 82.6634 195.456V195.45Z" fill="#263238"/>
    <path d="M75.3203 193.209L70.775 191.76C70.6967 191.733 70.6123 191.74 70.5381 191.779C70.4639 191.818 70.4051 191.886 70.373 191.971L68.84 195.854C68.804 195.954 68.7871 196.061 68.7904 196.168C68.7937 196.275 68.8172 196.381 68.8592 196.477C68.9012 196.574 68.9609 196.659 69.0343 196.727C69.1076 196.796 69.1931 196.846 69.2849 196.875C70.8929 197.346 71.6648 197.479 73.664 198.125C74.8968 198.512 76.6549 199.23 78.354 199.774C80.0532 200.317 80.6213 198.451 79.962 198.053C76.9819 196.277 76.746 195.033 75.9313 193.704C75.7854 193.464 75.5692 193.289 75.3203 193.209Z" fill="#465B9B"/>
    <path d="M82.5124 194.912L78.6317 191.893C78.5659 191.839 78.4848 191.814 78.4038 191.823C78.3228 191.832 78.2475 191.874 78.1922 191.941L75.6194 195.057C75.5567 195.138 75.51 195.232 75.4822 195.335C75.4545 195.437 75.4465 195.545 75.4586 195.652C75.4708 195.758 75.5029 195.86 75.5528 195.951C75.6027 196.042 75.6693 196.121 75.7481 196.181C77.1149 197.213 77.8224 197.63 79.5322 198.965C80.6042 199.786 82.6785 201.61 84.1257 202.745C85.5729 203.881 86.6503 202.323 86.1357 201.707C83.8309 198.935 83.3271 197.195 82.9465 195.619C82.8805 195.333 82.7267 195.083 82.5124 194.912Z" fill="#465B9B"/>
    <path d="M79.3669 189.296L72.3721 185.376L73.0957 183.238L80.5675 187.369L79.3669 189.296Z" fill="#465B9B"/>
    <path d="M70.2712 115.423L69.6816 117.162C69.6227 117.295 69.762 117.434 69.9603 117.434H87.6912C87.8467 117.434 87.9753 117.35 87.986 117.241L88.1361 115.514C88.1361 115.399 88.0128 115.296 87.8467 115.296H70.5499C70.4979 115.291 70.4454 115.299 70.3969 115.321C70.3484 115.344 70.3053 115.378 70.2712 115.423Z" fill="#465B9B"/>
    <path opacity="0.4" d="M70.2712 115.423L69.6816 117.162C69.6227 117.295 69.762 117.434 69.9603 117.434H87.6912C87.8467 117.434 87.9753 117.35 87.986 117.241L88.1361 115.514C88.1361 115.399 88.0128 115.296 87.8467 115.296H70.5499C70.4979 115.291 70.4454 115.299 70.3969 115.321C70.3484 115.344 70.3053 115.378 70.2712 115.423Z" fill="white"/>
    <path d="M73.0635 117.603H72.5971C72.506 117.603 72.4363 117.549 72.4417 117.483L72.6615 115.242C72.6615 115.182 72.7472 115.127 72.8383 115.127H73.3047C73.3958 115.127 73.4655 115.182 73.4601 115.242L73.2403 117.483C73.235 117.549 73.1546 117.603 73.0635 117.603Z" fill="#465B9B"/>
    <path d="M83.9985 117.603H83.5376C83.4465 117.603 83.3768 117.549 83.3821 117.483L83.5965 115.242C83.5965 115.182 83.6876 115.127 83.7788 115.127H84.2397C84.3308 115.127 84.4059 115.182 84.3952 115.242L84.1808 117.483C84.154 117.549 84.095 117.603 83.9985 117.603Z" fill="#465B9B"/>
    <g style="mix-blend-mode:multiply">
        <path d="M72.6563 219.879C80.5868 219.879 87.0158 219.354 87.0158 218.707C87.0158 218.06 80.5868 217.536 72.6563 217.536C64.7258 217.536 58.2969 218.06 58.2969 218.707C58.2969 219.354 64.7258 219.879 72.6563 219.879Z" fill="#F5F5F5"/>
    </g>
    <path d="M81.4047 217.052C78.8641 216.219 76.0447 215.15 74.3403 214.033C74.292 213.997 74.2384 213.978 74.1902 213.948V200.988H79.3304C79.7206 200.962 80.0872 200.769 80.3553 200.448C80.6234 200.128 80.7728 199.704 80.7728 199.264C80.7728 198.823 80.6234 198.399 80.3553 198.079C80.0872 197.758 79.7206 197.565 79.3304 197.539H74.217V138.463H71.1296V197.539H66.0215C65.813 197.526 65.6041 197.56 65.4077 197.64C65.2113 197.721 65.0315 197.845 64.8795 198.007C64.7274 198.168 64.6063 198.363 64.5235 198.579C64.4407 198.795 64.398 199.028 64.398 199.264C64.398 199.499 64.4407 199.732 64.5235 199.948C64.6063 200.164 64.7274 200.359 64.8795 200.521C65.0315 200.682 65.2113 200.807 65.4077 200.887C65.6041 200.968 65.813 201.002 66.0215 200.988H71.1296V213.93C71.0814 213.93 71.0331 213.978 70.9849 214.015C69.2536 215.15 66.4557 216.219 63.9151 217.034C63.7434 217.093 63.5961 217.219 63.4996 217.389C63.4032 217.559 63.3641 217.763 63.3893 217.963C63.4146 218.163 63.5026 218.346 63.6374 218.479C63.7721 218.612 63.9448 218.687 64.1241 218.689H81.1957C81.367 218.676 81.5292 218.597 81.6551 218.465C81.7809 218.334 81.863 218.157 81.8874 217.966C81.9119 217.774 81.8773 217.579 81.7895 217.413C81.7016 217.247 81.5658 217.119 81.4047 217.052Z" fill="#E0E0E0"/>
    <path d="M82.1911 132.448H63.131C61.5976 132.448 60.3545 133.849 60.3545 135.576V141.96C60.3545 143.688 61.5976 145.088 63.131 145.088H82.1911C83.7245 145.088 84.9676 143.688 84.9676 141.96V135.576C84.9676 133.849 83.7245 132.448 82.1911 132.448Z" fill="#465B9B"/>
    <path d="M62.9541 145.094V146.193C62.9541 147.099 63.8278 147.836 64.8998 147.836H80.4438C81.5158 147.836 82.3895 147.099 82.3895 146.193V145.094H62.9541Z" fill="#465B9B"/>
    <path opacity="0.3" d="M62.9541 145.094V146.193C62.9541 147.099 63.8278 147.836 64.8998 147.836H80.4438C81.5158 147.836 82.3895 147.099 82.3895 146.193V145.094H62.9541Z" fill="white"/>
</svg>
