<svg width="186" height="134" viewBox="0 0 186 134" fill="none" xmlns="http://www.w3.org/2000/svg">
    <path d="M174.067 0.355225H58.202C55.4301 0.355225 53.1831 2.07687 53.1831 4.20062V50.8282C53.1831 52.952 55.4301 54.6736 58.202 54.6736H174.067C176.839 54.6736 179.086 52.952 179.086 50.8282V4.20062C179.086 2.07687 176.839 0.355225 174.067 0.355225Z" fill="#F5F5F5"/>
    <path d="M174.067 55.0286H58.2113C56.7585 55.0295 55.3645 54.589 54.335 53.8035C53.3055 53.0181 52.7246 51.9519 52.7197 50.8388V4.20049C52.721 3.08674 53.2989 2.01888 54.3268 1.23135C55.3547 0.443813 56.7484 0.000964258 58.202 2.39929e-05H174.058C174.78 -0.00184395 175.495 0.105375 176.163 0.315545C176.831 0.525714 177.438 0.834708 177.95 1.22485C178.462 1.61499 178.868 2.07862 179.146 2.58922C179.423 3.09981 179.567 3.64734 179.568 4.20049V50.8388C179.562 51.9528 178.979 53.0196 177.948 53.805C176.917 54.5904 175.521 55.0305 174.067 55.0286ZM58.2113 0.703061C57.0035 0.704001 55.8455 1.07203 54.9915 1.72639C54.1374 2.38075 53.6571 3.26798 53.6558 4.19338V50.8388C53.6571 51.7642 54.1374 52.6514 54.9915 53.3058C55.8455 53.9601 57.0035 54.3281 58.2113 54.3291H174.067C174.667 54.3305 175.261 54.2413 175.816 54.0665C176.37 53.8918 176.874 53.635 177.299 53.3108C177.724 52.9866 178.061 52.6014 178.291 52.1772C178.522 51.753 178.641 51.2982 178.641 50.8388V4.20049C178.64 3.27508 178.16 2.38785 177.306 1.73349C176.452 1.07913 175.294 0.711101 174.086 0.710161L58.2113 0.703061Z" fill="#E0E0E0"/>
    <path d="M52.8721 33.6818H72.7993V41.607H90.9562V50.9027H152.592V36.1673H165.313V16.9723H178.78V49.2835C178.78 50.6904 178.05 52.0397 176.752 53.0345C175.453 54.0294 173.692 54.5883 171.856 54.5883H60.412C59.4217 54.5887 58.4409 54.4396 57.5259 54.1495C56.6108 53.8593 55.7794 53.4338 55.0791 52.8973C54.3788 52.3607 53.8235 51.7237 53.4448 51.0226C53.0661 50.3215 52.8715 49.5701 52.8721 48.8113V33.6818Z" fill="#E0E0E0"/>
    <path d="M60.0041 62.3147C60.0041 62.8615 59.8419 72.1182 59.5731 87.8051V87.8335H59.5407H0.0463417H0V55.998H0.0463417H33.1348H33.1626V56.0229C33.2716 56.9011 33.6756 57.7427 34.3351 58.4658C34.955 59.1579 35.732 59.7592 36.629 60.2411C38.2999 61.0859 40.2032 61.6231 42.1901 61.8105C43.9172 61.9853 45.6569 62.0766 47.399 62.0839L51.7969 62.1656L59.9856 62.3218L51.8015 62.2011L47.4129 62.1265C45.6695 62.1216 43.9282 62.0327 42.1994 61.8602C40.1993 61.676 38.2826 61.1374 36.6012 60.2873C35.6958 59.8071 34.9109 59.2056 34.2841 58.5119C33.6146 57.776 33.2059 56.9196 33.0977 56.0265L33.1348 56.0513H0.0463417L0.0926851 56.0158V87.7909L0.0463417 87.7518L59.5407 87.766L59.5036 87.7944C59.8141 72.1182 60.0041 62.8615 60.0041 62.3147Z" fill="#EBEBEB"/>
    <path d="M97.6848 129.802C97.6848 129.802 97.6848 129.632 97.6848 129.309C97.6848 128.986 97.6848 128.506 97.6848 127.889C97.6848 126.635 97.6848 124.796 97.6848 122.435C97.6848 117.719 97.657 110.92 97.6338 102.576L97.7265 102.647L37.0643 102.668L37.1848 102.576C37.1848 112.216 37.1848 121.426 37.1848 129.809L37.0736 129.724L80.7142 129.763L93.2267 129.788H96.5679H97.4299H97.7265H97.4438H96.5958H93.2776L80.7652 129.809L37.0504 129.852H36.9346V129.767C36.9346 121.384 36.9346 112.173 36.9346 102.533V102.441H37.0597L97.7219 102.462H97.8192V102.533C97.8192 110.895 97.7775 117.709 97.7682 122.438C97.7682 124.792 97.7682 126.625 97.745 127.874C97.745 128.492 97.745 128.964 97.745 129.295C97.745 129.625 97.6848 129.802 97.6848 129.802Z" fill="#E0E0E0"/>
    <path d="M94.9878 104.216C94.9878 104.245 94.7051 104.252 94.5244 104.511C94.4686 104.58 94.4339 104.659 94.4226 104.74C94.4114 104.821 94.424 104.903 94.4595 104.98C94.5194 105.062 94.6083 105.131 94.7162 105.177C94.8241 105.223 94.9466 105.245 95.0699 105.24C95.1933 105.236 95.3126 105.205 95.4143 105.152C95.5161 105.098 95.5963 105.024 95.6459 104.937C95.6703 104.858 95.6717 104.775 95.6501 104.696C95.6285 104.616 95.5843 104.541 95.5207 104.475C95.3884 104.35 95.2087 104.26 95.0063 104.216C95.0063 104.216 95.0712 104.184 95.1963 104.195C95.377 104.216 95.5415 104.287 95.6598 104.394C95.7527 104.472 95.8198 104.567 95.8553 104.669C95.8907 104.772 95.8936 104.88 95.8637 104.983C95.8069 105.109 95.7024 105.218 95.5635 105.298C95.4247 105.377 95.2579 105.423 95.0848 105.429C94.9116 105.435 94.7401 105.401 94.5923 105.332C94.4444 105.263 94.3272 105.161 94.2556 105.04C94.2133 104.939 94.203 104.832 94.2255 104.728C94.2481 104.624 94.3029 104.525 94.3854 104.44C94.4886 104.326 94.6414 104.244 94.8163 104.209C94.9183 104.188 94.9878 104.206 94.9878 104.216Z" fill="#E0E0E0"/>
    <path d="M39.6138 104.216C39.6138 104.245 39.3311 104.252 39.1504 104.511C39.0946 104.58 39.0599 104.659 39.0486 104.74C39.0374 104.821 39.05 104.903 39.0855 104.98C39.1389 105.067 39.2266 105.139 39.3363 105.186C39.446 105.233 39.5722 105.253 39.6972 105.242C39.8228 105.245 39.9462 105.216 40.0495 105.161C40.1528 105.107 40.2306 105.028 40.2718 104.937C40.2976 104.858 40.2997 104.775 40.278 104.695C40.2564 104.615 40.2115 104.54 40.1467 104.475C40.0153 104.35 39.8352 104.259 39.6323 104.216C39.6323 104.216 39.6972 104.184 39.8223 104.195C40.003 104.216 40.1675 104.287 40.2857 104.394C40.3792 104.472 40.4469 104.567 40.4831 104.669C40.5194 104.772 40.5232 104.879 40.4943 104.983C40.4365 105.108 40.3313 105.218 40.1921 105.297C40.0529 105.376 39.886 105.421 39.7129 105.427C39.5397 105.434 39.3681 105.4 39.22 105.331C39.072 105.262 38.9541 105.161 38.8816 105.04C38.8392 104.939 38.8289 104.832 38.8515 104.728C38.8741 104.624 38.9289 104.525 39.0113 104.44C39.1154 104.325 39.2701 104.243 39.447 104.209C39.5443 104.188 39.6138 104.206 39.6138 104.216Z" fill="#E0E0E0"/>
    <path d="M95.0571 127.285C95.0571 127.317 94.7745 127.324 94.5937 127.583C94.538 127.653 94.5032 127.731 94.492 127.812C94.4808 127.893 94.4934 127.975 94.5288 128.052C94.5823 128.139 94.67 128.211 94.7797 128.259C94.8894 128.306 95.0156 128.325 95.1406 128.315C95.2656 128.315 95.3877 128.286 95.4904 128.231C95.5932 128.177 95.6716 128.099 95.7152 128.009C95.7399 127.93 95.7416 127.848 95.7199 127.768C95.6983 127.688 95.654 127.613 95.5901 127.548C95.3584 127.303 95.0664 127.317 95.0757 127.285C95.0849 127.253 95.1406 127.253 95.2657 127.264C95.4463 127.288 95.6103 127.359 95.7291 127.466C95.8217 127.544 95.8885 127.638 95.924 127.74C95.9595 127.842 95.9626 127.949 95.933 128.052C95.8768 128.178 95.7726 128.287 95.6341 128.367C95.4955 128.447 95.3288 128.493 95.1557 128.5C94.9825 128.506 94.8108 128.473 94.6627 128.404C94.5146 128.335 94.3969 128.233 94.3249 128.112C94.2826 128.012 94.2723 127.905 94.2949 127.8C94.3174 127.696 94.3722 127.597 94.4547 127.512C94.5583 127.398 94.7107 127.315 94.8857 127.278C94.9876 127.26 95.0571 127.278 95.0571 127.285Z" fill="#E0E0E0"/>
    <path d="M103.061 104.216C103.061 104.245 102.778 104.252 102.597 104.511C102.542 104.581 102.507 104.658 102.495 104.739C102.483 104.82 102.494 104.902 102.528 104.98C102.587 105.063 102.676 105.133 102.785 105.179C102.893 105.226 103.016 105.248 103.141 105.244C103.265 105.24 103.385 105.208 103.487 105.154C103.589 105.1 103.67 105.025 103.719 104.937C103.743 104.858 103.745 104.775 103.723 104.696C103.701 104.616 103.657 104.541 103.594 104.475C103.461 104.349 103.279 104.258 103.075 104.216C103.075 104.216 103.139 104.184 103.269 104.195C103.449 104.218 103.613 104.288 103.733 104.394C103.825 104.473 103.891 104.567 103.926 104.67C103.962 104.772 103.965 104.88 103.937 104.983C103.88 105.109 103.775 105.218 103.636 105.298C103.498 105.377 103.331 105.423 103.158 105.429C102.984 105.435 102.813 105.401 102.665 105.332C102.517 105.263 102.4 105.161 102.328 105.04C102.285 104.939 102.274 104.832 102.297 104.728C102.319 104.623 102.375 104.524 102.458 104.44C102.56 104.325 102.713 104.243 102.889 104.209C102.996 104.188 103.061 104.206 103.061 104.216Z" fill="#E0E0E0"/>
    <path d="M103.131 127.285C103.131 127.317 102.848 127.324 102.668 127.583C102.614 127.653 102.581 127.731 102.57 127.812C102.558 127.893 102.57 127.975 102.603 128.052C102.656 128.139 102.744 128.211 102.853 128.259C102.963 128.306 103.089 128.325 103.214 128.315C103.34 128.316 103.463 128.287 103.567 128.232C103.671 128.178 103.75 128.1 103.794 128.009C103.818 127.93 103.82 127.848 103.798 127.768C103.777 127.688 103.732 127.613 103.669 127.548C103.437 127.303 103.145 127.317 103.149 127.285C103.154 127.253 103.214 127.253 103.339 127.264C103.521 127.287 103.685 127.358 103.803 127.466C103.896 127.544 103.964 127.638 104 127.74C104.037 127.842 104.04 127.949 104.011 128.052C103.954 128.177 103.849 128.287 103.71 128.366C103.572 128.446 103.405 128.492 103.232 128.498C103.058 128.505 102.887 128.471 102.738 128.403C102.59 128.334 102.472 128.233 102.399 128.112C102.357 128.011 102.348 127.904 102.371 127.8C102.394 127.695 102.45 127.597 102.533 127.512C102.636 127.397 102.789 127.314 102.964 127.278C103.061 127.26 103.131 127.278 103.131 127.285Z" fill="#E0E0E0"/>
    <path d="M123.35 104.216C123.35 104.245 123.067 104.252 122.886 104.511C122.831 104.581 122.796 104.658 122.784 104.739C122.772 104.82 122.783 104.902 122.817 104.98C122.876 105.063 122.965 105.133 123.074 105.179C123.182 105.226 123.305 105.248 123.43 105.244C123.554 105.24 123.674 105.208 123.776 105.154C123.878 105.1 123.959 105.025 124.008 104.937C124.032 104.858 124.034 104.775 124.012 104.696C123.99 104.616 123.946 104.541 123.883 104.475C123.75 104.349 123.568 104.258 123.364 104.216C123.364 104.216 123.428 104.184 123.558 104.195C123.739 104.217 123.903 104.287 124.022 104.394C124.114 104.473 124.18 104.567 124.215 104.67C124.251 104.772 124.254 104.88 124.225 104.983C124.169 105.109 124.064 105.218 123.925 105.298C123.786 105.377 123.62 105.423 123.447 105.429C123.273 105.435 123.102 105.401 122.954 105.332C122.806 105.263 122.689 105.161 122.617 105.04C122.575 104.939 122.565 104.832 122.587 104.728C122.61 104.624 122.665 104.525 122.747 104.44C122.849 104.325 123.002 104.243 123.178 104.209C123.285 104.188 123.354 104.206 123.35 104.216Z" fill="#E0E0E0"/>
    <path d="M123.419 127.285C123.419 127.317 123.137 127.324 122.956 127.583C122.901 127.653 122.866 127.731 122.854 127.812C122.842 127.893 122.853 127.975 122.886 128.052C122.946 128.136 123.035 128.205 123.143 128.252C123.252 128.298 123.375 128.321 123.499 128.316C123.624 128.312 123.744 128.281 123.846 128.227C123.948 128.172 124.028 128.097 124.077 128.009C124.106 127.928 124.11 127.843 124.089 127.761C124.068 127.679 124.023 127.601 123.957 127.534C123.725 127.289 123.433 127.303 123.438 127.271C123.442 127.239 123.503 127.239 123.632 127.25C123.813 127.274 123.976 127.346 124.096 127.452C124.188 127.531 124.254 127.625 124.289 127.726C124.325 127.828 124.328 127.935 124.3 128.038C124.244 128.164 124.139 128.273 124.001 128.353C123.862 128.433 123.696 128.479 123.522 128.486C123.349 128.492 123.178 128.459 123.029 128.39C122.881 128.321 122.764 128.219 122.692 128.098C122.648 127.998 122.637 127.89 122.66 127.786C122.683 127.681 122.738 127.583 122.821 127.498C122.924 127.383 123.077 127.3 123.252 127.264C123.354 127.26 123.419 127.278 123.419 127.285Z" fill="#E0E0E0"/>
    <path d="M39.5437 127.285C39.5437 127.317 39.261 127.324 39.0803 127.583C39.0245 127.653 38.9898 127.731 38.9785 127.812C38.9673 127.893 38.9799 127.975 39.0154 128.052C39.0753 128.135 39.1642 128.203 39.2721 128.249C39.3799 128.295 39.5025 128.317 39.6258 128.313C39.7492 128.308 39.8685 128.278 39.9702 128.224C40.072 128.17 40.1522 128.096 40.2017 128.009C40.2308 127.928 40.2347 127.843 40.2129 127.76C40.1912 127.678 40.1445 127.6 40.0766 127.534C39.8449 127.289 39.553 127.303 39.5576 127.271C39.5622 127.239 39.6225 127.239 39.7476 127.25C39.9286 127.273 40.093 127.344 40.211 127.452C40.3044 127.53 40.3721 127.624 40.4084 127.726C40.4447 127.827 40.4485 127.935 40.4196 128.038C40.3623 128.163 40.2575 128.273 40.1186 128.352C39.9796 128.432 39.8129 128.478 39.6397 128.484C39.4665 128.491 39.2948 128.457 39.1464 128.389C38.998 128.32 38.8798 128.219 38.8068 128.098C38.7656 127.997 38.7559 127.891 38.7784 127.786C38.801 127.682 38.8552 127.583 38.9366 127.498C39.0419 127.384 39.1959 127.301 39.3722 127.264C39.4742 127.26 39.5437 127.278 39.5437 127.285Z" fill="#E0E0E0"/>
    <path d="M117.181 129.803C117.181 129.803 117.181 129.753 117.181 129.664C117.181 129.575 117.181 129.44 117.181 129.274C117.181 128.918 117.181 128.414 117.181 127.761C117.181 126.44 117.181 124.523 117.149 122.112C117.149 117.29 117.116 110.494 117.098 102.583L117.209 102.668H100.002L100.122 102.576C100.122 113.107 100.099 122.698 100.09 129.81L100.002 129.742L112.561 129.778L115.999 129.795H116.898H117.209H116.917H116.032L112.616 129.813L100.002 129.849H99.9138V129.781C99.9138 122.68 99.8906 113.093 99.8813 102.548V102.455H117.325V102.544C117.301 110.494 117.283 117.308 117.269 122.147C117.269 124.548 117.246 126.458 117.237 127.775C117.237 128.421 117.237 128.922 117.237 129.27C117.237 129.433 117.237 129.558 117.237 129.65C117.224 129.702 117.206 129.753 117.181 129.803Z" fill="#E0E0E0"/>
    <path d="M116.787 115.717C116.787 115.77 113.131 115.809 108.631 115.809C104.131 115.809 100.47 115.77 100.47 115.717C100.47 115.664 104.122 115.625 108.631 115.625C113.14 115.625 116.787 115.667 116.787 115.717Z" fill="#E0E0E0"/>
    <path d="M169.951 129.802C169.951 129.802 169.951 129.628 169.951 129.302C169.951 128.975 169.951 128.489 169.951 127.857C169.951 126.589 169.951 124.736 169.928 122.364C169.928 117.627 169.896 110.828 169.877 102.569L169.975 102.643L120.017 102.661L120.138 102.569C120.138 112.319 120.138 121.572 120.138 129.802L120.027 129.717L156.044 129.76L166.309 129.781H169.038H169.743H169.988H169.757H169.066H166.355L156.118 129.806L120.027 129.849H119.916V129.763C119.916 121.533 119.916 112.28 119.916 102.53V102.437H120.041L169.998 102.455H170.095V102.53C170.095 110.806 170.053 117.624 170.044 122.374C170.044 124.736 170.044 126.585 170.016 127.85C170.016 128.474 170.016 128.95 170.016 129.27C170.016 129.589 169.951 129.802 169.951 129.802Z" fill="#E0E0E0"/>
    <path d="M1.40869 7.03396V48.8646H42.0371V7.02686C42.0371 7.02686 1.40869 7.37127 1.40869 7.03396Z" fill="#E0E0E0"/>
    <path d="M1.40869 7.12258V13.6274L42.051 13.8192V7.03381L1.40869 7.12258Z" fill="#EBEBEB"/>
    <path d="M16.1084 10.0272V11.3019H29.1213V10.1977C29.1213 10.1977 16.4421 10.0272 16.1084 10.0272Z" fill="white"/>
    <path d="M16.3963 16.6244H3.67529V27.0776H16.3963V16.6244Z" fill="#FAFAFA"/>
    <path d="M14.6211 38.0244H15.1818H16.7946H22.7078L22.6708 38.0528C22.6708 34.9424 22.6708 30.8307 22.6708 26.3356V23.6796H22.7171H34.4139L34.3769 23.708C34.4186 21.7694 34.451 20.1893 34.4742 19.0922C34.4742 18.556 34.4742 18.1335 34.5066 17.8281C34.5391 17.5228 34.5066 17.3843 34.5066 17.3843C34.5066 17.3843 34.5066 17.537 34.5066 17.8281C34.5066 18.1193 34.5066 18.5382 34.5066 19.0922C34.5066 20.2035 34.4695 21.7836 34.4417 23.708V23.7365H34.4047H22.7078L22.7588 23.6974V26.3178C22.7588 30.8201 22.7588 34.9318 22.7588 38.0351V38.0564H22.7217H16.8085H15.1957L14.6211 38.0244Z" fill="#FAFAFA"/>
    <path d="M38.5711 41.1203H37.6072H34.8822H25.1503H25.1086V41.0884C25.1086 38.0845 25.1086 34.5409 25.1086 30.7594V25.9341H33.1768L33.1397 25.966C33.1397 23.0757 33.1397 20.6719 33.1397 18.9783C33.1397 18.1474 33.1397 17.4905 33.1397 17.0254C33.1397 16.5602 33.1397 16.3365 33.1397 16.3365C33.1397 16.3365 33.1397 16.578 33.1397 17.0254C33.1397 17.4728 33.1397 18.1474 33.1397 18.9783C33.1397 20.6719 33.1397 23.0757 33.1397 25.966V25.998H25.0762L25.1225 25.9625C25.1225 27.5035 25.1225 29.1226 25.1225 30.7843C25.1225 34.5658 25.1225 38.1094 25.1225 41.1132L25.0808 41.0813H34.8127H37.5376L38.5711 41.1203Z" fill="#EBEBEB"/>
    <path d="M3.7583 29.3606V30.3406H14.0509V29.1653L3.7583 29.3606Z" fill="#FAFAFA"/>
    <path d="M3.67529 31.0685V32.052H13.9679V30.8732L3.67529 31.0685Z" fill="#FAFAFA"/>
    <path d="M185.592 87.805C185.592 87.276 185.592 78.2182 185.555 62.8188L185.592 62.8472H114.6L114.651 62.8117C114.651 71.5961 114.651 80.0503 114.651 87.7979L114.605 87.7624L185.601 87.7979L114.605 87.8334H114.559V62.7833H114.61H185.601H185.634V62.8117C185.62 78.204 185.592 87.276 185.592 87.805Z" fill="#EBEBEB"/>
    <path d="M186 132.895C186 132.945 144.524 132.987 93.3755 132.987C42.2274 132.987 0.741699 132.945 0.741699 132.895C0.741699 132.845 42.2089 132.803 93.3755 132.803C144.542 132.803 186 132.86 186 132.895Z" fill="#263238"/>
    <path d="M32.8007 94.9915H28.8477V132.891H32.8007V94.9915Z" fill="#263238"/>
    <path d="M156.568 94.9915H152.615V132.895H156.568V94.9915Z" fill="#263238"/>
    <path d="M159.969 90.5815H27.4022C25.8819 90.5815 24.6494 91.5258 24.6494 92.6907V93.2694C24.6494 94.4342 25.8819 95.3785 27.4022 95.3785H159.969C161.489 95.3785 162.722 94.4342 162.722 93.2694V92.6907C162.722 91.5258 161.489 90.5815 159.969 90.5815Z" fill="#455A64"/>
    <path d="M124.258 10.1833L108.571 5.86926L93.0414 10.1301C91.0579 10.8402 89.334 11.277 89.334 12.6901V19.7347C89.2999 24.6818 91.0651 29.5384 94.4316 33.7599C97.7958 38.0258 102.783 41.4009 108.724 43.432C115.073 41.8519 119.813 37.6373 122.71 34.0369C126.084 29.8172 127.858 24.9605 127.831 20.0116V13.6737C127.831 11.6533 126.431 10.6698 124.258 10.1833Z" fill="#465B9B"/>
    <g opacity="0.3">
        <path d="M108.723 39.3416C104.017 37.7132 100.072 35.0225 97.4159 31.6295C94.7493 28.2889 93.3485 24.4458 93.3702 20.53V15.5875C93.3702 14.469 94.2507 13.418 96.0024 12.7931L108.575 9.19271V5.86926L93.0458 10.1301C91.4145 10.6733 89.3384 11.277 89.3384 12.6901V19.7347C89.3043 24.6818 91.0695 29.5384 94.436 33.7599C97.8002 38.0258 102.787 41.4009 108.728 43.432L108.723 39.3416Z" fill="black"/>
    </g>
    <g opacity="0.4">
        <path d="M108.723 43.432C109.787 43.1649 110.819 42.8263 111.805 42.42C114.224 41.3689 116.423 40.0438 118.325 38.4894C120.055 37.0639 121.576 35.4983 122.862 33.8203C126.282 29.5713 128.008 24.65 127.83 19.6601V13.8406C127.83 10.9432 125.879 10.7302 124.248 10.1833L108.57 5.86926V9.19271L121.296 12.8464C123.048 13.4748 123.928 14.5223 123.928 15.6443V20.5869C123.95 24.502 122.547 28.3443 119.878 31.6828C117.283 35.0571 113.385 37.7317 108.723 39.338V43.432Z" fill="black"/>
    </g>
    <path opacity="0.5" d="M112.732 20.2141V19.2625C112.697 18.4534 112.252 17.6866 111.493 17.1239C110.733 16.5612 109.718 16.2467 108.661 16.2467C107.605 16.2467 106.589 16.5612 105.83 17.1239C105.07 17.6866 104.626 18.4534 104.59 19.2625V20.2318C104.049 20.2931 103.556 20.501 103.198 20.8177C102.841 21.1344 102.644 21.5389 102.644 21.9575V27.5676C102.645 28.0303 102.886 28.4737 103.313 28.8005C103.74 29.1274 104.32 29.3109 104.924 29.3109H112.524C112.823 29.3114 113.119 29.2667 113.396 29.1793C113.673 29.0919 113.924 28.9635 114.136 28.8016C114.347 28.6396 114.516 28.4473 114.63 28.2355C114.745 28.0238 114.804 27.7968 114.804 27.5676V21.9575C114.805 21.5212 114.593 21.1003 114.21 20.7777C113.826 20.455 113.299 20.254 112.732 20.2141ZM109.766 26.165H107.778L108.089 25.0679C107.869 24.9594 107.702 24.7994 107.611 24.6119C107.52 24.4243 107.51 24.2192 107.584 24.0273C107.658 23.8353 107.811 23.6669 108.02 23.547C108.229 23.4272 108.483 23.3624 108.745 23.3624C109.006 23.3624 109.26 23.4272 109.469 23.547C109.678 23.6669 109.831 23.8353 109.905 24.0273C109.979 24.2192 109.969 24.4243 109.878 24.6119C109.787 24.7994 109.62 24.9594 109.4 25.0679L109.766 26.165ZM111.856 20.207H105.466V19.2625C105.497 18.6293 105.848 18.0301 106.443 17.5907C107.039 17.1513 107.834 16.9058 108.661 16.9058C109.488 16.9058 110.283 17.1513 110.879 17.5907C111.475 18.0301 111.825 18.6293 111.856 19.2625V20.207Z" fill="white"/>
    <path d="M95.9096 20.1466C95.7772 19.8302 95.6993 19.5019 95.6779 19.1701C95.5579 18.3759 95.5145 17.576 95.5481 16.777C95.5481 16.3083 95.6084 15.8644 95.664 15.4597C95.685 15.0903 95.8032 14.728 96.0115 14.3944C96.1623 14.1675 96.4022 13.9825 96.6974 13.8654C96.9106 13.7873 97.045 13.7908 97.045 13.805C96.6667 13.9393 96.3629 14.1721 96.1876 14.4619C96.017 14.7837 95.9244 15.1266 95.9142 15.4739C95.8725 15.8751 95.8401 16.3154 95.8215 16.7805C95.7891 17.7072 95.8215 18.5559 95.8679 19.1524C95.9187 19.4823 95.9327 19.8149 95.9096 20.1466Z" fill="white"/>
    <path d="M96.1515 23.2144C96.0774 23.2144 96.0078 22.9268 95.9986 22.5682C95.9893 22.2095 96.0449 21.9184 96.1191 21.9148C96.1932 21.9113 96.2627 22.206 96.272 22.5646C96.2813 22.9232 96.2164 23.2144 96.1515 23.2144Z" fill="white"/>
    <path d="M129.583 6.6187C130.007 6.69636 130.422 6.79966 130.825 6.92761C131.317 7.07817 131.784 7.27369 132.215 7.50992C132.824 7.82878 133.329 8.25178 133.689 8.74556C134.122 9.37287 134.354 10.0704 134.365 10.7801C134.365 11.5542 134.365 12.3921 134.365 13.2975C134.365 15.1048 134.388 17.1713 134.365 19.4757C134.322 22.0081 133.896 24.5282 133.095 26.9854C132.156 29.847 130.704 32.5953 128.781 35.152C126.629 38.0143 123.963 40.6308 120.861 42.9245C117.617 45.2999 113.613 47.4019 108.937 48.5168H108.895H108.854C107.216 47.9807 105.618 47.3761 104.067 46.706C102.48 46.0017 100.953 45.2226 99.4926 44.3731C96.4793 42.6069 93.7972 40.5316 91.5217 38.2056C86.5987 33.2344 83.6698 27.2732 83.092 21.0487C82.9437 19.5752 82.9854 18.1194 82.9808 16.6884V12.4525C82.9808 11.7423 82.9808 11.0748 82.9808 10.3966C82.9664 10.0542 82.9819 9.71136 83.0271 9.37048C83.0948 9.02383 83.2801 8.69689 83.5647 8.42245C84.1481 7.91774 84.8718 7.51975 85.6826 7.25783C86.4565 6.97732 87.235 6.73232 87.9997 6.47312L108.664 1.14709H108.687H108.715L124.045 5.16292L128.137 6.22813L129.189 6.50863L129.546 6.6116C129.546 6.6116 129.421 6.58674 129.184 6.52638L128.123 6.26008L124.017 5.19488L108.701 1.25006H108.752L88.1063 6.62225C87.3463 6.88145 86.5631 7.12645 85.7891 7.40695C85.0073 7.65954 84.309 8.0429 83.7454 8.52897C83.4836 8.78166 83.3141 9.08309 83.2542 9.40244C83.212 9.73397 83.1981 10.0673 83.2125 10.4002V12.456C83.2125 13.8372 83.2125 15.2469 83.2125 16.6742C83.2125 18.1016 83.1801 19.5574 83.3284 21.0203C83.9055 27.2103 86.8198 33.138 91.7163 38.0813C93.9805 40.3939 96.6485 42.4572 99.6455 44.2134C101.096 45.0584 102.614 45.8328 104.192 46.532C105.741 47.2063 107.337 47.8144 108.974 48.3535H108.895C113.53 47.2528 117.492 45.1579 120.736 42.8073C123.828 40.5274 126.488 37.9266 128.637 35.081C130.551 32.5421 132.002 29.8148 132.952 26.9748C133.757 24.5287 134.191 22.0195 134.245 19.497C134.245 17.1962 134.245 15.1261 134.273 13.3188C134.273 12.4134 134.273 11.5719 134.273 10.805C134.271 10.1052 134.05 9.4159 133.628 8.79527C133.279 8.30795 132.789 7.88786 132.196 7.56673C131.764 7.33067 131.297 7.13293 130.806 6.97732C130.503 6.87995 130.194 6.79462 129.879 6.72167L129.583 6.6187Z" fill="#465B9B"/>
    <path d="M80.7656 62.7017L81.9195 79.39L110.911 79.8977L108.766 66.9306L110.981 53.6794C109.526 47.4728 98.1672 47.0432 98.1672 47.0432L89.2555 46.9331C86.2041 46.7642 83.1547 47.2825 80.4829 48.4244C80.4829 48.4244 71.4369 52.1988 71.5156 61.7892" fill="#455A64"/>
    <path d="M98.2548 46.8514C98.0562 47.321 97.7937 47.7732 97.4716 48.2007C97.0383 48.6879 96.4555 49.0862 95.7743 49.3604C95.0931 49.6347 94.3344 49.7766 93.565 49.7737C92.7946 49.7851 92.0327 49.6492 91.3482 49.3783C90.6636 49.1074 90.078 48.71 89.6444 48.222C89.396 47.916 89.2086 47.5833 89.0883 47.2349C89.0549 47.1034 89.0036 46.9748 88.9353 46.8514C88.9219 46.9874 88.9375 47.1241 88.9817 47.2562C89.0681 47.6227 89.2375 47.9748 89.4822 48.2966C89.8508 48.7805 90.38 49.1811 91.0161 49.4576C91.7877 49.8073 92.6685 49.9901 93.565 49.9867C94.4607 49.9889 95.3398 49.8008 96.1045 49.4434C96.7306 49.1569 97.2569 48.7586 97.6384 48.2824C97.8878 47.9628 98.0707 47.6154 98.1807 47.2527C98.2374 47.1236 98.2625 46.9875 98.2548 46.8514Z" fill="#263238"/>
    <path d="M105.068 52.4364C103.687 53.2806 102.558 54.3423 101.758 55.5497C100.959 56.7572 100.507 58.0821 100.434 59.4349C100.212 63.6744 99.8686 69.5614 99.6647 69.8561C99.0298 70.7651 82.2585 69.9911 80.4929 69.8952L78.3611 69.391C78.3611 69.391 74.4406 66.7919 73.7269 67.573C73.0132 68.3542 75.7845 68.8548 76.3221 70.3887C76.8597 71.9226 71.2893 70.7225 70.9278 70.5343L69.4912 70.2218C69.4912 70.2218 70.3439 72.3167 71.0715 72.9807C73.3886 75.1111 78.7133 76.1763 78.7133 76.1763C78.7133 76.1763 100.434 81.584 109.207 77.1208C112.075 75.6615 112.562 61.3558 111.477 55.8167C111.269 54.7599 110.569 53.7966 109.506 53.1048C108.443 52.4129 107.089 52.0393 105.694 52.053L105.068 52.4364Z" fill="#FFBE9D"/>
    <path d="M72.8454 72.5832C72.4225 72.3824 71.9811 72.2056 71.5246 72.0541C71.0953 71.8629 70.6493 71.6945 70.1899 71.5499C70.5653 71.8051 70.9907 72.0136 71.4505 72.1678C71.885 72.36 72.3554 72.5001 72.8454 72.5832Z" fill="#EB996E"/>
    <path d="M108.663 50.4375C111.337 52.3974 113.928 56.3316 112.969 64.2035L98.7183 63.7525L99.0844 52.9798C99.1051 52.4401 99.2822 51.9106 99.6028 51.4298C99.9234 50.949 100.379 50.5288 100.938 50.1996C102.052 49.5278 103.442 49.1826 104.858 49.2262C106.274 49.2698 107.624 49.6993 108.663 50.4375Z" fill="#455A64"/>
    <path d="M80.2655 130.729L79.8855 126.6L89.9742 126L90.6184 132.036L89.9974 132.103C87.2168 132.387 75.8722 133.399 73.9676 133.076C71.8451 132.718 80.2655 130.729 80.2655 130.729Z" fill="#465B9B"/>
    <g opacity="0.3">
        <path d="M86.9521 132.192C87.0359 131.531 87.4353 130.916 88.0736 130.466C88.7014 130.014 89.5291 129.761 90.3908 129.756L90.6132 131.915L86.9521 132.192Z" fill="white"/>
    </g>
    <g opacity="0.3">
        <path d="M76.164 131.816C76.164 131.816 73.2259 132.657 73.6383 133.016C74.0508 133.374 85.5715 132.682 90.6182 132.036L90.5857 131.865L77.1464 132.757C77.1464 132.757 76.7525 131.794 76.164 131.816Z" fill="white"/>
    </g>
    <path d="M90.7434 131.851L90.5719 131.876L90.0761 131.929L88.2455 132.1C86.7023 132.235 84.5659 132.398 82.221 132.544C79.8761 132.689 77.7073 132.778 76.1548 132.831L74.3011 132.881H73.8006C73.7422 132.887 73.6829 132.887 73.6245 132.881H73.8006L74.3011 132.856L76.1548 132.774C77.7073 132.707 79.8622 132.604 82.2164 132.458C84.5706 132.313 86.7162 132.16 88.2409 132.043L90.0946 131.901L90.5905 131.866C90.6406 131.857 90.6919 131.852 90.7434 131.851Z" fill="#263238"/>
    <path d="M77.1511 132.877C76.9811 132.406 76.5943 131.997 76.062 131.727C76.384 131.796 76.6613 131.954 76.8406 132.171C77.0556 132.368 77.1664 132.62 77.1511 132.877Z" fill="#263238"/>
    <path d="M80.0288 131.542C80.001 131.542 79.8481 131.432 79.6813 131.265C79.5144 131.098 79.4032 130.946 79.431 130.932C79.4588 130.917 79.6164 131.038 79.7786 131.209C79.9408 131.379 80.0566 131.525 80.0288 131.542Z" fill="#263238"/>
    <path d="M80.8122 131.163C80.8122 131.184 80.6268 131.109 80.4415 131.003C80.2561 130.896 80.1171 130.786 80.1402 130.765C80.1634 130.744 80.3302 130.818 80.5156 130.928C80.701 131.038 80.8585 131.141 80.8122 131.163Z" fill="#263238"/>
    <path d="M81.2573 130.403C81.0921 130.459 80.9137 130.487 80.7336 130.486C80.5583 130.517 80.376 130.517 80.2007 130.486C80.3651 130.428 80.544 130.4 80.7244 130.403C80.8994 130.369 81.0822 130.369 81.2573 130.403Z" fill="#263238"/>
    <path d="M81.3819 129.877C81.2156 129.974 81.0157 130.031 80.8073 130.04C80.6034 130.081 80.3881 130.072 80.1909 130.015C80.3874 129.98 80.5874 129.958 80.7887 129.948C80.9833 129.911 81.1818 129.887 81.3819 129.877Z" fill="#263238"/>
    <path d="M79.6215 130.889C79.4092 130.928 79.19 130.94 78.9727 130.925C78.7351 130.916 78.4991 130.89 78.2683 130.846C78.1275 130.826 77.9904 130.793 77.8604 130.747C77.78 130.717 77.7172 130.665 77.6843 130.601C77.6708 130.565 77.671 130.527 77.685 130.491C77.6989 130.455 77.7261 130.423 77.7631 130.399C78.0008 130.291 78.2801 130.25 78.5531 130.282C78.8262 130.314 79.0761 130.419 79.26 130.577C79.3702 130.669 79.4539 130.778 79.5056 130.896C79.5272 130.938 79.5382 130.983 79.538 131.027C79.4555 130.879 79.3411 130.742 79.1997 130.623C79.0397 130.501 78.8368 130.417 78.6158 130.381C78.4867 130.355 78.352 130.349 78.2199 130.364C78.0877 130.379 77.9608 130.414 77.8465 130.466C77.7492 130.53 77.8002 130.623 77.9207 130.665C78.0412 130.708 78.1669 130.741 78.2961 130.765C78.5197 130.809 78.7474 130.84 78.9773 130.857C79.3712 130.885 79.6168 130.871 79.6215 130.889Z" fill="#263238"/>
    <path d="M79.4679 130.921C79.372 130.818 79.3322 130.691 79.3567 130.566C79.3645 130.434 79.412 130.305 79.4957 130.189C79.5433 130.113 79.6154 130.046 79.7053 129.997C79.7952 129.947 79.9001 129.916 80.0101 129.905C80.0435 129.908 80.0758 129.916 80.1052 129.928C80.1346 129.941 80.1605 129.957 80.1812 129.978C80.202 129.998 80.2172 130.021 80.226 130.046C80.2349 130.071 80.2371 130.097 80.2325 130.122C80.2271 130.202 80.1986 130.279 80.1491 130.349C80.0751 130.465 79.9816 130.572 79.8711 130.669C79.6857 130.836 79.5281 130.903 79.5189 130.892C79.5096 130.882 79.6394 130.797 79.8016 130.63C79.8979 130.531 79.9802 130.425 80.0472 130.314C80.1213 130.204 80.163 130.012 80.0008 129.998C79.8386 129.984 79.6857 130.129 79.593 130.236C79.513 130.337 79.4624 130.451 79.4447 130.569C79.4362 130.687 79.444 130.805 79.4679 130.921Z" fill="#263238"/>
    <path d="M90.3213 129.746C90.3213 129.746 90.0293 129.746 89.5798 129.813C88.9892 129.898 88.4424 130.11 88.0034 130.425C87.5643 130.739 87.2511 131.143 87.1005 131.589C86.98 131.944 86.9892 132.153 86.9661 132.153C86.9527 132.102 86.9527 132.049 86.9661 131.997C86.9697 131.853 86.993 131.711 87.0356 131.571C87.1694 131.106 87.4841 130.683 87.9384 130.357C88.3926 130.032 88.965 129.82 89.5798 129.749C89.7638 129.728 89.9501 129.721 90.1359 129.728C90.1984 129.728 90.2606 129.734 90.3213 129.746Z" fill="#263238"/>
    <path d="M88.9443 126.593C89.0718 127.116 89.1554 127.645 89.1946 128.176C89.2785 128.704 89.3218 129.235 89.3243 129.767C89.1969 129.244 89.1133 128.715 89.0741 128.183C88.9902 127.656 88.9468 127.124 88.9443 126.593Z" fill="#263238"/>
    <path d="M85.6085 131.514C84.6499 131.717 83.6512 131.784 82.6611 131.713C82.6611 131.684 83.3238 131.677 84.1348 131.62C84.9458 131.564 85.5992 131.489 85.6085 131.514Z" fill="#263238"/>
    <path d="M87.5827 131.393C87.6105 131.411 87.541 131.503 87.4853 131.624C87.4297 131.745 87.4066 131.851 87.3695 131.851C87.3324 131.851 87.3046 131.731 87.3695 131.592C87.4344 131.454 87.5595 131.379 87.5827 131.393Z" fill="#263238"/>
    <path d="M88.2725 130.641C88.2957 130.641 88.2401 130.74 88.1428 130.829C88.0455 130.918 87.9481 130.971 87.925 130.957C87.9018 130.942 87.9528 130.854 88.0501 130.768C88.1474 130.683 88.2308 130.623 88.2725 130.641Z" fill="#263238"/>
    <path d="M89.293 130.25C89.293 130.278 89.154 130.285 89.0103 130.335C88.8666 130.385 88.7647 130.449 88.7369 130.435C88.7091 130.42 88.7786 130.307 88.9593 130.246C89.1401 130.186 89.2976 130.225 89.293 130.25Z" fill="#263238"/>
    <path d="M90.034 130.051C90.034 130.076 89.9969 130.118 89.9135 130.147C89.8301 130.175 89.7559 130.182 89.742 130.147C89.7281 130.111 89.7791 130.079 89.8625 130.051C89.9459 130.023 90.0201 130.019 90.034 130.051Z" fill="#263238"/>
    <path d="M49.253 130.925L49.3874 126.788L59.5086 126.934L59.3927 132.987L58.7625 133.012C55.982 133.09 44.5447 133.257 42.6863 132.799C40.6195 132.284 49.253 130.925 49.253 130.925Z" fill="#465B9B"/>
    <g opacity="0.3">
        <path d="M55.7222 132.86C55.8912 132.208 56.366 131.627 57.0568 131.226C57.7346 130.828 58.5832 130.639 59.4342 130.697L59.3832 132.863L55.7222 132.86Z" fill="white"/>
    </g>
    <g opacity="0.3">
        <path d="M45.0313 131.706C45.0313 131.706 42.0005 132.327 42.3666 132.714C42.7327 133.101 54.2859 133.261 59.3928 132.987V132.817L45.9165 132.714C45.9165 132.714 45.6384 131.73 45.0313 131.706Z" fill="white"/>
    </g>
    <path d="M59.5407 132.814H59.3646L58.8641 132.831L57.0104 132.867C55.4533 132.888 53.303 132.895 50.9349 132.867C48.5668 132.838 46.4165 132.771 44.864 132.707L43.0103 132.622L42.5145 132.593C42.456 132.599 42.3969 132.599 42.3384 132.593C42.397 132.589 42.4559 132.589 42.5145 132.593H43.015L44.8687 132.647C46.4211 132.693 48.5761 132.746 50.9395 132.778C53.303 132.81 55.4533 132.813 57.0104 132.81H59.3507C59.4139 132.805 59.4778 132.806 59.5407 132.814Z" fill="#263238"/>
    <path d="M45.9019 132.835C45.8258 132.601 45.7154 132.375 45.5729 132.16C45.3968 131.958 45.1899 131.774 44.9565 131.61C45.2546 131.718 45.5027 131.893 45.6682 132.112C45.8337 132.331 45.9087 132.583 45.8834 132.835H45.9019Z" fill="#263238"/>
    <path d="M48.9146 131.716C48.8868 131.716 48.7478 131.596 48.6041 131.414C48.4604 131.233 48.3677 131.077 48.3956 131.059C48.4234 131.042 48.5624 131.184 48.706 131.361C48.8497 131.539 48.9424 131.702 48.9146 131.716Z" fill="#263238"/>
    <path d="M49.7396 131.397C49.7396 131.415 49.5588 131.333 49.3874 131.209C49.2159 131.084 49.0954 130.971 49.1186 130.953C49.1417 130.935 49.2993 131.017 49.4708 131.141C49.6422 131.265 49.7627 131.379 49.7396 131.397Z" fill="#263238"/>
    <path d="M50.2724 130.673C50.1028 130.718 49.9222 130.733 49.7441 130.716C49.5654 130.733 49.3841 130.716 49.2158 130.666C49.5634 130.603 49.9248 130.603 50.2724 130.666V130.673Z" fill="#263238"/>
    <path d="M50.4674 130.158C50.2912 130.245 50.0839 130.288 49.8742 130.282C49.6671 130.305 49.4556 130.281 49.2671 130.211C49.4665 130.188 49.6682 130.18 49.8695 130.186C50.0675 130.164 50.2674 130.155 50.4674 130.158Z" fill="#263238"/>
    <path d="M48.5847 131.035C48.3701 131.064 48.1505 131.064 47.9359 131.035C47.7009 131.009 47.4697 130.966 47.2454 130.907C47.108 130.875 46.9758 130.831 46.8515 130.775C46.7757 130.74 46.7196 130.684 46.6939 130.619C46.6853 130.582 46.6908 130.544 46.7097 130.509C46.7286 130.475 46.7601 130.445 46.8005 130.424C47.0507 130.333 47.3345 130.312 47.6028 130.364C47.8711 130.417 48.107 130.54 48.2695 130.711C48.3656 130.811 48.4349 130.925 48.4735 131.045C48.4857 131.09 48.4857 131.136 48.4735 131.18C48.4087 131.026 48.3117 130.881 48.1861 130.75C48.0419 130.617 47.8504 130.518 47.6347 130.466C47.3819 130.398 47.1038 130.408 46.8607 130.495C46.7542 130.555 46.7959 130.648 46.9071 130.701C47.0222 130.751 47.1432 130.792 47.2686 130.825C47.4859 130.885 47.709 130.933 47.9359 130.967C48.3391 131.017 48.5847 131.02 48.5847 131.035Z" fill="#263238"/>
    <path d="M48.4184 131.059C48.3396 130.951 48.3148 130.825 48.3489 130.704C48.375 130.576 48.4401 130.455 48.5389 130.349C48.5948 130.276 48.6745 130.215 48.7703 130.172C48.8661 130.129 48.9748 130.106 49.0857 130.104C49.1507 130.116 49.2072 130.147 49.2435 130.19C49.2797 130.233 49.2929 130.285 49.2804 130.335C49.2626 130.415 49.2232 130.491 49.1645 130.559C49.0747 130.666 48.9689 130.765 48.8494 130.853C48.7445 130.94 48.6164 131.008 48.474 131.052C48.474 131.052 48.6038 130.964 48.7891 130.807C48.8947 130.717 48.9879 130.618 49.0672 130.513C49.1599 130.41 49.2248 130.221 49.0672 130.197C48.9096 130.172 48.7335 130.303 48.6316 130.403C48.5399 130.498 48.4751 130.607 48.4416 130.722C48.4205 130.834 48.4127 130.947 48.4184 131.059Z" fill="#263238"/>
    <path d="M59.3828 130.69C59.3828 130.708 59.0909 130.665 58.6367 130.69C58.0385 130.732 57.4681 130.903 56.9915 131.184C56.515 131.464 56.1519 131.842 55.9442 132.274C55.782 132.604 55.7635 132.828 55.7403 132.824C55.7272 132.773 55.7272 132.72 55.7403 132.668C55.7611 132.527 55.8015 132.387 55.8608 132.253C56.0528 131.797 56.422 131.397 56.9189 131.106C57.4159 130.815 58.0168 130.648 58.6413 130.626C58.8261 130.61 59.0127 130.61 59.1974 130.626C59.2647 130.637 59.328 130.659 59.3828 130.69Z" fill="#263238"/>
    <path d="M58.4089 127.448C58.4645 127.979 58.4813 128.511 58.4592 129.043C58.4759 129.574 58.4514 130.105 58.386 130.633C58.3303 130.103 58.3135 129.571 58.3356 129.039C58.3219 128.508 58.3464 127.977 58.4089 127.448Z" fill="#263238"/>
    <path d="M54.471 132.1C53.4904 132.231 52.4876 132.225 51.5098 132.082C51.5098 132.053 52.1771 132.082 52.9881 132.1C53.7991 132.118 54.4664 132.075 54.471 132.1Z" fill="#263238"/>
    <path d="M56.454 132.128C56.454 132.146 56.3938 132.235 56.3243 132.349C56.2547 132.462 56.2177 132.565 56.1806 132.565C56.1435 132.565 56.1296 132.441 56.213 132.309C56.2965 132.178 56.4308 132.107 56.454 132.128Z" fill="#263238"/>
    <path d="M57.2236 131.439C57.2514 131.457 57.1819 131.539 57.0753 131.617C56.9687 131.695 56.8621 131.748 56.8389 131.727C56.8158 131.706 56.8853 131.631 56.9919 131.549C57.0985 131.468 57.1911 131.407 57.2236 131.439Z" fill="#263238"/>
    <path d="M58.2942 131.113C58.2942 131.141 58.1506 131.138 58.0023 131.177C57.854 131.216 57.7428 131.273 57.7196 131.255C57.6964 131.237 57.7798 131.131 57.9652 131.084C58.1506 131.038 58.3035 131.084 58.2942 131.113Z" fill="#263238"/>
    <path d="M59.0779 130.971C59.0779 130.996 59.0315 131.036 58.9481 131.061C58.8647 131.086 58.7813 131.083 58.772 131.061C58.7627 131.039 58.8183 131 58.9018 130.974C58.9852 130.949 59.0454 130.946 59.0779 130.971Z" fill="#263238"/>
    <path d="M58.1509 78.914L92.8567 78.5802L85.6041 91.0822L63.4061 91.1496L61.2697 129.451H47.71L49.0029 86.729C49.062 84.8046 50.0169 82.9598 51.6952 81.5274C53.3735 80.095 55.6648 79.1693 58.1555 78.9175L58.1509 78.914Z" fill="#263238"/>
    <path d="M61.7182 126.5C61.7182 126.443 58.5716 126.397 54.6881 126.397C50.8046 126.397 47.6626 126.443 47.6626 126.5C47.6626 126.557 50.8092 126.607 54.6881 126.607C58.567 126.607 61.7182 126.557 61.7182 126.5Z" fill="#455A64"/>
    <path d="M91.1365 92.1012L92.1143 128.883L76.4274 129.472C76.4274 129.472 73.9296 93.4362 75.1762 83.2103C76.0289 76.2119 110.888 79.2193 110.888 79.2193C111.393 93.1557 91.1365 92.1012 91.1365 92.1012Z" fill="#263238"/>
    <path d="M92.1147 125.982C91.9156 125.957 91.7133 125.951 91.5123 125.964L89.8671 125.993C88.4769 126.028 86.5629 126.092 84.4497 126.174C82.3365 126.255 80.4179 126.341 79.0323 126.412L77.3964 126.511C77.1929 126.513 76.9904 126.534 76.7939 126.575C76.9949 126.597 77.1984 126.603 77.401 126.593L79.0462 126.561C80.4365 126.529 82.3504 126.465 84.4636 126.383C86.5768 126.301 88.4954 126.216 89.881 126.142L91.5169 126.046C91.7188 126.043 91.9194 126.021 92.1147 125.982Z" fill="#455A64"/>
    <path d="M91.3365 89.0122C91.159 89.5942 91.0688 90.1899 91.0677 90.7876C90.9781 91.3773 90.9781 91.9731 91.0677 92.5629C91.2457 91.9809 91.3359 91.3853 91.3365 90.7876C91.426 90.1978 91.426 89.602 91.3365 89.0122Z" fill="#455A64"/>
    <path d="M91.9431 78.6513C91.8446 78.6421 91.745 78.6421 91.6465 78.6513H90.7984C90.0616 78.6691 88.9911 78.6975 87.675 78.7543C86.3588 78.8111 84.7878 78.8999 83.0407 79.1094C81.141 79.3064 79.3171 79.8085 77.6882 80.5829C77.2664 80.7996 76.8818 81.0561 76.5435 81.3463C76.2108 81.6343 75.9557 81.9697 75.7928 82.3334C75.5135 83.0065 75.3286 83.7004 75.2413 84.4035C75.0971 85.5837 75.0321 86.7688 75.0467 87.9542V90.3473C75.0467 90.6101 75.0467 90.8231 75.0467 90.9971C75.0346 91.0726 75.0346 91.1489 75.0467 91.2243C75.0721 91.1501 75.0861 91.0738 75.0884 90.9971C75.0884 90.8515 75.1301 90.642 75.1486 90.3473C75.1903 89.7828 75.2135 88.9661 75.2367 87.9577C75.2598 86.9493 75.2876 85.7456 75.4869 84.4248C75.5814 83.7362 75.7677 83.0568 76.043 82.3973C76.3941 81.7155 77.0252 81.1397 77.8411 80.7569C79.4346 79.9991 81.2163 79.5033 83.0732 79.3011C84.7878 79.0952 86.3542 78.9922 87.6657 78.9141L90.7799 78.7472L91.6233 78.694C91.7318 78.6902 91.8393 78.6759 91.9431 78.6513Z" fill="#455A64"/>
    <path d="M93.4306 49.9724C92.8087 49.97 92.1935 49.8735 91.6205 49.6884C91.0474 49.5033 90.5278 49.2332 90.0915 48.8936C89.6553 48.554 89.3109 48.1517 89.0783 47.7098C88.8457 47.2679 88.7294 46.7952 88.7361 46.3187C88.7361 45.0653 88.7824 43.9788 88.7824 43.9788C88.7824 43.9788 84.9963 43.7089 84.7182 40.8364C84.4401 37.9639 84.5606 31.3348 84.5606 31.3348C86.6362 30.5325 88.9537 30.169 91.2738 30.282C93.5939 30.395 95.8326 30.9803 97.7589 31.9775L98.3429 32.2793L98.1621 46.3968C98.1511 47.3511 97.647 48.2632 96.7602 48.9333C95.8734 49.6035 94.6761 49.9771 93.4306 49.9724Z" fill="#FFBE9D"/>
    <path d="M88.6711 39.0682C88.3903 39.1253 88.0983 39.1433 87.8092 39.1215C87.7325 39.1315 87.6541 39.1315 87.5775 39.1215C87.5241 39.112 87.4742 39.0933 87.4317 39.0668C87.3891 39.0404 87.355 39.0068 87.3318 38.9688C87.2805 38.825 87.2952 38.6721 87.3736 38.5356L87.6933 37.7047C88.1567 36.533 88.6202 35.5992 88.685 35.6169C88.7499 35.6347 88.4441 36.6005 87.9714 37.7722C87.8509 38.0563 87.7397 38.3261 87.6284 38.596C87.5678 38.6894 87.5421 38.7939 87.5543 38.8978C87.5543 38.9546 87.6794 38.9723 87.8138 38.9759C88.1043 38.9693 88.3942 39.0005 88.6711 39.0682Z" fill="#263238"/>
    <path d="M88.7363 43.9398C90.4706 43.8826 92.1434 43.4315 93.542 42.6438C93.542 42.6438 92.5503 44.7742 88.7873 44.6819L88.7363 43.9398Z" fill="#EB996E"/>
    <path d="M97.3557 35.4573C97.4253 35.436 99.7285 35.2052 99.5107 37.2895C99.2928 39.3738 96.6143 38.518 96.6143 38.4577C96.6143 38.3973 97.3557 35.4573 97.3557 35.4573Z" fill="#FFBE9D"/>
    <path d="M97.5415 37.7757C97.5415 37.7757 97.5832 37.8041 97.662 37.8361C97.7699 37.8809 97.8965 37.8911 98.0142 37.8645C98.1983 37.7902 98.3534 37.6796 98.4633 37.5442C98.5733 37.4088 98.6342 37.2534 98.6398 37.094C98.6672 36.9153 98.6403 36.7343 98.561 36.5649C98.5438 36.498 98.5052 36.4353 98.4486 36.3827C98.3919 36.33 98.3191 36.2889 98.2366 36.2631C98.1832 36.2482 98.1246 36.2481 98.0712 36.2631C98.0178 36.278 97.9729 36.307 97.9447 36.3448C97.903 36.4016 97.9169 36.4442 97.903 36.4478C97.8891 36.4513 97.8474 36.4087 97.8752 36.3235C97.8986 36.2729 97.9424 36.2294 98.0003 36.1992C98.0791 36.1619 98.1737 36.1492 98.2644 36.1637C98.3746 36.188 98.4749 36.2333 98.556 36.2954C98.6371 36.3575 98.6962 36.4344 98.7279 36.5188C98.824 36.7072 98.859 36.9107 98.8298 37.1117C98.8249 37.2978 98.7478 37.4786 98.6083 37.631C98.4688 37.7834 98.2733 37.9005 98.0466 37.9675C97.9714 37.9802 97.8934 37.9794 97.8187 37.9652C97.7439 37.9511 97.6745 37.9239 97.6157 37.8858C97.5415 37.8254 97.5415 37.7793 97.5415 37.7757Z" fill="#EB996E"/>
    <path d="M84.8346 31.5087C84.376 31.4043 83.9757 31.1863 83.6964 30.8887C83.4171 30.5912 83.2746 30.231 83.2914 29.8647C83.3249 29.4988 83.4875 29.1466 83.7617 28.8459C84.0359 28.5451 84.4115 28.307 84.8485 28.1569C85.2893 28.0132 85.7647 27.9422 86.2437 27.9483C86.7227 27.9544 87.1946 28.0376 87.629 28.1924C87.7617 27.6561 88.1393 27.1735 88.6942 26.8311C89.249 26.4887 89.9449 26.3089 90.657 26.3239C91.3692 26.3388 92.0511 26.5476 92.5807 26.9127C93.1102 27.2779 93.4528 27.7756 93.5469 28.3167C93.6396 27.7627 94.4738 27.4538 95.1875 27.4183C95.5509 27.39 95.918 27.4255 96.2608 27.5221C96.6037 27.6187 96.9133 27.7738 97.1663 27.9758C97.4105 28.1832 97.5457 28.4527 97.5457 28.7321C97.5457 29.0115 97.4105 29.2809 97.1663 29.4884C97.9807 29.4074 98.8056 29.5591 99.4834 29.9145C99.8186 30.096 100.089 30.339 100.27 30.6212C100.452 30.9033 100.538 31.2158 100.521 31.53C100.49 31.8429 100.332 32.1404 100.068 32.3806C99.8047 32.6208 99.4494 32.7915 99.0524 32.8686C98.779 32.9148 98.7095 32.7728 98.5612 32.9538C98.4833 33.1493 98.4473 33.3532 98.4546 33.5575C98.5078 34.2155 98.4565 34.876 98.3017 35.5245C98.0505 35.4573 97.7752 35.4661 97.5322 35.5493C97.2892 35.6325 97.097 35.7837 96.9948 35.9719C96.8084 36.3562 96.7572 36.7714 96.8465 37.1756C96.7754 37.2321 96.6889 37.2757 96.5931 37.3034C96.4973 37.331 96.3947 37.342 96.2927 37.3356C96.1907 37.3291 96.0918 37.3054 96.0032 37.266C95.9147 37.2267 95.8386 37.1728 95.7806 37.1082C95.566 36.8311 95.4703 36.5094 95.5072 36.1885L95.4516 32.8651C95.2378 32.9556 94.9974 33.003 94.753 33.0028C94.5087 33.0026 94.2684 32.9549 94.0548 32.864C93.8412 32.7731 93.6613 32.6421 93.5319 32.4833C93.4025 32.3245 93.328 32.1431 93.3152 31.9561C93.0087 32.1818 92.6405 32.3524 92.2373 32.4555C91.834 32.5585 91.4059 32.5916 90.984 32.5521C90.562 32.5127 90.1568 32.4018 89.7977 32.2275C89.4387 32.0531 89.1348 31.8197 88.9081 31.5442C88.473 31.8241 87.9953 32.0626 87.4853 32.2544C86.9666 32.4491 86.3716 32.4884 85.817 32.3644C85.5422 32.2992 85.3006 32.1703 85.1254 31.9954C84.9503 31.8205 84.8503 31.6083 84.8392 31.388L85.0292 31.2637" fill="#263238"/>
    <path d="M98.2556 79.0845H61.2095L55.1016 60.9583H86.0119L90.9057 77.9021L98.2556 78.0371V79.0845Z" fill="#465B9B"/>
    <path d="M87.1331 35.6986C87.1702 35.7377 86.8273 35.9436 86.3175 35.9507C85.8078 35.9578 85.4509 35.7696 85.488 35.7306C85.5251 35.6915 85.868 35.7767 86.3129 35.7661C86.7578 35.7554 87.1007 35.6524 87.1331 35.6986Z" fill="#263238"/>
    <path d="M85.7988 35.8904C85.7988 35.9878 85.8494 36.0813 85.9393 36.1502C86.0293 36.2192 86.1513 36.2579 86.2785 36.2579C86.4057 36.2579 86.5277 36.2192 86.6176 36.1502C86.7076 36.0813 86.7581 35.9878 86.7581 35.8904" fill="#263238"/>
    <path d="M92.3466 35.7234C92.3883 35.7624 92.0453 35.9684 91.5309 35.9755C91.0165 35.9826 90.6643 35.7944 90.7014 35.7553C90.7385 35.7163 91.086 35.8015 91.5263 35.7909C91.9666 35.7802 92.3141 35.6772 92.3466 35.7234Z" fill="#263238"/>
    <path d="M91.0166 35.9259C91.0166 36.0229 91.0669 36.1159 91.1564 36.1845C91.2459 36.2531 91.3673 36.2916 91.4939 36.2916C91.6205 36.2916 91.7419 36.2531 91.8314 36.1845C91.921 36.1159 91.9713 36.0229 91.9713 35.9259" fill="#263238"/>
    <path d="M92.6843 34.7898C92.6472 34.9425 92.1097 34.9993 91.4748 35.0064C90.8399 35.0135 90.2977 34.9638 90.2606 34.8111C90.2235 34.6584 90.7565 34.4561 91.4655 34.4561C92.1746 34.4561 92.7168 34.6407 92.6843 34.7898Z" fill="#263238"/>
    <path d="M87.3044 35.0203C87.2719 35.173 86.7344 35.2333 86.0995 35.2404C85.4646 35.2475 84.9224 35.1943 84.8807 35.0416C84.839 34.8889 85.3812 34.6865 86.0902 34.6865C86.7992 34.6865 87.3461 34.8605 87.3044 35.0203Z" fill="#263238"/>
    <path d="M100.845 36.5331C100.845 37.052 100.576 37.5496 100.097 37.9165C99.6183 38.2834 98.9689 38.4895 98.2916 38.4895C96.9014 38.4895 96.3916 37.616 96.3916 36.5331C96.3916 35.4501 96.8828 34.5802 98.2916 34.5802C98.9681 34.5802 99.6168 34.7858 100.096 35.152C100.574 35.5181 100.844 36.0148 100.845 36.5331Z" fill="#455A64"/>
    <path d="M98.0742 35.042C98.0742 35.042 100.048 27.7844 93.5605 28.0684L93.25 27.6139C93.25 27.6139 97.1798 26.9038 98.6164 29.2473C99.7379 31.0723 99.0104 34.9639 99.0104 34.9639L98.0742 35.042Z" fill="#455A64"/>
    <path d="M98.6164 38.4896C98.3025 38.4988 97.9964 38.4134 97.7637 38.2517C97.1629 37.8979 96.767 37.3779 96.6608 36.803C96.5732 36.2308 96.7362 35.6525 97.1242 35.159C97.4533 34.7791 97.8657 34.7294 97.8611 34.7543C97.6188 34.8749 97.4159 35.0364 97.2679 35.2265C96.9561 35.7065 96.8322 36.2454 96.9111 36.7782C97.0129 37.3082 97.356 37.7936 97.8796 38.1487C98.1076 38.2833 98.3548 38.3977 98.6164 38.4896Z" fill="#263238"/>
    <path d="M88.8336 39.8316C88.8706 39.8742 88.8011 39.963 88.6528 39.995C88.5045 40.0269 88.3794 39.995 88.3887 39.9275C88.3979 39.86 88.486 39.8387 88.5879 39.8174C88.6899 39.7961 88.7965 39.7748 88.8336 39.8316Z" fill="#263238"/>
    <path d="M78.8054 41.0317C79.4119 41.0317 79.9037 40.6549 79.9037 40.1901C79.9037 39.7254 79.4119 39.3486 78.8054 39.3486C78.1988 39.3486 77.707 39.7254 77.707 40.1901C77.707 40.6549 78.1988 41.0317 78.8054 41.0317Z" fill="#263238"/>
    <path d="M79.7461 39.9098C79.1618 39.4298 78.6801 38.8822 78.3188 38.2871C77.8911 37.7235 77.5164 37.1374 77.1973 36.5331C77.7279 37.0464 78.1789 37.6053 78.5412 38.1983C79.1854 39.1499 79.7971 39.8778 79.7461 39.9098Z" fill="#263238"/>
    <path d="M79.218 35.6064C79.2783 35.6242 79.0419 36.0609 78.4256 36.3627C78.2556 36.467 78.0586 36.5425 77.8477 36.5841C77.6368 36.6257 77.4168 36.6326 77.2021 36.6042C77.2021 36.5509 77.7444 36.487 78.2958 36.21C78.8473 35.9331 79.1578 35.5709 79.218 35.6064Z" fill="#263238"/>
    <path d="M79.6951 36.3981C79.7554 36.3981 79.5468 36.8526 78.9212 37.1082C78.7481 37.2016 78.5478 37.2611 78.3378 37.2815C78.1277 37.3019 77.9144 37.2827 77.7163 37.2254C78.0875 37.1571 78.4503 37.0645 78.8007 36.9485C79.3568 36.7248 79.6303 36.3732 79.6951 36.3981Z" fill="#263238"/>
    <path d="M73.1094 39.7003C73.0255 39.7839 72.9112 39.8465 72.7808 39.8802C72.6504 39.914 72.5099 39.9173 72.3771 39.8898C72.2443 39.8623 72.1251 39.8052 72.0346 39.7258C71.9442 39.6463 71.8865 39.5481 71.869 39.4435C71.8514 39.339 71.8748 39.2328 71.936 39.1384C71.9973 39.044 72.0938 38.9657 72.2132 38.9133C72.3327 38.861 72.4697 38.837 72.607 38.8443C72.7442 38.8517 72.8755 38.8901 72.9843 38.9547C73.1296 39.041 73.2244 39.1679 73.2479 39.3077C73.2713 39.4475 73.2215 39.5886 73.1094 39.7003Z" fill="#263238"/>
    <path d="M73.1702 39.5121C73.079 39.0991 73.0995 38.6761 73.2305 38.2694C73.2904 37.8574 73.4132 37.4522 73.5966 37.0621C73.6477 37.4765 73.6053 37.8944 73.4715 38.2978C73.4166 38.7084 73.3158 39.1147 73.1702 39.5121Z" fill="#263238"/>
    <path d="M75.7047 37.6694C75.369 37.7646 75.0052 37.7858 74.6546 37.7306C74.304 37.6754 73.9807 37.5459 73.7213 37.3569C73.5637 37.2255 73.5359 37.1048 73.5637 37.0977C73.5915 37.0906 73.6703 37.1723 73.8371 37.2611C74.053 37.3793 74.2947 37.4671 74.5508 37.5203C75.1625 37.6516 75.6954 37.6126 75.7047 37.6694Z" fill="#263238"/>
    <path d="M75.2188 40.3108C75.1349 40.3941 75.0208 40.4565 74.8907 40.4902C74.7607 40.5239 74.6205 40.5273 74.4879 40.5C74.3553 40.4727 74.2363 40.4159 74.1457 40.3369C74.0552 40.2578 73.9972 40.1599 73.9792 40.0557C73.9611 39.9514 73.9838 39.8454 74.0443 39.7509C74.1047 39.6565 74.2004 39.5779 74.3191 39.5251C74.4378 39.4722 74.5742 39.4475 74.7113 39.454C74.8483 39.4605 74.9797 39.498 75.089 39.5616C75.162 39.6042 75.2233 39.6573 75.2693 39.718C75.3154 39.7788 75.3453 39.8459 75.3574 39.9155C75.3694 39.9852 75.3634 40.056 75.3396 40.1238C75.3158 40.1916 75.2748 40.2552 75.2188 40.3108Z" fill="#263238"/>
    <path d="M75.2967 40.1228C75.2027 39.7099 75.2233 39.2865 75.357 38.8801C75.4146 38.4666 75.5375 38.0601 75.7231 37.6693C75.7739 38.085 75.73 38.5043 75.5933 38.9085C75.5412 39.3192 75.442 39.7255 75.2967 40.1228Z" fill="#263238"/>
    <path d="M75.6451 38.0314C75.4738 38.1052 75.2841 38.1503 75.0884 38.1637C74.8927 38.1772 74.6955 38.1587 74.5098 38.1095C73.8656 37.9923 73.4902 37.6799 73.5366 37.6479C73.5829 37.616 74 37.8255 74.5654 37.9284C75.1307 38.0314 75.6312 37.9781 75.6451 38.0314Z" fill="#263238"/>
    <path d="M112.95 64.2036C112.867 64.2091 112.783 64.2091 112.7 64.2036H111.991L109.373 64.129C107.162 64.058 104.113 63.9479 100.744 63.813L99.0153 63.7456H98.8994V63.6603C98.8994 61.4021 98.9272 59.3995 98.9365 57.9366C98.9365 57.2265 98.9643 56.6619 98.9736 56.2394C98.9736 56.0548 98.9736 55.9056 98.9736 55.7814C98.9747 55.7277 98.9824 55.6742 98.9967 55.6216C99.0169 55.6733 99.0247 55.7275 99.0199 55.7814C99.0199 55.9056 99.0199 56.0548 99.0431 56.2394C99.0431 56.6619 99.0431 57.2336 99.0755 57.9366C99.0755 59.4031 99.1033 61.4021 99.1172 63.6603L99.006 63.568L100.73 63.6355C104.099 63.7704 107.153 63.9018 109.359 63.9905L111.973 64.1255L112.682 64.1716C112.773 64.1705 112.864 64.1814 112.95 64.2036Z" fill="#263238"/>
    <path d="M106.346 48.7084C105.795 48.6557 105.238 48.6426 104.683 48.6693C103.351 48.7807 102.109 49.2366 101.161 49.9618C100.234 50.7053 99.605 51.6369 99.3486 52.6461C99.1447 53.4201 99.1865 53.9208 99.1401 53.9172C99.1001 53.8015 99.0829 53.6818 99.0891 53.5622C99.0621 52.1737 99.7439 50.8322 100.989 49.8233C101.971 49.0651 103.278 48.6048 104.669 48.5273C105.085 48.5061 105.502 48.5276 105.911 48.5912C106.064 48.6107 106.211 48.6504 106.346 48.7084Z" fill="#263238"/>
    <path d="M80.7553 54.2191C80.824 54.5608 80.8516 54.9067 80.8377 55.2524C80.8377 55.8915 80.8652 56.7898 80.8377 57.7734C80.8102 58.7036 80.7873 59.5487 80.7644 60.2375C80.7644 60.6317 80.7644 60.9157 80.7644 61.1962C80.7644 60.8767 80.7644 60.5571 80.7644 60.1097C80.7644 59.3996 80.7186 58.5758 80.6957 57.6242C80.6728 56.6726 80.6957 55.8489 80.6957 55.2133C80.6764 54.8812 80.6964 54.5484 80.7553 54.2191Z" fill="#263238"/>
    <path d="M73.6151 70.0125C73.616 70.3308 73.4937 70.6421 73.2636 70.9071C73.0335 71.1721 72.7059 71.3788 72.3224 71.5011C71.9389 71.6233 71.5166 71.6557 71.1091 71.594C70.7016 71.5324 70.3271 71.3795 70.033 71.1547C69.739 70.9299 69.5386 70.6433 69.4572 70.3311C69.3758 70.019 69.4171 69.6955 69.5759 69.4013C69.7346 69.1072 70.0037 68.8558 70.349 68.6789C70.6943 68.502 71.1004 68.4076 71.5158 68.4076C72.0718 68.4076 72.605 68.5766 72.9986 68.8774C73.3922 69.1783 73.6139 69.5865 73.6151 70.0125Z" fill="#F5F5F5"/>
</svg>
