<svg width="301" height="290" viewBox="0 0 301 290" fill="none" xmlns="http://www.w3.org/2000/svg">
    <path d="M301 255.393H0V255.588H301V255.393Z" fill="#E0E0E0"/>
    <path d="M72.0297 263.653H51.7183V263.849H72.0297V263.653Z" fill="#E0E0E0"/>
    <path d="M47.2991 263.747H35.2471V263.942H47.2991V263.747Z" fill="#E0E0E0"/>
    <path d="M182.479 259.566H125.415V259.761H182.479V259.566Z" fill="#E0E0E0"/>
    <path d="M101.004 269.184H82.8115V269.379H101.004V269.184Z" fill="#E0E0E0"/>
    <path d="M249.029 262.249H201.67V262.445H249.029V262.249Z" fill="#E0E0E0"/>
    <path d="M142.674 220.602H26.4338C25.5232 220.6 24.6504 220.13 24.0071 219.294C23.3638 218.459 23.0024 217.328 23.0024 216.148V4.41516C23.0104 3.24196 23.3752 2.12019 24.0177 1.29351C24.6602 0.466835 25.5284 0.00200974 26.4338 0H142.674C143.586 0 144.46 0.469276 145.105 1.30459C145.749 2.13991 146.111 3.27284 146.111 4.45416V216.148C146.111 217.329 145.749 218.462 145.105 219.297C144.46 220.133 143.586 220.602 142.674 220.602ZM26.4338 0.156013C25.5631 0.15808 24.7286 0.60772 24.1135 1.40624C23.4984 2.20476 23.1529 3.28691 23.1529 4.41516V216.148C23.1529 217.276 23.4984 218.358 24.1135 219.157C24.7286 219.955 25.5631 220.405 26.4338 220.407H142.674C143.545 220.405 144.38 219.955 144.996 219.157C145.613 218.359 145.959 217.277 145.961 216.148V4.41516C145.959 3.28619 145.613 2.20406 144.996 1.40576C144.38 0.607466 143.545 0.158075 142.674 0.156013H26.4338Z" fill="#E0E0E0"/>
    <path d="M272.892 220.602H156.645C155.734 220.6 154.861 220.13 154.217 219.295C153.572 218.46 153.21 217.328 153.208 216.148V4.41516C153.218 3.24125 153.584 2.11949 154.227 1.29303C154.871 0.466562 155.739 0.00198783 156.645 0H272.892C273.796 0.00405983 274.663 0.469792 275.304 1.29625C275.945 2.12271 276.309 3.24331 276.317 4.41516V216.148C276.317 217.326 275.957 218.457 275.314 219.292C274.672 220.127 273.801 220.598 272.892 220.602ZM156.645 0.156013C155.774 0.158075 154.939 0.607466 154.323 1.40576C153.707 2.20406 153.36 3.28619 153.359 4.41516V216.148C153.36 217.277 153.707 218.359 154.323 219.157C154.939 219.955 155.774 220.405 156.645 220.407H272.892C273.763 220.405 274.598 219.955 275.214 219.157C275.83 218.359 276.177 217.277 276.179 216.148V4.41516C276.177 3.28619 275.83 2.20406 275.214 1.40576C274.598 0.607466 273.763 0.158075 272.892 0.156013H156.645Z" fill="#E0E0E0"/>
    <path d="M253.574 164.422H238.235V255.392H253.574V164.422Z" fill="#E0E0E0"/>
    <path d="M250.661 255.393H253.574V244.651H247.608L250.661 255.393Z" fill="#F0F0F0"/>
    <path d="M196.251 164.422H180.912V255.392H196.251V164.422Z" fill="#E0E0E0"/>
    <path d="M253.575 164.422H193.706V248.801H253.575V164.422Z" fill="#F0F0F0"/>
    <path d="M224.617 207.481V235.376H251.316V207.481H224.617Z" fill="#E0E0E0"/>
    <path d="M195.968 207.481V235.376H222.666V207.481H195.968Z" fill="#E0E0E0"/>
    <path d="M211.958 210.492H206.672C205.537 210.492 204.414 210.192 203.372 209.609C202.33 209.027 201.39 208.176 200.61 207.107H218.02C217.241 208.176 216.301 209.027 215.258 209.609C214.216 210.192 213.093 210.492 211.958 210.492Z" fill="#F0F0F0"/>
    <path d="M240.878 210.492H235.598C234.462 210.492 233.339 210.192 232.295 209.61C231.252 209.028 230.311 208.176 229.53 207.107H246.946C246.165 208.175 245.224 209.026 244.181 209.608C243.138 210.19 242.014 210.491 240.878 210.492Z" fill="#F0F0F0"/>
    <path d="M224.617 170.771V198.666H251.316V170.771H224.617Z" fill="#E0E0E0"/>
    <path d="M195.963 170.779V198.674H222.662V170.779H195.963Z" fill="#E0E0E0"/>
    <path d="M211.958 173.782H206.672C205.538 173.782 204.416 173.482 203.373 172.901C202.331 172.321 201.391 171.471 200.61 170.405H218.02C217.239 171.471 216.299 172.321 215.257 172.901C214.215 173.482 213.092 173.782 211.958 173.782Z" fill="#F0F0F0"/>
    <path d="M240.878 173.782H235.598C234.463 173.782 233.34 173.482 232.297 172.902C231.253 172.321 230.312 171.471 229.53 170.405H246.946C246.164 171.471 245.223 172.32 244.179 172.9C243.136 173.481 242.013 173.781 240.878 173.782Z" fill="#F0F0F0"/>
    <path d="M196.62 255.393H193.706V244.651H199.678L196.62 255.393Z" fill="#F0F0F0"/>
    <path d="M208.514 150.17C208.514 153.649 210.38 156.067 207.695 156.067C205.01 156.067 198.798 153.649 198.798 150.17C198.798 148.5 199.31 146.899 200.221 145.719C201.132 144.538 202.368 143.875 203.656 143.875C204.944 143.875 206.18 144.538 207.091 145.719C208.002 146.899 208.514 148.5 208.514 150.17Z" fill="#E0E0E0"/>
    <path d="M216.828 153.173C216.828 156.644 218.694 159.07 216.01 159.07C213.325 159.07 207.088 156.644 207.088 153.173C207.088 151.504 207.6 149.902 208.511 148.722C209.422 147.541 210.658 146.878 211.946 146.878C213.234 146.878 214.47 147.541 215.381 148.722C216.292 149.902 216.804 151.504 216.804 153.173H216.828Z" fill="#E0E0E0"/>
    <path d="M224.793 151.332C224.793 154.803 226.66 157.229 223.975 157.229C221.29 157.229 215.077 154.803 215.077 151.332C215.077 149.663 215.589 148.061 216.5 146.881C217.411 145.7 218.647 145.037 219.935 145.037C221.224 145.037 222.459 145.7 223.371 146.881C224.282 148.061 224.793 149.663 224.793 151.332Z" fill="#E0E0E0"/>
    <path d="M195.824 152.112C195.824 152.112 196.222 164.39 211.446 164.39C226.671 164.39 227.062 152.112 227.062 152.112H195.824Z" fill="#E6E6E6"/>
    <path d="M254.212 14.8132H177.018V125.504H254.212V14.8132Z" fill="#E0E0E0"/>
    <path d="M262.473 11.3968H172.023C171.922 11.3957 171.822 11.4206 171.728 11.4699C171.635 11.5192 171.55 11.5921 171.478 11.6842C171.406 11.7762 171.35 11.8858 171.311 12.0065C171.272 12.1272 171.252 12.2567 171.252 12.3874C171.252 12.6523 171.333 12.9062 171.478 13.0935C171.622 13.2807 171.818 13.3859 172.023 13.3859H262.473C262.574 13.3859 262.674 13.36 262.767 13.3098C262.86 13.2595 262.945 13.1858 263.016 13.093C263.087 13.0002 263.143 12.89 263.181 12.769C263.219 12.6479 263.238 12.5182 263.238 12.3874C263.238 12.1247 263.157 11.8727 263.014 11.6869C262.87 11.5011 262.676 11.3968 262.473 11.3968Z" fill="#E0E0E0"/>
    <path d="M257.488 14.8132H178.548V125.504H257.488V14.8132Z" fill="#E6E6E6"/>
    <path d="M254.212 125.504H177.018V133.391H254.212V125.504Z" fill="#E0E0E0"/>
    <path d="M262.942 125.504H184.002V133.391H262.942V125.504Z" fill="#E6E6E6"/>
    <path d="M252.9 119.552V20.7495L183.135 20.7495V119.552H252.9Z" fill="#F5F5F5"/>
    <path d="M198.973 119.56L225.888 20.7574H238.59L211.675 119.56H198.973Z" fill="#FAFAFA"/>
    <path d="M214.402 119.56L241.318 20.7574H246.272L219.357 119.56H214.402Z" fill="#FAFAFA"/>
    <path d="M252.9 119.56V20.7574H252.316V119.56H252.9Z" fill="#E0E0E0"/>
    <path d="M183.188 9.61829H175.296V104.958H183.188V9.61829Z" fill="#EBEBEB"/>
    <path d="M186.259 9.61829H180.112V104.958H186.259V9.61829Z" fill="#E0E0E0"/>
    <path d="M191.081 9.61829H183.188V104.958H191.081V9.61829Z" fill="#EBEBEB"/>
    <path d="M194.151 9.61829H188.005V104.958H194.151V9.61829Z" fill="#E0E0E0"/>
    <path d="M198.973 9.61829H191.081V104.958H198.973V9.61829Z" fill="#EBEBEB"/>
    <path d="M249.963 9.61829H245.418V104.958H249.963V9.61829Z" fill="#EBEBEB"/>
    <path d="M251.737 9.61829H248.191V104.958H251.737V9.61829Z" fill="#E0E0E0"/>
    <path d="M254.508 9.61829H249.963V104.958H254.508V9.61829Z" fill="#EBEBEB"/>
    <path d="M256.283 9.61829H252.737V104.958H256.283V9.61829Z" fill="#E0E0E0"/>
    <path d="M259.06 9.61829H254.515V104.958H259.06V9.61829Z" fill="#EBEBEB"/>
    <path d="M66.4431 39.5024H58.2197V68.5754H66.4431V39.5024Z" fill="#E6E6E6"/>
    <path d="M46.9799 75.229L44.3672 84.4649H46.9799L62.969 75.229H46.9799Z" fill="#F0F0F0"/>
    <path d="M44.3672 75.229V84.4649L60.3623 75.229H44.3672Z" fill="#E0E0E0"/>
    <path d="M109.685 75.229L107.078 84.4649H109.685L125.68 75.229H109.685Z" fill="#F0F0F0"/>
    <path d="M107.078 75.229V84.4649L123.067 75.229H107.078Z" fill="#E0E0E0"/>
    <path d="M32.6341 75.666H50.0259V68.6377H32.6341V75.666Z" fill="#E0E0E0"/>
    <path d="M136.486 68.6378H50.0205V75.6662H136.486V68.6378Z" fill="#F0F0F0"/>
    <path d="M80.1382 68.5752H60.1217L57.6475 33.3397H77.664L80.1382 68.5752Z" fill="#E0E0E0"/>
    <path d="M81.1733 68.5752H61.1629L58.6826 33.3397H78.6991L81.1733 68.5752Z" fill="#F0F0F0"/>
    <path d="M63.8961 64.6749L61.9697 37.2401H75.9662L77.8926 64.6749H63.8961Z" fill="#FAFAFA"/>
    <path d="M89.252 57.1318C89.252 57.1318 89.6192 68.5754 103.808 68.5754C117.997 68.5754 118.365 57.1318 118.365 57.1318H89.252Z" fill="#E6E6E6"/>
    <path d="M74.5032 252.865H52.5724C52.0758 252.878 51.5892 252.684 51.1842 252.312C50.7793 251.939 50.4773 251.408 50.3229 250.796C50.1685 250.185 50.1698 249.525 50.3265 248.914C50.4833 248.304 50.7874 247.775 51.1938 247.405L51.549 248.029C51.26 248.309 51.0463 248.7 50.938 249.146C50.8297 249.592 50.8323 250.07 50.9454 250.514C51.0585 250.958 51.2765 251.345 51.5684 251.62C51.8603 251.895 52.2115 252.044 52.5724 252.046H74.5032C75.8471 252.044 77.1354 251.351 78.0857 250.12C79.0359 248.889 79.5705 247.219 79.5721 245.478V161.379C79.5737 159.484 80.155 157.667 81.1886 156.326C82.2222 154.986 83.6238 154.23 85.0864 154.226H91.6482V155.006H85.0864C83.7835 155.01 82.535 155.683 81.6143 156.878C80.6935 158.072 80.1757 159.691 80.1741 161.379V245.517C80.1709 247.465 79.5724 249.331 78.5096 250.708C77.4468 252.086 76.0063 252.861 74.5032 252.865Z" fill="#E0E0E0"/>
    <path d="M147.761 155.833H108.264V255.393H147.761V155.833Z" fill="#E0E0E0"/>
    <path d="M149.247 155.833H145.99V255.393H149.247V155.833Z" fill="#EBEBEB"/>
    <path d="M71.717 163.298H150.254V155.833H71.717V163.298Z" fill="#EBEBEB"/>
    <path d="M71.2472 155.833H31.75V255.393H71.2472V155.833Z" fill="#E0E0E0"/>
    <path d="M72.7275 155.833H69.4707V255.393H72.7275V155.833Z" fill="#EBEBEB"/>
    <path d="M59.0142 126.113H95.8204L101.154 154.273H64.3479L59.0142 126.113Z" fill="#E0E0E0"/>
    <path d="M64.3481 154.273L64.4986 155.833H101.305L101.16 154.273H64.3481Z" fill="#E0E0E0"/>
    <path d="M60.1519 126.113H96.9581L102.292 154.273H65.4856L60.1519 126.113Z" fill="#F0F0F0"/>
    <path d="M66.2621 152.986L61.416 127.4H96.1755L101.022 152.986H66.2621Z" fill="#FAFAFA"/>
    <path d="M75.0752 154.273L75.2197 155.833H115.752L115.602 154.273H75.0752Z" fill="#F0F0F0"/>
    <path d="M46.3961 148.735C46.3961 148.735 40.9781 136.636 48.4971 127.002C48.4971 127.002 50.4536 128.663 50.4235 130.902C50.3934 133.141 48.3285 133.695 48.768 135.583C49.2074 137.47 51.176 139.265 49.8877 140.801C48.5994 142.338 50.0924 143.703 50.0081 145.591C49.9238 147.479 46.3961 148.735 46.3961 148.735Z" fill="#F0F0F0"/>
    <path d="M46.805 149.842C46.805 149.842 49.0023 136.144 39.5268 130.075C39.5268 130.075 38.0699 132.455 38.6418 134.553C39.2137 136.651 41.3147 136.339 41.3448 138.289C41.3749 140.24 39.9602 142.759 41.5555 143.695C43.1508 144.631 42.0612 146.535 42.603 148.282C43.1448 150.029 46.805 149.842 46.805 149.842Z" fill="#F0F0F0"/>
    <path d="M38.5278 146.808C38.5278 146.808 38.7084 155.833 45.6134 155.833C52.5183 155.833 52.6809 146.808 52.6809 146.808H38.5278Z" fill="#E0E0E0"/>
    <path d="M135.896 255.393H134.523L130.592 230.306L129.906 225.914L125.62 198.612H109.191L100.288 255.393H98.915L107.987 197.528C108.017 197.331 108.099 197.154 108.218 197.027C108.338 196.9 108.489 196.831 108.643 196.833H126.168C126.322 196.831 126.473 196.9 126.593 197.027C126.712 197.154 126.794 197.331 126.824 197.528L130.586 221.538L131.279 225.93L135.896 255.393Z" fill="#EBEBEB"/>
    <path d="M162.269 255.393H160.89L151.987 198.581H135.564L131.278 225.93L130.592 230.306L126.661 255.393H125.288L129.905 225.914L130.586 221.538L134.354 197.528C134.384 197.331 134.466 197.154 134.585 197.027C134.705 196.9 134.856 196.831 135.01 196.833H152.535C152.69 196.833 152.84 196.901 152.961 197.028C153.082 197.154 153.165 197.331 153.197 197.528L162.269 255.393Z" fill="#EBEBEB"/>
    <path d="M121.778 197.707H151.963C154.732 197.704 157.39 196.295 159.367 193.782C161.344 191.27 162.483 187.854 162.54 184.267L163.665 124.826C163.681 123.501 163.494 122.185 163.114 120.954C162.734 119.724 162.169 118.604 161.452 117.659C160.735 116.714 159.881 115.963 158.938 115.45C157.995 114.936 156.983 114.671 155.96 114.669H137.039C135.145 114.671 133.318 115.574 131.904 117.208C130.491 118.842 129.591 121.093 129.376 123.531L121.778 197.707Z" fill="#E6E6E6"/>
    <path d="M138.238 197.707H106.073C105.674 197.707 105.291 197.501 105.009 197.136C104.727 196.77 104.568 196.274 104.568 195.757V195.57C104.568 194.148 105.004 192.785 105.78 191.78C106.555 190.775 107.607 190.21 108.704 190.21H138.238V197.707Z" fill="#E6E6E6"/>
    <path d="M146.821 289.498C209.709 289.498 260.69 285.753 260.69 281.134C260.69 276.515 209.709 272.77 146.821 272.77C83.9333 272.77 32.9526 276.515 32.9526 281.134C32.9526 285.753 83.9333 289.498 146.821 289.498Z" fill="#F5F5F5"/>
    <path d="M162.349 99.8053L162.731 100.212C162.872 100.367 163.03 100.515 163.183 100.662C163.488 100.965 163.77 101.268 164.123 101.556C164.757 102.14 165.432 102.672 166.108 103.204C167.47 104.26 168.898 105.177 170.377 105.945C171.85 106.735 173.368 107.387 174.917 107.896C175.304 108.029 175.704 108.117 176.091 108.228L176.679 108.391C176.802 108.391 176.679 108.391 176.679 108.428C176.599 108.451 176.523 108.494 176.456 108.553C176.403 108.62 176.403 108.62 176.426 108.605C176.542 108.388 176.633 108.152 176.696 107.903C176.905 107.051 177.033 106.17 177.078 105.28C177.149 104.312 177.172 103.293 177.166 102.266C177.166 100.204 177.037 98.0986 176.908 95.9855C176.779 93.8723 176.573 91.7518 176.356 89.6239C176.138 87.496 175.898 85.3682 175.645 83.2698L177.853 82.6344C178.826 86.8514 179.61 91.1336 180.202 95.4609C180.51 97.6615 180.724 99.8812 180.843 102.111C180.912 103.261 180.933 104.415 180.907 105.568C180.899 106.841 180.771 108.109 180.525 109.344C180.36 110.134 180.09 110.883 179.727 111.56C179.473 112.022 179.157 112.425 178.793 112.75C178.375 113.126 177.895 113.378 177.389 113.489C176.954 113.581 176.509 113.581 176.074 113.489L175.398 113.348C174.946 113.252 174.488 113.179 174.042 113.053C172.241 112.603 170.473 111.965 168.756 111.147C167.04 110.318 165.38 109.315 163.794 108.147C163.001 107.548 162.226 106.92 161.474 106.233C161.098 105.893 160.728 105.494 160.358 105.169C160.176 104.977 159.994 104.793 159.812 104.586C159.63 104.379 159.46 104.209 159.225 103.928L162.349 99.8053Z" fill="#E4897B"/>
    <path d="M155.966 96.4434C162.426 95.3425 167.618 101.896 167.618 101.896L161.71 113.363C161.71 113.363 155.379 108.265 154.263 104.792C153.112 101.179 152.66 96.9827 155.966 96.4434Z" fill="#407BFF"/>
    <path opacity="0.6" d="M155.966 96.4434C162.426 95.3425 167.618 101.896 167.618 101.896L161.71 113.363C161.71 113.363 155.379 108.265 154.263 104.792C153.112 101.179 152.66 96.9827 155.966 96.4434Z" fill="#FAFAFA"/>
    <path d="M175.698 84.2672L173.555 78.8588L179.175 78.7997C179.175 78.7997 179.287 82.5752 177.865 84.7105L175.698 84.2672Z" fill="#E4897B"/>
    <path d="M174.553 73.0439L178.735 73.9823L179.175 78.7996L173.555 78.8587L174.553 73.0439Z" fill="#E4897B"/>
    <path d="M133.12 274.95L138.382 275.586L142.023 260.04L136.761 259.397L133.12 274.95Z" fill="#E4897B"/>
    <path d="M99.6631 251.957L103.563 256.568L111.984 244.923L108.085 240.313L99.6631 251.957Z" fill="#E4897B"/>
    <path d="M105.364 254.358L102.428 247.709C102.378 247.595 102.297 247.507 102.2 247.462C102.103 247.417 101.996 247.418 101.899 247.465L97.3831 249.622C97.2713 249.683 97.1708 249.772 97.0881 249.884C97.0054 249.996 96.9423 250.129 96.903 250.274C96.8637 250.419 96.8491 250.573 96.8599 250.725C96.8708 250.877 96.907 251.025 96.9661 251.159C98.0174 253.45 98.6223 254.491 99.9026 257.41C100.695 259.213 102.252 263.321 103.338 265.818C104.425 268.315 106.439 267.067 106.163 265.914C104.906 260.742 105.147 257.838 105.499 255.57C105.57 255.159 105.522 254.729 105.364 254.358Z" fill="#263238"/>
    <path d="M138.999 273.568H132.621C132.507 273.57 132.396 273.619 132.306 273.707C132.216 273.795 132.151 273.917 132.122 274.056L130.73 280.403C130.697 280.553 130.692 280.711 130.716 280.864C130.74 281.017 130.792 281.16 130.868 281.284C130.944 281.407 131.041 281.506 131.153 281.574C131.264 281.642 131.387 281.676 131.511 281.674C133.76 281.674 134.823 281.674 137.63 281.674H146.199C148.548 281.674 149.018 278.718 148.055 278.437C143.732 277.24 141.236 275.578 139.903 274.004C139.656 273.721 139.333 273.565 138.999 273.568Z" fill="#263238"/>
    <path d="M142.023 260.04L140.143 268.057H134.729L136.755 259.405L142.023 260.04Z" fill="#CE6F64"/>
    <path d="M108.079 240.32L111.985 244.923L107.639 250.923L103.739 246.32L108.079 240.32Z" fill="#CE6F64"/>
    <path d="M162.332 91.8552C162.291 86.4838 158.426 84.6071 158.426 84.6071C158.426 84.6071 163.26 73.0958 160.775 65.456C158.291 57.8163 150.104 56.4716 147.509 60.0402C142.945 59.7964 141.495 68.042 141.495 68.042C141.495 68.042 137.677 68.8474 136.65 72.3421C135.622 75.8369 138.752 79.775 138.752 79.775C138.752 79.775 134.395 80.5138 132.791 84.7327C131.188 88.9515 132.175 94.552 136.99 99.3841C143.991 106.403 156.858 97.5961 156.858 97.5961C156.858 97.5961 162.379 98.032 162.332 91.8552Z" fill="#263238"/>
    <path d="M161.504 97.1971C161.504 97.1971 163.853 98.4901 156.007 137.479L134.278 135.108C135.405 124.025 135.893 117.139 133.232 93.8205C136.333 93.3593 139.456 93.1839 142.576 93.2959C145.885 93.3587 149.186 93.7167 152.454 94.3673C155.507 95.1198 158.527 96.0642 161.504 97.1971Z" fill="#407BFF"/>
    <path opacity="0.6" d="M161.504 97.1971C161.504 97.1971 163.853 98.4901 156.007 137.479L134.278 135.108C135.405 124.025 135.893 117.139 133.232 93.8205C136.333 93.3593 139.456 93.1839 142.576 93.2959C145.885 93.3587 149.186 93.7167 152.454 94.3673C155.507 95.1198 158.527 96.0642 161.504 97.1971Z" fill="#FAFAFA"/>
    <path d="M155.872 95.2908C154.745 94.951 153.523 94.6259 152.407 94.3673C149.139 93.7142 145.838 93.3537 142.529 93.2885C141.396 93.2368 140.262 93.2368 139.199 93.2885L139.927 95.0322C140.057 95.3426 143.158 102.62 149.048 106.75L150.669 107.888L152.178 106.536C155.984 103.115 156.548 98.6674 155.872 95.2908Z" fill="#FAFAFA"/>
    <path d="M144.472 79.4056C144.819 83.4767 144.936 90.8726 142.534 93.296C142.534 93.296 145.283 99.8644 150.486 103.507C155.09 99.3842 152.412 94.3674 152.412 94.3674C148.941 92.8897 149.259 89.624 150.063 86.5799L144.472 79.4056Z" fill="#E4897B"/>
    <path d="M146.757 82.3314L150.081 86.5798C149.878 87.2858 149.725 88.0126 149.623 88.752C148.29 88.3605 146.352 86.6094 146.328 84.8066C146.355 83.9563 146.5 83.1186 146.757 82.3314Z" fill="#CE6F64"/>
    <path d="M144.331 70.1698C143.691 76.8195 143.309 79.6345 145.465 83.6317C148.707 89.6311 155.355 89.1583 157.557 82.8928C159.542 77.2332 160.253 67.2883 155.502 63.4832C154.46 62.6396 153.264 62.1447 152.028 62.0452C150.792 61.9457 149.556 62.2449 148.437 62.9145C147.318 63.5842 146.354 64.602 145.636 65.8717C144.917 67.1414 144.468 68.6208 144.331 70.1698Z" fill="#E4897B"/>
    <path d="M148.432 61.9761C152.513 63.306 148.479 78.9253 141.972 74.3962C141.972 74.3962 142.265 67.7982 144.074 64.998C145.168 63.3297 146.727 62.249 148.432 61.9761Z" fill="#263238"/>
    <path d="M147.996 62.8404C149.758 66.446 162.825 73.2803 158.432 65.5224C154.039 57.7644 147.996 62.8404 147.996 62.8404Z" fill="#263238"/>
    <path d="M142.652 75.9255C142.579 77.2209 142.915 78.5005 143.586 79.4868C144.491 80.7797 145.683 79.9966 146.059 78.4302C146.393 77.0264 146.329 74.662 145.125 73.938C144.859 73.7906 144.569 73.7281 144.279 73.756C143.99 73.784 143.71 73.9015 143.465 74.0982C143.221 74.295 143.018 74.5647 142.877 74.8835C142.735 75.2023 142.658 75.5602 142.652 75.9255Z" fill="#E4897B"/>
    <path d="M155.982 137.479C155.982 137.479 163.341 178.441 158.431 207.316C155.142 226.659 143.273 265.729 143.273 265.729L133.994 265.434C133.994 265.434 142.974 224.427 144.835 208.306C148.013 180.717 140.055 135.743 140.055 135.743L155.982 137.479Z" fill="#263238"/>
    <path d="M147.497 145.747L142.857 154.953C144.256 165.87 145.142 176.88 145.512 187.928C152.037 173.232 148.948 153.527 147.497 145.747Z" fill="#263238"/>
    <path d="M144.039 266.335L132.575 265.966L133.239 261.54L145.754 262.286L144.039 266.335Z" fill="#407BFF"/>
    <path opacity="0.6" d="M144.039 266.335L132.575 265.966L133.239 261.54L145.754 262.286L144.039 266.335Z" fill="#FAFAFA"/>
    <path d="M151.227 137.036C151.227 137.036 146.91 180.481 137.549 204.198C129.991 223.327 109.823 250.664 109.823 250.664L104.667 243.977C104.667 243.977 118.292 214.342 123.912 201.612C137.69 170.41 126.426 146.604 134.237 135.115L151.227 137.036Z" fill="#263238"/>
    <path d="M110.339 251.521L103.679 243.357L105.893 239.574L113.146 249.009L110.339 251.521Z" fill="#407BFF"/>
    <path opacity="0.6" d="M110.339 251.521L103.679 243.357L105.893 239.574L113.146 249.009L110.339 251.521Z" fill="#FAFAFA"/>
    <path d="M134.013 133.467L132.868 135.81C132.774 135.994 132.944 136.208 133.191 136.231L156.007 138.713C156.207 138.713 156.377 138.632 156.401 138.477L156.765 136.053C156.765 135.883 156.63 135.721 156.412 135.699L134.383 133.297C134.315 133.283 134.245 133.291 134.18 133.321C134.116 133.351 134.058 133.401 134.013 133.467Z" fill="#407BFF"/>
    <path opacity="0.3" d="M134.013 133.467L132.868 135.81C132.774 135.994 132.944 136.208 133.191 136.231L156.007 138.713C156.207 138.713 156.377 138.632 156.401 138.477L156.765 136.053C156.765 135.883 156.63 135.721 156.412 135.699L134.383 133.297C134.315 133.283 134.245 133.291 134.18 133.321C134.116 133.351 134.058 133.401 134.013 133.467Z" fill="black"/>
    <path d="M136.762 136.881L136.174 136.814C136.057 136.814 135.975 136.718 135.986 136.622L136.486 133.475C136.486 133.379 136.609 133.312 136.726 133.327L137.314 133.394C137.431 133.394 137.513 133.49 137.502 133.586L137.008 136.733C136.985 136.837 136.879 136.881 136.762 136.881Z" fill="#263238"/>
    <path d="M154.333 138.802L153.746 138.735C153.628 138.735 153.546 138.639 153.558 138.543L154.057 135.388C154.057 135.3 154.18 135.233 154.298 135.248L154.885 135.315C155.002 135.315 155.085 135.411 155.073 135.499L154.58 138.654C154.556 138.75 154.456 138.809 154.333 138.802Z" fill="#263238"/>
    <path d="M145.547 137.841L144.96 137.782C144.842 137.782 144.76 137.679 144.772 137.59L145.271 134.435C145.271 134.347 145.394 134.28 145.512 134.295L146.099 134.354C146.216 134.354 146.299 134.457 146.287 134.546L145.794 137.701C145.77 137.79 145.647 137.856 145.547 137.841Z" fill="#263238"/>
    <path d="M152.007 73.8421C151.931 74.374 152.095 74.8617 152.371 74.9282C152.647 74.9947 152.958 74.6105 153.017 74.0711C153.076 73.5318 152.935 73.0441 152.653 72.985C152.371 72.9259 152.107 73.3396 152.007 73.8421Z" fill="#263238"/>
    <path d="M156.806 74.9503C156.729 75.4823 156.894 75.9699 157.17 76.0364C157.446 76.1029 157.757 75.7187 157.816 75.1794C157.875 74.64 157.734 74.1524 157.452 74.0933C157.17 74.0341 156.912 74.411 156.806 74.9503Z" fill="#263238"/>
    <path d="M157.352 74.0782L158.426 73.9452C158.426 73.9452 157.757 74.8171 157.352 74.0782Z" fill="#263238"/>
    <path d="M155.419 75.5562C155.625 76.8673 155.97 78.1374 156.447 79.3317C156.201 79.4763 155.932 79.5512 155.66 79.5512C155.388 79.5512 155.119 79.4763 154.873 79.3317L155.419 75.5562Z" fill="#DE5753"/>
    <path d="M153.087 81.1049C152.514 80.9932 151.971 80.7102 151.503 80.2795C151.035 79.8487 150.656 79.283 150.397 78.6298C150.388 78.5974 150.388 78.5616 150.399 78.5298C150.41 78.4981 150.431 78.473 150.456 78.4598C150.468 78.4526 150.482 78.4485 150.495 78.4479C150.509 78.4474 150.522 78.4503 150.535 78.4565C150.548 78.4627 150.559 78.4721 150.569 78.4841C150.579 78.4962 150.586 78.5105 150.591 78.5263C150.839 79.1353 151.197 79.6621 151.637 80.0639C152.077 80.4658 152.586 80.7313 153.122 80.8389C153.15 80.8389 153.177 80.853 153.197 80.8779C153.217 80.9028 153.228 80.9367 153.228 80.9719C153.228 81.0072 153.217 81.041 153.197 81.066C153.177 81.0909 153.15 81.1049 153.122 81.1049H153.087Z" fill="#263238"/>
    <path d="M150.862 69.6454C150.817 69.6464 150.773 69.6295 150.736 69.597C150.7 69.5645 150.672 69.5182 150.658 69.4647C150.643 69.4112 150.643 69.3533 150.656 69.2995C150.67 69.2456 150.697 69.1986 150.733 69.1651C151.042 68.8516 151.407 68.6363 151.796 68.5373C152.186 68.4382 152.588 68.4585 152.97 68.5962C152.996 68.6078 153.021 68.6258 153.041 68.6492C153.062 68.6725 153.079 68.7008 153.091 68.7324C153.103 68.764 153.11 68.7982 153.111 68.8332C153.113 68.8681 153.109 68.9031 153.099 68.9361C153.09 68.9691 153.076 68.9995 153.057 69.0256C153.039 69.0516 153.016 69.0728 152.991 69.0879C152.966 69.103 152.939 69.1117 152.911 69.1136C152.883 69.1154 152.856 69.1103 152.829 69.0986C152.514 68.9897 152.183 68.9771 151.863 69.0619C151.543 69.1467 151.244 69.3265 150.991 69.5863C150.954 69.6217 150.909 69.6423 150.862 69.6454Z" fill="#263238"/>
    <path d="M159.553 72.911C159.522 72.9109 159.491 72.9022 159.463 72.8856C159.434 72.869 159.409 72.8449 159.389 72.815C159.188 72.4895 158.929 72.2282 158.633 72.0523C158.338 71.8764 158.013 71.7909 157.686 71.8027C157.63 71.8091 157.574 71.788 157.53 71.7439C157.487 71.6999 157.458 71.6362 157.451 71.5663C157.447 71.5318 157.45 71.4967 157.457 71.4633C157.465 71.4299 157.478 71.3988 157.496 71.3719C157.513 71.345 157.535 71.3228 157.56 71.3067C157.584 71.2906 157.611 71.2809 157.639 71.2782C158.036 71.2524 158.433 71.3478 158.795 71.5562C159.157 71.7645 159.473 72.0798 159.718 72.4751C159.756 72.5259 159.777 72.5934 159.777 72.6635C159.777 72.7337 159.756 72.8011 159.718 72.8519C159.671 72.8969 159.612 72.918 159.553 72.911Z" fill="#263238"/>
    <path d="M134.836 103.632C133.952 105.837 132.972 107.978 131.899 110.046C130.842 112.085 129.726 114.08 128.522 116.001C127.306 117.929 126.002 119.767 124.617 121.505C123.9 122.355 123.201 123.219 122.432 124.017L121.845 124.623L121.704 124.771L121.516 124.956C121.392 125.083 121.263 125.201 121.128 125.31C120.594 125.771 120.014 126.138 119.402 126.404C118.249 126.877 117.032 127.045 115.825 126.899C114.744 126.763 113.68 126.468 112.654 126.02C110.753 125.185 108.94 124.061 107.257 122.673C104.017 120.029 101.033 116.919 98.3652 113.407L99.9274 111.346C101.331 112.765 102.811 114.176 104.326 115.454C105.81 116.762 107.356 117.956 108.954 119.03C110.476 120.082 112.082 120.926 113.746 121.55C115.332 122.104 116.923 122.2 118.022 121.623C118.642 121.284 119.197 120.78 119.648 120.146C120.3 119.407 120.905 118.587 121.522 117.789C122.726 116.141 123.842 114.375 124.94 112.617C126.038 110.858 127.031 108.923 127.994 107.002C128.481 106.041 128.945 105.066 129.403 104.09C129.861 103.115 130.302 102.088 130.684 101.172L134.836 103.632Z" fill="#E4897B"/>
    <path d="M101.412 112.225L99.3214 106.787L95.8447 112.344C95.8447 112.344 98.1469 114.76 100.384 114.671L101.412 112.225Z" fill="#E4897B"/>
    <path d="M97.0377 105.199L95.0703 109.935L95.8455 112.344L99.3222 106.788L97.0377 105.199Z" fill="#E4897B"/>
    <path d="M133.185 93.8205C130.518 94.4116 126.777 104.039 126.777 104.039L134.101 112.366C134.101 112.366 138.846 104.349 138.564 99.9752C138.323 96.244 136.579 93.0669 133.185 93.8205Z" fill="#407BFF"/>
    <path opacity="0.6" d="M133.185 93.8205C130.518 94.4116 126.777 104.039 126.777 104.039L134.101 112.366C134.101 112.366 138.846 104.349 138.564 99.9752C138.323 96.244 136.579 93.0669 133.185 93.8205Z" fill="#FAFAFA"/>
    <path d="M106.392 257.927C106.322 257.928 106.253 257.913 106.187 257.883C105.547 257.617 105.13 256.132 104.936 255.267C104.93 255.242 104.93 255.215 104.937 255.19C104.943 255.165 104.955 255.143 104.971 255.127C104.989 255.114 105.009 255.107 105.03 255.107C105.05 255.107 105.071 255.114 105.088 255.127C105.282 255.252 106.985 256.405 107.038 257.247C107.046 257.34 107.033 257.433 107.001 257.517C106.969 257.6 106.919 257.671 106.856 257.72C106.724 257.852 106.561 257.924 106.392 257.927ZM105.218 255.504C105.511 256.693 105.893 257.476 106.257 257.631C106.34 257.663 106.428 257.666 106.513 257.642C106.597 257.617 106.675 257.565 106.739 257.491C106.771 257.467 106.797 257.432 106.813 257.39C106.83 257.348 106.837 257.301 106.833 257.255C106.797 256.737 105.799 255.917 105.212 255.504H105.218Z" fill="#407BFF"/>
    <path d="M106.657 255.836C106.077 255.833 105.504 255.664 104.984 255.341C104.967 255.331 104.953 255.315 104.944 255.295C104.935 255.276 104.93 255.253 104.931 255.23C104.931 255.206 104.936 255.181 104.947 255.161C104.957 255.14 104.972 255.123 104.989 255.112C105.042 255.112 106.393 254.144 107.121 254.469C107.211 254.506 107.293 254.567 107.361 254.649C107.429 254.731 107.482 254.831 107.515 254.942C107.561 255.049 107.577 255.172 107.56 255.292C107.543 255.411 107.494 255.52 107.421 255.6C107.194 255.781 106.926 255.864 106.657 255.836ZM105.271 255.23C105.859 255.54 106.969 255.733 107.286 255.393C107.339 255.341 107.386 255.245 107.321 255.038C107.298 254.963 107.261 254.896 107.215 254.841C107.168 254.786 107.112 254.745 107.051 254.72C106.552 254.499 105.653 254.994 105.271 255.23Z" fill="#407BFF"/>
    <path d="M141.83 274.869C141.237 274.852 140.647 274.758 140.069 274.588C140.047 274.582 140.027 274.567 140.012 274.546C139.997 274.525 139.988 274.498 139.986 274.47C139.983 274.443 139.987 274.415 139.998 274.391C140.009 274.367 140.025 274.348 140.045 274.337C140.309 274.182 142.617 272.859 143.205 273.332C143.257 273.378 143.299 273.44 143.326 273.513C143.353 273.585 143.364 273.666 143.357 273.746C143.35 273.89 143.318 274.032 143.264 274.159C143.209 274.287 143.133 274.398 143.04 274.485C142.677 274.763 142.255 274.897 141.83 274.869ZM140.456 274.411C141.143 274.573 142.412 274.78 142.935 274.285C143.004 274.22 143.061 274.137 143.101 274.041C143.142 273.945 143.165 273.839 143.169 273.731C143.173 273.697 143.169 273.664 143.159 273.632C143.149 273.601 143.132 273.574 143.111 273.554C142.782 273.273 141.413 273.879 140.456 274.411Z" fill="#407BFF"/>
    <path d="M140.115 274.588C140.092 274.599 140.067 274.599 140.044 274.588C140.03 274.572 140.019 274.551 140.013 274.527C140.006 274.504 140.005 274.479 140.009 274.455C140.009 274.337 140.561 271.463 141.812 271.647C142.129 271.692 142.211 271.891 142.229 272.046C142.311 272.785 140.849 274.263 140.156 274.61L140.115 274.588ZM141.7 271.876C140.896 271.876 140.432 273.546 140.273 274.219C141.031 273.716 142.07 272.519 142.035 272.054C142.035 272.017 142.035 271.913 141.806 271.884L141.7 271.876Z" fill="#407BFF"/>
    <path d="M152.529 72.9847L153.604 72.8444C153.604 72.8444 152.935 73.731 152.529 72.9847Z" fill="#263238"/>
    <path opacity="0.6" d="M108.348 30.8777L91.1348 170.868L187.99 189.694L205.203 49.6962L108.348 30.8777ZM148.142 110.504C143.697 109.638 139.555 107.133 136.241 103.305C132.928 99.4779 130.591 94.4998 129.526 89.001C128.462 83.5021 128.718 77.7296 130.262 72.4138C131.806 67.098 134.568 62.4777 138.2 59.1375C141.831 55.7973 146.169 53.8873 150.663 53.649C155.158 53.4108 159.608 54.8551 163.449 57.7991C167.291 60.7432 170.353 65.0547 172.247 70.1883C174.141 75.3219 174.782 81.0469 174.089 86.6388C173.16 94.1303 169.906 100.852 165.041 105.327C160.176 109.801 154.098 111.663 148.142 110.504Z" fill="#3D509B"/>
    <g style="mix-blend-mode:multiply" opacity="0.3">
        <path d="M185.066 184.382H184.919L87.917 165.474V165.29L105.177 25.1368H105.318L202.32 44.0441V44.2288L185.066 184.382ZM88.2517 165.171L184.819 183.961L201.985 44.3174L105.418 25.558L88.2517 165.171Z" fill="#407BFF"/>
    </g>
    <path d="M151.632 111.952C150.419 111.95 149.207 111.832 148.008 111.597C141.983 110.415 136.557 106.342 132.867 100.235C129.177 94.1272 127.511 86.4591 128.218 78.8393C128.925 71.2195 131.95 64.2404 136.659 59.3662C141.368 54.492 147.394 52.1016 153.473 52.6966C159.553 53.2916 165.213 56.8258 169.266 62.5575C173.319 68.2893 175.45 75.7731 175.211 83.4387C174.973 91.1044 172.384 98.3561 167.988 103.672C163.592 108.988 157.73 111.956 151.632 111.952ZM148.279 109.41C152.55 110.24 156.92 109.459 160.838 107.164C164.756 104.869 168.045 101.164 170.29 96.5181C172.534 91.8717 173.633 86.4925 173.448 81.0604C173.262 75.6284 171.801 70.3874 169.248 66.0003C166.695 61.6131 163.166 58.2767 159.106 56.4129C155.046 54.5491 150.638 54.2417 146.44 55.5294C142.241 56.8171 138.44 59.6421 135.517 63.6474C132.594 67.6526 130.681 72.6582 130.02 78.0311C129.14 85.2372 130.569 92.5878 133.992 98.4704C137.415 104.353 142.553 108.287 148.279 109.41Z" fill="#FAFAFA"/>
    <path d="M129.435 119.165L108.1 115.014L107.358 121.046L128.693 125.196L129.435 119.165Z" fill="#407BFF"/>
    <path opacity="0.6" d="M129.435 119.165L108.1 115.014L107.358 121.046L128.693 125.196L129.435 119.165Z" fill="#FAFAFA"/>
    <path d="M146.678 122.521L132.244 119.713L131.503 125.744L145.937 128.552L146.678 122.521Z" fill="#407BFF"/>
    <path opacity="0.6" d="M146.678 122.521L132.244 119.713L131.503 125.744L145.937 128.552L146.678 122.521Z" fill="#FAFAFA"/>
    <path d="M183.744 142.244L106.593 127.236L105.851 133.267L183.002 148.276L183.744 142.244Z" fill="#FAFAFA"/>
    <path d="M144.009 147.313L105.578 139.987L104.85 146.029L143.282 153.354L144.009 147.313Z" fill="#FAFAFA"/>
    <path d="M175.613 153.793L149.948 148.801L149.207 154.832L174.872 159.825L175.613 153.793Z" fill="#FAFAFA"/>
    <path d="M165.121 164.887L103.443 152.889L102.702 158.92L164.38 170.918L165.121 164.887Z" fill="#FAFAFA"/>
    <path d="M206.237 189.694H205.65C205.652 187.86 205.472 186.034 205.115 184.256L205.703 184.079C206.066 185.915 206.245 187.801 206.237 189.694ZM203.935 180.148C202.643 176.746 200.689 173.808 198.256 171.607L198.596 171.008C201.11 173.279 203.129 176.307 204.469 179.815L203.935 180.148Z" fill="#407BFF"/>
    <path opacity="0.6" d="M206.237 189.694H205.65C205.652 187.86 205.472 186.034 205.115 184.256L205.703 184.079C206.066 185.915 206.245 187.801 206.237 189.694ZM203.935 180.148C202.643 176.746 200.689 173.808 198.256 171.607L198.596 171.008C201.11 173.279 203.129 176.307 204.469 179.815L203.935 180.148Z" fill="#FAFAFA"/>
    <path d="M187.99 169.324C184.788 169.324 181.657 170.519 178.995 172.757C176.332 174.995 174.257 178.177 173.031 181.899C171.806 185.621 171.485 189.717 172.11 193.668C172.735 197.619 174.277 201.249 176.541 204.098C178.806 206.947 181.691 208.887 184.831 209.673C187.972 210.459 191.228 210.055 194.186 208.514C197.145 206.972 199.674 204.361 201.453 201.011C203.232 197.661 204.182 193.723 204.182 189.694C204.182 184.292 202.476 179.11 199.439 175.29C196.403 171.47 192.285 169.324 187.99 169.324ZM187.99 207.426C185.203 207.426 182.477 206.386 180.16 204.438C177.842 202.49 176.035 199.72 174.968 196.48C173.902 193.24 173.622 189.674 174.166 186.235C174.71 182.795 176.053 179.635 178.024 177.155C179.995 174.675 182.506 172.986 185.241 172.302C187.975 171.618 190.809 171.969 193.384 173.311C195.96 174.653 198.161 176.926 199.71 179.842C201.258 182.758 202.085 186.187 202.085 189.694C202.085 194.397 200.6 198.907 197.957 202.233C195.314 205.558 191.728 207.426 187.99 207.426Z" fill="#407BFF"/>
    <path opacity="0.6" d="M187.99 169.324C184.788 169.324 181.657 170.519 178.995 172.757C176.332 174.995 174.257 178.177 173.031 181.899C171.806 185.621 171.485 189.717 172.11 193.668C172.735 197.619 174.277 201.249 176.541 204.098C178.806 206.947 181.691 208.887 184.831 209.673C187.972 210.459 191.228 210.055 194.186 208.514C197.145 206.972 199.674 204.361 201.453 201.011C203.232 197.661 204.182 193.723 204.182 189.694C204.182 184.292 202.476 179.11 199.439 175.29C196.403 171.47 192.285 169.324 187.99 169.324ZM187.99 207.426C185.203 207.426 182.477 206.386 180.16 204.438C177.842 202.49 176.035 199.72 174.968 196.48C173.902 193.24 173.622 189.674 174.166 186.235C174.71 182.795 176.053 179.635 178.024 177.155C179.995 174.675 182.506 172.986 185.241 172.302C187.975 171.618 190.809 171.969 193.384 173.311C195.96 174.653 198.161 176.926 199.71 179.842C201.258 182.758 202.085 186.187 202.085 189.694C202.085 194.397 200.6 198.907 197.957 202.233C195.314 205.558 191.728 207.426 187.99 207.426Z" fill="#FAFAFA"/>
    <path d="M187.989 207.419C195.77 207.419 202.078 199.483 202.078 189.694C202.078 179.905 195.77 171.969 187.989 171.969C180.208 171.969 173.9 179.905 173.9 189.694C173.9 199.483 180.208 207.419 187.989 207.419Z" fill="#407BFF"/>
    <path opacity="0.2" d="M187.989 207.419C195.77 207.419 202.078 199.483 202.078 189.694C202.078 179.905 195.77 171.969 187.989 171.969C180.208 171.969 173.9 179.905 173.9 189.694C173.9 199.483 180.208 207.419 187.989 207.419Z" fill="black"/>
    <path d="M185.8 200.91L177.531 190.507L179.61 187.898L185.8 195.686L196.377 182.379L198.45 184.995L185.8 200.91Z" fill="#FAFAFA"/>
</svg>
