<svg width="281" height="210" viewBox="0 0 281 210" fill="none" xmlns="http://www.w3.org/2000/svg">
    <path d="M281 183.999H0V184.139H281V183.999Z" fill="#E6E6E6"/>
    <path d="M238.35 191.884H232.387V192.024H238.35V191.884Z" fill="#E6E6E6"/>
    <path d="M228.262 191.951H204.012V192.092H228.262V191.951Z" fill="#E6E6E6"/>
    <path d="M174.035 190.614H133.11V190.754H174.035V190.614Z" fill="#E6E6E6"/>
    <path d="M109.567 193.053H96.5796V193.193H109.567V193.053Z" fill="#E6E6E6"/>
    <path d="M66.2881 190.681H48.4053V190.822H66.2881V190.681Z" fill="#E6E6E6"/>
    <path d="M86.1211 190.681H69.4072V190.822H86.1211V190.681Z" fill="#E6E6E6"/>
    <path d="M53.7608 188.225H36.6929V188.366H53.7608V188.225Z" fill="#E6E6E6"/>
    <path d="M133.194 158.934H24.6775C23.8274 158.932 23.0126 158.593 22.412 157.992C21.8114 157.39 21.4741 156.575 21.4741 155.725V3.18092C21.4815 2.33569 21.8221 1.5275 22.4219 0.931919C23.0217 0.336333 23.8323 0.00144793 24.6775 0H133.194C134.045 0 134.861 0.338092 135.463 0.9399C136.065 1.54171 136.403 2.35793 136.403 3.20902V155.725C136.403 156.576 136.065 157.392 135.463 157.994C134.861 158.596 134.045 158.934 133.194 158.934ZM24.6775 0.1124C23.8647 0.113889 23.0856 0.437835 22.5114 1.01313C21.9371 1.58843 21.6146 2.36807 21.6146 3.18092V155.725C21.6146 156.537 21.9371 157.317 22.5114 157.892C23.0856 158.468 23.8647 158.792 24.6775 158.793H133.194C134.007 158.792 134.787 158.468 135.362 157.893C135.937 157.318 136.261 156.538 136.263 155.725V3.18092C136.261 2.36755 135.937 1.58793 135.362 1.01279C134.787 0.437652 134.007 0.113886 133.194 0.1124H24.6775Z" fill="#E6E6E6"/>
    <path d="M254.76 158.934H146.238C145.387 158.932 144.572 158.594 143.97 157.992C143.369 157.391 143.03 156.575 143.029 155.725V3.18092C143.038 2.33517 143.38 1.527 143.98 0.931567C144.581 0.336137 145.392 0.00143214 146.238 0H254.76C255.604 0.00292493 256.413 0.338464 257.012 0.933891C257.611 1.52932 257.95 2.33666 257.958 3.18092V155.725C257.958 156.574 257.621 157.388 257.022 157.99C256.423 158.591 255.609 158.931 254.76 158.934ZM146.238 0.1124C145.424 0.113886 144.645 0.437652 144.07 1.01279C143.495 1.58793 143.171 2.36755 143.169 3.18092V155.725C143.171 156.538 143.495 157.318 144.07 157.893C144.645 158.468 145.424 158.792 146.238 158.793H254.76C255.573 158.792 256.353 158.468 256.928 157.893C257.503 157.318 257.827 156.538 257.829 155.725V3.18092C257.827 2.36755 257.503 1.58793 256.928 1.01279C256.353 0.437652 255.573 0.113886 254.76 0.1124H146.238Z" fill="#E6E6E6"/>
    <path d="M117.93 12.0662H30.3984V88.234H117.93V12.0662Z" fill="#E6E6E6"/>
    <path d="M121.516 12.0662H32.0732V88.234H121.516V12.0662Z" fill="#F0F0F0"/>
    <path d="M117.93 88.234H30.3984V91.2913H117.93V88.234Z" fill="#E6E6E6"/>
    <path d="M127.484 88.234H38.042V91.2913H127.484V88.234Z" fill="#F0F0F0"/>
    <path d="M116.502 83.221V17.0792L37.0918 17.0792V83.221H116.502Z" fill="#FAFAFA"/>
    <path d="M49.9507 83.221L65.2708 17.0792H86.2952L70.9751 83.221H49.9507Z" fill="white"/>
    <path d="M39.9808 72.1664C39.8854 72.1664 39.7939 72.1285 39.7264 72.0611C39.659 71.9936 39.6211 71.9022 39.6211 71.8068V20.3388C39.6211 20.2434 39.659 20.1519 39.7264 20.0845C39.7939 20.017 39.8854 19.9791 39.9808 19.9791C40.0762 19.9791 40.1677 20.017 40.2351 20.0845C40.3026 20.1519 40.3405 20.2434 40.3405 20.3388V71.8068C40.3405 71.9022 40.3026 71.9936 40.2351 72.0611C40.1677 72.1285 40.0762 72.1664 39.9808 72.1664Z" fill="#E6E6E6"/>
    <path d="M75.2856 83.221L90.6058 17.0792H97.878L82.5579 83.221H75.2856Z" fill="white"/>
    <path d="M116.497 83.2154V17.0736H115.862V83.2154H116.497Z" fill="#E6E6E6"/>
    <path d="M122.701 17.6243H35.1698L34.709 16.1013H122.24L122.701 17.6243Z" fill="#E0E0E0"/>
    <path d="M122.701 20.1364H35.1698L34.709 18.6134H122.24L122.701 20.1364Z" fill="#E0E0E0"/>
    <path d="M122.701 22.6486H35.1698L34.709 21.1256H122.24L122.701 22.6486Z" fill="#E0E0E0"/>
    <path d="M122.701 25.1607H35.1698L34.709 23.6377H122.24L122.701 25.1607Z" fill="#E0E0E0"/>
    <path d="M122.701 27.6729H35.1698L34.709 26.1499H122.24L122.701 27.6729Z" fill="#E0E0E0"/>
    <path d="M122.701 30.185H35.1698L34.709 28.662H122.24L122.701 30.185Z" fill="#E0E0E0"/>
    <path d="M226.593 17.0229H189.788V82.6364H226.593V17.0229Z" fill="#E6E6E6"/>
    <path d="M210.52 20.4905C209.965 20.4849 209.425 20.3154 208.966 20.0033C208.508 19.6912 208.152 19.2504 207.944 18.7365C207.735 18.2226 207.684 17.6585 207.795 17.1152C207.907 16.572 208.177 16.074 208.571 15.6838C208.965 15.2936 209.466 15.0287 210.01 14.9226C210.554 14.8164 211.118 14.8737 211.63 15.0872C212.141 15.3006 212.579 15.6608 212.886 16.1223C213.194 16.5837 213.358 17.1259 213.358 17.6805C213.35 18.4283 213.048 19.143 212.517 19.6692C211.985 20.1954 211.268 20.4905 210.52 20.4905ZM210.52 15.3763C210.076 15.3818 209.644 15.5183 209.279 15.7687C208.913 16.0191 208.629 16.3721 208.463 16.7833C208.297 17.1945 208.257 17.6456 208.346 18.0798C208.436 18.514 208.653 18.9119 208.968 19.2235C209.284 19.5351 209.684 19.7464 210.119 19.8309C210.555 19.9154 211.005 19.8693 211.414 19.6983C211.824 19.5274 212.173 19.2393 212.419 18.8702C212.665 18.5012 212.796 18.0677 212.796 17.6243C212.796 17.3267 212.737 17.032 212.622 16.7575C212.507 16.4829 212.339 16.2338 212.127 16.0247C211.916 15.8156 211.665 15.6506 211.389 15.5393C211.113 15.4279 210.817 15.3725 210.52 15.3763Z" fill="#E0E0E0"/>
    <path d="M230.572 17.0229H192.558V82.6364H230.572V17.0229Z" fill="#F0F0F0"/>
    <path d="M227.391 79.4499V20.2039L195.744 20.2039V79.4499H227.391Z" fill="#FAFAFA"/>
    <path d="M227.391 79.4499V20.2039H226.997V79.4499H227.391Z" fill="#E0E0E0"/>
    <path d="M199.375 105.971C199.375 105.971 199.768 112.585 214.802 112.585C229.835 112.585 230.223 105.971 230.223 105.971H199.375Z" fill="#E6E6E6"/>
    <path d="M168.971 117.778H153.617V181.015H168.971V117.778Z" fill="#E6E6E6"/>
    <path d="M236.787 181.015H156.567V183.999H236.787V181.015Z" fill="#E6E6E6"/>
    <path d="M168.971 181.015H239.732V117.778H168.971V181.015Z" fill="#F5F5F5"/>
    <path d="M175.007 157.118H233.696V141.675H175.007V157.118Z" fill="#E6E6E6"/>
    <path d="M175.007 175.383H233.696V159.94H175.007V175.383Z" fill="#E6E6E6"/>
    <path d="M213.127 143.366H195.576C195.296 143.366 195.027 143.255 194.829 143.057C194.631 142.859 194.52 142.59 194.52 142.31C194.52 142.029 194.631 141.76 194.829 141.561C195.027 141.361 195.295 141.249 195.576 141.247H213.127C213.408 141.249 213.677 141.361 213.875 141.561C214.073 141.76 214.184 142.029 214.184 142.31C214.184 142.59 214.073 142.859 213.874 143.057C213.676 143.255 213.408 143.366 213.127 143.366Z" fill="#F5F5F5"/>
    <path d="M175.007 138.853H233.696V123.41H175.007V138.853Z" fill="#E6E6E6"/>
    <path d="M213.127 125.107H195.576C195.295 125.105 195.027 124.993 194.829 124.794C194.631 124.595 194.52 124.325 194.52 124.045C194.52 123.764 194.631 123.496 194.829 123.297C195.027 123.099 195.296 122.988 195.576 122.988H213.127C213.408 122.988 213.676 123.099 213.874 123.297C214.073 123.496 214.184 123.764 214.184 124.045C214.184 124.325 214.073 124.595 213.875 124.794C213.677 124.993 213.408 125.105 213.127 125.107Z" fill="#F5F5F5"/>
    <path d="M213.127 161.631H195.576C195.295 161.63 195.027 161.517 194.829 161.318C194.631 161.119 194.52 160.85 194.52 160.569C194.52 160.289 194.631 160.02 194.829 159.822C195.027 159.624 195.296 159.512 195.576 159.512H213.127C213.408 159.512 213.676 159.624 213.874 159.822C214.073 160.02 214.184 160.289 214.184 160.569C214.184 160.85 214.073 161.119 213.875 161.318C213.677 161.517 213.408 161.63 213.127 161.631Z" fill="#F5F5F5"/>
    <path d="M241.778 112.585H168.971V117.778H241.778V112.585Z" fill="#EBEBEB"/>
    <path d="M151.47 117.784H168.971V112.591H151.47V117.784Z" fill="#E0E0E0"/>
    <path d="M159.529 112.585H174.788V94.298H159.529V112.585Z" fill="#E6E6E6"/>
    <path d="M201.865 94.3036H174.788V112.591H201.865V94.3036Z" fill="#FAFAFA"/>
    <path d="M194.57 103.97C194.57 105.279 191.76 106.336 188.326 106.336C184.892 106.336 182.088 105.263 182.088 103.97C182.088 102.677 184.898 101.604 188.337 101.604C191.777 101.604 194.57 102.649 194.57 103.97Z" fill="white"/>
    <g style="mix-blend-mode:multiply" opacity="0.7">
        <path d="M159.529 97.8948H202.022V96.6415H159.529V97.8948Z" fill="#E0E0E0"/>
    </g>
    <path d="M158.681 97.1754H174.782V93.5449H158.681V97.1754Z" fill="#E6E6E6"/>
    <path d="M202.702 93.5393H174.788V97.1698H202.702V93.5393Z" fill="#FAFAFA"/>
    <path d="M97.6982 103.442H39.5312L43.1618 183.999H101.329L97.6982 103.442Z" fill="#E6E6E6"/>
    <path d="M98.541 103.442H40.374L44.0045 183.999H102.172L98.541 103.442Z" fill="#FAFAFA"/>
    <path d="M53.1987 183.999H68.457V165.711H53.1987V183.999Z" fill="#E0E0E0"/>
    <path d="M141.506 165.711H68.4629V183.999H141.506V165.711Z" fill="#F0F0F0"/>
    <g style="mix-blend-mode:multiply" opacity="0.7">
        <path d="M53.1992 169.308H141.664V168.055H53.1992V169.308Z" fill="#E0E0E0"/>
    </g>
    <path d="M52.3616 168.583H68.4629V164.953H52.3616V168.583Z" fill="#E0E0E0"/>
    <path d="M142.349 164.953H68.4629V168.583H142.349V164.953Z" fill="#F0F0F0"/>
    <path d="M65.8496 164.953H85.7051V131.913H65.8496V164.953Z" fill="#E6E6E6"/>
    <path d="M135.313 131.913H85.6992V164.953H135.313V131.913Z" fill="#EBEBEB"/>
    <g style="mix-blend-mode:multiply" opacity="0.7">
        <path d="M65.8438 136.589H135.521V134.959H65.8438V136.589Z" fill="#E0E0E0"/>
    </g>
    <path d="M64.7537 135.644H85.7051V128.136H64.7537V135.644Z" fill="#E6E6E6"/>
    <path d="M136.408 128.136H85.6992V135.644H136.408V128.136Z" fill="#EBEBEB"/>
    <path d="M43.7294 183.999C51.4797 183.999 57.7626 177.716 57.7626 169.966C57.7626 162.215 51.4797 155.932 43.7294 155.932C35.9791 155.932 29.6963 162.215 29.6963 169.966C29.6963 177.716 35.9791 183.999 43.7294 183.999Z" fill="#F0F0F0"/>
    <g style="mix-blend-mode:multiply" opacity="0.7">
        <path d="M36.856 161.598C37.6878 160.732 38.025 159.698 37.5979 159.293C37.1708 158.889 36.1535 159.254 35.3218 160.119C34.49 160.985 34.1528 162.019 34.5743 162.429C34.9958 162.84 36.0187 162.469 36.856 161.598Z" fill="#E0E0E0"/>
    </g>
    <g style="mix-blend-mode:multiply" opacity="0.7">
        <path d="M42.7119 158.967C43.8921 158.743 44.7632 158.091 44.6508 157.512C44.5384 156.933 43.4931 156.646 42.3072 156.877C41.1214 157.107 40.2616 157.753 40.3683 158.332C40.4751 158.911 41.5036 159.198 42.7119 158.967Z" fill="#E0E0E0"/>
    </g>
    <g style="mix-blend-mode:multiply" opacity="0.7">
        <path d="M41.4871 163.868C42.6111 163.469 43.3473 162.581 43.1 161.884C42.8527 161.187 41.7344 160.946 40.5991 161.322C39.4639 161.699 38.7445 162.609 38.9862 163.306C39.2278 164.003 40.3518 164.267 41.4871 163.868Z" fill="#E0E0E0"/>
    </g>
    <path d="M140.5 209.379C200.68 209.379 249.466 206.53 249.466 203.017C249.466 199.503 200.68 196.655 140.5 196.655C80.3195 196.655 31.5337 199.503 31.5337 203.017C31.5337 206.53 80.3195 209.379 140.5 209.379Z" fill="#F5F5F5"/>
    <path d="M172.669 31.7192H107.994C103.456 31.7192 99.7773 35.3979 99.7773 39.9357V194.795C99.7773 199.333 103.456 203.011 107.994 203.011H172.669C177.207 203.011 180.885 199.333 180.885 194.795V39.9357C180.885 35.3979 177.207 31.7192 172.669 31.7192Z" fill="#465B9B"/>
    <path opacity="0.7" d="M172.669 31.7192H107.994C103.456 31.7192 99.7773 35.3979 99.7773 39.9357V194.795C99.7773 199.333 103.456 203.011 107.994 203.011H172.669C177.207 203.011 180.885 199.333 180.885 194.795V39.9357C180.885 35.3979 177.207 31.7192 172.669 31.7192Z" fill="white"/>
    <path d="M174.838 31.427H110.163C105.625 31.427 101.947 35.1056 101.947 39.6434V194.503C101.947 199.04 105.625 202.719 110.163 202.719H174.838C179.376 202.719 183.055 199.04 183.055 194.503V39.6434C183.055 35.1056 179.376 31.427 174.838 31.427Z" fill="#465B9B"/>
    <path opacity="0.2" d="M174.838 31.427H110.163C105.625 31.427 101.947 35.1056 101.947 39.6434V194.503C101.947 199.04 105.625 202.719 110.163 202.719H174.838C179.376 202.719 183.055 199.04 183.055 194.503V39.6434C183.055 35.1056 179.376 31.427 174.838 31.427Z" fill="black"/>
    <path d="M145.664 195.171C145.666 195.895 145.452 196.604 145.05 197.206C144.649 197.809 144.077 198.278 143.408 198.556C142.74 198.834 142.004 198.907 141.293 198.766C140.583 198.625 139.931 198.276 139.419 197.764C138.907 197.252 138.558 196.6 138.417 195.889C138.276 195.179 138.349 194.443 138.627 193.774C138.904 193.105 139.374 192.534 139.977 192.133C140.579 191.731 141.287 191.517 142.011 191.518C142.98 191.518 143.909 191.903 144.594 192.588C145.28 193.273 145.664 194.202 145.664 195.171Z" fill="#465B9B"/>
    <path opacity="0.4" d="M145.664 195.171C145.666 195.895 145.452 196.604 145.05 197.206C144.649 197.809 144.077 198.278 143.408 198.556C142.74 198.834 142.004 198.907 141.293 198.766C140.583 198.625 139.931 198.276 139.419 197.764C138.907 197.252 138.558 196.6 138.417 195.889C138.276 195.179 138.349 194.443 138.627 193.774C138.904 193.105 139.374 192.534 139.977 192.133C140.579 191.731 141.287 191.517 142.011 191.518C142.98 191.518 143.909 191.903 144.594 192.588C145.28 193.273 145.664 194.202 145.664 195.171Z" fill="black"/>
    <path d="M182.402 189.815H101.699V42.6165H182.964L182.402 189.815Z" fill="#465B9B"/>
    <path opacity="0.8" d="M183.116 189.737L101.654 189.832V42.6276L183.043 42.5433L183.116 189.737Z" fill="white"/>
    <path opacity="0.33" d="M95.5566 45.0836H94.9946V52.5133H95.5566V45.0836Z" fill="#465B9B"/>
    <path opacity="0.33" d="M95.5566 54.5758H94.9946V56.9025H95.5566V54.5758Z" fill="#465B9B"/>
    <path d="M165.509 48.7085H109.528C106.443 48.7085 103.942 51.2096 103.942 54.2948V87.7113C103.942 90.7965 106.443 93.2976 109.528 93.2976H165.509C168.594 93.2976 171.095 90.7965 171.095 87.7113V54.2948C171.095 51.2096 168.594 48.7085 165.509 48.7085Z" fill="white"/>
    <path opacity="0.27" d="M117.097 65.8704C120.885 64.2864 122.672 59.9311 121.088 56.1425C119.504 52.3539 115.149 50.5668 111.36 52.1508C107.572 53.7348 105.785 58.0902 107.369 61.8787C108.953 65.6673 113.308 67.4544 117.097 65.8704Z" fill="#465B9B"/>
    <path d="M120.369 59.0099C120.373 60.0312 120.118 61.0369 119.627 61.9323C118.914 63.2476 117.745 64.257 116.34 64.771C114.935 65.2849 113.391 65.2679 111.997 64.7232C110.604 64.1784 109.457 63.1434 108.773 61.8128C108.09 60.4822 107.915 58.9475 108.283 57.4974C108.651 56.0473 109.537 54.7816 110.772 53.9383C112.008 53.095 113.509 52.7321 114.994 52.9179C116.478 53.1037 117.844 53.8253 118.834 54.9472C119.824 56.069 120.369 57.5138 120.369 59.0099Z" fill="white"/>
    <path opacity="0.27" d="M119.627 61.9267C119.101 62.8983 118.321 63.7096 117.372 64.275C116.422 64.8404 115.337 65.1388 114.232 65.1388C113.127 65.1388 112.042 64.8404 111.093 64.275C110.143 63.7096 109.364 62.8983 108.837 61.9267C110.434 60.8604 112.312 60.2913 114.232 60.2913C116.153 60.2913 118.03 60.8604 119.627 61.9267Z" fill="#465B9B"/>
    <path opacity="0.27" d="M114.232 59.6338C115.74 59.6338 116.963 58.4109 116.963 56.9025C116.963 55.394 115.74 54.1711 114.232 54.1711C112.723 54.1711 111.5 55.394 111.5 56.9025C111.5 58.4109 112.723 59.6338 114.232 59.6338Z" fill="#465B9B"/>
    <path d="M166.976 97.417H108.061C105.786 97.417 103.942 99.2613 103.942 101.536V108.904C103.942 111.179 105.786 113.024 108.061 113.024H166.976C169.251 113.024 171.095 111.179 171.095 108.904V101.536C171.095 99.2613 169.251 97.417 166.976 97.417Z" fill="white"/>
    <path opacity="0.6" d="M182.509 114.536L190.45 136.42C190.655 136.992 190.625 137.623 190.367 138.173C190.109 138.724 189.644 139.15 189.073 139.359L147.412 154.471C146.84 154.676 146.211 154.647 145.66 154.39C145.11 154.134 144.683 153.67 144.473 153.1L136.532 131.21C136.326 130.638 136.355 130.008 136.613 129.458C136.871 128.908 137.337 128.483 137.909 128.276L179.57 113.159C180.142 112.954 180.772 112.984 181.323 113.242C181.874 113.5 182.3 113.965 182.509 114.536Z" fill="#465B9B"/>
    <path d="M181.25 113.209L169.341 132.806C168.239 134.623 166.548 136.009 164.55 136.734C162.551 137.458 160.366 137.478 158.354 136.791L136.65 129.384C136.911 128.863 137.362 128.461 137.909 128.26L179.57 113.142C180.118 112.952 180.719 112.976 181.25 113.209Z" fill="#465B9B"/>
    <path opacity="0.5" d="M181.25 113.209L169.341 132.806C168.239 134.623 166.548 136.009 164.55 136.734C162.551 137.458 160.366 137.478 158.354 136.791L136.65 129.384C136.911 128.863 137.362 128.461 137.909 128.26L179.57 113.142C180.118 112.952 180.719 112.976 181.25 113.209Z" fill="white"/>
    <path opacity="0.6" d="M169.443 152.15L169.061 171.865C169.049 172.379 168.834 172.868 168.464 173.225C168.093 173.582 167.597 173.778 167.082 173.77L129.546 173.04C129.292 173.035 129.041 172.979 128.807 172.877C128.574 172.775 128.363 172.628 128.187 172.444C128.01 172.26 127.872 172.044 127.779 171.807C127.687 171.569 127.642 171.316 127.647 171.062L128.023 151.347C128.03 151.08 128.091 150.817 128.202 150.575C128.313 150.333 128.472 150.115 128.67 149.936C129.035 149.609 129.511 149.432 130.002 149.441L167.538 150.166C168.053 150.178 168.543 150.393 168.9 150.765C169.257 151.137 169.452 151.635 169.443 152.15Z" fill="#465B9B"/>
    <path d="M168.853 150.717L153.476 162.587C152.05 163.686 150.292 164.267 148.492 164.232C146.691 164.197 144.956 163.549 143.574 162.395L128.698 149.936C129.063 149.609 129.539 149.432 130.03 149.441L167.566 150.166C168.048 150.184 168.507 150.38 168.853 150.717Z" fill="#465B9B"/>
    <path opacity="0.5" d="M168.853 150.717L153.476 162.587C152.05 163.686 150.292 164.267 148.492 164.232C146.691 164.197 144.956 163.549 143.574 162.395L128.698 149.936C129.063 149.609 129.539 149.432 130.03 149.441L167.566 150.166C168.048 150.184 168.507 150.38 168.853 150.717Z" fill="white"/>
    <path d="M131.581 36.0635C131.582 35.8081 131.659 35.5587 131.802 35.3469C131.944 35.1351 132.147 34.9703 132.383 34.8733C132.619 34.7763 132.879 34.7515 133.129 34.802C133.38 34.8525 133.609 34.9761 133.79 35.1571C133.97 35.3381 134.092 35.5684 134.142 35.819C134.191 36.0696 134.165 36.3292 134.067 36.565C133.969 36.8009 133.804 37.0024 133.591 37.1442C133.379 37.286 133.129 37.3617 132.874 37.3617C132.703 37.3617 132.535 37.3281 132.378 37.2628C132.221 37.1974 132.078 37.1017 131.958 36.9811C131.838 36.8605 131.742 36.7173 131.678 36.5599C131.613 36.4024 131.58 36.2337 131.581 36.0635Z" fill="#465B9B"/>
    <path d="M137.341 34.7709H148.081C148.424 34.7724 148.752 34.909 148.994 35.1511C149.236 35.3932 149.372 35.7211 149.374 36.0635C149.374 36.4068 149.238 36.7362 148.996 36.9795C148.753 37.2228 148.425 37.3602 148.081 37.3617H137.341C136.998 37.3602 136.669 37.2228 136.427 36.9795C136.185 36.7362 136.049 36.4068 136.049 36.0635C136.05 35.7211 136.187 35.3932 136.429 35.1511C136.671 34.909 136.999 34.7724 137.341 34.7709Z" fill="#465B9B"/>
    <path opacity="0.4" d="M131.581 36.0635C131.582 35.8081 131.659 35.5587 131.802 35.3469C131.944 35.1351 132.147 34.9703 132.383 34.8733C132.619 34.7763 132.879 34.7515 133.129 34.802C133.38 34.8525 133.609 34.9761 133.79 35.1571C133.97 35.3381 134.092 35.5684 134.142 35.819C134.191 36.0696 134.165 36.3292 134.067 36.565C133.969 36.8009 133.804 37.0024 133.591 37.1442C133.379 37.286 133.129 37.3617 132.874 37.3617C132.703 37.3617 132.535 37.3281 132.378 37.2628C132.221 37.1974 132.078 37.1017 131.958 36.9811C131.838 36.8605 131.742 36.7173 131.678 36.5599C131.613 36.4024 131.58 36.2337 131.581 36.0635Z" fill="black"/>
    <path opacity="0.4" d="M137.341 34.7709H148.081C148.424 34.7724 148.752 34.909 148.994 35.1511C149.236 35.3932 149.372 35.7211 149.374 36.0635C149.374 36.4068 149.238 36.7362 148.996 36.9795C148.753 37.2228 148.425 37.3602 148.081 37.3617H137.341C136.998 37.3602 136.669 37.2228 136.427 36.9795C136.185 36.7362 136.049 36.4068 136.049 36.0635C136.05 35.7211 136.187 35.3932 136.429 35.1511C136.671 34.909 136.999 34.7724 137.341 34.7709Z" fill="black"/>
    <path d="M183.167 60.814H177.811C176.566 60.814 175.557 61.8229 175.557 63.0676V79.3824C175.557 80.6271 176.566 81.6361 177.811 81.6361H183.167C184.411 81.6361 185.42 80.6271 185.42 79.3824V63.0676C185.42 61.8229 184.411 60.814 183.167 60.814Z" fill="#465B9B"/>
    <path opacity="0.8" d="M183.167 60.814H177.811C176.566 60.814 175.557 61.8229 175.557 63.0676V79.3824C175.557 80.6271 176.566 81.6361 177.811 81.6361H183.167C184.411 81.6361 185.42 80.6271 185.42 79.3824V63.0676C185.42 61.8229 184.411 60.814 183.167 60.814Z" fill="white"/>
    <path d="M183.729 87.6438H177.249C176.314 87.6438 175.557 88.4012 175.557 89.3354V97.698C175.557 98.6322 176.314 99.3896 177.249 99.3896H183.729C184.663 99.3896 185.42 98.6322 185.42 97.698V89.3354C185.42 88.4012 184.663 87.6438 183.729 87.6438Z" fill="#465B9B"/>
    <path opacity="0.8" d="M183.729 87.6438H177.249C176.314 87.6438 175.557 88.4012 175.557 89.3354V97.698C175.557 98.6322 176.314 99.3896 177.249 99.3896H183.729C184.663 99.3896 185.42 98.6322 185.42 97.698V89.3354C185.42 88.4012 184.663 87.6438 183.729 87.6438Z" fill="white"/>
    <mask id="mask0_147_3228" style="mask-type:luminance" maskUnits="userSpaceOnUse" x="99" y="42" width="82" height="148">
        <path d="M180.711 42.0432H99.603V189.248H180.711V42.0432Z" fill="white"/>
    </mask>
    <g mask="url(#mask0_147_3228)">
        <path d="M111.826 185.702L115.957 186.101L120.256 176.271L116.125 175.867L111.826 185.702Z" fill="#E4897B"/>
        <path d="M120.256 176.271L118.042 181.341H113.731L116.12 175.867L120.256 176.271Z" fill="#CE6F64"/>
        <path d="M158.276 85.098L158.411 85.4015L158.585 85.7556C158.697 85.9916 158.827 86.2333 158.956 86.4749C159.22 86.9526 159.518 87.436 159.799 87.8968C160.391 88.8403 161.042 89.745 161.749 90.6057C162.468 91.458 163.236 92.2686 164.048 93.0335C164.469 93.4044 164.879 93.7866 165.318 94.1575L165.975 94.6745L166.127 94.7982C166.056 94.7759 165.982 94.7609 165.908 94.7532C165.745 94.7365 165.581 94.7616 165.43 94.8263C165.338 94.853 165.257 94.9057 165.194 94.978C165.155 95.0342 165.256 94.9443 165.34 94.7982C165.563 94.3884 165.738 93.9548 165.863 93.5056C166.171 92.4141 166.414 91.3049 166.588 90.1842C166.779 89.0264 166.936 87.8406 167.06 86.6548C167.184 85.469 167.313 84.2607 167.425 83.0805L169.595 83.0468C169.729 84.3 169.786 85.5196 169.836 86.7672C169.887 88.0148 169.864 89.2512 169.836 90.5157C169.787 91.8158 169.638 93.1103 169.392 94.3879C169.25 95.1239 169.022 95.8407 168.712 96.5235C168.488 97.0068 168.18 97.4463 167.802 97.8217C167.509 98.0972 167.165 98.3129 166.79 98.4568C166.353 98.6205 165.883 98.6783 165.419 98.6254C165.043 98.5759 164.677 98.4618 164.34 98.2882C164.205 98.2203 164.074 98.1452 163.946 98.0634L163.733 97.9229L162.912 97.3609C162.35 96.99 161.856 96.5797 161.344 96.1694C160.333 95.3251 159.385 94.4085 158.506 93.4269C157.635 92.4366 156.833 91.3869 156.107 90.2853C155.747 89.7233 155.415 89.1613 155.095 88.5993C154.938 88.3014 154.786 88.0092 154.64 87.7001L154.426 87.2224C154.353 87.0538 154.297 86.9189 154.207 86.6885L158.276 85.098Z" fill="#E4897B"/>
        <path d="M160.175 88.0035L156.398 93.2133L157.961 94.7475L161.979 89.9143L160.175 88.0035Z" fill="#F5F5F5"/>
        <path d="M154.252 81.1303C158.506 82.2543 161.44 88.2228 161.44 88.2228L156.528 95.1073C156.528 95.1073 150.616 87.672 150.768 85.3228C150.914 82.8613 151.689 80.4391 154.252 81.1303Z" fill="#465B9B"/>
        <path opacity="0.7" d="M154.252 81.1303C158.506 82.2543 161.44 88.2228 161.44 88.2228L156.528 95.1073C156.528 95.1073 150.616 87.672 150.768 85.3228C150.914 82.8613 151.689 80.4391 154.252 81.1303Z" fill="white"/>
        <path d="M157.922 83.3277C157.922 83.3277 159.321 84.98 143.124 104.583L128.136 95.8041C131.957 89.8525 134.166 86.0928 138.578 71.8629C140.934 72.6556 143.229 73.6192 145.445 74.746C147.797 75.9306 150.072 77.2614 152.257 78.7306C155.022 80.7088 157.922 83.3277 157.922 83.3277Z" fill="#465B9B"/>
        <path opacity="0.7" d="M157.922 83.3277C157.922 83.3277 159.321 84.98 143.124 104.583L128.136 95.8041C131.957 89.8525 134.166 86.0928 138.578 71.8629C140.934 72.6556 143.229 73.6192 145.445 74.746C147.797 75.9306 150.072 77.2614 152.257 78.7306C155.022 80.7088 157.922 83.3277 157.922 83.3277Z" fill="white"/>
        <path d="M155.977 81.6361C154.921 80.7594 153.566 79.6747 152.257 78.7306C150.084 77.2428 147.807 75.9113 145.445 74.746C144.119 74.0547 142.759 73.4478 141.601 72.9869C141.416 73.296 141.568 74.2402 142.135 75.6227C144.293 78.4046 149.306 82.5016 153.488 83.3165C155.432 83.0355 156.039 82.4173 155.977 81.6361Z" fill="#F5F5F5"/>
        <path d="M142.135 75.6227C143.395 78.4291 145.072 81.0288 147.109 83.3333C149.23 83.5451 151.367 83.5451 153.488 83.3333C149.306 82.5016 144.293 78.4046 142.135 75.6227Z" fill="#F5F5F5"/>
        <path d="M143.141 104.583C143.141 104.583 143.383 143.091 136.555 154.207C129.451 165.768 120.189 179.868 120.189 179.868L112.169 179.48C112.169 179.48 121.521 158.619 125.05 148.936C129.912 135.588 132.16 98.1533 132.16 98.1533L143.141 104.583Z" fill="#465B9B"/>
        <path opacity="0.4" d="M143.141 104.583C143.141 104.583 143.383 143.091 136.555 154.207C129.451 165.768 120.189 179.868 120.189 179.868L112.169 179.48C112.169 179.48 121.521 158.619 125.05 148.936C129.912 135.588 132.16 98.1533 132.16 98.1533L143.141 104.583Z" fill="black"/>
        <path opacity="0.2" d="M134.61 105.656C133.311 106.758 132.194 108.057 131.3 109.506C131.047 112.372 130.738 115.592 130.384 118.964C132.828 115.643 134.762 109.815 134.61 105.656Z" fill="black"/>
        <path d="M139.179 102.284C139.179 102.284 122.212 126.371 111.641 139.376C103.098 149.857 78.3705 157.36 78.3705 157.36L75.3525 152.302C75.3525 152.302 95.0225 141.321 100.89 134.228C119.672 111.523 119.436 99.7494 128.158 95.866L139.179 102.284Z" fill="#465B9B"/>
        <path opacity="0.4" d="M139.179 102.284C139.179 102.284 122.212 126.371 111.641 139.376C103.098 149.857 78.3705 157.36 78.3705 157.36L75.3525 152.302C75.3525 152.302 95.0225 141.321 100.89 134.228C119.672 111.523 119.436 99.7494 128.158 95.866L139.179 102.284Z" fill="black"/>
        <path d="M167.476 83.6088L166.352 79.1128L170.64 80.3604C170.64 80.3604 170.522 83.384 169.038 84.3675L167.476 83.6088Z" fill="#E4897B"/>
        <path d="M167.717 75.5048L170.73 77.0278L170.657 80.3829L166.369 79.1353L167.717 75.5048Z" fill="#E4897B"/>
        <path d="M113.85 77.157L109.916 74.7404L113.85 72.6385C113.85 72.6385 115.867 74.8866 115.496 76.6288L113.85 77.157Z" fill="#E4897B"/>
        <path d="M108.359 71.1942L111.579 70.1826L113.872 72.6386L109.921 74.7404L108.359 71.1942Z" fill="#E4897B"/>
        <path d="M116.508 184.825H111.45C111.359 184.826 111.27 184.856 111.198 184.912C111.126 184.968 111.074 185.046 111.051 185.134L109.927 189.152C109.899 189.247 109.894 189.347 109.913 189.443C109.931 189.54 109.972 189.631 110.033 189.709C110.093 189.787 110.171 189.849 110.26 189.891C110.349 189.933 110.447 189.953 110.545 189.95C112.321 189.922 113.186 189.821 115.417 189.821C116.789 189.821 120.341 189.962 122.235 189.962C124.129 189.962 124.483 188.085 123.713 187.916C120.268 187.157 118.289 186.106 117.227 185.106C117.032 184.924 116.775 184.824 116.508 184.825Z" fill="#263238"/>
        <path d="M128.433 94.7925L126.972 95.7423C126.86 95.8153 126.922 95.9952 127.096 96.0963L142.832 105.296C142.967 105.375 143.118 105.375 143.175 105.296L144.096 104.032C144.158 103.942 144.096 103.796 143.939 103.711L128.765 94.8262C128.718 94.7901 128.663 94.7678 128.604 94.7619C128.545 94.7559 128.486 94.7665 128.433 94.7925Z" fill="#263238"/>
        <path d="M137.347 78.3091C136.285 79.1577 135.273 79.8433 134.2 80.5571C133.126 81.2708 132.036 81.8834 130.912 82.4903C128.657 83.7247 126.282 84.7283 123.825 85.4858C123.522 85.5926 123.196 85.6656 122.887 85.7499C122.578 85.8342 122.28 85.9185 121.909 85.9972C121.103 86.178 120.273 86.2198 119.453 86.1209C118.584 86.0175 117.748 85.726 117.003 85.2666C116.31 84.8287 115.703 84.2689 115.21 83.6143C114.378 82.4547 113.782 81.1429 113.456 79.7534C113.29 79.1128 113.17 78.4611 113.097 77.8033C113.007 77.1477 112.964 76.4866 112.967 75.825L115.126 75.6396C115.386 76.7366 115.737 77.8101 116.176 78.8486C116.559 79.7999 117.113 80.6725 117.812 81.4225C118.063 81.7052 118.368 81.9338 118.71 82.0942C119.052 82.2546 119.424 82.3435 119.801 82.3555C120.198 82.3524 120.592 82.2899 120.97 82.17C121.459 82.0126 122.033 81.8328 122.555 81.6417C124.718 80.8285 126.81 79.8378 128.81 78.68C129.833 78.118 130.811 77.4717 131.8 76.8479C132.789 76.224 133.761 75.5215 134.61 74.8809L137.347 78.3091Z" fill="#E4897B"/>
        <path d="M130.395 76.8366L132.34 82.7151L134.166 81.6192L132.458 75.7913L130.395 76.8366Z" fill="#F5F5F5"/>
        <path d="M118.756 185.662C118.288 185.653 117.823 185.595 117.368 185.488C117.347 185.483 117.329 185.471 117.315 185.455C117.301 185.439 117.292 185.419 117.289 185.398C117.289 185.377 117.295 185.357 117.306 185.339C117.316 185.321 117.332 185.306 117.351 185.297C117.688 185.134 119.419 184.353 119.88 184.662C119.924 184.693 119.959 184.736 119.981 184.785C120.002 184.835 120.01 184.889 120.004 184.943C120.001 185.038 119.977 185.13 119.933 185.214C119.889 185.298 119.827 185.37 119.751 185.426C119.451 185.606 119.104 185.689 118.756 185.662ZM117.722 185.353C118.284 185.454 119.228 185.567 119.627 185.263C119.681 185.225 119.725 185.175 119.755 185.116C119.786 185.057 119.801 184.992 119.801 184.926C119.804 184.909 119.803 184.891 119.797 184.874C119.791 184.857 119.781 184.842 119.767 184.831C119.515 184.662 118.475 185.022 117.722 185.353Z" fill="#465B9B"/>
        <path d="M117.39 185.488C117.371 185.496 117.348 185.496 117.329 185.488C117.313 185.477 117.301 185.461 117.295 185.443C117.289 185.425 117.289 185.405 117.295 185.387C117.295 185.308 117.733 183.471 118.745 183.6C119.009 183.628 119.076 183.763 119.093 183.864C119.161 184.347 118.003 185.269 117.407 185.505L117.39 185.488ZM118.655 183.774C118.048 183.774 117.683 184.757 117.531 185.201C118.093 184.881 118.913 184.151 118.874 183.87C118.874 183.825 118.812 183.791 118.706 183.78L118.655 183.774Z" fill="#465B9B"/>
        <path d="M129.479 97.6868L129.074 97.4508C128.995 97.4002 128.956 97.3215 128.99 97.2766L130.204 95.6411C130.237 95.5962 130.333 95.5962 130.412 95.6411L130.822 95.8828C130.9 95.9278 130.94 96.0064 130.906 96.0514L129.692 97.6868C129.658 97.7318 129.563 97.7318 129.479 97.6868Z" fill="#465B9B"/>
        <path d="M141.59 104.774L141.185 104.532C141.107 104.487 141.067 104.408 141.101 104.363L142.315 102.728C142.349 102.683 142.444 102.683 142.523 102.728L142.933 102.964C143.012 103.015 143.051 103.093 143.012 103.138L141.803 104.774C141.77 104.819 141.674 104.819 141.59 104.774Z" fill="#465B9B"/>
        <path d="M135.537 101.227L135.127 100.991C135.048 100.946 135.009 100.868 135.048 100.817L136.256 99.1873C136.296 99.1368 136.386 99.1368 136.47 99.1873L136.875 99.4234C136.959 99.4683 136.993 99.547 136.959 99.5976L135.745 101.227C135.711 101.278 135.616 101.278 135.537 101.227Z" fill="#465B9B"/>
        <path opacity="0.4" d="M129.479 97.6868L129.074 97.4508C128.995 97.4002 128.956 97.3215 128.99 97.2766L130.204 95.6411C130.237 95.5962 130.333 95.5962 130.412 95.6411L130.822 95.8828C130.9 95.9278 130.94 96.0064 130.906 96.0514L129.692 97.6868C129.658 97.7318 129.563 97.7318 129.479 97.6868Z" fill="black"/>
        <path opacity="0.4" d="M141.59 104.774L141.185 104.532C141.107 104.487 141.067 104.408 141.101 104.363L142.315 102.728C142.349 102.683 142.444 102.683 142.523 102.728L142.933 102.964C143.012 103.015 143.051 103.093 143.012 103.138L141.803 104.774C141.77 104.819 141.674 104.819 141.59 104.774Z" fill="black"/>
        <path opacity="0.4" d="M135.537 101.227L135.127 100.991C135.048 100.946 135.009 100.868 135.048 100.817L136.256 99.1873C136.296 99.1368 136.386 99.1368 136.47 99.1873L136.875 99.4234C136.959 99.4683 136.993 99.547 136.959 99.5976L135.745 101.227C135.711 101.278 135.616 101.278 135.537 101.227Z" fill="black"/>
        <path d="M146.783 75.87C146.783 72.498 145.659 59.2292 151.189 58.1052C152.937 56.2618 161.597 56.0707 162.923 60.7578C164.677 66.9117 162.08 81.9284 162.08 81.9284L146.783 75.87Z" fill="#263238"/>
        <path d="M163.233 81.9621C163.214 81.96 163.196 81.9543 163.18 81.9452C163.164 81.9361 163.149 81.9239 163.138 81.9093C163.126 81.8947 163.118 81.8779 163.113 81.8599C163.108 81.842 163.107 81.8232 163.109 81.8047C163.109 81.653 164.935 66.6307 162.918 60.6848C162.356 59.055 160.794 57.9141 158.478 57.4645C155.466 56.8744 152.206 57.6106 151.301 58.656C151.275 58.6817 151.24 58.6961 151.203 58.6961C151.166 58.6961 151.131 58.6817 151.105 58.656C151.079 58.6288 151.064 58.5925 151.064 58.5548C151.064 58.5171 151.079 58.4809 151.105 58.4536C152.161 57.2285 155.707 56.6159 158.551 57.1723C160.968 57.6387 162.62 58.8583 163.205 60.578C165.239 66.597 163.424 81.6699 163.407 81.8216C163.406 81.8429 163.401 81.8639 163.392 81.8831C163.383 81.9022 163.369 81.9191 163.352 81.9325C163.336 81.9458 163.317 81.9554 163.296 81.9606C163.275 81.9657 163.254 81.9662 163.233 81.9621Z" fill="#263238"/>
        <path d="M150.615 67.4794C149.767 69.9185 147.845 74.184 145.456 74.746C145.456 74.746 144.754 77.32 148.828 79.7029C153.324 82.3218 152.268 78.7306 152.268 78.7306C150.166 76.7186 151.284 74.9427 152.706 73.4928L150.615 67.4794Z" fill="#E4897B"/>
        <path d="M151.459 69.9297L152.695 73.4871C152.361 73.8231 152.054 74.1858 151.779 74.5718C150.925 73.8918 150.009 72.2339 150.481 71.1998C150.728 70.7213 151.059 70.2911 151.459 69.9297Z" fill="#CE6F64"/>
        <path d="M150.649 62.618C149.486 66.7038 148.907 68.4066 150.205 71.1661C152.156 75.3249 157.421 75.8587 159.759 72.2057C161.884 68.918 163.424 62.7922 160.074 59.8417C159.34 59.1884 158.451 58.7329 157.492 58.5181C156.532 58.3034 155.534 58.3364 154.591 58.6142C153.648 58.892 152.792 59.4053 152.102 60.1058C151.412 60.8063 150.912 61.6709 150.649 62.618Z" fill="#E4897B"/>
        <path d="M149.452 65.192C152.358 66.2766 159.186 62.6742 161.046 60.4656C161.294 57.0598 153.308 58.403 153.308 58.403C153.308 58.403 149.048 57.0936 149.452 65.192Z" fill="#263238"/>
        <path d="M148.761 66.0069C148.572 66.8053 148.707 67.6462 149.138 68.3448C149.7 69.2665 150.734 68.9068 151.183 67.9964C151.588 67.1646 151.774 65.6753 150.902 65.074C150.709 64.9464 150.486 64.8691 150.255 64.8492C150.024 64.8294 149.792 64.8675 149.579 64.9601C149.366 65.0528 149.18 65.197 149.037 65.3798C148.895 65.5626 148.8 65.7781 148.761 66.0069Z" fill="#E4897B"/>
        <path d="M156.32 65.872C156.202 66.198 156.281 66.524 156.494 66.597C156.708 66.6701 156.972 66.4678 157.09 66.1418C157.208 65.8158 157.124 65.4955 156.91 65.4168C156.697 65.3381 156.432 65.5461 156.32 65.872Z" fill="#263238"/>
        <path d="M159.995 67.1702C159.883 67.4962 159.962 67.8165 160.175 67.8952C160.389 67.9739 160.653 67.7659 160.765 67.44C160.878 67.114 160.799 66.788 160.591 66.715C160.383 66.6419 160.113 66.8442 159.995 67.1702Z" fill="#263238"/>
        <path d="M160.49 66.6981L161.35 66.7487C161.35 66.7487 160.732 67.2208 160.49 66.6981Z" fill="#263238"/>
        <path d="M158.826 67.3838C158.856 68.2273 159 69.0628 159.253 69.8678C159.046 69.9287 158.828 69.9432 158.614 69.9101C158.4 69.8771 158.197 69.7974 158.017 69.6767L158.826 67.3838Z" fill="#DE5753"/>
        <path d="M156.455 70.5647H156.421C155.98 70.4214 155.579 70.1747 155.253 69.8453C154.926 69.5158 154.683 69.1132 154.544 68.6708C154.539 68.644 154.544 68.6163 154.559 68.5933C154.573 68.5703 154.596 68.5538 154.623 68.5471C154.636 68.5438 154.649 68.5433 154.662 68.5456C154.675 68.5478 154.688 68.5528 154.699 68.5602C154.71 68.5677 154.72 68.5773 154.727 68.5886C154.734 68.5999 154.739 68.6126 154.741 68.6258C154.877 69.0325 155.106 69.4021 155.409 69.7054C155.712 70.0087 156.082 70.2375 156.488 70.3736C156.511 70.3815 156.53 70.3971 156.542 70.4178C156.554 70.4384 156.559 70.4627 156.555 70.4863C156.551 70.5099 156.539 70.5313 156.52 70.5467C156.502 70.5621 156.479 70.5704 156.455 70.5703V70.5647Z" fill="#263238"/>
        <path d="M156.157 64.5851C156.111 64.5857 156.067 64.5709 156.031 64.5431C155.994 64.5153 155.969 64.4761 155.958 64.4318C155.947 64.3876 155.951 64.3409 155.97 64.2993C155.988 64.2578 156.021 64.2238 156.061 64.2029C156.341 64.045 156.654 63.9561 156.974 63.9434C157.295 63.9306 157.614 63.9946 157.905 64.1299C157.931 64.1406 157.955 64.1567 157.974 64.1773C157.994 64.1978 158.009 64.2222 158.019 64.2489C158.028 64.2756 158.032 64.3041 158.03 64.3324C158.028 64.3607 158.02 64.3882 158.006 64.4132C157.993 64.4382 157.974 64.4601 157.952 64.4774C157.929 64.4947 157.903 64.5071 157.876 64.5138C157.848 64.5205 157.819 64.5212 157.791 64.5161C157.764 64.511 157.737 64.5 157.714 64.4839C157.481 64.3809 157.228 64.3343 156.974 64.348C156.72 64.3617 156.473 64.4352 156.252 64.5626C156.223 64.578 156.19 64.5858 156.157 64.5851Z" fill="#263238"/>
        <path d="M162.328 66.0743C162.284 66.0742 162.241 66.0592 162.206 66.0316C162.171 66.0041 162.147 65.9657 162.137 65.9225C162.08 65.6752 161.966 65.4446 161.804 65.2493C161.642 65.0541 161.437 64.8997 161.204 64.7985C161.153 64.7806 161.111 64.7437 161.087 64.6954C161.063 64.6472 161.058 64.5915 161.075 64.54C161.083 64.5144 161.096 64.4908 161.114 64.4706C161.131 64.4503 161.153 64.4339 161.177 64.4223C161.201 64.4108 161.228 64.4042 161.254 64.4032C161.281 64.4022 161.308 64.4067 161.333 64.4164C161.63 64.5385 161.894 64.7305 162.101 64.976C162.309 65.2216 162.454 65.5135 162.524 65.827C162.531 65.8528 162.533 65.8798 162.529 65.9062C162.525 65.9326 162.516 65.9581 162.503 65.9811C162.489 66.0041 162.471 66.0241 162.45 66.0401C162.429 66.0561 162.404 66.0677 162.378 66.0743H162.328Z" fill="#263238"/>
        <path d="M156.798 65.4055L157.658 65.4561C157.658 65.4561 157.056 65.9226 156.798 65.4055Z" fill="#263238"/>
        <path d="M138.589 71.863C136.818 71.4415 131.373 75.589 131.373 75.589L133.682 82.9568C133.682 82.9568 139.375 79.804 139.904 77.483C140.426 75.0776 140.606 72.3463 138.589 71.863Z" fill="#465B9B"/>
        <path opacity="0.7" d="M138.589 71.863C136.818 71.4415 131.373 75.589 131.373 75.589L133.682 82.9568C133.682 82.9568 139.375 79.804 139.904 77.483C140.426 75.0776 140.606 72.3463 138.589 71.863Z" fill="white"/>
    </g>
    <path d="M203.444 24.9752H161.744C159.955 24.9752 158.24 25.6857 156.975 26.9505C155.71 28.2152 155 29.9306 155 31.7192V44.6452C155 46.4338 155.71 48.1492 156.975 49.4139C158.24 50.6787 159.955 51.3892 161.744 51.3892H165.228V58.0208L171.86 51.3892H203.444C205.233 51.3892 206.948 50.6787 208.213 49.4139C209.477 48.1492 210.188 46.4338 210.188 44.6452V31.7192C210.188 29.9306 209.477 28.2152 208.213 26.9505C206.948 25.6857 205.233 24.9752 203.444 24.9752Z" fill="#465B9B"/>
    <path opacity="0.3" d="M203.444 24.9752H161.744C159.955 24.9752 158.24 25.6857 156.975 26.9505C155.71 28.2152 155 29.9306 155 31.7192V44.6452C155 46.4338 155.71 48.1492 156.975 49.4139C158.24 50.6787 159.955 51.3892 161.744 51.3892H165.228V58.0208L171.86 51.3892H203.444C205.233 51.3892 206.948 50.6787 208.213 49.4139C209.477 48.1492 210.188 46.4338 210.188 44.6452V31.7192C210.188 29.9306 209.477 28.2152 208.213 26.9505C206.948 25.6857 205.233 24.9752 203.444 24.9752Z" fill="black"/>
    <g opacity="0.54">
        <path d="M202.466 30.3479H162.71C161.856 30.3479 161.165 31.0398 161.165 31.8934C161.165 32.747 161.856 33.4389 162.71 33.4389H202.466C203.319 33.4389 204.011 32.747 204.011 31.8934C204.011 31.0398 203.319 30.3479 202.466 30.3479Z" fill="#F5F5F5"/>
    </g>
    <g opacity="0.54">
        <path d="M202.46 39.5816H176.979C176.568 39.5801 176.175 39.4162 175.884 39.1257C175.594 38.8351 175.43 38.4414 175.428 38.0305C175.43 37.6201 175.594 37.227 175.885 36.9373C176.175 36.6476 176.569 36.485 176.979 36.485H202.46C202.87 36.485 203.263 36.6478 203.553 36.9377C203.843 37.2275 204.006 37.6206 204.006 38.0305C204.006 38.4409 203.843 38.8346 203.554 39.1253C203.264 39.416 202.871 39.5801 202.46 39.5816Z" fill="#F5F5F5"/>
    </g>
    <g opacity="0.54">
        <path d="M169.415 39.5816H162.71C162.3 39.5801 161.907 39.416 161.617 39.1253C161.327 38.8346 161.165 38.4409 161.165 38.0305C161.165 37.6206 161.327 37.2275 161.617 36.9377C161.907 36.6478 162.3 36.485 162.71 36.485H169.415C169.825 36.485 170.218 36.6478 170.508 36.9377C170.797 37.2275 170.96 37.6206 170.96 38.0305C170.96 38.4409 170.798 38.8346 170.508 39.1253C170.218 39.416 169.825 39.5801 169.415 39.5816Z" fill="#F5F5F5"/>
    </g>
    <g opacity="0.54">
        <path d="M192.535 45.7187H162.71C162.3 45.7187 161.907 45.5559 161.617 45.266C161.327 44.9762 161.165 44.5831 161.165 44.1732C161.165 43.7628 161.327 43.3691 161.617 43.0784C161.907 42.7876 162.3 42.6236 162.71 42.6221H192.535C192.946 42.6236 193.339 42.7876 193.629 43.0784C193.918 43.3691 194.081 43.7628 194.081 44.1732C194.081 44.5831 193.918 44.9762 193.628 45.266C193.338 45.5559 192.945 45.7187 192.535 45.7187Z" fill="#F5F5F5"/>
    </g>
</svg>
