<svg width="205" height="156" viewBox="0 0 205 156" fill="none" xmlns="http://www.w3.org/2000/svg">
    <path d="M205 136.313H0V136.417H205V136.313Z" fill="#FAFAFA"/>
    <path d="M173.52 140.843H163.34V140.947H173.52V140.843Z" fill="#E0E0E0"/>
    <path d="M179.97 140.789H176.53V140.893H179.97V140.789Z" fill="#E0E0E0"/>
    <path d="M136.132 141.489H114.816V141.593H136.132V141.489Z" fill="#E0E0E0"/>
    <path d="M109.785 142.617H106.608V142.721H109.785V142.617Z" fill="#E0E0E0"/>
    <path d="M45.8995 139.323H40.4219V139.428H45.8995V139.323Z" fill="#E0E0E0"/>
    <path d="M75.9564 139.323H48.1748V139.428H75.9564V139.323Z" fill="#E0E0E0"/>
    <path d="M52.2752 141.838H32.9478V141.942H52.2752V141.838Z" fill="#E0E0E0"/>
    <path d="M97.1699 117.744H18.003C17.3828 117.743 16.7884 117.492 16.3503 117.046C15.9121 116.601 15.666 115.996 15.666 115.367V2.35655C15.6714 1.73036 15.9199 1.13163 16.3575 0.690401C16.795 0.249169 17.3864 0.00107268 18.003 0H97.1699C97.7908 0 98.3863 0.250472 98.8253 0.696314C99.2644 1.14216 99.511 1.74685 99.511 2.37736V115.367C99.511 115.997 99.2644 116.602 98.8253 117.048C98.3863 117.494 97.7908 117.744 97.1699 117.744ZM18.003 0.0832705C17.41 0.0843734 16.8417 0.324364 16.4227 0.750567C16.0038 1.17677 15.7685 1.75436 15.7685 2.35655V115.367C15.7685 115.969 16.0038 116.546 16.4227 116.973C16.8417 117.399 17.41 117.639 18.003 117.64H97.1699C97.7633 117.639 98.3321 117.399 98.7516 116.973C99.1712 116.547 99.4074 115.969 99.4085 115.367V2.35655C99.4074 1.75397 99.1712 1.1764 98.7516 0.750313C98.3321 0.324229 97.7633 0.0843711 97.1699 0.0832705H18.003Z" fill="#E0E0E0"/>
    <path d="M185.857 117.744H106.686C106.065 117.743 105.47 117.492 105.032 117.046C104.593 116.601 104.346 115.997 104.345 115.367V2.35655C104.351 1.72998 104.601 1.13126 105.039 0.69014C105.477 0.249023 106.069 0.00106098 106.686 0H185.857C186.473 0.0021669 187.063 0.250747 187.5 0.691862C187.936 1.13298 188.184 1.73108 188.19 2.35655V115.367C188.19 115.996 187.944 116.599 187.507 117.045C187.07 117.49 186.476 117.742 185.857 117.744ZM106.686 0.0832705C106.092 0.0843711 105.524 0.324229 105.104 0.750313C104.685 1.1764 104.448 1.75397 104.447 2.35655V115.367C104.448 115.969 104.685 116.547 105.104 116.973C105.524 117.399 106.092 117.639 106.686 117.64H185.857C186.45 117.639 187.019 117.399 187.439 116.973C187.858 116.547 188.094 115.969 188.095 115.367V2.35655C188.094 1.75397 187.858 1.1764 187.439 0.750313C187.019 0.324229 186.45 0.0843711 185.857 0.0832705H106.686Z" fill="#E0E0E0"/>
    <path d="M140.118 136.313H154.603V109.617H140.118V136.313Z" fill="#E0E0E0"/>
    <path d="M171.885 109.617H154.603V136.313H171.885V109.617Z" fill="#EBEBEB"/>
    <g style="mix-blend-mode:multiply" opacity="0.7">
        <path d="M140.118 113.085H172.036V111.878H140.118V113.085Z" fill="#E0E0E0"/>
    </g>
    <path d="M139.318 112.381H154.603V106.819H139.318V112.381Z" fill="#E0E0E0"/>
    <path d="M172.684 106.823H154.603V112.386H172.684V106.823Z" fill="#EBEBEB"/>
    <path d="M79.5645 7.90649H30.8032V66.9867H79.5645V7.90649Z" fill="#E0E0E0"/>
    <path d="M81.7989 7.90649H31.8486V66.9867H81.7989V7.90649Z" fill="#EBEBEB"/>
    <path d="M79.5645 66.9867H30.8032V71.196H79.5645V66.9867Z" fill="#E0E0E0"/>
    <path d="M85.5138 66.9867H35.5635V71.196H85.5138V66.9867Z" fill="#EBEBEB"/>
    <path d="M78.6748 63.8141V11.0791L34.9729 11.0791V63.8141H78.6748Z" fill="#F5F5F5"/>
    <path d="M40.3359 63.8141L58.667 11.0791H67.318L48.991 63.8141H40.3359Z" fill="#FAFAFA"/>
    <path d="M36.4162 45.9235C36.3571 45.9224 36.3008 45.8978 36.2594 45.8549C36.218 45.8121 36.1948 45.7545 36.1948 45.6945V13.14C36.1948 13.0804 36.2182 13.0232 36.2597 12.981C36.3012 12.9388 36.3575 12.9152 36.4162 12.9152C36.4753 12.9152 36.5321 12.9387 36.5742 12.9808C36.6164 13.0228 36.6407 13.08 36.6417 13.14V45.6945C36.6417 45.7552 36.618 45.8134 36.5757 45.8564C36.5334 45.8993 36.476 45.9235 36.4162 45.9235Z" fill="#EBEBEB"/>
    <path d="M50.8481 63.8141L69.1792 11.0791H72.5535L54.2224 63.8141H50.8481Z" fill="#FAFAFA"/>
    <path d="M78.6709 63.8141V11.0791H78.2732V63.8141H78.6709Z" fill="#E0E0E0"/>
    <path d="M82.533 15.1344H33.7758L33.4888 12.3115H82.246L82.533 15.1344Z" fill="#E0E0E0"/>
    <path d="M82.533 17.2036H33.7758L33.4888 14.3766H82.246L82.533 17.2036Z" fill="#E0E0E0"/>
    <path d="M82.533 19.6851H33.7758L33.4888 16.858H82.246L82.533 19.6851Z" fill="#E0E0E0"/>
    <path d="M82.533 22.4454H33.7758L33.4888 19.6226H82.246L82.533 22.4454Z" fill="#E0E0E0"/>
    <path d="M82.533 25.7555H33.7758L33.4888 22.9285H82.246L82.533 25.7555Z" fill="#E0E0E0"/>
    <path d="M82.533 29.4735H33.7758L33.4888 26.6506H82.246L82.533 29.4735Z" fill="#E0E0E0"/>
    <path d="M168.248 7.90649H119.486V66.9867H168.248V7.90649Z" fill="#E0E0E0"/>
    <path d="M170.478 7.90649H120.528V66.9867H170.478V7.90649Z" fill="#EBEBEB"/>
    <path d="M168.248 66.9867H119.486V71.196H168.248V66.9867Z" fill="#E0E0E0"/>
    <path d="M174.196 66.9867H124.246V71.196H174.196V66.9867Z" fill="#EBEBEB"/>
    <path d="M167.358 63.8141V11.0791L123.656 11.0791V63.8141H167.358Z" fill="#F5F5F5"/>
    <path d="M129.019 63.8141L147.35 11.0791H156.001L137.67 63.8141H129.019Z" fill="#FAFAFA"/>
    <path d="M125.099 45.9235C125.04 45.9224 124.984 45.8978 124.943 45.8549C124.901 45.8121 124.878 45.7545 124.878 45.6945V13.14C124.878 13.0804 124.901 13.0232 124.943 12.981C124.984 12.9388 125.041 12.9152 125.099 12.9152C125.158 12.9152 125.214 12.9388 125.256 12.981C125.297 13.0232 125.321 13.0804 125.321 13.14V45.6945C125.321 45.7545 125.298 45.8121 125.256 45.8549C125.215 45.8978 125.158 45.9224 125.099 45.9235Z" fill="#EBEBEB"/>
    <path d="M139.531 63.8141L157.862 11.0791H161.233L142.906 63.8141H139.531Z" fill="#FAFAFA"/>
    <path d="M167.354 63.8141V11.0791H166.956V63.8141H167.354Z" fill="#E0E0E0"/>
    <path d="M171.216 15.1344H122.459L122.168 12.3115H170.929L171.216 15.1344Z" fill="#E0E0E0"/>
    <path d="M171.216 17.2036H122.459L122.168 14.3766H170.929L171.216 17.2036Z" fill="#E0E0E0"/>
    <path d="M171.216 19.6851H122.459L122.168 16.858H170.929L171.216 19.6851Z" fill="#E0E0E0"/>
    <path d="M171.216 22.4454H122.459L122.168 19.6226H170.929L171.216 22.4454Z" fill="#E0E0E0"/>
    <path d="M171.216 25.7555H122.459L122.168 22.9285H170.929L171.216 25.7555Z" fill="#E0E0E0"/>
    <path d="M171.216 29.4735H122.459L122.168 26.6506H170.929L171.216 29.4735Z" fill="#E0E0E0"/>
    <path d="M130.397 98.8667H120.659V136.313H130.397V98.8667Z" fill="#E0E0E0"/>
    <path d="M128.543 136.313H130.392V131.725H126.604L128.543 136.313Z" fill="#F5F5F5"/>
    <path d="M35.8996 98.8667H26.1621V136.313H35.8996V98.8667Z" fill="#E0E0E0"/>
    <path d="M130.396 98.8667H34.2842V133.79H130.396V98.8667Z" fill="#F5F5F5"/>
    <path d="M82.9595 100.615V125.555H128.961V100.615H82.9595Z" fill="#E0E0E0"/>
    <path d="M35.7192 100.615V125.555H81.7212V100.615H35.7192Z" fill="#E0E0E0"/>
    <path d="M128.958 130.826V128.049H82.9555V130.826H128.958Z" fill="#E0E0E0"/>
    <path d="M81.7173 130.83V128.053H35.7153V130.83H81.7173Z" fill="#E0E0E0"/>
    <path d="M74.9196 102.106H42.5296C41.8104 102.106 41.0986 101.959 40.437 101.673C39.7753 101.387 39.1776 100.967 38.6797 100.44H78.7859C78.2861 100.969 77.6857 101.39 77.0211 101.676C76.3565 101.962 75.6415 102.109 74.9196 102.106Z" fill="#F5F5F5"/>
    <path d="M122.332 102.106H89.9417C89.2225 102.106 88.5107 101.959 87.8491 101.673C87.1874 101.387 86.5897 100.967 86.0918 100.44H126.198C125.699 100.971 125.099 101.392 124.434 101.678C123.769 101.965 123.054 102.11 122.332 102.106Z" fill="#F5F5F5"/>
    <path d="M36.1335 136.313H34.2803V131.725H38.0687L36.1335 136.313Z" fill="#F5F5F5"/>
    <g style="mix-blend-mode:multiply" opacity="0.4">
        <path d="M104.78 75.8757H93.9395V98.8666H104.78V75.8757Z" fill="#E0E0E0"/>
    </g>
    <path d="M113.886 98.8667H95.5381L93.812 74.0397H112.155L113.886 98.8667Z" fill="#E0E0E0"/>
    <path d="M115.973 98.8667H96.0591L94.333 74.0397H114.243L115.973 98.8667Z" fill="#F5F5F5"/>
    <path d="M96.9816 97.9173L95.3867 74.9889H113.324L114.923 97.9173H96.9816Z" fill="#FAFAFA"/>
    <path d="M101.323 92.7838L100.442 80.1226H108.982L109.864 92.7838H101.323Z" fill="#F5F5F5"/>
    <path d="M65.3335 94.7906C67.9647 94.7906 70.0977 92.6246 70.0977 89.9526C70.0977 87.2807 67.9647 85.1146 65.3335 85.1146C62.7023 85.1146 60.5693 87.2807 60.5693 89.9526C60.5693 92.6246 62.7023 94.7906 65.3335 94.7906Z" fill="#EBEBEB"/>
    <path d="M73.4927 97.0971C76.1239 97.0971 78.2569 94.9311 78.2569 92.2591C78.2569 89.5872 76.1239 87.4211 73.4927 87.4211C70.8615 87.4211 68.7285 89.5872 68.7285 92.2591C68.7285 94.9311 70.8615 97.0971 73.4927 97.0971Z" fill="#EBEBEB"/>
    <path d="M81.5994 93.2227C83.2219 92.5439 83.9954 90.6579 83.327 89.0102C82.6585 87.3624 80.8013 86.577 79.1787 87.2558C77.5561 87.9346 76.7826 89.8206 77.4511 91.4683C78.1195 93.1161 79.9768 93.9015 81.5994 93.2227Z" fill="#EBEBEB"/>
    <path d="M73.2427 87.5449C73.5233 85.7858 72.3464 84.1288 70.6141 83.8438C68.8818 83.5589 67.25 84.754 66.9694 86.5132C66.6889 88.2723 67.8657 89.9293 69.5981 90.2143C71.3304 90.4992 72.9621 89.3041 73.2427 87.5449Z" fill="#EBEBEB"/>
    <path d="M57.7158 91.3932C57.7158 91.3932 58.0889 98.8667 72.3856 98.8667C86.6823 98.8667 87.0554 91.3932 87.0554 91.3932H57.7158Z" fill="#E0E0E0"/>
    <path d="M44.5138 96.3061C44.5138 96.3061 39.8562 88.154 46.3178 81.6631C46.3178 81.6631 48.0029 82.7789 47.9578 84.2819C47.9127 85.785 46.1497 86.1597 46.531 87.4129C46.9123 88.6661 48.581 89.911 47.4945 90.9311C46.408 91.9511 47.6708 92.8837 47.597 94.1536C47.5232 95.4235 44.5138 96.3061 44.5138 96.3061Z" fill="#E0E0E0"/>
    <path d="M44.8662 97.0514C44.8662 97.0514 46.7522 87.825 38.6055 83.7281C38.6055 83.7281 37.3509 85.3311 37.8429 86.7467C38.3349 88.1623 40.1389 87.9499 40.1676 89.2448C40.1963 90.5396 38.9786 92.2592 40.348 92.8879C41.7174 93.5166 40.7867 94.8031 41.25 95.9814C41.7133 97.1596 44.8662 97.0514 44.8662 97.0514Z" fill="#E0E0E0"/>
    <path d="M37.7197 92.7838C37.7197 92.7838 37.8755 98.8667 43.8123 98.8667C49.7491 98.8667 49.9049 92.7838 49.9049 92.7838H37.7197Z" fill="#EBEBEB"/>
    <path d="M102.5 155.116C146.404 155.116 181.995 153.006 181.995 150.403C181.995 147.8 146.404 145.689 102.5 145.689C58.5965 145.689 23.0054 147.8 23.0054 150.403C23.0054 153.006 58.5965 155.116 102.5 155.116Z" fill="#F5F5F5"/>
    <path d="M73.9846 90.5314C73.7415 90.5152 73.5136 90.4058 73.3471 90.2252C73.1806 90.0447 73.0879 89.8066 73.0879 89.5592C73.0879 89.3118 73.1806 89.0737 73.3471 88.8932C73.5136 88.7126 73.7415 88.6032 73.9846 88.587C76.3298 88.587 78.306 85.1771 78.306 81.1385C78.3219 80.8917 78.4297 80.6602 78.6075 80.4911C78.7853 80.322 79.0198 80.2279 79.2634 80.2279C79.507 80.2279 79.7414 80.322 79.9192 80.4911C80.097 80.6602 80.2048 80.8917 80.2207 81.1385C80.2207 86.4054 77.4901 90.5314 73.9846 90.5314Z" fill="#465B9B"/>
    <path d="M88.4534 90.5314C88.2103 90.5152 87.9824 90.4058 87.8158 90.2252C87.6493 90.0447 87.5566 89.8066 87.5566 89.5592C87.5566 89.3118 87.6493 89.0737 87.8158 88.8932C87.9824 88.7126 88.2103 88.6032 88.4534 88.587C90.7986 88.587 92.7748 85.1771 92.7748 81.1385C92.7907 80.8917 92.8985 80.6602 93.0762 80.4911C93.254 80.322 93.4885 80.2279 93.7321 80.2279C93.9757 80.2279 94.2102 80.322 94.388 80.4911C94.5658 80.6602 94.6735 80.8917 94.6895 81.1385C94.71 86.4054 91.9507 90.5314 88.4534 90.5314Z" fill="#465B9B"/>
    <path d="M102.91 90.5313C102.667 90.5151 102.439 90.4057 102.272 90.2251C102.106 90.0446 102.013 89.8065 102.013 89.5591C102.013 89.3118 102.106 89.0736 102.272 88.8931C102.439 88.7126 102.667 88.6031 102.91 88.5869C105.251 88.5869 107.231 85.177 107.231 81.1384C107.231 80.8811 107.332 80.6344 107.511 80.4525C107.69 80.2705 107.933 80.1683 108.187 80.1683C108.44 80.1683 108.683 80.2705 108.862 80.4525C109.041 80.6344 109.142 80.8811 109.142 81.1384C109.154 86.4053 106.42 90.5313 102.91 90.5313Z" fill="#465B9B"/>
    <path d="M117.391 90.5313C117.26 90.54 117.129 90.5213 117.005 90.4764C116.882 90.4315 116.768 90.3613 116.673 90.2702C116.577 90.1791 116.501 90.0689 116.448 89.9466C116.396 89.8243 116.369 89.6924 116.369 89.5591C116.369 89.4258 116.396 89.2939 116.448 89.1716C116.501 89.0493 116.577 88.9392 116.673 88.8481C116.768 88.7569 116.882 88.6867 117.005 88.6418C117.129 88.5969 117.26 88.5782 117.391 88.5869C119.732 88.5869 121.713 85.177 121.713 81.1384C121.713 80.8811 121.813 80.6344 121.992 80.4525C122.172 80.2705 122.415 80.1683 122.668 80.1683C122.921 80.1683 123.164 80.2705 123.343 80.4525C123.523 80.6344 123.623 80.8811 123.623 81.1384C123.623 86.4053 120.884 90.5313 117.391 90.5313Z" fill="#465B9B"/>
    <path d="M131.856 90.5314C131.613 90.5152 131.385 90.4058 131.219 90.2252C131.052 90.0447 130.959 89.8066 130.959 89.5592C130.959 89.3118 131.052 89.0737 131.219 88.8932C131.385 88.7126 131.613 88.6032 131.856 88.587C134.201 88.587 136.178 85.1771 136.178 81.1385C136.194 80.8917 136.301 80.6602 136.479 80.4911C136.657 80.322 136.891 80.2279 137.135 80.2279C137.379 80.2279 137.613 80.322 137.791 80.4911C137.969 80.6602 138.076 80.8917 138.092 81.1385C138.092 86.4054 135.353 90.5314 131.856 90.5314Z" fill="#465B9B"/>
    <path d="M146.325 90.5314C146.082 90.5152 145.854 90.4058 145.687 90.2252C145.521 90.0447 145.428 89.8066 145.428 89.5592C145.428 89.3118 145.521 89.0737 145.687 88.8932C145.854 88.7126 146.082 88.6032 146.325 88.587C148.666 88.587 150.646 85.1771 150.646 81.1385C150.662 80.8917 150.77 80.6602 150.948 80.4911C151.126 80.322 151.36 80.2279 151.604 80.2279C151.847 80.2279 152.082 80.322 152.26 80.4911C152.437 80.6602 152.545 80.8917 152.561 81.1385C152.561 86.4054 149.822 90.5314 146.325 90.5314Z" fill="#465B9B"/>
    <g opacity="0.3">
        <path d="M73.9846 90.5313C73.7415 90.5151 73.5136 90.4056 73.3471 90.2251C73.1806 90.0446 73.0879 89.8065 73.0879 89.5591C73.0879 89.3117 73.1806 89.0736 73.3471 88.8931C73.5136 88.7125 73.7415 88.6031 73.9846 88.5869C76.3298 88.5869 78.306 85.177 78.306 81.1384C78.3219 80.8915 78.4297 80.6601 78.6075 80.491C78.7853 80.3219 79.0198 80.2278 79.2634 80.2278C79.507 80.2278 79.7414 80.3219 79.9192 80.491C80.097 80.6601 80.2048 80.8915 80.2207 81.1384C80.2207 86.4052 77.4901 90.5313 73.9846 90.5313Z" fill="black"/>
        <path d="M88.4534 90.5313C88.2103 90.5151 87.9824 90.4056 87.8158 90.2251C87.6493 90.0446 87.5566 89.8065 87.5566 89.5591C87.5566 89.3117 87.6493 89.0736 87.8158 88.8931C87.9824 88.7125 88.2103 88.6031 88.4534 88.5869C90.7986 88.5869 92.7748 85.177 92.7748 81.1384C92.7907 80.8915 92.8985 80.6601 93.0762 80.491C93.254 80.3219 93.4885 80.2278 93.7321 80.2278C93.9757 80.2278 94.2102 80.3219 94.388 80.491C94.5658 80.6601 94.6735 80.8915 94.6895 81.1384C94.71 86.4052 91.9507 90.5313 88.4534 90.5313Z" fill="black"/>
        <path d="M102.91 90.5313C102.667 90.5151 102.439 90.4057 102.272 90.2251C102.106 90.0446 102.013 89.8065 102.013 89.5591C102.013 89.3118 102.106 89.0736 102.272 88.8931C102.439 88.7126 102.667 88.6031 102.91 88.5869C105.251 88.5869 107.231 85.177 107.231 81.1384C107.231 80.8811 107.332 80.6344 107.511 80.4525C107.69 80.2705 107.933 80.1683 108.187 80.1683C108.44 80.1683 108.683 80.2705 108.862 80.4525C109.041 80.6344 109.142 80.8811 109.142 81.1384C109.154 86.4053 106.42 90.5313 102.91 90.5313Z" fill="black"/>
        <path d="M117.391 90.5313C117.26 90.54 117.129 90.5213 117.005 90.4764C116.882 90.4315 116.768 90.3613 116.673 90.2702C116.577 90.1791 116.501 90.0689 116.448 89.9466C116.396 89.8243 116.369 89.6924 116.369 89.5591C116.369 89.4258 116.396 89.2939 116.448 89.1716C116.501 89.0493 116.577 88.9392 116.673 88.8481C116.768 88.7569 116.882 88.6867 117.005 88.6418C117.129 88.5969 117.26 88.5782 117.391 88.5869C119.732 88.5869 121.713 85.177 121.713 81.1384C121.713 80.8811 121.813 80.6344 121.992 80.4525C122.172 80.2705 122.415 80.1683 122.668 80.1683C122.921 80.1683 123.164 80.2705 123.343 80.4525C123.523 80.6344 123.623 80.8811 123.623 81.1384C123.623 86.4053 120.884 90.5313 117.391 90.5313Z" fill="black"/>
        <path d="M131.856 90.5313C131.613 90.5151 131.385 90.4056 131.219 90.2251C131.052 90.0446 130.959 89.8065 130.959 89.5591C130.959 89.3117 131.052 89.0736 131.219 88.8931C131.385 88.7125 131.613 88.6031 131.856 88.5869C134.201 88.5869 136.178 85.177 136.178 81.1384C136.194 80.8915 136.301 80.6601 136.479 80.491C136.657 80.3219 136.891 80.2278 137.135 80.2278C137.379 80.2278 137.613 80.3219 137.791 80.491C137.969 80.6601 138.076 80.8915 138.092 81.1384C138.092 86.4052 135.353 90.5313 131.856 90.5313Z" fill="black"/>
        <path d="M146.325 90.5313C146.082 90.5151 145.854 90.4056 145.687 90.2251C145.521 90.0446 145.428 89.8065 145.428 89.5591C145.428 89.3117 145.521 89.0736 145.687 88.8931C145.854 88.7125 146.082 88.6031 146.325 88.5869C148.666 88.5869 150.646 85.177 150.646 81.1384C150.662 80.8915 150.77 80.6601 150.948 80.491C151.126 80.3219 151.36 80.2278 151.604 80.2278C151.847 80.2278 152.082 80.3219 152.26 80.491C152.437 80.6601 152.545 80.8915 152.561 81.1384C152.561 86.4052 149.822 90.5313 146.325 90.5313Z" fill="black"/>
    </g>
    <path d="M64.9196 82.1336H158.063C159.312 82.159 160.509 82.6463 161.429 83.5041C162.349 84.3618 162.93 85.5311 163.061 86.7925L168.219 145.844C168.282 146.436 168.22 147.035 168.038 147.602C167.855 148.168 167.557 148.689 167.161 149.129C166.766 149.57 166.283 149.92 165.744 150.157C165.206 150.393 164.624 150.511 164.037 150.503H70.8892C69.6409 150.475 68.445 149.987 67.5252 149.13C66.6054 148.273 66.0246 147.104 65.8913 145.844L60.7376 86.7925C60.6742 86.1999 60.7356 85.6003 60.9177 85.0336C61.0998 84.4669 61.3985 83.9459 61.794 83.5054C62.1895 83.0648 62.6727 82.7146 63.2115 82.4781C63.7504 82.2416 64.3326 82.1242 64.9196 82.1336Z" fill="#465B9B"/>
    <path opacity="0.4" d="M64.9196 82.1336H158.063C159.312 82.159 160.509 82.6463 161.429 83.5041C162.349 84.3618 162.93 85.5311 163.061 86.7925L168.219 145.844C168.282 146.436 168.22 147.035 168.038 147.602C167.855 148.168 167.557 148.689 167.161 149.129C166.766 149.57 166.283 149.92 165.744 150.157C165.206 150.393 164.624 150.511 164.037 150.503H70.8892C69.6409 150.475 68.445 149.987 67.5252 149.13C66.6054 148.273 66.0246 147.104 65.8913 145.844L60.7376 86.7925C60.6742 86.1999 60.7356 85.6003 60.9177 85.0336C61.0998 84.4669 61.3985 83.9459 61.794 83.5054C62.1895 83.0648 62.6727 82.7146 63.2115 82.4781C63.7504 82.2416 64.3326 82.1242 64.9196 82.1336Z" fill="#FAFAFA"/>
    <path d="M157.288 82.1335H64.1404C62.9084 82.1484 61.7278 82.6377 60.8374 83.5025C59.9469 84.3674 59.413 85.5432 59.3434 86.7925L56.7194 145.844C56.6882 146.445 56.7782 147.047 56.9839 147.612C57.1897 148.177 57.5069 148.693 57.9161 149.129C58.3253 149.566 58.8178 149.912 59.3636 150.148C59.9093 150.385 60.4968 150.505 61.09 150.502H154.246C155.478 150.488 156.659 149.998 157.549 149.133C158.44 148.269 158.974 147.093 159.043 145.844L161.671 86.7925C161.702 86.19 161.611 85.5875 161.404 85.0219C161.198 84.4563 160.879 83.9395 160.469 83.5033C160.059 83.0671 159.565 82.7206 159.018 82.485C158.471 82.2495 157.882 82.1299 157.288 82.1335Z" fill="#465B9B"/>
    <path opacity="0.2" d="M157.288 82.1335H64.1404C62.9084 82.1484 61.7278 82.6377 60.8374 83.5025C59.9469 84.3674 59.413 85.5432 59.3434 86.7925L56.7194 145.844C56.6882 146.445 56.7782 147.047 56.9839 147.612C57.1897 148.177 57.5069 148.693 57.9161 149.129C58.3253 149.566 58.8178 149.912 59.3636 150.148C59.9093 150.385 60.4968 150.505 61.09 150.502H154.246C155.478 150.488 156.659 149.998 157.549 149.133C158.44 148.269 158.974 147.093 159.043 145.844L161.671 86.7925C161.702 86.19 161.611 85.5875 161.404 85.0219C161.198 84.4563 160.879 83.9395 160.469 83.5033C160.059 83.0671 159.565 82.7206 159.018 82.485C158.471 82.2495 157.882 82.1299 157.288 82.1335Z" fill="#FAFAFA"/>
    <path d="M65.8504 134.898L68.0193 86.1305C68.0453 85.6521 68.2496 85.2017 68.5908 84.8708C68.9319 84.5398 69.3843 84.3531 69.8561 84.3485H151.376C151.604 84.3471 151.829 84.3928 152.038 84.4829C152.247 84.573 152.436 84.7055 152.593 84.8723C152.75 85.0392 152.872 85.2369 152.951 85.4532C153.03 85.6696 153.065 85.9 153.053 86.1305L150.88 134.898C150.854 135.376 150.65 135.826 150.309 136.157C149.968 136.488 149.515 136.675 149.043 136.68H67.5273C67.3 136.681 67.0748 136.635 66.8656 136.545C66.6564 136.455 66.4674 136.323 66.3104 136.156C66.1534 135.989 66.0316 135.791 65.9525 135.575C65.8734 135.359 65.8386 135.128 65.8504 134.898Z" fill="#465B9B"/>
    <path opacity="0.1" d="M65.8504 134.898L68.0193 86.1305C68.0453 85.6521 68.2496 85.2017 68.5908 84.8708C68.9319 84.5398 69.3843 84.3531 69.8561 84.3485H151.376C151.604 84.3471 151.829 84.3928 152.038 84.4829C152.247 84.573 152.436 84.7055 152.593 84.8723C152.75 85.0392 152.872 85.2369 152.951 85.4532C153.03 85.6696 153.065 85.9 153.053 86.1305L150.88 134.898C150.854 135.376 150.65 135.826 150.309 136.157C149.968 136.488 149.515 136.675 149.043 136.68H67.5273C67.3 136.681 67.0748 136.635 66.8656 136.545C66.6564 136.455 66.4674 136.323 66.3104 136.156C66.1534 135.989 66.0316 135.791 65.9525 135.575C65.8734 135.359 65.8386 135.128 65.8504 134.898Z" fill="#FAFAFA"/>
    <path opacity="0.1" d="M63.5499 138.878L65.8254 87.6668C65.8515 87.1645 66.0655 86.6913 66.4237 86.3439C66.7818 85.9964 67.2571 85.801 67.7524 85.7974H153.36C153.599 85.7954 153.835 85.843 154.055 85.9373C154.275 86.0316 154.473 86.1706 154.638 86.3457C154.803 86.5209 154.931 86.7285 155.013 86.9557C155.096 87.1829 155.132 87.4249 155.119 87.6668L152.84 138.878C152.814 139.38 152.6 139.853 152.243 140.201C151.886 140.549 151.412 140.746 150.917 140.752H65.3006C65.0622 140.753 64.826 140.705 64.6067 140.61C64.3873 140.515 64.1895 140.376 64.0254 140.2C63.8613 140.024 63.7344 139.817 63.6526 139.589C63.5708 139.362 63.5359 139.12 63.5499 138.878Z" fill="black"/>
    <path d="M61.4345 143.008L63.8084 89.5904C63.8403 89.0681 64.0647 88.5771 64.437 88.2153C64.8093 87.8534 65.3022 87.6472 65.8174 87.6378H155.12C155.369 87.6357 155.616 87.6855 155.845 87.784C156.075 87.8825 156.282 88.0277 156.454 88.2107C156.626 88.3936 156.759 88.6105 156.846 88.8478C156.932 89.085 156.97 89.3378 156.956 89.5904L154.57 143.008C154.538 143.531 154.314 144.022 153.942 144.383C153.569 144.745 153.076 144.951 152.561 144.961H63.2713C63.022 144.964 62.7748 144.914 62.5451 144.816C62.3153 144.718 62.1079 144.572 61.9357 144.389C61.7635 144.206 61.6301 143.989 61.5439 143.752C61.4577 143.514 61.4205 143.261 61.4345 143.008Z" fill="#FAFAFA"/>
    <path d="M146.313 90.8394C146.145 90.8397 145.979 90.8051 145.824 90.7377C145.67 90.6703 145.531 90.5715 145.416 90.4475C145.301 90.3234 145.212 90.1767 145.154 90.0164C145.097 89.8561 145.073 89.6856 145.083 89.5154C145.098 89.1814 145.239 88.866 145.476 88.6339C145.713 88.4017 146.029 88.2702 146.358 88.2664C146.526 88.2661 146.692 88.3007 146.846 88.3681C147.001 88.4355 147.14 88.5342 147.255 88.6583C147.37 88.7823 147.459 88.929 147.516 89.0893C147.574 89.2496 147.598 89.4201 147.588 89.5904C147.572 89.9244 147.432 90.2397 147.194 90.4719C146.957 90.7041 146.642 90.8355 146.313 90.8394Z" fill="#465B9B"/>
    <path d="M131.844 90.8394C131.676 90.8397 131.509 90.8051 131.355 90.7377C131.201 90.6703 131.062 90.5715 130.947 90.4475C130.831 90.3234 130.742 90.1767 130.685 90.0164C130.628 89.8561 130.603 89.6856 130.614 89.5154C130.629 89.1814 130.77 88.866 131.007 88.6339C131.244 88.4017 131.559 88.2702 131.889 88.2664C132.057 88.2661 132.223 88.3007 132.377 88.3681C132.531 88.4355 132.67 88.5342 132.786 88.6583C132.901 88.7823 132.99 88.929 133.047 89.0893C133.104 89.2496 133.129 89.4201 133.119 89.5904C133.104 89.9247 132.964 90.2407 132.726 90.473C132.489 90.7054 132.173 90.8365 131.844 90.8394Z" fill="#465B9B"/>
    <path d="M117.375 90.8394C117.207 90.8397 117.041 90.8051 116.886 90.7377C116.732 90.6703 116.593 90.5715 116.478 90.4475C116.363 90.3234 116.274 90.1767 116.216 90.0164C116.159 89.8561 116.135 89.6856 116.145 89.5154C116.161 89.1817 116.302 88.8669 116.539 88.635C116.776 88.403 117.091 88.2712 117.42 88.2664C117.588 88.2661 117.754 88.3007 117.908 88.3681C118.063 88.4355 118.202 88.5342 118.317 88.6583C118.432 88.7823 118.521 88.929 118.578 89.0893C118.636 89.2496 118.66 89.4201 118.65 89.5904C118.635 89.9247 118.495 90.2407 118.258 90.473C118.02 90.7054 117.704 90.8365 117.375 90.8394Z" fill="#465B9B"/>
    <path d="M102.91 90.8394C102.742 90.8397 102.576 90.8051 102.422 90.7377C102.267 90.6703 102.128 90.5715 102.013 90.4475C101.898 90.3234 101.809 90.1767 101.752 90.0164C101.694 89.8561 101.67 89.6856 101.68 89.5154C101.698 89.1813 101.839 88.8666 102.077 88.6347C102.314 88.4028 102.63 88.2712 102.959 88.2664C103.127 88.2661 103.293 88.3007 103.448 88.3681C103.602 88.4355 103.741 88.5342 103.856 88.6583C103.971 88.7823 104.06 88.929 104.118 89.0893C104.175 89.2496 104.199 89.4201 104.189 89.5904C104.174 89.9254 104.033 90.242 103.795 90.4745C103.557 90.7069 103.24 90.8376 102.91 90.8394Z" fill="#465B9B"/>
    <path d="M88.4412 90.8394C88.2733 90.8397 88.1071 90.8051 87.9528 90.7377C87.7986 90.6703 87.6595 90.5715 87.5443 90.4475C87.4291 90.3234 87.3401 90.1767 87.2828 90.0164C87.2255 89.8561 87.2011 89.6856 87.2112 89.5154C87.2269 89.1814 87.3676 88.866 87.6046 88.6339C87.8416 88.4017 88.157 88.2702 88.4863 88.2664C88.6542 88.2661 88.8204 88.3007 88.9747 88.3681C89.1289 88.4355 89.268 88.5342 89.3832 88.6583C89.4984 88.7823 89.5874 88.929 89.6447 89.0893C89.702 89.2496 89.7264 89.4201 89.7163 89.5904C89.7006 89.9244 89.5599 90.2397 89.3229 90.4719C89.0859 90.7041 88.7705 90.8355 88.4412 90.8394Z" fill="#465B9B"/>
    <path d="M73.9725 90.8394C73.8045 90.8397 73.6383 90.8051 73.4841 90.7377C73.3298 90.6703 73.1908 90.5715 73.0755 90.4475C72.9603 90.3234 72.8713 90.1767 72.814 90.0164C72.7567 89.8561 72.7324 89.6856 72.7425 89.5154C72.7581 89.1814 72.8988 88.866 73.1358 88.6339C73.3729 88.4017 73.6883 88.2702 74.0176 88.2664C74.1855 88.2661 74.3517 88.3007 74.5059 88.3681C74.6602 88.4355 74.7992 88.5342 74.9145 88.6583C75.0297 88.7823 75.1187 88.929 75.176 89.0893C75.2333 89.2496 75.2576 89.4201 75.2476 89.5904C75.2329 89.9247 75.0924 90.2407 74.8552 90.473C74.618 90.7054 74.302 90.8365 73.9725 90.8394Z" fill="#465B9B"/>
    <g opacity="0.1">
        <path d="M146.313 90.8394C146.145 90.8397 145.979 90.8051 145.824 90.7377C145.67 90.6703 145.531 90.5715 145.416 90.4475C145.301 90.3234 145.212 90.1767 145.154 90.0164C145.097 89.8561 145.073 89.6856 145.083 89.5154C145.098 89.1814 145.239 88.866 145.476 88.6339C145.713 88.4017 146.029 88.2702 146.358 88.2664C146.526 88.2661 146.692 88.3007 146.846 88.3681C147.001 88.4355 147.14 88.5342 147.255 88.6583C147.37 88.7823 147.459 88.929 147.516 89.0893C147.574 89.2496 147.598 89.4201 147.588 89.5904C147.572 89.9244 147.432 90.2397 147.194 90.4719C146.957 90.7041 146.642 90.8355 146.313 90.8394Z" fill="#FAFAFA"/>
        <path d="M131.844 90.8394C131.676 90.8397 131.51 90.8051 131.356 90.7377C131.201 90.6703 131.062 90.5715 130.947 90.4475C130.832 90.3234 130.743 90.1767 130.686 90.0164C130.628 89.8561 130.604 89.6856 130.614 89.5154C130.63 89.1814 130.77 88.866 131.007 88.6339C131.244 88.4017 131.56 88.2702 131.889 88.2664C132.057 88.2661 132.223 88.3007 132.378 88.3681C132.532 88.4355 132.671 88.5342 132.786 88.6583C132.901 88.7823 132.99 88.929 133.048 89.0893C133.105 89.2496 133.129 89.4201 133.119 89.5904C133.104 89.9247 132.964 90.2407 132.727 90.473C132.49 90.7054 132.174 90.8365 131.844 90.8394Z" fill="#FAFAFA"/>
        <path d="M117.375 90.8394C117.207 90.8397 117.041 90.8051 116.886 90.7377C116.732 90.6703 116.593 90.5715 116.478 90.4475C116.363 90.3234 116.274 90.1767 116.216 90.0164C116.159 89.8561 116.135 89.6856 116.145 89.5154C116.161 89.1817 116.302 88.8669 116.539 88.635C116.776 88.403 117.091 88.2712 117.42 88.2664C117.588 88.2661 117.754 88.3007 117.908 88.3681C118.063 88.4355 118.202 88.5342 118.317 88.6583C118.432 88.7823 118.521 88.929 118.578 89.0893C118.636 89.2496 118.66 89.4201 118.65 89.5904C118.635 89.9247 118.495 90.2407 118.258 90.473C118.02 90.7054 117.704 90.8365 117.375 90.8394Z" fill="#FAFAFA"/>
        <path d="M102.91 90.8394C102.743 90.8397 102.576 90.8051 102.422 90.7377C102.268 90.6703 102.129 90.5715 102.014 90.4475C101.898 90.3234 101.809 90.1767 101.752 90.0164C101.695 89.8561 101.67 89.6856 101.68 89.5154C101.698 89.1813 101.84 88.8666 102.077 88.6347C102.315 88.4028 102.63 88.2712 102.96 88.2664C103.128 88.2661 103.294 88.3007 103.448 88.3681C103.602 88.4355 103.741 88.5342 103.857 88.6583C103.972 88.7823 104.061 88.929 104.118 89.0893C104.175 89.2496 104.2 89.4201 104.19 89.5904C104.175 89.9254 104.034 90.242 103.796 90.4745C103.558 90.7069 103.241 90.8376 102.91 90.8394Z" fill="#FAFAFA"/>
        <path d="M88.4412 90.8394C88.2733 90.8397 88.1071 90.8051 87.9528 90.7377C87.7986 90.6703 87.6595 90.5715 87.5443 90.4475C87.4291 90.3234 87.3401 90.1767 87.2828 90.0164C87.2255 89.8561 87.2011 89.6856 87.2112 89.5154C87.2269 89.1814 87.3676 88.866 87.6046 88.6339C87.8416 88.4017 88.157 88.2702 88.4863 88.2664C88.6542 88.2661 88.8204 88.3007 88.9747 88.3681C89.1289 88.4355 89.268 88.5342 89.3832 88.6583C89.4984 88.7823 89.5874 88.929 89.6447 89.0893C89.702 89.2496 89.7264 89.4201 89.7163 89.5904C89.7006 89.9244 89.5599 90.2397 89.3229 90.4719C89.0859 90.7041 88.7705 90.8355 88.4412 90.8394Z" fill="#FAFAFA"/>
        <path d="M73.9725 90.8394C73.8045 90.8397 73.6383 90.8051 73.4841 90.7377C73.3298 90.6703 73.1908 90.5715 73.0755 90.4475C72.9603 90.3234 72.8713 90.1767 72.814 90.0164C72.7567 89.8561 72.7324 89.6856 72.7425 89.5154C72.7581 89.1814 72.8988 88.866 73.1358 88.6339C73.3729 88.4017 73.6883 88.2702 74.0176 88.2664C74.1855 88.2661 74.3517 88.3007 74.5059 88.3681C74.6602 88.4355 74.7992 88.5342 74.9145 88.6583C75.0297 88.7823 75.1187 88.929 75.176 89.0893C75.2333 89.2496 75.2576 89.4201 75.2476 89.5904C75.2329 89.9247 75.0924 90.2407 74.8552 90.473C74.618 90.7054 74.302 90.8365 73.9725 90.8394Z" fill="#FAFAFA"/>
    </g>
    <path d="M77.5884 95.4943H70.3109C70.2054 95.4952 70.1008 95.4738 70.0038 95.4316C69.9069 95.3893 69.8196 95.3271 69.7476 95.2488C69.6755 95.1705 69.6202 95.0779 69.5852 94.9769C69.5502 94.8758 69.5362 94.7684 69.5442 94.6616C69.5523 94.4434 69.6413 94.2363 69.7933 94.0819C69.9454 93.9275 70.1493 93.8371 70.3642 93.8289H77.6417C77.7472 93.828 77.8517 93.8494 77.9487 93.8916C78.0456 93.9339 78.1329 93.9961 78.205 94.0744C78.277 94.1526 78.3323 94.2452 78.3673 94.3463C78.4023 94.4474 78.4163 94.5547 78.4084 94.6616C78.4002 94.8798 78.3112 95.0868 78.1592 95.2413C78.0071 95.3957 77.8032 95.486 77.5884 95.4943Z" fill="#465B9B"/>
    <path d="M92.0571 95.4943H84.7796C84.6741 95.4952 84.5696 95.4738 84.4726 95.4316C84.3756 95.3893 84.2884 95.3271 84.2163 95.2488C84.1442 95.1705 84.089 95.0779 84.0539 94.9769C84.0189 94.8758 84.005 94.7684 84.0129 94.6616C84.0213 94.4399 84.1132 94.2299 84.2695 94.0749C84.4259 93.92 84.6349 93.8319 84.8534 93.8289H92.1268C92.2325 93.828 92.3372 93.8494 92.4343 93.8916C92.5315 93.9338 92.619 93.996 92.6914 94.0742C92.7638 94.1524 92.8195 94.2449 92.8549 94.346C92.8904 94.4471 92.905 94.5545 92.8976 94.6616C92.8892 94.8833 92.7974 95.0933 92.641 95.2482C92.4846 95.4032 92.2756 95.4912 92.0571 95.4943Z" fill="#465B9B"/>
    <path d="M106.526 95.4943H99.2487C99.1431 95.4951 99.0383 95.4738 98.9412 95.4316C98.844 95.3893 98.7565 95.3272 98.6841 95.249C98.6118 95.1708 98.5561 95.0783 98.5206 94.9772C98.4851 94.8761 98.4706 94.7686 98.4779 94.6616C98.4863 94.4399 98.5782 94.2299 98.7346 94.0749C98.891 93.92 99.1 93.8319 99.3184 93.8289H106.6C106.706 93.828 106.81 93.8494 106.907 93.8916C107.004 93.9339 107.091 93.9961 107.163 94.0744C107.235 94.1526 107.291 94.2452 107.326 94.3463C107.361 94.4474 107.375 94.5547 107.367 94.6616C107.359 94.8836 107.268 95.0942 107.111 95.2494C106.955 95.4045 106.745 95.4923 106.526 95.4943Z" fill="#465B9B"/>
    <path d="M120.991 95.4943H113.714C113.608 95.4952 113.504 95.4738 113.407 95.4316C113.31 95.3893 113.222 95.3271 113.15 95.2488C113.078 95.1705 113.023 95.0779 112.988 94.9769C112.953 94.8758 112.939 94.7684 112.947 94.6616C112.955 94.4434 113.044 94.2363 113.196 94.0819C113.348 93.9275 113.552 93.8371 113.767 93.8289H121.044C121.15 93.828 121.255 93.8494 121.352 93.8916C121.448 93.9339 121.536 93.9961 121.608 94.0744C121.68 94.1526 121.735 94.2452 121.77 94.3463C121.805 94.4474 121.819 94.5547 121.811 94.6616C121.803 94.8798 121.714 95.0868 121.562 95.2413C121.41 95.3957 121.206 95.486 120.991 95.4943Z" fill="#465B9B"/>
    <path d="M135.46 95.4943H128.182C128.077 95.4952 127.972 95.4738 127.875 95.4316C127.778 95.3893 127.691 95.3271 127.619 95.2488C127.547 95.1705 127.492 95.0779 127.457 94.9769C127.422 94.8758 127.408 94.7684 127.416 94.6616C127.424 94.4399 127.516 94.2299 127.672 94.0749C127.829 93.92 128.038 93.8319 128.256 93.8289H135.534C135.639 93.828 135.744 93.8494 135.841 93.8916C135.938 93.9339 136.025 93.9961 136.097 94.0744C136.169 94.1526 136.224 94.2452 136.259 94.3463C136.294 94.4474 136.308 94.5547 136.3 94.6616C136.292 94.8833 136.2 95.0933 136.044 95.2482C135.887 95.4032 135.678 95.4913 135.46 95.4943Z" fill="#465B9B"/>
    <path d="M149.929 95.4943H142.651C142.546 95.4952 142.441 95.4738 142.344 95.4316C142.247 95.3893 142.16 95.3271 142.088 95.2488C142.016 95.1705 141.961 95.0779 141.926 94.9769C141.891 94.8758 141.877 94.7684 141.884 94.6616C141.893 94.4399 141.985 94.2299 142.141 94.0749C142.298 93.92 142.507 93.8319 142.725 93.8289H149.998C150.104 93.828 150.209 93.8494 150.306 93.8916C150.403 93.9338 150.491 93.996 150.563 94.0742C150.635 94.1524 150.691 94.2449 150.727 94.346C150.762 94.4471 150.777 94.5545 150.769 94.6616C150.761 94.8833 150.669 95.0933 150.513 95.2482C150.356 95.4032 150.147 95.4912 149.929 95.4943Z" fill="#465B9B"/>
    <g opacity="0.3">
        <path d="M77.5884 95.4943H70.3109C70.2054 95.4952 70.1008 95.4738 70.0038 95.4316C69.9069 95.3893 69.8196 95.3271 69.7476 95.2488C69.6755 95.1705 69.6202 95.0779 69.5852 94.9769C69.5502 94.8758 69.5362 94.7684 69.5442 94.6616C69.5523 94.4434 69.6413 94.2363 69.7933 94.0819C69.9454 93.9275 70.1493 93.8371 70.3642 93.8289H77.6417C77.7472 93.828 77.8517 93.8494 77.9487 93.8916C78.0456 93.9339 78.1329 93.9961 78.205 94.0744C78.277 94.1526 78.3323 94.2452 78.3673 94.3463C78.4023 94.4474 78.4163 94.5547 78.4084 94.6616C78.4002 94.8798 78.3112 95.0868 78.1592 95.2413C78.0071 95.3957 77.8032 95.486 77.5884 95.4943Z" fill="black"/>
        <path d="M92.0571 95.4943H84.7796C84.6741 95.4952 84.5696 95.4738 84.4726 95.4316C84.3756 95.3893 84.2884 95.3271 84.2163 95.2488C84.1442 95.1705 84.089 95.0779 84.0539 94.9769C84.0189 94.8758 84.005 94.7684 84.0129 94.6616C84.0213 94.4399 84.1132 94.2299 84.2695 94.0749C84.4259 93.92 84.6349 93.8319 84.8534 93.8289H92.1268C92.2325 93.828 92.3372 93.8494 92.4343 93.8916C92.5315 93.9338 92.619 93.996 92.6914 94.0742C92.7638 94.1524 92.8195 94.2449 92.8549 94.346C92.8904 94.4471 92.905 94.5545 92.8976 94.6616C92.8892 94.8833 92.7974 95.0933 92.641 95.2482C92.4846 95.4032 92.2756 95.4912 92.0571 95.4943Z" fill="black"/>
        <path d="M106.526 95.4943H99.2487C99.1431 95.4951 99.0383 95.4738 98.9412 95.4316C98.844 95.3893 98.7565 95.3272 98.6841 95.249C98.6118 95.1708 98.5561 95.0783 98.5206 94.9772C98.4851 94.8761 98.4706 94.7686 98.4779 94.6616C98.4863 94.4399 98.5782 94.2299 98.7346 94.0749C98.891 93.92 99.1 93.8319 99.3184 93.8289H106.6C106.706 93.828 106.81 93.8494 106.907 93.8916C107.004 93.9339 107.091 93.9961 107.163 94.0744C107.235 94.1526 107.291 94.2452 107.326 94.3463C107.361 94.4474 107.375 94.5547 107.367 94.6616C107.359 94.8836 107.268 95.0942 107.111 95.2494C106.955 95.4045 106.745 95.4923 106.526 95.4943Z" fill="black"/>
        <path d="M120.991 95.4943H113.713C113.608 95.4952 113.503 95.4738 113.406 95.4316C113.309 95.3893 113.222 95.3271 113.15 95.2488C113.078 95.1705 113.023 95.0779 112.988 94.9769C112.953 94.8758 112.939 94.7684 112.947 94.6616C112.955 94.4434 113.044 94.2363 113.196 94.0819C113.348 93.9275 113.552 93.8371 113.767 93.8289H121.044C121.15 93.828 121.254 93.8494 121.351 93.8916C121.448 93.9339 121.535 93.9961 121.607 94.0744C121.679 94.1526 121.735 94.2452 121.77 94.3463C121.805 94.4474 121.819 94.5547 121.811 94.6616C121.803 94.8798 121.714 95.0868 121.562 95.2413C121.409 95.3957 121.206 95.486 120.991 95.4943Z" fill="black"/>
        <path d="M135.46 95.4943H128.182C128.077 95.4952 127.972 95.4738 127.875 95.4316C127.778 95.3893 127.691 95.3271 127.619 95.2488C127.547 95.1705 127.492 95.0779 127.457 94.9769C127.422 94.8758 127.408 94.7684 127.416 94.6616C127.424 94.4399 127.516 94.2299 127.672 94.0749C127.829 93.92 128.038 93.8319 128.256 93.8289H135.534C135.639 93.828 135.744 93.8494 135.841 93.8916C135.938 93.9339 136.025 93.9961 136.097 94.0744C136.169 94.1526 136.224 94.2452 136.259 94.3463C136.294 94.4474 136.308 94.5547 136.3 94.6616C136.292 94.8833 136.2 95.0933 136.044 95.2482C135.887 95.4032 135.678 95.4913 135.46 95.4943Z" fill="black"/>
        <path d="M149.929 95.4943H142.651C142.546 95.4952 142.441 95.4738 142.344 95.4316C142.247 95.3893 142.16 95.3271 142.088 95.2488C142.016 95.1705 141.961 95.0779 141.926 94.9769C141.891 94.8758 141.877 94.7684 141.884 94.6616C141.893 94.4399 141.985 94.2299 142.141 94.0749C142.298 93.92 142.507 93.8319 142.725 93.8289H149.998C150.104 93.828 150.209 93.8494 150.306 93.8916C150.403 93.9338 150.491 93.996 150.563 94.0742C150.635 94.1524 150.691 94.2449 150.727 94.346C150.762 94.4471 150.777 94.5545 150.769 94.6616C150.761 94.8833 150.669 95.0933 150.513 95.2482C150.356 95.4032 150.147 95.4912 149.929 95.4943Z" fill="black"/>
    </g>
    <path d="M77.9902 111.22H68.511C68.3031 111.221 68.0972 111.178 67.9059 111.096C67.7146 111.013 67.5419 110.892 67.3984 110.739C67.2549 110.586 67.1436 110.405 67.0712 110.207C66.9988 110.009 66.967 109.799 66.9776 109.588L67.3876 99.9617C67.4124 99.5241 67.5997 99.1125 67.9117 98.8096C68.2236 98.5067 68.637 98.3352 69.0686 98.3296H78.5478C78.7557 98.3288 78.9616 98.371 79.1529 98.4537C79.3441 98.5364 79.5168 98.6578 79.6603 98.8106C79.8039 98.9633 79.9152 99.1442 79.9876 99.3421C80.0599 99.54 80.0918 99.7508 80.0812 99.9617L79.6712 109.588C79.6454 110.025 79.4578 110.436 79.146 110.739C78.8343 111.041 78.4214 111.213 77.9902 111.22Z" fill="#465B9B"/>
    <path d="M92.4591 111.22H82.9799C82.7719 111.221 82.5657 111.179 82.3741 111.097C82.1826 111.014 82.0097 110.893 81.866 110.74C81.7224 110.587 81.6111 110.406 81.5389 110.208C81.4668 110.01 81.4354 109.799 81.4465 109.588L81.8565 99.9617C81.8814 99.5241 82.0687 99.1125 82.3806 98.8096C82.6926 98.5067 83.106 98.3352 83.5375 98.3296H93.029C93.2371 98.3288 93.4432 98.371 93.6347 98.4536C93.8262 98.5363 93.9991 98.6576 94.143 98.8103C94.2868 98.963 94.3985 99.1438 94.4714 99.3418C94.5442 99.5397 94.5766 99.7506 94.5665 99.9617L94.136 109.588C94.1122 110.025 93.9258 110.437 93.6145 110.74C93.3032 111.042 92.8903 111.214 92.4591 111.22Z" fill="#465B9B"/>
    <path d="M106.924 111.22H97.4489C97.2409 111.221 97.0348 111.178 96.8433 111.096C96.6518 111.013 96.4789 110.892 96.335 110.739C96.1912 110.586 96.0795 110.406 96.0066 110.208C95.9338 110.01 95.9014 109.799 95.9114 109.588L96.3214 99.9617C96.3463 99.5242 96.5336 99.1125 96.8455 98.8096C97.1575 98.5067 97.5709 98.3352 98.0024 98.3296H107.478C107.686 98.3282 107.892 98.37 108.083 98.4525C108.275 98.535 108.448 98.6564 108.591 98.8093C108.735 98.9621 108.846 99.1432 108.919 99.3414C108.991 99.5396 109.022 99.7507 109.011 99.9617L108.601 109.588C108.576 110.025 108.389 110.436 108.078 110.738C107.767 111.041 107.355 111.213 106.924 111.22Z" fill="#465B9B"/>
    <path d="M121.393 111.22H111.93C111.722 111.221 111.516 111.179 111.324 111.097C111.132 111.015 110.959 110.893 110.815 110.74C110.671 110.588 110.559 110.407 110.487 110.208C110.414 110.01 110.382 109.799 110.393 109.588L110.803 99.9617C110.826 99.5245 111.013 99.1128 111.324 98.8099C111.635 98.5069 112.048 98.3353 112.48 98.3296H121.959C122.167 98.3288 122.373 98.371 122.564 98.4537C122.755 98.5364 122.928 98.6578 123.071 98.8106C123.215 98.9633 123.326 99.1442 123.398 99.3421C123.471 99.54 123.503 99.7508 123.492 99.9617L123.082 109.588C123.057 110.027 122.869 110.44 122.555 110.743C122.241 111.046 121.826 111.216 121.393 111.22Z" fill="#465B9B"/>
    <path d="M135.862 111.22H126.383C126.175 111.221 125.969 111.178 125.777 111.096C125.586 111.013 125.413 110.892 125.27 110.739C125.126 110.586 125.015 110.405 124.943 110.207C124.87 110.009 124.839 109.799 124.849 109.588L125.259 99.9617C125.284 99.5242 125.471 99.1125 125.783 98.8096C126.095 98.5067 126.509 98.3352 126.94 98.3296H136.415C136.623 98.3282 136.83 98.37 137.022 98.4525C137.213 98.5349 137.387 98.6562 137.531 98.809C137.674 98.9619 137.786 99.1429 137.859 99.3411C137.931 99.5393 137.963 99.7505 137.953 99.9617L137.543 109.588C137.517 110.025 137.329 110.436 137.018 110.739C136.706 111.041 136.293 111.213 135.862 111.22Z" fill="#465B9B"/>
    <path d="M150.327 111.22H140.852C140.643 111.221 140.437 111.179 140.246 111.097C140.054 111.014 139.881 110.893 139.738 110.74C139.594 110.587 139.483 110.406 139.411 110.208C139.338 110.01 139.307 109.799 139.318 109.588L139.728 99.9617C139.753 99.5241 139.94 99.1125 140.252 98.8096C140.564 98.5067 140.978 98.3352 141.409 98.3296H150.884C151.092 98.3288 151.298 98.371 151.49 98.4536C151.681 98.5363 151.854 98.6576 151.998 98.8103C152.142 98.963 152.254 99.1438 152.327 99.3418C152.399 99.5397 152.432 99.7506 152.422 99.9617L151.991 109.588C151.968 110.023 151.783 110.433 151.474 110.735C151.166 111.038 150.756 111.211 150.327 111.22Z" fill="#465B9B"/>
    <g opacity="0.8">
        <path d="M77.9902 111.22H68.511C68.3031 111.221 68.0972 111.178 67.9059 111.096C67.7146 111.013 67.5419 110.892 67.3984 110.739C67.2549 110.586 67.1436 110.405 67.0712 110.207C66.9988 110.009 66.967 109.799 66.9776 109.588L67.3876 99.9617C67.4124 99.5241 67.5997 99.1125 67.9117 98.8096C68.2236 98.5067 68.637 98.3352 69.0686 98.3296H78.5478C78.7557 98.3288 78.9616 98.371 79.1529 98.4537C79.3441 98.5364 79.5168 98.6578 79.6603 98.8106C79.8039 98.9633 79.9152 99.1442 79.9876 99.3421C80.0599 99.54 80.0918 99.7508 80.0812 99.9617L79.6712 109.588C79.6454 110.025 79.4578 110.436 79.146 110.739C78.8343 111.041 78.4214 111.213 77.9902 111.22Z" fill="#FAFAFA"/>
        <path d="M92.4591 111.22H82.9799C82.7719 111.221 82.5657 111.179 82.3741 111.097C82.1826 111.014 82.0097 110.893 81.866 110.74C81.7224 110.587 81.6111 110.406 81.5389 110.208C81.4668 110.01 81.4354 109.799 81.4465 109.588L81.8565 99.9617C81.8814 99.5241 82.0687 99.1125 82.3806 98.8096C82.6926 98.5067 83.106 98.3352 83.5375 98.3296H93.029C93.2371 98.3288 93.4432 98.371 93.6347 98.4536C93.8262 98.5363 93.9991 98.6576 94.143 98.8103C94.2868 98.963 94.3985 99.1438 94.4714 99.3418C94.5442 99.5397 94.5766 99.7506 94.5665 99.9617L94.136 109.588C94.1122 110.025 93.9258 110.437 93.6145 110.74C93.3032 111.042 92.8903 111.214 92.4591 111.22Z" fill="#FAFAFA"/>
        <path d="M106.924 111.22H97.4489C97.2409 111.221 97.0348 111.178 96.8433 111.096C96.6518 111.013 96.4789 110.892 96.335 110.739C96.1912 110.586 96.0795 110.406 96.0066 110.208C95.9338 110.01 95.9014 109.799 95.9114 109.588L96.3214 99.9617C96.3463 99.5242 96.5336 99.1125 96.8455 98.8096C97.1575 98.5067 97.5709 98.3352 98.0024 98.3296H107.478C107.686 98.3282 107.892 98.37 108.083 98.4525C108.275 98.535 108.448 98.6564 108.591 98.8093C108.735 98.9621 108.846 99.1432 108.919 99.3414C108.991 99.5396 109.022 99.7507 109.011 99.9617L108.601 109.588C108.576 110.025 108.389 110.436 108.078 110.738C107.767 111.041 107.355 111.213 106.924 111.22Z" fill="#FAFAFA"/>
        <path d="M121.393 111.22H111.93C111.722 111.221 111.516 111.179 111.324 111.097C111.132 111.015 110.959 110.893 110.815 110.74C110.671 110.588 110.559 110.407 110.487 110.208C110.414 110.01 110.382 109.799 110.393 109.588L110.803 99.9617C110.826 99.5245 111.013 99.1128 111.324 98.8099C111.635 98.5069 112.048 98.3353 112.48 98.3296H121.959C122.167 98.3288 122.373 98.371 122.564 98.4537C122.755 98.5364 122.928 98.6578 123.071 98.8106C123.215 98.9633 123.326 99.1442 123.398 99.3421C123.471 99.54 123.503 99.7508 123.492 99.9617L123.082 109.588C123.057 110.027 122.869 110.44 122.555 110.743C122.241 111.046 121.826 111.216 121.393 111.22Z" fill="#FAFAFA"/>
        <path d="M135.862 111.22H126.383C126.175 111.221 125.969 111.178 125.778 111.096C125.587 111.013 125.414 110.892 125.27 110.739C125.127 110.586 125.016 110.405 124.943 110.207C124.871 110.009 124.839 109.799 124.85 109.588L125.26 99.9617C125.285 99.5242 125.472 99.1125 125.784 98.8096C126.096 98.5067 126.509 98.3352 126.941 98.3296H136.416C136.624 98.3282 136.83 98.37 137.022 98.4525C137.214 98.5349 137.387 98.6562 137.531 98.809C137.675 98.9619 137.787 99.1429 137.859 99.3411C137.932 99.5393 137.964 99.7505 137.953 99.9617L137.543 109.588C137.517 110.025 137.33 110.436 137.018 110.739C136.706 111.041 136.293 111.213 135.862 111.22Z" fill="#FAFAFA"/>
        <path d="M150.327 111.22H140.852C140.643 111.221 140.437 111.179 140.246 111.097C140.054 111.014 139.881 110.893 139.738 110.74C139.594 110.587 139.483 110.406 139.411 110.208C139.338 110.01 139.307 109.799 139.318 109.588L139.728 99.9617C139.753 99.5241 139.94 99.1125 140.252 98.8096C140.564 98.5067 140.978 98.3352 141.409 98.3296H150.884C151.092 98.3288 151.298 98.371 151.49 98.4536C151.681 98.5363 151.854 98.6576 151.998 98.8103C152.142 98.963 152.254 99.1438 152.327 99.3418C152.399 99.5397 152.432 99.7506 152.422 99.9617L151.991 109.588C151.968 110.023 151.783 110.433 151.474 110.735C151.166 111.038 150.756 111.211 150.327 111.22Z" fill="#FAFAFA"/>
    </g>
    <path d="M77.3261 126.154H67.8469C67.639 126.155 67.4331 126.113 67.2418 126.03C67.0505 125.947 66.8779 125.826 66.7343 125.673C66.5908 125.521 66.4795 125.34 66.4071 125.142C66.3348 124.944 66.3029 124.733 66.3135 124.522L66.7235 114.896C66.7493 114.459 66.9369 114.048 67.2486 113.745C67.5604 113.442 67.9733 113.271 68.4045 113.264H77.9001C78.108 113.263 78.3139 113.305 78.5052 113.388C78.6965 113.471 78.8692 113.592 79.0127 113.745C79.1562 113.898 79.2675 114.079 79.3399 114.277C79.4122 114.474 79.4441 114.685 79.4335 114.896L79.0235 124.522C78.9975 124.962 78.8076 125.376 78.4924 125.679C78.1772 125.982 77.7602 126.152 77.3261 126.154Z" fill="#465B9B"/>
    <path d="M91.7949 126.154H82.3157C82.1078 126.155 81.9019 126.113 81.7106 126.03C81.5193 125.948 81.3466 125.826 81.2031 125.673C81.0596 125.521 80.9482 125.34 80.8759 125.142C80.8035 124.944 80.7717 124.733 80.7823 124.522L81.1923 114.896C81.2171 114.459 81.4044 114.047 81.7164 113.744C82.0283 113.441 82.4417 113.27 82.8733 113.264H92.3484C92.5582 113.263 92.7662 113.305 92.9593 113.388C93.1525 113.472 93.3267 113.594 93.4712 113.749C93.6157 113.904 93.7275 114.087 93.7995 114.287C93.8715 114.487 93.9023 114.7 93.89 114.913L93.48 124.522C93.456 124.961 93.2684 125.374 92.9554 125.677C92.6424 125.98 92.2274 126.151 91.7949 126.154Z" fill="#465B9B"/>
    <path d="M106.26 126.154H96.7846C96.5766 126.156 96.3704 126.114 96.1788 126.031C95.9873 125.949 95.8143 125.828 95.6707 125.675C95.5271 125.522 95.4158 125.341 95.3436 125.142C95.2715 124.944 95.24 124.733 95.2512 124.522L95.6612 114.896C95.6861 114.459 95.8734 114.047 96.1853 113.744C96.4973 113.441 96.9107 113.27 97.3422 113.264H106.817C107.025 113.263 107.232 113.304 107.423 113.387C107.615 113.469 107.788 113.591 107.931 113.744C108.075 113.897 108.186 114.078 108.258 114.276C108.33 114.474 108.362 114.685 108.351 114.896L107.941 124.522C107.916 124.96 107.729 125.371 107.417 125.674C107.105 125.977 106.691 126.149 106.26 126.154Z" fill="#465B9B"/>
    <path d="M120.729 126.154H111.254C111.046 126.155 110.839 126.113 110.648 126.03C110.456 125.948 110.284 125.826 110.14 125.674C109.996 125.521 109.884 125.34 109.811 125.142C109.739 124.944 109.706 124.733 109.716 124.522L110.126 114.896C110.15 114.459 110.336 114.047 110.648 113.744C110.959 113.441 111.372 113.27 111.803 113.264H121.282C121.493 113.26 121.703 113.301 121.898 113.383C122.093 113.466 122.269 113.588 122.415 113.743C122.561 113.898 122.673 114.082 122.746 114.283C122.818 114.484 122.849 114.699 122.836 114.913L122.426 124.539C122.397 124.976 122.206 125.386 121.891 125.686C121.576 125.986 121.16 126.153 120.729 126.154Z" fill="#465B9B"/>
    <path d="M135.198 126.154H125.718C125.511 126.155 125.305 126.113 125.113 126.03C124.922 125.948 124.749 125.826 124.606 125.673C124.462 125.521 124.351 125.34 124.279 125.142C124.206 124.944 124.174 124.733 124.185 124.522L124.595 114.896C124.617 114.455 124.803 114.039 125.116 113.733C125.429 113.427 125.846 113.253 126.28 113.247H135.759C135.967 113.247 136.173 113.289 136.364 113.372C136.556 113.454 136.728 113.576 136.872 113.728C137.015 113.881 137.127 114.062 137.199 114.26C137.272 114.458 137.303 114.669 137.293 114.88L136.883 124.506C136.861 124.946 136.675 125.362 136.362 125.669C136.048 125.975 135.632 126.149 135.198 126.154Z" fill="#465B9B"/>
    <path d="M149.65 126.154H140.187C139.979 126.156 139.773 126.114 139.582 126.031C139.39 125.949 139.217 125.828 139.074 125.675C138.93 125.522 138.819 125.341 138.746 125.142C138.674 124.944 138.643 124.733 138.654 124.522L139.064 114.896C139.089 114.459 139.276 114.047 139.588 113.744C139.9 113.441 140.314 113.27 140.745 113.264H150.22C150.428 113.263 150.634 113.305 150.826 113.388C151.017 113.471 151.19 113.592 151.334 113.745C151.478 113.897 151.59 114.078 151.662 114.276C151.735 114.474 151.768 114.685 151.758 114.896L151.327 124.522C151.303 124.959 151.117 125.371 150.806 125.674C150.494 125.977 150.081 126.149 149.65 126.154Z" fill="#465B9B"/>
    <g opacity="0.8">
        <path d="M77.3261 126.155H67.8469C67.639 126.155 67.4331 126.113 67.2418 126.031C67.0505 125.948 66.8779 125.826 66.7343 125.674C66.5908 125.521 66.4795 125.34 66.4071 125.142C66.3348 124.944 66.3029 124.733 66.3135 124.523L66.7235 114.897C66.7493 114.459 66.9369 114.048 67.2486 113.745C67.5604 113.443 67.9733 113.271 68.4045 113.264H77.9001C78.108 113.264 78.3139 113.306 78.5052 113.388C78.6965 113.471 78.8692 113.593 79.0127 113.745C79.1562 113.898 79.2675 114.079 79.3399 114.277C79.4122 114.475 79.4441 114.686 79.4335 114.897L79.0235 124.523C78.9975 124.963 78.8076 125.376 78.4924 125.679C78.1772 125.982 77.7602 126.152 77.3261 126.155Z" fill="#FAFAFA"/>
        <path d="M91.7949 126.154H82.3157C82.1078 126.155 81.9019 126.113 81.7106 126.03C81.5193 125.948 81.3466 125.826 81.2031 125.673C81.0596 125.521 80.9482 125.34 80.8759 125.142C80.8035 124.944 80.7717 124.733 80.7823 124.522L81.1923 114.896C81.2171 114.459 81.4044 114.047 81.7164 113.744C82.0283 113.441 82.4417 113.27 82.8733 113.264H92.3484C92.5582 113.263 92.7662 113.305 92.9593 113.388C93.1525 113.472 93.3267 113.594 93.4712 113.749C93.6157 113.904 93.7275 114.087 93.7995 114.287C93.8715 114.487 93.9023 114.7 93.89 114.913L93.48 124.522C93.456 124.961 93.2684 125.374 92.9554 125.677C92.6424 125.98 92.2274 126.151 91.7949 126.154Z" fill="#FAFAFA"/>
        <path d="M106.26 126.154H96.7846C96.5766 126.156 96.3704 126.114 96.1788 126.031C95.9873 125.949 95.8143 125.828 95.6707 125.675C95.5271 125.522 95.4158 125.341 95.3436 125.142C95.2715 124.944 95.24 124.733 95.2512 124.522L95.6612 114.896C95.6861 114.459 95.8734 114.047 96.1853 113.744C96.4973 113.441 96.9107 113.27 97.3422 113.264H106.817C107.025 113.263 107.232 113.304 107.423 113.387C107.615 113.469 107.788 113.591 107.931 113.744C108.075 113.897 108.186 114.078 108.258 114.276C108.33 114.474 108.362 114.685 108.351 114.896L107.941 124.522C107.916 124.96 107.729 125.371 107.417 125.674C107.105 125.977 106.691 126.149 106.26 126.154Z" fill="#FAFAFA"/>
        <path d="M120.729 126.154H111.254C111.046 126.155 110.839 126.113 110.648 126.03C110.456 125.948 110.284 125.826 110.14 125.674C109.996 125.521 109.884 125.34 109.811 125.142C109.739 124.944 109.706 124.733 109.716 124.522L110.126 114.896C110.15 114.459 110.336 114.047 110.648 113.744C110.959 113.441 111.372 113.27 111.803 113.264H121.282C121.493 113.26 121.703 113.301 121.898 113.383C122.093 113.466 122.269 113.588 122.415 113.743C122.561 113.898 122.673 114.082 122.746 114.283C122.818 114.484 122.849 114.699 122.836 114.913L122.426 124.539C122.397 124.976 122.206 125.386 121.891 125.686C121.576 125.986 121.16 126.153 120.729 126.154Z" fill="#FAFAFA"/>
        <path d="M135.198 126.154H125.718C125.511 126.155 125.305 126.113 125.113 126.03C124.922 125.948 124.749 125.826 124.606 125.673C124.462 125.521 124.351 125.34 124.279 125.142C124.206 124.944 124.174 124.733 124.185 124.522L124.595 114.896C124.617 114.455 124.803 114.039 125.116 113.733C125.429 113.427 125.846 113.253 126.28 113.247H135.759C135.967 113.247 136.173 113.289 136.364 113.372C136.556 113.454 136.728 113.576 136.872 113.728C137.015 113.881 137.127 114.062 137.199 114.26C137.272 114.458 137.303 114.669 137.293 114.88L136.883 124.506C136.861 124.946 136.675 125.362 136.362 125.669C136.048 125.975 135.632 126.149 135.198 126.154Z" fill="#FAFAFA"/>
        <path d="M149.65 126.154H140.187C139.979 126.156 139.773 126.114 139.582 126.031C139.39 125.949 139.217 125.828 139.074 125.675C138.93 125.522 138.819 125.341 138.746 125.142C138.674 124.944 138.643 124.733 138.654 124.522L139.064 114.896C139.089 114.459 139.276 114.047 139.588 113.744C139.9 113.441 140.314 113.27 140.745 113.264H150.22C150.428 113.263 150.634 113.305 150.826 113.388C151.017 113.471 151.19 113.592 151.334 113.745C151.478 113.897 151.59 114.078 151.662 114.276C151.735 114.474 151.768 114.685 151.758 114.896L151.327 124.522C151.303 124.959 151.117 125.371 150.806 125.674C150.494 125.977 150.081 126.149 149.65 126.154Z" fill="#FAFAFA"/>
    </g>
    <path d="M76.67 141.085H67.1826C66.9745 141.086 66.7683 141.044 66.5768 140.962C66.3852 140.879 66.2123 140.758 66.0687 140.605C65.925 140.452 65.8137 140.271 65.7416 140.073C65.6694 139.875 65.638 139.664 65.6492 139.453L66.0592 129.831C66.084 129.393 66.2713 128.981 66.5833 128.679C66.8952 128.376 67.3086 128.204 67.7402 128.199H77.2194C77.4275 128.197 77.6336 128.239 77.8252 128.321C78.0168 128.404 78.1897 128.525 78.3333 128.678C78.4769 128.831 78.5883 129.012 78.6604 129.21C78.7325 129.409 78.764 129.62 78.7528 129.831L78.3428 139.453C78.319 139.889 78.1331 140.3 77.8227 140.603C77.5123 140.906 77.1004 141.078 76.67 141.085Z" fill="#465B9B"/>
    <path d="M91.131 141.085H81.6518C81.4437 141.086 81.2376 141.044 81.046 140.962C80.8545 140.879 80.6815 140.758 80.5379 140.605C80.3943 140.452 80.2829 140.271 80.2108 140.073C80.1387 139.875 80.1072 139.664 80.1184 139.453L80.5284 129.831C80.5523 129.393 80.7393 128.981 81.0515 128.677C81.3636 128.374 81.7776 128.203 82.2094 128.199H91.6845C91.8929 128.197 92.0995 128.238 92.2916 128.32C92.4836 128.402 92.6571 128.524 92.8011 128.677C92.9452 128.83 93.0569 129.011 93.1293 129.209C93.2017 129.408 93.2332 129.619 93.222 129.831L92.812 139.453C92.7891 139.891 92.6024 140.304 92.29 140.607C91.9777 140.91 91.5632 141.081 91.131 141.085Z" fill="#465B9B"/>
    <path d="M105.596 141.085H96.1206C95.9125 141.086 95.7063 141.044 95.5148 140.962C95.3232 140.879 95.1503 140.758 95.0066 140.605C94.863 140.452 94.7517 140.271 94.6796 140.073C94.6074 139.875 94.576 139.664 94.5872 139.453L94.9972 129.831C95.0211 129.393 95.2081 128.981 95.5202 128.678C95.8324 128.374 96.2463 128.203 96.6782 128.199H106.19C106.398 128.197 106.605 128.239 106.797 128.321C106.988 128.404 107.161 128.525 107.305 128.678C107.449 128.831 107.561 129.012 107.634 129.21C107.706 129.408 107.738 129.62 107.728 129.831L107.297 139.453C107.273 139.894 107.083 140.309 106.767 140.613C106.45 140.917 106.031 141.085 105.596 141.085Z" fill="#465B9B"/>
    <path d="M120.064 141.085H110.589C110.381 141.086 110.175 141.044 109.983 140.962C109.791 140.879 109.618 140.758 109.474 140.605C109.33 140.452 109.218 140.271 109.146 140.073C109.073 139.875 109.041 139.664 109.052 139.453L109.462 129.831C109.485 129.393 109.671 128.981 109.982 128.678C110.294 128.375 110.707 128.203 111.139 128.199H120.618C120.826 128.197 121.032 128.239 121.224 128.321C121.415 128.404 121.588 128.525 121.732 128.678C121.875 128.831 121.987 129.012 122.059 129.21C122.131 129.409 122.162 129.62 122.151 129.831L121.741 139.453C121.717 139.89 121.531 140.301 121.22 140.604C120.908 140.907 120.496 141.079 120.064 141.085Z" fill="#465B9B"/>
    <path d="M134.534 141.085H125.05C124.842 141.086 124.636 141.044 124.444 140.962C124.253 140.879 124.08 140.758 123.936 140.605C123.793 140.452 123.681 140.271 123.609 140.073C123.537 139.875 123.506 139.664 123.517 139.453L123.927 129.831C123.952 129.393 124.139 128.981 124.451 128.679C124.763 128.376 125.176 128.204 125.608 128.199H135.087C135.295 128.197 135.501 128.239 135.693 128.321C135.884 128.404 136.057 128.525 136.201 128.678C136.345 128.831 136.456 129.012 136.528 129.21C136.6 129.409 136.632 129.62 136.62 129.831L136.21 139.453C136.186 139.889 135.999 140.301 135.688 140.603C135.377 140.906 134.964 141.078 134.534 141.085Z" fill="#465B9B"/>
    <path d="M149.002 141.085H139.523C139.315 141.086 139.109 141.044 138.917 140.962C138.726 140.879 138.553 140.758 138.409 140.605C138.265 140.452 138.154 140.271 138.082 140.073C138.01 139.875 137.978 139.664 137.99 139.453L138.4 129.831C138.423 129.393 138.61 128.981 138.923 128.678C139.235 128.374 139.649 128.203 140.081 128.199H149.556C149.764 128.197 149.97 128.239 150.162 128.321C150.354 128.404 150.527 128.525 150.671 128.678C150.815 128.831 150.927 129.012 150.999 129.21C151.072 129.408 151.104 129.62 151.093 129.831L150.663 139.453C150.64 139.887 150.456 140.297 150.148 140.6C149.84 140.903 149.431 141.076 149.002 141.085Z" fill="#465B9B"/>
    <g opacity="0.8">
        <path d="M76.67 141.085H67.1826C66.9745 141.086 66.7683 141.044 66.5768 140.962C66.3852 140.879 66.2123 140.758 66.0687 140.605C65.925 140.452 65.8137 140.271 65.7416 140.073C65.6694 139.875 65.638 139.664 65.6492 139.453L66.0592 129.831C66.084 129.393 66.2713 128.981 66.5833 128.679C66.8952 128.376 67.3086 128.204 67.7402 128.199H77.2194C77.4275 128.197 77.6336 128.239 77.8252 128.321C78.0168 128.404 78.1897 128.525 78.3333 128.678C78.4769 128.831 78.5883 129.012 78.6604 129.21C78.7325 129.409 78.764 129.62 78.7528 129.831L78.3428 139.453C78.319 139.889 78.1331 140.3 77.8227 140.603C77.5123 140.906 77.1004 141.078 76.67 141.085Z" fill="#FAFAFA"/>
        <path d="M91.131 141.085H81.6518C81.4437 141.086 81.2376 141.044 81.046 140.962C80.8545 140.879 80.6815 140.758 80.5379 140.605C80.3943 140.452 80.2829 140.271 80.2108 140.073C80.1387 139.875 80.1072 139.664 80.1184 139.453L80.5284 129.831C80.5523 129.393 80.7393 128.981 81.0515 128.677C81.3636 128.374 81.7776 128.203 82.2094 128.199H91.6845C91.8929 128.197 92.0995 128.238 92.2916 128.32C92.4836 128.402 92.6571 128.524 92.8011 128.677C92.9452 128.83 93.0569 129.011 93.1293 129.209C93.2017 129.408 93.2332 129.619 93.222 129.831L92.812 139.453C92.7891 139.891 92.6024 140.304 92.29 140.607C91.9777 140.91 91.5632 141.081 91.131 141.085Z" fill="#FAFAFA"/>
        <path d="M105.596 141.085H96.1206C95.9125 141.086 95.7063 141.044 95.5148 140.962C95.3232 140.879 95.1503 140.758 95.0066 140.605C94.863 140.452 94.7517 140.271 94.6796 140.073C94.6074 139.875 94.576 139.663 94.5872 139.452L94.9972 129.831C95.0211 129.393 95.2081 128.98 95.5202 128.677C95.8324 128.374 96.2463 128.203 96.6782 128.199H106.19C106.398 128.197 106.605 128.239 106.797 128.321C106.988 128.404 107.161 128.525 107.305 128.678C107.449 128.831 107.561 129.012 107.634 129.21C107.706 129.408 107.738 129.619 107.728 129.831L107.297 139.452C107.273 139.894 107.083 140.309 106.767 140.613C106.45 140.916 106.031 141.085 105.596 141.085Z" fill="#FAFAFA"/>
        <path d="M120.064 141.085H110.589C110.381 141.086 110.175 141.044 109.983 140.962C109.791 140.879 109.618 140.758 109.474 140.605C109.33 140.452 109.218 140.271 109.146 140.073C109.073 139.875 109.041 139.664 109.052 139.452L109.462 129.831C109.485 129.393 109.671 128.981 109.982 128.678C110.294 128.375 110.707 128.203 111.139 128.199H120.618C120.826 128.197 121.032 128.239 121.224 128.321C121.415 128.404 121.588 128.525 121.732 128.678C121.875 128.831 121.987 129.012 122.059 129.21C122.131 129.409 122.162 129.62 122.151 129.831L121.741 139.452C121.717 139.89 121.531 140.301 121.22 140.604C120.908 140.907 120.496 141.079 120.064 141.085Z" fill="#FAFAFA"/>
        <path d="M134.534 141.085H125.05C124.842 141.086 124.636 141.044 124.444 140.962C124.253 140.879 124.08 140.758 123.936 140.605C123.793 140.452 123.681 140.271 123.609 140.073C123.537 139.875 123.506 139.663 123.517 139.452L123.927 129.831C123.952 129.393 124.139 128.981 124.451 128.679C124.763 128.376 125.176 128.204 125.608 128.199H135.087C135.295 128.197 135.501 128.239 135.693 128.321C135.884 128.404 136.057 128.525 136.201 128.678C136.345 128.831 136.456 129.012 136.528 129.21C136.6 129.409 136.632 129.62 136.62 129.831L136.21 139.452C136.186 139.889 135.999 140.3 135.688 140.603C135.377 140.906 134.964 141.078 134.534 141.085Z" fill="#FAFAFA"/>
        <path d="M149.002 141.085H139.523C139.315 141.086 139.109 141.044 138.917 140.962C138.726 140.879 138.553 140.758 138.409 140.605C138.265 140.452 138.154 140.271 138.082 140.073C138.01 139.875 137.978 139.663 137.99 139.452L138.4 129.831C138.423 129.393 138.61 128.98 138.923 128.677C139.235 128.374 139.649 128.203 140.081 128.199H149.556C149.764 128.197 149.97 128.239 150.162 128.321C150.354 128.404 150.527 128.525 150.671 128.678C150.815 128.831 150.927 129.012 150.999 129.21C151.072 129.408 151.104 129.619 151.093 129.831L150.663 139.452C150.64 139.887 150.456 140.297 150.148 140.6C149.84 140.903 149.431 141.076 149.002 141.085Z" fill="#FAFAFA"/>
    </g>
    <path d="M73.9844 90.5313C70.4912 90.5313 67.7524 86.4053 67.7524 81.1385C67.7524 75.8716 70.4912 71.7498 73.9844 71.7498C77.4776 71.7498 80.2205 75.8758 80.2205 81.1385C80.2046 81.3853 80.0968 81.6168 79.9191 81.7859C79.7413 81.955 79.5068 82.0491 79.2632 82.0491C79.0196 82.0491 78.7851 81.955 78.6073 81.7859C78.4295 81.6168 78.3218 81.3853 78.3058 81.1385C78.3058 77.104 76.3296 73.69 73.9844 73.69C71.6392 73.69 69.663 77.104 69.663 81.1385C69.663 85.1729 71.6433 88.587 73.9844 88.587C74.1154 88.5783 74.2468 88.597 74.3704 88.6419C74.494 88.6868 74.6072 88.757 74.703 88.8481C74.7988 88.9392 74.8752 89.0494 74.9274 89.1717C74.9796 89.294 75.0065 89.4259 75.0065 89.5592C75.0065 89.6925 74.9796 89.8244 74.9274 89.9467C74.8752 90.069 74.7988 90.1791 74.703 90.2702C74.6072 90.3613 74.494 90.4315 74.3704 90.4765C74.2468 90.5214 74.1154 90.5401 73.9844 90.5313Z" fill="#465B9B"/>
    <path d="M88.4532 90.5313C84.96 90.5313 82.2212 86.4053 82.2212 81.1385C82.2212 75.8716 84.96 71.7498 88.4532 71.7498C91.9464 71.7498 94.7098 75.8758 94.7098 81.1385C94.6939 81.3853 94.5861 81.6168 94.4083 81.7859C94.2305 81.955 93.996 82.0491 93.7524 82.0491C93.5088 82.0491 93.2744 81.955 93.0966 81.7859C92.9188 81.6168 92.811 81.3853 92.7951 81.1385C92.7951 77.104 90.8189 73.69 88.4737 73.69C86.1285 73.69 84.1523 77.104 84.1523 81.1385C84.1523 85.1729 86.1326 88.587 88.4737 88.587C88.7168 88.6031 88.9447 88.7126 89.1112 88.8931C89.2777 89.0737 89.3704 89.3118 89.3704 89.5592C89.3704 89.8065 89.2777 90.0446 89.1112 90.2252C88.9447 90.4057 88.7168 90.5152 88.4737 90.5313H88.4532Z" fill="#465B9B"/>
    <path d="M102.91 90.5313C99.4126 90.5313 96.6738 86.4053 96.6738 81.1385C96.6738 75.8716 99.4126 71.7498 102.91 71.7498C106.407 71.7498 109.142 75.8758 109.142 81.1385C109.142 81.3958 109.041 81.6425 108.862 81.8244C108.683 82.0064 108.44 82.1086 108.187 82.1086C107.933 82.1086 107.69 82.0064 107.511 81.8244C107.332 81.6425 107.231 81.3958 107.231 81.1385C107.231 77.104 105.251 73.69 102.91 73.69C100.569 73.69 98.5885 77.104 98.5885 81.1385C98.5885 85.1729 100.569 88.587 102.91 88.587C103.153 88.6031 103.381 88.7126 103.547 88.8931C103.714 89.0737 103.807 89.3118 103.807 89.5592C103.807 89.8065 103.714 90.0446 103.547 90.2252C103.381 90.4057 103.153 90.5152 102.91 90.5313Z" fill="#465B9B"/>
    <path d="M117.391 90.5313C113.894 90.5313 111.155 86.4053 111.155 81.1385C111.155 75.8716 113.894 71.7498 117.391 71.7498C120.889 71.7498 123.623 75.8758 123.623 81.1385C123.623 81.3958 123.523 81.6425 123.344 81.8244C123.164 82.0064 122.921 82.1086 122.668 82.1086C122.415 82.1086 122.172 82.0064 121.993 81.8244C121.813 81.6425 121.713 81.3958 121.713 81.1385C121.713 77.104 119.732 73.69 117.391 73.69C115.05 73.69 113.07 77.104 113.07 81.1385C113.07 85.1729 115.046 88.587 117.391 88.587C117.634 88.6031 117.862 88.7126 118.029 88.8931C118.195 89.0737 118.288 89.3118 118.288 89.5592C118.288 89.8065 118.195 90.0446 118.029 90.2252C117.862 90.4057 117.634 90.5152 117.391 90.5313Z" fill="#465B9B"/>
    <path d="M131.856 90.5313C128.363 90.5313 125.624 86.4053 125.624 81.1385C125.624 75.8716 128.363 71.7498 131.856 71.7498C135.349 71.7498 138.092 75.8758 138.092 81.1385C138.076 81.3853 137.968 81.6168 137.791 81.7859C137.613 81.955 137.378 82.0491 137.135 82.0491C136.891 82.0491 136.657 81.955 136.479 81.7859C136.301 81.6168 136.193 81.3853 136.177 81.1385C136.177 77.104 134.201 73.69 131.856 73.69C129.511 73.69 127.535 77.104 127.535 81.1385C127.535 85.1729 129.515 88.587 131.856 88.587C131.987 88.5783 132.118 88.597 132.242 88.6419C132.366 88.6868 132.479 88.757 132.575 88.8481C132.67 88.9392 132.747 89.0494 132.799 89.1717C132.851 89.294 132.878 89.4259 132.878 89.5592C132.878 89.6925 132.851 89.8244 132.799 89.9467C132.747 90.069 132.67 90.1791 132.575 90.2702C132.479 90.3613 132.366 90.4315 132.242 90.4765C132.118 90.5214 131.987 90.5401 131.856 90.5313Z" fill="#465B9B"/>
    <path d="M146.325 90.5313C142.832 90.5313 140.093 86.4053 140.093 81.1385C140.093 75.8716 142.832 71.7498 146.325 71.7498C149.818 71.7498 152.561 75.8758 152.561 81.1385C152.545 81.3853 152.437 81.6168 152.259 81.7859C152.082 81.955 151.847 82.0491 151.604 82.0491C151.36 82.0491 151.125 81.955 150.948 81.7859C150.77 81.6168 150.662 81.3853 150.646 81.1385C150.646 77.104 148.666 73.69 146.325 73.69C143.984 73.69 142.003 77.104 142.003 81.1385C142.003 85.1729 143.984 88.587 146.325 88.587C146.568 88.6031 146.796 88.7126 146.962 88.8931C147.129 89.0737 147.221 89.3118 147.221 89.5592C147.221 89.8065 147.129 90.0446 146.962 90.2252C146.796 90.4057 146.568 90.5152 146.325 90.5313Z" fill="#465B9B"/>
    <g opacity="0.3">
        <path d="M73.9844 90.5313C70.4912 90.5313 67.7524 86.4053 67.7524 81.1385C67.7524 75.8716 70.4912 71.7498 73.9844 71.7498C77.4776 71.7498 80.2205 75.8758 80.2205 81.1385C80.2046 81.3853 80.0968 81.6168 79.9191 81.7859C79.7413 81.955 79.5068 82.0491 79.2632 82.0491C79.0196 82.0491 78.7851 81.955 78.6073 81.7859C78.4295 81.6168 78.3218 81.3853 78.3058 81.1385C78.3058 77.104 76.3296 73.69 73.9844 73.69C71.6392 73.69 69.663 77.104 69.663 81.1385C69.663 85.1729 71.6433 88.587 73.9844 88.587C74.1154 88.5783 74.2468 88.597 74.3704 88.6419C74.494 88.6868 74.6072 88.757 74.703 88.8481C74.7988 88.9392 74.8752 89.0494 74.9274 89.1717C74.9796 89.294 75.0065 89.4259 75.0065 89.5592C75.0065 89.6925 74.9796 89.8244 74.9274 89.9467C74.8752 90.069 74.7988 90.1791 74.703 90.2702C74.6072 90.3613 74.494 90.4315 74.3704 90.4765C74.2468 90.5214 74.1154 90.5401 73.9844 90.5313Z" fill="black"/>
        <path d="M88.4532 90.5313C84.96 90.5313 82.2212 86.4053 82.2212 81.1385C82.2212 75.8716 84.96 71.7498 88.4532 71.7498C91.9464 71.7498 94.7098 75.8758 94.7098 81.1385C94.6939 81.3853 94.5861 81.6168 94.4083 81.7859C94.2305 81.955 93.996 82.0491 93.7524 82.0491C93.5088 82.0491 93.2744 81.955 93.0966 81.7859C92.9188 81.6168 92.811 81.3853 92.7951 81.1385C92.7951 77.104 90.8189 73.69 88.4737 73.69C86.1285 73.69 84.1523 77.104 84.1523 81.1385C84.1523 85.1729 86.1326 88.587 88.4737 88.587C88.7168 88.6031 88.9447 88.7126 89.1112 88.8931C89.2777 89.0737 89.3704 89.3118 89.3704 89.5592C89.3704 89.8065 89.2777 90.0446 89.1112 90.2252C88.9447 90.4057 88.7168 90.5152 88.4737 90.5313H88.4532Z" fill="black"/>
        <path d="M102.91 90.5313C99.4126 90.5313 96.6738 86.4053 96.6738 81.1385C96.6738 75.8716 99.4126 71.7498 102.91 71.7498C106.407 71.7498 109.142 75.8758 109.142 81.1385C109.142 81.3958 109.041 81.6425 108.862 81.8244C108.683 82.0064 108.44 82.1086 108.187 82.1086C107.933 82.1086 107.69 82.0064 107.511 81.8244C107.332 81.6425 107.231 81.3958 107.231 81.1385C107.231 77.104 105.251 73.69 102.91 73.69C100.569 73.69 98.5885 77.104 98.5885 81.1385C98.5885 85.1729 100.569 88.587 102.91 88.587C103.153 88.6031 103.381 88.7126 103.547 88.8931C103.714 89.0737 103.807 89.3118 103.807 89.5592C103.807 89.8065 103.714 90.0446 103.547 90.2252C103.381 90.4057 103.153 90.5152 102.91 90.5313Z" fill="black"/>
        <path d="M117.391 90.5313C113.894 90.5313 111.155 86.4053 111.155 81.1385C111.155 75.8716 113.894 71.7498 117.391 71.7498C120.888 71.7498 123.623 75.8758 123.623 81.1385C123.623 81.3958 123.522 81.6425 123.343 81.8244C123.164 82.0064 122.921 82.1086 122.668 82.1086C122.414 82.1086 122.171 82.0064 121.992 81.8244C121.813 81.6425 121.712 81.3958 121.712 81.1385C121.712 77.104 119.732 73.69 117.391 73.69C115.05 73.69 113.069 77.104 113.069 81.1385C113.069 85.1729 115.046 88.587 117.391 88.587C117.634 88.6031 117.862 88.7126 118.028 88.8931C118.195 89.0737 118.288 89.3118 118.288 89.5592C118.288 89.8065 118.195 90.0446 118.028 90.2252C117.862 90.4057 117.634 90.5152 117.391 90.5313Z" fill="black"/>
        <path d="M131.856 90.5313C128.363 90.5313 125.624 86.4053 125.624 81.1385C125.624 75.8716 128.363 71.7498 131.856 71.7498C135.349 71.7498 138.092 75.8758 138.092 81.1385C138.076 81.3853 137.968 81.6168 137.791 81.7859C137.613 81.955 137.378 82.0491 137.135 82.0491C136.891 82.0491 136.657 81.955 136.479 81.7859C136.301 81.6168 136.193 81.3853 136.177 81.1385C136.177 77.104 134.201 73.69 131.856 73.69C129.511 73.69 127.535 77.104 127.535 81.1385C127.535 85.1729 129.515 88.587 131.856 88.587C131.987 88.5783 132.118 88.597 132.242 88.6419C132.366 88.6868 132.479 88.757 132.575 88.8481C132.67 88.9392 132.747 89.0494 132.799 89.1717C132.851 89.294 132.878 89.4259 132.878 89.5592C132.878 89.6925 132.851 89.8244 132.799 89.9467C132.747 90.069 132.67 90.1791 132.575 90.2702C132.479 90.3613 132.366 90.4315 132.242 90.4765C132.118 90.5214 131.987 90.5401 131.856 90.5313Z" fill="black"/>
        <path d="M146.325 90.5313C142.832 90.5313 140.093 86.4053 140.093 81.1385C140.093 75.8716 142.832 71.7498 146.325 71.7498C149.818 71.7498 152.561 75.8758 152.561 81.1385C152.545 81.3853 152.437 81.6168 152.259 81.7859C152.082 81.955 151.847 82.0491 151.604 82.0491C151.36 82.0491 151.125 81.955 150.948 81.7859C150.77 81.6168 150.662 81.3853 150.646 81.1385C150.646 77.104 148.666 73.69 146.325 73.69C143.984 73.69 142.003 77.104 142.003 81.1385C142.003 85.1729 143.984 88.587 146.325 88.587C146.568 88.6031 146.796 88.7126 146.962 88.8931C147.129 89.0737 147.221 89.3118 147.221 89.5592C147.221 89.8065 147.129 90.0446 146.962 90.2252C146.796 90.4057 146.568 90.5152 146.325 90.5313Z" fill="black"/>
    </g>
    <path d="M118.359 111.757C115.013 111.082 111.258 111.869 109.917 115.45C108.839 118.331 110.22 121.454 113.197 122.216C115.821 122.886 120.347 122.066 121.282 118.993C122.352 115.479 118.002 114.338 115.563 114.13C114.829 114.068 114.833 115.233 115.563 115.296C116.674 115.392 117.945 115.454 118.929 116.075C120.979 117.378 120.134 119.468 118.388 120.467C116.641 121.466 113.964 121.716 112.238 120.609C110.352 119.389 110.29 116.707 111.418 114.959C112.898 112.648 115.6 112.39 118.035 112.877C118.757 113.023 119.064 111.899 118.338 111.753L118.359 111.757Z" fill="#465B9B"/>
    <path opacity="0.1" d="M118.359 111.757C115.013 111.082 111.258 111.869 109.917 115.45C108.839 118.331 110.22 121.454 113.197 122.216C115.821 122.886 120.347 122.066 121.282 118.993C122.352 115.479 118.002 114.338 115.563 114.13C114.829 114.068 114.833 115.233 115.563 115.296C116.674 115.392 117.945 115.454 118.929 116.075C120.979 117.378 120.134 119.468 118.388 120.467C116.641 121.466 113.964 121.716 112.238 120.609C110.352 119.389 110.29 116.707 111.418 114.959C112.898 112.648 115.6 112.39 118.035 112.877C118.757 113.023 119.064 111.899 118.338 111.753L118.359 111.757Z" fill="#FAFAFA"/>
    <path d="M81.4464 98.3462C84.6459 102.653 88.213 106.666 92.1064 110.337C92.6476 110.849 93.4635 110.025 92.9264 109.504C89.0997 105.906 85.5917 101.973 82.4427 97.7509C82.004 97.1596 81.0077 97.7509 81.4546 98.3379L81.4464 98.3462Z" fill="#465B9B"/>
    <path d="M82.6313 109.85C85.0503 105.483 89.2856 101.756 93.2913 98.9042C93.8899 98.4878 93.32 97.4636 92.7132 97.8966C88.5476 100.869 84.1688 104.708 81.6432 109.259C81.5739 109.391 81.5576 109.546 81.5978 109.691C81.6379 109.835 81.7314 109.958 81.8588 110.034C81.9861 110.111 82.1375 110.134 82.2814 110.1C82.4253 110.065 82.5506 109.976 82.6313 109.85Z" fill="#465B9B"/>
    <g opacity="0.2">
        <path d="M81.4464 98.3462C84.6459 102.653 88.213 106.666 92.1064 110.337C92.6476 110.849 93.4635 110.025 92.9264 109.504C89.0997 105.906 85.5917 101.973 82.4427 97.7509C82.004 97.1596 81.0077 97.7509 81.4546 98.3379L81.4464 98.3462Z" fill="black"/>
        <path d="M82.6313 109.85C85.0503 105.483 89.2856 101.756 93.2913 98.9042C93.8899 98.4878 93.32 97.4636 92.7132 97.8966C88.5476 100.869 84.1688 104.708 81.6432 109.259C81.5739 109.391 81.5576 109.546 81.5978 109.691C81.6379 109.835 81.7314 109.958 81.8588 110.034C81.9861 110.111 82.1375 110.134 82.2814 110.1C82.4253 110.065 82.5506 109.976 82.6313 109.85Z" fill="black"/>
    </g>
    <path d="M127.047 102.073H134.529C134.672 102.06 134.806 101.994 134.903 101.886C135.001 101.779 135.055 101.638 135.055 101.492C135.055 101.346 135.001 101.205 134.903 101.097C134.806 100.99 134.672 100.923 134.529 100.911H127.047C126.903 100.923 126.77 100.99 126.672 101.097C126.575 101.205 126.521 101.346 126.521 101.492C126.521 101.638 126.575 101.779 126.672 101.886C126.77 101.994 126.903 102.06 127.047 102.073Z" fill="#465B9B"/>
    <path d="M126.961 104.233H131.299C131.451 104.233 131.597 104.172 131.704 104.063C131.812 103.953 131.873 103.805 131.873 103.651C131.873 103.496 131.812 103.348 131.704 103.238C131.597 103.129 131.451 103.068 131.299 103.068H126.961C126.808 103.068 126.662 103.129 126.555 103.238C126.447 103.348 126.387 103.496 126.387 103.651C126.387 103.805 126.447 103.953 126.555 104.063C126.662 104.172 126.808 104.233 126.961 104.233Z" fill="#465B9B"/>
    <g opacity="0.1">
        <path d="M127.047 102.073H134.53C134.673 102.06 134.806 101.994 134.904 101.886C135.001 101.779 135.055 101.638 135.055 101.492C135.055 101.346 135.001 101.205 134.904 101.097C134.806 100.99 134.673 100.923 134.53 100.911H127.047C126.904 100.923 126.77 100.99 126.673 101.097C126.575 101.205 126.521 101.346 126.521 101.492C126.521 101.638 126.575 101.779 126.673 101.886C126.77 101.994 126.904 102.06 127.047 102.073Z" fill="#FAFAFA"/>
        <path d="M126.961 104.233H131.299C131.451 104.233 131.597 104.172 131.704 104.063C131.812 103.953 131.873 103.805 131.873 103.651C131.873 103.496 131.812 103.348 131.704 103.238C131.597 103.129 131.451 103.068 131.299 103.068H126.961C126.808 103.068 126.662 103.129 126.555 103.238C126.447 103.348 126.387 103.496 126.387 103.651C126.387 103.805 126.447 103.953 126.555 104.063C126.662 104.172 126.808 104.233 126.961 104.233Z" fill="#FAFAFA"/>
    </g>
    <path d="M82.2298 131.9H88.6463C88.7985 131.9 88.9445 131.839 89.0521 131.729C89.1598 131.62 89.2203 131.472 89.2203 131.317C89.2203 131.162 89.1598 131.014 89.0521 130.905C88.9445 130.796 88.7985 130.734 88.6463 130.734H82.2298C82.0775 130.734 81.9315 130.796 81.8239 130.905C81.7162 131.014 81.6558 131.162 81.6558 131.317C81.6558 131.472 81.7162 131.62 81.8239 131.729C81.9315 131.839 82.0775 131.9 82.2298 131.9Z" fill="#465B9B"/>
    <path d="M82.0003 134.402H90.3233C90.4755 134.402 90.6215 134.341 90.7291 134.232C90.8368 134.122 90.8973 133.974 90.8973 133.819C90.8973 133.665 90.8368 133.516 90.7291 133.407C90.6215 133.298 90.4755 133.236 90.3233 133.236H82.0003C81.848 133.236 81.702 133.298 81.5944 133.407C81.4867 133.516 81.4263 133.665 81.4263 133.819C81.4263 133.974 81.4867 134.122 81.5944 134.232C81.702 134.341 81.848 134.402 82.0003 134.402Z" fill="#465B9B"/>
    <path d="M82.0003 136.979H86.1618C86.314 136.979 86.46 136.918 86.5676 136.809C86.6753 136.699 86.7358 136.551 86.7358 136.397C86.7358 136.242 86.6753 136.094 86.5676 135.984C86.46 135.875 86.314 135.814 86.1618 135.814H82.0003C81.848 135.814 81.702 135.875 81.5944 135.984C81.4867 136.094 81.4263 136.242 81.4263 136.397C81.4263 136.551 81.4867 136.699 81.5944 136.809C81.702 136.918 81.848 136.979 82.0003 136.979Z" fill="#465B9B"/>
    <g opacity="0.1">
        <path d="M82.2298 131.9H88.6463C88.7985 131.9 88.9445 131.839 89.0521 131.729C89.1598 131.62 89.2203 131.472 89.2203 131.317C89.2203 131.162 89.1598 131.014 89.0521 130.905C88.9445 130.796 88.7985 130.734 88.6463 130.734H82.2298C82.0775 130.734 81.9315 130.796 81.8239 130.905C81.7162 131.014 81.6558 131.162 81.6558 131.317C81.6558 131.472 81.7162 131.62 81.8239 131.729C81.9315 131.839 82.0775 131.9 82.2298 131.9Z" fill="#FAFAFA"/>
        <path d="M82.0003 134.402H90.3233C90.4755 134.402 90.6215 134.341 90.7291 134.232C90.8368 134.122 90.8973 133.974 90.8973 133.819C90.8973 133.665 90.8368 133.516 90.7291 133.407C90.6215 133.298 90.4755 133.236 90.3233 133.236H82.0003C81.848 133.236 81.702 133.298 81.5944 133.407C81.4867 133.516 81.4263 133.665 81.4263 133.819C81.4263 133.974 81.4867 134.122 81.5944 134.232C81.702 134.341 81.848 134.402 82.0003 134.402Z" fill="#FAFAFA"/>
        <path d="M82.0003 136.979H86.1618C86.314 136.979 86.46 136.918 86.5676 136.809C86.6753 136.699 86.7358 136.551 86.7358 136.396C86.7358 136.242 86.6753 136.094 86.5676 135.984C86.46 135.875 86.314 135.814 86.1618 135.814H82.0003C81.848 135.814 81.702 135.875 81.5944 135.984C81.4867 136.094 81.4263 136.242 81.4263 136.396C81.4263 136.551 81.4867 136.699 81.5944 136.809C81.702 136.918 81.848 136.979 82.0003 136.979Z" fill="#FAFAFA"/>
    </g>
    <path d="M36.978 66.5286L38.9173 66.4412L38.0399 70.1883C37.3478 69.7071 36.7171 69.1408 36.1621 68.5021C36.0021 68.311 35.9227 68.0635 35.9411 67.8133C35.9595 67.5632 36.0743 67.3304 36.2605 67.1656L36.978 66.5286Z" fill="#E4897B"/>
    <path d="M41.1683 68.4605L40.2991 71.5082L38.04 70.18L38.9174 66.4412L41.1683 68.4605Z" fill="#E4897B"/>
    <path d="M40.7856 50.3675L36.8174 50.7406L45.9187 150.558L49.8869 150.185L40.7856 50.3675Z" fill="#465B9B"/>
    <path opacity="0.3" d="M40.7856 50.3675L36.8174 50.7406L45.9187 150.558L49.8869 150.185L40.7856 50.3675Z" fill="black"/>
    <path d="M48.7241 49.6192L44.7559 49.9923L53.8571 149.81L57.8254 149.437L48.7241 49.6192Z" fill="#465B9B"/>
    <path opacity="0.3" d="M48.7241 49.6192L44.7559 49.9923L53.8571 149.81L57.8254 149.437L48.7241 49.6192Z" fill="black"/>
    <path d="M44.7568 49.9933L40.7886 50.3665L49.8898 150.184L53.8581 149.811L44.7568 49.9933Z" fill="#465B9B"/>
    <path opacity="0.1" d="M44.7568 49.9933L40.7886 50.3665L49.8898 150.184L53.8581 149.811L44.7568 49.9933Z" fill="black"/>
    <path d="M43.9191 43.0132L40.348 43.3504L36.8179 50.7407L48.7243 49.6207L43.9191 43.0132Z" fill="#465B9B"/>
    <g opacity="0.8">
        <path d="M43.9191 43.0132L40.348 43.3504L36.8179 50.7407L48.7243 49.6207L43.9191 43.0132Z" fill="#FAFAFA"/>
    </g>
    <path d="M41.861 40.182L40.3481 43.3504L43.9192 43.0132L41.861 40.182Z" fill="#263238"/>
    <path d="M71.8647 45.8235C72.2747 46.2398 72.615 46.6354 72.9676 47.0725C73.3202 47.5097 73.6564 47.9052 73.9926 48.3216C74.6691 49.1543 75.3005 50.0328 75.9155 50.928C77.1833 52.748 78.2528 54.7024 79.1053 56.7569C79.2078 57.0233 79.3021 57.3023 79.4005 57.5896L79.5481 58.0059C79.6293 58.2551 79.687 58.5117 79.7203 58.772C79.8093 59.6006 79.701 60.4387 79.4046 61.216C78.9621 62.3633 78.342 63.4315 77.5678 64.3802C76.1989 66.0816 74.6228 67.5995 72.8774 68.8976L71.3317 67.2322C72.5482 65.6879 73.6604 64.0618 74.6609 62.3651C75.0991 61.6402 75.4358 60.8569 75.6613 60.0377C75.7236 59.8367 75.7307 59.6222 75.6818 59.4173L75.5424 59.1092C75.4481 58.9052 75.3661 58.6929 75.2636 58.493C74.3957 56.7829 73.3804 55.1541 72.2296 53.6259C71.6556 52.8307 71.0488 52.0563 70.4338 51.2818C70.1263 50.8988 69.8147 50.5158 69.4949 50.141L68.5601 49.046L71.8647 45.8235Z" fill="#E4897B"/>
    <path d="M68.8511 68.5021L70.5977 72.012L72.3074 70.5173L70.9052 68.0233L68.8511 68.5021Z" fill="#E4897B"/>
    <path d="M55.6942 47.8803C54.6309 49.9371 53.5267 51.9703 52.3814 53.9798C51.8197 54.9916 51.2293 55.9867 50.6553 56.9901L49.7738 58.4889L49.5524 58.8636C49.4417 59.0427 49.3187 59.255 49.208 59.3966C49.0973 59.5381 48.9866 59.7088 48.88 59.8379C48.7734 59.967 48.6586 60.1127 48.552 60.2334C47.7238 61.1496 46.8421 62.0144 45.9116 62.8231C45.0137 63.6017 44.1158 64.3595 43.1892 65.0798C41.3565 66.5328 39.4746 67.886 37.523 69.1767L36.1167 67.378L40.9752 62.5192C41.7706 61.6865 42.5742 60.9038 43.3327 60.0794C44.078 59.3036 44.7802 58.4863 45.436 57.6312C45.5153 57.5313 45.585 57.4356 45.6451 57.344C45.7148 57.244 45.764 57.1608 45.8132 57.0775C45.8556 57.0105 45.8939 56.941 45.928 56.8693L46.1166 56.4821L46.8751 54.9125C47.3958 53.8758 47.9042 52.8307 48.4331 51.8023C49.48 49.7289 50.5733 47.6791 51.7131 45.6528L55.6942 47.8803Z" fill="#E4897B"/>
    <path d="M67.2029 33.816C67.1496 34.0575 67.2357 34.2865 67.3874 34.3281C67.5391 34.3698 67.7072 34.2032 67.7605 33.9617C67.8138 33.7203 67.7236 33.4913 67.5719 33.4496C67.4202 33.408 67.2398 33.5745 67.2029 33.816Z" fill="#263238"/>
    <path d="M67.2114 34.2823C67.3399 35.0944 67.5743 35.8855 67.9084 36.6347C67.7197 36.7106 67.517 36.7435 67.3144 36.7313C67.1118 36.7191 66.9144 36.662 66.7358 36.564L67.2114 34.2823Z" fill="#DE5753"/>
    <path d="M67.8302 32.3504C67.801 32.3505 67.7725 32.3418 67.7482 32.3255C67.5967 32.2315 67.425 32.1763 67.2479 32.1647C67.0707 32.1531 66.8935 32.1854 66.7314 32.2589C66.696 32.2729 66.6566 32.2725 66.6215 32.2577C66.5863 32.243 66.5581 32.2151 66.5428 32.1797C66.529 32.1438 66.5294 32.1038 66.5439 32.0681C66.5584 32.0324 66.5859 32.0038 66.6207 31.9882C66.8279 31.8979 67.0536 31.8598 67.2785 31.8772C67.5034 31.8945 67.7208 31.9669 67.9122 32.0882C67.9278 32.0986 67.9411 32.1121 67.9514 32.1279C67.9618 32.1438 67.9689 32.1615 67.9723 32.1801C67.9757 32.1988 67.9755 32.2179 67.9715 32.2365C67.9675 32.255 67.9599 32.2725 67.9491 32.288C67.9358 32.3074 67.918 32.3233 67.8972 32.3342C67.8765 32.345 67.8535 32.3506 67.8302 32.3504Z" fill="#263238"/>
    <path d="M58.9086 34.7361C59.4252 36.9761 60.0115 41.0729 58.5273 42.5676C58.5273 42.5676 59.2161 44.8368 63.312 44.8368C67.822 44.8368 65.362 42.5676 65.362 42.5676C62.8815 41.9723 62.8733 40.1195 63.2341 38.3833L58.9086 34.7361Z" fill="#E4897B"/>
    <path d="M57.9699 43.3462C57.6173 42.6301 57.2319 41.8057 57.9699 41.5476C58.7653 41.2645 63.181 40.9772 64.7267 41.506C65.1385 41.6178 65.4913 41.8882 65.7102 42.2597C65.9291 42.6312 65.9969 43.0747 65.8993 43.4961L57.9699 43.3462Z" fill="#465B9B"/>
    <path opacity="0.6" d="M57.9699 43.3462C57.6173 42.6301 57.2319 41.8057 57.9699 41.5476C58.7653 41.2645 63.181 40.9772 64.7267 41.506C65.1385 41.6178 65.4913 41.8882 65.7102 42.2597C65.9291 42.6312 65.9969 43.0747 65.8993 43.4961L57.9699 43.3462Z" fill="#FAFAFA"/>
    <path d="M52.0699 147.804C51.8053 147.803 51.5415 147.774 51.2827 147.717C51.2694 147.715 51.2572 147.708 51.2477 147.698C51.2381 147.689 51.2318 147.676 51.2294 147.663C51.2267 147.649 51.228 147.634 51.233 147.621C51.2381 147.608 51.2468 147.596 51.2581 147.588C51.2909 147.563 52.0781 146.988 52.5373 147.088C52.5869 147.097 52.634 147.117 52.6751 147.147C52.7162 147.176 52.7504 147.214 52.7751 147.259C52.8121 147.309 52.832 147.369 52.832 147.432C52.832 147.494 52.8121 147.555 52.7751 147.605C52.6767 147.767 52.3774 147.804 52.0699 147.804ZM51.4836 147.613C51.9346 147.688 52.5496 147.688 52.6726 147.517C52.6726 147.517 52.7218 147.451 52.6521 147.33C52.6371 147.303 52.6164 147.281 52.5916 147.263C52.5667 147.246 52.5384 147.235 52.5086 147.23C52.1363 147.254 51.7795 147.39 51.4836 147.621V147.613Z" fill="#FAFAFA"/>
    <path d="M51.2994 147.73H51.2625C51.2518 147.723 51.243 147.714 51.2372 147.703C51.2314 147.692 51.2288 147.68 51.2297 147.667C51.2297 147.63 51.2666 146.747 51.6069 146.456C51.6477 146.418 51.6959 146.391 51.7483 146.374C51.8006 146.357 51.8559 146.353 51.9103 146.36C51.9655 146.36 52.0191 146.379 52.0618 146.415C52.1044 146.451 52.1335 146.5 52.144 146.555C52.2096 146.897 51.6356 147.563 51.324 147.734L51.2994 147.73ZM51.8611 146.481C51.8021 146.481 51.7454 146.503 51.7012 146.543C51.5 146.823 51.3884 147.158 51.3814 147.505C51.6766 147.267 52.0415 146.764 52.0046 146.564C52.0046 146.543 52.0046 146.493 51.8939 146.481H51.8611Z" fill="#FAFAFA"/>
    <path d="M70.1593 147.804C69.8484 147.804 69.5382 147.775 69.2327 147.717C69.2183 147.715 69.205 147.708 69.1947 147.697C69.1845 147.687 69.1776 147.673 69.1753 147.659C69.173 147.644 69.1749 147.63 69.1807 147.616C69.1865 147.603 69.196 147.592 69.2081 147.584C69.3598 147.496 70.6964 146.718 71.0203 147.255C71.0527 147.302 71.0701 147.358 71.0701 147.415C71.0701 147.473 71.0527 147.529 71.0203 147.575C70.9301 147.759 70.5447 147.804 70.1593 147.804ZM69.4582 147.609C70.024 147.692 70.7866 147.68 70.9178 147.492C70.9178 147.492 70.9588 147.434 70.8973 147.33C70.7169 147.034 69.9051 147.388 69.4582 147.617V147.609Z" fill="#FAFAFA"/>
    <path d="M69.2451 147.73C69.2316 147.733 69.2175 147.733 69.2041 147.73C69.1938 147.722 69.1857 147.712 69.1806 147.7C69.1756 147.689 69.1738 147.676 69.1754 147.663C69.1754 147.63 69.2246 146.805 69.5854 146.485C69.64 146.434 69.7053 146.396 69.7763 146.375C69.8473 146.353 69.9222 146.348 69.9954 146.36C70.1963 146.381 70.2537 146.485 70.266 146.568C70.3234 146.922 69.6387 147.567 69.2779 147.734L69.2451 147.73ZM69.9339 146.481C69.8428 146.479 69.7548 146.514 69.6879 146.576C69.4723 146.844 69.3473 147.176 69.3312 147.521C69.692 147.297 70.1512 146.784 70.1225 146.572C70.1225 146.551 70.1225 146.497 69.9749 146.481H69.9339Z" fill="#FAFAFA"/>
    <path d="M65.9321 147.655H68.9456L68.9743 140.573H65.9649L65.9321 147.655Z" fill="#E4897B"/>
    <path d="M47.8472 147.655H50.8607L52.1071 140.573H49.0936L47.8472 147.655Z" fill="#E4897B"/>
    <path d="M51.0615 147.301H47.679C47.6192 147.3 47.5611 147.321 47.5152 147.36C47.4693 147.399 47.4387 147.453 47.4289 147.513L46.9369 150.232C46.9268 150.299 46.9313 150.368 46.95 150.434C46.9687 150.499 47.0012 150.56 47.0453 150.611C47.0893 150.663 47.1439 150.704 47.2052 150.732C47.2665 150.76 47.333 150.774 47.4002 150.773C48.581 150.752 49.1509 150.681 50.6392 150.681C51.5535 150.681 53.4436 150.781 54.7105 150.781C55.9774 150.781 56.0881 149.532 55.5674 149.395C53.2263 148.879 52.3243 148.167 51.5576 147.492C51.4208 147.369 51.2443 147.301 51.0615 147.301Z" fill="#263238"/>
    <path d="M68.9126 147.301H65.6326C65.5728 147.3 65.5147 147.321 65.4688 147.36C65.4229 147.399 65.3923 147.453 65.3825 147.513L64.8905 150.232C64.8791 150.299 64.8823 150.367 64.8999 150.433C64.9176 150.499 64.9493 150.559 64.9928 150.611C65.0363 150.663 65.0904 150.704 65.1514 150.732C65.2124 150.76 65.2787 150.774 65.3456 150.773C66.5305 150.752 68.2402 150.681 69.7326 150.681C71.4792 150.681 72.988 150.781 75.0339 150.781C76.2639 150.781 76.5632 149.532 76.0425 149.395C73.6645 148.87 71.7375 148.816 69.6547 147.542C69.4344 147.393 69.1773 147.309 68.9126 147.301Z" fill="#263238"/>
    <path d="M52.7835 43.2588C49.9832 43.9166 47.0435 51.7315 47.0435 51.7315L52.8614 55.6785C54.1971 53.6219 55.368 51.4596 56.3628 49.2126C57.9003 45.6361 55.6412 42.5884 52.7835 43.2588Z" fill="#465B9B"/>
    <path opacity="0.7" d="M52.7835 43.2588C49.9832 43.9166 47.0435 51.7315 47.0435 51.7315L52.8614 55.6785C54.1971 53.6219 55.368 51.4596 56.3628 49.2126C57.9003 45.6361 55.6412 42.5884 52.7835 43.2588Z" fill="black"/>
    <path d="M54.9931 48.2426L52.5864 55.4912L52.8611 55.6786C52.8611 55.6786 53.9599 54.0132 55.1284 51.794L54.9931 48.2426Z" fill="#465B9B"/>
    <path opacity="0.8" d="M54.9931 48.2426L52.5864 55.4912L52.8611 55.6786C52.8611 55.6786 53.9599 54.0132 55.1284 51.794L54.9931 48.2426Z" fill="black"/>
    <path d="M71.574 56.9234C71.5494 60.3375 71.3485 64.5843 70.8483 69.8553H54.7353C54.5262 67.3572 55.6168 55.0915 52.7837 43.2588C54.5559 42.9099 56.3487 42.6791 58.1506 42.5676C60.431 42.4343 62.7171 42.4343 64.9976 42.5676C66.5703 42.7229 68.1288 43.0013 69.6593 43.4003C69.6593 43.4003 71.0369 44.9159 71.4551 52.023C71.5371 53.4427 71.5822 55.0582 71.574 56.9234Z" fill="#465B9B"/>
    <path opacity="0.7" d="M71.574 56.9234C71.5494 60.3375 71.3485 64.5843 70.8483 69.8553H54.7353C54.5262 67.3572 55.6168 55.0915 52.7837 43.2588C54.5559 42.9099 56.3487 42.6791 58.1506 42.5676C60.431 42.4343 62.7171 42.4343 64.9976 42.5676C66.5703 42.7229 68.1288 43.0013 69.6593 43.4003C69.6593 43.4003 71.0369 44.9159 71.4551 52.023C71.5371 53.4427 71.5822 55.0582 71.574 56.9234Z" fill="black"/>
    <path d="M71.5736 56.9234C70.5978 55.1164 68.8266 51.49 69.0767 49.4291L71.4547 52.0438C71.5367 53.4427 71.5818 55.0581 71.5736 56.9234Z" fill="#465B9B"/>
    <path opacity="0.8" d="M71.5736 56.9234C70.5978 55.1164 68.8266 51.49 69.0767 49.4291L71.4547 52.0438C71.5367 53.4427 71.5818 55.0581 71.5736 56.9234Z" fill="black"/>
    <path d="M66.5019 46.1816C66.2477 49.0961 72.7544 56.1074 72.7544 56.1074L77.9696 51.794C76.6037 49.4533 74.9671 47.2868 73.0947 45.3406C70.0443 42.347 66.7889 42.9174 66.5019 46.1816Z" fill="#465B9B"/>
    <path opacity="0.7" d="M66.5019 46.1816C66.2477 49.0961 72.7544 56.1074 72.7544 56.1074L77.9696 51.794C76.6037 49.4533 74.9671 47.2868 73.0947 45.3406C70.0443 42.347 66.7889 42.9174 66.5019 46.1816Z" fill="black"/>
    <path d="M68.9745 140.577L68.9581 144.224H65.9487L65.961 140.577H68.9745Z" fill="#CE6F64"/>
    <path d="M49.0934 140.577H52.1069L51.4632 144.224H48.4497L49.0934 140.577Z" fill="#CE6F64"/>
    <path d="M59.4499 31.2887C59.0112 34.3031 58.6053 36.0351 59.7451 37.9503C60.1075 38.5706 60.63 39.0783 61.2562 39.4185C61.8824 39.7586 62.5883 39.9183 63.2975 39.8801C64.0067 39.8419 64.692 39.6074 65.2793 39.2019C65.8665 38.7964 66.3333 38.2354 66.629 37.5798C67.8057 35.0817 68.3305 30.5684 65.7434 28.6616C65.1975 28.2335 64.5503 27.959 63.8667 27.8656C63.1832 27.7722 62.4875 27.8632 61.8496 28.1295C61.2117 28.3958 60.654 28.828 60.2328 29.3825C59.8116 29.9371 59.5416 30.5946 59.4499 31.2887Z" fill="#E4897B"/>
    <path d="M68.3677 29.8606C67.4804 30.3527 66.5041 30.6573 65.4977 30.7558C64.7474 34.2406 62.7507 38.2501 59.5199 37.0968C58.2899 36.6805 57.0599 33.6536 56.9328 30.9681C56.7196 31.2304 56.5761 31.5718 56.4654 31.7134C56.281 30.5199 56.4141 29.2981 56.8508 28.1744C57.7446 25.6014 58.3391 27.3084 59.3108 25.7471C59.9381 24.7145 61.0533 24.1816 63.0008 24.115C62.4555 24.4023 62.353 24.8644 63.1607 24.7978C63.9684 24.7312 67.4165 24.5397 69.4255 25.9178C68.0684 26.2301 68.8966 28.4159 70.7088 27.2501C70.0487 28.3368 69.2287 29.3693 68.3677 29.8606Z" fill="#263238"/>
    <path d="M63.1768 33.1539C63.1882 33.9205 63.4411 34.6632 63.8984 35.2732C64.5093 36.0726 65.2104 35.6895 65.3785 34.7902C65.5261 33.9908 65.3785 32.6085 64.6159 32.1256C63.8533 31.6426 63.1727 32.238 63.1768 33.1539Z" fill="#E4897B"/>
    <path d="M59.5031 26.0718C59.0939 26.0455 58.6973 25.9179 58.3479 25.7001C57.9984 25.4824 57.7067 25.1812 57.4982 24.8228C57.4982 24.8228 57.4449 27.2626 59.5031 26.0718Z" fill="#1E2A4C"/>
    <path d="M65.1286 69.8553C65.1286 69.8553 62.603 93.2292 61.0573 101.985C59.3681 111.561 52.8573 143.52 52.8573 143.52H47.3223C47.3223 143.52 51.2501 112.348 52.0701 102.839C52.9516 92.5339 54.7515 69.8386 54.7515 69.8386L65.1286 69.8553Z" fill="#465B9B"/>
    <path opacity="0.6" d="M65.1286 69.8553C65.1286 69.8553 62.603 93.2292 61.0573 101.985C59.3681 111.561 52.8573 143.52 52.8573 143.52H47.3223C47.3223 143.52 51.2501 112.348 52.0701 102.839C52.9516 92.5339 54.7515 69.8386 54.7515 69.8386L65.1286 69.8553Z" fill="#FAFAFA"/>
    <path d="M53.6404 141.455C53.665 141.455 53.1525 143.608 53.1525 143.608H46.9492L46.9902 141.688L53.6404 141.455Z" fill="#465B9B"/>
    <path opacity="0.1" d="M53.6404 141.455C53.665 141.455 53.1525 143.608 53.1525 143.608H46.9492L46.9902 141.688L53.6404 141.455Z" fill="#FAFAFA"/>
    <path d="M63.2877 78.1823C59.364 78.9692 60.3521 93.937 61.1188 101.635C62.0536 96.1936 63.3246 85.7224 64.1815 78.2905C63.9041 78.1532 63.5891 78.115 63.2877 78.1823Z" fill="#465B9B"/>
    <path opacity="0.4" d="M63.2877 78.1823C59.364 78.9692 60.3521 93.937 61.1188 101.635C62.0536 96.1936 63.3246 85.7224 64.1815 78.2905C63.9041 78.1532 63.5891 78.115 63.2877 78.1823Z" fill="#FAFAFA"/>
    <path d="M70.8437 69.8553C70.8437 69.8553 72.1311 92.7213 72.1557 102.052C72.1844 111.753 70.0565 143.52 70.0565 143.52H64.952C64.952 143.52 63.5785 112.319 62.9881 102.793C62.3485 92.4049 60.2534 69.8553 60.2534 69.8553H70.8437Z" fill="#465B9B"/>
    <path opacity="0.6" d="M70.8437 69.8553C70.8437 69.8553 72.1311 92.7213 72.1557 102.052C72.1844 111.753 70.0565 143.52 70.0565 143.52H64.952C64.952 143.52 63.5785 112.319 62.9881 102.793C62.3485 92.4049 60.2534 69.8553 60.2534 69.8553H70.8437Z" fill="#FAFAFA"/>
    <path d="M72.0781 66.9159L70.6472 67.0325C70.5306 67.0424 70.4177 67.0786 70.3166 67.1384C70.2155 67.1982 70.1289 67.2801 70.0629 67.3782C69.9969 67.4763 69.9533 67.5881 69.9352 67.7055C69.9172 67.8228 69.9251 67.9428 69.9584 68.0567L70.5488 70.076C70.5986 70.2401 70.6867 70.3895 70.8057 70.5115C70.9246 70.6336 71.0708 70.7246 71.2318 70.777C71.3929 70.8293 71.564 70.8414 71.7306 70.8121C71.8972 70.7828 72.0544 70.7131 72.1888 70.6089C72.9279 69.9103 73.458 69.0142 73.7181 68.0234L72.0781 66.9159Z" fill="#E4897B"/>
    <path d="M68.8471 139.798C68.8333 139.796 68.8207 139.789 68.8117 139.778C68.8026 139.768 68.7977 139.754 68.7979 139.74C69.3637 130.951 70.6757 109.679 70.6511 102.052C70.6511 94.2452 69.7163 76.7834 69.4211 71.6165C69.4205 71.6096 69.4213 71.6027 69.4236 71.5961C69.4258 71.5895 69.4293 71.5835 69.4339 71.5785C69.4386 71.5734 69.4442 71.5693 69.4504 71.5665C69.4567 71.5638 69.4634 71.5624 69.4703 71.5624C69.4837 71.5623 69.4967 71.5675 69.5066 71.5767C69.5165 71.586 69.5225 71.5987 69.5236 71.6123C69.8024 76.7793 70.7167 94.241 70.7536 102.052C70.7782 109.683 69.4662 130.955 68.9004 139.748C68.9004 139.755 68.899 139.762 68.8963 139.768C68.8935 139.775 68.8895 139.78 68.8845 139.785C68.8795 139.79 68.8736 139.793 68.8671 139.796C68.8607 139.798 68.8538 139.799 68.8471 139.798Z" fill="#465B9B"/>
    <path opacity="0.3" d="M68.8471 139.798C68.8333 139.796 68.8207 139.789 68.8117 139.778C68.8026 139.768 68.7977 139.754 68.7979 139.74C69.3637 130.951 70.6757 109.679 70.6511 102.052C70.6511 94.2452 69.7163 76.7834 69.4211 71.6165C69.4205 71.6096 69.4213 71.6027 69.4236 71.5961C69.4258 71.5895 69.4293 71.5835 69.4339 71.5785C69.4386 71.5734 69.4442 71.5693 69.4504 71.5665C69.4567 71.5638 69.4634 71.5624 69.4703 71.5624C69.4837 71.5623 69.4967 71.5675 69.5066 71.5767C69.5165 71.586 69.5225 71.5987 69.5236 71.6123C69.8024 76.7793 70.7167 94.241 70.7536 102.052C70.7782 109.683 69.4662 130.955 68.9004 139.748C68.9004 139.755 68.899 139.762 68.8963 139.768C68.8935 139.775 68.8895 139.78 68.8845 139.785C68.8795 139.79 68.8736 139.793 68.8671 139.796C68.8607 139.798 68.8538 139.799 68.8471 139.798Z" fill="#FAFAFA"/>
    <path d="M70.959 141.455C70.9836 141.455 70.754 143.608 70.754 143.608H64.5466L64.3047 141.688L70.959 141.455Z" fill="#465B9B"/>
    <path opacity="0.1" d="M70.959 141.455C70.9836 141.455 70.754 143.608 70.754 143.608H64.5466L64.3047 141.688L70.959 141.455Z" fill="#FAFAFA"/>
</svg>
