<svg width="259" height="247" viewBox="0 0 259 247" fill="none" xmlns="http://www.w3.org/2000/svg">
    <path d="M20.9254 246.833C20.9254 246.833 10.5664 198.043 10.5664 187.996C10.5664 174.119 22.2051 168.569 22.2051 168.569L17.6715 156.785H42.6185L38.7064 168.502C38.7064 168.502 51.838 174.846 50.0099 189.251C46.5793 216.188 41.1255 246.828 41.1255 246.828L20.9254 246.833Z" fill="#F5F5F5"/>
    <path d="M44.7206 174.119C44.6273 174.127 44.5336 174.127 44.4403 174.119C44.1712 174.093 43.9005 174.082 43.6299 174.086C42.5801 174.101 41.5441 174.306 40.5831 174.691C39.0751 175.306 37.7444 176.232 36.6954 177.394C36.032 178.112 35.4349 178.879 34.91 179.687C34.307 180.584 33.7834 181.523 33.344 182.495C32.857 183.549 32.6103 184.682 32.6188 185.826C32.6575 187.061 33.1807 188.242 34.0935 189.156C34.5726 189.631 35.1829 189.98 35.8606 190.167C36.5578 190.353 37.3015 190.335 37.9872 190.117C38.6988 189.867 39.338 189.472 39.8556 188.962C40.3733 188.452 40.7556 187.84 40.9731 187.175C41.1863 186.47 41.2026 185.729 41.0206 185.017C40.8386 184.305 40.4641 183.647 39.9311 183.1C38.8395 181.92 37.3318 181.122 35.6656 180.841C33.9237 180.599 32.1422 180.79 30.5105 181.396C28.817 182.006 27.2506 182.875 25.8794 183.966C23.1023 186.092 21.183 189 20.4256 192.231C20.0762 193.75 20.1096 195.322 20.5231 196.827C20.868 198.275 21.7242 199.579 22.9606 200.541C23.5494 200.996 24.2638 201.295 25.0263 201.407C25.7625 201.51 26.5151 201.374 27.1529 201.024C27.7457 200.653 28.2293 200.156 28.5609 199.575C28.8925 198.994 29.0619 198.348 29.0541 197.693C29.0762 197.07 28.9406 196.451 28.658 195.884C28.3597 195.339 27.9454 194.854 27.4393 194.457C26.4788 193.712 25.314 193.219 24.0696 193.031C21.9288 192.72 19.7354 193.074 17.842 194.035C16.3893 194.75 15.125 195.744 14.1371 196.949C13.5021 197.704 12.9967 198.543 12.6381 199.436C12.3883 200.047 12.3029 200.385 12.2847 200.38C12.351 200.051 12.4468 199.728 12.5711 199.414C12.905 198.502 13.3944 197.645 14.0213 196.872C15.0054 195.635 16.2793 194.613 17.7506 193.88C19.6979 192.869 21.9663 192.495 24.1793 192.82C25.472 193.008 26.6835 193.515 27.6831 194.285C28.2102 194.7 28.6429 195.206 28.9566 195.773C29.26 196.376 29.408 197.035 29.3892 197.699C29.3949 198.398 29.2117 199.088 28.8557 199.707C28.4997 200.327 27.9819 200.857 27.3479 201.251C26.6476 201.641 25.8189 201.792 25.008 201.679C24.1884 201.565 23.4189 201.248 22.7838 200.763C21.4773 199.761 20.5693 198.396 20.2002 196.877C19.768 195.327 19.7285 193.708 20.0844 192.143C20.8604 188.851 22.8179 185.888 25.6478 183.722C27.0524 182.606 28.6557 181.716 30.3886 181.091C32.0826 180.471 33.9289 180.28 35.7326 180.536C37.4862 180.827 39.0728 181.667 40.2175 182.912C40.763 183.522 41.1579 184.232 41.3752 184.993C41.585 185.745 41.5618 186.534 41.3082 187.275C41.0731 187.984 40.6624 188.634 40.1077 189.176C39.5531 189.718 38.8693 190.137 38.1091 190.4C37.361 190.633 36.5518 190.649 35.7936 190.444C35.0631 190.237 34.4081 189.853 33.8985 189.334C32.9401 188.362 32.3936 187.11 32.3568 185.804C32.3515 184.621 32.6128 183.449 33.1246 182.362C33.5804 181.384 34.1183 180.44 34.7333 179.537C35.2689 178.723 35.8805 177.952 36.5614 177.233C37.6352 176.059 38.9986 175.133 40.5404 174.53C41.5151 174.153 42.5649 173.964 43.6238 173.975C43.9941 173.987 44.3619 174.035 44.7206 174.119Z" fill="#E0E0E0"/>
    <path d="M45.3662 210.976C45.4311 211.807 45.355 212.642 45.1408 213.452C44.9173 214.419 44.5482 215.352 44.0439 216.227C43.3892 217.386 42.5026 218.423 41.4298 219.286C40.1263 220.332 38.5648 221.077 36.8779 221.456C34.9359 221.915 32.8938 221.888 30.9672 221.378C28.8366 220.789 26.9712 219.59 25.6475 217.959C24.1727 216.218 23.4448 214.047 23.6001 211.853C23.6612 210.722 24.1877 209.654 25.0747 208.861C25.5392 208.505 26.0954 208.262 26.6913 208.155C27.2871 208.048 27.903 208.081 28.481 208.251C29.0401 208.391 29.5618 208.634 30.0145 208.964C30.4671 209.294 30.841 209.705 31.1134 210.171C31.5975 211.084 31.7202 212.122 31.4608 213.108C31.2338 214.039 30.7396 214.899 30.0288 215.6C29.3585 216.25 28.5443 216.762 27.6401 217.104C26.0214 217.703 24.259 217.906 22.5276 217.692C21.1076 217.532 19.7298 217.145 18.4571 216.549C17.4965 216.106 16.6068 215.546 15.8125 214.884C15.1191 214.336 14.523 213.694 14.0454 212.98C14.0915 213.016 14.1324 213.057 14.1673 213.102L14.4963 213.48C14.9302 213.947 15.4006 214.384 15.9039 214.789C16.7033 215.425 17.5903 215.962 18.5424 216.388C19.7991 216.958 21.1565 217.321 22.552 217.459C24.237 217.655 25.949 217.447 27.5182 216.854C28.383 216.526 29.1602 216.032 29.7972 215.406C30.463 214.74 30.9253 213.926 31.1378 213.047C31.3739 212.127 31.2578 211.161 30.8088 210.31C30.5538 209.883 30.2063 209.507 29.7873 209.206C29.3684 208.904 28.8867 208.683 28.3713 208.556C27.8533 208.407 27.3023 208.38 26.7697 208.477C26.237 208.574 25.7399 208.792 25.3246 209.111C24.5051 209.847 24.0218 210.839 23.9718 211.886C23.8166 213.995 24.505 216.083 25.9095 217.765C27.1821 219.351 28.9842 220.519 31.0464 221.095C32.9171 221.598 34.9022 221.633 36.7926 221.195C38.4441 220.834 39.9761 220.116 41.2592 219.102C42.3202 218.265 43.2023 217.256 43.8611 216.127C44.3712 215.278 44.7545 214.371 45.0006 213.43C45.1558 212.835 45.2597 212.23 45.3114 211.62C45.3114 211.426 45.3114 211.27 45.3419 211.143C45.3416 211.086 45.3498 211.03 45.3662 210.976Z" fill="#E0E0E0"/>
    <path d="M40.7234 233.967C40.6869 234.028 39.6022 233.495 37.7132 232.996C37.2006 232.856 36.6798 232.743 36.1533 232.657C35.5927 232.54 34.9772 232.485 34.3252 232.407C32.9249 232.285 31.5149 232.285 30.1146 232.407C28.7196 232.562 27.3443 232.839 26.0075 233.234C25.3982 233.44 24.7888 233.617 24.2952 233.845C23.8055 234.042 23.3275 234.262 22.8633 234.505C21.1449 235.371 20.2126 236.11 20.1699 236.054C20.3497 235.857 20.5542 235.68 20.7793 235.527C21.0357 235.326 21.3065 235.14 21.5897 234.972C21.95 234.73 22.3265 234.51 22.717 234.311C23.1803 234.055 23.6606 233.825 24.1551 233.623C24.7274 233.377 25.3132 233.159 25.91 232.968C27.2667 232.548 28.6676 232.258 30.0902 232.102C31.5083 231.97 32.9376 231.97 34.3557 232.102C34.9699 232.17 35.5801 232.267 36.1838 232.391C36.7163 232.487 37.2414 232.615 37.7559 232.774C38.1847 232.89 38.6058 233.029 39.0173 233.19C39.335 233.299 39.6444 233.427 39.9435 233.573C40.2191 233.677 40.4808 233.809 40.7234 233.967Z" fill="#E0E0E0"/>
    <path d="M38.98 169.202C38.7251 169.401 38.4496 169.578 38.1573 169.729C37.615 170.056 36.8046 170.489 35.7808 170.983C30.4027 173.554 24.4647 175.005 18.396 175.23C17.2382 175.268 16.2998 175.263 15.6539 175.23C15.3168 175.233 14.9801 175.207 14.6484 175.152C14.9812 175.107 15.3178 175.09 15.6539 175.102C16.2998 175.102 17.2321 175.069 18.3838 175.002C24.3933 174.655 30.2663 173.219 35.659 170.778C36.6888 170.312 37.487 169.912 38.0964 169.623C38.3778 169.461 38.6733 169.32 38.98 169.202Z" fill="#E0E0E0"/>
    <path d="M42.1243 157.368C42.1243 157.401 41.5149 157.318 40.4059 157.312C38.8464 157.317 37.2975 157.547 35.8175 157.995C34.7995 158.304 33.821 158.711 32.8987 159.21C32.3877 159.49 31.8972 159.8 31.4301 160.137C30.9261 160.478 30.4733 160.877 30.0834 161.325C29.6727 161.777 29.3921 162.315 29.2669 162.89C29.209 163.182 29.231 163.482 29.3309 163.764C29.4309 164.045 29.6056 164.3 29.8397 164.506C30.3628 164.922 30.9908 165.214 31.6678 165.355C32.3447 165.575 33.068 165.651 33.7822 165.577C34.1068 165.486 34.3915 165.304 34.5952 165.057C34.7989 164.81 34.9111 164.51 34.9156 164.2C34.9672 163.566 34.8214 162.931 34.4952 162.369C33.8888 161.273 32.9158 160.38 31.7165 159.821C30.6397 159.296 29.4455 159.002 28.2249 158.961C27.1564 158.942 26.0919 159.084 25.0745 159.382C23.5964 159.834 22.2076 160.499 20.9614 161.353C20.5227 161.658 20.1875 161.908 19.9621 162.069C19.8527 162.164 19.7321 162.248 19.6025 162.319C19.6937 162.209 19.7979 162.108 19.9133 162.019C20.1266 161.836 20.4495 161.575 20.8822 161.253C22.1113 160.347 23.5027 159.641 24.9953 159.166C26.0358 158.839 27.1303 158.677 28.231 158.689C29.5057 158.723 30.7555 159.019 31.8871 159.554C33.155 160.137 34.1844 161.075 34.8242 162.23C35.179 162.846 35.3373 163.54 35.2812 164.234C35.2506 164.599 35.1162 164.951 34.8912 165.255C34.651 165.572 34.2909 165.797 33.8797 165.888C33.1055 165.983 32.3176 165.906 31.5824 165.666C30.8433 165.511 30.1584 165.19 29.5899 164.733C29.3181 164.492 29.1151 164.194 28.9983 163.865C28.8815 163.536 28.8545 163.187 28.9196 162.846C29.0605 162.217 29.3704 161.63 29.8214 161.136C30.2317 160.675 30.7047 160.263 31.229 159.91C31.7105 159.57 32.2153 159.259 32.7402 158.977C33.6854 158.477 34.6889 158.075 35.7322 157.778C37.2395 157.34 38.8184 157.141 40.3998 157.19C40.8282 157.199 41.2556 157.232 41.6794 157.29C41.8304 157.301 41.9796 157.327 42.1243 157.368Z" fill="#E0E0E0"/>
    <path d="M84.158 3.45813H6.7334V130.153H84.158V3.45813Z" fill="#EBEBEB"/>
    <path d="M80.2634 7.13269H9.82812V126.378H80.2634V7.13269Z" fill="#FAFAFA"/>
    <path d="M87.4304 131.29L84.1582 130.152V1.30981H87.4304V131.29Z" fill="#E0E0E0"/>
    <path d="M27.1289 84.1594C33.2225 78.9788 39.316 73.8148 45.4095 68.6675C47.7251 66.7081 50.7536 64.5933 53.7333 65.5591C55.1714 66.0254 56.25 67.141 57.6515 67.6739C60.4606 68.7396 63.6719 67.2021 65.829 65.2483C67.9861 63.2944 69.6923 60.8521 72.3125 59.4367C74.9328 58.0213 79.0154 58.2044 80.2829 60.7133V77.5652L53.6968 87.9339L27.1289 84.1594Z" fill="#F5F5F5"/>
    <path d="M9.82812 74.4679C16.5676 71.9701 23.2949 74.0905 28.1088 79.0583C29.1203 80.1019 30.0465 81.2786 31.4419 81.8836C33.3309 82.6663 35.5124 82.0835 37.5781 81.8836C40.4124 81.6241 43.2703 82.0841 45.8353 83.2127C48.4003 84.3412 50.5725 86.0944 52.1112 88.278L29.5956 98.3581L9.82812 98.2304V74.4679Z" fill="#E0E0E0"/>
    <path d="M80.2641 74.5514C75.828 72.5975 71.916 74.9621 67.8211 77.4599C63.7263 79.9577 59.8995 83.166 55.1161 84.1763C51.9048 84.8479 48.4619 84.476 45.3664 85.4807C39.0413 87.5344 35.3852 94.8447 28.6884 95.1944C25.0323 95.3831 21.7844 93.3738 18.5365 91.864C15.2887 90.3542 12.7294 88.9221 9.83496 90.9426V126.373H80.2641V74.5514Z" fill="#EBEBEB"/>
    <path d="M81.7929 41.4358H9.82812V42.7069H81.7929V41.4358Z" fill="#E0E0E0"/>
    <path d="M81.7929 69.8331H9.82812V71.1042H81.7929V69.8331Z" fill="#E0E0E0"/>
    <path d="M81.7929 98.2305H9.82812V99.5016H81.7929V98.2305Z" fill="#E0E0E0"/>
    <path d="M43.27 42.0632L43.27 129.753H46.8287L46.8287 42.0632H43.27Z" fill="#E0E0E0"/>
    <path d="M25.0079 7.13269H23.3931V42.0687H25.0079V7.13269Z" fill="#E0E0E0"/>
    <path d="M38.9131 7.13269H37.2983V42.0687H38.9131V7.13269Z" fill="#E0E0E0"/>
    <path d="M52.813 7.13269H51.1982V42.0687H52.813V7.13269Z" fill="#E0E0E0"/>
    <path d="M66.7178 7.13269H65.103V42.0687H66.7178V7.13269Z" fill="#E0E0E0"/>
    <path d="M6.73366 1.30981H3.46143V130.935H6.73366V1.30981Z" fill="#E0E0E0"/>
    <path d="M87.4305 0H3.46143V3.45808H87.4305V0Z" fill="#E0E0E0"/>
    <path d="M89.6425 131.718H1.13379V134.937H89.6425V131.718Z" fill="#E0E0E0"/>
    <path d="M84.1583 130.153L89.6486 131.718H1.13379L6.73376 130.153H84.1583Z" fill="#EBEBEB"/>
    <path d="M231.11 245.002V78.6421H228.849V245.041L210.16 246.317H228.849H231.11H249.799L231.11 245.002Z" fill="#EBEBEB"/>
    <path d="M217.07 64.1494L208.68 98.325H251.286L241.701 64.2549L217.07 64.1494Z" fill="#E0E0E0"/>
    <path d="M224.882 112.174C224.785 112.174 224.718 107.978 224.73 102.804C224.742 97.6311 224.827 93.4348 224.925 93.4403C225.022 93.4459 225.096 97.6311 225.077 102.804C225.059 107.978 224.98 112.174 224.882 112.174Z" fill="#E0E0E0"/>
    <path d="M224.864 112.107C224.864 112.068 225.168 112.107 225.302 112.457C225.34 112.561 225.349 112.672 225.33 112.78C225.311 112.888 225.264 112.991 225.193 113.079C225.093 113.188 224.958 113.266 224.807 113.3C224.655 113.334 224.496 113.323 224.352 113.267C224.219 113.231 224.101 113.16 224.012 113.064C223.923 112.967 223.868 112.848 223.852 112.723C223.837 112.598 223.862 112.471 223.925 112.359C223.987 112.246 224.085 112.153 224.206 112.091C224.565 111.896 224.815 112.057 224.815 112.091C224.815 112.124 224.589 112.091 224.376 112.279C224.32 112.325 224.276 112.381 224.244 112.443C224.213 112.505 224.195 112.572 224.193 112.64C224.203 112.717 224.237 112.789 224.291 112.848C224.345 112.908 224.417 112.951 224.498 112.973C224.576 113.005 224.662 113.015 224.746 113.001C224.83 112.987 224.907 112.95 224.967 112.896C225.015 112.843 225.05 112.781 225.07 112.715C225.09 112.649 225.095 112.58 225.083 112.513C225.028 112.252 224.839 112.152 224.864 112.107Z" fill="#E0E0E0"/>
    <path d="M252.133 7.35449H209.204V48.1187H252.133V7.35449Z" fill="#E0E0E0"/>
    <path d="M249.226 7.35449H206.297V48.1187H249.226V7.35449Z" fill="#EBEBEB"/>
    <path d="M243.455 12.8333H212.067V42.6404H243.455V12.8333Z" fill="#FAFAFA"/>
    <path d="M212.067 42.8345C211.839 43.1284 211.577 43.4 211.287 43.6449C210.782 44.1278 210.069 44.755 209.283 45.4877C208.496 46.2204 207.771 46.8254 207.235 47.2806C206.965 47.5406 206.665 47.7732 206.339 47.9744C206.572 47.6848 206.833 47.4153 207.119 47.1696C207.625 46.6867 208.338 46.0594 209.124 45.3267C209.91 44.594 210.641 43.9835 211.178 43.5339C211.447 43.2739 211.746 43.0396 212.067 42.8345Z" fill="#E0E0E0"/>
    <path d="M243.449 42.7626C243.772 42.9723 244.071 43.2123 244.339 43.4786C244.869 43.9393 245.558 44.5887 246.362 45.2992C247.166 46.0097 247.83 46.6814 248.33 47.1643C248.616 47.4104 248.871 47.684 249.092 47.9802C248.772 47.7713 248.476 47.5332 248.208 47.2697C247.684 46.809 246.99 46.1596 246.185 45.4436C245.381 44.7275 244.711 44.0614 244.217 43.5785C243.93 43.3317 243.673 43.0582 243.449 42.7626Z" fill="#E0E0E0"/>
    <path d="M243.37 12.9109C243.604 12.6192 243.867 12.3479 244.156 12.1005C244.662 11.6231 245.375 10.9903 246.155 10.2632C246.935 9.53606 247.672 8.91993 248.202 8.47032C248.476 8.21344 248.776 7.98109 249.098 7.77649C248.871 8.06791 248.611 8.33757 248.324 8.58134C247.818 9.0587 247.105 9.69148 246.319 10.4242C245.533 11.1569 244.802 11.7674 244.272 12.217C244 12.4774 243.697 12.71 243.37 12.9109Z" fill="#E0E0E0"/>
    <path d="M211.982 12.9886C211.662 12.7755 211.364 12.5358 211.092 12.2726C210.568 11.8119 209.874 11.1625 209.075 10.452C208.277 9.74149 207.601 9.06986 207.107 8.58695C206.827 8.33486 206.57 8.06193 206.339 7.771C206.662 7.97877 206.961 8.21691 207.229 8.48148C207.753 8.93664 208.448 9.59162 209.252 10.3077C210.056 11.0237 210.727 11.6898 211.22 12.1727C211.506 12.4188 211.761 12.6924 211.982 12.9886Z" fill="#E0E0E0"/>
    <path d="M243.37 42.6406C243.37 42.6406 243.37 42.5907 243.37 42.4963C243.37 42.4019 243.37 42.2576 243.37 42.08C243.37 41.7081 243.37 41.1697 243.37 40.4703C243.37 39.066 243.37 37.0122 243.37 34.3978C243.37 29.1802 243.34 21.7423 243.316 12.8334L243.419 12.9278H212.123L212.245 12.8223C212.245 23.7627 212.245 33.9982 212.245 42.6295L212.141 42.5351L234.815 42.5851H241.177H242.859H241.219H234.876L212.141 42.6295H212.043V42.5407C212.043 33.9094 212.043 23.6684 212.043 12.7335V12.6281H212.165H243.462H243.45V12.7224C243.45 21.6535 243.413 29.1136 243.401 34.3701C243.401 36.9734 243.401 39.016 243.401 40.4203C243.401 41.1142 243.401 41.647 243.401 42.0134V42.5018C243.394 42.5486 243.384 42.5949 243.37 42.6406Z" fill="#E0E0E0"/>
    <path d="M220.355 25.2944C220.355 25.2944 219.678 32.6768 228.453 32.6768C228.453 28.7248 224.888 25.6164 220.355 25.2944Z" fill="#EBEBEB"/>
    <path d="M236.405 25.2945C236.405 25.2945 228.307 24.684 228.307 32.677C232.627 32.6714 236.039 29.4187 236.405 25.2945Z" fill="#EBEBEB"/>
    <path d="M228.063 21.2535C228.063 21.2535 221.446 26.6655 228.429 32.6657C231.677 29.5296 231.396 24.6173 228.063 21.2535Z" fill="#E0E0E0"/>
    <path d="M178.815 11.8784H113.163C104.625 11.8784 97.7041 18.1832 97.7041 25.9605V180.32C97.7041 188.097 104.625 194.402 113.163 194.402H178.815C187.353 194.402 194.275 188.097 194.275 180.32V25.9605C194.275 18.1832 187.353 11.8784 178.815 11.8784Z" fill="#FAFAFA"/>
    <path d="M178.815 194.402L180.277 194.318C180.758 194.263 181.356 194.179 182.056 194.063L183.178 193.796C183.58 193.702 183.988 193.536 184.433 193.397C186.605 192.62 188.552 191.399 190.124 189.828C191.141 188.841 191.986 187.718 192.629 186.497C193.383 185.12 193.871 183.635 194.073 182.107C194.215 180.389 194.259 178.666 194.207 176.945C194.207 175.128 194.207 173.226 194.207 171.238C194.207 167.259 194.207 162.912 194.207 158.294C194.207 149.008 194.207 138.428 194.207 126.739C194.207 103.359 194.207 75.5225 194.17 44.5885V32.8821C194.17 30.906 194.17 28.9134 194.17 26.9151C194.17 26.4155 194.17 25.9104 194.14 25.4164C194.134 24.9197 194.085 24.4242 193.994 23.9344L193.866 23.1906C193.811 22.9519 193.732 22.7077 193.671 22.469C193.61 22.2303 193.537 21.9805 193.457 21.7419L193.171 21.0369C192.393 19.1529 191.169 17.4475 189.588 16.0413C187.987 14.6152 186.063 13.5241 183.951 12.8441C182.891 12.5003 181.791 12.2657 180.673 12.1447C180.119 12.0726 179.552 12.0781 178.985 12.0448C178.419 12.0115 177.846 12.0448 177.273 12.0448H113.175C110.748 12.055 108.356 12.5815 106.192 13.5824C104.044 14.5794 102.189 16.0296 100.781 17.812C99.3632 19.5713 98.4329 21.6164 98.0691 23.7734L97.935 24.5727L97.8924 25.3831C97.8497 25.9382 97.8924 26.4933 97.8924 27.015V30.2788C97.8924 38.9675 97.8924 47.5211 97.8924 55.9396C97.8924 72.7638 97.8924 88.9884 97.8924 104.447C97.8924 119.906 97.8924 134.593 97.8924 148.342C97.8924 155.214 97.8924 161.845 97.8924 168.236C97.8924 171.422 97.8924 174.552 97.8924 177.611C97.8449 179.118 97.8896 180.626 98.0264 182.129C98.2218 183.588 98.6809 185.008 99.3853 186.331C100.046 187.635 100.938 188.831 102.024 189.872C104.101 191.909 106.801 193.332 109.775 193.957C110.131 194.043 110.493 194.104 110.859 194.141C111.217 194.205 111.58 194.248 111.944 194.268C112.669 194.307 113.394 194.34 114.119 194.329H130.45H156.598L173.129 194.357L156.598 194.385H130.45H114.119C113.394 194.385 112.663 194.385 111.926 194.329C111.56 194.329 111.195 194.241 110.829 194.202C110.459 194.161 110.093 194.098 109.732 194.013C108.252 193.704 106.829 193.199 105.509 192.514C104.148 191.813 102.914 190.924 101.853 189.878C100.749 188.825 99.8437 187.613 99.172 186.292C98.4558 184.95 97.9884 183.51 97.7888 182.029C97.6484 180.517 97.5996 179 97.6425 177.483V168.213C97.6425 161.83 97.6425 155.199 97.6425 148.32C97.6425 134.571 97.6425 119.884 97.6425 104.425C97.6425 88.9662 97.6425 72.7416 97.6425 55.9174V26.9928C97.6425 26.4377 97.6425 25.8827 97.673 25.3276L97.7218 24.5006L97.8558 23.6846C98.2234 21.4758 99.1726 19.3808 100.622 17.5789C102.063 15.7612 103.958 14.2812 106.149 13.2604C108.358 12.242 110.797 11.7043 113.272 11.6896H177.224C177.797 11.6896 178.37 11.6896 178.943 11.6896C179.515 11.6896 180.094 11.7229 180.661 11.795C184.09 12.1684 187.287 13.566 189.753 15.7693C191.368 17.2126 192.617 18.9616 193.409 20.8926L193.695 21.6086C193.78 21.8529 193.841 22.1027 193.914 22.3469C193.988 22.5911 194.055 22.8409 194.116 23.0907L194.243 23.84C194.333 24.3412 194.384 24.8476 194.396 25.3554C194.432 25.866 194.396 26.3656 194.426 26.8651C194.426 28.8634 194.426 30.8561 194.426 32.8321V44.5663C194.426 75.4781 194.426 103.315 194.39 126.716C194.39 138.406 194.39 148.986 194.39 158.272C194.39 162.912 194.39 167.236 194.39 171.216C194.39 173.203 194.39 175.105 194.39 176.922C194.438 178.648 194.389 180.375 194.243 182.096C194.043 183.643 193.546 185.146 192.775 186.536C192.118 187.755 191.266 188.877 190.246 189.867C188.659 191.439 186.695 192.657 184.506 193.425C184.055 193.563 183.647 193.73 183.245 193.819L182.117 194.08C181.41 194.196 180.807 194.274 180.332 194.324L178.815 194.402Z" fill="#263238"/>
    <path d="M184.994 22.6856C182.651 22.878 180.293 22.878 177.95 22.6856C180.293 22.4932 182.651 22.4932 184.994 22.6856Z" fill="#263238"/>
    <path d="M184.994 24.7781C182.651 24.9705 180.293 24.9705 177.95 24.7781C180.293 24.5857 182.651 24.5857 184.994 24.7781Z" fill="#263238"/>
    <path d="M184.994 26.8709C182.651 27.0633 180.293 27.0633 177.95 26.8709C180.293 26.6785 182.651 26.6785 184.994 26.8709Z" fill="#263238"/>
    <path d="M136.361 26.8708V24.6505L135.142 26.4878H134.923L133.704 24.6671V26.8541H133.247V23.8512H133.637L135.02 25.9716L136.385 23.8512H136.812V26.8708H136.361Z" fill="#263238"/>
    <path d="M139.968 24.5839L138.75 27.1039C138.53 27.5868 138.238 27.7366 137.854 27.7366C137.617 27.7426 137.387 27.6673 137.208 27.5257L137.403 27.2149C137.524 27.3213 137.686 27.381 137.854 27.3814C138.073 27.3814 138.207 27.2926 138.335 27.0262L138.415 26.8707L137.306 24.5839H137.781L138.64 26.4045L139.505 24.5728L139.968 24.5839Z" fill="#263238"/>
    <path d="M144.417 24.9003C144.417 25.5608 143.893 25.9549 143.028 25.9549H142.211V26.8708H141.736V23.8512H143.028C143.893 23.8512 144.417 24.2453 144.417 24.9003ZM143.942 24.9003C143.942 24.4729 143.625 24.2231 143.015 24.2231H142.211V25.583H143.015C143.625 25.583 143.942 25.3332 143.942 24.9003Z" fill="#263238"/>
    <path d="M146.355 24.5618V24.9614H146.245C146.135 24.9546 146.024 24.9704 145.921 25.0076C145.818 25.0448 145.725 25.1025 145.65 25.1764C145.575 25.2504 145.518 25.3387 145.485 25.435C145.452 25.5313 145.443 25.6331 145.459 25.733V26.8431H145.002V24.584H145.435V24.967C145.531 24.828 145.669 24.7165 145.831 24.6449C145.994 24.5733 146.175 24.5445 146.355 24.5618Z" fill="#263238"/>
    <path d="M146.653 25.7273C146.648 25.4904 146.721 25.2575 146.862 25.0584C147.003 24.8592 147.206 24.7028 147.445 24.6091C147.683 24.5153 147.948 24.4885 148.203 24.532C148.459 24.5755 148.695 24.6874 148.88 24.8534C149.066 25.0194 149.193 25.2319 149.246 25.464C149.298 25.6961 149.274 25.9372 149.176 26.1565C149.077 26.3759 148.909 26.5636 148.693 26.6957C148.477 26.8279 148.223 26.8985 147.963 26.8985C147.791 26.9062 147.619 26.8814 147.458 26.8256C147.296 26.7698 147.15 26.6842 147.027 26.5741C146.903 26.4641 146.807 26.3321 146.742 26.1863C146.678 26.0406 146.648 25.8843 146.653 25.7273ZM148.81 25.7273C148.802 25.5766 148.745 25.4314 148.647 25.3098C148.549 25.1881 148.414 25.0953 148.259 25.0428C148.103 24.9903 147.935 24.9805 147.773 25.0145C147.612 25.0485 147.465 25.1249 147.351 25.2342C147.236 25.3435 147.16 25.4809 147.131 25.6294C147.101 25.7779 147.12 25.931 147.185 26.0697C147.251 26.2084 147.359 26.3267 147.497 26.4099C147.635 26.4931 147.797 26.5375 147.963 26.5377C148.079 26.5403 148.194 26.5208 148.301 26.4805C148.408 26.4402 148.504 26.3799 148.584 26.3036C148.664 26.2272 148.725 26.1365 148.764 26.0373C148.803 25.938 148.819 25.8324 148.81 25.7273Z" fill="#263238"/>
    <path d="M150.79 23.6291C150.972 23.623 151.151 23.6697 151.302 23.7623L151.168 24.0787C151.065 24.0109 150.941 23.974 150.814 23.9733C150.546 23.9733 150.406 24.112 150.406 24.3729V24.5727H151.137V24.9113H150.418V26.8596H149.961V24.9224H149.535V24.5838H149.961V24.3785C149.951 24.2772 149.965 24.1751 150.003 24.0794C150.041 23.9838 150.102 23.897 150.181 23.8254C150.26 23.7537 150.356 23.699 150.461 23.665C150.567 23.6311 150.679 23.6188 150.79 23.6291ZM151.868 23.8622C151.869 23.8258 151.878 23.7899 151.894 23.7565C151.91 23.7231 151.933 23.6929 151.962 23.6676C151.991 23.6424 152.025 23.6225 152.062 23.6093C152.099 23.596 152.139 23.5895 152.179 23.5903C152.26 23.5903 152.338 23.6195 152.395 23.6716C152.452 23.7236 152.484 23.7942 152.484 23.8678C152.484 23.9414 152.452 24.012 152.395 24.064C152.338 24.1161 152.26 24.1453 152.179 24.1453C152.139 24.1461 152.099 24.1396 152.062 24.1263C152.025 24.1131 151.991 24.0932 151.962 24.068C151.933 24.0427 151.91 24.0125 151.894 23.9791C151.878 23.9458 151.869 23.9098 151.868 23.8734V23.8622ZM151.948 24.5727H152.405V26.8596H151.948V24.5727Z" fill="#263238"/>
    <path d="M153.265 23.668H153.722V26.8707H153.265V23.668Z" fill="#263238"/>
    <path d="M156.853 25.8495H154.818C154.841 26.0453 154.945 26.2256 155.11 26.3536C155.274 26.4815 155.486 26.5474 155.701 26.5378C155.837 26.5417 155.972 26.519 156.097 26.4711C156.222 26.4232 156.335 26.3513 156.427 26.2603L156.676 26.5267C156.554 26.6529 156.401 26.752 156.23 26.8164C156.059 26.8809 155.874 26.909 155.689 26.8986C155.514 26.9102 155.338 26.8884 155.173 26.8345C155.007 26.7806 154.856 26.6957 154.729 26.5855C154.601 26.4752 154.501 26.3419 154.433 26.1942C154.366 26.0464 154.333 25.8874 154.337 25.7274C154.328 25.5737 154.355 25.42 154.415 25.2762C154.475 25.1323 154.567 25.0015 154.686 24.8919C154.804 24.7822 154.947 24.6963 155.104 24.6395C155.261 24.5826 155.429 24.5562 155.598 24.5618C155.764 24.5615 155.929 24.5923 156.082 24.6522C156.235 24.7121 156.372 24.7999 156.487 24.9101C156.601 25.0203 156.689 25.1507 156.746 25.2932C156.802 25.4357 156.827 25.5872 156.817 25.7385C156.831 25.7748 156.843 25.8119 156.853 25.8495ZM154.818 25.5498H156.427C156.41 25.3677 156.317 25.1985 156.167 25.0768C156.018 24.955 155.823 24.8899 155.622 24.8948C155.418 24.8873 155.219 24.9537 155.068 25.0795C154.917 25.2054 154.827 25.3804 154.818 25.5664V25.5498Z" fill="#263238"/>
    <path d="M162.18 86.2133H130.109V87.9451H162.18V86.2133Z" fill="#465B9B"/>
    <path d="M175.036 90.748C175.036 90.8312 162.545 90.8978 147.134 90.8978C131.723 90.8978 119.226 90.8312 119.226 90.748C119.226 90.6647 131.717 90.6036 147.134 90.6036C162.551 90.6036 175.036 90.6702 175.036 90.748Z" fill="#263238"/>
    <path d="M118.135 117.475C123.385 117.475 127.641 113.598 127.641 108.815C127.641 104.033 123.385 100.156 118.135 100.156C112.885 100.156 108.629 104.033 108.629 108.815C108.629 113.598 112.885 117.475 118.135 117.475Z" fill="#465B9B"/>
    <path d="M145.941 117.475C151.19 117.475 155.446 113.598 155.446 108.815C155.446 104.033 151.19 100.156 145.941 100.156C140.691 100.156 136.435 104.033 136.435 108.815C136.435 113.598 140.691 117.475 145.941 117.475Z" fill="#465B9B"/>
    <path d="M173.745 117.475C178.995 117.475 183.251 113.598 183.251 108.815C183.251 104.033 178.995 100.156 173.745 100.156C168.495 100.156 164.239 104.033 164.239 108.815C164.239 113.598 168.495 117.475 173.745 117.475Z" fill="#465B9B"/>
    <path d="M130.024 121.321C130.024 121.399 124.698 121.466 118.135 121.466C111.573 121.466 106.253 121.399 106.253 121.321C106.253 121.244 111.573 121.177 118.135 121.177C124.698 121.177 130.024 121.221 130.024 121.321Z" fill="#263238"/>
    <path d="M156.275 121.321C156.275 121.399 151.65 121.466 145.916 121.466C140.182 121.466 135.557 121.399 135.557 121.321C135.557 121.244 140.182 121.177 145.916 121.177C151.65 121.177 156.275 121.221 156.275 121.321Z" fill="#263238"/>
    <path d="M183.257 121.321C183.257 121.399 178.632 121.466 172.898 121.466C167.164 121.466 162.569 121.399 162.569 121.321C162.569 121.244 167.194 121.177 172.898 121.177C178.601 121.177 183.257 121.221 183.257 121.321Z" fill="#263238"/>
    <path d="M184.543 151.084C184.543 151.084 184.543 150.957 184.543 150.718C184.543 150.479 184.543 150.124 184.543 149.663C184.543 148.731 184.543 147.36 184.543 145.583C184.543 142.02 184.513 136.841 184.488 130.302L184.586 130.391L107.387 130.447L107.545 130.302V151.084L107.387 150.945L162.551 151.006L178.724 151.045H183.075H184.202H184.592H184.22H183.062H178.748L162.606 151.09L107.338 151.151H107.186V151.012C107.186 144.396 107.186 137.407 107.186 130.23V130.086H107.35L184.549 130.136H184.653V130.23C184.653 136.791 184.61 141.992 184.598 145.561C184.598 147.332 184.598 148.697 184.598 149.624C184.598 150.079 184.598 150.424 184.598 150.668C184.598 150.912 184.543 151.084 184.543 151.084Z" fill="#263238"/>
    <path d="M179.198 136.919C179.198 136.996 164.36 137.063 146.049 137.063C127.738 137.063 112.9 136.996 112.9 136.919C112.9 136.841 127.738 136.774 146.049 136.774C164.36 136.774 179.198 136.863 179.198 136.919Z" fill="#263238"/>
    <path d="M179.198 141.032C179.198 141.115 164.36 141.176 146.049 141.176C127.738 141.176 112.9 141.115 112.9 141.032C112.9 140.948 127.738 140.887 146.049 140.887C164.36 140.887 179.198 140.954 179.198 141.032Z" fill="#263238"/>
    <path d="M179.198 145.15C179.198 145.228 164.36 145.295 146.049 145.295C127.738 145.295 112.9 145.228 112.9 145.15C112.9 145.073 127.738 145.006 146.049 145.006C164.36 145.006 179.198 145.073 179.198 145.15Z" fill="#263238"/>
    <path d="M184.543 177.161C184.543 177.161 184.543 177.039 184.543 176.8C184.543 176.562 184.543 176.201 184.543 175.74C184.543 174.808 184.543 173.437 184.543 171.66C184.543 168.102 184.512 162.918 184.488 156.379L184.585 156.474L107.386 156.524L107.545 156.379V177.161L107.386 177.022L162.551 177.089L178.723 177.128H183.074H184.201H184.591C184.591 177.128 184.47 177.128 184.22 177.128H183.111H178.796L162.655 177.167L107.386 177.233H107.234V177.089C107.234 170.473 107.234 163.49 107.234 156.307V156.163H107.398L184.598 156.218H184.701V156.307C184.701 162.868 184.658 168.075 184.646 171.644C184.646 173.415 184.646 174.774 184.646 175.707C184.646 176.157 184.646 176.506 184.646 176.745C184.646 176.984 184.543 177.161 184.543 177.161Z" fill="#263238"/>
    <path d="M179.198 162.996C179.198 163.079 164.36 163.14 146.049 163.14C127.738 163.14 112.9 163.079 112.9 162.996C112.9 162.913 127.738 162.852 146.049 162.852C164.36 162.852 179.198 162.918 179.198 162.996Z" fill="#263238"/>
    <path d="M179.198 167.115C179.198 167.192 164.36 167.259 146.049 167.259C127.738 167.259 112.9 167.192 112.9 167.115C112.9 167.037 127.738 166.97 146.049 166.97C164.36 166.97 179.198 167.031 179.198 167.115Z" fill="#263238"/>
    <path d="M179.198 171.228C179.198 171.311 164.36 171.372 146.049 171.372C127.738 171.372 112.9 171.311 112.9 171.228C112.9 171.144 127.738 171.083 146.049 171.083C164.36 171.083 179.198 171.15 179.198 171.228Z" fill="#263238"/>
    <path d="M108.38 26.8765H108.496H108.819H110.001L109.964 26.9098C109.964 26.6711 109.964 26.4102 109.964 26.1271C109.964 25.9828 109.964 25.844 109.964 25.6775C109.982 25.5905 110.03 25.5112 110.102 25.4511C110.173 25.3911 110.264 25.3537 110.36 25.3445C110.555 25.3445 110.72 25.3445 110.927 25.3445C111.036 25.3603 111.135 25.4109 111.206 25.4872C111.278 25.5635 111.317 25.6605 111.317 25.7608C111.317 26.1216 111.317 26.5046 111.317 26.8709L111.262 26.8209H112.755L112.694 26.8709C112.694 26.3158 112.694 25.7608 112.694 25.1779C112.694 25.0336 112.694 24.8893 112.694 24.745C112.688 24.6815 112.666 24.6202 112.63 24.5654C112.594 24.5107 112.545 24.4639 112.487 24.4286L111.829 23.8125L111.219 23.2574L110.915 22.9854C110.811 22.8911 110.732 22.7967 110.61 22.7745C110.552 22.7604 110.491 22.7585 110.432 22.7691C110.373 22.7797 110.317 22.8024 110.269 22.8356C110.177 22.9022 110.08 23.0021 109.989 23.0853C109.897 23.1686 109.629 23.4184 109.452 23.5738C109.117 23.8957 108.764 24.1844 108.514 24.4619C108.439 24.6208 108.411 24.7952 108.435 24.967V25.4444C108.435 25.7386 108.435 25.9994 108.435 26.2159C108.435 26.4324 108.435 26.5767 108.435 26.7099C108.441 26.769 108.441 26.8285 108.435 26.8876C108.435 26.8876 108.435 26.8321 108.435 26.721C108.435 26.61 108.435 26.4324 108.435 26.2381C108.435 26.0439 108.435 25.7552 108.435 25.461C108.435 25.3056 108.435 25.1446 108.435 24.9726V24.7061C108.435 24.6065 108.464 24.5087 108.52 24.4231C108.794 24.1122 109.129 23.868 109.465 23.5127L109.995 23.0187C110.092 22.9299 110.171 22.8467 110.281 22.7578C110.343 22.717 110.413 22.6889 110.488 22.6755C110.563 22.6621 110.64 22.6637 110.714 22.6801C110.855 22.7266 110.979 22.8072 111.073 22.9133L111.378 23.1852L111.987 23.7403L112.639 24.2954C112.702 24.3443 112.757 24.4003 112.804 24.4619C112.854 24.5289 112.882 24.6082 112.883 24.6895C112.883 24.8338 112.883 24.9781 112.883 25.1224C112.883 25.6775 112.883 26.2659 112.883 26.8154V26.8654H112.828H111.335H111.219V26.8154C111.219 26.4213 111.219 26.0383 111.219 25.7053C111.221 25.6266 111.192 25.5499 111.137 25.489C111.082 25.428 111.006 25.3866 110.921 25.3722H110.379C110.3 25.3792 110.227 25.4088 110.169 25.4568C110.111 25.5048 110.071 25.5686 110.056 25.6387C110.056 25.7719 110.056 25.9328 110.056 26.0716V26.882H108.404L108.38 26.8765Z" fill="#263238"/>
    <path d="M168.237 63.4914C171.245 51.6807 163.172 39.8853 150.206 37.1456C137.241 34.4058 124.291 41.7593 121.284 53.5699C118.276 65.3806 126.349 77.1761 139.314 79.9158C152.28 82.6556 165.229 75.3021 168.237 63.4914Z" fill="#E0E0E0"/>
    <path d="M164.056 60.8688C164.613 60.2779 164.977 59.5572 165.108 58.7879C165.239 58.0186 165.131 57.2313 164.798 56.5146C164.464 55.7979 163.917 55.1804 163.218 54.7317C162.52 54.283 161.698 54.0208 160.845 53.9748C161.126 53.25 161.196 52.4711 161.048 51.7144C160.899 50.9576 160.538 50.2488 159.999 49.6575C159.459 49.0662 158.761 48.6125 157.971 48.3408C157.182 48.0692 156.328 47.9888 155.495 48.1078C155.439 47.3439 155.183 46.6033 154.749 45.9479C154.315 45.2924 153.715 44.7411 152.999 44.3401C152.284 43.9391 151.473 43.7 150.635 43.6428C149.797 43.5856 148.956 43.712 148.182 44.0113C147.685 43.4606 147.055 43.022 146.341 42.7302C145.627 42.4383 144.849 42.3009 144.067 42.3289C143.285 42.3568 142.52 42.5493 141.834 42.8913C141.147 43.2333 140.556 43.7154 140.108 44.3L138.841 44.361C137.742 44.3993 136.664 44.6503 135.68 45.0972C134.695 45.5442 133.827 46.1768 133.131 46.9532C133.06 47.0421 132.978 47.1239 132.888 47.1974C131.669 48.2354 130.389 49.3456 129.957 50.8165C129.475 52.4484 130.115 54.3245 129.207 55.8121C128.854 56.3949 128.275 56.8667 128.037 57.4773C127.58 58.6707 128.464 59.9585 128.36 61.2185C128.257 62.4785 127.038 63.7163 127.184 65.0484C127.288 65.5242 127.499 65.9752 127.803 66.3734C128.107 66.7717 128.498 67.1086 128.951 67.3631C129.86 67.8691 130.707 68.4608 131.48 69.1282C132.041 69.6833 132.406 70.4326 132.955 71.0265C133.773 71.837 134.899 72.3347 136.104 72.4192C137.31 72.5036 138.505 72.1686 139.45 71.4817C140.096 71.9291 140.851 72.2291 141.65 72.3566C142.449 72.484 143.27 72.4353 144.045 72.2144C145.589 71.7641 147.042 71.0873 148.347 70.2106C148.637 70.5728 149.023 70.8628 149.468 71.0537C149.914 71.2447 150.405 71.3306 150.896 71.3035C151.388 71.2765 151.864 71.1373 152.281 70.8988C152.698 70.6603 153.042 70.3301 153.283 69.9386C153.624 70.91 154.891 71.404 156.007 71.3041C157.106 71.1213 158.147 70.7174 159.053 70.1218C160.845 69.1171 162.843 67.7905 162.892 65.8755C162.923 64.7043 162.179 63.4943 162.667 62.4119C163.038 61.834 163.507 61.3132 164.056 60.8688Z" fill="#263238"/>
    <path d="M151.985 53.6031C151.582 52.604 151.759 51.4938 151.607 50.4392C151.278 48.1079 149.285 46.143 146.884 45.2882C144.428 44.5041 141.75 44.5178 139.304 45.327C137.454 45.8327 135.792 46.7929 134.502 48.1024C133.687 48.999 133.119 50.0607 132.846 51.1983C132.574 52.3359 132.605 53.5165 132.936 54.6411L146.013 53.048C147.168 54.0437 148.493 54.8611 149.937 55.4681C150.362 55.6446 150.831 55.7173 151.296 55.6791C151.527 55.6562 151.747 55.5735 151.928 55.4407C152.11 55.3079 152.245 55.1306 152.32 54.9297C152.355 54.467 152.239 54.0051 151.985 53.6031Z" fill="#263238"/>
    <path d="M150.346 50.933L138.982 48.6073C135.356 48.3408 133.065 52.4539 132.931 55.7677C132.778 59.4478 132.76 63.9438 133.315 66.6692C134.43 72.1588 139.091 72.7472 139.091 72.7472C139.091 72.7472 139.091 76.4995 139.195 78.4977C143.308 80.2795 147.537 80.0242 151.851 78.2701L152.302 52.8591C152.302 52.3727 152.101 51.9042 151.738 51.5471C151.376 51.1901 150.879 50.9708 150.346 50.933Z" fill="#B78876"/>
    <path d="M135.289 59.1813C135.293 59.3649 135.376 59.5397 135.519 59.6691C135.662 59.7984 135.855 59.8723 136.056 59.8751C136.155 59.8796 136.254 59.8661 136.347 59.8356C136.441 59.805 136.526 59.7579 136.599 59.697C136.672 59.6361 136.732 59.5626 136.773 59.4807C136.815 59.3989 136.839 59.3103 136.842 59.2201C136.838 59.0365 136.755 58.8617 136.612 58.7323C136.469 58.6029 136.276 58.5291 136.075 58.5263C135.976 58.521 135.876 58.534 135.783 58.5643C135.689 58.5945 135.603 58.6416 135.53 58.7027C135.457 58.7637 135.397 58.8375 135.356 58.9197C135.315 59.0019 135.292 59.0909 135.289 59.1813Z" fill="#263238"/>
    <path d="M134.064 58.0711C134.168 58.1599 134.741 57.7547 135.576 57.7325C136.41 57.7103 137.032 58.0822 137.123 57.9878C137.215 57.8935 137.062 57.7825 136.794 57.6104C136.429 57.3932 136 57.2832 135.564 57.2951C135.128 57.307 134.707 57.4403 134.357 57.677C134.101 57.8657 134.016 58.0433 134.064 58.0711Z" fill="#263238"/>
    <path d="M143.204 59.1813C143.207 59.3653 143.289 59.541 143.433 59.6706C143.576 59.8003 143.77 59.8737 143.972 59.8751C144.071 59.8803 144.17 59.8674 144.263 59.837C144.356 59.8067 144.442 59.7595 144.515 59.6984C144.587 59.6373 144.646 59.5634 144.687 59.4813C144.727 59.3991 144.75 59.3103 144.752 59.2201C144.749 59.036 144.667 58.8604 144.523 58.7308C144.38 58.6011 144.186 58.5277 143.984 58.5263C143.885 58.521 143.786 58.534 143.693 58.5643C143.6 58.5947 143.514 58.6418 143.441 58.703C143.369 58.7641 143.31 58.8379 143.269 58.9201C143.229 59.0023 143.206 59.0911 143.204 59.1813Z" fill="#263238"/>
    <path d="M142.296 58.0434C142.394 58.1322 142.973 57.7215 143.808 57.7048C144.642 57.6882 145.264 58.0545 145.349 57.9546C145.435 57.8547 145.294 57.7492 145.02 57.5827C144.66 57.3652 144.234 57.2547 143.802 57.2663C143.36 57.2687 142.932 57.4033 142.583 57.6493C142.296 57.8103 142.229 57.9824 142.296 58.0434Z" fill="#263238"/>
    <path d="M139.408 63.7328C138.964 63.6145 138.505 63.5492 138.043 63.5385C137.829 63.5385 137.628 63.4941 137.592 63.3609C137.571 63.169 137.613 62.9756 137.714 62.8059C137.902 62.3285 138.097 61.8289 138.323 61.3127C138.87 60.0511 139.306 58.7519 139.627 57.4272C138.966 58.6501 138.416 59.9198 137.982 61.2239L137.421 62.7226C137.291 62.9598 137.259 63.2315 137.33 63.4886C137.363 63.5565 137.412 63.6167 137.475 63.6648C137.537 63.7129 137.61 63.7475 137.689 63.7661C137.807 63.7923 137.928 63.8035 138.049 63.7994C138.503 63.8293 138.96 63.8069 139.408 63.7328Z" fill="#263238"/>
    <path d="M139.091 72.7416C141.94 72.7147 144.725 71.9672 147.135 70.5824C147.135 70.5824 145.203 74.4679 139.134 74.0738L139.091 72.7416Z" fill="#AA6550"/>
    <path d="M139.816 65.5537C139.967 65.3656 140.168 65.2159 140.401 65.1187C140.633 65.0216 140.889 64.9802 141.144 64.9987C141.329 65.0091 141.509 65.0533 141.675 65.1287C141.84 65.204 141.987 65.3089 142.107 65.4372C142.224 65.5606 142.295 65.714 142.312 65.8762C142.328 66.0384 142.289 66.2012 142.199 66.3419C142.069 66.4819 141.897 66.5836 141.704 66.634C141.51 66.6844 141.305 66.6813 141.114 66.625C140.717 66.5054 140.348 66.3169 140.029 66.0699C139.935 66.0089 139.853 65.9339 139.786 65.8479C139.754 65.8063 139.737 65.7569 139.737 65.7064C139.737 65.6558 139.754 65.6065 139.786 65.5648" fill="#AA6550"/>
    <path d="M141.882 64.1991C141.742 64.1991 141.766 65.0206 141.004 65.6256C140.243 66.2306 139.28 66.1807 139.28 66.275C139.28 66.3694 139.499 66.4305 139.889 66.4305C140.419 66.4251 140.93 66.2503 141.333 65.9365C141.719 65.6337 141.96 65.2053 142.004 64.7431C142.046 64.3934 141.943 64.1935 141.882 64.1991Z" fill="#263238"/>
    <path d="M142.071 55.7233C142.162 55.9287 142.991 55.8121 143.972 55.8954C144.953 55.9786 145.751 56.2062 145.879 56.0175C145.934 55.9287 145.794 55.7344 145.465 55.5401C145.033 55.3037 144.547 55.1612 144.045 55.1238C143.541 55.0815 143.034 55.1481 142.564 55.3181C142.211 55.4624 142.034 55.6289 142.071 55.7233Z" fill="#263238"/>
    <path d="M134.217 54.7408C134.369 54.9128 134.936 54.7408 135.63 54.6908C136.325 54.6409 136.91 54.7796 137.038 54.5964C137.093 54.5076 136.995 54.3356 136.733 54.1801C136.389 53.9845 135.986 53.8932 135.582 53.9193C135.174 53.9376 134.783 54.0693 134.46 54.2967C134.223 54.4799 134.15 54.6575 134.217 54.7408Z" fill="#263238"/>
    <path d="M154.099 52.0209C152.96 48.8459 147.86 44.4775 144.203 44.7329L138.39 47.9634C138.591 48.8668 139.055 49.7043 139.734 50.3879C140.413 51.0716 141.281 51.5762 142.247 51.8488C143.283 52.1319 144.526 52.1985 145.142 53.0034C145.757 53.8082 145.422 55.0349 146.013 55.8787C146.83 57.0554 149.06 56.9888 149.669 58.2599C149.937 58.815 149.803 59.481 150.084 60.0361C150.461 60.7688 152.521 61.7013 153.362 61.4404C154.203 61.1796 154.197 59.8751 154.471 59.1869C154.812 58.4057 154.848 57.5417 154.575 56.739C154.179 55.2015 154.642 53.5363 154.099 52.0209Z" fill="#263238"/>
    <path d="M153.344 60.1084C153.313 60.1084 153.435 59.8253 153.527 59.3091C153.642 58.5782 153.577 57.8332 153.338 57.1277C152.994 56.0816 152.259 55.1782 151.26 54.5744C150.643 54.2494 150.004 53.9602 149.347 53.7085C148.61 53.4342 147.944 53.0241 147.391 52.504C146.924 51.9267 146.543 51.2959 146.257 50.6278C145.859 49.8434 145.229 49.1753 144.438 48.6979C143.648 48.2206 142.727 47.9529 141.778 47.9247C140.968 47.906 140.164 48.056 139.426 48.3632C138.896 48.5741 138.64 48.7573 138.622 48.7351C138.604 48.7129 138.677 48.674 138.799 48.5907C138.978 48.4644 139.17 48.353 139.371 48.2577C140.113 47.8979 140.939 47.7074 141.778 47.7026C143.041 47.7074 144.259 48.1272 145.209 48.8849C145.767 49.3294 146.219 49.8735 146.537 50.4835C146.811 51.1291 147.18 51.7379 147.634 52.2931C148.149 52.7869 148.772 53.1766 149.462 53.4365C150.13 53.6948 150.778 53.9953 151.4 54.3357C152.268 54.878 152.942 55.6405 153.338 56.5286C153.735 57.4166 153.836 58.3912 153.63 59.3313C153.584 59.5346 153.516 59.7334 153.429 59.9252C153.393 60.0474 153.356 60.114 153.344 60.1084Z" fill="#455A64"/>
    <path d="M152.789 54.2079C152.759 54.2079 152.655 54.0136 152.338 53.7305C151.867 53.3504 151.327 53.048 150.742 52.8369C150.325 52.6717 149.918 52.4864 149.523 52.2818C149.079 52.0591 148.693 51.7526 148.39 51.3826C147.738 50.55 147.531 49.4399 146.665 48.6739C145.855 47.9539 144.809 47.4941 143.686 47.3639C142.76 47.2623 141.822 47.3303 140.925 47.5637C140.094 47.8013 139.28 48.0868 138.488 48.4185C138.67 48.2721 138.875 48.1523 139.097 48.0633C139.658 47.7719 140.253 47.5374 140.87 47.3639C141.792 47.0951 142.766 47.0062 143.728 47.103C144.924 47.2222 146.04 47.7053 146.897 48.4741C147.835 49.3178 148.042 50.4723 148.634 51.2494C149.233 51.8916 149.997 52.3892 150.858 52.6981C151.456 52.9312 151.996 53.2709 152.448 53.6972C152.567 53.8172 152.668 53.9517 152.747 54.0969C152.777 54.158 152.802 54.2024 152.789 54.2079Z" fill="#455A64"/>
    <path d="M150.827 62.1232C150.827 61.7124 151.309 60.7355 151.753 60.6633C152.936 60.4635 155.08 60.5024 155.178 63.2499C155.312 67.0022 151.144 66.3528 151.138 66.2473C151.132 66.1418 150.888 63.5441 150.827 62.1232Z" fill="#B78876"/>
    <path d="M152.369 64.782C152.369 64.782 152.442 64.8264 152.564 64.8764C152.736 64.9377 152.928 64.9377 153.1 64.8764C153.362 64.7153 153.572 64.4936 153.708 64.234C153.844 63.9744 153.901 63.6865 153.874 63.3999C153.875 63.0765 153.793 62.7574 153.636 62.4674C153.595 62.3509 153.523 62.2454 153.426 62.1603C153.329 62.0751 153.211 62.0128 153.082 61.9789C152.998 61.9631 152.911 61.9737 152.834 62.009C152.758 62.0443 152.697 62.1022 152.661 62.1732C152.613 62.2786 152.661 62.3508 152.619 62.3619C152.576 62.373 152.527 62.3008 152.558 62.1454C152.575 62.0499 152.629 61.9631 152.71 61.9012C152.821 61.8223 152.96 61.7846 153.1 61.7957C153.271 61.82 153.431 61.8838 153.567 61.981C153.702 62.0782 153.808 62.2056 153.874 62.3508C154.063 62.6698 154.161 63.0265 154.161 63.3888C154.161 64.1492 153.764 64.8708 153.173 65.054C153.063 65.0868 152.947 65.0968 152.832 65.0834C152.717 65.0699 152.607 65.0333 152.509 64.9763C152.381 64.8764 152.357 64.7931 152.369 64.782Z" fill="#AA6550"/>
    <path d="M154.173 65.7088C154.234 65.6311 154.374 65.5923 154.575 65.67C154.708 65.7356 154.824 65.8258 154.916 65.9348C155.009 66.0437 155.075 66.1691 155.111 66.3028C155.179 66.5236 155.184 66.7564 155.127 66.9796C155.069 67.2028 154.951 67.4091 154.782 67.5794C154.573 67.7866 154.31 67.9421 154.016 68.0314C153.723 68.1207 153.41 68.1409 153.106 68.0901C152.805 68.0338 152.524 67.9091 152.29 67.7277C152.056 67.5462 151.875 67.3139 151.766 67.0521C151.678 66.8541 151.637 66.6413 151.647 66.4278C151.656 66.2144 151.716 66.0053 151.821 65.8143C151.89 65.6825 151.993 65.5673 152.119 65.4777C152.246 65.3881 152.394 65.3266 152.552 65.2981C152.79 65.2981 152.905 65.3758 152.917 65.4702C152.915 65.5752 152.899 65.6796 152.869 65.781C152.851 65.897 152.851 66.0147 152.869 66.1307C152.91 66.2599 152.978 66.3806 153.07 66.4859C153.146 66.579 153.256 66.644 153.381 66.6691C153.502 66.6848 153.626 66.6714 153.74 66.6303C153.795 66.6101 153.845 66.5793 153.886 66.5401C153.927 66.5008 153.958 66.4539 153.978 66.4027C154.13 66.1529 154.057 65.8754 154.173 65.7088Z" fill="#E0E0E0"/>
    <path d="M133.801 78.0872L139.158 77.238L151.875 76.8217L157.633 77.0825C157.633 77.0825 146.561 84.0764 133.801 78.0872Z" fill="#465B9B"/>
    <path d="M168.852 58.5264C168.852 58.5264 168.852 58.4043 168.815 58.1711C168.779 57.938 168.779 57.5772 168.742 57.1276C168.742 56.9 168.742 56.6447 168.693 56.3616C168.645 56.0785 168.596 55.7733 168.541 55.4458C168.486 55.1183 168.419 54.7575 168.352 54.3745C168.273 53.9718 168.169 53.5734 168.041 53.1811C167.479 51.1288 166.579 49.1657 165.372 47.3584C163.797 44.9543 161.728 42.8492 159.279 41.1583L158.243 40.4534C157.877 40.2369 157.493 40.0371 157.116 39.8206C156.738 39.6041 156.36 39.3765 155.946 39.2045L154.696 38.6494L154.087 38.3718L153.417 38.1554L152.046 37.7224C151.589 37.5837 151.107 37.4948 150.632 37.3783C150.156 37.2497 149.672 37.1496 149.182 37.0785C148.176 36.9069 147.158 36.8012 146.135 36.7622C145.617 36.7622 145.099 36.6955 144.575 36.7066L142.985 36.7788C142.723 36.7788 142.454 36.7788 142.186 36.8288L141.388 36.9398C140.852 37.0175 140.31 37.0785 139.773 37.1785C137.577 37.6319 135.454 38.3388 133.454 39.2822C132.949 39.5319 132.467 39.8372 131.967 40.0926C131.724 40.2369 131.462 40.359 131.224 40.52L130.523 41.0029C129.565 41.6454 128.656 42.3484 127.806 43.1066C126.962 43.8997 126.179 44.7435 125.46 45.6321L124.905 46.3038L124.424 47.0198L123.942 47.7414C123.776 47.9802 123.628 48.2286 123.497 48.4852C123.229 48.9959 122.955 49.5121 122.687 50.0283C122.419 50.5445 122.254 51.0996 122.035 51.6435C120.386 56.1073 120.386 60.94 122.035 65.4037C122.248 65.9588 122.468 66.5138 122.681 67.0189C122.894 67.5241 123.223 68.0514 123.497 68.562L123.699 68.9395L123.942 69.3058L124.424 70.0274L124.905 70.7435L125.453 71.4151C126.173 72.307 126.959 73.1527 127.806 73.9462C128.659 74.6999 129.565 75.4026 130.517 76.0499L131.224 76.5328C131.464 76.6851 131.712 76.8259 131.967 76.9547C132.467 77.2267 132.949 77.5097 133.454 77.7706C134.466 78.2475 135.51 78.6646 136.58 79.0195C137.623 79.367 138.69 79.6525 139.773 79.8743C140.31 79.9742 140.852 80.0297 141.388 80.113L142.186 80.224C142.454 80.2573 142.723 80.224 142.985 80.2684L144.575 80.3461C145.099 80.3461 145.617 80.3073 146.135 80.2906C147.157 80.2488 148.175 80.1431 149.182 79.9742C149.671 79.8979 150.155 79.7979 150.632 79.6745C151.107 79.5579 151.589 79.4691 152.046 79.3304L153.398 78.8808L154.063 78.6587L154.672 78.3867L155.891 77.8317C156.305 77.6596 156.671 77.4154 157.061 77.2155C157.451 77.0157 157.822 76.8048 158.188 76.5883L159.224 75.8834C161.674 74.1927 163.743 72.0876 165.317 69.6833C166.522 67.8751 167.422 65.9123 167.986 63.8606C168.114 63.4664 168.218 63.0662 168.297 62.6617C168.364 62.2842 168.431 61.929 168.486 61.5959C168.541 61.2629 168.608 60.9576 168.638 60.6801C168.669 60.4025 168.675 60.125 168.687 59.9141C168.724 59.4589 168.748 59.1148 168.76 58.8705C168.772 58.6263 168.797 58.5153 168.797 58.5153C168.797 58.5153 168.797 58.6374 168.797 58.8705C168.797 59.1037 168.797 59.4645 168.754 59.9141C168.754 60.1472 168.754 60.4025 168.718 60.6856C168.681 60.9687 168.632 61.274 168.577 61.607C168.523 61.9401 168.468 62.3009 168.407 62.6839C168.332 63.0906 168.23 63.4928 168.102 63.8884C167.564 65.9599 166.676 67.9429 165.47 69.7665C163.9 72.1961 161.831 74.3276 159.376 76.0444L158.328 76.7604C157.963 76.9824 157.579 77.1822 157.195 77.3987C156.811 77.6152 156.433 77.8483 156.013 78.026L154.757 78.581L154.148 78.8586L153.472 79.0806L152.113 79.5357C151.65 79.6801 151.168 79.7689 150.687 79.891C150.204 80.0182 149.714 80.1201 149.218 80.1963C148.212 80.3695 147.194 80.4807 146.171 80.5293C145.647 80.5293 145.117 80.5904 144.587 80.5848L142.985 80.5127C142.716 80.5127 142.442 80.5127 142.174 80.4683L141.364 80.3572C140.827 80.274 140.279 80.2185 139.737 80.1186C137.511 79.6724 135.357 78.9692 133.326 78.026C132.814 77.7706 132.327 77.4709 131.815 77.2045C131.565 77.0601 131.303 76.938 131.066 76.7715L130.353 76.2886C129.383 75.6352 128.463 74.9231 127.598 74.1571C126.742 73.3542 125.946 72.4993 125.216 71.5983L124.661 70.9211L124.168 70.1939L123.68 69.4612L123.436 69.0949L123.229 68.7064L122.407 67.1522C122.187 66.5971 121.968 66.042 121.742 65.5147C120.073 60.9895 120.073 56.0911 121.742 51.5658L122.401 49.9006L123.223 48.3464C123.353 48.0838 123.505 47.8313 123.68 47.5915L124.168 46.8588L124.655 46.1317L125.216 45.4545C126.63 43.645 128.363 42.0618 130.347 40.7697L131.06 40.2813C131.297 40.1203 131.565 39.9982 131.809 39.8539C132.321 39.5764 132.808 39.2988 133.32 39.0324C134.342 38.5439 135.401 38.1228 136.489 37.7724C137.548 37.4327 138.631 37.1582 139.731 36.9509C140.273 36.851 140.821 36.7899 141.358 36.7122L142.168 36.6012C142.436 36.5679 142.71 36.5679 142.978 36.5512L144.581 36.4846C145.111 36.4846 145.641 36.5235 146.159 36.5401C147.182 36.5886 148.2 36.6999 149.206 36.8732C149.703 36.944 150.193 37.046 150.675 37.1785C151.15 37.295 151.637 37.3894 152.101 37.5281L153.459 37.9833L154.13 38.2109L154.769 38.4884L156.025 39.0435C156.445 39.2156 156.817 39.4653 157.207 39.6652C157.597 39.865 157.975 40.087 158.34 40.309L159.382 41.0195C161.851 42.7332 163.931 44.8672 165.506 47.3029C166.71 49.1277 167.597 51.1103 168.139 53.1811C168.268 53.5763 168.37 53.9786 168.443 54.3856C168.504 54.7686 168.565 55.1238 168.614 55.4624C168.663 55.801 168.73 56.1007 168.754 56.3838C168.779 56.6669 168.754 56.9389 168.791 57.1498C168.791 57.605 168.821 57.9491 168.833 58.1989C168.846 58.4487 168.852 58.5264 168.852 58.5264Z" fill="#263238"/>
    <path d="M244.528 198.343C242.975 196.98 241.071 195.996 238.99 195.481C236.91 194.965 234.72 194.935 232.624 195.394C230.527 195.852 228.591 196.784 226.995 198.104C225.398 199.424 224.191 201.088 223.487 202.944L225.01 208.312C225.589 206.486 226.838 204.715 228.746 203.966C230.653 203.216 233.048 203.627 235.089 204.304C237.13 204.981 239.135 205.881 241.298 206.003C243.461 206.125 245.917 205.187 246.563 203.299C247.172 201.529 245.996 199.636 244.528 198.343Z" fill="#465B9B"/>
    <g opacity="0.3">
        <path d="M244.528 198.343C242.975 196.98 241.071 195.996 238.99 195.481C236.91 194.965 234.72 194.935 232.624 195.394C230.527 195.852 228.591 196.784 226.995 198.104C225.398 199.424 224.191 201.088 223.487 202.944L225.01 208.312C225.589 206.486 226.838 204.715 228.746 203.966C230.653 203.216 233.048 203.627 235.089 204.304C237.13 204.981 239.135 205.881 241.298 206.003C243.461 206.125 245.917 205.187 246.563 203.299C247.172 201.529 245.996 199.636 244.528 198.343Z" fill="black"/>
    </g>
    <path d="M207.839 216.238C204.658 213.463 204.792 208.695 206.4 204.97C208.009 201.246 211.452 198.382 215.315 196.5C219.09 194.694 223.265 193.69 227.527 193.564C231.788 193.438 236.026 194.193 239.921 195.773C238.014 195.848 236.157 196.348 234.511 197.228C232.866 198.109 231.482 199.343 230.482 200.824C228.739 203.46 228.349 206.658 226.911 209.444C225.287 212.582 222.406 215.034 218.859 216.297C215.312 217.561 211.369 217.54 207.839 216.238Z" fill="#465B9B"/>
    <path d="M206.309 199.708C202.787 195.922 202.318 189.844 202.836 184.91C203.354 179.975 204.609 174.996 203.756 170.101C203.25 167.198 202.013 164.422 201.599 161.508C201.185 158.594 201.769 155.297 204.25 153.415C207.101 151.256 211.562 151.75 214.548 153.798C217.533 155.846 219.234 159.016 220.489 162.196C223.243 169.179 224.255 176.922 221.994 184.055C219.733 191.188 214.414 197.554 206.614 199.708" fill="#465B9B"/>
    <path d="M204.615 230.77C204.606 230.624 204.606 230.477 204.615 230.331C204.615 230.048 204.615 229.626 204.645 229.082C204.688 227.972 204.804 226.424 205.072 224.498C205.383 222.237 205.835 219.995 206.425 217.781C207.152 215.063 208.283 212.449 209.788 210.01C211.289 207.571 213.132 205.32 215.273 203.316C217.015 201.678 218.945 200.215 221.031 198.953C221.908 198.398 222.761 197.976 223.468 197.588C224.175 197.199 224.876 196.933 225.412 196.7L226.68 196.211C226.825 196.149 226.976 196.099 227.131 196.061C226.993 196.136 226.85 196.202 226.704 196.261L225.485 196.789C224.961 197.038 224.315 197.344 223.572 197.716C222.829 198.087 222.012 198.548 221.135 199.109C216.554 201.96 212.754 205.732 210.026 210.132C206.79 215.289 205.907 220.712 205.261 224.514C204.968 226.435 204.822 228 204.743 229.082C204.712 229.604 204.682 230.021 204.664 230.326C204.665 230.475 204.648 230.624 204.615 230.77Z" fill="#263238"/>
    <path d="M174.251 184.777C167.737 188.357 167.756 191.615 168.847 194.69C169.937 197.765 173.935 199.902 177.243 198.748C179.12 198.098 180.479 196.616 181.637 195.123C182.795 193.63 183.885 192.037 185.506 190.966C187.127 189.895 189.491 189.489 191.118 190.55" fill="#465B9B"/>
    <path d="M193.184 191.554L186.944 189.417L189.43 189.684C190.102 189.747 190.744 189.967 191.295 190.322L193.184 191.554Z" fill="black"/>
    <g opacity="0.3">
        <path d="M174.251 184.777C167.737 188.357 167.756 191.615 168.847 194.69C169.937 197.765 173.935 199.902 177.243 198.748C179.12 198.098 180.479 196.616 181.637 195.123C182.795 193.63 183.885 192.037 185.506 190.966C186.625 190.212 188.007 189.855 189.394 189.961L174.251 184.777Z" fill="black"/>
    </g>
    <path d="M169.376 188.701C171.076 186.559 175.287 185.926 177.943 187.008C180.6 188.091 182.544 190.194 184.287 192.315C186.03 194.435 187.724 196.667 190.137 198.143C192.55 199.62 195.919 200.141 198.357 198.665C199.123 198.143 199.765 197.485 200.242 196.73C200.72 195.975 201.024 195.14 201.136 194.274C201.348 192.543 201.22 190.791 200.758 189.101C200.179 186.614 199.24 184.017 197.059 182.44C194.622 180.681 191.24 180.592 188.132 180.686C184.561 180.792 180.942 181.036 177.59 182.163C174.239 183.289 170.826 185.721 169.406 188.707" fill="#465B9B"/>
    <path d="M199.204 226.019C199.196 225.974 199.196 225.929 199.204 225.885C199.204 225.785 199.204 225.658 199.204 225.502C199.204 225.147 199.173 224.653 199.149 224.031C199.112 222.733 199.052 220.884 198.978 218.614C198.905 216.344 198.796 213.618 198.619 210.588C198.442 207.557 198.186 204.254 197.68 200.796C197.471 199.107 197.11 197.436 196.602 195.801C196.085 194.3 195.418 192.845 194.609 191.454C193.883 190.191 193.041 188.986 192.093 187.852C191.255 186.864 190.334 185.936 189.338 185.077C187.885 183.856 186.242 182.837 184.464 182.052C184.147 181.918 183.854 181.791 183.617 181.696L183.007 181.474L182.617 181.33C182.571 181.316 182.528 181.296 182.489 181.269C182.537 181.276 182.584 181.287 182.629 181.302L183.025 181.419L183.678 181.624C183.933 181.707 184.214 181.83 184.537 181.957C186.349 182.714 188.024 183.72 189.503 184.938C190.517 185.793 191.455 186.721 192.306 187.713C193.274 188.85 194.132 190.061 194.871 191.332C195.697 192.735 196.376 194.205 196.9 195.723C197.415 197.358 197.781 199.029 197.997 200.719C198.503 204.188 198.741 207.507 198.911 210.532C199.082 213.557 199.155 216.277 199.21 218.564C199.265 220.851 199.283 222.705 199.289 223.987V225.458C199.289 225.613 199.289 225.741 199.289 225.841C199.271 225.904 199.243 225.964 199.204 226.019Z" fill="#263238"/>
    <path d="M201.55 228.699C201.24 227.868 201.002 227.016 200.837 226.152C200.383 223.788 200.283 221.379 200.539 218.991C200.935 215.456 201.767 211.972 203.019 208.606C204.353 204.787 206.169 200.707 207.723 196.317C208.486 194.186 209.109 192.015 209.588 189.817C210.031 187.766 210.35 185.694 210.544 183.611C210.843 180.082 210.912 176.54 210.751 173.004C210.642 169.984 210.465 167.542 210.355 165.849L210.227 163.906C210.227 163.695 210.227 163.529 210.227 163.401C210.219 163.344 210.219 163.286 210.227 163.229C210.243 163.284 210.253 163.339 210.258 163.396C210.258 163.523 210.288 163.69 210.313 163.901C210.355 164.361 210.416 165.011 210.489 165.843C210.636 167.509 210.843 169.973 210.983 172.998C211.172 176.543 211.124 180.094 210.837 183.633C210.66 185.725 210.355 187.806 209.923 189.867C209.446 192.077 208.821 194.259 208.052 196.4C206.498 200.802 204.676 204.876 203.329 208.678C202.053 212.026 201.185 215.492 200.74 219.013C200.472 221.385 200.541 223.779 200.947 226.135C201.105 226.968 201.252 227.611 201.38 228.039C201.434 228.244 201.477 228.411 201.514 228.533L201.55 228.699Z" fill="#263238"/>
    <path d="M217.698 231.381H187.114L186.414 226.019H217.698V231.381Z" fill="#455A64"/>
    <path d="M190.393 230.77L194.22 246.856H210.837L214.414 230.77H190.393Z" fill="#455A64"/>
    <path d="M217.698 231.38C217.698 231.453 210.995 231.497 202.678 231.475C194.36 231.453 187.663 231.375 187.663 231.303C187.663 231.231 194.366 231.186 202.678 231.208C210.989 231.231 217.698 231.308 217.698 231.38Z" fill="#455A64"/>
    <path d="M212.445 239.318C211.614 238.751 210.709 238.279 209.752 237.914C208.708 237.54 207.601 237.337 206.48 237.314C205.104 237.317 203.74 237.545 202.452 237.986C201.056 238.419 199.752 238.918 198.485 239.19C197.359 239.412 196.199 239.444 195.06 239.285C194.294 239.184 193.551 238.97 192.861 238.652C192.676 238.559 192.499 238.456 192.331 238.341C192.215 238.263 192.16 238.219 192.166 238.213C192.172 238.208 192.422 238.352 192.909 238.557C193.603 238.839 194.338 239.026 195.091 239.112C196.205 239.24 197.335 239.189 198.43 238.963C199.649 238.685 200.953 238.18 202.36 237.747C203.678 237.294 205.077 237.068 206.486 237.081C207.637 237.113 208.772 237.34 209.831 237.753C210.545 238.02 211.215 238.375 211.824 238.807C211.991 238.924 212.149 239.05 212.299 239.185C212.403 239.262 212.451 239.312 212.445 239.318Z" fill="#263238"/>
    <path d="M212.214 240.395C211.413 239.845 210.546 239.379 209.63 239.007C208.625 238.633 207.553 238.432 206.467 238.413C205.138 238.417 203.82 238.633 202.574 239.052C201.227 239.462 199.959 239.94 198.753 240.234C197.685 240.514 196.572 240.629 195.462 240.573C194.712 240.531 193.978 240.352 193.305 240.045C193.125 239.957 192.952 239.857 192.787 239.746C192.678 239.673 192.623 239.629 192.629 239.623C192.635 239.618 192.885 239.757 193.354 239.951C194.025 240.215 194.744 240.362 195.475 240.384C196.559 240.415 197.641 240.285 198.68 240.001C199.862 239.696 201.117 239.213 202.482 238.802C203.76 238.374 205.112 238.16 206.473 238.169C208.346 238.22 210.15 238.822 211.616 239.884C211.776 239.999 211.929 240.121 212.073 240.251C212.171 240.339 212.22 240.389 212.214 240.395Z" fill="white"/>
    <path d="M212.75 238.252C211.892 237.664 210.964 237.167 209.983 236.77C208.919 236.35 207.783 236.1 206.626 236.032C205.206 236.006 203.794 236.232 202.47 236.698C201.131 237.179 199.761 237.587 198.369 237.919C197.198 238.106 196 238.106 194.829 237.919C194.039 237.806 193.273 237.586 192.556 237.264C192.363 237.175 192.18 237.071 192.007 236.953C191.885 236.87 191.824 236.826 191.83 236.82C191.837 236.814 192.105 236.964 192.604 237.17C193.325 237.446 194.083 237.633 194.859 237.725C196.007 237.877 197.174 237.857 198.314 237.664C199.691 237.317 201.048 236.905 202.378 236.431C203.737 235.953 205.188 235.728 206.644 235.771C208.638 235.917 210.543 236.586 212.128 237.697C212.299 237.817 212.462 237.947 212.616 238.086C212.701 238.197 212.756 238.247 212.75 238.252Z" fill="white"/>
    <path d="M217.966 231.403C217.966 231.475 211.086 231.536 202.604 231.536C194.122 231.536 187.236 231.475 187.236 231.403C187.236 231.33 194.116 231.269 202.604 231.269C211.093 231.269 217.966 231.33 217.966 231.403Z" fill="#263238"/>
    <path d="M259 246.856C259 246.933 201.014 247 129.506 247C57.9984 247 0 246.933 0 246.856C0 246.778 57.974 246.711 129.506 246.711C201.038 246.711 259 246.767 259 246.856Z" fill="#263238"/>
    <path d="M66.1637 240.039L64.3296 215.439L78.9419 216.688L77.7232 240.539L70.5389 240.905L66.1637 240.039Z" fill="#B78876"/>
    <path d="M65.7432 238.818V239.551C65.7432 239.551 52.4349 244.546 52.3374 246.872L78.8748 246.506L78.3629 238.441C74.4448 240.172 70.3195 240.417 65.7432 238.818Z" fill="#465B9B"/>
    <g opacity="0.6">
        <path d="M75.7186 241.061C75.9735 241.128 76.1925 241.278 76.334 241.483C76.4755 241.687 76.5297 241.932 76.4864 242.171C76.4225 242.409 76.2599 242.615 76.0328 242.747C75.8056 242.878 75.5314 242.924 75.2677 242.876C74.9959 242.803 74.763 242.642 74.6135 242.423C74.464 242.204 74.4083 241.942 74.4572 241.688C74.5527 241.448 74.7461 241.252 74.9971 241.139C75.248 241.026 75.5371 241.006 75.8039 241.083" fill="white"/>
    </g>
    <g opacity="0.6">
        <path d="M78.8573 246.489L78.7354 244.558L53.3315 245.612C53.3315 245.612 52.1554 246.101 52.3017 246.856L78.8573 246.489Z" fill="white"/>
    </g>
    <path d="M65.6581 239.601C65.6581 239.723 66.3101 239.767 66.956 240.156C67.6019 240.545 67.9493 241.016 68.065 240.966C68.1808 240.916 67.9797 240.239 67.1937 239.801C66.4076 239.362 65.6276 239.495 65.6581 239.601Z" fill="#263238"/>
    <path d="M62.8913 240.689C62.8608 240.805 63.4275 241 63.8785 241.494C64.3294 241.988 64.4574 242.509 64.5914 242.504C64.7255 242.498 64.7925 241.827 64.2197 241.222C63.6469 240.617 62.8913 240.578 62.8913 240.689Z" fill="#263238"/>
    <path d="M61.362 243.747C61.4778 243.747 61.6484 243.192 61.3071 242.537C60.9659 241.882 60.3505 241.644 60.3017 241.743C60.253 241.843 60.6247 242.182 60.9111 242.715C61.1975 243.248 61.2523 243.736 61.362 243.747Z" fill="#263238"/>
    <path d="M96.1436 223.559L79.7397 203.943L92.6946 197.654L106.1 218.175L100.324 222.083L96.1436 223.559Z" fill="#B78876"/>
    <path d="M95.0592 222.749L95.498 223.343C95.498 223.343 87.4179 234.205 88.7159 236.22L110.653 222.605L105.382 216.144C104.281 217.854 102.79 219.329 101.009 220.468C99.2278 221.608 97.1988 222.386 95.0592 222.749Z" fill="#465B9B"/>
    <g opacity="0.6">
        <path d="M104.742 219.618C104.998 219.548 105.273 219.565 105.516 219.668C105.759 219.77 105.952 219.95 106.058 220.173C106.144 220.406 106.129 220.659 106.015 220.881C105.902 221.103 105.699 221.277 105.449 221.367C105.179 221.444 104.888 221.427 104.631 221.319C104.374 221.212 104.17 221.021 104.06 220.784C103.992 220.536 104.033 220.274 104.174 220.053C104.315 219.833 104.545 219.671 104.815 219.602" fill="white"/>
    </g>
    <g opacity="0.6">
        <path d="M110.64 222.577L109.373 221.023L88.8252 234.639C88.8252 234.639 88.1366 235.632 88.7155 236.193L110.64 222.577Z" fill="white"/>
    </g>
    <path d="M95.4613 223.454C95.5405 223.548 96.1072 223.26 96.8689 223.249C97.6306 223.238 98.2156 223.471 98.2887 223.371C98.3619 223.271 97.7769 222.816 96.8507 222.816C95.9244 222.816 95.376 223.371 95.4613 223.454Z" fill="#263238"/>
    <path d="M93.8103 225.741C93.859 225.852 94.4197 225.741 95.1143 225.918C95.809 226.096 96.2233 226.473 96.333 226.407C96.4427 226.34 96.0954 225.741 95.2545 225.524C94.4136 225.308 93.7433 225.674 93.8103 225.741Z" fill="#263238"/>
    <path d="M94.3832 229.06C94.4929 229.021 94.2796 228.444 93.6032 228.078C92.9268 227.711 92.2687 227.811 92.2809 227.922C92.2931 228.033 92.8233 228.128 93.3717 228.433C93.9201 228.738 94.2674 229.116 94.3832 229.06Z" fill="#263238"/>
    <path d="M70.7948 139.139C70.7948 139.139 58.1202 180.303 58.9733 183.261C59.8264 186.22 82.3421 216.61 82.9819 216.799C83.6217 216.987 101.421 207.318 101.421 207.318L82.9819 179.631C82.9819 179.631 93.2495 159.61 96.2415 150.768C99.2334 141.926 99.8123 141.47 97.9537 133.416C96.8264 128.532 91.7993 121.993 91.7993 121.993L90.9888 119.734H70.2159L70.7948 139.139Z" fill="#263238"/>
    <path d="M57.1152 119.728L55.6101 125.207C53.0447 126.872 49.1996 134.726 48.9864 137.868C48.7731 141.01 47.9444 153.92 47.92 162.846C47.8834 173.192 60.5093 234.639 60.5093 234.639H83.1894L75.213 137.107L73.2143 119.728H57.1152Z" fill="#263238"/>
    <path d="M70.0695 132.073C70.0654 132.152 70.0531 132.23 70.033 132.306C69.9964 132.473 69.9537 132.7 69.8928 132.989C69.7587 133.599 69.5638 134.476 69.32 135.598C68.7899 137.862 67.9977 141.148 66.9557 145.15C65.9137 149.152 64.6463 153.959 63.3971 159.305C62.7877 161.975 62.1784 164.789 61.6665 167.725C61.1094 170.746 60.7857 173.799 60.6976 176.861C60.6428 179.998 60.9109 183.1 62.1114 185.865C63.2445 188.529 64.5634 191.125 66.06 193.636C68.8874 198.448 71.7452 202.633 74.2497 206.075C76.7541 209.516 78.9234 212.208 80.4773 214.018C81.2695 214.923 81.8788 215.622 82.3054 216.072L82.7989 216.599C82.859 216.656 82.9121 216.72 82.9574 216.788C82.0398 215.93 81.1714 215.029 80.3554 214.09C78.765 212.286 76.5652 209.599 74.0364 206.164C71.5076 202.728 68.6314 198.554 65.7797 193.736C64.2652 191.228 62.9339 188.632 61.7945 185.965C60.5758 183.189 60.2955 180.009 60.3564 176.861C60.4446 173.786 60.7724 170.72 61.3375 167.686C61.8311 164.744 62.4587 161.93 63.0863 159.255C64.3538 153.909 65.6517 149.13 66.712 145.112C67.7723 141.093 68.6071 137.835 69.1494 135.581C69.4236 134.471 69.6308 133.588 69.7588 132.978L69.9355 132.306C69.9705 132.224 70.0155 132.146 70.0695 132.073Z" fill="#455A64"/>
    <path d="M96.8627 134.36C96.6166 134.471 96.3568 134.555 96.0888 134.61C95.3706 134.792 94.6368 134.918 93.8952 134.987C91.4301 135.223 88.9399 134.876 86.6645 133.981C84.3892 133.085 82.4052 131.671 80.9037 129.875C80.443 129.339 80.0352 128.767 79.685 128.165C79.5436 127.952 79.433 127.722 79.356 127.483C79.4108 127.449 79.8922 128.426 81.0621 129.747C82.5804 131.476 84.5409 132.839 86.7719 133.717C89.0029 134.594 91.4363 134.96 93.8586 134.782C95.7354 134.643 96.8444 134.299 96.8627 134.36Z" fill="#455A64"/>
    <path d="M58.3273 125.812C58.3273 125.812 58.3273 125.978 58.2237 126.267C58.1019 126.671 57.9513 127.068 57.7728 127.455C56.5936 130.041 54.6485 132.278 52.1546 133.916C51.78 134.163 51.3892 134.389 50.9846 134.593C50.8437 134.682 50.687 134.747 50.5215 134.787C50.5215 134.748 51.1308 134.404 52.0205 133.755C54.3962 132.056 56.2965 129.868 57.5656 127.372C58.0531 126.417 58.2786 125.795 58.3273 125.812Z" fill="#455A64"/>
    <path d="M95.1079 47.1864C95.589 46.6748 95.9038 46.0512 96.0169 45.3855C96.13 44.7199 96.037 44.0387 95.7482 43.4186C95.4595 42.7985 94.9865 42.2642 94.3824 41.8756C93.7784 41.4871 93.0674 41.2598 92.3293 41.2194C92.5577 40.5927 92.607 39.9233 92.4725 39.2744C92.3381 38.6256 92.0243 38.0186 91.5608 37.5109C91.0974 37.0031 90.4995 36.6114 89.8236 36.3726C89.1478 36.1338 88.4163 36.0558 87.6982 36.146C87.6505 35.4839 87.4293 34.8419 87.0531 34.2737C86.6769 33.7055 86.1567 33.2277 85.5361 32.8803C84.9155 32.533 84.2125 32.3262 83.486 32.2772C82.7596 32.2283 82.0308 32.3387 81.3609 32.5992C80.9297 32.1245 80.384 31.7469 79.7663 31.4959C79.1487 31.2448 78.4757 31.1271 77.7999 31.1518C77.1241 31.1765 76.4636 31.343 75.87 31.6383C75.2764 31.9337 74.7657 32.3499 74.3777 32.8545C73.6219 32.9664 72.9022 33.2279 72.2693 33.6205C71.5718 33.5095 70.8537 33.6069 70.2219 33.898C69.4447 34.2883 68.7344 34.7802 68.1135 35.3578C67.0593 36.2571 65.9503 37.2173 65.5786 38.4884C65.1582 39.9039 65.7127 41.5247 64.9266 42.8069C64.5442 43.2662 64.2058 43.7546 63.9151 44.2667C63.519 45.2991 64.2868 46.4093 64.1954 47.5027C64.104 48.5962 63.0498 49.662 63.1777 50.8332C63.2677 51.245 63.4499 51.6355 63.7131 51.9803C63.9763 52.3251 64.3147 52.6167 64.7072 52.837C65.493 53.2747 66.2262 53.7863 66.8948 54.3634C67.3823 54.8685 67.6931 55.4735 68.1745 56.0008C68.8799 56.7052 69.8533 57.1385 70.8968 57.2127C71.9403 57.287 72.9758 56.9966 73.7927 56.4005C74.3516 56.7869 75.0038 57.046 75.6949 57.156C76.386 57.2661 77.0961 57.224 77.7657 57.0333C79.1019 56.6444 80.3595 56.0595 81.4889 55.3015C81.7414 55.6125 82.0753 55.861 82.4603 56.0245C82.8452 56.188 83.2689 56.2612 83.6928 56.2375C84.1167 56.2137 84.5273 56.0939 84.8874 55.8887C85.2474 55.6835 85.5455 55.3996 85.7543 55.0628C85.9471 55.4695 86.2827 55.8063 86.7085 56.0203C87.1342 56.2343 87.626 56.3133 88.1064 56.2451C89.0655 56.0921 89.9738 55.7429 90.7632 55.2237C92.311 54.3523 94.0476 53.2089 94.0842 51.5492C94.0842 50.5334 93.4749 49.4843 93.8953 48.5463C94.2179 48.0374 94.6272 47.5783 95.1079 47.1864Z" fill="#263238"/>
    <path d="M60.564 40.5699C61.496 39.3856 62.6889 38.3913 64.0665 37.6506C65.4441 36.9099 66.9761 36.4391 68.5648 36.2681C72.9826 35.5854 77.894 36.2681 81.4831 38.7104C84.7736 40.9307 86.6017 44.6441 87.1135 48.3631C87.2903 49.673 86.8576 50.933 86.4554 52.1986C85.8335 53.6679 84.6818 54.901 83.1893 55.6955C81.9036 56.3117 81.3612 55.9176 80.2827 55.0461C79.6639 54.4641 79.1827 53.7727 78.869 53.0145C77.309 49.9117 75.5236 46.8366 72.8973 44.3999C70.271 41.9631 66.6819 40.2202 62.9344 40.3257" fill="#465B9B"/>
    <path d="M80.0507 46.7089C79.5998 45.5988 79.7948 44.361 79.6303 43.1787C79.2586 40.5865 77.0405 38.394 74.3593 37.4393C71.6224 36.5682 68.6394 36.5839 65.9137 37.4837C63.8532 38.0456 62.0022 39.1134 60.5636 40.5699C59.6552 41.5696 59.0225 42.7528 58.7183 44.0206C58.414 45.2884 58.4471 46.6041 58.8147 47.8579L73.3905 46.0984C74.6773 47.2077 76.1554 48.1172 77.7656 48.7904C78.2387 48.9925 78.7628 49.075 79.2829 49.0291C79.5414 49.0045 79.7865 48.9122 79.9887 48.7635C80.1909 48.6148 80.3415 48.4159 80.4224 48.191C80.462 47.6743 80.3327 47.1586 80.0507 46.7089Z" fill="#263238"/>
    <path d="M65.5545 41.1363L78.2169 43.7395C78.8092 43.7813 79.3627 44.024 79.7678 44.4198C80.1729 44.8155 80.4001 45.3354 80.4045 45.8766L79.8987 70.9157C79.873 72.6232 79.2306 74.2755 78.0707 75.6171L76.8519 77.027C76.2081 77.7731 75.3703 78.3612 74.4144 78.7384C73.4584 79.1155 72.4143 79.2697 71.3764 79.1871C70.3386 79.1045 69.3397 78.7876 68.4701 78.2651C67.6004 77.7426 66.8874 77.0309 66.3954 76.1944C66.2729 75.9854 66.1788 75.7636 66.1151 75.5339C66.064 75.3515 66.0274 75.166 66.0054 74.9788C65.8035 73.724 65.7463 72.4533 65.8348 71.1877C65.7434 68.9674 65.719 68.0404 65.719 68.0626C65.719 68.0848 60.5273 67.4021 59.2782 61.2853C58.6688 58.2435 58.6688 53.2312 58.8516 49.1293C58.9613 45.4269 61.5084 40.8365 65.5545 41.1363Z" fill="#B78876"/>
    <path d="M61.4404 52.9312C61.4436 53.1364 61.5345 53.3324 61.6938 53.4775C61.8531 53.6227 62.0683 53.7055 62.2935 53.7083C62.4041 53.7143 62.5148 53.6999 62.6191 53.666C62.7234 53.6321 62.8191 53.5793 62.9004 53.5109C62.9818 53.4425 63.0472 53.3598 63.0926 53.2679C63.138 53.1759 63.1626 53.0765 63.1649 52.9756C63.1617 52.771 63.0706 52.5756 62.9112 52.4313C62.7517 52.2871 62.5365 52.2055 62.3118 52.2041C62.2018 52.1981 62.0915 52.2123 61.9876 52.2459C61.8838 52.2795 61.7883 52.3317 61.7071 52.3996C61.6258 52.4674 61.5603 52.5494 61.5145 52.6407C61.4687 52.7321 61.4435 52.8309 61.4404 52.9312Z" fill="#263238"/>
    <path d="M60.0767 51.6991C60.1864 51.799 60.8323 51.3383 61.7585 51.3217C62.6848 51.305 63.3855 51.7102 63.483 51.5992C63.5805 51.4882 63.416 51.3716 63.1113 51.1829C62.7037 50.9374 62.2225 50.8133 61.7342 50.8277C61.2487 50.8364 60.7791 50.9862 60.3936 51.2551C60.1133 51.466 60.0341 51.6547 60.0767 51.6991Z" fill="#263238"/>
    <path d="M70.2583 52.9312C70.263 53.1369 70.3552 53.3329 70.5155 53.4779C70.6758 53.6229 70.8916 53.7055 71.1175 53.7083C71.2278 53.7135 71.3382 53.6986 71.4421 53.6644C71.546 53.6302 71.6414 53.5774 71.7226 53.5091C71.8038 53.4409 71.8692 53.3585 71.9149 53.2669C71.9606 53.1753 71.9858 53.0762 71.9889 52.9756C71.9857 52.77 71.8937 52.5738 71.7329 52.4294C71.5722 52.285 71.3555 52.2041 71.1297 52.2041C71.0196 52.1981 70.9094 52.2123 70.8055 52.2459C70.7016 52.2795 70.6062 52.3317 70.5249 52.3996C70.4436 52.4674 70.3782 52.5494 70.3324 52.6407C70.2866 52.7321 70.2614 52.8309 70.2583 52.9312Z" fill="#263238"/>
    <path d="M69.2285 51.6381C69.3382 51.738 69.978 51.2828 70.9104 51.2606C71.8427 51.2384 72.5373 51.6492 72.6348 51.5437C72.7323 51.4382 72.5678 51.3161 72.2631 51.1219C71.8526 50.8782 71.3695 50.7561 70.8799 50.7722C70.3966 50.7821 69.9292 50.9318 69.5454 51.1996C69.2651 51.3827 69.1737 51.5937 69.2285 51.6381Z" fill="#263238"/>
    <path d="M66.0301 58.0047C65.5367 57.8742 65.0266 57.8033 64.5128 57.7938C64.2752 57.7938 64.0497 57.7383 64.001 57.5884C63.9797 57.366 64.0283 57.1427 64.1411 56.9446C64.3544 56.3895 64.5677 55.8344 64.7992 55.2794C65.7072 52.9092 66.3592 50.9665 66.2556 50.9332C66.152 50.8999 65.3294 52.7926 64.4275 55.1628C64.2082 55.7456 63.9949 56.3062 63.8182 56.828C63.6735 57.0909 63.6388 57.3928 63.7207 57.6773C63.7572 57.7526 63.8117 57.8196 63.8803 57.8733C63.9488 57.9271 64.0295 57.9663 64.1167 57.9881C64.2506 58.0161 64.3877 58.0291 64.525 58.0269C65.0258 58.0762 65.5314 58.0688 66.0301 58.0047Z" fill="#263238"/>
    <path d="M65.6763 68.0347C68.8555 68.0092 71.9647 67.1811 74.6582 65.6423C74.6582 65.6423 72.5132 69.9441 65.7433 69.5278L65.6763 68.0347Z" fill="#AA6550"/>
    <path d="M66.4807 60.0362C66.6519 59.8291 66.8784 59.6654 67.1386 59.5604C67.3988 59.4555 67.6842 59.4129 67.9675 59.4367C68.1735 59.4468 68.375 59.4954 68.5595 59.5795C68.744 59.6635 68.9075 59.7812 69.04 59.9252C69.1685 60.0638 69.2472 60.2349 69.2658 60.4155C69.2843 60.5961 69.2416 60.7775 69.1436 60.9354C68.9974 61.0917 68.8034 61.2048 68.5863 61.2602C68.3692 61.3156 68.1389 61.3107 67.9249 61.2462C67.477 61.1156 67.0625 60.9042 66.7062 60.6246C66.599 60.5593 66.506 60.4765 66.432 60.3803C66.3974 60.3336 66.3789 60.2785 66.3789 60.2221C66.3789 60.1658 66.3974 60.1107 66.432 60.0639" fill="#AA6550"/>
    <path d="M68.7839 58.5265C68.6316 58.5265 68.656 59.4423 67.8151 60.114C66.9742 60.7856 65.8895 60.7134 65.8834 60.8411C65.8773 60.9688 66.1271 61.0132 66.5842 61.0132C67.176 61.0094 67.7468 60.8125 68.1929 60.4581C68.6246 60.1223 68.8957 59.6464 68.9485 59.1315C68.9728 58.743 68.8571 58.5209 68.7839 58.5265Z" fill="#263238"/>
    <path d="M68.997 49.0792C69.0945 49.3068 70.0207 49.1792 71.1175 49.268C72.2144 49.3568 73.104 49.6121 73.2442 49.4067C73.3051 49.3068 73.1467 49.0904 72.7811 48.8517C72.2982 48.5907 71.7566 48.4332 71.1971 48.3908C70.6377 48.3485 70.0749 48.4226 69.5515 48.6074C69.1737 48.7851 68.9543 48.9738 68.997 49.0792Z" fill="#263238"/>
    <path d="M60.2412 47.9858C60.4118 48.1745 61.0455 47.9858 61.8194 47.9303C62.5933 47.8748 63.2453 48.0246 63.3854 47.8193C63.4525 47.7194 63.3428 47.5306 63.0503 47.353C62.6642 47.1397 62.215 47.0408 61.7646 47.0699C61.3112 47.089 60.8752 47.2343 60.5154 47.4862C60.2473 47.6916 60.168 47.8914 60.2412 47.9858Z" fill="#263238"/>
    <path d="M82.4033 44.9495C81.1358 41.4137 75.4505 36.5457 71.38 36.8288L64.9087 40.4312C65.1269 41.4373 65.638 42.3716 66.3883 43.1362C67.1387 43.9007 68.1009 44.4676 69.1742 44.7774C70.3259 45.0938 71.7152 45.1715 72.4038 46.0652C73.0923 46.9588 72.7145 48.3243 73.3726 49.2735C74.2867 50.5834 76.7484 50.5057 77.437 51.9211C77.7356 52.5428 77.5894 53.2866 77.9001 53.9027C78.3145 54.7187 80.6118 55.7511 81.5563 55.468C82.5008 55.1849 82.4947 53.7251 82.775 52.9536C83.1591 52.0848 83.2001 51.1214 82.8907 50.2282C82.4947 48.4964 83.0065 46.6424 82.4033 44.9495Z" fill="#263238"/>
    <path d="M84.9316 42.3074L84.4319 44.2612C84.4539 42.8673 84.0669 41.4934 83.3107 40.2814C81.6837 38.0611 78.1068 36.5347 75.2855 35.7964C72.4642 35.0582 68.9969 35.5078 66.267 36.5014C63.8102 37.3449 61.6978 38.8565 60.2162 40.8309C58.1444 43.3842 57.663 47.2309 58.9426 47.9136C59.9541 45.2659 61.5567 42.2297 64.0977 40.6422C65.3566 39.8272 66.7962 39.2731 68.3153 39.019C69.8343 38.7649 71.3961 38.8169 72.8907 39.1713C76.1812 40.0538 78.6857 42.5905 80.142 45.4158C80.8521 46.8638 81.4052 48.3714 81.7934 49.9174C82.267 51.7328 82.2523 53.6256 81.7507 55.4348L80.1055 60.6802L80.0689 62.3842C84.0724 61.0354 86.5464 57.2332 87.2106 53.3921C87.8748 49.551 87.3995 45.8321 84.9316 42.3074Z" fill="#465B9B"/>
    <path d="M81.5625 53.9693C81.532 53.9693 81.6722 53.6529 81.7758 53.0757C81.9086 52.2596 81.8378 51.4267 81.5686 50.6389C81.1857 49.4694 80.364 48.4596 79.247 47.7859C78.5611 47.4199 77.8485 47.0972 77.1142 46.82C76.2961 46.5151 75.5572 46.0576 74.9449 45.4768C74.423 44.8362 73.9987 44.1341 73.6836 43.3897C73.2355 42.514 72.5295 41.7686 71.6441 41.2365C70.7588 40.7044 69.7287 40.4064 68.6686 40.3757C67.7641 40.3578 66.8667 40.5247 66.0423 40.8642C65.4329 41.1084 65.1709 41.3082 65.1587 41.286C65.2151 41.2259 65.2808 41.1736 65.3537 41.1306C65.5548 40.9917 65.7689 40.8691 65.9935 40.7642C67.0289 40.2741 68.2028 40.0807 69.361 40.2095C70.5192 40.3383 71.6076 40.7832 72.4831 41.4858C73.1066 41.9801 73.6108 42.5868 73.9639 43.2676C74.2727 43.9862 74.6823 44.6653 75.1826 45.2881C75.7686 45.8372 76.4715 46.2716 77.2483 46.5647C77.9924 46.8507 78.7133 47.1846 79.4054 47.5638C80.3711 48.1657 81.1219 49.0123 81.5649 49.9989C82.0078 50.9855 82.1235 52.0687 81.8977 53.1145C81.8452 53.34 81.7718 53.5609 81.6783 53.7751C81.6494 53.8442 81.6105 53.9096 81.5625 53.9693Z" fill="#455A64"/>
    <path d="M80.9466 47.3918C80.9466 47.3918 80.8004 47.1698 80.453 46.8368C79.9246 46.4137 79.3208 46.0758 78.6676 45.8376C78.2655 45.6656 77.8085 45.4824 77.3453 45.2326C76.8318 44.9786 76.3865 44.6241 76.0413 44.1946C75.3162 43.2732 75.0846 42.0299 74.1219 41.1751C73.2144 40.3675 72.0415 39.8528 70.7826 39.7097C69.7605 39.6028 68.7252 39.6801 67.7358 39.9373C66.8162 40.2039 65.9165 40.5246 65.0425 40.8975C65.2434 40.7438 65.4645 40.6133 65.7006 40.509C66.327 40.1892 66.9888 39.9306 67.6749 39.7374C68.6997 39.4416 69.7809 39.3433 70.8496 39.4488C72.1809 39.5809 73.4242 40.1188 74.3778 40.9752C75.4198 41.9133 75.6453 43.1955 76.3094 44.0392C76.9736 44.8829 78.0156 45.277 78.7956 45.6545C79.462 45.9132 80.0649 46.2906 80.5688 46.7646C80.7024 46.8958 80.8152 47.0434 80.904 47.2031C80.9283 47.3252 80.9588 47.3863 80.9466 47.3918Z" fill="#455A64"/>
    <path d="M78.7891 56.2117C78.7891 55.7565 79.3253 54.663 79.8189 54.5798C81.1351 54.3633 83.5237 54.4022 83.6334 57.4661C83.7858 61.6514 79.1425 60.9242 79.1303 60.7966C79.1181 60.6689 78.8256 57.7936 78.7891 56.2117Z" fill="#B78876"/>
    <path d="M80.4778 59.1536C80.4778 59.1536 80.557 59.2036 80.6972 59.2591C80.8924 59.3319 81.1113 59.3319 81.3065 59.2591C81.6015 59.0781 81.8372 58.8277 81.9885 58.5345C82.1398 58.2413 82.201 57.9162 82.1657 57.5939C82.1655 57.2343 82.0759 56.8794 81.9037 56.5559C81.8591 56.4253 81.7803 56.3066 81.6742 56.2099C81.568 56.1132 81.4377 56.0414 81.2943 56.0008C81.2015 55.981 81.104 55.9919 81.0192 56.0316C80.9343 56.0712 80.8677 56.1371 80.8312 56.2173C80.7703 56.3339 80.8008 56.4171 80.7764 56.4227C80.752 56.4282 80.6789 56.356 80.7094 56.184C80.7327 56.0806 80.7927 55.987 80.88 55.9175C81.0032 55.8263 81.1606 55.7825 81.3187 55.7954C81.5091 55.8238 81.6881 55.8965 81.8386 56.0064C81.9892 56.1162 82.106 56.2596 82.1779 56.4227C82.3867 56.778 82.4975 57.1742 82.5009 57.5772C82.5009 58.4265 82.056 59.2424 81.3979 59.42C81.2757 59.4573 81.1458 59.4687 81.018 59.4533C80.8902 59.4379 80.768 59.3962 80.6606 59.3312C80.49 59.2813 80.4595 59.1869 80.4778 59.1536Z" fill="#AA6550"/>
    <path d="M84.3415 59.5034C84.3952 59.3543 84.4667 59.211 84.5547 59.076C84.701 58.7929 84.9143 58.3822 85.1336 57.8327C85.7482 56.2736 86.0495 54.6266 86.0233 52.9703C85.9985 51.8281 85.868 50.6899 85.6333 49.5677C85.3969 48.2777 85.0297 47.0104 84.5365 45.7821C83.9827 44.4285 83.206 43.1595 82.2331 42.0188C81.1804 40.8028 79.9116 39.7559 78.4795 38.9215C75.6891 37.2988 72.3583 36.6283 69.0771 37.0287C67.6558 37.197 66.2733 37.5718 64.9823 38.1388C63.8593 38.6374 62.8209 39.2805 61.8989 40.0483C60.5594 41.1662 59.4799 42.5177 58.7242 44.0226C58.4683 44.5776 58.2976 44.9884 58.1941 45.2826C58.1477 45.4338 58.0907 45.5821 58.0234 45.7266C58.0434 45.5702 58.0801 45.4159 58.1331 45.2659C58.2636 44.8278 58.4243 44.3977 58.6145 43.9782C59.8417 41.3466 62.0583 39.1996 64.8665 37.9224C66.1794 37.3317 67.5893 36.9399 69.0406 36.7623C72.3913 36.333 75.8 37.0103 78.6501 38.6717C81.4957 40.3248 83.6599 42.7901 84.8046 45.6822C85.3005 46.9283 85.6657 48.2144 85.8953 49.5233C86.1194 50.6593 86.2376 51.8106 86.2487 52.9647C86.2598 54.6414 85.9207 56.3047 85.2494 57.866C85.0706 58.2845 84.8672 58.694 84.64 59.0927C84.5524 59.2365 84.4526 59.3738 84.3415 59.5034Z" fill="#263238"/>
    <path d="M82.3904 60.2637C82.4513 60.186 82.5975 60.1527 82.8047 60.2637C82.943 60.3348 83.0636 60.4312 83.159 60.5467C83.2545 60.6623 83.3226 60.7946 83.3592 60.9354C83.4224 61.1414 83.4328 61.3579 83.3897 61.5681C83.3353 61.8308 83.2025 62.0747 83.0058 62.2731C82.788 62.4917 82.5121 62.6556 82.2047 62.7489C81.8972 62.8423 81.5686 62.8621 81.2503 62.8064C80.932 62.7506 80.6349 62.6212 80.3874 62.4306C80.1399 62.24 79.9504 61.9946 79.8372 61.718C79.744 61.5087 79.7001 61.284 79.7085 61.0583C79.7169 60.8326 79.7774 60.6111 79.8859 60.408C79.9573 60.2683 80.0632 60.1454 80.1953 60.0491C80.3274 59.9528 80.4822 59.8857 80.6476 59.853C80.8974 59.8197 81.0193 59.9251 81.0315 60.0195C81.0282 60.1276 81.0056 60.2344 80.9645 60.3359C80.9424 60.4646 80.9424 60.5957 80.9645 60.7244C81.0003 60.8767 81.0709 61.0205 81.1717 61.1463C81.2637 61.2608 81.3977 61.3416 81.5494 61.3739C81.7011 61.3974 81.857 61.376 81.9943 61.3128C82.0577 61.2841 82.1138 61.2436 82.1589 61.1938C82.2041 61.1441 82.2372 61.0863 82.2563 61.0242C82.3721 60.7189 82.2685 60.4247 82.3904 60.2637Z" fill="#455A64"/>
    <path d="M46.3292 86.4852C46.3292 86.4852 47.0909 80.9345 50.0463 78.1203C53.0017 75.3061 65.7615 71.7259 65.7615 71.7259C65.7615 71.7259 65.8468 75.8223 68.8083 76.7826C71.9404 77.7984 74.9872 77.26 77.2844 74.8343C78.6553 73.3159 79.5688 71.4986 79.9351 69.5612C79.9351 69.5612 95.3884 70.8656 97.7892 74.5568C100.19 78.248 103.298 92.491 103.298 92.491L89.5142 95.1554L91.391 119.728H54.7688L55.4878 96.6707L45.5127 97.964L46.3292 86.4852Z" fill="#455A64"/>
    <path d="M86.7785 95.9657C86.7375 95.7831 86.7212 95.5967 86.7298 95.4106C86.7298 95.0498 86.7298 94.5336 86.7298 93.9008C86.7298 92.6242 86.7298 90.8646 86.7968 88.9052C86.8638 86.9458 86.8943 85.2029 86.9552 83.9096C86.9857 83.2713 87.0101 82.755 87.0405 82.3998C87.035 82.2125 87.0597 82.0255 87.1136 81.8447C87.1576 82.0269 87.174 82.2136 87.1624 82.3998C87.1624 82.755 87.1624 83.2713 87.1624 83.9096C87.1624 85.1807 87.1624 86.9403 87.0954 88.9052C87.0283 90.8701 86.9918 92.6075 86.9308 93.9008C86.9308 94.5391 86.876 95.0554 86.8516 95.4106C86.8575 95.5979 86.8328 95.785 86.7785 95.9657Z" fill="#263238"/>
    <path d="M52.1125 85.8524C52.1978 85.8524 53.057 88.3225 54.0381 91.4031C55.0192 94.4837 55.7382 97.0315 55.6529 97.0481C54.9112 95.2284 54.2706 93.3759 53.7334 91.4975C52.7219 88.4002 52.0089 85.8746 52.1125 85.8524Z" fill="#263238"/>
    <path d="M96.2473 73.6633C96.2473 73.7132 95.5892 73.8242 94.5838 74.1739C91.9443 75.0907 89.748 76.8316 88.3866 79.0863C87.8687 79.9466 87.6554 80.5295 87.6006 80.5128C87.6108 80.3663 87.6457 80.2222 87.7042 80.0854C87.8292 79.7034 87.9902 79.332 88.1856 78.9753C88.8278 77.8049 89.717 76.7613 90.8023 75.9041C91.8876 75.0469 93.1478 74.393 94.5107 73.9797C94.9225 73.8557 95.3442 73.7611 95.772 73.6966C96.0767 73.6577 96.2412 73.6411 96.2473 73.6633Z" fill="#263238"/>
    <path d="M49.8208 79.2471C50.1324 79.7907 50.3503 80.3748 50.4667 80.9789C50.6839 81.5601 50.799 82.1689 50.808 82.7829C50.2772 81.6588 49.9441 80.4656 49.8208 79.2471Z" fill="#263238"/>
    <path d="M100.861 92.9684C100.861 92.9684 96.7293 112.063 96.2601 113.695C95.7909 115.327 95.0414 119.728 90.0264 120.639C83.2748 121.865 56.7739 121.01 56.7739 121.01L61.7706 115.243L84.9627 109.321L88.1313 95.444L100.861 92.9684Z" fill="#B78876"/>
    <path d="M39.1328 89.4215C39.1328 89.4215 42.8682 100.873 44.4159 105.824C46.0673 111.08 49.6625 123.031 57.3403 120.905C63.1779 119.29 61.4596 112.396 61.4596 112.396L55.4879 96.6707L50.8385 97.3757L46.3293 86.7683L39.1328 89.4215Z" fill="#B78876"/>
    <path d="M59.4247 112.89C59.6329 112.038 59.6329 111.155 59.4247 110.303C59.187 109.387 58.7745 108.515 58.206 107.728C57.4701 106.77 56.6553 105.864 55.7686 105.019C54.8789 104.162 54.064 103.244 53.3312 102.272C52.7469 101.467 52.2354 100.62 51.8017 99.7404C51.5137 99.1478 51.2655 98.5398 51.0583 97.9198C50.9666 97.6961 50.9052 97.4631 50.8755 97.226C50.9949 97.4363 51.0948 97.6554 51.1741 97.8809C51.3569 98.3083 51.6189 98.9189 52.0089 99.6516C52.4617 100.51 52.9853 101.335 53.5749 102.122C54.3161 103.076 55.1306 103.981 56.0123 104.83C56.9096 105.691 57.725 106.619 58.4498 107.606C59.0356 108.421 59.4489 109.328 59.6685 110.281C59.8155 110.925 59.8259 111.588 59.6989 112.235C59.6591 112.409 59.6041 112.58 59.5344 112.746C59.4552 112.84 59.4247 112.896 59.4247 112.89Z" fill="#AA6550"/>
    <path d="M32.9051 67.9072C32.9051 67.9072 33.5145 67.1301 35.0196 68.329C36.5247 69.528 42.6121 78.9475 43.0874 79.8134C43.5627 80.6793 46.3292 86.7684 46.3292 86.7684L40.1625 90.7483L39.1327 89.4216C39.1327 89.4216 33.9593 85.242 32.9051 84.0874C31.9793 83.1212 31.134 82.0933 30.3763 81.0124C30.3215 80.7737 29.9559 79.5581 30.9857 79.2028C30.9857 79.2028 29.9802 77.7486 30.876 77.027C31.7717 76.3054 33.4109 76.977 33.4109 76.977L27.9267 70.5382C27.9267 70.5382 27.4514 68.6177 29.0357 69.3393C30.62 70.0609 34.7819 75.5838 35.5193 75.7281C36.2566 75.8724 36.2566 75.173 36.2566 75.173C36.2566 75.173 31.9606 69.2172 32.9051 67.9072Z" fill="#B78876"/>
    <path d="M38.5477 84.8089C38.5477 84.8089 38.4868 84.7201 38.4198 84.5425C38.3169 84.2824 38.2474 84.0123 38.2126 83.7377C38.1266 83.2361 38.1553 82.7238 38.2969 82.2329C38.4384 81.7419 38.6898 81.2829 39.0352 80.8846V81.04C38.4807 80.4294 37.8774 79.7523 37.2071 79.0362L37.2498 79.0695C36.8172 78.842 36.3723 78.5922 35.9275 78.3257L35.2511 77.9039C35.0128 77.757 34.7904 77.5897 34.5869 77.4043C34.3914 77.2242 34.2744 76.9855 34.2579 76.7327C34.2564 76.6049 34.285 76.4784 34.3418 76.3616C34.3985 76.2448 34.4821 76.1404 34.5869 76.0555L34.6418 76H34.7271L38.5233 76.9825L41.5092 79.0085C41.899 79.2523 42.2659 79.5252 42.606 79.8244C42.1941 79.6165 41.7972 79.3847 41.4178 79.1306L38.371 77.1823H38.4137L34.6113 76.2387H34.7514C34.6842 76.2976 34.6306 76.3683 34.5939 76.4465C34.5573 76.5247 34.5383 76.6088 34.5382 76.6938C34.5567 76.8765 34.6452 77.0474 34.788 77.1767C34.9752 77.347 35.1792 77.5012 35.3974 77.6375L36.0555 78.0538C36.4942 78.3202 36.9329 78.57 37.3595 78.792C37.9688 79.5247 38.5782 80.2074 39.1327 80.8235L39.1997 80.9012L39.1266 80.979C38.745 81.3921 38.4794 81.8836 38.3527 82.411C38.2508 82.8185 38.2199 83.2381 38.2613 83.6544C38.4319 84.4204 38.5843 84.7978 38.5477 84.8089Z" fill="#AA6550"/>
    <path d="M33.5025 77.2935C33.6977 77.46 33.8715 77.6462 34.0204 77.8485C34.4576 78.3897 34.8506 78.9592 35.1965 79.5526C35.4419 79.9647 35.6616 80.3891 35.8546 80.8237C35.9736 81.0853 36.0033 81.3735 35.9399 81.6507C35.8925 81.8064 35.7975 81.9465 35.6658 82.0546C35.5341 82.1628 35.3713 82.2345 35.1965 82.2613C34.8524 82.3213 34.4962 82.2682 34.1911 82.1115C33.8879 81.968 33.6054 81.7909 33.3502 81.5841C32.8348 81.158 32.3822 80.6729 32.0035 80.141C31.778 79.8468 31.5769 79.547 31.3941 79.264L31.644 79.0974C32.4368 79.9338 33.1122 80.8567 33.6548 81.845C33.7901 82.0812 33.8572 82.3448 33.8498 82.611C33.8421 82.7438 33.8014 82.8733 33.7307 82.9897C33.6599 83.1061 33.5611 83.2062 33.4416 83.2827C33.3215 83.3415 33.1883 83.3745 33.052 83.3793C32.9158 83.3841 32.7802 83.3606 32.6555 83.3104C32.4479 83.2259 32.2566 83.1115 32.0888 82.9718C31.6027 82.5767 31.1617 82.1378 30.7726 81.6619C30.6204 81.4939 30.4952 81.307 30.4009 81.1068C30.9691 81.712 31.5797 82.2831 32.2289 82.8164C32.5214 83.0329 32.9663 83.2771 33.3136 83.0773C33.3968 83.0187 33.4645 82.9439 33.512 82.8585C33.5594 82.773 33.5853 82.679 33.5878 82.5833C33.5864 82.3606 33.5258 82.1416 33.4111 81.9449C32.8517 80.9901 32.1751 80.0963 31.3941 79.2806L31.6501 79.1141C31.839 79.3916 32.0461 79.6692 32.2594 79.98C32.6303 80.4959 33.0704 80.9677 33.5695 81.3843C34.057 81.7562 34.6237 82.1226 35.1538 82.0171C35.2776 81.9994 35.3934 81.9505 35.4882 81.876C35.5829 81.8014 35.6529 81.7042 35.6901 81.5952C35.7404 81.3665 35.7172 81.1294 35.623 80.9125C35.4402 80.4629 35.2148 80.0355 35.0137 79.6581C34.6904 79.0627 34.3303 78.4845 33.9351 77.9262C33.7682 77.7289 33.6233 77.5169 33.5025 77.2935Z" fill="#AA6550"/>
    <path d="M61.3196 112.018C61.414 112.155 61.482 112.305 61.5206 112.462C61.6579 112.877 61.7477 113.302 61.7888 113.733C61.9268 115.174 61.5962 116.62 60.8382 117.891C60.4335 118.591 59.9227 119.236 59.3209 119.806C58.8219 120.274 58.2196 120.641 57.5537 120.883C57.1066 121.04 56.6363 121.135 56.1583 121.166C55.9854 121.198 55.8072 121.198 55.6343 121.166C56.2574 121.065 56.8693 120.912 57.4623 120.711C58.081 120.453 58.6395 120.089 59.1076 119.639C59.6743 119.073 60.1615 118.445 60.5579 117.769C61.2826 116.54 61.628 115.155 61.5572 113.761C61.5085 112.673 61.2525 112.035 61.3196 112.018Z" fill="#AA6550"/>
</svg>
