<svg width="264" height="186" viewBox="0 0 264 186" fill="none" xmlns="http://www.w3.org/2000/svg">
    <path d="M264 163.276H0V163.401H264V163.276Z" fill="#E6E6E6"/>
    <path d="M235.266 166.483H222.99V166.608H235.266V166.483Z" fill="#E6E6E6"/>
    <path d="M190.608 169.191H132.301V169.316H190.608V169.191Z" fill="#E6E6E6"/>
    <path d="M107.358 169.256H101.64V169.381H107.358V169.256Z" fill="#E6E6E6"/>
    <path d="M61.0158 167.76H41.1841V167.884H61.0158V167.76Z" fill="#E6E6E6"/>
    <path d="M217.879 166.483H206.273V166.608H217.879V166.483Z" fill="#E6E6E6"/>
    <path d="M36.8753 167.76H27.271V167.884H36.8753V167.76Z" fill="#E6E6E6"/>
    <path d="M125.136 141.034H23.1844C22.3857 141.033 21.6202 140.732 21.056 140.198C20.4917 139.664 20.1748 138.941 20.1748 138.187V2.82268C20.1818 2.07264 20.5017 1.35547 21.0652 0.826964C21.6288 0.298455 22.3903 0.00128486 23.1844 0H125.136C125.936 0 126.702 0.300016 127.268 0.834047C127.833 1.36808 128.151 2.09238 128.151 2.84761V138.187C128.151 138.942 127.833 139.666 127.268 140.2C126.702 140.734 125.936 141.034 125.136 141.034ZM23.1844 0.0997416C22.4207 0.101063 21.6888 0.388525 21.1493 0.899031C20.6098 1.40954 20.3068 2.10137 20.3068 2.82268V138.187C20.3068 138.908 20.6098 139.6 21.1493 140.11C21.6888 140.621 22.4207 140.908 23.1844 140.909H125.136C125.9 140.908 126.633 140.621 127.173 140.11C127.713 139.6 128.017 138.908 128.019 138.187V2.82268C128.017 2.10091 127.713 1.40909 127.173 0.898727C126.633 0.388363 125.9 0.10106 125.136 0.0997416H23.1844Z" fill="#E6E6E6"/>
    <path d="M239.348 141.034H137.391C136.592 141.033 135.826 140.732 135.261 140.199C134.695 139.665 134.377 138.941 134.376 138.187V2.82268C134.384 2.07218 134.705 1.35502 135.27 0.826652C135.834 0.298281 136.596 0.00127085 137.391 0H239.348C240.141 0.00259552 240.901 0.300345 241.463 0.828714C242.026 1.35708 242.345 2.0735 242.352 2.82268V138.187C242.352 138.94 242.036 139.663 241.473 140.197C240.91 140.73 240.145 141.032 239.348 141.034ZM137.391 0.0997416C136.627 0.10106 135.894 0.388363 135.354 0.898727C134.814 1.40909 134.509 2.10091 134.508 2.82268V138.187C134.509 138.908 134.814 139.6 135.354 140.11C135.894 140.621 136.627 140.908 137.391 140.909H239.348C240.112 140.908 240.844 140.621 241.385 140.11C241.925 139.6 242.229 138.908 242.231 138.187V2.82268C242.229 2.10091 241.925 1.40909 241.385 0.898727C240.844 0.388363 240.112 0.10106 239.348 0.0997416H137.391Z" fill="#E6E6E6"/>
    <path d="M170.845 74.8657H210.746V9.25093H170.845V74.8657Z" fill="#E6E6E6"/>
    <path d="M168.691 74.8657H208.592V9.25093H168.691V74.8657Z" fill="#F5F5F5"/>
    <path d="M204.716 71.7888V12.333L172.556 12.333V71.7888H204.716Z" fill="#FAFAFA"/>
    <path d="M174.188 71.7888V12.333H172.556V71.7888H174.188Z" fill="#E6E6E6"/>
    <path d="M170.29 57.436L206.992 57.436V53.3018L170.29 53.3018V57.436Z" fill="#F5F5F5"/>
    <path d="M103.034 74.8657H142.935V9.25093H103.034V74.8657Z" fill="#E6E6E6"/>
    <path d="M100.88 74.8657H140.781V9.25093H100.88V74.8657Z" fill="#F5F5F5"/>
    <path d="M136.911 71.7888V12.333L104.75 12.333V71.7888H136.911Z" fill="#FAFAFA"/>
    <path d="M106.376 71.7838V12.328H104.744V71.7838H106.376Z" fill="#E6E6E6"/>
    <path d="M102.48 57.436L139.181 57.436V53.3018L102.48 53.3018V57.436Z" fill="#F5F5F5"/>
    <path d="M35.2284 74.8657H75.1294L75.1294 9.25093H35.2284L35.2284 74.8657Z" fill="#E6E6E6"/>
    <path d="M33.0737 74.8657H72.9746L72.9746 9.25093H33.0737L33.0737 74.8657Z" fill="#F5F5F5"/>
    <path d="M69.0991 71.7838V12.328L36.9386 12.328L36.9386 71.7838H69.0991Z" fill="#FAFAFA"/>
    <path d="M38.5703 71.7888L38.5703 12.333H36.9388L36.9388 71.7888H38.5703Z" fill="#E6E6E6"/>
    <path d="M34.6737 57.436L71.375 57.436V53.3018L34.6737 53.3018V57.436Z" fill="#F5F5F5"/>
    <path d="M73.9202 115.46C66.7235 116.398 62.2725 101.626 78.1442 89.1188C77.3152 103.596 86.476 113.825 73.9202 115.46Z" fill="#E6E6E6"/>
    <path d="M68.64 134.805C58.2067 127.898 65.3453 103.766 97.6325 105.516C83.6722 123.28 86.8349 146.844 68.64 134.805Z" fill="#E0E0E0"/>
    <path d="M72.3358 134.651C79.2685 127.599 69.4001 109.85 44.4521 116.333C58.5286 128.003 60.2393 146.939 72.3358 134.651Z" fill="#E0E0E0"/>
    <path d="M63.4339 124.357C61.0368 121.6 58.2067 118.498 58.8931 115.216C59.5795 111.935 61.2955 109.496 59.9491 106.005C58.3123 101.816 58.6291 96.8189 61.3958 97.2378C64.1625 97.6567 67.2619 100.729 67.2038 104.773C67.1563 108.703 69.8438 109.96 72.431 112.049C75.0182 114.139 75.9316 117.196 76.391 120.188C77.1935 124.941 83.7144 124.043 85.4462 128.168C87.2361 132.157 83.6668 137.468 77.9591 138.69C72.2515 139.912 68.1859 140.685 64.2945 136.466C60.3398 132.023 66.982 128.307 63.4339 124.357Z" fill="#F5F5F5"/>
    <path d="M83.07 163.276H61.6279L60.0122 135.688H84.6856L83.07 163.276Z" fill="#EBEBEB"/>
    <path d="M86.2862 135.125H58.4131V138.097H86.2862V135.125Z" fill="#EBEBEB"/>
    <path d="M209.478 159.531H223.903V100.45H209.478V159.531Z" fill="#EBEBEB"/>
    <path d="M96.4394 163.276L221.132 163.276V159.531H96.4394V163.276Z" fill="#EBEBEB"/>
    <path d="M209.479 100.449H93.6724V159.531H209.479V100.449Z" fill="#F5F5F5"/>
    <path d="M203.808 107.721H99.3433V127.1H203.808V107.721Z" fill="#EBEBEB"/>
    <path d="M203.808 132.88H99.3433V152.26H203.808V132.88Z" fill="#EBEBEB"/>
    <path d="M119.08 118.737H184.071C184.443 118.736 184.8 118.595 185.063 118.347C185.326 118.098 185.474 117.762 185.476 117.41C185.476 117.058 185.328 116.72 185.065 116.471C184.801 116.221 184.444 116.08 184.071 116.079H119.08C118.707 116.08 118.35 116.221 118.086 116.471C117.823 116.72 117.675 117.058 117.675 117.41C117.677 117.762 117.825 118.098 118.088 118.347C118.351 118.595 118.708 118.736 119.08 118.737Z" fill="#F5F5F5"/>
    <path d="M119.08 143.897H184.071C184.443 143.895 184.8 143.755 185.063 143.507C185.326 143.258 185.474 142.922 185.476 142.57C185.474 142.219 185.326 141.882 185.063 141.634C184.8 141.385 184.443 141.245 184.071 141.244H119.08C118.708 141.245 118.351 141.385 118.088 141.634C117.825 141.882 117.677 142.219 117.675 142.57C117.677 142.922 117.825 143.258 118.088 143.507C118.351 143.755 118.708 143.895 119.08 143.897Z" fill="#F5F5F5"/>
    <path d="M177.508 91.8269C177.508 91.8269 194.035 106.618 203.845 91.767C203.845 91.767 201.237 86.9944 198.486 86.5855C195.735 86.1765 195.624 90.7147 193.206 89.3134C190.788 87.912 187.963 83.1195 186.421 85.6778C184.879 88.2362 182.762 84.5906 180.455 84.3812C178.147 84.1717 177.508 91.8269 177.508 91.8269Z" fill="#F5F5F5"/>
    <path d="M204.896 90.8044C204.896 90.8044 204.537 100.449 190.608 100.449C176.68 100.449 176.321 90.8044 176.321 90.8044H204.896Z" fill="#EBEBEB"/>
    <path d="M134.434 85.7775H142.455V100.449H118.906C118.906 96.559 120.542 92.8279 123.454 90.0765C126.366 87.3252 130.315 85.7788 134.434 85.7775Z" fill="#F5F5F5"/>
    <path d="M149.852 85.7775H142.455V100.449H149.852V85.7775Z" fill="#E6E6E6"/>
    <path d="M132 185.798C188.54 185.798 234.374 183.271 234.374 180.153C234.374 177.035 188.54 174.507 132 174.507C75.4608 174.507 29.6265 177.035 29.6265 180.153C29.6265 183.271 75.4608 185.798 132 185.798Z" fill="#F5F5F5"/>
    <path d="M115.104 71.1953L114.756 71.694C114.65 71.8387 114.539 71.9683 114.434 72.103C114.217 72.3723 113.99 72.6017 113.763 72.876C113.304 73.3747 112.839 73.8734 112.343 74.3122C111.351 75.213 110.292 76.0462 109.175 76.8058C108.059 77.5651 106.886 78.2452 105.664 78.8405C105.046 79.1248 104.434 79.419 103.795 79.6584L102.839 80.0174L102.57 80.1122C102.422 80.1571 102.285 80.207 102.121 80.2419C101.802 80.3171 101.473 80.3523 101.144 80.3466C100.517 80.3425 99.8995 80.1972 99.3436 79.9227C98.8966 79.7022 98.4857 79.4216 98.1239 79.0899C97.5507 78.5558 97.0553 77.9521 96.6508 77.2945C95.9592 76.1559 95.3947 74.9526 94.9665 73.7038C94.1358 71.3497 93.5419 68.9269 93.1924 66.4676L95.3994 66.0088C95.8007 67.101 96.2125 68.228 96.6666 69.3152C97.1207 70.4024 97.5748 71.4846 98.1028 72.5119C98.5834 73.5035 99.1559 74.4531 99.8135 75.3496C100.075 75.7212 100.389 76.0568 100.748 76.347C100.851 76.4269 100.967 76.4908 101.091 76.5365C101.165 76.5365 101.16 76.5365 101.123 76.5365H101.086L101.26 76.4567L102.047 76.0976C102.575 75.8582 103.077 75.5989 103.583 75.3097C104.583 74.7438 105.549 74.1261 106.477 73.4595C107.392 72.78 108.262 72.0472 109.08 71.2652C109.492 70.8861 109.882 70.4822 110.257 70.0732C110.442 69.8688 110.627 69.6643 110.785 69.4598L111.039 69.1556L111.245 68.8963L115.104 71.1953Z" fill="#B97964"/>
    <path d="M108.71 70.981L111.387 77.0452L109.45 78.1873L106.44 72.6865L108.71 70.981Z" fill="#263238"/>
    <path d="M116.287 65.8741C111.921 65.8192 107.485 71.0407 107.375 71.1704L110.828 78.8405C110.828 78.8405 118.51 72.9507 118.895 70.6467C119.297 68.2479 119.054 65.909 116.287 65.8741Z" fill="#3D509B"/>
    <path opacity="0.3" d="M116.287 65.8741C111.921 65.8192 107.485 71.0407 107.375 71.1704L110.828 78.8405C110.828 78.8405 118.51 72.9507 118.895 70.6467C119.297 68.2479 119.054 65.909 116.287 65.8741Z" fill="black"/>
    <path d="M95.0404 65.2158L92.0202 62.9966L91.4077 67.3652C91.4077 67.3652 94.3434 68.4524 95.9063 67.5099L95.864 66.7119C95.8483 66.4214 95.7666 66.1374 95.6245 65.8793C95.4824 65.6211 95.2832 65.3949 95.0404 65.2158Z" fill="#B97964"/>
    <path d="M87.9971 62.7772L88.1872 66.0936L91.4238 67.3653L92.0363 62.9967L87.9971 62.7772Z" fill="#B97964"/>
    <path d="M154.176 64.8618L158.844 63.7596L155.581 60.6128C155.581 60.6128 152.555 61.7798 153.295 64.2733L154.176 64.8618Z" fill="#B97964"/>
    <path d="M161.162 62.9766L160.776 59.5156L155.554 60.6128L158.817 63.7596L161.162 62.9766Z" fill="#B97964"/>
    <path d="M138.954 175.779L134.609 176.173L130.981 166.488L135.327 166.089L138.954 175.779Z" fill="#B97964"/>
    <path d="M185.471 155.417L182.271 158.349L174.045 152.285L177.25 149.353L185.471 155.417Z" fill="#B97964"/>
    <path d="M181.347 157.781L183.807 153.656C183.849 153.586 183.916 153.531 183.997 153.504C184.077 153.476 184.166 153.477 184.246 153.507L187.984 154.873C188.076 154.911 188.159 154.967 188.227 155.037C188.295 155.107 188.347 155.19 188.379 155.281C188.411 155.371 188.422 155.467 188.412 155.561C188.403 155.656 188.372 155.748 188.322 155.831C187.44 157.257 186.939 157.9 185.856 159.716C185.191 160.833 183.892 163.391 182.973 164.932C182.055 166.473 180.391 165.695 180.629 164.977C181.685 161.75 181.505 159.95 181.22 158.524C181.168 158.27 181.213 158.006 181.347 157.781Z" fill="#263238"/>
    <path d="M133.743 174.916H139.023C139.118 174.918 139.209 174.949 139.284 175.004C139.36 175.058 139.414 175.134 139.44 175.22L140.591 179.175C140.62 179.269 140.626 179.367 140.607 179.463C140.588 179.559 140.545 179.649 140.482 179.726C140.42 179.804 140.338 179.866 140.245 179.908C140.152 179.95 140.05 179.971 139.947 179.968C138.094 179.938 137.191 179.834 134.862 179.834C133.431 179.834 128.769 179.978 126.789 179.978C124.809 179.978 124.45 178.128 125.253 177.983C128.843 177.23 131.874 176.198 132.977 175.211C133.182 175.021 133.457 174.915 133.743 174.916Z" fill="#263238"/>
    <path d="M130.987 166.488L132.851 171.485H137.349L135.332 166.089L130.987 166.488Z" fill="#A76755"/>
    <path d="M177.255 149.353L174.05 152.29L178.29 155.412L181.495 152.479L177.255 149.353Z" fill="#A76755"/>
    <path d="M112.037 67.2057C112.037 67.2057 110.242 68.4974 122.338 90.7945L139.583 85.5332C137.027 78.9951 135.623 74.9107 134.303 60.2837C131.745 60.551 129.211 60.9926 126.721 61.6053C124.058 62.2382 121.442 63.0362 118.89 63.9941C115.596 65.3306 112.037 67.2057 112.037 67.2057Z" fill="#3D509B"/>
    <path opacity="0.3" d="M112.037 67.2057C112.037 67.2057 110.242 68.4974 122.338 90.7945L139.583 85.5332C137.027 78.9951 135.623 74.9107 134.303 60.2837C131.745 60.551 129.211 60.9926 126.721 61.6053C124.058 62.2382 121.442 63.0362 118.89 63.9941C115.596 65.3306 112.037 67.2057 112.037 67.2057Z" fill="black"/>
    <path d="M123.072 53.5112C123.389 56.0447 124.387 60.553 126.694 61.6052C126.694 61.6052 126.826 64.2284 122.148 65.6547C117 67.2256 118.864 63.994 118.864 63.994C121.456 62.4979 120.707 60.553 119.587 58.8574L123.072 53.5112Z" fill="#B97964"/>
    <path d="M114.418 65.9988C115.691 65.3755 117.311 64.6174 118.864 64.004C121.419 63.0285 124.044 62.2269 126.72 61.6052C128.225 61.2163 129.746 60.927 131.029 60.7225C131.15 61.0617 130.786 61.9394 129.894 63.1512C127.069 65.3655 121.044 68.243 116.604 68.1383C114.661 67.4551 114.175 66.7319 114.418 65.9988Z" fill="#B97964"/>
    <path d="M129.888 63.1512C127.97 65.5796 125.678 67.7229 123.087 69.5098C120.882 69.2561 118.708 68.7967 116.598 68.1383C121.018 68.243 127.042 65.3655 129.888 63.1512Z" fill="#263238"/>
    <path d="M121.652 55.6906L119.587 58.8474C119.857 59.2408 120.088 59.6564 120.279 60.0891C121.303 59.6154 122.608 58.214 122.359 57.0969C122.212 56.5928 121.973 56.1168 121.652 55.6906Z" fill="#A76755"/>
    <path d="M124.118 48.8334C124.382 53.0076 124.593 54.768 122.65 57.1518C119.73 60.7325 114.244 60.1441 112.66 56.1145C111.24 52.4989 111.044 46.28 115.126 44.1456C116.023 43.6696 117.033 43.4178 118.062 43.4141C119.091 43.4104 120.103 43.6549 121.004 44.1244C121.904 44.594 122.663 45.2729 123.208 46.097C123.753 46.9211 124.066 47.863 124.118 48.8334Z" fill="#B97964"/>
    <path d="M132.846 41.3525C133.844 37.2057 131.094 33.0798 126.704 32.1369C122.313 31.194 117.945 33.7913 116.947 37.938C115.948 42.0848 118.698 46.2108 123.089 47.1537C127.479 48.0965 131.847 45.4993 132.846 41.3525Z" fill="#263238"/>
    <path d="M122.861 42.9884C124.54 44.0357 125.374 45.6415 124.724 46.5741C124.075 47.5067 122.185 47.4169 120.5 46.3697C118.816 45.3224 117.987 43.7165 118.637 42.784C119.286 41.8514 121.176 41.9411 122.861 42.9884Z" fill="#3D509B"/>
    <path opacity="0.6" d="M122.861 42.9884C124.54 44.0357 125.374 45.6415 124.724 46.5741C124.075 47.5067 122.185 47.4169 120.5 46.3697C118.816 45.3224 117.987 43.7165 118.637 42.784C119.286 41.8514 121.176 41.9411 122.861 42.9884Z" fill="#FAFAFA"/>
    <path d="M121.968 51.681C122.407 50.7234 120.881 47.8808 121.208 46.8186C120.331 46.0456 111.445 48.7785 112.163 46.7837C112.85 44.8686 115.015 42.3302 119.957 43.3925C125.237 44.5295 125.696 48.8433 125.105 50.2197C124.513 51.5962 123.674 53.0275 123.674 53.0275L121.968 51.681Z" fill="#263238"/>
    <path d="M125.279 52.4939C125.29 53.3016 124.964 54.081 124.371 54.6632C123.573 55.4263 122.612 54.8777 122.364 53.8902C122.137 53.0025 122.285 51.5314 123.309 51.1424C123.535 51.0593 123.779 51.0311 124.02 51.0605C124.26 51.0898 124.489 51.1756 124.685 51.3102C124.881 51.4447 125.038 51.6236 125.142 51.8304C125.246 52.0372 125.293 52.2654 125.279 52.4939Z" fill="#B97964"/>
    <path d="M122.338 90.7945C122.338 90.7945 114.344 127.619 118.8 139.763C123.436 152.395 130.981 170.029 130.981 170.029L138.03 169.65C138.03 169.65 132.222 147.368 130.791 137.304C128.832 123.43 137.222 86.2762 137.222 86.2762L122.338 90.7945Z" fill="#3D509B"/>
    <path opacity="0.6" d="M122.338 90.7945C122.338 90.7945 114.344 127.619 118.8 139.763C123.436 152.395 130.981 170.029 130.981 170.029L138.03 169.65C138.03 169.65 132.222 147.368 130.791 137.304C128.832 123.43 137.222 86.2762 137.222 86.2762L122.338 90.7945Z" fill="#FAFAFA"/>
    <path d="M138.584 169.81L130.427 170.253L129.117 167.221L138.114 166.339L138.584 169.81Z" fill="#3D509B"/>
    <path opacity="0.2" d="M138.584 169.81L130.427 170.253L129.117 167.221L138.114 166.339L138.584 169.81Z" fill="black"/>
    <path d="M130.791 93.6272C129.566 97.9061 130.591 104.319 132.903 108.818C133.468 105.327 134.07 101.946 134.64 98.9185C133.452 96.7491 132.143 94.8241 130.791 93.6272Z" fill="#3D509B"/>
    <path opacity="0.4" d="M130.791 93.6272C129.566 97.9061 130.591 104.319 132.903 108.818C133.468 105.327 134.07 101.946 134.64 98.9185C133.452 96.7491 132.143 94.8241 130.791 93.6272Z" fill="#FAFAFA"/>
    <path d="M126.889 89.403C126.889 89.403 138.759 116.199 146.621 130.91C152.957 142.81 176.468 155.262 176.468 155.262L180.692 151.033C180.692 151.033 163.121 136.296 158.738 128.227C144.714 102.399 147.597 91.1186 139.593 85.5331L126.889 89.403Z" fill="#3D509B"/>
    <path opacity="0.6" d="M126.889 89.403C126.889 89.403 138.759 116.199 146.621 130.91C152.957 142.81 176.468 155.262 176.468 155.262L180.692 151.033C180.692 151.033 163.121 136.296 158.738 128.227C144.714 102.399 147.597 91.1186 139.593 85.5331L126.889 89.403Z" fill="#FAFAFA"/>
    <path d="M181.479 150.43L175.671 156.26L171.997 154.435L178.686 147.991L181.479 150.43Z" fill="#3D509B"/>
    <path opacity="0.2" d="M181.479 150.43L175.671 156.26L171.997 154.435L178.686 147.991L181.479 150.43Z" fill="black"/>
    <path d="M139.514 84.5008L140.787 85.7227C140.887 85.8174 140.787 85.977 140.586 86.0369L122.502 91.5226C122.344 91.5725 122.19 91.5226 122.148 91.4478L121.499 90.0415C121.451 89.9417 121.557 89.8171 121.726 89.7622L139.187 84.441C139.242 84.4234 139.301 84.4196 139.359 84.4301C139.416 84.4406 139.47 84.465 139.514 84.5008Z" fill="#263238"/>
    <path d="M137.808 87.0592L138.273 86.9195C138.368 86.8896 138.421 86.8198 138.399 86.7699L137.533 84.9397C137.533 84.8898 137.407 84.8698 137.317 84.8948L136.847 85.0394C136.757 85.0394 136.699 85.1342 136.726 85.189L137.592 87.0143C137.607 87.0691 137.702 87.0891 137.808 87.0592Z" fill="#3D509B"/>
    <path opacity="0.6" d="M137.808 87.0592L138.273 86.9195C138.368 86.8896 138.421 86.8198 138.399 86.7699L137.533 84.9397C137.533 84.8898 137.407 84.8698 137.317 84.8948L136.847 85.0394C136.757 85.0394 136.699 85.1342 136.726 85.189L137.592 87.0143C137.607 87.0691 137.702 87.0891 137.808 87.0592Z" fill="#FAFAFA"/>
    <path d="M123.87 91.3082L124.339 91.1635C124.429 91.1336 124.487 91.0688 124.461 91.0139L123.595 89.1887C123.569 89.1338 123.474 89.1139 123.379 89.1438L122.909 89.2834C122.819 89.3133 122.761 89.3782 122.787 89.433L123.653 91.2583C123.679 91.3132 123.775 91.3331 123.87 91.3082Z" fill="#3D509B"/>
    <path opacity="0.6" d="M123.87 91.3082L124.339 91.1635C124.429 91.1336 124.487 91.0688 124.461 91.0139L123.595 89.1887C123.569 89.1338 123.474 89.1139 123.379 89.1438L122.909 89.2834C122.819 89.3133 122.761 89.3782 122.787 89.433L123.653 91.2583C123.679 91.3132 123.775 91.3331 123.87 91.3082Z" fill="#FAFAFA"/>
    <path d="M130.833 89.1837L131.298 89.039C131.393 89.039 131.451 88.9443 131.425 88.8894L130.559 87.0642C130.532 87.0093 130.432 86.9893 130.342 87.0193L129.872 87.1639C129.783 87.1888 129.725 87.2587 129.751 87.3085L130.617 89.1388C130.643 89.1674 130.678 89.1872 130.717 89.1953C130.756 89.2034 130.797 89.1993 130.833 89.1837Z" fill="#3D509B"/>
    <path opacity="0.6" d="M130.833 89.1837L131.298 89.039C131.393 89.039 131.451 88.9443 131.425 88.8894L130.559 87.0642C130.532 87.0093 130.432 86.9893 130.342 87.0193L129.872 87.1639C129.783 87.1888 129.725 87.2587 129.751 87.3085L130.617 89.1388C130.643 89.1674 130.678 89.1872 130.717 89.1953C130.756 89.2034 130.797 89.1993 130.833 89.1837Z" fill="#FAFAFA"/>
    <path d="M117.613 50.7584C117.655 51.0925 117.502 51.3917 117.269 51.4167C117.037 51.4416 116.81 51.1922 116.768 50.8531C116.726 50.514 116.879 50.2198 117.111 50.1948C117.343 50.1699 117.57 50.4193 117.613 50.7584Z" fill="#263238"/>
    <path d="M113.573 51.2222C113.621 51.5613 113.462 51.8555 113.23 51.8805C112.997 51.9054 112.77 51.6561 112.728 51.3219C112.686 50.9878 112.839 50.6886 113.071 50.6586C113.304 50.6287 113.52 50.8681 113.573 51.2222Z" fill="#263238"/>
    <path d="M113.178 50.6686L112.291 50.5339C112.291 50.5339 112.813 51.1174 113.178 50.6686Z" fill="#263238"/>
    <path d="M114.719 51.6809C114.498 52.4865 114.163 53.2599 113.721 53.9799C113.92 54.0801 114.139 54.139 114.364 54.1528C114.589 54.1666 114.814 54.1348 115.025 54.0597L114.719 51.6809Z" fill="#A24E3F"/>
    <path d="M116.44 55.2417C116.415 55.242 116.39 55.2336 116.371 55.218C116.351 55.2024 116.339 55.1808 116.335 55.157C116.333 55.1302 116.342 55.1037 116.359 55.0826C116.377 55.0614 116.402 55.0471 116.43 55.0423C116.875 55.0004 117.303 54.8603 117.68 54.6334C118.057 54.4064 118.372 54.0989 118.6 53.7357C118.606 53.7234 118.614 53.7123 118.624 53.7031C118.634 53.6939 118.647 53.6868 118.66 53.6821C118.673 53.6775 118.687 53.6754 118.702 53.676C118.716 53.6766 118.73 53.68 118.742 53.6858C118.755 53.6916 118.766 53.6997 118.775 53.7097C118.784 53.7196 118.791 53.7312 118.796 53.7437C118.8 53.7563 118.802 53.7695 118.801 53.7826C118.8 53.7958 118.796 53.8087 118.79 53.8204C118.55 54.2167 118.213 54.5526 117.807 54.8C117.4 55.0473 116.937 55.1988 116.456 55.2417H116.44Z" fill="#263238"/>
    <path d="M118.114 49.5615C118.063 49.5609 118.015 49.5432 117.977 49.5116C117.781 49.341 117.546 49.2172 117.29 49.1503C117.033 49.0835 116.764 49.0757 116.504 49.1276C116.476 49.1352 116.448 49.1375 116.42 49.1346C116.392 49.1316 116.365 49.1234 116.34 49.1104C116.316 49.0974 116.294 49.0798 116.277 49.0588C116.26 49.0378 116.247 49.0137 116.24 48.988C116.232 48.9627 116.229 48.9363 116.232 48.9101C116.235 48.884 116.244 48.8587 116.258 48.8359C116.272 48.8131 116.29 48.7931 116.313 48.7772C116.335 48.7614 116.36 48.7499 116.387 48.7436C116.715 48.6757 117.054 48.6823 117.379 48.763C117.703 48.8436 118.002 48.9959 118.251 49.2074C118.271 49.226 118.287 49.2481 118.298 49.2725C118.309 49.2969 118.314 49.3231 118.314 49.3495C118.314 49.376 118.309 49.4022 118.298 49.4266C118.287 49.451 118.271 49.4731 118.251 49.4917C118.216 49.5302 118.167 49.5551 118.114 49.5615Z" fill="#263238"/>
    <path d="M111.487 49.6762C111.456 49.6832 111.423 49.6832 111.392 49.6762C111.344 49.6508 111.307 49.6087 111.29 49.5585C111.274 49.5084 111.278 49.4541 111.302 49.4069C111.447 49.1217 111.661 48.8731 111.927 48.6814C112.194 48.4898 112.504 48.3607 112.834 48.3047C112.889 48.2991 112.944 48.3143 112.988 48.347C113.031 48.3796 113.059 48.4272 113.066 48.4793C113.07 48.5055 113.068 48.5322 113.061 48.5577C113.053 48.5833 113.041 48.6072 113.023 48.628C113.006 48.6489 112.985 48.6664 112.96 48.6794C112.936 48.6924 112.909 48.7006 112.881 48.7037C112.621 48.7496 112.375 48.8536 112.166 49.0072C111.957 49.1607 111.789 49.3593 111.677 49.5864C111.657 49.6159 111.629 49.6398 111.595 49.6555C111.562 49.6713 111.525 49.6784 111.487 49.6762Z" fill="#263238"/>
    <path d="M137.808 64.1785L138.009 64.4179L138.257 64.7021C138.426 64.8916 138.6 65.0861 138.785 65.2756C139.15 65.6597 139.53 66.0387 139.936 66.3977C140.732 67.135 141.573 67.8277 142.455 68.4724C143.35 69.1128 144.279 69.7103 145.237 70.2627C145.718 70.537 146.209 70.7963 146.705 71.0507L147.46 71.4147L147.825 71.5893C147.914 71.6292 148.004 71.6691 148.089 71.699C148.358 71.8051 148.647 71.861 148.939 71.8636C149.207 71.849 149.465 71.7587 149.678 71.6042C150.386 71.0503 150.945 70.3463 151.309 69.5496C151.8 68.5889 152.194 67.5871 152.487 66.5573C152.813 65.5071 153.083 64.4418 153.295 63.3656L155.549 63.5003C155.62 65.9553 155.248 68.4039 154.451 70.7415C154.225 71.3787 153.933 71.9934 153.58 72.5767C153.188 73.2414 152.681 73.8398 152.08 74.3471C151.365 74.9469 150.491 75.352 149.551 75.5191C148.638 75.6696 147.699 75.608 146.816 75.3395C146.61 75.2847 146.42 75.2149 146.225 75.145L145.765 74.9655L144.868 74.6114C144.271 74.3571 143.685 74.1127 143.11 73.8035C141.954 73.2278 140.841 72.5797 139.778 71.8636C138.713 71.1383 137.699 70.3487 136.742 69.4997C136.267 69.0708 135.807 68.617 135.359 68.1482C135.137 67.9088 134.915 67.6495 134.704 67.4201L134.382 67.0261C134.271 66.8865 134.186 66.7768 134.039 66.5773L137.808 64.1785Z" fill="#B97964"/>
    <path d="M141.552 66.8067L138.247 72.0481L136.636 70.6119L139.688 65.3605L141.552 66.8067Z" fill="#263238"/>
    <path d="M134.324 60.2837C136.225 60.2538 140.839 65.4004 140.839 65.4004L136.826 71.9983C136.826 71.9983 131.715 67.7443 131.721 65.4154C131.726 62.9867 132.159 60.3435 134.324 60.2837Z" fill="#3D509B"/>
    <path opacity="0.3" d="M134.324 60.2837C136.225 60.2538 140.839 65.4004 140.839 65.4004L136.826 71.9983C136.826 71.9983 131.715 67.7443 131.721 65.4154C131.726 62.9867 132.159 60.3435 134.324 60.2837Z" fill="black"/>
    <path d="M180.481 160.02C180.334 160.015 180.193 159.964 180.079 159.875C180.026 159.842 179.984 159.795 179.957 159.741C179.93 159.686 179.919 159.626 179.926 159.566C179.974 159.028 181.405 158.319 181.563 158.24C181.58 158.229 181.601 158.223 181.621 158.223C181.642 158.223 181.662 158.229 181.679 158.24C181.695 158.252 181.707 158.268 181.714 158.287C181.72 158.305 181.721 158.325 181.716 158.344C181.553 158.883 181.188 159.811 180.66 159.975C180.604 160 180.543 160.015 180.481 160.02ZM181.436 158.524C180.877 158.823 180.164 159.292 180.138 159.571C180.133 159.598 180.138 159.626 180.151 159.65C180.165 159.674 180.186 159.694 180.211 159.706C180.261 159.751 180.322 159.783 180.389 159.798C180.456 159.813 180.526 159.81 180.592 159.791C180.882 159.711 181.188 159.242 181.436 158.534V158.524Z" fill="#3D509B"/>
    <path d="M180.286 158.713C180.054 158.732 179.822 158.678 179.626 158.559C179.562 158.507 179.519 158.436 179.504 158.358C179.488 158.28 179.502 158.2 179.541 158.13C179.57 158.058 179.615 157.992 179.675 157.94C179.734 157.887 179.806 157.848 179.884 157.826C180.497 157.631 181.616 158.215 181.664 158.24C181.681 158.248 181.695 158.261 181.706 158.277C181.716 158.293 181.721 158.311 181.722 158.329C181.721 158.346 181.716 158.363 181.707 158.378C181.697 158.393 181.685 158.405 181.669 158.414C181.238 158.611 180.765 158.714 180.286 158.713ZM180.175 157.985C180.1 157.984 180.025 157.994 179.953 158.015C179.904 158.03 179.86 158.054 179.822 158.087C179.785 158.12 179.755 158.16 179.737 158.205C179.684 158.324 179.737 158.374 179.737 158.409C179.974 158.599 180.851 158.519 181.352 158.324C180.987 158.141 180.587 158.026 180.175 157.985Z" fill="#3D509B"/>
    <path d="M131.398 175.744C131.029 175.773 130.659 175.691 130.342 175.51C130.26 175.452 130.192 175.377 130.145 175.291C130.098 175.204 130.074 175.108 130.073 175.011C130.067 174.958 130.076 174.905 130.099 174.857C130.122 174.808 130.159 174.767 130.205 174.737C130.686 174.428 132.491 175.206 132.845 175.36C132.865 175.369 132.882 175.385 132.892 175.403C132.903 175.422 132.907 175.444 132.903 175.465C132.901 175.485 132.893 175.504 132.879 175.52C132.864 175.535 132.845 175.545 132.824 175.55C132.357 175.66 131.879 175.725 131.398 175.744ZM130.554 174.881C130.482 174.875 130.411 174.889 130.348 174.921C130.332 174.932 130.319 174.946 130.312 174.963C130.304 174.98 130.302 174.998 130.306 175.016C130.307 175.081 130.325 175.145 130.357 175.203C130.389 175.261 130.435 175.311 130.49 175.35C130.907 175.649 131.9 175.535 132.481 175.435C131.872 175.16 131.222 174.973 130.554 174.881Z" fill="#3D509B"/>
    <path d="M132.824 175.57H132.782C132.185 175.34 130.982 174.428 131.05 173.954C131.05 173.849 131.135 173.719 131.409 173.689C132.465 173.56 132.909 175.38 132.925 175.455C132.929 175.473 132.928 175.491 132.923 175.509C132.917 175.526 132.907 175.542 132.893 175.555C132.872 175.566 132.848 175.571 132.824 175.57ZM131.504 173.879H131.436C131.325 173.879 131.261 173.924 131.256 173.974C131.219 174.243 132.048 174.971 132.661 175.28C132.529 174.851 132.138 173.879 131.504 173.879Z" fill="#3D509B"/>
    <path d="M117.217 50.1998L116.33 50.0652C116.33 50.0652 116.852 50.6487 117.217 50.1998Z" fill="#263238"/>
    <path d="M84.1846 15.3502C83.25 16.4573 78.102 17.759 74.01 17.3999C72.6002 26.1372 77.5265 36.1961 77.5265 36.1961C77.5265 36.1961 88.2185 34.9943 88.4825 30.8351C88.7465 26.6758 84.1846 15.3502 84.1846 15.3502Z" fill="#3D509B"/>
    <path opacity="0.4" d="M84.1846 15.3502C83.25 16.4573 78.102 17.759 74.01 17.3999C72.6002 26.1372 77.5265 36.1961 77.5265 36.1961C77.5265 36.1961 88.2185 34.9943 88.4825 30.8351C88.7465 26.6758 84.1846 15.3502 84.1846 15.3502Z" fill="#FAFAFA"/>
    <path d="M165.122 8.70239C166.077 9.97409 170.93 11.2358 174.684 10.5775C176.696 20.9207 172.968 33.2088 172.968 33.2088C172.968 33.2088 163.005 32.371 162.408 27.4288C161.811 22.4866 165.122 8.70239 165.122 8.70239Z" fill="#3D509B"/>
    <path opacity="0.4" d="M165.122 8.70239C166.077 9.97409 170.93 11.2358 174.684 10.5775C176.696 20.9207 172.968 33.2088 172.968 33.2088C172.968 33.2088 163.005 32.371 162.408 27.4288C161.811 22.4866 165.122 8.70239 165.122 8.70239Z" fill="#FAFAFA"/>
    <path d="M95.04 98.2802C94.964 98.2907 94.8865 98.2869 94.8121 98.2691C94.7377 98.2511 94.6678 98.2195 94.6064 98.1759C94.545 98.1323 94.4934 98.0776 94.4545 98.0151C94.4157 97.9525 94.3903 97.8833 94.38 97.8114L81.84 13.7943C81.8297 13.7202 81.8353 13.6448 81.8564 13.5727C81.8776 13.5005 81.9139 13.4332 81.9631 13.3746C82.0124 13.316 82.0736 13.2673 82.1431 13.2315C82.2127 13.1956 82.2891 13.1734 82.368 13.166C82.4442 13.1561 82.5218 13.1606 82.5963 13.1791C82.6707 13.1976 82.7406 13.2297 82.8019 13.2737C82.8632 13.3177 82.9147 13.3727 82.9535 13.4355C82.9923 13.4983 83.0176 13.5677 83.028 13.6397L95.568 97.6518C95.5783 97.726 95.5727 97.8014 95.5515 97.8735C95.5304 97.9456 95.4941 98.013 95.4448 98.0716C95.3956 98.1302 95.3344 98.1789 95.2648 98.2147C95.1953 98.2505 95.1188 98.2728 95.04 98.2802Z" fill="#3D509B"/>
    <path opacity="0.2" d="M95.04 98.2802C94.964 98.2907 94.8865 98.2869 94.8121 98.2691C94.7377 98.2511 94.6678 98.2195 94.6064 98.1759C94.545 98.1323 94.4934 98.0776 94.4545 98.0151C94.4157 97.9525 94.3903 97.8833 94.38 97.8114L81.84 13.7943C81.8297 13.7202 81.8353 13.6448 81.8564 13.5727C81.8776 13.5005 81.9139 13.4332 81.9631 13.3746C82.0124 13.316 82.0736 13.2673 82.1431 13.2315C82.2127 13.1956 82.2891 13.1734 82.368 13.166C82.4442 13.1561 82.5218 13.1606 82.5963 13.1791C82.6707 13.1976 82.7406 13.2297 82.8019 13.2737C82.8632 13.3177 82.9147 13.3727 82.9535 13.4355C82.9923 13.4983 83.0176 13.5677 83.028 13.6397L95.568 97.6518C95.5783 97.726 95.5727 97.8014 95.5515 97.8735C95.5304 97.9456 95.4941 98.013 95.4448 98.0716C95.3956 98.1302 95.3344 98.1789 95.2648 98.2147C95.1953 98.2505 95.1188 98.2728 95.04 98.2802Z" fill="black"/>
    <path d="M154.794 92.0362C154.872 92.0459 154.952 92.0406 155.029 92.0207C155.105 92.0007 155.176 91.9664 155.238 91.9199C155.3 91.8734 155.352 91.8156 155.39 91.7499C155.428 91.6842 155.451 91.612 155.459 91.5375L168.026 7.52543C168.037 7.45338 168.033 7.37994 168.014 7.30934C167.995 7.23873 167.962 7.17234 167.915 7.11397C167.869 7.05559 167.811 7.00639 167.745 6.96917C167.679 6.93195 167.606 6.90745 167.529 6.89707C167.451 6.88735 167.371 6.89263 167.294 6.91262C167.218 6.9326 167.147 6.96686 167.085 7.01338C167.023 7.0599 166.971 7.11771 166.933 7.1834C166.895 7.24909 166.872 7.32131 166.864 7.39577L154.298 91.4078C154.276 91.5532 154.316 91.7005 154.409 91.8181C154.502 91.9357 154.64 92.014 154.794 92.0362Z" fill="#3D509B"/>
    <path opacity="0.2" d="M154.794 92.0362C154.872 92.0459 154.952 92.0406 155.029 92.0207C155.105 92.0007 155.176 91.9664 155.238 91.9199C155.3 91.8734 155.352 91.8156 155.39 91.7499C155.428 91.6842 155.451 91.612 155.459 91.5375L168.026 7.52543C168.037 7.45338 168.033 7.37994 168.014 7.30934C167.995 7.23873 167.962 7.17234 167.915 7.11397C167.869 7.05559 167.811 7.00639 167.745 6.96917C167.679 6.93195 167.606 6.90745 167.529 6.89707C167.451 6.88735 167.371 6.89263 167.294 6.91262C167.218 6.9326 167.147 6.96686 167.085 7.01338C167.023 7.0599 166.971 7.11771 166.933 7.1834C166.895 7.24909 166.872 7.32131 166.864 7.39577L154.298 91.4078C154.276 91.5532 154.316 91.7005 154.409 91.8181C154.502 91.9357 154.64 92.014 154.794 92.0362Z" fill="black"/>
    <path d="M81.3386 15.5695L83.7146 32.0667C83.7292 32.171 83.7674 32.271 83.8268 32.36C83.8862 32.449 83.9652 32.5247 84.0586 32.5821C84.1519 32.6394 84.2573 32.677 84.3674 32.6922C84.4776 32.7074 84.5899 32.6999 84.6967 32.6702C90.0084 31.2339 119.545 24.0725 164.916 28.6307C165.108 28.6516 165.302 28.6032 165.459 28.4951C165.616 28.3869 165.723 28.227 165.761 28.0472C166.616 23.868 168.089 11.9639 168.464 8.91679C168.486 8.7247 168.428 8.53196 168.302 8.37996C168.175 8.22797 167.991 8.12885 167.788 8.1039C161.695 7.37579 120.104 3.02208 81.8719 14.7716C81.699 14.8257 81.5512 14.9348 81.454 15.0804C81.3567 15.2259 81.316 15.3988 81.3386 15.5695Z" fill="#3D509B"/>
    <path opacity="0.6" d="M81.3386 15.5695L83.7146 32.0667C83.7292 32.171 83.7674 32.271 83.8268 32.36C83.8862 32.449 83.9652 32.5247 84.0586 32.5821C84.1519 32.6394 84.2573 32.677 84.3674 32.6922C84.4776 32.7074 84.5899 32.6999 84.6967 32.6702C90.0084 31.2339 119.545 24.0725 164.916 28.6307C165.108 28.6516 165.302 28.6032 165.459 28.4951C165.616 28.3869 165.723 28.227 165.761 28.0472C166.616 23.868 168.089 11.9639 168.464 8.91679C168.486 8.7247 168.428 8.53196 168.302 8.37996C168.175 8.22797 167.991 8.12885 167.788 8.1039C161.695 7.37579 120.104 3.02208 81.8719 14.7716C81.699 14.8257 81.5512 14.9348 81.454 15.0804C81.3567 15.2259 81.316 15.3988 81.3386 15.5695Z" fill="#FAFAFA"/>
    <path d="M88.958 18.4521L91.4607 17.9534L93.2295 22.2971L93.6783 17.5295L96.1758 17.0308L98.367 21.2897L98.3987 16.6069L100.891 16.1082L100.563 24.5363L97.9815 25.035L95.5052 20.2374L94.9772 25.6035L92.3953 26.1022L88.958 18.4521Z" fill="#FAFAFA"/>
    <path d="M102.116 16.0184L109.238 15.021L109.471 16.7565L105.014 17.3749L105.189 18.6715L109.323 18.098L109.545 19.7587L105.41 20.3322L105.601 21.943L110.189 21.3097L110.437 23.1549L103.182 24.1523L102.116 16.0184Z" fill="#FAFAFA"/>
    <path d="M111.049 14.8265L113.721 14.5522L114.291 20.7212L118.457 20.2973L118.647 22.2922L111.783 22.9904L111.049 14.8265Z" fill="#FAFAFA"/>
    <path d="M125.168 18.4821L127.549 18.9808C127.451 19.5569 127.226 20.1072 126.889 20.5966C126.581 21.0371 126.159 21.3973 125.664 21.6439C125.072 21.9137 124.427 22.0665 123.769 22.0927C122.984 22.1717 122.19 22.0918 121.44 21.8583C120.791 21.5933 120.24 21.1525 119.856 20.5916C119.351 19.858 119.078 19.0032 119.07 18.128C118.931 16.9797 119.281 15.8265 120.041 14.9213C120.449 14.5127 120.939 14.1859 121.484 13.9606C122.028 13.7352 122.615 13.6159 123.209 13.6097C124.105 13.4991 125.015 13.656 125.812 14.0585C126.512 14.498 127.039 15.143 127.312 15.8938L124.973 16.5521C124.908 16.36 124.81 16.1796 124.682 16.0184C124.521 15.8373 124.314 15.6968 124.08 15.6095C123.701 15.4631 123.278 15.4511 122.89 15.5757C122.502 15.7004 122.175 15.9532 121.968 16.2877C121.712 16.8002 121.615 17.3709 121.689 17.9335C121.734 18.8411 121.91 19.4545 122.217 19.7737C122.376 19.9328 122.573 20.0541 122.791 20.1278C123.01 20.2014 123.243 20.2253 123.473 20.1976C123.69 20.1951 123.903 20.1494 124.1 20.0634C124.297 19.9775 124.472 19.8533 124.614 19.6989C124.906 19.3448 125.097 18.9258 125.168 18.4821Z" fill="#FAFAFA"/>
    <path d="M128.526 17.5295C128.485 16.9558 128.564 16.3801 128.76 15.8357C128.956 15.2913 129.264 14.7889 129.667 14.3577C130.098 13.9563 130.611 13.6409 131.174 13.4301C131.738 13.2194 132.34 13.1176 132.946 13.1309C133.547 13.0743 134.154 13.1335 134.73 13.305C135.307 13.4764 135.84 13.7565 136.298 14.1283C136.71 14.5321 137.029 15.0112 137.237 15.5361C137.445 16.061 137.537 16.6206 137.508 17.1804C137.553 17.9994 137.39 18.8169 137.032 19.5642C136.709 20.1866 136.201 20.7065 135.57 21.0603C134.836 21.4475 134.008 21.6502 133.167 21.6488C132.337 21.7039 131.504 21.5776 130.733 21.2797C130.07 20.9919 129.517 20.5183 129.149 19.9233C128.716 19.1932 128.501 18.3659 128.526 17.5295ZM131.203 17.4597C131.157 18.0913 131.343 18.7187 131.731 19.235C131.896 19.411 132.102 19.5478 132.333 19.6345C132.565 19.7211 132.814 19.7551 133.062 19.7338C133.315 19.7391 133.566 19.6903 133.797 19.591C134.027 19.4917 134.231 19.3444 134.392 19.1602C134.761 18.5803 134.918 17.9026 134.841 17.2302C134.886 16.6281 134.699 16.031 134.313 15.5496C134.144 15.3743 133.935 15.2381 133.702 15.1516C133.468 15.0652 133.217 15.0307 132.967 15.0509C132.719 15.0502 132.473 15.1023 132.249 15.2033C132.026 15.3043 131.829 15.4516 131.673 15.6344C131.302 16.1729 131.136 16.8151 131.203 17.4547V17.4597Z" fill="#FAFAFA"/>
    <path d="M139.134 13.1111H142.655L143.87 18.1331L145.364 13.146L148.886 13.1759L148.648 21.4046H146.452L146.631 15.1259L144.762 21.3896H142.777L141.272 15.0959L141.092 21.3746H138.896L139.134 13.1111Z" fill="#FAFAFA"/>
    <path d="M150.818 13.2556L157.983 13.5598L157.872 15.3153L153.384 15.1258L153.294 16.4573L157.455 16.6319L157.344 18.2826L153.183 18.108L153.078 19.7338L157.692 19.9233L157.566 21.7885L150.269 21.4793L150.818 13.2556Z" fill="#FAFAFA"/>
</svg>
