<svg xmlns="http://www.w3.org/2000/svg" xmlns:xlink="http://www.w3.org/1999/xlink" width="250" zoomAndPan="magnify" viewBox="0 0 187.5 187.499992" height="250" preserveAspectRatio="xMidYMid meet" version="1.0"><defs><clipPath id="3dd88e84a8"><path d="M 6.179688 6.179688 L 180.464844 6.179688 L 180.464844 180.464844 L 6.179688 180.464844 Z M 6.179688 6.179688 " clip-rule="nonzero"/></clipPath></defs><g clip-path="url(#3dd88e84a8)"><path fill="#bfbdbc" d="M 180.464844 93.324219 C 180.464844 141.449219 141.449219 180.464844 93.324219 180.464844 C 45.195312 180.464844 6.183594 141.449219 6.183594 93.324219 C 6.183594 45.195312 45.195312 6.183594 93.324219 6.183594 C 141.449219 6.183594 180.464844 45.195312 180.464844 93.324219 " fill-opacity="1" fill-rule="nonzero"/></g><path fill="#ffffff" d="M 124.277344 65.777344 C 124.277344 82.933594 110.367188 96.839844 93.210938 96.839844 C 76.054688 96.839844 62.144531 82.933594 62.144531 65.777344 C 62.144531 48.617188 76.054688 34.710938 93.210938 34.710938 C 110.367188 34.710938 124.277344 48.617188 124.277344 65.777344 " fill-opacity="1" fill-rule="nonzero"/><path fill="#ffffff" d="M 93.210938 176.328125 C 115.195312 176.328125 135.273438 168.183594 150.601562 154.753906 C 145.84375 123.675781 131.832031 102.113281 93.210938 102.113281 C 55.675781 102.113281 41.144531 123.769531 36.042969 154.949219 C 51.34375 168.265625 71.335938 176.328125 93.210938 176.328125 " fill-opacity="1" fill-rule="nonzero"/></svg>